<svg xmlns="http://www.w3.org/2000/svg" xmlns:xlink="http://www.w3.org/1999/xlink" width="671.656" height="361.952" viewBox="0 0 671.656 361.952">
  <defs>
    <clipPath id="clip-path">
      <rect id="Rectangle_657" data-name="Rectangle 657" width="254.833" height="247.806" fill="#e1e1e1"/>
    </clipPath>
  </defs>
  <g id="Group_322" data-name="Group 322" transform="translate(-200.169 -3682.548)">
    <g id="Group_310" data-name="Group 310" transform="matrix(0.966, -0.259, 0.259, 0.966, 561.59, 3748.696)">
      <g id="Group_309" data-name="Group 309" transform="translate(0 -0.2)" clip-path="url(#clip-path)">
        <path id="Path_1506" data-name="Path 1506" d="M196.859,382.789a7.741,7.741,0,0,0-2.709-.225,66.931,66.931,0,0,1-17.556-2.527,19.628,19.628,0,0,1-4.1-1.762c-2.873-1.594-4.344-4.2-5.358-7.189a28.357,28.357,0,0,1-1.47-11.613,11.527,11.527,0,0,1,2.837-6.257,17.186,17.186,0,0,1,8.425-5.705c.821-.253,1.011-.543.871-1.383-1.064-6.389-1.328-12.867-2.116-19.288a20.022,20.022,0,0,0-.838-3.756c-1.188-3.656.55-8.685,3.789-10.979a11.071,11.071,0,0,1,3.5-2.082c.512-.132.582-.525.706-.916a7.042,7.042,0,0,1,4.053-4.6c.712-.3.662-.674.487-1.251A23.705,23.705,0,0,0,183.62,296a94.069,94.069,0,0,0-7.457-8.818c-4.944-5.19-9.939-10.331-14.854-15.548a47.533,47.533,0,0,1-5.718-7.008c-.389-.614-.888-1.159-1.534-1.992-.087,1-.171,1.676-.2,2.355-.25,5.415-5.778,12.077-11.051,13.3-4.167.969-6.729-1.051-6.817-5.313a11.153,11.153,0,0,1,1.11-4.8c.807-1.813,2.7-1.924,4-.3,1.629,2.039,1.834,2.05,3.725.189a4.775,4.775,0,0,0,.446-5.457,14.5,14.5,0,0,0-5.964-5.8c-4.359-2.414-9.18-3.381-13.989-4.167-18.6-3.04-28.72-19.992-30.666-32.127a38.69,38.69,0,0,1,2.39-21.93c2.558-5.911,7.384-9.233,13.223-11.273a24.363,24.363,0,0,1,11.355-1.535,15.234,15.234,0,0,1,9.241,4.673,39.31,39.31,0,0,1,5.867,7.757c.112-1.421.2-2.843.34-4.261a7.973,7.973,0,0,1,6.4-7.484,193.519,193.519,0,0,1,35.379-6.093,187.151,187.151,0,0,1,21.265-.346c5.556.212,11.125-.44,16.672-.04,12.594.907,25.091,2.453,37.139,6.526,4.038,1.365,5.8,3.6,6.153,7.938a10.947,10.947,0,0,0,.331,2.706c.851-1.123,1.6-2.1,2.335-3.085,4.367-5.872,10.328-7.678,17.278-6.488,7.375,1.263,13.554,4.613,17.611,11.165a27.217,27.217,0,0,1,3.214,9.607,36.063,36.063,0,0,1,.059,14.083c-2.549,12.152-8.755,21.842-19.668,28.149-3.737,2.16-7.975,3-12.132,3.987a61.376,61.376,0,0,0-10.692,3.259,15.458,15.458,0,0,0-7.153,6.092c-1.639,2.646-1.057,5.664,1.464,7.11a1.178,1.178,0,0,0,1.8-.369c.023-.034.053-.064.076-.1.709-1.049,1.467-2.131,2.937-1.827,1.542.318,2.167,1.583,2.494,2.967a13.21,13.21,0,0,1,.358,4.322,4.484,4.484,0,0,1-4.611,4.432,6.88,6.88,0,0,1-3.392-.649c-5.408-2.609-8.97-6.684-10.045-12.735a20.8,20.8,0,0,1,.059-3.194c-.36-.1-.51.13-.639.322-4.253,6.338-9.811,11.511-15.084,16.941a144.886,144.886,0,0,0-12.9,14.485,25.652,25.652,0,0,0-3.94,7.3c-.223.686-.212,1.031.641,1.168a4.654,4.654,0,0,1,3.291,2.44,2.107,2.107,0,0,0,1.655,1.1,14.1,14.1,0,0,1,2.512.7,6.571,6.571,0,0,1,4.624,6.776c-.1,7.591-.76,15.166-.618,22.763.03,1.617.063,3.237.021,4.853-.023.862.311,1.142,1.144,1.169a28.19,28.19,0,0,1,7.447,1.313c4.947,1.527,7.3,5.471,8.895,9.871a15.323,15.323,0,0,1-1.826,14.782,15.572,15.572,0,0,1-4.883,4.157c-7.9,4.739-16.567,7.1-25.615,8.3a11.619,11.619,0,0,0-3.045.467Zm9.565-70.574c-.482-.226-.642.245-.915.441-1.621,1.159-3.227,2.3-5.358,2.332a12.616,12.616,0,0,1-4.75-.8,11.87,11.87,0,0,1-6.754-6.367c-.116-.253-.11-.639-.521-.538-.448.11-.378.486-.291.814a5.9,5.9,0,0,0,1.249,2.529c.408.454.641,1.04-.005,1.507-.608.44-1.123.126-1.49-.38-.552-.759-1.045-1.561-1.615-2.423a1.441,1.441,0,0,0,.012,2.056,5.28,5.28,0,0,0,1.885,1.39c.583.3.938.718.6,1.4-.353.719-.889.392-1.382.193s-.932-.649-1.547-.6a.852.852,0,0,0,.37.816,4.08,4.08,0,0,0,2.1.681c.822.121,1.406.463,1.219,1.349-.194.921-.969.695-1.626.6-.428-.06-.834-.338-1.307-.16,4.223,5.618,19.095,5.677,23.143,2.17a1.482,1.482,0,0,0-.371,0,1.037,1.037,0,0,1-1.44-.765c-.194-.712.409-.906.9-1.116a13.882,13.882,0,0,0,2.727-1.472c1.251-.9,1.489-1.555,1.027-3.2a7.2,7.2,0,0,0-1.452,1.673,6.269,6.269,0,0,1-2.806,2.178c-.446.172-.954.2-1.193-.316a.922.922,0,0,1,.344-1.3c1.877-.792,2.64-2.695,4.052-3.945a1.684,1.684,0,0,0,.59-1.993c-.121-.3-.148-.729-.567-.688-.348.034-.3.45-.362.712a7.9,7.9,0,0,1-2.8,4.293c-.367.315-.759.738-1.31.412a1.074,1.074,0,0,1-.4-1.518c.274-.25.541-.509.825-.748a5.932,5.932,0,0,0,2-3.611c.048-.26.2-.662-.186-.745-.518-.11-.462.359-.457.663a3.268,3.268,0,0,1-.484,1.376c-.471,1.086-1.414,1.912-1.67,3.105m-1.33-3.881a9.361,9.361,0,0,1-3.521,1,.994.994,0,0,1-.972-1.507c.278-.464.751-.447,1.2-.511a3.787,3.787,0,0,0,2.962-1.587c.153-.245.342-.556.189-.812-.2-.335-.532-.062-.778.012a5.567,5.567,0,0,1-1.844.217c-.644-.026-1.342-.07-1.307-.948.031-.759.573-1.064,1.291-1.028,1.654.082,2.967-.992,4.5-1.328.5-.109.691-.791.564-1.247-.117-.421-.644-.161-.986-.148a13.131,13.131,0,0,1-4.552-.5c-.719-.23-1.391-.539-1.072-1.472.31-.91,1.051-.656,1.672-.44a13.973,13.973,0,0,0,5.669.3c.82-.056,1.037-.914,1.108-1.452.081-.621-.682-.332-1.061-.365a11.68,11.68,0,0,1-3.647-.7,1.026,1.026,0,0,1-.607-1.43c.227-.6.725-.616,1.245-.429a11.8,11.8,0,0,0,3.422.568c2.349.124,3.313-.52,4.188-2.829-1.233-.157-2.464-.307-3.692-.473-.681-.092-1.254-.34-1.052-1.186.185-.776.775-.856,1.465-.762,1.026.139,2.076.153,3.085.364,2.277.478,3.222-1.059,4.3-2.675-1.611-.29-3.115-.554-4.617-.833-.584-.109-1.041-.382-.945-1.074.1-.724.6-.94,1.266-.872.288.03.57.111.856.153,1.477.213,2.953.431,4.432.621a1.239,1.239,0,0,0,1.173-.231c1.04-1.107,2.077-2.219,3.294-3.521-1.359-.154-2.456-.262-3.548-.409a1.036,1.036,0,0,1-1.008-1.293c.117-.738.7-.707,1.255-.653.991.1,1.981.2,2.973.293,2.253.2,3.7-.65,4.76-2.813a8.083,8.083,0,0,1-2.644-.617c-.652-.328-1.36-.7-1-1.58.378-.927,1.056-.609,1.76-.294,2.468,1.1,3.983.792,5.816-1.114.172-.179.336-.368.522-.533.51-.452.665-.771-.136-1.144a5.563,5.563,0,0,1-2.181-1.6c-.411-.543-.667-1.136-.143-1.674.6-.612,1.118-.175,1.577.309a6.981,6.981,0,0,0,2.186,1.608,1.1,1.1,0,0,0,1.447-.294c1.025-1.245,2.043-2.5,3.1-3.715.552-.637.382-.94-.338-1.236a28.691,28.691,0,0,0-3.656-1.18c-.566-.149-1.086-.332-.962-1.04.131-.744.69-.814,1.333-.725a12.437,12.437,0,0,1,4.589,1.458c.366.211.76.578,1.133-.079.839-1.473,1.882-2.819,2.658-4.337.42-.821.209-1.125-.622-1.36a9.724,9.724,0,0,1-4.189-2.094c-.514-.484-.76-1.018-.2-1.614.53-.563,1.044-.325,1.516.114a7.905,7.905,0,0,0,3.057,1.61c1.784.581,1.785.581,2.517-1.1a13.9,13.9,0,0,1,.7-1.593c.628-1.055.345-1.621-.806-1.981a6.734,6.734,0,0,1-3.042-1.625c-.664-.7-.508-1.7.275-1.936.612-.181.88.338,1.259.627a5.919,5.919,0,0,0,3.476,1.452c.61-.019.786-1.673,1.163-2.586a6.12,6.12,0,0,1,.263-.7c.546-.961.111-1.433-.8-1.735-.983-.327-1.952-.7-2.924-1.057-.566-.21-.962-.58-.728-1.226a1.012,1.012,0,0,1,1.423-.608c.433.142.854.319,1.284.469.93.324,2.083,1.13,2.738.835.8-.358.776-1.813,1.232-2.734s.116-1.347-.692-1.731a31.7,31.7,0,0,0-4.325-1.565c-.672-.207-1.158-.57-.966-1.336.207-.825.851-.793,1.5-.59,1.067.336,2.125.7,3.193,1.039.809.254,1.725,1.215,2.3.809.609-.428.66-1.624,1.005-2.464.258-.628.076-.861-.568-1.02a52.929,52.929,0,0,1-5.486-2.006c-.675-.248-1.066-.675-.8-1.422s.859-.676,1.444-.453c1.2.458,2.386.958,3.591,1.406,2.686,1,2.689.991,3.465-1.687.069-.239.136-.478.206-.717.462-1.582.25-1.983-1.348-2.352-.806-.186-1.636-.269-2.452-.42a11.214,11.214,0,0,1-1.45-.343,1.046,1.046,0,0,1-.791-1.44c.229-.666.752-.614,1.337-.474a28.32,28.32,0,0,0,3.412.671c.8.088,1.667.99,2.254.436.508-.479.392-1.568.685-2.337.363-.954-.029-1.462-.8-1.914a12.487,12.487,0,0,0-4.425-1.571c-.783-.123-1.224-.58-1.073-1.375.156-.821.844-.66,1.408-.572a26.4,26.4,0,0,1,3.351.919c.782.231,1.5,1.407,2.211.746.514-.48.354-1.646.572-2.486.2-.783-.136-1.134-.814-1.392a16.287,16.287,0,0,0-5.071-1.164c-.741-.034-1.355-.276-1.245-1.171.1-.847.774-.838,1.426-.808a17.585,17.585,0,0,1,5.324,1.173c.309.115.643.437.9-.161.712-1.676.3-2.755-1.358-3.5a14.765,14.765,0,0,0-3.618-.871,1.044,1.044,0,0,1-.991-1.3c.122-.705.694-.7,1.272-.626a13.469,13.469,0,0,1,4.322,1.093c.727.364,1.064.268,1.026-.607a7.733,7.733,0,0,1,.047-1.367,1.8,1.8,0,0,0-1.467-2.12c-.473-.151-.96-.256-1.443-.373-1.369-.332-2.747-.63-4.105-1a1,1,0,0,1-.7-1.377c.212-.683.739-.675,1.315-.495,1.9.6,3.928.675,5.8,1.411.291.115.616.186.612-.281-.008-.842.143-1.662-.828-2.266a21.491,21.491,0,0,0-6.533-2.3c-.653-.158-1.422-.294-1.212-1.223.206-.914.91-.917,1.681-.726a22.312,22.312,0,0,1,6.687,2.363,2.07,2.07,0,0,0-1.046-2.489,13.1,13.1,0,0,0-6.864-1.9c-.653.005-1.32-.043-1.351-.906-.032-.89.583-1.077,1.33-1.092a14.635,14.635,0,0,1,5.821,1.125c.26.105.524.437.929.087-1.163-1.437-2.848-1.827-4.458-2.287a126.931,126.931,0,0,0-20.767-4.462c-7.631-.853-15.235-1.864-22.942-1.495-2.9.139-5.8.136-8.71.03a192.932,192.932,0,0,0-26.227.773c-6.294.628-12.432,2.042-18.618,3.233a67.03,67.03,0,0,0-10.165,2.369,4.99,4.99,0,0,0-2.705,1.629c.391.254.7.071,1.008.012a54.909,54.909,0,0,1,9-1.119c.731-.019,1.528-.042,1.561.955s-.746,1.018-1.49,1.039a37.81,37.81,0,0,0-8.5,1.088c-3.573.931-2.8.342-3.166,3.771-.129,1.2.251,1.181,1.2.774a26.871,26.871,0,0,1,8.888-1.64.914.914,0,0,1,1.019.544.986.986,0,0,1-.171,1.049,1.43,1.43,0,0,1-1.131.4,32.974,32.974,0,0,0-6.39.938,10.567,10.567,0,0,0-3.049,1.375c-1.022.689-.692,1.8-.483,2.613.183.713,1,.06,1.5-.036,1.912-.365,3.806-.825,5.714-1.216.793-.163,1.7-.283,1.857.831.153,1.073-.823.949-1.457,1.1-1.816.423-3.65.772-5.46,1.219-2.231.551-2.187.579-2.042,2.821.052.8.322,1.018,1.071.841,1.613-.382,3.23-.749,4.854-1.082.671-.137,1.531-.413,1.692.635.157,1.019-.68,1.164-1.44,1.32-1.014.208-2.028.425-3.031.682-3.113.8-3.112.806-2.366,4.03a1.818,1.818,0,0,0,.136.288,14.9,14.9,0,0,1,5.172-1.108.939.939,0,0,1,1.106.915c.042.648-.332.985-.967,1.059-.618.072-1.242.12-1.85.244-3.35.682-3.349.689-2.654,4.02a1.76,1.76,0,0,1,.039.246c.048.765.361.9,1.045.541a8.65,8.65,0,0,1,3.558-1.036.88.88,0,0,1,1.049.822.915.915,0,0,1-.777,1.094c-.447.09-.9.144-1.343.259-2.843.746-2.963,1.013-2.258,3.781.239.937.656,1.094,1.488.819,1.061-.351,2.136-.668,3.221-.938a1.053,1.053,0,0,1,1.435.813c.176.794-.407.957-1.007,1.118-1.121.3-2.218.7-3.349.947-.8.176-.888.512-.627,1.21.362.97.658,1.967.939,2.964.174.617.439.794,1.07.52a13.472,13.472,0,0,1,3.46-.992,1.05,1.05,0,0,1,1.283.894c.14.694-.292.95-.91,1.055a19.46,19.46,0,0,0-3.105.885c-.666.231-.8.561-.536,1.212.44,1.073.837,2.168,1.185,3.275.2.644.45.743,1.054.428a10.815,10.815,0,0,1,4.3-1.127c.62-.043,1.215.023,1.309.8.1.793-.383,1.085-1.1,1.192a14.3,14.3,0,0,0-2.181.472c-2.573.808-2.536.81-1.578,3.291.29.75.634.8,1.305.555,1.323-.482,2.674-.89,4.016-1.321.651-.209,1.272-.237,1.506.578.229.794-.28,1.119-.94,1.33-1.382.442-2.755.915-4.142,1.344-.557.173-.713.4-.464.986a40.315,40.315,0,0,1,1.479,3.827c.283.9.707.955,1.446.586a10.623,10.623,0,0,1,2.866-1.18c.634-.11,1.325-.218,1.524.609s-.309,1.231-1.086,1.318a4.363,4.363,0,0,0-1.645.541c-2.2,1.227-2.073.452-1.063,2.925.321.786.7.977,1.494.578a7.541,7.541,0,0,1,3-.739c.636-.036,1.074.218,1.118.88a.974.974,0,0,1-.943,1.1,13.991,13.991,0,0,0-1.585.294c-1.938.544-1.932.552-.825,2.206a11.66,11.66,0,0,1,.777,1.273c.348.7.741.756,1.332.255a6.558,6.558,0,0,1,4.246-1.481c.572-.013,1.129-.012,1.187.744.061.8-.431,1.133-1.147,1.14a4.593,4.593,0,0,0-1.709.247c-2.284.917-2.385,1.336-.893,3.241.447.57.81.792,1.532.389a9.335,9.335,0,0,1,3.88-.73.829.829,0,0,1,1.009.833.9.9,0,0,1-.817,1.058c-.492.071-.993.079-1.484.153-.651.1-1.56.074-1.79.641-.246.605.551,1.071.986,1.537a5.419,5.419,0,0,1,.654.748,1.038,1.038,0,0,0,1.485.394c1.107-.453,2.238-.853,3.374-1.228.687-.226,1.495-.372,1.76.536.271.928-.489,1.173-1.208,1.374a13.871,13.871,0,0,0-3.112,1.178c1.307,1.855,1.309,1.86,3.267,1.349a15.658,15.658,0,0,1,3.448-.436c.731-.025,1.4.078,1.4.987,0,.806-.579,1.012-1.283,1a4.091,4.091,0,0,0-.869.042c-.832.166-2.053-.147-2.379.62-.242.569.932,1.1,1.416,1.7.1.128.248.226.344.359a1.253,1.253,0,0,0,1.714.437,7.534,7.534,0,0,1,2.68-.485c.653-.021,1.215.121,1.263.864.05.776-.474,1.079-1.189,1.132a13.264,13.264,0,0,0-1.358.153c-.562.1-.71.347-.252.808.847.854,1.705,1.7,2.494,2.607a1.382,1.382,0,0,0,1.718.484c.763-.258,1.831-.841,2.269.325.471,1.251-.8,1.243-1.711,1.579.7.8,1.366,1.473,1.928,2.221a1.167,1.167,0,0,0,1.612.389,6.363,6.363,0,0,1,2.274-.6c.58-.019.984.193,1.045.806a.918.918,0,0,1-.762,1.1c-.485.107-.977.185-1.458.307-.264.068-.59.109-.489.551a3.636,3.636,0,0,0,2.982,2.143,11.21,11.21,0,0,0,3.258-.763,1.069,1.069,0,0,1,1.551.564c.313.756-.245,1.036-.818,1.26a14.717,14.717,0,0,1-2.993.82c-.285.046-.722-.054-.554.54a3.849,3.849,0,0,0,3.772,2.938,6.291,6.291,0,0,0,2.09-.251c.629-.2,1.355-.553,1.637.411s-.406,1.3-1.18,1.55a14.3,14.3,0,0,1-3.583.314,2.2,2.2,0,0,0,1.3,2,6.418,6.418,0,0,0,3,.7c.691.01,1.129.348,1.11,1.053-.019.743-.547.982-1.206.925-.931-.079-1.858-.2-2.8-.307a1.493,1.493,0,0,0,1.024,1.592,10.4,10.4,0,0,0,3.271,1.142c.774.074,1.368.334,1.244,1.175-.141.957-.916.888-1.659.781-.618-.089-1.169-.55-2.015-.391,2.3,2.307,4.858,3.47,7.944,2.784a5.9,5.9,0,0,0,4.267-3.554m-55.037-53.647c-5.539-15.123-11.887-29.973-13.061-46.463a3.074,3.074,0,0,0-.906,1.4,13.6,13.6,0,0,1-2.688,4c-2.307,2.171-5.016,1.624-6.324-1.243-1.142-2.505-.473-4.769.866-6.95a1.388,1.388,0,0,1,1-.693c.916-.092,1.044-.712,1-1.416-.178-2.679-1.142-4.953-3.651-6.226-4.177-2.119-8.328-2.087-12.006.967a33.523,33.523,0,0,0-9.992,13.414c-2.092,5.264-1.134,10.434,1.524,15.2,5.747,10.307,14.229,16.958,26.1,18.946a34.036,34.036,0,0,1,17.179,8.463c.259.23.45.585.96.595m96.028,2.234c.552-.506.855-.778,1.152-1.057a30.962,30.962,0,0,1,11.641-6.977c2.8-.917,5.693-1.5,8.52-2.31,12.116-3.48,20.321-11.167,24.368-23.119,1.78-5.258.681-10.278-2.264-14.83a38.4,38.4,0,0,0-9.448-9.453,9.075,9.075,0,0,0-9.251-1.32,7.381,7.381,0,0,0-5.094,5.763c-.4,2.034-.432,2.032,1.229,3.178a3.826,3.826,0,0,1,1.3,1.48,6.654,6.654,0,0,1,.335,5.748c-1.122,2.667-3.795,3.421-6.066,1.644a10.661,10.661,0,0,1-2.106-2.435c-.162-.234-.195-.672-.756-.576-1.857,15.433-8.069,29.553-13.561,44.264m-17.067,91.222c.226.486.477.963.674,1.461a6.767,6.767,0,0,1-.08,5.552c-.248.535-.635.9-1.283.63a.964.964,0,0,1-.559-1.329c.089-.276.213-.541.3-.818.989-3.289-2.013-7.156-5.351-6.592,2.722.553,3.58,2.3,3.751,4.542.056.737.038,1.514-.946,1.57-1.023.058-1-.727-1.049-1.464-.06-.876-.1-1.806-1.259-2.321.158,1,.284,1.851.428,2.7a5.465,5.465,0,0,1-.979,4.367,11.809,11.809,0,0,1-4.349,3.626,32.005,32.005,0,0,1-8.279,2.6c-6.183,1.075-12.4.791-18.608.33a30.324,30.324,0,0,1-9.48-2.408c-1.99-.832-3.258-2.085-3.073-4.413a2.9,2.9,0,0,0-.313-1.634,4.838,4.838,0,0,0-.372,4.074c.261.75.379,1.455-.5,1.756-.974.333-1.207-.508-1.394-1.175a6.933,6.933,0,0,1,1.713-7.23c.2-.2.531-.378.3-.7-.153-.214-.466-.125-.705-.071a3.745,3.745,0,0,0-2.643,2.42,9.215,9.215,0,0,0-.325,6.1c.141.546.307,1.114-.408,1.343-.686.219-1.069-.227-1.355-.786a6.79,6.79,0,0,1-.622-2.886,15.377,15.377,0,0,1,.7-4.314,11.482,11.482,0,0,0-3.137,3.428,2.789,2.789,0,0,0,.189,3.741c.267.316.593.585.838.916.325.439.917.876.3,1.492-.583.587-1.095.293-1.623-.159-.246-.21-.436-.788-.857-.476-.331.245-.061.715.046,1.05.69,2.157,2.363,3.459,4.172,4.587a24.062,24.062,0,0,0,9.6,3.226,90.051,90.051,0,0,0,37.8-2.786c4.585-1.332,8.837-3.3,12.2-6.856a8.7,8.7,0,0,0,2.615-7.259,11.72,11.72,0,0,1-1.976,3.085c-.57.556-1.195,1.065-1.924.366-.769-.737-.05-1.232.434-1.738a4.741,4.741,0,0,0,1.341-4.78c-.531-1.983-2.26-2.3-3.938-2.752M133.9,207.125c.423-.61.707-1.264.538-1.653-.441-1.009.113-1.945.037-2.8-.444-5-5.742-12.56-12.54-13.845-4.877-.921-9.377.521-13.7,2.555a17.317,17.317,0,0,0-8.843,9.205,33.282,33.282,0,0,0-2.084,17.786,38.723,38.723,0,0,0,6.9,17.263c4.831,6.857,11,11.771,19.395,13.532,3.407.715,6.806,1.474,10.183,2.316,1.057.264,1.781.517,2.419-.764.39-.783.2-.862-.4-1.058-1.371-.449-2.709-1.068-4.12-.015-.37.276-1.113.633-1.425,0-.354-.719.58-.586.871-.906.041-.045.023-.143.04-.272-1.563-.359-3.141-.681-4.7-1.093a3.545,3.545,0,0,0-2.748.1c-.486.253-1.364.66-1.661-.042-.365-.861.86-.465,1.158-1.063-1.974-.554-3.69-2.718-5.994-.721a.433.433,0,0,1-.66-.089.5.5,0,0,1,.164-.753c.428-.292.879-.551,1.429-.891a20.643,20.643,0,0,1-1.931-1.317c-.841-.723-1.548-.813-2.292.124-.249.314-.629.887-1.094.38-.44-.479.167-.77.433-1.107.24-.3.952-.555.682-.883a12.006,12.006,0,0,0-2.14-1.871c-.5-.377-.788.259-1.181.412-.366.143-.777.6-1.1.168-.413-.555.184-.745.555-.995.273-.185.884-.435.416-.792-1.233-.942-1.7-3.013-3.825-2.674a.546.546,0,0,1-.606-.342.363.363,0,0,1,.2-.517c1.18-.263.414-.764.131-1.144-3.484-4.686-5.926-9.778-6.123-15.737a1.232,1.232,0,0,0-.763-1.143c-.48-.27-1.26-.619-.869-1.259.472-.772.841.258,1.3.326a1.794,1.794,0,0,0,.25,0c.444-1.361,1.077-2.732-.734-3.695-.382-.2-.877-.746-.342-1.221.442-.392.664.233.971.46.281.208.617.912.947.344a16.3,16.3,0,0,0,1.406-3.3c.191-.608-.784-.485-.95-.98-.109-.324-.574-.619-.184-.983.338-.316.58.014.821.252.621.615,1.057.5,1.556-.243,1.3-1.922,1.332-1.9-.186-3.688-.027-.031-.059-.058-.088-.088-.217-.22-.4-.467-.128-.747a.529.529,0,0,1,.783.017c.362.339.681.723,1.024,1.082.226.237.477.581.8.171a9.054,9.054,0,0,0,1.4-2.037c.217-.537-.527-.958-.744-1.483-.142-.344-.317-.675-.451-1.022-.125-.326-.186-.681.24-.83s.538.179.695.5c.972,1.986.98,1.982,2.429.4a2.286,2.286,0,0,1,.254-.273c.523-.409.561-.811.128-1.354a3.517,3.517,0,0,1-.709-1.836c-.036-.333-.058-.711.406-.762.367-.04.47.246.55.548a4.67,4.67,0,0,0,.387,1.173c.188.32.3,1.068.911.59.429-.337,1.4-.523.806-1.479a4.525,4.525,0,0,1-.648-1.736c-.05-.346-.055-.694.4-.76.377-.055.467.217.557.522a13.679,13.679,0,0,0,.507,1.4c.092.221.244.545.521.423.947-.417,1.881-.867,2.79-1.36.484-.263.286-.821.362-1.251s.144-.917.673-.876.419.531.346.888c-.16.791.258.822.846.7a5.125,5.125,0,0,1,.985-.131c.785-.011,1.542,0,1.365-1.158a.428.428,0,0,1,.432-.5c.359-.012.518.244.518.566,0,.6-.028,1.193.837,1.186.579,0,1.186.437,1.7-.258.409-.549.811-.388.884.258a.935.935,0,0,0,1.414.793c.716-.3.982-.293,1.035.518.022.332.358.432.595.586a9.5,9.5,0,0,1,4.392,7.438c.232,2.405-.2,4.556-2.735,5.7-.7.316-.892,1.511-.326,1.663.617.166.757.552.921,1.023.109.312.213.7.6.712.359.012.521-.362.731-.611.328-.388,0-.6-.235-.813a2.621,2.621,0,0,1-.706-1.29c-.058-.206-.105-.445.094-.566.254-.154.469-.008.626.219a4.476,4.476,0,0,0,.361.5c.23.25.408.78.844.445a.864.864,0,0,0,.326-1.194c-.217-.353-.442-.7-.663-1.052-.19-.3-.325-.62.072-.851.327-.191.536.049.726.282.15.184.3.367.536.651m129.98,5.665c.038-.524.058-.933.1-1.34.027-.253.1-.525.426-.5s.356.3.361.555c.01.5,0,1,.011,1.493.005.239-.037.525.285.606.228.058.37-.1.523-.25a2.724,2.724,0,0,0-.473-3.792,4.813,4.813,0,0,1-2.5-4.179,10.131,10.131,0,0,1,3.155-7.956c.457-.446,1.125-.721,1.109-1.538-.005-.266.275-.391.561-.336,1.445.279,2.383-.145,2.491-1.765a.459.459,0,0,1,.493-.456c.32,0,.4.22.45.485.055.315-.194.849.471.758.485-.066,1-.115,1.155-.747.145-.6.333-1.2.5-1.8.088-.313.262-.548.616-.449s.4.385.335.7c-.043.2-.1.4-.154.6-.336,1.3-.245,1.39,1.1,1.281a.911.911,0,0,0,.859-.573c.228-.488.491-.959.75-1.432.146-.267.346-.507.688-.347.41.191.326.521.165.843a2.086,2.086,0,0,0-.284.549c-.057.4-.913.881-.067,1.187.634.229,1.491,1.073,2.041-.26a4.269,4.269,0,0,1,1.485-1.96c.249-.171.515-.344.78-.077.327.328.114.6-.159.832a7.5,7.5,0,0,0-1.014,1.245c-.792,1.029-.194,1.4.64,1.961,1.008.673,1.15-.04,1.483-.644.24-.435.528-.843.8-1.26.214-.329.47-.663.889-.339.349.27.118.6-.053.886q-.542.906-1.1,1.8c-.411.668.066.973.52,1.292.581.408.692-.147.912-.452a6.1,6.1,0,0,1,1.226-1.4c.309-.233.673-.472.981-.085.271.339-.051.586-.289.829-.374.383-.721.793-1.078,1.192-.69.771-.18,1.21.415,1.7.817.668.835-.205,1.115-.538.372-.444.688-.935,1.063-1.375a.484.484,0,0,1,.762-.062c.222.217.124.463-.022.675s-.313.386-.465.582c-1.327,1.717-1.315,1.814.488,3.3.275-.418.523-.846.821-1.235.275-.359.451-1.123,1.063-.721s-.033.863-.24,1.261c-.191.366-.44.7-.663,1.051-.167.26-.278.544-.034.8.65.678,1,1.839,1.886,2,.476.088.706-1.168,1.133-1.764.048-.067.079-.146.125-.215.227-.333.42-.837.938-.486.436.295.1.662-.064.981-.417.81-.9,1.593-1.241,2.435a1.792,1.792,0,0,0,.784,2.054c.575.424.526-.577.871-.833.131-.1.214-.259.345-.356.4-.3.8-1.02,1.324-.464s-.268.8-.577,1.108c-1.292,1.277-1.407,1.873-.558,3.173.4-.145.445-1.007,1.024-.642.6.377.17.924-.1,1.295a2.1,2.1,0,0,0-.275,1.985,9.965,9.965,0,0,1,.389,2.074c.12,1.76.556,3.417.041,5.309-.806,2.966-1.392,5.991-2.916,8.684-4.665,8.242-11.037,14.667-19.913,18.359a4.815,4.815,0,0,0-.728.386c.4.88-.394,1.6-.3,2.408.026.234.345.137.537.09,1.593-.4,3.374-.558,3.527-2.785a1.358,1.358,0,0,1,.127-.35c.143-.384.243-.905.807-.694.479.18.231.625.154.973-.1.463-.483.871-.3,1.4,1.453-.385,1.454-.384,1.975-1.61a6.816,6.816,0,0,1,.493-1.137c.258-.387.22-1.3.988-.945.644.3.045.858-.06,1.3-.069.292-.451.539-.14.891,1.828-.812,1.857-.845,2.293-2.609.049-.2.077-.408.136-.606a.458.458,0,0,1,.909.08c.023.28.005.564.005.871a4.178,4.178,0,0,0,2.773-3.1c.137-.433.372-.93.823-.535.584.512.752.031,1.083-.223,1.871-1.433,2.325-3.989,4.3-5.366.761-.53.271-1.461.3-2.224.017-.553-.418-1.429.456-1.562.772-.118.263.888.732,1.286,1.059-1.618,2.094-3.16,1.312-5.238-.152-.4-.441-1.216.344-1.34.759-.12.421.735.662,1.1.031.048.133.049.33.113.328-1.99,1.9-3.743.869-5.943a.42.42,0,0,1,.262-.608c.924-.1.758-.852.87-1.4a30.348,30.348,0,0,0,.456-5.061,27.649,27.649,0,0,0-3.513-15.416c-3.062-5.167-7.97-7.792-13.547-9.414a15.165,15.165,0,0,0-11.262.8c-3.431,1.67-5.6,4.6-7.589,7.686-.335.521-1.021,1.051-.27,1.82.241.247-.094.562-.363.66-1.208.438-1.08,1.542-1.273,2.483-.059.289-.089.615.386.57.318-.031.714-.19.824.277.119.5-.29.63-.657.722-.468.117-.634.412-.451.826.194.436-.1,1.2.688,1.251s.833.388.464.942c-.421.632-.176,1.093.245,1.663.394-.455.331-1.322,1.039-.978.6.293.184.888.059,1.328-.192.68-.522,1.351.513,1.914M195.873,338c-2.572,0-5.144.031-7.715-.017-.866-.016-1.053.233-.906,1.077a77.833,77.833,0,0,1,1.1,9.886c.062,1.411.592,1.8,1.883,1.942,7.94.846,15.712-.617,23.522-1.6.7-.088.9-.375.747-1.066a61.318,61.318,0,0,1-1.555-11.071c-.02-.56-.137-.843-.809-.654a47.91,47.91,0,0,1-16.271,1.5M182,355.511a1.589,1.589,0,0,0,.924,2.08,20.218,20.218,0,0,0,6.107,2.04,79.188,79.188,0,0,0,16.62.672,28.819,28.819,0,0,0,10.114-2.394,12.071,12.071,0,0,0,3.787-2.337,3.541,3.541,0,0,0,1.167-2.528c.006-.627-.166-.847-.8-.459-.741.451-1.532.822-2.315,1.2a1.088,1.088,0,0,1-1.6-.443c-.409-.8.216-1.127.8-1.381a13.4,13.4,0,0,0,2.9-1.67c.694-.536.294-1.117.15-1.687-.064-.255-.037-.62-.43-.668-.543-.066-1.668,1.045-1.676,1.642-.024,1.679-.253,1.939-1.917,2.35a83.805,83.805,0,0,1-9.089,1.373,65.354,65.354,0,0,1-17.845.4c-1.137-.16-2.23-.327-2.849-1.46-.192-.351-.519-.359-.859-.362a9.189,9.189,0,0,1-3.054-.5c-.641-.232-.679.028-.672.56.014.976.7,1.35,1.421,1.689a12.382,12.382,0,0,0,4.49.865c.707.052,1.2.391,1.142,1.177-.064.809-.678.807-1.29.788a18.317,18.317,0,0,1-5.226-.947m36.884-42.756c0,.523-.009.927,0,1.332a9.176,9.176,0,0,1-2.091,6.1c-.384.485-.862.729-1.392.351a1.053,1.053,0,0,1-.176-1.54c.256-.423.562-.817.818-1.241a6.706,6.706,0,0,0,.346-6.094c-.153-.414-.3-1.013-.882-.825-.417.136-.1.652-.1.989a17.649,17.649,0,0,1-.315,4.445,8.988,8.988,0,0,1-5.966,6.507,25.889,25.889,0,0,1-21.359-.844c-3.159-1.561-5.462-3.756-5.422-7.618,0-.285.108-.789-.335-.808a.946.946,0,0,0-.93.7,3,3,0,0,0-.027,1.1,7.077,7.077,0,0,0,1.515,3.362.937.937,0,0,1-.072,1.415c-.559.564-1,.168-1.395-.178a5.806,5.806,0,0,1-.675-.879,17.59,17.59,0,0,1-1.357-2.773,1.444,1.444,0,0,0-.429,1.928,8.913,8.913,0,0,0,2.367,2.983c.534.515,1.258,1.073.463,1.855-.77.758-1.346.091-1.875-.45-.66-.675-1.308-1.362-2.078-2.167a5.344,5.344,0,0,0,2.672,4.759,18.308,18.308,0,0,0,4.194,1.869c5.91,1.739,11.958,1.756,18.02,1.324a34.64,34.64,0,0,0,10.9-2.358,9.23,9.23,0,0,0,5.855-7.048,18.329,18.329,0,0,0,.381-4.452,2.4,2.4,0,0,0-.658-1.754M178.99,328.29a2.493,2.493,0,0,0,1.582,3.057,10.5,10.5,0,0,0,4.153,1.18c.747.029,1.376.245,1.331,1.11-.049.923-.78.932-1.478.889a10.758,10.758,0,0,1-4.3-1.134c-.842-.432-.943-.148-.911.666a1.51,1.51,0,0,0,1.182,1.541c1.134.341,2.368.835,3.421.052a2.915,2.915,0,0,1,1.908-.664c3.484.055,6.97.069,10.452.163a50.086,50.086,0,0,0,16-1.776c1.067-.322,2.256-.771,3.317.161.14.123.292.07.461.025a4.077,4.077,0,0,0,2.758-4.309c-.5.274-.958.523-1.414.784a34.876,34.876,0,0,1-5.976,2.763.916.916,0,0,1-1.319-.535.95.95,0,0,1,.61-1.3c.3-.134.617-.245.927-.362a34.359,34.359,0,0,0,6.513-3.352,1.483,1.483,0,0,0,.908-1.493A18.231,18.231,0,0,1,210.728,330c-10.7,2.387-21.282,2.334-31.739-1.706m19.225,51.489c4.53.377,9.67-.6,14.8-1.588,3.711-.711,3.661-.759,3.111-4.494-.158-1.07-.453-1.332-1.566-1.119-7.75,1.484-15.541,2.59-23.472,2.052-.62-.042-1.25,0-1.863-.084-1.122-.159-1.176.3-.779,1.158.418.9.82,1.815,1.163,2.747a1.235,1.235,0,0,0,1.28.913c2.195.089,4.387.243,7.325.415m72.7-131.01c-1.67.413-3.289.906-4.944,1.205a33.863,33.863,0,0,0-17.536,8.776c-1.611,1.513-3.078,3.144-3.138,5.677.388-.1.789-.555,1.1-.047.263.433-.132.669-.332.965a3.682,3.682,0,0,0-.695,1.153c-.1.465-.09,1.459.381,1.31,1.442-.456.93.364.788.974a2.716,2.716,0,0,0,.323,2.367c.408.576.636,1.217,1.564.765.236-.115.4.361.433.647.252,1.91,1.672,2.812,3.1,3.766.318-.471-.228-1.266.488-1.319.791-.058.54.758.689,1.22.038.117.04.245.068.366.175.769.856.706,1.395.783.726.1.465-.5.505-.857.034-.3.063-.61.412-.678.373-.073.48.209.57.508s-.139.782.338.8a.881.881,0,0,0,.845-.792,8.78,8.78,0,0,0-.153-3.86c-.371-.011-.451.2-.583.355A3.423,3.423,0,0,1,252.113,274a7.354,7.354,0,0,1-4.617-7.945,11.588,11.588,0,0,1,3.061-6,15.241,15.241,0,0,1,3.675-3.1c.758-.393.539-1.3,1.052-1.741.544-.467,1.135.612,1.859.008.7-.588,1.78-.655,2.277-1.611a.627.627,0,0,1,.946-.224,2.19,2.19,0,0,0,2.81-1.034c.13-.261.2-.581.547-.605s.522.18.529.538c.007.333.211.408.5.346.912-.192,1.982-.162,2.038-1.515.014-.341.1-.707.532-.7.464,0,.5.385.449.721-.136.819.329.754.878.662,1.591-.266,1.943-.715,2.261-3.03m-43.1,122.266c0-.662.006-1.324,0-1.986-.006-.507-.122-.793-.737-.5a47.693,47.693,0,0,1-8.6,3.152c-.5.133-.641.375-.554.894a28.308,28.308,0,0,1,.395,3.2c.049.955.413,1.037,1.236.769,2.008-.654,3.965-1.444,5.955-2.135,1.714-.6,2.664-1.5,2.3-3.4M140.792,254.217a25.5,25.5,0,0,1,3.553,2.644,11.657,11.657,0,0,1,4.029,6.091c.673,2.412.684,4.742-1.123,6.762-.443.5-.314.779.365.854a1.185,1.185,0,0,0,1.262-.52,11.574,11.574,0,0,0,1.776-3.778c.178-.646.309-1.145-.658-1.06-.27.024-.642-.02-.618-.428.023-.384.372-.352.657-.408.333-.066.764.275,1-.2a2.988,2.988,0,0,0-.975-2.866c-.423-.214-.582-.44-.268-.856.795-1.054-.373-1.5-.716-2.181-.279-.549-.736-1.019-1.513-.692-.417.175-.954.358-1.179-.21-.258-.653.644-.484.8-.927a29.892,29.892,0,0,0-2.553-2.147c-1.2-1.063-2.387-1.579-3.83-.08m46.384,124.764c.345.076.47-.165.226-.716a9.841,9.841,0,0,1-.85-2.056c-.306-1.648-1.3-2.2-2.853-2.148-.917.033-2.275-.747-2.636-.1-.465.835.318,2.024.774,2.989.269.571.419,1.267,1.261,1.378,1.269.167,2.529.4,4.079.652M140.627,275.456c-.026-.459-.9-.775-.345-1.26.569-.5.9.186,1.2.48,1.068,1.058,1.886.421,2.828-.322-.337-.159-.59-.286-.848-.4-.292-.127-.523-.322-.42-.656.133-.431.523-.418.817-.257,1.741.951,2.626-.245,3.716-1.486-.784.075-1.016-.94-1.988-.3-2.768,1.827-3.908,1.639-6.232-.611-1.108,2.7-.6,4.711,1.273,4.808m42.694,65.794c1.121.249,1.339-.259,1.095-1.226a9.3,9.3,0,0,1-.238-1.337.689.689,0,0,0-.8-.718,11.916,11.916,0,0,1-3.058-.375c-.322-.078-.535-.091-.613.329a2.48,2.48,0,0,0,1.8,2.967c.588.175,1.207.243,1.812.36m46.429,28.344-.026,0c0,.66.011,1.32,0,1.98-.008.372.131.61.5.432.537-.26,1.23-.362,1.384-1.112a15.024,15.024,0,0,0,.32-4.445c-.025-.27-.1-.733-.484-.46-.753.531-1.943.749-1.7,2.124a8.729,8.729,0,0,1,.013,1.48m-50.775,7.956c.888.224.82-.179.641-.709a6.965,6.965,0,0,1-.589-2.017c-.015-1.478-.877-1.928-2.11-2.212-.822-.19-.852.1-.664.724.261.873.524,1.747.758,2.627a1.913,1.913,0,0,0,1.964,1.588m4.1-32.15a6.042,6.042,0,0,0,.723,0c.484-.094,1.29.322,1.188-.723-.073-.742.109-1.6-1.173-1.528a15.122,15.122,0,0,1-2.7-.306c-.259-.033-.544-.258-.681.209a1.867,1.867,0,0,0,1.155,2.13c.6.135,1.219.184,1.484.222m2.3,3.473c.2-1.2-.29-1.754-1.632-1.55a11.291,11.291,0,0,1-1.6-.091c-.367,0-.894-.375-1.073.177a1.238,1.238,0,0,0,.431,1.332,5.348,5.348,0,0,0,2.942,1.141c.743.1,1.125-.109.927-1.009m-49.142-96.743c3.191,1.48,3.727,1.5,5.273.246a6.457,6.457,0,0,0-1.792-1.057c-1.93-.988-1.933-.981-3.481.811m82.616,86.321c-.441.331-.76.589-1.1.818-.377.254-.8.449-1.153.727-.775.6-.386,1.448-.142,2.036.282.681.852.04,1.22-.156,1.486-.792,1.583-1.109,1.175-3.426m14.98,30.874c.684-.165.954-.508,1-.984a24.526,24.526,0,0,0,.034-4.561c-.05-.5-.261-.54-.642-.286a1.246,1.246,0,0,0-.592,1.26,16.289,16.289,0,0,1,.2,4.571m-15.024-35.005c-.812.439-1.51.888-2.263,1.2-.661.277-.668.769-.628,1.314.023.314-.115.79.214.9.494.163.774-.367,1.124-.625s.665-.623,1.031-.89a1.464,1.464,0,0,0,.522-1.9m.454,10.286c-.268-.235.3-1.046-.416-.972a2.992,2.992,0,0,0-1.824.929c-.385.453.1,1.168.223,1.764.05.242.21.371.442.227.717-.447,1.6-.769,1.575-1.949M174.9,375.961l-1.145-4.256c-.12-.445-.507-.529-.867-.581-.3-.044-.306.246-.25.428a9.828,9.828,0,0,0,2.262,4.409m62.446-16.541c-1.478,1.575-.23,3.049-.31,4.456.67-1.377.491-2.8.31-4.456" transform="translate(-70.637 -134.983)" fill="#e1e1e1"/>
        <path id="Path_1507" data-name="Path 1507" d="M985.423,370.759a2.8,2.8,0,0,1-2.262.733c-3.019-.2-6.042-.341-9.063-.5a1.377,1.377,0,0,1-1.462-1.5,1.308,1.308,0,0,1,1.476-1.463c3.354.147,6.706.341,10.059.5.564.027.8.542,1.252.733Z" transform="translate(-730.491 -276.311)" fill="#e1e1e1"/>
        <path id="Path_1508" data-name="Path 1508" d="M344.609,0a10.99,10.99,0,0,1,1.845,2.777,39.741,39.741,0,0,0,3.433,5.464,2.115,2.115,0,0,1,.319.531,1.507,1.507,0,0,1-.609,1.952,1.249,1.249,0,0,1-1.842-.384,44.008,44.008,0,0,1-3.7-5.738,16.148,16.148,0,0,0-1-1.715A1.828,1.828,0,0,1,343.364,0Z" transform="translate(-257.224 0.094)" fill="#e1e1e1"/>
        <path id="Path_1509" data-name="Path 1509" d="M0,330.3a2.1,2.1,0,0,1,2.369-.825,28.64,28.64,0,0,0,3.825.3,16.375,16.375,0,0,1,2.834.27,1.29,1.29,0,0,1,1.15,1.607c-.144.827-.7,1.439-1.542,1.3-2.174-.362-4.374-.231-6.55-.472A2.965,2.965,0,0,1,0,331.547Z" transform="translate(0 -247.306)" fill="#e1e1e1"/>
        <path id="Path_1510" data-name="Path 1510" d="M105.567,624.822a1.479,1.479,0,0,1-1.532-1.28,1.221,1.221,0,0,1,.984-1.6c3.374-.741,6.332-2.436,9.339-4.022a6.15,6.15,0,0,1,1.355-.609,1.4,1.4,0,0,1,1.65.81c.328.615.343,1.32-.285,1.667-3.625,2-7.18,4.175-11.322,5.013-.041.008-.082.01-.189.023" transform="translate(-78.102 -463.496)" fill="#e1e1e1"/>
        <path id="Path_1511" data-name="Path 1511" d="M705.234,34.281a1.391,1.391,0,0,1,1.4,1.778c-.83,3.292-1.622,6.608-3.423,9.552-.694,1.134-1.75,1.328-2.567.52a1.188,1.188,0,0,1-.255-1.579c1.712-2.757,2.477-5.859,3.3-8.942a1.517,1.517,0,0,1,1.55-1.328" transform="translate(-525.874 -25.653)" fill="#e1e1e1"/>
        <path id="Path_1512" data-name="Path 1512" d="M854.219,590.855a1.5,1.5,0,0,1-1.244-.467c-1.8-2.27-3.912-4.282-5.511-6.715a1.44,1.44,0,0,1,.041-2.022,1.385,1.385,0,0,1,2.257.15c1.588,2.4,3.65,4.394,5.408,6.642.37.473.674.965.349,1.586a1.584,1.584,0,0,1-1.3.826" transform="translate(-636.185 -436.368)" fill="#e1e1e1"/>
        <path id="Path_1513" data-name="Path 1513" d="M917.654,143.282a1.676,1.676,0,0,1-1.486-.921,1.107,1.107,0,0,1,.306-1.454,26.023,26.023,0,0,0,4.535-5.413,1.75,1.75,0,0,1,2.01-.861,1.3,1.3,0,0,1,.867,1.927A30.507,30.507,0,0,1,919,142.653a2.291,2.291,0,0,1-1.349.629" transform="translate(-687.969 -100.97)" fill="#e1e1e1"/>
        <path id="Path_1514" data-name="Path 1514" d="M66.268,109.678a1.406,1.406,0,0,1-2.089,1.39,44.828,44.828,0,0,1-5.828-3.736c-.762-.644-1.277-1.372-.6-2.337.572-.818,1.4-.757,2.463.09a54.463,54.463,0,0,0,5.027,3.159,1.736,1.736,0,0,1,1.028,1.434" transform="translate(-43.136 -78.326)" fill="#e1e1e1"/>
        <path id="Path_1515" data-name="Path 1515" d="M563.475,498.9c-.331,0-.713.054-.8-.38s.23-.569.594-.6a14.029,14.029,0,0,0,5.13-1.727c.364-.182.814-.462,1.042.106.187.464-.285.622-.6.784a14.737,14.737,0,0,1-5.361,1.816" transform="translate(-422.58 -372.394)" fill="#e1e1e1"/>
        <path id="Path_1516" data-name="Path 1516" d="M574.51,510.922c-.654-.049-1.184.047-1.173-.558.009-.535.521-.4.862-.459,1.1-.183,2.2-.36,3.293-.542.359-.06.8-.235.95.252.155.5-.286.622-.653.695-1.172.231-2.348.44-3.279.613" transform="translate(-430.601 -382.4)" fill="#e1e1e1"/>
        <path id="Path_1517" data-name="Path 1517" d="M573.263,915.079a7.881,7.881,0,0,0-2.151.515c-.289.075-.607.132-.747-.208-.166-.406.11-.625.452-.725q2.017-.584,4.045-1.134a.489.489,0,0,1,.672.364c.095.384-.2.484-.481.586a5.628,5.628,0,0,0-1.833.643Z" transform="translate(-428.331 -685.983)" fill="#e1e1e1"/>
        <path id="Path_1518" data-name="Path 1518" d="M581.463,918.918c1.02-.113,2.04-.232,3.061-.336.365-.037.816-.109.89.395.082.556-.431.512-.763.57-.809.142-1.625.245-2.439.359-.919.129-1.143-.224-.705-1.029l-.043.041" transform="translate(-436.574 -689.78)" fill="#e1e1e1"/>
        <path id="Path_1519" data-name="Path 1519" d="M486.858,839.511c2.992-.068,5.984-.136,8.98-.12a29.526,29.526,0,0,1-8.98.12" transform="translate(-365.651 -630.323)" fill="#e1e1e1"/>
        <path id="Path_1520" data-name="Path 1520" d="M513.13,823.609a7.785,7.785,0,0,0,4.976.175,3.847,3.847,0,0,1-4.976-.175" transform="translate(-385.382 -618.472)" fill="#e1e1e1"/>
        <path id="Path_1521" data-name="Path 1521" d="M488.4,824.822c.769.3,1.539-.193,2.283.123-.774.311-1.546.691-2.283-.123" transform="translate(-366.813 -619.383)" fill="#e1e1e1"/>
        <path id="Path_1522" data-name="Path 1522" d="M535.967,849.852a2.775,2.775,0,0,1-2.141.454,2.562,2.562,0,0,1,2.141-.454" transform="translate(-400.926 -638.141)" fill="#e1e1e1"/>
      </g>
    </g>
    <g id="Group_297" data-name="Group 297" transform="translate(23.851 174.852)">
      <path id="Winning" d="M20.557,81.749H41.128L54.461,36.242l9.4,45.507H85.87L105.1,10.571H85.921L74.5,55.053,65.635,10.571H47.266L35.508,54.653,28.292,10.571H7.4Zm88.867,0h18.411L129,29.421H110.843Zm10.569-57.255a11.651,11.651,0,0,0,3.976-.681,10.091,10.091,0,0,0,3.224-1.888,8.927,8.927,0,0,0,2.18-2.862,8.762,8.762,0,0,0,.847-3.6,8.608,8.608,0,0,0-.687-3.61,8.491,8.491,0,0,0-2.045-2.88,9.492,9.492,0,0,0-3.123-1.907,11.158,11.158,0,0,0-3.925-.69,11.313,11.313,0,0,0-3.943.69,9.925,9.925,0,0,0-3.183,1.907,8.955,8.955,0,0,0-3,6.489,8.649,8.649,0,0,0,.654,3.6,8.275,8.275,0,0,0,2,2.862,9.27,9.27,0,0,0,3.1,1.888A11.238,11.238,0,0,0,119.993,24.494Zm19.259,57.255h18.411l.425-29.494a13.422,13.422,0,0,1,.721-4.363,8.309,8.309,0,0,1,1.895-3.076,7.725,7.725,0,0,1,2.887-1.823,10.816,10.816,0,0,1,3.7-.6,9.685,9.685,0,0,1,3.42.542,5.622,5.622,0,0,1,2.359,1.633,6.9,6.9,0,0,1,1.357,2.736,14.544,14.544,0,0,1,.411,3.853l-.3,30.593h18.411l.175-34.183a27.112,27.112,0,0,0-1.228-8.679,16.1,16.1,0,0,0-3.531-6.083,14.382,14.382,0,0,0-5.459-3.586,19.906,19.906,0,0,0-7.021-1.177,23.378,23.378,0,0,0-6.056.761,19.281,19.281,0,0,0-4.944,2.076,18.039,18.039,0,0,0-6.581,6.851l.12-8.307H140.26Zm64.182,0h18.411l-.074-29.494a13.317,13.317,0,0,1,.647-4.363,8.127,8.127,0,0,1,1.843-3.076,7.553,7.553,0,0,1,2.856-1.823,10.729,10.729,0,0,1,3.689-.6,9.762,9.762,0,0,1,3.429.542,5.754,5.754,0,0,1,2.387,1.633,7.041,7.041,0,0,1,1.4,2.736,14.629,14.629,0,0,1,.476,3.853l.212,30.593h18.411l-.4-34.183a27.317,27.317,0,0,0-1.375-8.679,16.459,16.459,0,0,0-3.634-6.083,14.714,14.714,0,0,0-5.52-3.586,20.071,20.071,0,0,0-7.041-1.177,23.231,23.231,0,0,0-6.043.761,18.935,18.935,0,0,0-4.909,2.076,17.6,17.6,0,0,0-6.465,6.851l-.021-8.307H203.557Zm64.7,0h18.411l-1.023-52.328H267.361ZM276.3,24.494a11.41,11.41,0,0,0,3.948-.681,9.556,9.556,0,0,0,3.145-1.888,8.414,8.414,0,0,0,2.06-2.862,8.542,8.542,0,0,0,.7-3.6,8.827,8.827,0,0,0-.838-3.61,9.006,9.006,0,0,0-2.165-2.88,10.026,10.026,0,0,0-3.2-1.907,11.4,11.4,0,0,0-3.954-.69,11.074,11.074,0,0,0-3.914.69,9.4,9.4,0,0,0-3.1,1.907,8.529,8.529,0,0,0-2.032,2.88,8.831,8.831,0,0,0,2.229,10.072,9.792,9.792,0,0,0,3.175,1.888A11.476,11.476,0,0,0,276.3,24.494Zm21.653,57.255h18.411l-.808-29.494a13.183,13.183,0,0,1,.538-4.363,7.869,7.869,0,0,1,1.766-3.076,7.3,7.3,0,0,1,2.811-1.823,10.6,10.6,0,0,1,3.674-.6,9.876,9.876,0,0,1,3.443.542,5.953,5.953,0,0,1,2.428,1.633,7.259,7.259,0,0,1,1.471,2.736,14.779,14.779,0,0,1,.572,3.853l.974,30.593h18.411l-1.254-34.183a27.661,27.661,0,0,0-1.591-8.679,17.007,17.007,0,0,0-3.786-6.083,15.215,15.215,0,0,0-5.609-3.586,20.317,20.317,0,0,0-7.07-1.177,23.014,23.014,0,0,0-6.024.761,18.435,18.435,0,0,0-4.857,2.076,16.971,16.971,0,0,0-6.294,6.851l-.228-8.307H296.778Zm90.293,19.784a47.1,47.1,0,0,0,12.764-1.563,24.326,24.326,0,0,0,9.156-4.629,18.111,18.111,0,0,0,5.36-7.6,25.609,25.609,0,0,0,1.395-10.454l-2.583-47.869H396.186l.359,7.316a19.775,19.775,0,0,0-2.846-3.574,16.739,16.739,0,0,0-3.667-2.743,18.114,18.114,0,0,0-4.624-1.759,24.825,24.825,0,0,0-5.718-.621,21.861,21.861,0,0,0-8.7,1.748,20.01,20.01,0,0,0-6.955,4.994,22.112,22.112,0,0,0-4.515,7.874,29.251,29.251,0,0,0-1.368,10.4l.031.8a31.489,31.489,0,0,0,2.211,10.741,23.944,23.944,0,0,0,5.207,7.932,22.109,22.109,0,0,0,7.451,4.908,23.989,23.989,0,0,0,8.927,1.679,19.026,19.026,0,0,0,5.556-.807,17.7,17.7,0,0,0,8.156-5.252,17.157,17.157,0,0,0,2.462-3.642l.4,8.081a14.538,14.538,0,0,1-.419,4.521,8.683,8.683,0,0,1-1.849,3.531,8.44,8.44,0,0,1-3.438,2.3,14.814,14.814,0,0,1-5.182.819,15.334,15.334,0,0,1-4.28-.538,8.617,8.617,0,0,1-2.958-1.472,7.559,7.559,0,0,1-1.887-2.2,10.72,10.72,0,0,1-1.068-2.706H359.157a24.006,24.006,0,0,0,2.758,8.186,19.619,19.619,0,0,0,5.595,6.237,25.921,25.921,0,0,0,8.695,3.97A47.24,47.24,0,0,0,388.251,101.533Zm-.419-35.746a11.454,11.454,0,0,1-4.436-.836,9.522,9.522,0,0,1-3.389-2.38,11.173,11.173,0,0,1-2.217-3.731,16.267,16.267,0,0,1-.923-4.886l-.035-.8a16.223,16.223,0,0,1,.467-4.887,9.922,9.922,0,0,1,1.843-3.737,8.236,8.236,0,0,1,3.178-2.389A11.258,11.258,0,0,1,386.8,41.3a11.864,11.864,0,0,1,4.51.826,9.442,9.442,0,0,1,3.4,2.355,11.014,11.014,0,0,1,2.212,3.7,16.445,16.445,0,0,1,.934,4.871l.035.7a15.7,15.7,0,0,1-.495,5,10.1,10.1,0,0,1-1.937,3.79,8.6,8.6,0,0,1-3.237,2.4A11.053,11.053,0,0,1,387.832,65.787Z" transform="translate(227.986 3668.114)" fill="#333"/>
      <path id="Path_1494" data-name="Path 1494" d="M1319,2253.666s51.342-6.161,102.423,0,68.108,10.345,77.276,0" transform="translate(-731.625 1564.314)" fill="none" stroke="#e2a73f" stroke-linecap="round" stroke-width="8"/>
      <path id="Reward" d="M8.78,81.791H29.768l1.11-25.809h4.9L49.625,81.791H71.847l-16.5-29.809a25.667,25.667,0,0,0,5.383-2.722,19.144,19.144,0,0,0,4.3-3.923,17.849,17.849,0,0,0,2.9-5.274,22.625,22.625,0,0,0,1.2-6.772l.013-.4a22.821,22.821,0,0,0-1.618-9.783,17.087,17.087,0,0,0-5.448-6.968,25.087,25.087,0,0,0-9.07-4.175,50.489,50.489,0,0,0-12.5-1.392H12.237ZM31.449,42.712l.732-17.024h6.791a19.314,19.314,0,0,1,4.42.443,8.478,8.478,0,0,1,3.186,1.4,5.7,5.7,0,0,1,1.891,2.48A8.9,8.9,0,0,1,49,33.686l-.015.4a10.275,10.275,0,0,1-.795,3.771,7.032,7.032,0,0,1-2.062,2.7,9.076,9.076,0,0,1-3.339,1.621,17.728,17.728,0,0,1-4.624.541Zm71.131,40.3a43.93,43.93,0,0,0,10.916-1.25,25.864,25.864,0,0,0,8.293-3.644,19.125,19.125,0,0,0,5.581-5.873,21.506,21.506,0,0,0,2.794-7.93h-17.2A8.262,8.262,0,0,1,112,66.773a6.833,6.833,0,0,1-1.8,1.982,8.435,8.435,0,0,1-2.785,1.322,14.561,14.561,0,0,1-3.922.481,12.6,12.6,0,0,1-4.426-.739,9.224,9.224,0,0,1-3.36-2.147,9.907,9.907,0,0,1-2.188-3.446,14.771,14.771,0,0,1-.915-4.635h37.639l.078-4.709a31.321,31.321,0,0,0-1.983-12.119,21.839,21.839,0,0,0-5.741-8.333,23.752,23.752,0,0,0-8.507-4.819,33.012,33.012,0,0,0-10.3-1.554,33.6,33.6,0,0,0-11.3,1.894,28.319,28.319,0,0,0-9.279,5.421,25.978,25.978,0,0,0-6.388,8.568,28.97,28.97,0,0,0-2.6,11.345l-.025.8a28.534,28.534,0,0,0,1.824,11.436,22.445,22.445,0,0,0,5.818,8.458,25.633,25.633,0,0,0,9.1,5.239A36.3,36.3,0,0,0,102.58,83.01Zm-9.5-33.524a15.169,15.169,0,0,1,1.316-4.175,10.46,10.46,0,0,1,2.249-3.058,9.145,9.145,0,0,1,3.074-1.88,11.854,11.854,0,0,1,7.689,0,7.317,7.317,0,0,1,2.828,1.88,8.342,8.342,0,0,1,1.756,3.058,14.386,14.386,0,0,1,.673,4.175Zm54.9,32.306h17.9l8.479-29.41,7.879,29.41h17.593l16.75-52.355H199.334L190.69,60.594,182.8,29.436H168.184l-9.21,31.158-7.43-31.158H132.571Zm88.287,1.218a25.47,25.47,0,0,0,5.77-.616,18.084,18.084,0,0,0,4.451-1.643,15.138,15.138,0,0,0,5.615-5.142l.1,6.182h17.9l-.692-34.1a22.039,22.039,0,0,0-1.872-8.909,15.906,15.906,0,0,0-4.932-6.1,21.463,21.463,0,0,0-7.611-3.506,43.987,43.987,0,0,0-19.874.026,23.863,23.863,0,0,0-7.817,3.467,16.954,16.954,0,0,0-5.24,5.816,19.339,19.339,0,0,0-2.213,8.205h17.124a8.848,8.848,0,0,1,.573-2.351,5.961,5.961,0,0,1,1.273-1.966,5.744,5.744,0,0,1,2.138-1.349,9.163,9.163,0,0,1,3.169-.5,9.328,9.328,0,0,1,3.553.59,4.929,4.929,0,0,1,2.167,1.671,6.84,6.84,0,0,1,1.095,2.606,17.312,17.312,0,0,1,.334,3.395l.019,1.2h-5.1a66.533,66.533,0,0,0-11.91.941,28.661,28.661,0,0,0-8.894,2.994,14.349,14.349,0,0,0-5.557,5.31,15.334,15.334,0,0,0-1.888,7.9,16.766,16.766,0,0,0,1.53,7.2,13.5,13.5,0,0,0,4.025,4.937,17.3,17.3,0,0,0,5.83,2.836A25.542,25.542,0,0,0,236.267,83.01Zm6.221-12.25a10.36,10.36,0,0,1-2.816-.347,5.544,5.544,0,0,1-2-.99,4.108,4.108,0,0,1-1.194-1.556,5.186,5.186,0,0,1-.411-2.046,5.352,5.352,0,0,1,.6-2.72,4.417,4.417,0,0,1,1.911-1.766,10.659,10.659,0,0,1,3.3-.955,33.04,33.04,0,0,1,4.766-.287h4.808l.05,3.214a6.849,6.849,0,0,1-.642,3.073,6.726,6.726,0,0,1-1.875,2.35,8.719,8.719,0,0,1-2.871,1.5A12.086,12.086,0,0,1,242.488,70.759ZM280.6,81.791h18.416l-.7-25.007a11.708,11.708,0,0,1,.98-5.384,8.687,8.687,0,0,1,3.216-3.622,14.91,14.91,0,0,1,5.341-1.991,34.646,34.646,0,0,1,7.361-.487l-.538-16.554a22.6,22.6,0,0,0-5.656.588,15.286,15.286,0,0,0-4.666,1.968,14.788,14.788,0,0,0-3.715,3.436,20.994,20.994,0,0,0-2.8,5l-.287-10.3H279.388Zm63.012,1.218a20.4,20.4,0,0,0,5.643-.768,17.625,17.625,0,0,0,4.668-2.1,16.418,16.418,0,0,0,3.6-3.122,15.7,15.7,0,0,0,2.434-3.837l.379,8.608h18.416L375.081,6.867H357.028l1.317,29.89a19.7,19.7,0,0,0-2.827-3.575,16.667,16.667,0,0,0-3.643-2.745,17.917,17.917,0,0,0-4.586-1.76,24.334,24.334,0,0,0-5.658-.621,21.9,21.9,0,0,0-8.759,1.74,19.179,19.179,0,0,0-6.971,5.154,23.187,23.187,0,0,0-4.511,8.485,36.435,36.435,0,0,0-1.361,11.748l.027.8a37.594,37.594,0,0,0,2.179,11.876,24.649,24.649,0,0,0,5.144,8.447,20.958,20.958,0,0,0,7.375,5.037A23.469,23.469,0,0,0,343.608,83.01Zm5.91-13.864a10.754,10.754,0,0,1-4.334-.847,9.117,9.117,0,0,1-3.361-2.527,12.312,12.312,0,0,1-2.23-4.182,21.658,21.658,0,0,1-.947-5.806l-.031-.8a23.093,23.093,0,0,1,.45-5.959,11.093,11.093,0,0,1,1.843-4.233,7.835,7.835,0,0,1,3.186-2.529,11.1,11.1,0,0,1,4.481-.84,11.228,11.228,0,0,1,4.509.866,9.086,9.086,0,0,1,3.4,2.564,12.409,12.409,0,0,1,2.217,4.213,22.52,22.52,0,0,1,.952,5.817l.035.8a20.793,20.793,0,0,1-.484,5.864,11.046,11.046,0,0,1-1.952,4.212,8.324,8.324,0,0,1-3.278,2.538A11.092,11.092,0,0,1,349.518,69.145Z" transform="translate(176.318 3769.86)" fill="#eb5b41"/>
    </g>
  </g>
</svg>
