<svg xmlns="http://www.w3.org/2000/svg" width="95.38" height="129.511" viewBox="0 0 95.38 129.511">
  <path id="Path_1" data-name="Path 1" d="M-408.9-285.01l-.173.019.171-.034a64.712,64.712,0,0,0-1.182-6.667c-1.078-4.579-2.433-7.5-4.028-8.665a.353.353,0,0,0,0-.055v-.07l.549-.326c.493-.292.985-.589,1.5-.879l.153-.084-.743-1.33-.153.084a89.958,89.958,0,0,0-25.085,20.049c-1.341,1.59-2.648,3.3-3.884,5.07l-.237.089.027.147a.323.323,0,0,1,.016.047,63.1,63.1,0,0,0-5,8.658l-.273.132.1.212c-.834,1.8-1.574,3.6-2.191,5.364a53.593,53.593,0,0,0-3,15.035,39.8,39.8,0,0,0,.026,4.416c.034.546.078.953.1,1.2a1.685,1.685,0,0,0,.134.664l.108.212c-2.448,2.42-4.334,4.185-5.256,5.033.084-7.415.139-14.585.167-21.321a64.629,64.629,0,0,0,8.966-10.156,52.57,52.57,0,0,0,6.343-11.631,35.818,35.818,0,0,0,2.488-14.441c-.529-11.683-7.481-22.408-20.66-31.877a1.445,1.445,0,0,0-.942-.883.907.907,0,0,0-.307-.013l-.205-.144-.431.3a51.61,51.61,0,0,0-9.3,8.683,45.777,45.777,0,0,0-6.534,10.011,33.433,33.433,0,0,0-3.285,13.1c0,.065,0,.134,0,.2a.81.81,0,0,0,.009.121l-.075.228h.063a31.929,31.929,0,0,0,1.351,9.655,94.867,94.867,0,0,0-9.961-10.581,70.142,70.142,0,0,0-5.766-4.781l-.144-.1-.782,1.1-.094.146.139.1c.167.118.76.554,1.679,1.291a75.16,75.16,0,0,0-5.311,11.623,63.565,63.565,0,0,0-3.029,10.531,57.894,57.894,0,0,0-1.089,10.914,30.055,30.055,0,0,0,.568,6.468,16.388,16.388,0,0,0,2.548,6.06c.832,1.207,1.562,2.192,2.3,3.1a46.05,46.05,0,0,0,4.678,5.027,32.888,32.888,0,0,0,9.162,6.078,26.86,26.86,0,0,0,10.536,2.224c.636,0,1.284-.027,1.966-.082l.1,0c.4-.032,1.612-.121,2.717-.286a7.514,7.514,0,0,0,1.959-.479c2.744,3.551,5.609,7.1,8.516,10.563-.128,8.916-.294,18.367-.492,28.092l0,.176,1.521.032,0-.176c.27-13.171.477-25.547.611-36.786l.062-.055c.3-.264,3-2.7,6.92-6.6l.175-.181c.641.03,1.315.044,2,.044a56.636,56.636,0,0,0,8.606-.672,46.181,46.181,0,0,0,10.9-3.043,33.107,33.107,0,0,0,10.6-7.032c7.486-7.51,10.535-18.573,9.071-32.874m-39.73-28.631-9.114,6.23c-.1-2.142-.208-4.117-.326-5.878l6.739-3.444c.942.995,1.85,2.032,2.7,3.093m-18.139,65.892a43.883,43.883,0,0,1-.954,8.321c-1.033-1.367-2.043-2.721-3-4.035Zm-28.892-44.374c.23-.506.449-.973.661-1.414-.013.712.007,1.51.071,2.448Zm16.273-1.931,20.687,6.776c.034,2.155.061,4.4.082,6.719l-20.359-8.533a29.725,29.725,0,0,1-.41-4.963m7.463,51.535c1.092,1.494,2.258,3.052,3.563,4.753a11.233,11.233,0,0,1-1.478.273c-.957.13-1.926.2-2.34.233l-.15.011a24.806,24.806,0,0,1-11.73-2.025c-.443-.192-.883-.41-1.328-.638,3.8-.79,11.6-2.389,13.464-2.607m-3.828-5.275h.082c.864,1.257,1.786,2.561,2.735,3.884-3.565.572-13.482,2.655-14.486,2.867a33.1,33.1,0,0,1-5.376-4.03c-.475-.436-.94-.914-1.391-1.38,4.354-.431,14.066-1.341,18.435-1.341m-3.5-5.393c.816,1.266,1.676,2.573,2.566,3.885-5.477.12-16.422,1.206-18.831,1.45-.518-.567-1.177-1.309-1.8-2.084-.7-.863-1.409-1.82-2.233-3.013a13.833,13.833,0,0,1-1.674-3.309c4.34.787,17.282,3.065,21.972,3.072m-19.392-31.574c.026-.073.05-.146.078-.221.061-.173.124-.349.187-.522.611-1.578,1.268-3.262,2.007-5l1.77,2.491a48.388,48.388,0,0,0,1.142,5.328Zm6.388.689a43.482,43.482,0,0,1-.857-4.293l.086-.057-.123-.174a29.174,29.174,0,0,1-.315-5.157,15.169,15.169,0,0,1,.352-2.8c.86.724,1.722,1.478,2.568,2.247.947.86,1.989,1.855,3.023,2.885Zm-.668,3.248c.682,2.235,1.521,4.555,2.493,6.9h-.053c-3.681,0-8.53-3.422-10.1-4.612.412-1.617.894-3.227,1.43-4.792Zm3.8,6.057a71.715,71.715,0,0,1-2.468-6.872c-.032-.1-.057-.2-.082-.289-.016-.058-.029-.116-.047-.174l5.293-8.213c1.716,1.763,3.394,3.64,4.993,5.584-2.123,2.942-6.206,8.1-7.688,9.964m-.671,2.325c.724,1.669,1.535,3.393,2.4,5.13-4.928-.328-12.685-3.585-14.517-4.382.231-1.759.541-3.514.926-5.228a35.4,35.4,0,0,0,3.376,2.174,15.277,15.277,0,0,0,7.139,2.365,4.727,4.727,0,0,0,.646-.055Zm14.228-6.981c-.2-.3-.409-.6-.6-.881a34.44,34.44,0,0,1-2.452-6.991l20.019,8.392c.019,1.97.027,4,.037,6.08Zm1.421,2.185,15.585,6.054q0,2.251.007,4.589l-9.182-1.448c-1.336-1.472-2.584-2.974-3.693-4.453-.8-1.546-1.715-3.141-2.716-4.742m8.9,26.9a48.622,48.622,0,0,0-2.031-12c-.461-1.532-1.029-3.143-1.7-4.8a86.483,86.483,0,0,0,10.4,9.607c-.035,8.9-.128,18.742-.271,29.252-2.712-3.26-5.288-6.471-7.661-9.557a45.708,45.708,0,0,0,1.261-12.5m-4.663-14.922c.362.972.7,1.955.994,2.919-1.494,2.682-5.059,9.051-6.678,11.941-.78-1.157-1.488-2.229-2.158-3.265Zm-4.243,15.4c1.421-2.536,4.141-7.4,5.818-10.4a46.859,46.859,0,0,1,1.535,10.289l-4.84,5.246c-1.047-1.457-2.057-2.892-3-4.269Zm3.563-17.115-8.056,11.911c-1.022-1.613-2.019-3.243-2.965-4.852l7.471-13.792c.425.632.837,1.22,1.247,1.772.842,1.619,1.615,3.286,2.3,4.96m-11.915,5.516c-.978-1.706-1.893-3.376-2.721-4.97.543-.559,1.777-1.861,3.22-3.529a65.876,65.876,0,0,0,5.611-7.4.1.1,0,0,0,.011.025c.372.674.794,1.391,1.291,2.187Zm5.3-17.478a70.861,70.861,0,0,1-8.749,11.071c-.906-1.8-1.743-3.585-2.5-5.3,1.381-1.729,5.648-7.107,8.008-10.34.627.79,1.154,1.476,1.649,2.147.392.529.8,1.1,1.233,1.717q.121.25.252.5Zm-9.4,13.186c.709,1.366,1.488,2.8,2.32,4.274-6.628-1.117-15.934-4.366-18.065-5.125.048-1.193.128-2.374.247-3.514,1.088.462,3.052,1.275,5.285,2.06,4.354,1.53,7.784,2.306,10.2,2.306Zm3.415,6.195c.073.13.146.258.223.388.777,1.323,1.642,2.737,2.71,4.427-5.789-.3-19.957-2.881-21.474-3.159a27.991,27.991,0,0,1-.673-6.705c0-.113,0-.221.009-.334,0-.02,0-.041,0-.063,1.254.445,3.563,1.238,6.269,2.083a83.507,83.507,0,0,0,12.8,3.136Zm24.63-5.5q0,2.727-.009,5.57a86.794,86.794,0,0,1-7.44-6.747Zm-20.794-30.59a30.343,30.343,0,0,1,1.191-6.8l19.337,8.605q.055,2.4.1,4.95Zm11.357-23.694a52.531,52.531,0,0,1,6.633-5.951c.03.021.06.044.089.064s.089.065.134.1a19.719,19.719,0,0,1,.78,3.774c.249,1.781.475,4.078.675,6.831Zm8.791-4.365a66.249,66.249,0,0,1,6.757,5.828l-5.742,2.936c-.244-3.286-.525-5.9-.835-7.78-.061-.373-.123-.7-.18-.984m.341,28.18-18.835-8.382a37.347,37.347,0,0,1,2.757-6.11l15.763,5.342.026.009,0,.13c.009.239.021.477.029.727.1,2.551.183,5.335.255,8.285m-.362-10.878-.1.069-14.825-5.025a46.425,46.425,0,0,1,4.2-5.8c.3-.358.6-.693.905-1.029h0l9.488,5.5c.128,1.963.24,4.076.336,6.284m1.913,11.951,14.119-10.239a30.965,30.965,0,0,1,2.036,7.021l-16.052,8.361q-.045-2.661-.1-5.144m15.816,8.463a39.179,39.179,0,0,1-2.01,6.468l-13.541,6.485q-.014-3.09-.037-6.01Zm-2.938,8.6a51.2,51.2,0,0,1-2.8,5.175l-9.8,5.146q0-2.18-.007-4.283Zm-4.5,7.791c-.123.178-.244.352-.367.525a65.056,65.056,0,0,1-7.737,8.972q.007-2.676.007-5.248Zm-8.248-18.012,16.263-8.469c.07.635.121,1.275.15,1.9a31.544,31.544,0,0,1-.386,6.364l-15.941,7.1c-.026-2.385-.05-4.689-.087-6.9m13.345-18.5-13.518,9.807c-.091-3.5-.194-6.558-.307-9.324l9.976-6.818a38.154,38.154,0,0,1,3.85,6.335m-6.872,63.113a35.512,35.512,0,0,1-.084-5.395,48.422,48.422,0,0,1,.748-6.229c.353.531.821,1.225,1.345,1.957a28,28,0,0,0,3.392,4.117c-1.791,1.907-3.6,3.775-5.369,5.552Zm18.149-17.91c1.979-2.49,3.845-4.983,5.555-7.417,2.881-.333,12.046-1.435,16.384-2.534a36.844,36.844,0,0,1-1.88,7.3c-1.834.137-6.041.459-8.114.7-2.019.244-9.156,1.469-11.945,1.952m13.947-21.483a55.683,55.683,0,0,0,3.042-7.723,33.518,33.518,0,0,0,1.446-8.053,10.563,10.563,0,0,1,1.031,1.918,30.251,30.251,0,0,1,1.522,4.888c.267,1.131.514,2.354.732,3.635-1.286.883-5.219,3.586-7.773,5.335m-6.3-10.793a97.843,97.843,0,0,1,9.289-6.409c.053,4.179-1.078,8.994-3.361,14.315a52.543,52.543,0,0,1-5.928-7.906m3.288,13.371c-.4.752-.842,1.535-1.332,2.379-.835-1.165-2.055-3.115-3.632-5.8-1.427-2.436-2.734-4.772-3.291-5.776,1.145-1.044,2.409-2.13,3.761-3.225a49.655,49.655,0,0,0,6.466,8.439c-.684,1.49-1.314,2.758-1.973,3.985m2.6,3.268a12.949,12.949,0,0,1-2.746.1c.575-.981,1.06-1.85,1.49-2.643.066-.123.128-.247.189-.37.021-.043.041-.084.064-.128l.041-.025c.748-.5,6.818-4.667,9.411-6.443l0,0c.1.707.158,1.161.163,1.2.178,1.761.289,3.535.328,5.278a27.107,27.107,0,0,1-8.943,3.035m-6.078-1.348c.522.8.95,1.417,1.306,1.873-1.186,1.969-2.463,3.946-3.8,5.884-2-3.049-5.962-11.274-7.232-13.947,1.12-1.223,2.367-2.486,3.807-3.852.566,1.015,1.8,3.211,3.122,5.469,1.1,1.873,2.037,3.409,2.795,4.573m2.474,2.884a9.48,9.48,0,0,0,1.654.123,17.039,17.039,0,0,0,2.062-.137,27.987,27.987,0,0,0,8.838-2.853,50.634,50.634,0,0,1-.317,5.38c-3.346.976-11.63,2.039-15.459,2.5,1.151-1.692,2.233-3.377,3.222-5.012m9.5,13.03a29.022,29.022,0,0,1-3.939,6.532l-19.718-.322c.545-.639,1.089-1.284,1.637-1.942.258-.314.511-.625.764-.937l.372-.459c1-.175,11.179-1.95,13.583-2.241,1.786-.205,5.225-.475,7.3-.632m-21.091.711c-1.512-4.144-4.669-12.533-6.013-16.1a69.369,69.369,0,0,1,4.314-5.465c1.706,3.569,5.553,11.471,7.392,14.029-1.735,2.454-3.649,4.989-5.692,7.539m-4.571,5.467c-2.507-4.543-5.445-10.41-6.635-12.814a60.768,60.768,0,0,1,4.14-7.23c1.453,3.86,4.66,12.387,5.949,15.955l-.271.335c-.233.288-.463.573-.7.86-.714.863-1.473,1.759-2.454,2.9Zm4.787,10.98a48.185,48.185,0,0,1-5.668,1.243,53.7,53.7,0,0,1-8.918.65c1.583-1.6,3.184-3.272,4.763-4.962,1.028.244,2.563.624,4.217,1.1a37.918,37.918,0,0,1,5.606,1.973m-10.255-4.84a44.553,44.553,0,0,1-5.349-7.088,54.528,54.528,0,0,1,1.816-6.266c.454-1.275.969-2.566,1.535-3.843,1.467,2.936,4.092,8.12,6.345,12.182l.064.116c-1.467,1.674-2.952,3.321-4.411,4.9m25.9-4.283c-.221.242-.447.488-.68.721a32.939,32.939,0,0,1-12.974,7.78c-2.281-1.53-7.5-2.965-10.628-3.729,1.542-1.672,3.075-3.385,4.557-5.093Z" transform="translate(503.924 327.15)" fill="#356aa0"/>
</svg>
