<svg xmlns="http://www.w3.org/2000/svg" width="130.052" height="149.417" viewBox="0 0 130.052 149.417">
  <g id="Group_165" data-name="Group 165" transform="translate(-1072.602 4348.002) rotate(-150)">
    <g id="Group_163" data-name="Group 163" transform="translate(1168.328 4288.948)">
      <path id="Path_918" data-name="Path 918" d="M63.34,237.144a20.73,20.73,0,0,1,4.325-4.563c1.454-1.118,3.612-1.789,4.713-3.278,1.122-1.515.8-3.848.857-5.624l.211-6.99-1.928.824c2.131,1.725,4.236,3.5,6.412,5.165a12.723,12.723,0,0,0,6.2,2.946c4.119.456,7.314-2.607,11.124-3.519l-1.292-1.652a41.129,41.129,0,0,1-6.539,10.661,1.152,1.152,0,0,0,.008,1.6,31.633,31.633,0,0,1,7.548,9.9l1.256-1.672q-3.782-.719-7.6-1.181c-1.877-.223-4.188-.806-6-.021-1.832.793-3.086,2.87-4.236,4.413a52.307,52.307,0,0,0-3.958,6.2l2.113.542-.924-6.95c-.213-1.6-.074-4.059-1.049-5.447s-3.3-1.536-4.783-1.913l-6.9-1.751a1.132,1.132,0,0,0-.563,2.192l5.307,1.346,2.653.674c.656.165,2.12.269,2.511.94a8.246,8.246,0,0,1,.375,2.609l.332,2.5.775,5.839a1.143,1.143,0,0,0,2.115.542,52.583,52.583,0,0,1,3.033-4.925q.971-1.39,2.042-2.7a6.461,6.461,0,0,1,2.04-2.012,5.459,5.459,0,0,1,2.665-.086q1.626.156,3.248.37c2.09.276,4.168.618,6.238,1.011a1.148,1.148,0,0,0,1.256-1.672,33.289,33.289,0,0,0-7.9-10.357l.008,1.6a43.053,43.053,0,0,0,6.894-11.129,1.148,1.148,0,0,0-1.292-1.65c-3.288.788-6.225,3.514-9.68,3.488-2.4-.018-4.461-1.568-6.257-2.994-1.873-1.49-3.724-3.012-5.586-4.517a1.147,1.147,0,0,0-1.926.824l-.195,6.453c-.033,1.074-.04,2.153-.1,3.227a2.65,2.65,0,0,1-.4,1.654,4.688,4.688,0,0,1-1.279.824,23.591,23.591,0,0,0-7.836,7.132c-.836,1.194,1.137,2.31,1.964,1.125Z" transform="translate(-61.174 -215.612)" fill="#fff"/>
    </g>
    <path id="Path_974" data-name="Path 974" d="M132.46,105.6a12.092,12.092,0,0,1,4.191-3.79,2.573,2.573,0,0,0,1.008-.763,2.337,2.337,0,0,0,.254-1.2l.164-5.46L141,96.752c1.213.981,2.548,2.009,4.105,2.057,2.04.063,3.742-1.558,5.736-1.991a22.888,22.888,0,0,1-3.788,6.146,17.75,17.75,0,0,1,4.358,5.711q-2.892-.558-5.83-.828a2.93,2.93,0,0,0-1.432.112,2.838,2.838,0,0,0-.975.833,28.363,28.363,0,0,0-3.344,4.892l-.791-5.959a1.074,1.074,0,0,0-1.042-1.127l-5.388-1.366" transform="translate(966.868 4119.023)" fill="#fff"/>
    <path id="Path_975" data-name="Path 975" d="M158.66,177.079c3.684-7.433,3.075-16.435-1.811-26.794a1.177,1.177,0,0,0-.367-.975,1.241,1.241,0,0,0-.15-.106l-.124-.254-.54.041a37.107,37.107,0,0,0-8.745,2.192,32.539,32.539,0,0,0-7.477,3.963,23.8,23.8,0,0,0-6.547,6.993c-.04.066-.076.134-.114.2l-.22.2.063.068a23.944,23.944,0,0,0-2.98,10.876l-.279.231.259.311c-.007.225-.012.449-.013.676a37.916,37.916,0,0,0,.99,8.389c.064.287.134.578.2.869l-.061.079.1.078a59.491,59.491,0,0,0,2.7,8.2l0,0,0,0c.1.24.192.477.292.719l.243.6.646-.132a44.343,44.343,0,0,0,9.514-3.317,36.809,36.809,0,0,0,7.905-5.014A25.589,25.589,0,0,0,158.66,177.079ZM145.95,187.54l-7.671-.188q.654-1.123,1.249-2.141l9.258.552C147.832,186.425,146.877,187.016,145.95,187.54Zm-13.969-19.176,8.94,11.332c-.553.942-1.173,2-1.87,3.192l-7.834-9.409A24.388,24.388,0,0,1,131.982,168.364Zm26.482-9.093q.3,1.19.51,2.348l-6.978.659q.833-1.7,1.528-3.167Zm-1.206,17.1a21.692,21.692,0,0,1-2.295,3.63l-11.791-1.023c.915-1.561,1.641-2.8,2.219-3.785l12.26.307C157.522,175.792,157.4,176.086,157.257,176.372ZM146.3,173.632c.881-1.51,1.247-2.163,1.536-2.742l11.439-1.4a21.453,21.453,0,0,1-1.019,4.454Zm2.32-4.426c.443-.962,1.155-2.472,2.552-5.275l8.042-.75a26.7,26.7,0,0,1,.2,4.71Zm.641-5c-1.213,2.4-1.946,3.894-2.427,4.9l-8.393-11.135a26,26,0,0,1,3.392-2.523l7.621,8.379C149.393,163.956,149.33,164.082,149.264,164.211Zm-3.182,6.5a24.7,24.7,0,0,1-1.391,2.576l-10.1-10.868a20.87,20.87,0,0,1,2.7-3.364Zm4.649,13.585-10.314-.613c.692-1.186,1.317-2.253,1.88-3.215l11.434,1A27.806,27.806,0,0,1,150.731,184.3Zm7.3-26.617-3.78-.132c.881-1.926,1.543-3.509,1.978-4.727l.013-.036A45.928,45.928,0,0,1,158.027,157.683Zm-2.8-7.035a15.182,15.182,0,0,1-.772,2.386c-.42,1.087-.99,2.419-1.7,3.985l-3.05-5.113A36.083,36.083,0,0,1,155.228,150.648Zm-7.768,2.022c.238-.089.472-.175.705-.258l3.787,6.319q-.783,1.658-1.745,3.6l-6.993-7.694A33.248,33.248,0,0,1,147.46,152.671Zm-3.6,22.037c-.522.884-1.194,2.025-2.082,3.534l-9.225-11.707a20.354,20.354,0,0,1,1.209-2.7Zm-12.65,1.218,7,8.4c-.446.762-.917,1.57-1.421,2.432l-4.552-3.544A37.883,37.883,0,0,1,131.207,175.926Zm4.778,12.211q-.681,1.17-1.432,2.46-.964-2.5-1.652-4.869Zm-.2,3.507q.835-1.437,1.593-2.738l5.658.127A45.342,45.342,0,0,1,135.781,191.644Z" transform="translate(1009.296 4048.711)" fill="#fff"/>
    <path id="Path_976" data-name="Path 976" d="M132.627,185.518c-8.14-6.205-19.189-7.575-32.885-4.084a1.461,1.461,0,0,0-1.267.218,1.332,1.332,0,0,0-.162.157l-.339.091-.076.664a45.757,45.757,0,0,0,.608,11.107,40.125,40.125,0,0,0,3.05,9.987,29.321,29.321,0,0,0,6.941,9.571c.069.064.144.124.215.187l.2.312.1-.059a29.552,29.552,0,0,0,12.477,6.159l.216.393.438-.241c.269.059.54.117.814.172a46.652,46.652,0,0,0,10.4.767c.362-.008.732-.026,1.1-.043l.083.094.119-.1a73.255,73.255,0,0,0,10.57-1.356l0,0,0,0c.314-.063.624-.122.94-.187l.78-.154-.01-.814a54.765,54.765,0,0,0-1.789-12.3A45.542,45.542,0,0,0,140.92,195.3,31.566,31.566,0,0,0,132.627,185.518Zm9.7,17.849-2.025,9.249L138,210.6l2.837-11.087C141.414,200.826,141.907,202.12,142.325,203.367Zm-26.5,12.43,15.824-8.175c1.011.89,2.146,1.888,3.426,3.013l-13.233,7.287A30.129,30.129,0,0,1,115.82,215.8Zm-4.813-34.214q1.512-.087,2.964-.069l-.836,8.611q-1.859-1.408-3.481-2.594Zm20.435,5.468a26.764,26.764,0,0,1,3.861,3.63l-4,14.045c-1.679-1.474-3.005-2.642-4.066-3.574l3.243-14.781C130.8,186.595,131.128,186.815,131.442,187.052Zm-5.883,12.629c-1.624-1.421-2.329-2.019-2.966-2.5l.99-14.185a26.387,26.387,0,0,1,5.158,2.278Zm-4.819-3.848c-1.062-.762-2.724-1.979-5.794-4.329l.975-9.918a32.582,32.582,0,0,1,5.753.862Zm-5.9-1.948c2.62,2.032,4.261,3.27,5.364,4.087l-15.457,7.56a32.035,32.035,0,0,1-2.262-4.7l11.936-7.271Zm7.135,5.381a29.991,29.991,0,0,1,2.792,2.288l-15.53,9.685a25.678,25.678,0,0,1-3.443-4.054Zm17.547-2.45-3.159,12.351c-1.274-1.117-2.422-2.123-3.455-3.03l3.889-13.618A34.161,34.161,0,0,1,139.519,196.816ZM108.98,181.741l-1.046,4.548c-2.126-1.517-3.887-2.691-5.262-3.5l-.041-.025A56.774,56.774,0,0,1,108.98,181.741ZM99.8,183.482a19.284,19.284,0,0,1,2.709,1.5q1.829,1.145,4.428,3l-6.909,2.5A44.5,44.5,0,0,1,99.8,183.482Zm.629,9.886c-.053-.307-.1-.613-.147-.914l8.545-3.109q1.824,1.338,3.947,2.957l-10.962,6.671A41.1,41.1,0,0,1,100.432,193.368Zm25.856,9.529c.95.838,2.174,1.921,3.793,3.349l-16.344,8.434a25.489,25.489,0,0,1-2.992-2.1ZM124.8,218.509l11.818-6.516q1.227,1.078,2.614,2.291l-5.359,4.684A46.819,46.819,0,0,1,124.8,218.509Zm15.911-2.929,2.643,2.313q-3.256.582-6.285.859Zm4.2,1.069-2.944-2.572,1.48-6.823A55.678,55.678,0,0,1,144.914,216.648Z" transform="translate(995.911 4078.688)" fill="#fff"/>
    <path id="Path_977" data-name="Path 977" d="M132.46,105.6a12.092,12.092,0,0,1,4.191-3.79,2.573,2.573,0,0,0,1.008-.763,2.337,2.337,0,0,0,.254-1.2l.164-5.46L141,96.752c1.213.981,2.548,2.009,4.105,2.057,2.04.063,3.742-1.558,5.736-1.991a22.888,22.888,0,0,1-3.788,6.146,17.75,17.75,0,0,1,4.358,5.711q-2.892-.558-5.83-.828a2.93,2.93,0,0,0-1.432.112,2.838,2.838,0,0,0-.975.833,28.363,28.363,0,0,0-3.344,4.892l-.791-5.959a1.074,1.074,0,0,0-1.042-1.127l-5.388-1.366" transform="translate(1053.811 4138.319)" fill="#fff"/>
  </g>
</svg>
