<svg xmlns="http://www.w3.org/2000/svg" width="124" height="123.643" viewBox="0 0 124 123.643">
  <g id="Group_153" data-name="Group 153" transform="translate(-368.392 -521.767)">
    <path id="Path_948" data-name="Path 948" d="M492.392,602.488a6.723,6.723,0,0,1-7.526,4.9c-1.366-.126-1.866.413-2.186,1.691-2.665,10.633-5.4,21.248-8.108,31.87a10.013,10.013,0,0,1-.837,2.389,3.647,3.647,0,0,1-3.314,2.06c-.444.007-.888.006-1.331.006H391.772c-3.474,0-4.555-.838-5.419-4.223q-4.08-15.99-8.155-31.982c-.459-1.795-.483-1.85-2.311-1.776a6.908,6.908,0,0,1-5.8-2.127,6.079,6.079,0,0,1-1.684-4.159c-.008-1.492-.015-2.985,0-4.477a6.377,6.377,0,0,1,5.5-6.367c2.035-.322,2.035-.322,2.036-2.432,0-2.339.033-4.679-.014-7.018a4.2,4.2,0,0,1,1.071-2.983c1.451-1.677,2.84-3.408,4.3-5.078a1.707,1.707,0,0,0,.363-2.054,7.7,7.7,0,0,1,1.3-8.367c.872-1.058,1.718-2.146,2.683-3.114a7.934,7.934,0,0,1,12.033,10.253,36.129,36.129,0,0,1-2.858,3.44A7.676,7.676,0,0,1,387,575.3a1.4,1.4,0,0,0-1.653.547c-1.212,1.509-2.464,2.986-3.723,4.456a2.057,2.057,0,0,0-.518,1.432c.012,2.38.035,4.76-.012,7.139-.018.944.322,1.275,1.265,1.27q8.349-.043,16.7,0c1.027.007,1.319-.381,1.3-1.355a47.768,47.768,0,0,1,.873-9.612,17.941,17.941,0,0,1,10.017-13.433c1.864-.944,3-2.653,4.482-4,.507-.464.058-.779-.229-1.1a16.8,16.8,0,0,1-3.642-6.075,9.328,9.328,0,0,1-.554-2.839c.028-4.432-.279-8.871.178-13.3.932-9.042,9.237-16.4,18.355-16.657A19.287,19.287,0,0,1,449.248,537.5a20.419,20.419,0,0,1,.354,3.6c-.012,2.9-.078,5.81.016,8.711a14.522,14.522,0,0,1-4.049,10.556c-.741.815-.638,1.221.075,1.937a24.17,24.17,0,0,0,5.348,4.271c5.806,3.225,8.236,8.59,9.037,14.9a47.829,47.829,0,0,1,.487,7.471c-.028.9.33,1.2,1.205,1.192q8.409-.035,16.819,0c.978.006,1.247-.392,1.231-1.3-.042-2.339-.019-4.679-.012-7.018a2.054,2.054,0,0,0-.46-1.452c-1.314-1.529-2.615-3.07-3.882-4.638a1.243,1.243,0,0,0-1.464-.453,7.759,7.759,0,0,1-8-2.444,40.643,40.643,0,0,1-2.632-3.159,7.941,7.941,0,0,1,1.078-10.723,7.857,7.857,0,0,1,10.936.4,31.541,31.541,0,0,1,3.1,3.706,7.561,7.561,0,0,1,.77,7.7,1.627,1.627,0,0,0,.309,1.957c1.382,1.576,2.667,3.24,4.072,4.794a5.048,5.048,0,0,1,1.363,3.736c-.066,2.58,0,5.162-.025,7.744-.005.724.2,1.116,1,1.162a6.935,6.935,0,0,1,6.46,4.83ZM430.486,595.3H376.773c-.4,0-.807,0-1.21,0-1.615.026-2.133.557-2.155,2.209-.007.484,0,.967,0,1.451,0,3.257.184,3.443,3.385,3.443h41.737a12.764,12.764,0,0,1,1.33.026,2.4,2.4,0,0,1,2.184,2.341c.071,1.668-1.016,2.64-3,2.641q-17.3.008-34.6-.016c-1.073,0-1.418.192-1.118,1.346q3.944,15.212,7.789,30.448a1.359,1.359,0,0,0,1.56,1.229q37.745-.037,75.489,0c1.026,0,1.393-.379,1.627-1.3Q473.609,624,477.492,608.9c.377-1.478.373-1.485-1.132-1.485q-17,0-33.995,0a13.031,13.031,0,0,1-1.33-.025,2.493,2.493,0,0,1,0-4.963c.439-.042.886-.021,1.33-.021h41.857c.4,0,.808.011,1.21-.007,1.41-.061,1.973-.61,2.024-2,.029-.805.01-1.613.009-2.419,0-2.291-.381-2.675-2.661-2.675Zm-.078-5.165q11.855,0,23.708,0c.746,0,1.51.087,1.387-1.08-.277-2.642-.249-5.307-.692-7.94-.715-4.241-2.415-7.824-6.252-10.145a1.392,1.392,0,0,0-1.989.184c-2.726,2.573-5.489,5.107-8.261,7.632-1.82,1.658-3.573,1.331-4.694-.857-.865-1.686-1.686-3.393-2.542-5.083-.157-.311-.215-.8-.618-.823-.437-.028-.485.48-.639.782-.824,1.616-1.616,3.248-2.431,4.869-1.285,2.554-2.964,2.847-5.057.909-2.692-2.492-5.414-4.953-8.079-7.473a1.327,1.327,0,0,0-1.893-.162,12.979,12.979,0,0,0-6.056,8.929,64.984,64.984,0,0,0-.892,8.522c-.127,1.647-.092,1.736,1.535,1.736Q418.676,590.134,430.408,590.131ZM416.5,549.163a8.946,8.946,0,0,0,2.476,7.7,20.322,20.322,0,0,0,8.5,5.8,8.623,8.623,0,0,0,6.259-.122,21.442,21.442,0,0,0,6.828-4.276c2.812-2.569,4.35-5.646,3.883-9.568-.088-.739-.279-1.034-1.051-1.12a40.735,40.735,0,0,1-9.277-2.178c-2.769-.994-5.51-2.073-8.308-2.979a7.36,7.36,0,0,0-8.4,2.318C416.156,546.14,416.568,547.665,416.5,549.163Zm27.917-8.742a10.4,10.4,0,0,0-.4-2.925,13.925,13.925,0,0,0-16.125-10.362c-5.725,1.142-9.388,4.685-11.025,10.3-.087.3-.295.661.028.885.257.178.519-.115.76-.241a11.01,11.01,0,0,1,2.831-1.022c3.219-.689,6.233.193,9.2,1.26,4.163,1.5,8.234,3.265,12.649,3.969C444.325,542.6,444.441,542.543,444.416,540.421Zm-58.251,27.132a2.652,2.652,0,0,0,1.682,2.666,2.741,2.741,0,0,0,3.195-.7c.788-.854,1.526-1.758,2.244-2.674a2.777,2.777,0,0,0-.275-4.079,2.846,2.846,0,0,0-4.087.411c-.75.836-1.442,1.724-2.161,2.588A2.571,2.571,0,0,0,386.165,567.553Zm83.536-5.43a2.738,2.738,0,0,0-2.459,4.165,17.635,17.635,0,0,0,2.84,3.439,2.767,2.767,0,0,0,4.565-1.457C475.073,566.149,471.852,562.147,469.7,562.123Zm-49.5,2.591a1.439,1.439,0,0,0-.407.2c-.629.62-1.254,1.244-1.859,1.887-.344.365-.1.664.182.922,1.71,1.579,3.428,3.15,5.136,4.732.47.435.8.422,1.1-.194.607-1.267,1.237-2.523,1.879-3.771.307-.6.071-.862-.5-1.054a23.965,23.965,0,0,1-4.972-2.41C420.588,564.924,420.411,564.832,420.2,564.714Zm17,8.045c.173-.138.4-.3.606-.491,1.2-1.082,2.383-2.175,3.582-3.254,2.1-1.888,2.078-2.238-.178-4a.718.718,0,0,0-.968-.074,24.371,24.371,0,0,1-5.207,2.538c-.548.192-.663.5-.4,1.015.642,1.257,1.26,2.526,1.9,3.787C436.658,572.523,436.763,572.813,437.2,572.76Z" fill="current"/>
    <path id="Path_949" data-name="Path 949" d="M434.511,645.458q-11.247,0-22.492,0c-3.947,0-6.243-2.288-6.251-6.217-.006-2.539-.014-5.079,0-7.618a5.631,5.631,0,0,1,5.952-5.9q22.915-.015,45.83,0a5.629,5.629,0,0,1,5.949,5.9q.027,3.99,0,7.982a5.632,5.632,0,0,1-5.893,5.846Q446.059,645.477,434.511,645.458Zm.258-14.576c-7.457,0-14.915.016-22.372-.017-1.078-.005-1.521.313-1.488,1.445.067,2.216.051,4.435.005,6.65-.02.989.339,1.347,1.337,1.346q22.371-.031,44.742,0c1.093,0,1.386-.439,1.362-1.445-.049-2.095-.011-4.191-.015-6.288,0-1.675-.019-1.693-1.686-1.694Q445.713,630.879,434.769,630.883Z" transform="translate(-4.199 -11.682)" fill="current"/>
    <path id="Path_950" data-name="Path 950" d="M437.874,617.612a2.5,2.5,0,1,1,2.594-2.431A2.434,2.434,0,0,1,437.874,617.612Z" transform="translate(-7.539 -10.21)" fill="current"/>
  </g>
</svg>
