<svg xmlns="http://www.w3.org/2000/svg" width="108.52" height="130.625" viewBox="0 0 108.52 130.625">
  <g id="Group_156" data-name="Group 156" transform="translate(-108.065 -779.871)">
    <path id="Path_963" data-name="Path 963" d="M186.164,779.871c1.5.79,1.765,2.173,1.766,3.682,0,3.569.041,7.139-.018,10.706-.02,1.191.313,1.741,1.578,1.616a21.124,21.124,0,0,1,2.548-.01,2.738,2.738,0,0,1,2.989,2.659,12.971,12.971,0,0,1,.065,1.653c.015,1.793.011,1.793,1.858,1.8,1.062,0,2.125-.021,3.186.01a2.688,2.688,0,0,1,2.9,2.863q.048,10.579,0,21.158a2.685,2.685,0,0,1-2.758,2.874,2.783,2.783,0,0,1-2.662-3c-.043-4.758-.019-9.516-.022-14.275,0-1.02-.035-2.041.006-3.059.039-.94-.457-1.133-1.268-1.136-.842,0-1.291.274-1.241,1.175a15.232,15.232,0,0,1-.009,1.529c-.109,2.389-1.109,3.385-3.507,3.4-3.781.027-7.563.013-11.344,0a17.961,17.961,0,0,1-2.414-.1,2.593,2.593,0,0,1-2.452-2.747c-.142-3.254-.142-3.254-3.458-3.254q-16.889,0-33.777,0c-2.639,0-2.354-.159-2.372,2.3,0,.3.007.6-.01.892a2.683,2.683,0,0,1-2.557,2.819,27.27,27.27,0,0,1-3.18.091c-3.442.008-6.883.017-10.324,0-2.706-.015-3.674-1.009-3.686-3.71a7.719,7.719,0,0,1,0-.892c.119-1.054-.22-1.537-1.4-1.53-1.2.007-1.259.625-1.259,1.537q.019,40.342.02,80.682c.007,7.813,4.684,13.734,11.89,15.23a14.728,14.728,0,0,0,17.487-13.474c.127-2.814,1-3.664,3.862-3.665q24.345-.009,48.69,0c2.3,0,2.3,0,2.3-2.261q0-18.672,0-37.346a7,7,0,0,1,.155-2.024,2.6,2.6,0,0,1,2.722-2.024,2.55,2.55,0,0,1,2.487,2.154,8.388,8.388,0,0,1,.09,1.649q.006,18.991,0,37.983c0,1.865,0,1.867,1.912,1.869,2.719,0,5.438-.015,8.157.006,2.517.02,3.477,1,3.461,3.485-.062,10.187-9.068,19.263-19.294,19.283q-34.8.067-69.593.008a20,20,0,0,1-19.367-16.426,19.668,19.668,0,0,1-.265-3.423q0-42.636,0-85.271c0-2.51.862-3.37,3.362-3.381,1.147,0,2.3-.033,3.441.007.813.029,1.183-.272,1.135-1.107-.037-.635-.017-1.274,0-1.911a2.825,2.825,0,0,1,3.086-3.1c.892-.018,1.789-.058,2.676.008,1.048.079,1.415-.314,1.4-1.376-.049-3.654.024-7.308-.039-10.961a4.006,4.006,0,0,1,1.6-3.664h2.294a3.7,3.7,0,0,1,1.605,3.393c-.048,3.355-.027,6.711-.012,10.065.013,2.864-.32,2.514,2.5,2.525,4.12.015,4.663.492,4.616,4.588-.015,1.266.424,1.564,1.614,1.552,5.648-.053,11.3-.024,16.947-.024,6.583,0,13.166-.015,19.75.017.978,0,1.425-.271,1.33-1.3a16.469,16.469,0,0,1,0-2.038,2.6,2.6,0,0,1,2.8-2.785c1.019-.03,2.042-.062,3.057.006s1.315-.345,1.3-1.33c-.044-3.822.02-7.646-.037-11.467a3.3,3.3,0,0,1,1.636-3.205ZM142.005,905a3.457,3.457,0,0,0,1.693.192q24.707.01,49.414.006c1.527,0,3.05-.033,4.577-.154a14.583,14.583,0,0,0,12.788-9.953c.612-1.823.525-1.949-1.381-1.95q-28.846,0-57.693.008c-1.052,0-2.262-.379-3.119.187s-.638,1.859-.924,2.82A21.983,21.983,0,0,1,142.005,905Zm43.117-96.912c1.146,0,2.292-.033,3.436.011.84.032,1.123-.321,1.1-1.131-.039-1.526-.032-3.055,0-4.581.014-.754-.282-1.08-1.045-1.074-2.29.018-4.582.024-6.872,0-.834-.01-1.119.348-1.1,1.151.037,1.527.034,3.055,0,4.581-.016.76.274,1.079,1.044,1.055C182.831,808.058,183.977,808.083,185.122,808.084Zm-59.31,0c1.145,0,2.29-.025,3.435.008.769.022,1.067-.308,1.055-1.058-.023-1.527-.027-3.053,0-4.58.015-.8-.3-1.156-1.119-1.147q-3.307.038-6.615,0c-.825-.01-1.132.341-1.116,1.146.032,1.526.027,3.053,0,4.579-.013.75.276,1.085,1.048,1.06C123.606,808.057,124.71,808.083,125.813,808.083Z" fill="current"/>
    <path id="Path_964" data-name="Path 964" d="M163,872.444q-12.418,0-24.838.008c-1.29,0-2.5-.145-3.21-1.374s-.237-2.36.43-3.461q7.056-11.657,14.1-23.322c1.493-2.465,3.747-2.444,5.266.024,1.3,2.116,1.3,2.114,2.561.022q3.452-5.725,6.911-11.447c1.558-2.572,3.785-2.621,5.335-.062q10.564,17.424,21.078,34.879c1.622,2.693.456,4.728-2.667,4.732Q175.483,872.455,163,872.444Zm12.953-5.463c2.207,0,4.414-.026,6.62.011.984.017,1.229-.2.668-1.124q-7.861-12.947-15.667-25.928c-.557-.928-.855-.79-1.346.036q-3.214,5.419-6.5,10.793a1.447,1.447,0,0,0-.036,1.735q4.15,6.787,8.226,13.619a1.589,1.589,0,0,0,1.546.865C171.625,866.962,173.789,866.979,175.953,866.981Zm-23.823,0c2.886,0,5.771-.029,8.655.015,1.047.017,1.3-.155.684-1.151q-4.394-7.158-8.686-14.377c-.524-.879-.8-.888-1.323-.018q-4.349,7.259-8.763,14.481c-.538.882-.248,1.067.651,1.06C146.276,866.964,149.2,866.98,152.13,866.981Z" transform="translate(-7.926 -15.257)" fill="current"/>
    <path id="Path_965" data-name="Path 965" d="M162.975,904.257q-12.675,0-25.35-.006c-1.9,0-3.027-1.043-3-2.693a2.551,2.551,0,0,1,2.341-2.563,11.131,11.131,0,0,1,1.145-.027q24.9,0,49.808,0a10.213,10.213,0,0,1,1.145.03,2.634,2.634,0,0,1,.023,5.223,11.775,11.775,0,0,1-1.4.034Q175.332,904.258,162.975,904.257Z" transform="translate(-7.935 -35.582)" fill="current"/>
    <path id="Path_966" data-name="Path 966" d="M161.488,912.074c3.907,0,7.812-.008,11.719,0,1.847,0,3,.948,3.1,2.494.1,1.5-1,2.642-2.792,2.851a17.712,17.712,0,0,1-2.034.076q-10.19.007-20.38,0a14.015,14.015,0,0,1-2.029-.13,2.6,2.6,0,0,1-2.444-2.862,2.569,2.569,0,0,1,2.758-2.418C153.421,912.06,157.454,912.077,161.488,912.074Z" transform="translate(-11.519 -39.497)" fill="current"/>
    <path id="Path_967" data-name="Path 967" d="M238.564,856.782a2.643,2.643,0,1,1-.082,5.285,2.724,2.724,0,0,1-2.656-2.693A2.658,2.658,0,0,1,238.564,856.782Z" transform="translate(-38.171 -22.978)" fill="current"/>
    <path id="Path_968" data-name="Path 968" d="M201.282,914.691a2.653,2.653,0,0,1-5.3.079,2.621,2.621,0,0,1,2.62-2.68A2.59,2.59,0,0,1,201.282,914.691Z" transform="translate(-26.265 -39.502)" fill="current"/>
  </g>
</svg>
