<svg xmlns="http://www.w3.org/2000/svg" width="115.598" height="123.643" viewBox="0 0 115.598 123.643">
  <g id="Group_158" data-name="Group 158" transform="translate(-96.904 -567.992)">
    <path id="Path_971" data-name="Path 971" d="M164.57,567.992a3.432,3.432,0,0,1,1.518,3.211c-.054,1.688.034,3.379-.029,5.066-.038,1,.312,1.315,1.312,1.31,6.474-.036,12.949-.02,19.423-.018,2.53,0,3.383.849,3.391,3.4.011,2.854,0,5.709,0,8.564a2.887,2.887,0,0,1-1.29,2.695c-1.743,1.07-3.771-.154-3.846-2.371-.066-1.968-.064-3.942,0-5.91.031-1.016-.239-1.409-1.341-1.407q-36.131.042-72.262,0c-1.046,0-1.4.294-1.39,1.363q.062,9.471,0,18.941c-.007,1.141.29,1.226,1.309.86a13.209,13.209,0,0,1,14.12,2.766c4.093,3.657,8.481,3.618,12.584-.062a13.078,13.078,0,0,1,13.563-2.866c1.082.353,1.376.143,1.282-.928-.05-.558.007-1.126-.01-1.688a2.485,2.485,0,0,1,1.382-2.478,2.449,2.449,0,0,1,2.9.436,17.858,17.858,0,0,0,4.386,2.724c2.3,1.023,4.762,1.083,7.2,1.282a12.839,12.839,0,0,1,11.762,12.743,3.667,3.667,0,0,0,1.272,3.052c1.012.9,1.9,1.95,2.819,2.914.56-.368.388-.766.39-1.09.017-2.493.009-4.986.01-7.48,0-.362-.012-.725.012-1.085a2.565,2.565,0,1,1,5.124-.023c.06.921.022,1.849.023,2.774,0,3.66.027,7.319-.018,10.978A2.986,2.986,0,0,0,191.14,628q9.412,9.354,18.774,18.759a7.917,7.917,0,0,1,1.928,8.965,7.824,7.824,0,0,1-12.675,2.495c-1.962-1.845-3.837-3.784-5.722-5.708a2,2,0,0,0-1.809-.583c-2.081.148-4.176.1-6.266.12-1.327.012-2.657.06-3.98-.016-1.027-.059-1.243.251-.973,1.232,1.241,4.492,2.429,9,3.634,13.5q2.776,10.363,5.55,20.727c.073.272.143.544.2.819a2.485,2.485,0,0,1-2.566,3.3c-3.78.026-7.56.014-11.34.007-1.905,0-2.652-.59-3.154-2.473q-2.086-7.8-4.16-15.609c-.46-1.729-.459-1.73-2.258-1.73-12.587,0-25.173.018-37.76-.028a1.75,1.75,0,0,0-2.048,1.575c-1.339,5.256-2.77,10.49-4.181,15.727-.548,2.034-1.225,2.537-3.34,2.539-3.619,0-7.239.009-10.858,0-2.349-.007-3.4-1.329-2.795-3.6q4.6-17.3,9.251-34.586c.37-1.379.379-1.379-1.068-1.381-2.9,0-5.791.016-8.687-.006a8.21,8.21,0,0,1-7.9-7.232c-.389-4.557,2.458-8.629,6.649-9.229,1.264-.181,1.337-.721,1.336-1.718q-.029-26.118-.013-52.237c0-.443-.013-.885.007-1.327a2.545,2.545,0,0,1,2.817-2.739q9.712-.019,19.423-.006c1.867,0,1.867,0,1.868-1.92,0-1.528.04-3.057-.012-4.584a3.21,3.21,0,0,1,1.528-3.065Zm11.606,67.278c-2.214-2.214-4.344-4.342-6.469-6.473a1.291,1.291,0,0,0-1.108-.285,14.946,14.946,0,0,1-15.659-16.427,3.015,3.015,0,0,0-2.239-3.452,11.565,11.565,0,0,0-1.481-.5,8.556,8.556,0,0,0-8.177,2.389,13.138,13.138,0,0,1-12.481,3.359,13.711,13.711,0,0,1-6.264-3.443c-3.328-3.054-7.5-3.4-10.923-1.015a2.727,2.727,0,0,0-1.328,2.49c.052,7.276.026,14.553.027,21.829,0,1.731,0,1.734,1.7,1.734q31.538,0,63.076-.005A2.134,2.134,0,0,0,176.175,635.27Zm11.406,11.788.149-.316c-1.771-1.747-3.576-3.461-5.3-5.255a3.193,3.193,0,0,0-2.543-1.035q-36.857.037-73.713.019c-2.651,0-4.186,1.17-4.246,3.231s1.563,3.354,4.244,3.355h81.405Zm-40.029,19.6h17.839c.714,0,1.4.1,1.07-1.069-1.159-4.136-2.26-8.288-3.345-12.445a1.245,1.245,0,0,0-1.417-1.1q-14.162.037-28.325,0a1.234,1.234,0,0,0-1.413,1.1c-1.05,4.041-2.16,8.066-3.243,12.1-.368,1.372-.335,1.415,1.114,1.417Q138.693,666.659,147.553,666.654Zm23.967-14.6c-.724,0-1.452.054-2.17-.013-1.024-.1-1.221.216-.943,1.219,1.29,4.645,2.5,9.311,3.746,13.968,1.608,6.016,3.239,12.025,4.81,18.049a1.529,1.529,0,0,0,1.835,1.378,36.608,36.608,0,0,1,4.1-.006c.977.044,1.155-.269.905-1.19-2.728-10.081-5.414-20.174-8.13-30.259C174.825,652.047,174.8,652.054,171.52,652.054Zm-57.1,34.579a13.369,13.369,0,0,1,1.806.015c1.145.157,1.63-.323,1.9-1.426.806-3.276,1.721-6.524,2.594-9.783,1.974-7.372,3.935-14.747,5.939-22.11.265-.972.082-1.33-.959-1.289-1.4.057-2.815.066-4.219,0-.944-.047-1.327.314-1.565,1.22-1.547,5.906-3.159,11.795-4.741,17.691-1.3,4.849-2.576,9.706-3.9,14.548-.238.867-.062,1.2.854,1.145C112.89,686.6,113.656,686.633,114.42,686.633Zm43.487-76.544c0,1-.02,2.009,0,3.013.121,4.9,2.618,8.53,6.857,9.863a7.86,7.86,0,0,0,8.554-1.942,7.758,7.758,0,0,0-5.013-13.06,26.109,26.109,0,0,1-9.586-2.035c-.591-.278-.818-.058-.816.544C157.911,607.679,157.908,608.883,157.907,610.089Zm46.665,45.217a2.61,2.61,0,0,0,2.653-1.825c.48-1.351-.151-2.323-1.05-3.221q-13.31-13.307-26.617-26.617a.992.992,0,0,1-.085-.086c-.577-.723-1.04-.809-1.668.044a9.429,9.429,0,0,1-2.127,2.117c-.98.686-.779,1.133-.053,1.842q5.091,4.973,10.113,10.014,8.226,8.234,16.425,16.494A3.122,3.122,0,0,0,204.573,655.306ZM147.69,572.9H137.331c-3.183,0-3.137,0-3.177,3.183-.015,1.163.358,1.5,1.513,1.5,7.309-.046,14.616-.023,21.924-.023,3.389,0,3.357,0,3.345-3.363,0-.99-.318-1.324-1.319-1.312C155.641,572.93,151.666,572.9,147.69,572.9Z" transform="translate(0 0)" fill="current"/>
    <path id="Path_972" data-name="Path 972" d="M199.015,607.422a2.544,2.544,0,1,1,2.583-2.508A2.642,2.642,0,0,1,199.015,607.422Z" transform="translate(-11.451 -3.948)" fill="current"/>
  </g>
</svg>
