<svg xmlns="http://www.w3.org/2000/svg" width="123.76" height="99.74" viewBox="0 0 123.76 99.74">
  <g id="Group_154" data-name="Group 154" transform="translate(-243.552 -400.045)">
    <path id="Path_951" data-name="Path 951" d="M243.552,402.571a4.358,4.358,0,0,1,4.389-2.526q57.473.052,114.944.026c3.085,0,4.425,1.327,4.425,4.384q0,45.458,0,90.916c0,3.057-1.342,4.387-4.424,4.387q-57.473,0-114.944.027a4.364,4.364,0,0,1-4.39-2.527Zm61.837,71.656h56.523c1.6,0,1.605,0,1.605-1.576q0-33.575,0-67.151c0-1.634,0-1.635-1.666-1.635H248.927c-1.664,0-1.666,0-1.666,1.635v67.03c0,1.695,0,1.7,1.727,1.7Zm-16.063,21.739c2.617,0,5.234-.022,7.85.013.822.012,1.216-.247,1.128-1.1a3.949,3.949,0,0,1,0-.965c.166-1.139-.339-1.436-1.432-1.418-3.582.059-7.165.018-10.748.025a2.183,2.183,0,0,1-1.866-.649,1.875,1.875,0,0,1-.283-2.04,1.819,1.819,0,0,1,1.846-1.1c3.382,0,6.763.017,10.145-.009,2.567-.02,2.3.466,2.341-2.415.012-.8-.306-1.045-1.073-1.042q-7.911.031-15.821,0c-.767,0-1.083.243-1.074,1.042.03,2.858.035,5.717,0,8.574-.012.857.314,1.117,1.136,1.106C284.092,495.943,286.709,495.965,289.326,495.965Zm-27.3-17.945c-4.227,0-8.454-.008-12.681,0-2.3.006-2.033-.278-2.108,2.176-.031,1.024.342,1.308,1.324,1.293,3.3-.048,6.6-.018,9.9-.018,5.6,0,11.192-.02,16.787.018.981.006,1.445-.27,1.308-1.293a2.6,2.6,0,0,1,0-.723c.179-1.186-.346-1.5-1.491-1.479C270.727,478.055,266.379,478.02,262.03,478.02Zm-.214,10.7c4.469,0,8.937-.031,13.406.023,1.077.013,1.489-.338,1.341-1.384a2.145,2.145,0,0,1,0-.6c.165-1.139-.266-1.522-1.456-1.515-8.575.048-17.15.02-25.725.028-2.336,0-2.056-.28-2.146,2.142-.041,1.12.407,1.338,1.414,1.327C253.039,488.693,257.428,488.719,261.816,488.719Zm.094,3.794c-4.187,0-8.374-.007-12.561,0-2.3.005-2.033-.279-2.108,2.176-.031,1.024.342,1.307,1.324,1.293,3.341-.049,6.682-.019,10.024-.019,5.556,0,11.111-.019,16.667.018.981.007,1.445-.27,1.308-1.292a2.607,2.607,0,0,1,0-.724c.179-1.186-.346-1.495-1.491-1.479C270.687,492.548,266.3,492.513,261.91,492.513Zm27.383-11.04c2.616,0,5.233-.03,7.849.017.908.016,1.261-.314,1.161-1.2a3.493,3.493,0,0,1,0-.844c.147-1.084-.25-1.469-1.4-1.455-4.789.06-9.58.017-14.37.029-2.41.006-2.137-.309-2.2,2.2-.023.928.246,1.288,1.227,1.266C284.139,481.434,286.717,481.472,289.293,481.472Zm21.894-3.452c-2.657,0-5.315.022-7.971-.013-.822-.011-1.215.248-1.127,1.106a3.95,3.95,0,0,1,0,.965c-.166,1.139.341,1.429,1.432,1.417,4.75-.051,9.5-.008,14.252-.028,2.5-.01,2.231.415,2.283-2.355.016-.857-.314-1.116-1.136-1.1C316.34,478.043,313.763,478.021,311.186,478.021Zm21.552,3.452c2.658,0,5.315-.018,7.971.011.761.008,1.147-.229,1.073-1.036a4.182,4.182,0,0,1,0-.965c.17-1.177-.332-1.5-1.486-1.487-4.749.058-9.5.014-14.25.029-2.447.008-2.173-.355-2.233,2.29-.02.907.308,1.189,1.192,1.174C327.586,481.444,330.162,481.472,332.738,481.472Zm21.808,0c2.616,0,5.233-.022,7.849.013.822.011,1.215-.249,1.128-1.106a3.906,3.906,0,0,1,0-.965c.166-1.139-.341-1.429-1.432-1.417-4.749.051-9.5.008-14.25.027-2.5.011-2.234-.418-2.284,2.354-.016.855.314,1.117,1.137,1.107C349.312,481.45,351.929,481.472,354.546,481.472Zm-43.6,7.247c2.616,0,5.234-.033,7.85.018.941.019,1.368-.269,1.243-1.237a3.1,3.1,0,0,1,0-.844c.173-1.149-.355-1.422-1.437-1.411-4.79.051-9.581.012-14.371.026-2.365.006-2.09-.322-2.163,2.241-.028.986.345,1.242,1.268,1.224C305.877,488.688,308.414,488.719,310.951,488.719Zm21.855-3.452c-2.617,0-5.234.023-7.85-.012-.823-.012-1.216.248-1.128,1.1a3.95,3.95,0,0,1,0,.965c-.166,1.14.341,1.43,1.432,1.417,4.75-.051,9.5-.008,14.252-.027,2.5-.011,2.231.415,2.283-2.355.016-.857-.314-1.116-1.136-1.1C338.039,485.29,335.422,485.267,332.806,485.267Zm21.663,3.452c2.576,0,5.153-.034,7.729.018.964.019,1.464-.237,1.325-1.278a3.163,3.163,0,0,1,0-.843c.147-1.064-.3-1.382-1.356-1.371-4.79.051-9.581.011-14.371.027-2.453.008-2.18-.365-2.24,2.28-.019.9.288,1.2,1.184,1.184C349.315,488.69,351.893,488.719,354.469,488.719Zm-43.4,7.246c2.617,0,5.234-.022,7.85.013.82.012,1.218-.245,1.129-1.1a3.95,3.95,0,0,1,0-.965c.165-1.138-.338-1.431-1.431-1.419-4.749.052-9.5.008-14.251.028-2.5.01-2.233-.415-2.285,2.353-.016.855.311,1.118,1.135,1.107C305.83,495.943,308.447,495.965,311.064,495.965Zm21.862-3.452c-2.657,0-5.315.022-7.971-.013-.822-.011-1.216.249-1.128,1.106a3.95,3.95,0,0,1,0,.965c-.166,1.14.341,1.43,1.432,1.417,4.75-.051,9.5-.008,14.252-.027,2.5-.011,2.232.415,2.283-2.355.016-.857-.314-1.117-1.136-1.106C338.079,492.537,335.5,492.513,332.926,492.513Zm21.739,0c-2.657,0-5.315.022-7.971-.013-.823-.011-1.215.251-1.127,1.107a3.949,3.949,0,0,1,0,.965c-.166,1.141.344,1.428,1.433,1.417,4.79-.051,9.581-.013,14.372-.026,2.37-.006,2.1.322,2.167-2.236.027-.979-.332-1.248-1.263-1.231C359.738,492.545,357.2,492.513,354.665,492.513Z" fill="current"/>
    <path id="Path_952" data-name="Path 952" d="M337.413,441.53c-.01,13.212-10.014,24.75-23.774,26.8a27.68,27.68,0,0,1-7.694-54.822,26.947,26.947,0,0,1,19.9,4.865c.787.551,1.471,1.185,1.3,2.263a1.945,1.945,0,0,1-3.191,1.139A26.58,26.58,0,0,0,317,418.229a23.8,23.8,0,1,0-9.531,46.366c12.412,1.4,24.337-8.012,25.892-20.486a23.413,23.413,0,0,0-3.957-16.636,8.7,8.7,0,0,1-.717-1.115,1.905,1.905,0,0,1,3.1-2.162,16.506,16.506,0,0,1,2.093,3.1A27.242,27.242,0,0,1,337.413,441.53Z" transform="translate(-4.404 -1.502)" fill="current"/>
    <path id="Path_953" data-name="Path 953" d="M300.987,441.866c0-4.022-.01-8.045,0-12.067.012-3.829,3.339-5.78,6.578-3.743q9.65,6.069,19.182,12.33a4.107,4.107,0,0,1,.012,7.056q-9.54,6.243-19.18,12.333c-3.239,2.038-6.579.1-6.591-3.721C300.977,449.991,300.987,445.928,300.987,441.866Zm4.351-12.6c-.757.151-.548.736-.548,1.163q-.019,11.467,0,22.932c0,.384-.158.868.26,1.112s.752-.15,1.073-.355q8.787-5.636,17.56-11.29c1.286-.829,1.281-1-.068-1.865q-8.721-5.625-17.454-11.233C305.889,429.56,305.6,429.418,305.337,429.269Z" transform="translate(-6.552 -2.874)" fill="current"/>
  </g>
</svg>
