<svg xmlns="http://www.w3.org/2000/svg" width="118.81" height="118.788" viewBox="0 0 118.81 118.788">
  <g id="Group_155" data-name="Group 155" transform="translate(-426.855 -733.357)">
    <path id="Path_954" data-name="Path 954" d="M436.676,856.189a12.51,12.51,0,0,1-8.081-5.563,11.1,11.1,0,0,1-1.736-5.926q0-28.927.01-57.855a11.78,11.78,0,0,1,10.818-11.451,48.879,48.879,0,0,1,5.327-.1c1.2.048,1.569-.39,1.482-1.541a8.907,8.907,0,0,1,.888-4.949,8.435,8.435,0,0,1,15.953,3.78c.026,2.684.026,2.684,2.731,2.684,3.015,0,6.03-.029,9.043.017a2.044,2.044,0,0,0,2.045-1.151c2.259-3.915,4.641-7.761,6.858-11.7a3.627,3.627,0,0,1,3.578-2.016c2.357.036,4.714.008,7.072.008,7.459,0,14.918.054,22.376-.033A4.574,4.574,0,0,1,519.7,763c2.053,3.806,4.381,7.463,6.551,11.207a1.906,1.906,0,0,0,1.852,1.078c2.2,0,4.4-.083,6.6.1A11.8,11.8,0,0,1,545.3,783.9c.112.369.244.731.367,1.1v61.451a15.873,15.873,0,0,1-1.533,3.984,12.5,12.5,0,0,1-8.206,5.755Zm49.575-4.858c15.725,0,31.45-.05,47.175.032a7.16,7.16,0,0,0,7.514-7.467q.013-28.051-.005-56.1c-.006-4.676-2.987-7.591-7.643-7.591q-47,0-94,0c-4.649,0-7.62,2.926-7.625,7.61q-.031,27.991-.006,55.983a8.618,8.618,0,0,0,.56,3.175c.855,2.173,3.042,4.4,7.089,4.386C454.957,851.29,470.6,851.331,486.252,851.331Zm14.313-76.06q9.618,0,19.234,0c1.263,0,1.327-.124.688-1.209-1.526-2.6-3.075-5.18-4.58-7.79a1.592,1.592,0,0,0-1.558-.922q-13.672.036-27.344,0a1.579,1.579,0,0,0-1.547.932c-1.482,2.577-3.016,5.125-4.528,7.685-.718,1.216-.672,1.3.748,1.3Q491.122,775.277,500.565,775.271Zm-47.656-.008c.926,0,1.853,0,2.779,0,.48,0,.838-.167.839-.725a9.475,9.475,0,0,0-.2-2.875,3.548,3.548,0,0,0-6.828,0,9.476,9.476,0,0,0-.2,2.875c0,.559.357.724.838.726C451.055,775.266,451.982,775.263,452.909,775.263Z" transform="translate(0 -4.043)" fill="current"/>
    <path id="Path_955" data-name="Path 955" d="M510.836,741.879c0-1.969-.016-3.938,0-5.906a2.4,2.4,0,1,1,4.787-.008q.026,6.023,0,12.044a2.4,2.4,0,1,1-4.784.007C510.819,745.971,510.836,743.925,510.836,741.879Z" transform="translate(-12.556)" fill="current"/>
    <path id="Path_956" data-name="Path 956" d="M490.366,737.943a2.39,2.39,0,0,1,1.765.813c2.732,2.729,5.479,5.444,8.184,8.2a2.436,2.436,0,1,1-3.456,3.4c-2.746-2.716-5.465-5.458-8.2-8.188a2.338,2.338,0,0,1-.6-2.844A2.278,2.278,0,0,1,490.366,737.943Z" transform="translate(-9.114 -0.685)" fill="current"/>
    <path id="Path_957" data-name="Path 957" d="M537.15,740.309a2.731,2.731,0,0,1-.866,1.876c-2.734,2.728-5.451,5.472-8.2,8.184a2.436,2.436,0,1,1-3.427-3.433c2.709-2.753,5.453-5.469,8.186-8.2a2.45,2.45,0,0,1,2.867-.6A2.379,2.379,0,0,1,537.15,740.309Z" transform="translate(-14.486 -0.681)" fill="current"/>
    <path id="Path_958" data-name="Path 958" d="M508.507,844.772a24.42,24.42,0,1,0-8.957-47.135c-1.578.613-2.8.3-3.473-.828a2.4,2.4,0,0,1,1.342-3.578,26.079,26.079,0,0,1,8.168-2.051,29.269,29.269,0,0,1,21.32,6.363c12.709,10.04,14.64,29.309,4.107,41.612a28.813,28.813,0,0,1-24.737,10.5c-13.5-.794-25.2-11.9-26.841-25.281a29.624,29.624,0,0,1,1.783-14.784c.6-1.51,1.63-2.183,2.891-1.931a2.426,2.426,0,0,1,1.726,3.506,26.542,26.542,0,0,0-1.688,7.538,24.358,24.358,0,0,0,24.36,26.069Z" transform="translate(-7.824 -8.627)" fill="current"/>
    <path id="Path_959" data-name="Path 959" d="M529.4,822.255A19.1,19.1,0,1,1,510.326,803,19.038,19.038,0,0,1,529.4,822.255Zm-19.058,14.1a14.223,14.223,0,1,0-14.3-14.153A14.279,14.279,0,0,0,510.337,836.354Z" transform="translate(-9.622 -10.413)" fill="current"/>
    <path id="Path_960" data-name="Path 960" d="M455.892,805.173c-1.892,0-3.786.019-5.679,0a2.38,2.38,0,0,1-2.619-2.215,2.3,2.3,0,0,1,2.335-2.61c3.086-.125,6.178-.084,9.268-.093a23.9,23.9,0,0,1,3.006.1,2.411,2.411,0,0,1-.282,4.813C459.91,805.2,457.9,805.171,455.892,805.173Z" transform="translate(-3.1 -10.001)" fill="current"/>
    <path id="Path_961" data-name="Path 961" d="M490.819,800.367a2.407,2.407,0,1,1-2.333,2.483A2.336,2.336,0,0,1,490.819,800.367Z" transform="translate(-9.215 -10.019)" fill="current"/>
    <path id="Path_962" data-name="Path 962" d="M513.565,814.622a9.459,9.459,0,0,1,8.975,8.912,2.58,2.58,0,0,1-2.221,2.78,2.461,2.461,0,0,1-2.687-2.419,4.475,4.475,0,0,0-2.557-3.961,7.18,7.18,0,0,0-2.022-.43,2.414,2.414,0,0,1-2.2-2.749A2.473,2.473,0,0,1,513.565,814.622Z" transform="translate(-12.557 -12.151)" fill="current"/>
  </g>
</svg>
