<svg xmlns="http://www.w3.org/2000/svg" width="139.705" height="111.779" viewBox="0 0 139.705 111.779">
  <g id="Group_157" data-name="Group 157" transform="translate(-647.029 -592.649)">
    <path id="Path_969" data-name="Path 969" d="M786.734,662.457a3.838,3.838,0,0,1-3.623,1.712c-4.263-.151-8.538.264-12.793-.255a24.869,24.869,0,0,1-14.237-6.553q-9.534-8.853-18.934-17.851c-.954-.911-1.544-.956-2.374.049a16.916,16.916,0,0,1-2.31,2.309,2.258,2.258,0,0,0-.7,2.889,35,35,0,0,1,1.09,3.509,11,11,0,0,1-13.92,13.317c-5.549-1.721-11.06-3.567-16.6-5.328a5.717,5.717,0,0,0-6.888,2.4,5.385,5.385,0,0,0,2.737,7.978c4.588,1.854,9.2,3.646,13.819,5.425a17.609,17.609,0,0,1,10.2,10,25.744,25.744,0,0,0,19.383,15.892,24.766,24.766,0,0,0,5.144.435c12.128-.018,24.255,0,36.382-.025a3.93,3.93,0,0,1,3.619,1.723v2.454a4.418,4.418,0,0,1-3.813,1.679c-12.267-.029-24.534.03-36.8-.036a31.786,31.786,0,0,1-29.109-19.61,12.629,12.629,0,0,0-4.618-5.925,1.559,1.559,0,0,0-2.346.221q-4.657,4.786-9.436,9.453a10.08,10.08,0,0,1-14.444.1c-1.052-1.023-1.564-.8-2.289.129a4.684,4.684,0,0,1-4.424,1.85c-1.352-.12-2.725.011-4.086-.036a2.554,2.554,0,0,0-2.051.839c-2.2,2.239-4.447,4.421-6.634,6.666a4.456,4.456,0,0,1-3.51,1.475c-1.952-.057-3.907.011-5.86-.024a2.441,2.441,0,0,0-1.93.8c-1.1,1.145-2.214,2.286-3.393,3.352a2.809,2.809,0,0,1-4.146.076,2.944,2.944,0,0,1,.2-4.257c.876-.922,1.747-1.858,2.7-2.691a3.53,3.53,0,0,0,1.316-3.1c-.1-1.72-.018-3.451-.021-5.178a4.687,4.687,0,0,1,1.54-3.633c1.724-1.613,3.254-3.446,5.054-4.963a5.74,5.74,0,0,0,2.333-5.671,7.406,7.406,0,0,1,3.1-7.726c.883-.636.8-1-.23-1.527a10.242,10.242,0,0,1-2.78-16.527c1.767-1.83,3.588-3.608,5.389-5.405,1.35-1.348,2.678-2.721,4.07-4.024a2.839,2.839,0,0,1,4.751,2.421,3.4,3.4,0,0,1-1.19,2.082c-2.893,2.889-5.795,5.77-8.669,8.679-2.031,2.055-2.144,4.827-.32,6.688,1.92,1.96,4.669,1.914,6.776-.188q14.953-14.924,29.874-29.879c.265-.266.813-.5.581-.953-.19-.374-.721-.3-1.128-.319a25.915,25.915,0,0,0-8.338,1.043c-1.975.571-3.559-.241-4-1.937-.418-1.6.576-3.062,2.482-3.617a27.82,27.82,0,0,1,13.187-.823,2.8,2.8,0,0,0,2.855-.918c6.845-6.905,13.741-13.758,20.6-20.65a4.239,4.239,0,0,1,3.753-1.419,14.18,14.18,0,0,0,10.608-2.989c.962-.751,1.775-1.691,2.694-2.5a2.758,2.758,0,0,1,4.138.025q4.382,4.29,8.67,8.677a2.73,2.73,0,0,1,.13,3.935c-.6.737-1.331,1.367-1.965,2.078a13.8,13.8,0,0,0-3.674,10.894,4.873,4.873,0,0,1-1.517,4.39c-3.258,3.166-6.406,6.444-9.675,9.6-.966.934-.912,1.469.044,2.359,6.252,5.817,12.41,11.736,18.688,17.524a19.222,19.222,0,0,0,13.369,5.274c3.18.005,6.361.042,9.54-.014A4.422,4.422,0,0,1,786.734,660ZM712.45,625.8c4.4,4.406,8.811,8.8,13.189,13.221.6.609.973.56,1.545-.015q8.748-8.795,17.546-17.54c.666-.661.549-1.045-.057-1.644q-6.538-6.474-13.013-13.012c-.694-.7-1.149-.765-1.878-.03q-8.59,8.663-17.238,17.27c-.252.251-.463.543-.644.757A1.238,1.238,0,0,0,712.45,625.8Zm-.591,26.581c2.922-2.918,5.83-5.851,8.769-8.753.6-.588.552-1-.023-1.572q-5.656-5.607-11.261-11.267c-.592-.6-.976-.571-1.551.01q-5.121,5.18-10.3,10.3c-.705.694-.589,1.144.057,1.779,2.657,2.606,5.253,5.274,7.914,7.875,1.473,1.44,3.6,1.378,5.042,2.089A1.228,1.228,0,0,0,711.859,652.382Zm-37.333,13.251q5.677,5.687,11.354,11.375c.49.493.842.536,1.345.022,1.874-1.914,3.774-3.8,5.677-5.687.455-.451.449-.783-.048-1.225a10.989,10.989,0,0,1-3.849-10.354,1.487,1.487,0,0,0-.493-1.344c-1.161-1.15-2.331-2.292-3.459-3.474-.561-.588-.964-.435-1.466.071-3.006,3.029-6.033,6.038-9.045,9.06a5.953,5.953,0,0,0-.523.682A1.242,1.242,0,0,0,674.526,665.633Zm-5.73,14.155a54.321,54.321,0,0,1,4.045,4.028,2.573,2.573,0,0,0,2.28.916,5.214,5.214,0,0,1,1.492.005c2.3.446,3.869-.66,5.243-2.323.431-.522.524-.835.008-1.346q-5.746-5.7-11.454-11.432c-.326-.325-.679-.7-1.149-.249-1.284,1.236-2.917,2.284-2.479,4.484a8.444,8.444,0,0,1,.008,1.292C666.311,676.942,667.233,678.439,668.8,679.788Zm77.348-66.574c.472.472.788.57,1-.224a19.957,19.957,0,0,1,4.222-8.123c.412-.473.21-.8-.148-1.156q-1.785-1.77-3.555-3.555c-.31-.313-.6-.541-1.034-.161a22.094,22.094,0,0,1-9.15,4.569C740.509,607.588,743.33,610.4,746.144,613.214Zm-49.607,71.071c2.65-2.618,5.269-5.269,7.92-7.887.6-.589.593-.917-.24-1.217-1.324-.477-2.634-1-3.933-1.54a1.5,1.5,0,0,0-1.846.347q-4.173,4.212-8.39,8.382a1.1,1.1,0,0,0,0,1.84,4.37,4.37,0,0,0,3.352,1.361A4.1,4.1,0,0,0,696.537,684.285Zm-32.047,7.6c1.055-1.186,2.214-2.281,3.362-3.379.558-.532.725-.941.071-1.552-1.227-1.145-2.4-2.346-3.569-3.558-.477-.5-.824-.555-1.335-.026-1.513,1.569-3.065,3.1-4.613,4.634a1.7,1.7,0,0,0-.554,1.333c.019.5-.005,1,0,1.5.033,2.957-.372,2.638,3,2.665C662.266,693.892,663.423,693.088,664.49,691.889Zm62.944-41.5a25.986,25.986,0,0,0-.926-3.263c-.19-.647-.532-.659-.97-.221q-3.749,3.752-7.495,7.506c-.343.344-.49.7.142.9a17.615,17.615,0,0,0,3.76,1.059A5.3,5.3,0,0,0,727.434,650.386Zm-35.54-3.659c-.9.888-1.782,1.8-2.7,2.68-.53.509-.589.952-.028,1.481.824.776,1.483,1.863,2.448,2.316,1.2.561,1.75-1.062,2.76-1.416a11.849,11.849,0,0,0,1.077-.572c1.586-.754,1.588-.75.387-1.952q-1.248-1.249-2.5-2.494a1.21,1.21,0,0,0-.859-.492A5.165,5.165,0,0,0,691.894,646.727Z" fill="current"/>
    <path id="Path_970" data-name="Path 970" d="M681.095,635.063a2.835,2.835,0,0,0,2.9-2.788,2.865,2.865,0,0,0-5.729-.074A2.847,2.847,0,0,0,681.095,635.063Z" fill="current" class="icon-writing"/>
  </g>
</svg>
