<?xml version="1.0" encoding="utf-8"?>
<!-- Generator: Adobe Illustrator 26.0.1, SVG Export Plug-In . SVG Version: 6.00 Build 0)  -->
<svg version="1.1" id="Layer_1" xmlns="http://www.w3.org/2000/svg" xmlns:xlink="http://www.w3.org/1999/xlink" x="0px" y="0px"
	 viewBox="0 0 883.88 1452.76" style="enable-background:new 0 0 883.88 1452.76;" xml:space="preserve">
<style type="text/css">
	.st0{fill:#F16145;}
	.st1{fill:#FFC35A;}
	.st2{enable-background:new    ;}
	.st3{fill:#FFFFFF;}
	.st4{fill:#373737;}
	.st5{fill:none;stroke:#F16145;stroke-width:5.1465;}
	.st6{fill:#404040;}
	.st7{fill:#506F85;}
	.st8{fill:#9E9D9E;}
	.st9{fill:#C11E60;}
	.st10{fill:#3B4C93;}
	.st11{fill:none;stroke:#70C5D9;stroke-width:8.8886;stroke-miterlimit:10;}
	.st12{fill:#356AA0;}
	.st13{fill:#41B175;}
	.st14{fill:none;stroke:#70C5D9;stroke-width:7.1238;stroke-miterlimit:10;}
</style>
<g>
	<line class="st14" x1="443.76" y1="186.43" x2="443.76" y2="1177.28"/>
	<g>
		<g>
			<path class="st12" d="M521.78,238.34H365.75c-8.05,0-14.57-6.53-14.57-14.57v-62.59c0-8.05,6.53-14.57,14.57-14.57h156.03
				c8.05,0,14.57,6.53,14.57,14.57v62.59C536.35,231.81,529.83,238.34,521.78,238.34z"/>
			<g>
				<path class="st3" d="M396.12,181.6h4.71l8.92,15.32V181.6h3.59v21.19h-4.09l-9.54-16.24v16.24h-3.59V181.6z"/>
				<path class="st3" d="M416.71,195.2v-0.24c0-4.8,3.41-8,7.97-8c4.53,0,7.94,3.17,7.94,7.91v0.24c0,4.83-3.41,7.97-7.97,7.97
					S416.71,199.91,416.71,195.2z M428.95,195.14v-0.21c0-3.2-1.6-5.16-4.27-5.16s-4.3,1.93-4.3,5.13v0.24
					c0,3.17,1.57,5.16,4.3,5.16C427.35,200.3,428.95,198.31,428.95,195.14z"/>
				<path class="st3" d="M433.66,187.29h3.85l4.06,11.82l4-11.82h3.53l-5.6,15.5h-4.18L433.66,187.29z"/>
				<path class="st3" d="M457.75,187.76l3.7-6.52l2.1,0.92l-2.55,6.87L457.75,187.76z"/>
				<path class="st3" d="M464.74,202.07l8-8.45c2.02-2.13,3.23-4,3.23-6.02c0-1.99-1.13-3.23-3.17-3.23c-2.1,0-3.44,1.21-3.79,4.21
					h-3.62c0.27-4.62,3.05-7.29,7.53-7.29c4.39,0,6.99,2.52,6.99,6.25c0,2.76-1.63,5.16-4.15,7.59l-4.71,4.59h9.01v3.05h-15.32
					V202.07z"/>
				<path class="st3" d="M486.84,185.51l-4.47,3.05v-3.47l4.92-3.5h3.53v21.19h-3.97V185.51z"/>
			</g>
		</g>
		<g>
			<path class="st13" d="M521.78,377.55H365.75c-8.05,0-14.57-6.53-14.57-14.57v-62.59c0-8.05,6.53-14.57,14.57-14.57h156.03
				c8.05,0,14.57,6.53,14.57,14.57v62.59C536.35,371.02,529.83,377.55,521.78,377.55z"/>
			<g>
				<path class="st3" d="M396.4,320.81h6.43c7.38,0,10.96,4.21,10.96,10.37v0.27c0,6.16-3.58,10.55-11.02,10.55h-6.37V320.81z
					 M402.66,338.89c4.74,0,7.02-2.73,7.02-7.41v-0.24c0-4.56-2.07-7.32-7.05-7.32h-2.28v14.96H402.66z"/>
				<path class="st3" d="M416.22,334.41v-0.24c0-4.8,3.29-8,7.71-8c3.85,0,7.32,2.28,7.32,7.82v1.04H419.9
					c0.12,2.93,1.6,4.59,4.27,4.59c2.16,0,3.29-0.86,3.56-2.37h3.47c-0.5,3.26-3.14,5.04-7.11,5.04
					C419.51,342.29,416.22,339.3,416.22,334.41z M427.69,332.63c-0.18-2.67-1.54-3.85-3.76-3.85c-2.16,0-3.62,1.45-3.97,3.85H427.69
					z"/>
				<path class="st3" d="M433.41,334.44v-0.24c0-4.92,3.5-8.03,7.82-8.03c3.44,0,6.67,1.54,7.08,5.81h-3.47
					c-0.3-2.07-1.66-2.93-3.56-2.93c-2.46,0-4.21,1.9-4.21,5.1v0.24c0,3.38,1.66,5.16,4.3,5.16c1.9,0,3.53-1.13,3.73-3.32h3.29
					c-0.27,3.56-2.96,6.07-7.17,6.07C436.79,342.29,433.41,339.39,433.41,334.44z"/>
				<path class="st3" d="M457.47,326.97l3.7-6.52l2.1,0.92l-2.55,6.87L457.47,326.97z"/>
				<path class="st3" d="M464.46,341.29l8-8.45c2.02-2.13,3.23-4,3.23-6.02c0-1.99-1.13-3.23-3.17-3.23c-2.1,0-3.44,1.21-3.79,4.21
					h-3.62c0.27-4.62,3.05-7.29,7.53-7.29c4.39,0,6.99,2.52,6.99,6.25c0,2.76-1.63,5.16-4.15,7.59l-4.71,4.59h9.01V342h-15.32
					V341.29z"/>
				<path class="st3" d="M486.56,324.72l-4.47,3.05v-3.47l4.92-3.5h3.53V342h-3.97V324.72z"/>
			</g>
		</g>
		<g>
			<path class="st12" d="M521.78,516.76H365.75c-8.05,0-14.57-6.53-14.57-14.57V439.6c0-8.05,6.53-14.57,14.57-14.57h156.03
				c8.05,0,14.57,6.53,14.57,14.57v62.59C536.35,510.24,529.83,516.76,521.78,516.76z"/>
			<g>
				<path class="st3" d="M396.58,480.86v-3.08c0.74,0.3,1.48,0.53,2.73,0.53c1.93,0,3.17-1.01,3.17-3.62v-14.67h3.97v14.76
					c0,4.59-2.64,6.7-6.55,6.7C398.15,481.48,397.26,481.21,396.58,480.86z"/>
				<path class="st3" d="M409.5,476.91c0-3.62,3.5-4.92,7.94-4.92h1.93v-0.8c0-2.07-0.71-3.11-2.81-3.11
					c-1.87,0-2.79,0.89-2.96,2.43h-3.47c0.3-3.62,3.17-5.13,6.64-5.13s6.19,1.42,6.19,5.66v10.16h-3.53v-1.9
					c-1.01,1.33-2.37,2.19-4.74,2.19C411.84,481.51,409.5,480.14,409.5,476.91z M419.37,475.79v-1.54h-1.84
					c-2.73,0-4.47,0.62-4.47,2.52c0,1.3,0.71,2.16,2.49,2.16C417.74,478.93,419.37,477.77,419.37,475.79z"/>
				<path class="st3" d="M427.07,465.71h3.59v2.46c0.74-1.51,2.46-2.79,5.01-2.79c3.11,0,5.3,1.81,5.3,6.08v9.75h-3.58v-9.42
					c0-2.34-0.95-3.41-3.08-3.41c-2.02,0-3.64,1.25-3.64,3.7v9.13h-3.59V465.71z"/>
				<path class="st3" d="M451.07,466.19l3.71-6.52l2.1,0.92l-2.55,6.87L451.07,466.19z"/>
				<path class="st3" d="M458.06,480.5l8-8.45c2.01-2.13,3.23-4,3.23-6.02c0-1.99-1.13-3.23-3.17-3.23c-2.1,0-3.44,1.21-3.79,4.21
					h-3.62c0.27-4.62,3.05-7.29,7.53-7.29c4.38,0,6.99,2.52,6.99,6.25c0,2.76-1.63,5.16-4.15,7.59l-4.71,4.59h9.01v3.05h-15.32
					V480.5z"/>
				<path class="st3" d="M475.33,480.5l8-8.45c2.01-2.13,3.23-4,3.23-6.02c0-1.99-1.13-3.23-3.17-3.23c-2.1,0-3.44,1.21-3.79,4.21
					h-3.62c0.27-4.62,3.05-7.29,7.53-7.29c4.38,0,6.99,2.52,6.99,6.25c0,2.76-1.63,5.16-4.15,7.59l-4.71,4.59h9.01v3.05h-15.32
					V480.5z"/>
			</g>
		</g>
		<g>
			<path class="st13" d="M521.78,655.98H365.75c-8.05,0-14.57-6.53-14.57-14.57v-62.59c0-8.05,6.53-14.57,14.57-14.57h156.03
				c8.05,0,14.57,6.53,14.57,14.57v62.59C536.35,649.45,529.83,655.98,521.78,655.98z"/>
			<g>
				<path class="st3" d="M395.78,599.24h13.13v3.14h-9.19v6.31h7.23v3.05h-7.23v8.68h-3.94V599.24z"/>
				<path class="st3" d="M410.27,612.84v-0.24c0-4.8,3.29-8,7.71-8c3.85,0,7.32,2.28,7.32,7.82v1.04h-11.35
					c0.12,2.93,1.6,4.59,4.27,4.59c2.16,0,3.29-0.86,3.56-2.37h3.47c-0.5,3.26-3.14,5.04-7.11,5.04
					C413.56,620.72,410.27,617.73,410.27,612.84z M421.74,611.06c-0.18-2.67-1.54-3.85-3.76-3.85c-2.16,0-3.62,1.45-3.97,3.85
					H421.74z"/>
				<path class="st3" d="M432.08,617.94v2.49h-3.59v-22.67h3.59v9.66c0.86-1.48,2.79-2.82,5.07-2.82c3.88,0,6.88,2.88,6.88,7.88
					v0.24c0,4.98-2.88,8-6.88,8C434.69,620.72,432.91,619.51,432.08,617.94z M440.35,612.78v-0.24c0-3.44-1.78-5.13-4.12-5.13
					c-2.49,0-4.27,1.69-4.27,5.13v0.24c0,3.47,1.69,5.1,4.3,5.1C438.89,617.88,440.35,616.1,440.35,612.78z"/>
				<path class="st3" d="M453.23,605.4l3.7-6.52l2.1,0.92l-2.55,6.87L453.23,605.4z"/>
				<path class="st3" d="M460.22,619.71l8-8.45c2.02-2.13,3.23-4,3.23-6.02c0-1.99-1.13-3.23-3.17-3.23c-2.1,0-3.44,1.21-3.79,4.21
					h-3.62c0.27-4.62,3.05-7.29,7.53-7.29c4.39,0,6.99,2.52,6.99,6.25c0,2.76-1.63,5.16-4.15,7.59l-4.71,4.59h9.01v3.05h-15.32
					V619.71z"/>
				<path class="st3" d="M477.5,619.71l8-8.45c2.02-2.13,3.23-4,3.23-6.02c0-1.99-1.13-3.23-3.17-3.23c-2.1,0-3.44,1.21-3.79,4.21
					h-3.62c0.27-4.62,3.05-7.29,7.53-7.29c4.39,0,6.99,2.52,6.99,6.25c0,2.76-1.63,5.16-4.15,7.59l-4.71,4.59h9.01v3.05H477.5
					V619.71z"/>
			</g>
		</g>
		<g>
			<path class="st12" d="M521.78,795.19H365.75c-8.05,0-14.57-6.53-14.57-14.57v-62.59c0-8.05,6.53-14.57,14.57-14.57h156.03
				c8.05,0,14.57,6.53,14.57,14.57v62.59C536.35,788.66,529.83,795.19,521.78,795.19z"/>
			<g>
				<path class="st3" d="M394.45,738.45h5.27l5.57,14.46l5.45-14.46h5.22v21.19h-3.94v-16l-6.31,16h-1.27l-6.43-16v16h-3.56V738.45z
					"/>
				<path class="st3" d="M419.25,755.34c0-3.62,3.5-4.92,7.94-4.92h1.93v-0.8c0-2.07-0.71-3.11-2.82-3.11
					c-1.87,0-2.79,0.89-2.96,2.43h-3.47c0.3-3.62,3.17-5.13,6.64-5.13s6.19,1.42,6.19,5.66v10.16h-3.53v-1.9
					c-1.01,1.33-2.37,2.19-4.74,2.19C421.59,759.93,419.25,758.57,419.25,755.34z M429.12,754.22v-1.54h-1.84
					c-2.73,0-4.47,0.62-4.47,2.52c0,1.3,0.71,2.16,2.49,2.16C427.49,757.36,429.12,756.2,429.12,754.22z"/>
				<path class="st3" d="M436.82,744.14h3.58v2.9c0.98-1.96,2.43-3.11,5.04-3.14v3.35c-3.14,0.03-5.04,1.04-5.04,4.33v8.06h-3.58
					V744.14z"/>
				<path class="st3" d="M454.57,744.61l3.7-6.52l2.1,0.92l-2.55,6.87L454.57,744.61z"/>
				<path class="st3" d="M461.56,758.93l8-8.45c2.01-2.13,3.23-4,3.23-6.02c0-1.99-1.13-3.23-3.17-3.23c-2.1,0-3.44,1.21-3.79,4.21
					h-3.62c0.27-4.62,3.05-7.29,7.53-7.29c4.39,0,6.99,2.52,6.99,6.25c0,2.76-1.63,5.16-4.15,7.59l-4.71,4.59h9.01v3.05h-15.32
					V758.93z"/>
				<path class="st3" d="M478.83,758.93l8-8.45c2.01-2.13,3.23-4,3.23-6.02c0-1.99-1.13-3.23-3.17-3.23c-2.1,0-3.44,1.21-3.79,4.21
					h-3.62c0.27-4.62,3.05-7.29,7.53-7.29c4.39,0,6.99,2.52,6.99,6.25c0,2.76-1.63,5.16-4.15,7.59l-4.71,4.59h9.01v3.05h-15.32
					V758.93z"/>
			</g>
		</g>
		<g>
			<path class="st13" d="M521.78,934.4H365.75c-8.05,0-14.57-6.53-14.57-14.57v-62.59c0-8.05,6.53-14.57,14.57-14.57h156.03
				c8.05,0,14.57,6.53,14.57,14.57v62.59C536.35,927.88,529.83,934.4,521.78,934.4z"/>
			<g>
				<path class="st3" d="M401.44,877.66h5.16l6.99,21.19h-4.09l-1.69-5.25h-8.09l-1.66,5.25h-3.71L401.44,877.66z M400.64,890.73
					h6.25l-3.11-9.84L400.64,890.73z"/>
				<path class="st3" d="M416.52,883.35h3.58v2.49c0.86-1.48,2.79-2.82,5.07-2.82c3.88,0,6.88,2.88,6.88,7.88v0.24
					c0,4.98-2.88,8-6.88,8c-2.46,0-4.24-1.21-5.07-2.73v7.73h-3.58V883.35z M428.37,891.21v-0.24c0-3.44-1.78-5.13-4.12-5.13
					c-2.49,0-4.27,1.69-4.27,5.13v0.24c0,3.47,1.69,5.1,4.3,5.1C426.92,896.3,428.37,894.53,428.37,891.21z"/>
				<path class="st3" d="M435.28,883.35h3.59v2.9c0.98-1.96,2.43-3.11,5.04-3.14v3.35c-3.14,0.03-5.04,1.04-5.04,4.33v8.06h-3.59
					V883.35z"/>
				<path class="st3" d="M453.03,883.83l3.7-6.52l2.11,0.92l-2.55,6.87L453.03,883.83z"/>
				<path class="st3" d="M460.02,898.14l8-8.45c2.01-2.13,3.23-4,3.23-6.02c0-1.99-1.12-3.23-3.17-3.23c-2.1,0-3.44,1.21-3.79,4.21
					h-3.62c0.27-4.62,3.05-7.29,7.53-7.29c4.38,0,6.99,2.52,6.99,6.25c0,2.76-1.63,5.16-4.15,7.59l-4.71,4.59h9.01v3.05h-15.32
					V898.14z"/>
				<path class="st3" d="M477.29,898.14l8-8.45c2.02-2.13,3.23-4,3.23-6.02c0-1.99-1.13-3.23-3.17-3.23c-2.11,0-3.44,1.21-3.79,4.21
					h-3.62c0.27-4.62,3.05-7.29,7.53-7.29c4.39,0,6.99,2.52,6.99,6.25c0,2.76-1.63,5.16-4.15,7.59l-4.71,4.59h9.01v3.05h-15.32
					V898.14z"/>
			</g>
		</g>
		<g>
			<path class="st12" d="M521.78,1073.62H365.75c-8.05,0-14.57-6.53-14.57-14.57v-62.59c0-8.05,6.53-14.57,14.57-14.57h156.03
				c8.05,0,14.57,6.53,14.57,14.57v62.59C536.35,1067.09,529.83,1073.62,521.78,1073.62z"/>
			<g>
				<path class="st3" d="M392.36,1016.88h5.27l5.57,14.46l5.45-14.46h5.22v21.19h-3.94v-16l-6.31,16h-1.27l-6.43-16v16h-3.56
					V1016.88z"/>
				<path class="st3" d="M417.16,1033.77c0-3.62,3.5-4.92,7.94-4.92h1.93v-0.8c0-2.07-0.71-3.11-2.82-3.11
					c-1.87,0-2.79,0.89-2.96,2.43h-3.47c0.3-3.62,3.17-5.13,6.64-5.13s6.19,1.42,6.19,5.66v10.16h-3.53v-1.9
					c-1.01,1.33-2.37,2.19-4.74,2.19C419.5,1038.36,417.16,1037,417.16,1033.77z M427.03,1032.64v-1.54h-1.84
					c-2.73,0-4.47,0.62-4.47,2.52c0,1.3,0.71,2.16,2.49,2.16C425.4,1035.78,427.03,1034.63,427.03,1032.64z"/>
				<path class="st3" d="M438.82,1036.49l-6.13-13.93h3.88l4.12,9.99l3.79-9.99h3.5l-8.45,20.8H436L438.82,1036.49z"/>
				<path class="st3" d="M456.66,1023.04l3.7-6.52l2.1,0.92l-2.55,6.87L456.66,1023.04z"/>
				<path class="st3" d="M463.65,1037.35l8-8.45c2.01-2.13,3.23-4,3.23-6.02c0-1.99-1.13-3.23-3.17-3.23c-2.1,0-3.44,1.21-3.79,4.21
					h-3.62c0.27-4.62,3.05-7.29,7.53-7.29c4.39,0,6.99,2.52,6.99,6.25c0,2.76-1.63,5.16-4.15,7.59l-4.71,4.59h9.01v3.05h-15.32
					V1037.35z"/>
				<path class="st3" d="M480.92,1037.35l8-8.45c2.01-2.13,3.23-4,3.23-6.02c0-1.99-1.13-3.23-3.17-3.23c-2.1,0-3.44,1.21-3.79,4.21
					h-3.62c0.27-4.62,3.05-7.29,7.53-7.29c4.39,0,6.99,2.52,6.99,6.25c0,2.76-1.63,5.16-4.15,7.59l-4.71,4.59h9.01v3.05h-15.32
					V1037.35z"/>
			</g>
		</g>
		<g>
			<path class="st13" d="M521.78,1212.83H365.75c-8.05,0-14.57-6.53-14.57-14.57v-62.59c0-8.05,6.53-14.57,14.57-14.57h156.03
				c8.05,0,14.57,6.53,14.57,14.57v62.59C536.35,1206.3,529.83,1212.83,521.78,1212.83z"/>
			<g>
				<path class="st3" d="M395.77,1176.92v-3.08c0.74,0.3,1.48,0.53,2.73,0.53c1.93,0,3.17-1.01,3.17-3.62v-14.67h3.97v14.76
					c0,4.59-2.64,6.7-6.55,6.7C397.34,1177.55,396.45,1177.28,395.77,1176.92z"/>
				<path class="st3" d="M409.81,1171.71v-9.93h3.59v9.51c0,2.34,0.98,3.41,3.05,3.41c1.93,0,3.62-1.24,3.62-3.7v-9.22h3.59v15.5
					h-3.59v-2.43c-0.77,1.51-2.4,2.73-4.92,2.73C412.09,1177.57,409.81,1175.83,409.81,1171.71z"/>
				<path class="st3" d="M427.89,1161.78h3.58v2.46c0.74-1.51,2.46-2.79,5.01-2.79c3.11,0,5.3,1.81,5.3,6.08v9.75h-3.59v-9.42
					c0-2.34-0.95-3.41-3.08-3.41c-2.02,0-3.65,1.25-3.65,3.7v9.13h-3.58V1161.78z"/>
				<path class="st3" d="M451.89,1162.26l3.7-6.52l2.1,0.92l-2.55,6.87L451.89,1162.26z"/>
				<path class="st3" d="M458.88,1176.57l8-8.45c2.01-2.13,3.23-4,3.23-6.02c0-1.99-1.13-3.23-3.17-3.23c-2.1,0-3.44,1.21-3.79,4.21
					h-3.62c0.27-4.62,3.05-7.29,7.53-7.29c4.39,0,6.99,2.52,6.99,6.25c0,2.76-1.63,5.16-4.15,7.59l-4.71,4.59h9.01v3.05h-15.32
					V1176.57z"/>
				<path class="st3" d="M476.15,1176.57l8-8.45c2.01-2.13,3.23-4,3.23-6.02c0-1.99-1.13-3.23-3.17-3.23c-2.1,0-3.44,1.21-3.79,4.21
					h-3.62c0.27-4.62,3.05-7.29,7.53-7.29c4.39,0,6.99,2.52,6.99,6.25c0,2.76-1.63,5.16-4.15,7.59l-4.71,4.59h9.01v3.05h-15.32
					V1176.57z"/>
			</g>
		</g>
	</g>
	<g>
		<path class="st12" d="M30.32,352.13h4.76v25.42h-4.76V352.13z"/>
		<path class="st12" d="M39.53,368.55v-0.28c0-5.94,3.52-9.71,8.36-9.71c3.02,0,4.91,1.39,5.94,3.24v-11.45h4.3v27.2h-4.3v-3.13
			c-1,1.85-3.38,3.48-6.12,3.48C43.05,377.9,39.53,374.6,39.53,368.55z M53.97,368.34v-0.28c0-4.09-1.88-6.12-5.01-6.12
			c-3.16,0-5.01,2.2-5.01,6.22v0.28c0,4.09,2.06,6.04,4.83,6.04C51.76,374.49,53.97,372.5,53.97,368.34z"/>
		<path class="st12" d="M62,368.45v-0.28c0-5.76,3.95-9.6,9.24-9.6c4.62,0,8.78,2.74,8.78,9.39v1.25H66.41
			c0.14,3.52,1.92,5.51,5.12,5.51c2.59,0,3.95-1.03,4.27-2.84h4.16c-0.6,3.91-3.77,6.04-8.53,6.04C65.95,377.9,62,374.31,62,368.45z
			 M75.76,366.31c-0.21-3.2-1.85-4.62-4.52-4.62c-2.59,0-4.34,1.74-4.76,4.62H75.76z"/>
		<path class="st12" d="M82.69,372.39c0-4.34,4.2-5.9,9.53-5.9h2.31v-0.96c0-2.49-0.85-3.73-3.38-3.73c-2.24,0-3.34,1.07-3.56,2.92
			h-4.16c0.36-4.34,3.8-6.15,7.96-6.15c4.16,0,7.43,1.71,7.43,6.79v12.19H94.6v-2.28c-1.21,1.6-2.84,2.63-5.69,2.63
			C85.5,377.9,82.69,376.27,82.69,372.39z M94.53,371.04v-1.85h-2.2c-3.27,0-5.37,0.75-5.37,3.02c0,1.56,0.85,2.6,2.99,2.6
			C92.58,374.81,94.53,373.43,94.53,371.04z"/>
		<path class="st12" d="M28.62,419.9h4.55c0.32,2.56,1.35,4.69,5.65,4.69c2.81,0,4.8-1.56,4.8-3.91s-1.17-3.24-5.3-3.91
			c-6.08-0.82-8.96-2.67-8.96-7.43c0-4.16,3.55-7.29,8.85-7.29c5.47,0,8.75,2.49,9.24,7.36h-4.34c-0.46-2.67-1.99-3.8-4.91-3.8
			c-2.88,0-4.37,1.39-4.37,3.34c0,2.06,0.85,3.09,5.26,3.73c5.97,0.82,9.07,2.52,9.07,7.61c0,4.41-3.73,7.86-9.35,7.86
			C31.89,428.15,28.97,424.7,28.62,419.9z"/>
		<path class="st12" d="M52.05,421.11V409.2h4.3v11.41c0,2.81,1.17,4.09,3.66,4.09c2.31,0,4.34-1.49,4.34-4.44V409.2h4.3v18.59h-4.3
			v-2.92c-0.92,1.81-2.88,3.27-5.9,3.27C54.79,428.15,52.05,426.05,52.05,421.11z"/>
		<path class="st12" d="M78.04,424.81v2.99h-4.3v-27.2h4.3v11.59c1.03-1.78,3.34-3.38,6.08-3.38c4.66,0,8.25,3.45,8.25,9.46v0.28
			c0,5.97-3.45,9.6-8.25,9.6C81.17,428.15,79.03,426.69,78.04,424.81z M87.96,418.62v-0.28c0-4.12-2.13-6.15-4.94-6.15
			c-2.99,0-5.12,2.03-5.12,6.15v0.28c0,4.16,2.03,6.12,5.15,6.12C86.22,424.74,87.96,422.6,87.96,418.62z"/>
		<path class="st12" d="M96.24,409.2h4.3v2.84c0.89-1.74,2.92-3.24,5.65-3.24c2.42,0,4.34,1.03,5.26,3.34
			c1.42-2.31,3.98-3.34,6.29-3.34c3.41,0,6.19,2.1,6.19,7.22v11.77h-4.3v-11.48c0-2.74-1.17-3.91-3.31-3.91
			c-2.13,0-4.09,1.42-4.09,4.27v11.13h-4.3v-11.48c0-2.74-1.21-3.91-3.31-3.91c-2.13,0-4.09,1.42-4.09,4.27v11.13h-4.3V409.2z"/>
		<path class="st12" d="M128.53,403.69c0-1.42,1.14-2.49,2.56-2.49c1.42,0,2.56,1.07,2.56,2.49c0,1.39-1.14,2.45-2.56,2.45
			C129.66,406.14,128.53,405.07,128.53,403.69z M128.99,409.2h4.3v18.59h-4.3V409.2z"/>
		<path class="st12" d="M137.09,422h4.05c0.21,1.88,1.17,2.99,3.7,2.99c2.31,0,3.34-0.82,3.34-2.38c0-1.53-1.25-2.1-3.98-2.56
			c-4.91-0.78-6.72-2.17-6.72-5.65c0-3.73,3.48-5.58,6.97-5.58c3.8,0,6.83,1.42,7.29,5.62h-3.98c-0.36-1.71-1.32-2.49-3.31-2.49
			c-1.85,0-2.95,0.89-2.95,2.2c0,1.35,0.89,1.88,3.84,2.38c4.37,0.68,6.97,1.74,6.97,5.69c0,3.77-2.67,5.94-7.43,5.94
			C140.08,428.15,137.27,425.94,137.09,422z"/>
		<path class="st12" d="M154.66,422h4.05c0.21,1.88,1.17,2.99,3.7,2.99c2.31,0,3.34-0.82,3.34-2.38c0-1.53-1.25-2.1-3.98-2.56
			c-4.91-0.78-6.72-2.17-6.72-5.65c0-3.73,3.48-5.58,6.97-5.58c3.8,0,6.83,1.42,7.29,5.62h-3.98c-0.36-1.71-1.32-2.49-3.31-2.49
			c-1.85,0-2.95,0.89-2.95,2.2c0,1.35,0.89,1.88,3.84,2.38c4.37,0.68,6.97,1.74,6.97,5.69c0,3.77-2.67,5.94-7.43,5.94
			C157.64,428.15,154.84,425.94,154.66,422z"/>
		<path class="st12" d="M173.29,403.69c0-1.42,1.14-2.49,2.56-2.49s2.56,1.07,2.56,2.49c0,1.39-1.14,2.45-2.56,2.45
			S173.29,405.07,173.29,403.69z M173.75,409.2h4.3v18.59h-4.3V409.2z"/>
		<path class="st12" d="M182.03,418.69v-0.28c0-5.76,4.09-9.6,9.56-9.6c5.44,0,9.53,3.8,9.53,9.49v0.28c0,5.79-4.09,9.56-9.56,9.56
			C186.09,428.15,182.03,424.35,182.03,418.69z M196.72,418.62v-0.25c0-3.84-1.92-6.19-5.12-6.19c-3.2,0-5.16,2.31-5.16,6.15v0.28
			c0,3.8,1.88,6.19,5.16,6.19C194.8,424.81,196.72,422.43,196.72,418.62z"/>
		<path class="st12" d="M205,409.2h4.3v2.95c0.89-1.81,2.95-3.34,6.01-3.34c3.73,0,6.36,2.17,6.36,7.29v11.7h-4.3v-11.31
			c0-2.81-1.14-4.09-3.7-4.09c-2.42,0-4.37,1.49-4.37,4.44v10.95H205V409.2z"/>
	</g>
	<path id="Path_1004_00000116227693135751010010000010715367984873786292_" class="st14" d="M351.43,192.47l-97.17,0l0,417.64h97.17
		"/>
	<path id="Path_1004_00000104685521396703027390000008820043260833868721_" class="st14" d="M351.18,888.53h-97.17l0,139.21h97.17"
		/>
	<line class="st14" x1="536.1" y1="749.32" x2="633.27" y2="749.32"/>
	<line class="st14" x1="536.1" y1="1166.96" x2="633.27" y2="1166.96"/>
	<g>
		<path class="st12" d="M668.36,751.75h4.55c0.32,2.56,1.35,4.69,5.65,4.69c2.81,0,4.8-1.56,4.8-3.91s-1.17-3.24-5.3-3.91
			c-6.08-0.82-8.96-2.67-8.96-7.43c0-4.16,3.55-7.29,8.85-7.29c5.48,0,8.75,2.49,9.24,7.36h-4.34c-0.46-2.67-1.99-3.8-4.91-3.8
			c-2.88,0-4.37,1.39-4.37,3.34c0,2.06,0.85,3.09,5.26,3.73c5.97,0.82,9.07,2.52,9.07,7.61c0,4.41-3.73,7.86-9.35,7.86
			C671.63,759.99,668.71,756.55,668.36,751.75z"/>
		<path class="st12" d="M692.14,732.44h4.3v11.55c0.89-1.81,2.95-3.34,6.01-3.34c3.73,0,6.36,2.17,6.36,7.29v11.7h-4.3v-11.31
			c0-2.81-1.14-4.09-3.7-4.09c-2.42,0-4.37,1.49-4.37,4.44v10.95h-4.3V732.44z"/>
		<path class="st12" d="M712.52,750.54v-0.28c0-5.76,4.09-9.6,9.56-9.6c5.44,0,9.53,3.8,9.53,9.49v0.28c0,5.79-4.09,9.56-9.56,9.56
			C716.57,759.99,712.52,756.19,712.52,750.54z M727.2,750.47v-0.25c0-3.84-1.92-6.19-5.12-6.19s-5.16,2.31-5.16,6.15v0.28
			c0,3.8,1.88,6.19,5.16,6.19C725.28,756.65,727.2,754.27,727.2,750.47z"/>
		<path class="st12" d="M735.48,741.04h4.3v3.48c1.17-2.35,2.92-3.73,6.04-3.77v4.02c-3.77,0.04-6.04,1.24-6.04,5.19v9.67h-4.3
			V741.04z"/>
		<path class="st12" d="M750.49,754.45v-10.17H748v-3.23h2.49v-4.09h4.3v4.09h4.09v3.23h-4.09v9.78c0,1.64,0.78,2.38,2.13,2.38
			c0.85,0,1.49-0.11,2.1-0.36v3.41c-0.68,0.25-1.6,0.46-2.91,0.46C752.41,759.96,750.49,757.97,750.49,754.45z"/>
		<path class="st12" d="M763,732.44h4.3v27.2H763V732.44z"/>
		<path class="st12" d="M772.17,735.53c0-1.42,1.14-2.49,2.56-2.49s2.56,1.07,2.56,2.49c0,1.39-1.14,2.45-2.56,2.45
			S772.17,736.92,772.17,735.53z M772.64,741.04h4.3v18.59h-4.3V741.04z"/>
		<path class="st12" d="M780.74,753.84h4.05c0.21,1.88,1.17,2.99,3.7,2.99c2.31,0,3.34-0.82,3.34-2.38c0-1.53-1.24-2.1-3.98-2.56
			c-4.91-0.78-6.72-2.17-6.72-5.65c0-3.73,3.48-5.58,6.97-5.58c3.8,0,6.83,1.42,7.29,5.62h-3.98c-0.36-1.71-1.31-2.49-3.31-2.49
			c-1.85,0-2.95,0.89-2.95,2.2c0,1.35,0.89,1.88,3.84,2.38c4.37,0.68,6.97,1.74,6.97,5.69c0,3.77-2.67,5.94-7.43,5.94
			C783.73,759.99,780.92,757.79,780.74,753.84z"/>
		<path class="st12" d="M800.44,754.45v-10.17h-2.49v-3.23h2.49v-4.09h4.3v4.09h4.09v3.23h-4.09v9.78c0,1.64,0.78,2.38,2.13,2.38
			c0.85,0,1.49-0.11,2.1-0.36v3.41c-0.68,0.25-1.6,0.46-2.92,0.46C802.36,759.96,800.44,757.97,800.44,754.45z"/>
	</g>
	<g>
		<path class="st12" d="M29.97,885.51h4.55c0.32,2.56,1.35,4.69,5.65,4.69c2.81,0,4.8-1.56,4.8-3.91s-1.17-3.24-5.3-3.91
			c-6.08-0.82-8.96-2.67-8.96-7.43c0-4.16,3.56-7.29,8.85-7.29c5.48,0,8.75,2.49,9.24,7.36h-4.34c-0.46-2.67-1.99-3.8-4.91-3.8
			c-2.88,0-4.37,1.39-4.37,3.34c0,2.06,0.85,3.09,5.26,3.73c5.97,0.82,9.07,2.52,9.07,7.61c0,4.41-3.73,7.86-9.35,7.86
			C33.24,893.76,30.32,890.31,29.97,885.51z"/>
		<path class="st12" d="M52.51,884.3v-0.28c0-5.76,4.09-9.6,9.56-9.6c5.44,0,9.53,3.8,9.53,9.49v0.28c0,5.79-4.09,9.56-9.56,9.56
			C56.56,893.76,52.51,889.95,52.51,884.3z M67.19,884.23v-0.25c0-3.84-1.92-6.19-5.12-6.19c-3.2,0-5.16,2.31-5.16,6.15v0.28
			c0,3.8,1.88,6.19,5.16,6.19C65.27,890.42,67.19,888.03,67.19,884.23z"/>
		<path class="st12" d="M74.23,884.34v-0.28c0-5.9,4.2-9.63,9.39-9.63c4.12,0,8,1.85,8.5,6.97h-4.16c-0.36-2.49-1.99-3.52-4.27-3.52
			c-2.95,0-5.05,2.28-5.05,6.12v0.29c0,4.05,1.99,6.19,5.16,6.19c2.28,0,4.23-1.35,4.48-3.98h3.95c-0.32,4.27-3.56,7.29-8.6,7.29
			C78.29,893.76,74.23,890.27,74.23,884.34z"/>
		<path class="st12" d="M95.57,869.3c0-1.42,1.14-2.49,2.56-2.49c1.42,0,2.56,1.07,2.56,2.49c0,1.39-1.14,2.45-2.56,2.45
			C96.7,871.75,95.57,870.68,95.57,869.3z M96.03,874.81h4.3v18.59h-4.3V874.81z"/>
		<path class="st12" d="M104.21,888.25c0-4.34,4.2-5.9,9.53-5.9h2.31v-0.96c0-2.49-0.85-3.73-3.38-3.73c-2.24,0-3.34,1.07-3.56,2.92
			h-4.16c0.36-4.34,3.8-6.15,7.96-6.15c4.16,0,7.43,1.71,7.43,6.79v12.19h-4.23v-2.28c-1.21,1.6-2.84,2.63-5.69,2.63
			C107.01,893.76,104.21,892.12,104.21,888.25z M116.04,886.9v-1.85h-2.2c-3.27,0-5.37,0.75-5.37,3.02c0,1.56,0.85,2.6,2.99,2.6
			C114.09,890.67,116.04,889.28,116.04,886.9z"/>
		<path class="st12" d="M125.4,866.2h4.3v27.2h-4.3V866.2z"/>
		<path class="st12" d="M31.53,918.23h9.1c5.23,0,8.32,1.99,8.32,6.61v0.14c0,2.52-1.14,4.51-4.02,5.4
			c3.45,0.75,5.08,2.63,5.08,6.01v0.14c0,4.73-3.13,7.11-8.71,7.11h-9.78V918.23z M40.07,928.93c3.13,0,4.34-1.14,4.34-3.73v-0.14
			c0-2.42-1.39-3.45-4.41-3.45h-3.84v7.32H40.07z M40.74,940.27c3.16,0,4.62-1.42,4.62-4.05v-0.14c0-2.63-1.46-3.95-4.94-3.95h-4.27
			v8.14H40.74z"/>
		<path class="st12" d="M53.93,936.96v-11.91h4.3v11.41c0,2.81,1.17,4.09,3.66,4.09c2.31,0,4.34-1.49,4.34-4.44v-11.06h4.3v18.59
			h-4.3v-2.92c-0.92,1.81-2.88,3.27-5.9,3.27C56.67,944,53.93,941.9,53.93,936.96z"/>
		<path class="st12" d="M74.2,937.85h4.05c0.21,1.88,1.17,2.99,3.7,2.99c2.31,0,3.34-0.82,3.34-2.38c0-1.53-1.24-2.1-3.98-2.56
			c-4.91-0.78-6.72-2.17-6.72-5.65c0-3.73,3.48-5.58,6.97-5.58c3.8,0,6.83,1.42,7.29,5.62h-3.98c-0.36-1.71-1.32-2.49-3.31-2.49
			c-1.85,0-2.95,0.89-2.95,2.2c0,1.35,0.89,1.88,3.84,2.38c4.37,0.68,6.97,1.74,6.97,5.69c0,3.77-2.67,5.94-7.43,5.94
			C77.19,944,74.38,941.8,74.2,937.85z"/>
		<path class="st12" d="M92.83,919.54c0-1.42,1.14-2.49,2.56-2.49c1.42,0,2.56,1.07,2.56,2.49c0,1.39-1.14,2.45-2.56,2.45
			C93.97,922,92.83,920.93,92.83,919.54z M93.29,925.05h4.3v18.59h-4.3V925.05z"/>
		<path class="st12" d="M102.82,925.05h4.3V928c0.89-1.81,2.95-3.34,6.01-3.34c3.73,0,6.36,2.17,6.36,7.29v11.7h-4.3v-11.31
			c0-2.81-1.14-4.09-3.7-4.09c-2.42,0-4.37,1.49-4.37,4.44v10.95h-4.3V925.05z"/>
		<path class="st12" d="M123.19,934.55v-0.28c0-5.76,3.95-9.6,9.24-9.6c4.62,0,8.78,2.74,8.78,9.39v1.25H127.6
			c0.14,3.52,1.92,5.51,5.12,5.51c2.6,0,3.95-1.03,4.27-2.84h4.16c-0.6,3.91-3.77,6.04-8.53,6.04
			C127.14,944,123.19,940.41,123.19,934.55z M136.95,932.41c-0.21-3.2-1.85-4.62-4.51-4.62c-2.6,0-4.34,1.74-4.76,4.62H136.95z"/>
		<path class="st12" d="M143.81,937.85h4.05c0.21,1.88,1.17,2.99,3.7,2.99c2.31,0,3.34-0.82,3.34-2.38c0-1.53-1.24-2.1-3.98-2.56
			c-4.91-0.78-6.72-2.17-6.72-5.65c0-3.73,3.48-5.58,6.97-5.58c3.8,0,6.83,1.42,7.29,5.62h-3.98c-0.36-1.71-1.32-2.49-3.31-2.49
			c-1.85,0-2.95,0.89-2.95,2.2c0,1.35,0.89,1.88,3.84,2.38c4.37,0.68,6.97,1.74,6.97,5.69c0,3.77-2.67,5.94-7.43,5.94
			C146.8,944,143.99,941.8,143.81,937.85z"/>
		<path class="st12" d="M161.38,937.85h4.05c0.21,1.88,1.17,2.99,3.7,2.99c2.31,0,3.34-0.82,3.34-2.38c0-1.53-1.24-2.1-3.98-2.56
			c-4.91-0.78-6.72-2.17-6.72-5.65c0-3.73,3.48-5.58,6.97-5.58c3.8,0,6.83,1.42,7.29,5.62h-3.98c-0.36-1.71-1.32-2.49-3.31-2.49
			c-1.85,0-2.95,0.89-2.95,2.2c0,1.35,0.89,1.88,3.84,2.38c4.37,0.68,6.97,1.74,6.97,5.69c0,3.77-2.67,5.94-7.43,5.94
			C164.36,944,161.55,941.8,161.38,937.85z"/>
		<path class="st12" d="M31.53,968.47h6.33l6.68,17.35l6.54-17.35h6.26v25.42h-4.73v-19.2l-7.57,19.2h-1.53l-7.71-19.2v19.2h-4.27
			V968.47z"/>
		<path class="st12" d="M61.4,984.79v-0.28c0-5.76,4.09-9.6,9.56-9.6c5.44,0,9.53,3.8,9.53,9.49v0.28c0,5.79-4.09,9.56-9.56,9.56
			C65.45,994.25,61.4,990.44,61.4,984.79z M76.08,984.72v-0.25c0-3.84-1.92-6.19-5.12-6.19c-3.2,0-5.16,2.31-5.16,6.15v0.28
			c0,3.8,1.88,6.19,5.16,6.19C74.16,990.9,76.08,988.52,76.08,984.72z"/>
		<path class="st12" d="M83.16,984.9v-0.28c0-5.94,3.52-9.71,8.36-9.71c3.02,0,4.91,1.39,5.94,3.24v-11.45h4.3v27.2h-4.3v-3.13
			c-1,1.85-3.38,3.48-6.12,3.48C86.68,994.25,83.16,990.94,83.16,984.9z M97.59,984.68v-0.28c0-4.09-1.88-6.12-5.01-6.12
			c-3.16,0-5.01,2.2-5.01,6.22v0.28c0,4.09,2.06,6.04,4.83,6.04C95.39,990.83,97.59,988.84,97.59,984.68z"/>
		<path class="st12" d="M105.63,984.79v-0.28c0-5.76,3.95-9.6,9.24-9.6c4.62,0,8.78,2.74,8.78,9.39v1.25h-13.62
			c0.14,3.52,1.92,5.51,5.12,5.51c2.6,0,3.95-1.03,4.27-2.84h4.16c-0.6,3.91-3.77,6.04-8.53,6.04
			C109.58,994.25,105.63,990.66,105.63,984.79z M119.39,982.66c-0.21-3.2-1.85-4.62-4.51-4.62c-2.6,0-4.34,1.74-4.76,4.62H119.39z"
			/>
		<path class="st12" d="M127.6,966.69h4.3v27.2h-4.3V966.69z"/>
		<path class="st12" d="M137.24,966.69h4.3v27.2h-4.3V966.69z"/>
		<path class="st12" d="M146.41,969.79c0-1.42,1.14-2.49,2.56-2.49c1.42,0,2.56,1.07,2.56,2.49c0,1.39-1.14,2.45-2.56,2.45
			C147.55,972.24,146.41,971.17,146.41,969.79z M146.87,975.3h4.3v18.59h-4.3V975.3z"/>
		<path class="st12" d="M156.4,975.3h4.3v2.95c0.89-1.81,2.95-3.34,6.01-3.34c3.73,0,6.36,2.17,6.36,7.29v11.7h-4.3v-11.31
			c0-2.81-1.14-4.09-3.7-4.09c-2.42,0-4.37,1.49-4.37,4.44v10.95h-4.3V975.3z"/>
		<path class="st12" d="M176.98,994.53h4.34c0.36,1.85,1.78,2.92,4.59,2.92c3.34,0,5.19-1.67,5.19-5.01v-2.74
			c-1.03,1.78-3.34,3.45-6.08,3.45c-4.66,0-8.25-3.48-8.25-8.85v-0.25c0-5.23,3.56-9.14,8.35-9.14c3.06,0,4.91,1.39,5.97,3.24v-2.84
			h4.3v17.21c-0.04,5.48-3.7,8.21-9.46,8.21C180.11,1000.72,177.48,998.09,176.98,994.53z M191.24,984.15v-0.25
			c0-3.52-1.92-5.62-5.01-5.62c-3.2,0-5.05,2.31-5.05,5.69v0.28c0,3.45,2.13,5.58,4.91,5.58
			C189.07,989.84,191.24,987.7,191.24,984.15z"/>
		<path class="st12" d="M48.81,1038.94l4.27,5.19h-5.44l-2.13-2.6c-1.6,1.64-3.7,2.92-6.97,2.92c-4.94,0-8.35-2.81-8.35-7.25
			c0-3.73,2.31-5.9,5.72-7.54c-1.35-1.78-1.99-3.48-1.99-5.01c0-4.02,3.31-6.15,7-6.15c3.48,0,6.4,2.1,6.4,5.51
			c0,2.95-1.99,5.05-5.3,6.47l4.48,5.48l2.6-4.98h3.88L48.81,1038.94z M43.3,1038.8l-5.4-6.58c-1.88,0.96-3.24,2.13-3.24,4.51
			c0,2.56,1.6,4.16,4.37,4.16C40.67,1040.9,42.13,1040.19,43.3,1038.8z M40.03,1028.42c2.38-1.1,3.38-2.24,3.38-4.23
			c0-1.46-1-2.52-2.49-2.52c-1.56,0-2.81,1-2.81,3.02C38.11,1025.86,38.82,1026.96,40.03,1028.42z"/>
		<path class="st12" d="M63.89,1036.24h4.55c0.32,2.56,1.35,4.69,5.65,4.69c2.81,0,4.8-1.56,4.8-3.91s-1.17-3.24-5.3-3.91
			c-6.08-0.82-8.96-2.67-8.96-7.43c0-4.16,3.56-7.29,8.85-7.29c5.48,0,8.75,2.49,9.24,7.36h-4.34c-0.46-2.67-1.99-3.8-4.91-3.8
			c-2.88,0-4.37,1.39-4.37,3.34c0,2.06,0.85,3.09,5.26,3.73c5.97,0.82,9.07,2.52,9.07,7.61c0,4.41-3.73,7.86-9.35,7.86
			C67.16,1044.49,64.24,1041.04,63.89,1036.24z"/>
		<path class="st12" d="M87.67,1016.94h4.3v11.55c0.89-1.81,2.95-3.34,6.01-3.34c3.73,0,6.36,2.17,6.36,7.29v11.7h-4.3v-11.31
			c0-2.81-1.14-4.09-3.7-4.09c-2.42,0-4.37,1.49-4.37,4.44v10.95h-4.3V1016.94z"/>
		<path class="st12" d="M108.05,1035.03v-0.28c0-5.76,4.09-9.6,9.56-9.6c5.44,0,9.53,3.8,9.53,9.49v0.28c0,5.79-4.09,9.56-9.56,9.56
			C112.1,1044.49,108.05,1040.69,108.05,1035.03z M122.73,1034.96v-0.25c0-3.84-1.92-6.19-5.12-6.19c-3.2,0-5.16,2.31-5.16,6.15
			v0.28c0,3.8,1.88,6.19,5.16,6.19C120.81,1041.15,122.73,1038.77,122.73,1034.96z"/>
		<path class="st12" d="M131.01,1025.54h4.3v3.48c1.17-2.35,2.92-3.73,6.04-3.77v4.02c-3.77,0.04-6.04,1.24-6.04,5.19v9.67h-4.3
			V1025.54z"/>
		<path class="st12" d="M146.02,1038.94v-10.17h-2.49v-3.24h2.49v-4.09h4.3v4.09h4.09v3.24h-4.09v9.78c0,1.64,0.78,2.38,2.13,2.38
			c0.85,0,1.49-0.11,2.1-0.36v3.41c-0.68,0.25-1.6,0.46-2.92,0.46C147.94,1044.46,146.02,1042.46,146.02,1038.94z"/>
		<path class="st12" d="M158.53,1016.94h4.3v27.2h-4.3V1016.94z"/>
		<path class="st12" d="M167.7,1020.03c0-1.42,1.14-2.49,2.56-2.49c1.42,0,2.56,1.07,2.56,2.49c0,1.39-1.14,2.45-2.56,2.45
			C168.84,1022.48,167.7,1021.42,167.7,1020.03z M168.17,1025.54h4.3v18.59h-4.3V1025.54z"/>
		<path class="st12" d="M176.27,1038.34h4.05c0.21,1.88,1.17,2.99,3.7,2.99c2.31,0,3.34-0.82,3.34-2.38c0-1.53-1.24-2.1-3.98-2.56
			c-4.91-0.78-6.72-2.17-6.72-5.65c0-3.73,3.48-5.58,6.97-5.58c3.8,0,6.83,1.42,7.29,5.62h-3.98c-0.36-1.71-1.32-2.49-3.31-2.49
			c-1.85,0-2.95,0.89-2.95,2.2c0,1.35,0.89,1.88,3.84,2.38c4.37,0.68,6.97,1.74,6.97,5.69c0,3.77-2.67,5.94-7.43,5.94
			C179.26,1044.49,176.45,1042.29,176.27,1038.34z"/>
		<path class="st12" d="M195.97,1038.94v-10.17h-2.49v-3.24h2.49v-4.09h4.3v4.09h4.09v3.24h-4.09v9.78c0,1.64,0.78,2.38,2.13,2.38
			c0.85,0,1.49-0.11,2.1-0.36v3.41c-0.68,0.25-1.6,0.46-2.92,0.46C197.89,1044.46,195.97,1042.46,195.97,1038.94z"/>
	</g>
	<g>
		<path class="st12" d="M669.92,1151.86h8.18c5.69,0,9.42,2.52,9.42,7.86v0.14c0,5.37-3.88,7.75-9.31,7.75h-3.56v9.67h-4.73V1151.86
			z M678.1,1164.19c3.13,0,4.8-1.53,4.8-4.34v-0.14c0-3.02-1.78-4.2-4.8-4.2h-3.45v8.67H678.1z"/>
		<path class="st12" d="M690.86,1153.17c0-1.42,1.14-2.49,2.56-2.49c1.42,0,2.56,1.07,2.56,2.49c0,1.39-1.14,2.45-2.56,2.45
			C692,1155.63,690.86,1154.56,690.86,1153.17z M691.33,1158.68h4.3v18.59h-4.3V1158.68z"/>
		<path class="st12" d="M701.56,1172.09v-10.17h-2.49v-3.23h2.49v-4.09h4.3v4.09h4.09v3.23h-4.09v9.78c0,1.64,0.78,2.38,2.13,2.38
			c0.85,0,1.49-0.11,2.1-0.36v3.41c-0.68,0.25-1.6,0.46-2.92,0.46C703.48,1177.6,701.56,1175.61,701.56,1172.09z"/>
		<path class="st12" d="M712.73,1168.21v-0.28c0-5.9,4.2-9.63,9.39-9.63c4.12,0,8,1.85,8.5,6.97h-4.16
			c-0.36-2.49-1.99-3.52-4.27-3.52c-2.95,0-5.05,2.28-5.05,6.12v0.29c0,4.05,1.99,6.19,5.16,6.19c2.28,0,4.23-1.35,4.48-3.98h3.95
			c-0.32,4.27-3.56,7.29-8.6,7.29C716.78,1177.63,712.73,1174.15,712.73,1168.21z"/>
		<path class="st12" d="M734.42,1150.08h4.3v11.55c0.89-1.81,2.95-3.34,6.01-3.34c3.73,0,6.36,2.17,6.36,7.29v11.7h-4.3v-11.31
			c0-2.81-1.14-4.09-3.7-4.09c-2.42,0-4.37,1.49-4.37,4.44v10.95h-4.3V1150.08z"/>
		<path class="st12" d="M764.85,1151.86h15.89v3.73h-11.16v6.97h8.96v3.55h-8.96v7.43h11.77v3.73h-16.5V1151.86z"/>
		<path class="st12" d="M782.8,1158.68h4.62l4.87,14.19l4.8-14.19h4.23l-6.72,18.59h-5.01L782.8,1158.68z"/>
		<path class="st12" d="M802.57,1168.18v-0.28c0-5.76,3.95-9.6,9.24-9.6c4.62,0,8.78,2.74,8.78,9.39v1.25h-13.62
			c0.14,3.52,1.92,5.51,5.12,5.51c2.6,0,3.95-1.03,4.27-2.84h4.16c-0.6,3.91-3.77,6.04-8.53,6.04
			C806.52,1177.63,802.57,1174.04,802.57,1168.18z M816.33,1166.04c-0.21-3.2-1.85-4.62-4.51-4.62c-2.6,0-4.34,1.74-4.76,4.62
			H816.33z"/>
		<path class="st12" d="M824.44,1158.68h4.3v2.95c0.89-1.81,2.95-3.34,6.01-3.34c3.73,0,6.36,2.17,6.36,7.29v11.7h-4.3v-11.31
			c0-2.81-1.14-4.09-3.7-4.09c-2.42,0-4.37,1.49-4.37,4.44v10.95h-4.3V1158.68z"/>
		<path class="st12" d="M846.77,1172.09v-10.17h-2.49v-3.23h2.49v-4.09h4.3v4.09h4.09v3.23h-4.09v9.78c0,1.64,0.78,2.38,2.13,2.38
			c0.85,0,1.49-0.11,2.1-0.36v3.41c-0.68,0.25-1.6,0.46-2.92,0.46C848.69,1177.6,846.77,1175.61,846.77,1172.09z"/>
	</g>
	<g>
		<g>
			<g>
				<g>
					<g>
						<path class="st7" d="M424.04,1366.11h3.19c0.08,0.83,0.46,1.52,1.85,1.52c0.96,0,1.5-0.47,1.5-1.16
							c0-0.72-0.44-0.92-1.85-1.13c-3.3-0.39-4.41-1.37-4.41-3.73c0-2.11,1.73-3.64,4.53-3.64c2.81,0,4.4,1.18,4.61,3.64h-3.1
							c-0.11-0.83-0.59-1.26-1.5-1.26c-0.9,0-1.36,0.41-1.36,1c0,0.65,0.36,0.95,1.81,1.14c2.96,0.33,4.48,1.09,4.48,3.63
							c0,2.14-1.7,3.89-4.71,3.89C425.81,1370.01,424.14,1368.64,424.04,1366.11z"/>
						<path class="st7" d="M434.74,1364.05v-0.13c0-3.56,2.68-5.95,6.18-5.95c3.56,0,6.19,2.24,6.19,5.87v0.13
							c0,3.6-2.47,6.05-6.24,6.05S434.74,1367.56,434.74,1364.05z M443.62,1364.02v-0.13c0-2.08-1.05-3.3-2.7-3.3
							s-2.68,1.19-2.68,3.32v0.13c0,2.12,1.08,3.35,2.7,3.35C442.59,1367.38,443.62,1366.11,443.62,1364.02z"/>
						<path class="st7" d="M448.14,1364.05v-0.13c0-3.6,2.55-5.96,5.96-5.96c3.04,0,5.15,1.41,5.43,4.49h-3.45
							c-0.13-1.19-0.78-1.85-1.96-1.85c-1.5,0-2.45,1.18-2.45,3.3v0.13c0,2.11,0.9,3.3,2.5,3.3c1.18,0,2.01-0.62,2.17-1.91h3.33
							c-0.23,3.02-2.42,4.59-5.44,4.59C450.15,1370.01,448.14,1367.63,448.14,1364.05z"/>
						<path class="st7" d="M461.21,1358.13h3.38v11.68h-3.38V1358.13z"/>
						<path class="st7" d="M469.72,1358.13h4.33l3.71,11.68h-3.55l-0.62-2.17h-3.87l-0.62,2.17h-3.12L469.72,1358.13z
							 M470.38,1365.34h2.57l-1.27-4.49L470.38,1365.34z"/>
						<path class="st7" d="M479.1,1358.13h3.37v9.09h4.41v2.6h-7.78V1358.13z"/>
					</g>
					<path class="st7" d="M424.04,1377.74h5.21c2.76,0,3.94,1.24,3.94,3.06v0.07c0,1.31-0.67,2.17-1.98,2.52
						c1.44,0.25,2.34,1.11,2.34,2.73v0.07c0,2.09-1.36,3.25-4.25,3.25h-5.26V1377.74z M428.59,1382.38c1.05,0,1.44-0.32,1.44-1.05
						v-0.06c0-0.71-0.42-1.03-1.44-1.03h-1.27v2.14H428.59z M428.7,1387.18c1.06,0,1.55-0.49,1.55-1.36v-0.07
						c0-0.88-0.47-1.34-1.65-1.34h-1.29v2.76H428.7z"/>
					<path class="st7" d="M435.06,1384.68v-6.95h3.35v6.8c0,1.65,0.41,2.45,1.83,2.45c1.39,0,1.83-0.75,1.83-2.5v-6.75h3.38v6.9
						c0,3.4-1.99,4.98-5.21,4.98C436.93,1389.62,435.06,1387.95,435.06,1384.68z"/>
					<path class="st7" d="M446.78,1385.71h3.19c0.08,0.83,0.46,1.52,1.85,1.52c0.96,0,1.5-0.47,1.5-1.16c0-0.72-0.44-0.92-1.85-1.13
						c-3.3-0.39-4.41-1.37-4.41-3.73c0-2.11,1.73-3.64,4.53-3.64c2.81,0,4.4,1.18,4.61,3.64h-3.1c-0.11-0.83-0.59-1.26-1.5-1.26
						c-0.9,0-1.36,0.41-1.36,1c0,0.65,0.36,0.95,1.81,1.14c2.96,0.33,4.48,1.09,4.48,3.63c0,2.14-1.7,3.89-4.71,3.89
						C448.55,1389.62,446.88,1388.24,446.78,1385.71z"/>
					<path class="st7" d="M458.17,1377.74h3.38v11.68h-3.38V1377.74z"/>
					<path class="st7" d="M463.86,1377.74h3.77l3.74,6.59v-6.59h2.93v11.68h-3.24l-4.27-7.34v7.34h-2.94V1377.74z"/>
					<path class="st7" d="M476.55,1377.74h8.07v2.58h-4.74v2.01h3.77v2.39h-3.77v2.12h5v2.58h-8.33V1377.74z"/>
					<path class="st7" d="M485.88,1385.71h3.19c0.08,0.83,0.46,1.52,1.85,1.52c0.96,0,1.5-0.47,1.5-1.16c0-0.72-0.44-0.92-1.85-1.13
						c-3.3-0.39-4.41-1.37-4.41-3.73c0-2.11,1.73-3.64,4.53-3.64c2.81,0,4.4,1.18,4.61,3.64h-3.1c-0.11-0.83-0.59-1.26-1.5-1.26
						c-0.9,0-1.36,0.41-1.36,1c0,0.65,0.36,0.95,1.81,1.14c2.96,0.33,4.48,1.09,4.48,3.63c0,2.14-1.7,3.89-4.71,3.89
						C487.64,1389.62,485.98,1388.24,485.88,1385.71z"/>
					<path class="st7" d="M496.37,1385.71h3.19c0.08,0.83,0.46,1.52,1.85,1.52c0.96,0,1.5-0.47,1.5-1.16c0-0.72-0.44-0.92-1.85-1.13
						c-3.3-0.39-4.41-1.37-4.41-3.73c0-2.11,1.73-3.64,4.53-3.64c2.81,0,4.4,1.18,4.61,3.64h-3.1c-0.11-0.83-0.59-1.26-1.5-1.26
						c-0.9,0-1.36,0.41-1.36,1c0,0.65,0.36,0.95,1.81,1.14c2.96,0.33,4.48,1.09,4.48,3.63c0,2.14-1.7,3.89-4.71,3.89
						C498.13,1389.62,496.46,1388.24,496.37,1385.71z"/>
					<path class="st7" d="M424.42,1397.34h3.04c3.86,0,5.82,2.48,5.82,5.74v0.15c0,3.24-1.86,5.8-5.85,5.8h-3.01V1397.34z
						 M427.39,1408.27c3.32,0,4.94-2.09,4.94-5.07v-0.13c0-2.88-1.52-4.98-4.95-4.98h-2.04v10.18H427.39z"/>
					<path class="st7" d="M434.84,1406.72c0-1.98,1.9-2.58,4-2.58h1.78v-0.77c0-1.6-0.65-2.29-2.16-2.29c-1.29,0-2.21,0.56-2.4,1.81
						h-0.85c0.2-1.8,1.67-2.55,3.28-2.55c1.78,0,2.99,0.85,2.99,3.02v5.65h-0.87v-1.31c-0.54,0.83-1.45,1.44-2.89,1.44
						C436.05,1409.16,434.84,1408.34,434.84,1406.72z M440.63,1406.26v-1.45h-1.75c-1.78,0-3.17,0.38-3.17,1.91
						c0,1.09,0.69,1.73,2.09,1.73C439.37,1408.45,440.63,1407.54,440.63,1406.26z"/>
					<path class="st7" d="M446.31,1408.29l-3.38-7.81h0.93l2.93,6.81l2.73-6.81h0.88l-4.74,11.52h-0.9L446.31,1408.29z"/>
				</g>
			</g>
		</g>
		<g>
			<path class="st8" d="M414.11,1340.92L414.11,1340.92c0.01-0.06,0.01-0.12,0.01-0.18c-0.01-0.01-0.02-0.02-0.03-0.03
				c-0.12-0.11-0.24-0.22-0.36-0.33l0,0c0-0.01,0-0.01-0.01-0.01c-0.17-0.01-0.34-0.03-0.51-0.04c-0.01,0-0.01,0-0.02,0l0.01,0
				c0-0.01,0-0.02,0-0.03c-0.01-0.11-0.02-0.22-0.03-0.33c-0.06,0-0.11-0.01-0.17-0.02c-0.09-0.01-0.19-0.01-0.28-0.02
				c-0.1-0.01-0.19-0.01-0.29-0.02c0-0.11,0-0.22-0.01-0.34c-0.51-0.26-1.02-0.52-1.53-0.78c-0.29,0.03-0.57,0.04-0.6-0.36
				c-1.3-0.67-2.63-1.3-4.04-1.73c-0.44,0.04-0.85-0.03-1.16-0.37l0.01-0.02c-0.26,0-0.51-0.01-0.77-0.01
				c-0.84,0-1.68,0.01-2.52,0.01c-0.11,0.01-0.22,0.02-0.33,0.03c-0.02,0.38-0.03,0.75-0.05,1.13l0.01-0.01
				c0.23,0.02,0.37,0.13,0.39,0.37c0.46,0.44,1.02,0.79,1.36,1.35v0c0.25,0.02,0.36,0.16,0.35,0.41c0.69,0.31,0.83,0.86,0.8,1.56
				c-0.13,3.29-0.03,6.58-0.33,9.87c-0.31,3.43-0.2,6.9-0.4,10.35c-0.35,5.78-0.42,11.57-0.66,17.36
				c-0.22,5.24-0.48,10.47-0.75,15.71c-0.09,1.72-0.14,3.43-0.27,5.15c-0.29,3.84-0.08,7.71-0.48,11.55c0.24,0,0.49,0.01,0.73,0.01
				c0.13-0.13,0.25-0.25,0.38-0.38v0c0.57-2.01,0.24-4.14,0.76-6.15c-0.08-3.68,0.37-7.34,0.42-11.02c0-0.19,0.02-0.38,0.17-0.53
				c0.29-4.94,0.25-9.89,0.71-14.83c0.26-2.85-0.06-5.72,0.38-8.59c0.34-2.19-0.06-4.44,0.37-6.66c0.27-1.39,0.09-2.87,0.11-4.32
				c0.31-0.2,0.35-0.5,0.35-0.83c0-0.82,0.01-1.65,0.02-2.47c0.38-3.49,0.7-6.99,1.4-10.43c0.2-0.98,0.27-2.08,1.08-2.87v0
				c0.43-0.85,1.04-0.03,1.55-0.16c0,0.03,0.01,0.07,0.01,0.1c0,0.02,0.01,0.05,0.01,0.07v0c0.97,0.02,1.86,0.56,2.85,0.38l0,0
				c0.27-0.26,0.61-0.35,0.97-0.38c0-0.06,0.01-0.12,0.01-0.18l0.02-0.02c0.06-0.06,0.12-0.12,0.17-0.18
				C414.22,1341.48,414.11,1341.19,414.11,1340.92"/>
			<path class="st9" d="M512.84,1335.92c-0.1-0.1-0.18-0.21-0.24-0.33c-0.13-0.24-0.18-0.51-0.16-0.81c0-0.01,0-0.01,0-0.02
				c-0.06-0.01-0.12-0.01-0.18,0c-0.39-0.86-0.87-1.66-1.55-2.33c-0.2-0.27-0.35-0.59-0.73-0.65c0.01-0.06,0.01-0.12-0.01-0.18
				c-0.06-0.01-0.11-0.02-0.16-0.04c-0.39-0.12-0.59-0.42-0.64-0.85c-0.04-0.02-0.07-0.04-0.11-0.06c-0.08-0.05-0.16-0.09-0.24-0.14
				c-0.01,0-0.01-0.01-0.02-0.01c0-0.06-0.01-0.11-0.01-0.17c0-0.06-0.01-0.12-0.01-0.19c-0.57-0.4-0.93-1.08-1.69-1.22
				c-0.05-0.23-0.18-0.35-0.43-0.31c-0.28-0.02-0.25-0.45-0.56-0.41c-0.36,0.03-0.35-0.54-0.75-0.45c-0.06-0.06-0.13-0.12-0.19-0.19
				c0.01-0.05,0-0.1-0.04-0.15c-0.09-0.54-0.67-0.46-0.95-0.75c-0.31-0.36-0.63-0.72-1.15-0.77l-0.01,0.01
				c-0.29-0.36-0.61-0.67-1.13-0.62c-0.67-0.59-1.42-1.02-2.33-1.14c-0.07-0.06-0.13-0.12-0.19-0.17c-0.08-0.52-0.57-0.53-0.91-0.72
				c-0.84-0.47-1.82-0.63-2.64-1.14c-0.03-0.02-0.07-0.04-0.1-0.06c-0.13-0.01-0.25-0.02-0.38-0.03c-0.02,0-0.05,0.01-0.07,0.01
				c-0.11,0.01-0.22,0.03-0.33,0.04c-0.47-0.06-0.83-0.45-1.33-0.41c-0.06,0-0.12,0-0.18,0c-0.19,0-0.38-0.01-0.57-0.01h0
				c0-0.04-0.01-0.08-0.01-0.13c0-0.02,0-0.04-0.01-0.06c0-0.06-0.01-0.11-0.02-0.17l-0.76-0.02c-0.38-0.13-0.69-0.47-1.15-0.4
				l-0.32,0c-0.33,0-0.66-0.01-0.99-0.01c0-0.03-0.01-0.07-0.01-0.1c0-0.02-0.01-0.04-0.01-0.06c-0.01-0.06-0.02-0.13-0.03-0.19
				c-1.05,0.1-2-0.62-3.07-0.39c-1.13-0.22-2.25-0.53-3.42-0.4c-1.23-0.31-2.48-0.36-3.73-0.38c-0.39,0-0.79,0.05-0.76-0.53
				c0.08-0.14,0.15-0.27,0.22-0.41c0.39-0.14,0.64-0.41,0.75-0.81v0c0.38-0.29,0.52-0.75,0.78-1.12c0.25,0,0.37-0.13,0.4-0.37
				c0-0.03-0.01-0.06-0.01-0.09c0,0,0,0,0-0.01c-0.01-0.04-0.01-0.09-0.02-0.14c0.03-0.24,0.17-0.35,0.4-0.37
				c0.02-0.32,0.12-0.6,0.38-0.81c0.07-0.02,0.12-0.04,0.17-0.07c0.07-0.19,0.13-0.38,0.25-0.54c0-0.03,0-0.06,0-0.09l-0.01-0.01
				c0.03,0,0.06-0.01,0.09-0.01c0.18-0.04,0.26-0.19,0.29-0.38c0.3,0.02,0.35-0.27,0.54-0.4c0.01-0.04,0.03-0.08,0.04-0.12
				c0.1-0.32,0.24-0.61,0.44-0.87c0.04-0.06,0.08-0.11,0.13-0.17c0,0,0-0.01,0-0.01l0,0c0.11-0.42,0.44-0.76,0.55-1.17
				c0.03-0.1,0.05-0.22,0.04-0.33c0.39-0.37,0.47-0.92,0.77-1.35c-0.05-0.3,0.01-0.54,0.36-0.6c0.11-0.55,0.38-1.02,0.66-1.48
				c0.1-0.16,0.2-0.31,0.29-0.47c0.14-0.37,0.29-0.75,0.43-1.12c0.01-0.04,0.03-0.09,0.04-0.13c0.11-0.33,0.22-0.67,0.33-1.01
				c0.12-0.03,0.2-0.08,0.25-0.13c0.03-0.14,0.07-0.28,0.13-0.4c0-0.15-0.02-0.3,0.01-0.43c0.45-0.27,0.33-0.73,0.38-1.12v0
				c0.09-0.01,0.16-0.03,0.21-0.06c0.17-0.11,0.13-0.36,0.18-0.55c-0.01-0.02-0.01-0.04-0.02-0.05c0-0.01-0.01-0.02-0.01-0.03
				c-0.01-0.04-0.03-0.08-0.04-0.12c0.04-0.22,0.14-0.38,0.38-0.42c0.01-0.11,0.03-0.23,0.04-0.34c-0.22-0.65,0.51-1.09,0.38-1.72
				c0.06-0.01,0.13-0.03,0.19-0.04c0.01,0,0.03-0.01,0.05-0.01c0.04-0.01,0.07-0.01,0.11-0.02c0.02-0.23,0.03-0.45,0.04-0.68
				c0-0.01,0-0.02,0-0.03c0.02-0.03,0.03-0.05,0.05-0.07c0.01-0.01,0.01-0.02,0.02-0.03c0.11-0.16,0.21-0.32,0.31-0.48
				c-0.01-0.06-0.01-0.13-0.02-0.19l-0.01-0.15c0-0.02,0-0.05-0.01-0.07l0,0c0.36-1.63,0.77-3.24,1.36-4.8
				c-0.06-1.03,0.34-1.98,0.47-2.98c0.24-1.93,0.48-3.82-0.05-5.73c-0.08-0.27-0.03-0.57-0.03-0.85c-0.53-0.47-0.6-1.18-0.95-1.75
				c-0.59-0.37-0.87-1.07-1.52-1.37c-0.04-0.05-0.09-0.1-0.13-0.14c-0.28-0.28-0.58-0.51-1.03-0.44c-0.02,0.07-0.02,0.13-0.01,0.18
				v0h0l0,0l0,0h0c-0.01-0.05-0.01-0.11,0.01-0.18c-0.09-0.08-0.18-0.16-0.27-0.24c-0.11-0.1-0.22-0.2-0.33-0.3l-0.51-0.05
				c-0.14-0.4-0.49-0.32-0.79-0.33c-0.99-0.02-1.99-0.03-2.98-0.05c-0.04,0-0.08,0-0.12,0c0.02,0.02,0.04,0.05,0.06,0.07
				c0,0-0.01,0.01-0.01,0.01l0.01-0.01c-0.02-0.03-0.04-0.05-0.06-0.07h0c-0.13,0-0.25,0.01-0.38,0.01
				c-0.06,0.01-0.13,0.02-0.19,0.03c-0.35,0.04-0.71,0.05-0.98,0.35c-1.23,0.06-2.37,0.55-3.56,0.79c-0.03,0-0.05,0.01-0.08,0.02
				c-0.01,0.06-0.02,0.11-0.02,0.17c-0.45-0.06-0.83,0.1-1.16,0.39h0c-0.12,0.01-0.23,0.02-0.35,0.03c-0.39-0.06-0.7,0.1-0.97,0.37
				l0,0c-0.5,0.12-0.93,0.53-1.5,0.41c-0.02,0.1-0.05,0.17-0.1,0.22c-0.09,0.12-0.24,0.14-0.39,0.15c-0.1,0-0.21-0.01-0.31,0.01
				c-0.48,0.45-1.1,0.61-1.71,0.77l0,0c-0.05,0.09-0.12,0.16-0.2,0.22c-0.26,0.19-0.61,0.23-0.86,0.43
				c-0.04,0.03-0.08,0.07-0.11,0.11c-0.02,0-0.05,0-0.07,0h-0.09c-0.05,0-0.1,0-0.16,0c-0.09,0-0.18,0-0.26,0l0,0
				c-0.43,0.45-1.17,0.4-1.54,0.96c-0.59,0.18-1.05,0.68-1.68,0.77c-0.08,0.01-0.16,0.02-0.25,0.02c-0.02,0.37-0.31,0.35-0.56,0.38
				c-0.06,0.1-0.12,0.19-0.2,0.25c-0.07,0.06-0.15,0.1-0.25,0.11c-0.05,0.01-0.1,0.01-0.16-0.01c-0.05,0.03-0.1,0.04-0.16,0.03
				c-0.01,0.07-0.04,0.12-0.07,0.17c-0.09,0.14-0.23,0.2-0.41,0.2c-0.04,0-0.09,0-0.13-0.01l0.01,0.03
				c-0.02,0.04-0.04,0.07-0.07,0.11c-0.09,0.14-0.21,0.24-0.38,0.26c-0.04,0-0.08,0-0.13,0c-0.26,0.13-0.52,0.25-0.77,0.38
				c-0.07,0.11-0.16,0.2-0.25,0.27c-0.34,0.27-0.79,0.38-1.1,0.68c-0.08,0-0.15,0-0.22,0h-0.01c-0.11,0-0.23,0-0.34,0
				c-0.07,0.12-0.15,0.24-0.22,0.36l-1.54,0.78c-0.04,0.1-0.09,0.18-0.16,0.24c-0.1,0.1-0.24,0.15-0.4,0.16c-0.06,0-0.11,0-0.18,0
				l0,0c-0.02,0.05-0.05,0.1-0.08,0.14c-0.09,0.13-0.21,0.22-0.38,0.23c-0.04,0-0.08,0-0.12,0l0,0c-0.03,0.04-0.06,0.08-0.09,0.12
				c-0.03,0.04-0.06,0.08-0.1,0.12c-0.19,0.11-0.39,0.22-0.58,0.33c-0.06,0-0.13,0-0.19-0.01c-0.07,0-0.13-0.01-0.2-0.01
				c-0.12,0.07-0.24,0.15-0.36,0.22c0,0.04,0,0.08,0,0.11c0,0.02,0,0.05,0,0.07v0.02c-0.3,0.38-0.76,0.53-1.16,0.75
				c-0.04,0-0.08,0-0.12,0h0c-0.09,0-0.18,0-0.27-0.01c-0.07,0.12-0.14,0.24-0.21,0.37c-0.06,0.01-0.11,0.01-0.17,0.02
				c-0.01,0.06-0.01,0.12-0.02,0.18c0,0.02,0,0.03-0.01,0.05c-0.01,0.04-0.01,0.09-0.01,0.13c-0.05,0.01-0.1,0.02-0.15,0.04
				c-0.05,0-0.09,0-0.14-0.01c-0.04,0-0.07,0-0.11,0c-0.05,0-0.09-0.01-0.14-0.01c-0.33,0.18-0.68,0.34-0.79,0.75l0,0
				c-0.82,0.07-1.31,0.71-1.92,1.15c-0.26,0.02-0.48,0.12-0.7,0.27c-0.97,0.65-1.95,1.26-2.92,1.89c-0.01,0.09-0.04,0.16-0.07,0.21
				c-0.09,0.13-0.24,0.16-0.4,0.16c-0.04,0-0.07,0-0.11,0c0,0.07,0.01,0.13,0.01,0.2l0,0c-0.79,0.56-1.67,0.99-2.33,1.71
				c-0.19,0.11-0.38,0.21-0.56,0.32l0,0h0c-0.19-0.04-0.18,0.12-0.23,0.22c-0.29,0-0.54,0.05-0.59,0.4c-0.05,0-0.1,0.01-0.15,0.05
				c-1.02,0.64-2.03,1.28-3.05,1.92c-0.07,0.11-0.15,0.2-0.23,0.28c-0.54,0.53-1.34,0.73-1.74,1.42c-0.44,0.26-0.88,0.53-1.32,0.79
				c-0.06,0.06-0.12,0.11-0.18,0.17c-0.14,0.13-0.27,0.26-0.41,0.38h0c-0.14,0.05-0.29,0.09-0.43,0.14c-0.1,0.04-0.2,0.07-0.3,0.1
				c-0.05,0.06-0.1,0.13-0.16,0.19c-0.03,0.06-0.06,0.11-0.1,0.16c-0.24,0.29-0.65,0.41-0.91,0.67c-0.08,0.08-0.15,0.17-0.2,0.29
				c-0.25,0.13-0.5,0.26-0.76,0.4c-0.07,0.13-0.14,0.25-0.2,0.38h-0.18h-0.02c-0.06,0-0.12,0-0.19,0c-0.34,0.43-1,0.54-1.18,1.13
				c-0.35-0.04-0.41,0.4-0.73,0.41c-0.01,0.1-0.05,0.18-0.09,0.24c-0.18,0.23-0.54,0.27-0.71,0.51c-0.04,0-0.09,0-0.13,0h-0.07
				c-0.06,0-0.12,0-0.17,0c-0.34,0.03-0.44,0.33-0.6,0.56c-0.22,0.04-0.35,0.17-0.37,0.39c-0.11,0.04-0.28,0.01-0.26,0.22h0
				c-0.44,0.31-0.89,0.61-1.32,0.94c-1.22,0.94-2.51,1.81-3.61,2.89c-0.25,0-0.5,0-0.76,0c-0.07,0-0.15,0.01-0.22,0.01
				c-0.09,0.01-0.18,0.01-0.27,0.02c-0.03,0-0.06,0-0.08,0c-0.36-0.02-0.72-0.04-1.08-0.07c-0.01,0-0.02,0-0.03,0
				c-0.02-0.26-0.21-0.32-0.42-0.38c-0.14,0-0.32,0.03-0.34-0.17c-0.02-0.21,0.17-0.28,0.31-0.38c0-0.06,0.01-0.11,0.03-0.17
				c0.05-0.13,0.1-0.27,0.15-0.4c0.23-0.62,0.46-1.24,0.69-1.85c0.03-0.09,0.07-0.17,0.1-0.26c0.05-0.13,0.1-0.27,0.15-0.4
				c0.05-0.14,0.1-0.27,0.15-0.41l0.07-0.18c0.05-0.1,0.09-0.2,0.13-0.3c0.07-0.16,0.14-0.33,0.21-0.49
				c0.01-0.04,0.03-0.08,0.05-0.12c0.1-0.58,0.54-1.09,0.41-1.72c0.57-0.23,0.28-0.75,0.38-1.15c0.47-0.09,0.29-0.5,0.39-0.78
				c0-0.05,0-0.09,0-0.14c0-0.14,0-0.27,0-0.41c0-0.08,0-0.15,0-0.23c0.04-0.02,0.08-0.05,0.12-0.07c0.08-0.05,0.16-0.09,0.24-0.14
				c0.02-0.36,0.03-0.72,0.05-1.08c0.49-0.13,0.34-0.51,0.34-0.84c0.34-1.06,0.62-2.14,0.81-3.24c0.61-1.14,0.65-2.43,0.92-3.66
				c0.23-1.01,0.35-2.05,0.51-3.08c0.27-1.74,0.72-3.45,0.65-5.23c0.01-0.31,0.02-0.62,0.03-0.93c0.24-0.29,0.27-0.65,0.36-0.99
				c0-0.01,0-0.02-0.01-0.04c-0.02-0.13-0.04-0.25-0.06-0.38c0-0.07,0.01-0.14,0.01-0.21c-0.02-0.52,0.01-1.03,0.06-1.54
				c0.07-2.29,0.04-4.57-0.03-6.85c0-0.06,0-0.13,0.01-0.19c0.01-0.46,0.02-0.91,0.03-1.37c0,0,0-0.01,0-0.01
				c-0.03-0.29-0.01-0.58-0.05-0.87c-0.04-0.24-0.12-0.47-0.31-0.68l-0.04-2.4c0-0.02,0-0.04,0-0.06l0,0
				c-0.11-0.12-0.18-0.26-0.24-0.39c-0.25-0.6-0.06-1.28-0.16-1.91c0.01-0.04,0.03-0.09,0.04-0.13c0.01-0.03,0.02-0.06,0.03-0.1
				c0.01-0.21,0.01-0.41,0-0.62c-0.06-1.36-0.56-2.68-0.46-4.06c-0.02,0-0.04,0.01-0.06,0.01h0c0.02,0,0.04-0.01,0.06-0.01
				c0-0.03,0-0.06,0.01-0.09v-0.01c0,0,0,0,0,0c0,0,0,0,0,0s0,0,0,0c-0.34-0.07-0.32-0.35-0.33-0.6c-0.09-1.53-0.52-2.99-0.96-4.45
				c0.02-0.37-0.04-0.71-0.37-0.94c-0.02,0.07-0.04,0.13-0.07,0.2c0.02-0.07,0.04-0.13,0.07-0.2c0.04-0.5-0.37-0.86-0.43-1.33
				c0-0.33,0.1-0.69-0.36-0.81c-0.01-0.24-0.02-0.47-0.03-0.71c0.03-0.29,0.02-0.55-0.34-0.61c-0.28-0.5-0.27-1.15-0.79-1.53
				c0.04-0.37-0.36-0.55-0.39-0.88c0-0.02,0-0.05,0-0.08c-0.18-0.2-0.37-0.39-0.56-0.59c-0.08-0.17-0.15-0.35-0.23-0.52
				c-0.04-0.02-0.08-0.05-0.11-0.07c-0.41-0.25-0.81-0.49-1.21-0.74c-0.06-0.47-0.46-0.35-0.75-0.43c-0.04,0.01-0.09,0.03-0.13,0.04
				c-0.01,0-0.02,0.01-0.03,0.01c-0.02,0.01-0.04,0.01-0.07,0.02l-0.55-0.07c-0.37,0-0.74,0.01-1.11,0.01c-0.09,0-0.17,0-0.26,0
				c-0.74,0.02-1.26,0.56-1.91,0.79c-0.04,0.05-0.08,0.11-0.12,0.16c-0.1,0.14-0.2,0.27-0.3,0.41c-0.35,0.06-0.58,0.28-0.75,0.58
				l0,0v0c-0.26,0.13-0.55,0.22-0.59,0.58c-0.22-0.03-0.32,0.16-0.46,0.29c-0.08,0.07-0.17,0.12-0.29,0.09
				c-0.32,0.68-1.07,1.02-1.35,1.73c-0.33,0.14-0.43,0.46-0.59,0.74c-0.56,0.57-1.08,1.17-1.34,1.95c-0.27,0-0.35,0.2-0.44,0.39
				c-0.01,0.06-0.02,0.11-0.04,0.16c-0.07,0.18-0.2,0.32-0.33,0.45c-0.05,0.05-0.1,0.11-0.15,0.16v0c-0.04,0.03-0.08,0.05-0.13,0.05
				c-0.01,0-0.02,0-0.04,0l0,0.01c0.01,0.05,0,0.09-0.02,0.13c0.01,0.74-0.72,1.17-0.79,1.88c-0.05,0.01-0.09,0.01-0.14,0.02
				l-0.02,0c-0.07,0.01-0.13,0.02-0.2,0.03c-0.54,1.04-1.07,2.08-1.61,3.12l0,0v0c-0.06,0.02-0.11,0.07-0.14,0.13
				c0,0.06-0.01,0.12-0.01,0.19c-0.01,0.25-0.02,0.49-0.03,0.74c-0.05,0-0.09,0.02-0.14,0.04c0,0-0.01,0-0.01,0.01
				c-0.32,0.15-0.52,0.4-0.59,0.75c-0.21,0.53-0.38,1.07-0.69,1.54c-0.08,0.13-0.17,0.25-0.27,0.37c-0.29,0.57-0.74,1.07-0.73,1.76
				c-0.23,0.18-0.36,0.4-0.41,0.71c-0.06,0.41-0.26,0.77-0.75,0.81c-0.01-0.57-0.02-1.13-0.03-1.7c-0.08-0.02-0.16-0.03-0.23-0.05
				c-0.04-0.01-0.07-0.02-0.11-0.02c-0.01-0.23-0.03-0.46-0.04-0.7c0-0.01,0-0.02,0-0.02c0.01-0.19,0.02-0.38,0.03-0.57l0.01-0.2
				c-0.02-0.12-0.03-0.23-0.05-0.35c-0.08-0.03-0.15-0.07-0.2-0.12c-0.2-0.17-0.17-0.42-0.14-0.67c0.01-0.08,0.02-0.15,0.01-0.23
				c-0.02-0.31-0.04-0.62-0.06-0.93c-0.1-0.06-0.17-0.13-0.22-0.2c-0.12-0.17-0.15-0.37-0.13-0.59c0.01-0.07,0.01-0.14,0.02-0.21
				c-0.01-0.37-0.03-0.73-0.04-1.1c-0.1-0.11-0.18-0.23-0.24-0.36c-0.12-0.26-0.16-0.55-0.15-0.85c0-0.06,0-0.11,0.01-0.17
				c-0.03-0.05-0.03-0.1-0.01-0.16c-0.1-0.2-0.18-0.4-0.25-0.61c-0.28-0.83-0.37-1.7-0.68-2.52c0.05-0.44-0.09-0.82-0.38-1.15
				c-0.26-1.32-0.66-2.59-1.18-3.83c0.04-0.59-0.26-1.08-0.48-1.59c-0.04-0.09-0.08-0.19-0.11-0.29v0c-0.21-0.55-0.32-1.15-0.75-1.6
				c0-0.13,0-0.25-0.01-0.38l0,0c0,0,0,0,0,0l-0.01,0c-0.54-0.41-0.53-1.22-1.12-1.59c0.04-0.34-0.13-0.56-0.41-0.72
				c-0.03-0.29,0.09-0.66-0.35-0.76c-0.05-0.26,0.01-0.59-0.41-0.6c0.11-0.43-0.43-0.29-0.5-0.56c-0.09-0.03-0.16-0.09-0.2-0.16
				c-0.12-0.18-0.18-0.43-0.46-0.42h0c0-0.05-0.01-0.11-0.04-0.16c-0.01-0.02-0.02-0.03-0.02-0.05c-0.16-0.32-0.42-0.55-0.73-0.72
				c-0.01-0.02-0.02-0.03-0.02-0.05c-0.05-0.11-0.1-0.23-0.15-0.34c-0.51-0.25-0.85-0.87-1.55-0.74c-0.11-0.02-0.23-0.04-0.34-0.06
				c-0.01-0.12-0.03-0.23-0.04-0.35h-0.58h-1.92c-0.02,0.12-0.03,0.24-0.04,0.36c-0.24,0.03-0.48,0.06-0.73,0.09
				c-0.34-0.1-0.46,0.33-0.76,0.32c-0.29-0.03-0.56-0.01-0.58,0.38v0c-0.57,0.04-0.87,0.56-1.34,0.77l-0.07,0.09
				c-0.36,0.42-0.72,0.84-1.08,1.26c-0.47,0.44-0.86,0.96-1.19,1.51c-0.44,0.18-0.66,0.54-0.74,0.99c-0.02,0.31-0.45,0.42-0.39,0.78
				c-0.11,0-0.23,0-0.34,0.01h0l0,0.01c0,0.06-0.01,0.12-0.04,0.17c0,0.03,0.01,0.05,0.01,0.07c0.02,0.47-0.58,0.75-0.41,1.26
				c-0.21,0.04-0.29,0.18-0.36,0.39c-0.24,0.71-0.52,1.42-0.78,2.12c-0.67,1.27-1.2,2.59-1.36,4.03l0,0
				c-0.58,1.16-0.85,2.41-1.14,3.65c-0.39,0.38-0.45,0.85-0.4,1.36c-0.04,0.53-0.46,0.96-0.38,1.52c-0.08,0.19-0.16,0.37-0.25,0.56
				c-0.1,0.22-0.2,0.44-0.29,0.66v0c0.07,1.01-0.39,1.91-0.54,2.88c-0.24,1.59-0.76,3.13-0.63,4.77l-0.02-0.01
				c-0.68,0.48-0.26,1.17-0.34,1.76c-0.02,0.25-0.03,0.5-0.05,0.75v0.06c0,0.37,0,0.73,0,1.09c0,0.02,0,0.04,0,0.05
				c0,0.23,0,0.46,0.01,0.68v0.03c-0.12,0-0.25,0.01-0.37,0.01v1.35v1.54v5v0.77v1.15v1.15c0.12,0,0.24,0.01,0.36,0.01
				c0,0.43,0,0.86,0.01,1.28c0,0.02,0,0.04,0,0.06c0.01,0.12,0.03,0.25,0.04,0.37c0,0.51-0.01,1.02-0.01,1.54
				c0.07,0.01,0.15,0.02,0.23,0.03c0.01,0,0.01,0,0.02,0c0,0,0.01,0,0.01,0c0-0.01-0.01-0.03-0.01-0.04l0,0c0,0,0,0,0-0.01v0.01
				c0,0.01,0,0.03,0.01,0.04c0.03,0,0.06,0.01,0.08,0.01c0,0.13,0,0.27,0,0.4l0,0.28c0,0.09,0,0.18,0,0.27
				c0.15,1.37,0.51,2.69,0.8,4.03c0.04,0,0.09,0.01,0.13,0.02c0.01,0,0.03,0,0.04,0l0-0.01c0.02,0.1,0.03,0.2,0.05,0.3
				c0.01,0.06,0.02,0.13,0.03,0.19c0.04,0.28,0.09,0.55,0.13,0.83c0.01,0.06,0.02,0.12,0.03,0.18c0,0,0.01,0,0.01,0
				c0.01,0,0.01-0.01,0.01-0.01c0,0-0.01,0.01-0.01,0.01c0.01,0,0.02,0.01,0.03,0.01c0.02,0.01,0.03,0.01,0.05,0.02
				c0.02,0.01,0.04,0.02,0.06,0.03c0.01,0.08,0.01,0.15,0.02,0.23l0.01,0.12c0.03,0.14,0.06,0.29,0.08,0.43
				c0.04,0.18,0.07,0.36,0.1,0.54c0.26,0.92,0.41,1.89,0.95,2.71c0.1,0.76,0.4,1.44,0.76,2.1c0.02,0.86,0.45,1.57,0.82,2.3
				c-0.02,0.06-0.02,0.12-0.02,0.19c0.11,0.1,0.2,0.21,0.26,0.33c0.04,0.07,0.07,0.15,0.09,0.23c0.02,0.07,0.03,0.14,0.03,0.21
				c0.02,0.06,0.02,0.11,0.03,0.17c0.05,0.02,0.11,0.03,0.16,0.05c0.02,0.03,0.04,0.06,0.06,0.09c0.03,0.04,0.05,0.07,0.08,0.11
				c0.09,0.12,0.17,0.24,0.26,0.35c0.13,0.25,0.27,0.51,0.4,0.76c-0.01,0.08-0.01,0.14,0.01,0.2c0.04,0.06,0.07,0.12,0.1,0.19
				c0.07,0.08,0.16,0.15,0.25,0.22c0.01,0.12,0.01,0.23,0.02,0.35h0c0.27,0.16,0.41,0.37,0.39,0.66c0,0.04-0.01,0.08-0.02,0.12
				c0.01,0.11,0.03,0.21,0.04,0.32h0c0.06,0.04,0.12,0.09,0.18,0.14c0.31,0.27,0.49,0.63,0.56,1.06c0,0.01,0,0.01,0,0.02
				c0,0,0,0,0,0c0.01,0.01,0.02,0.01,0.03,0.02c0.11,0.06,0.23,0.12,0.34,0.18c0.03,0.63,0.55,1.01,0.78,1.55
				c0.08,0.1,0.17,0.2,0.25,0.3c0.42,0.5,0.82,1.02,1.04,1.64c0.04,0.11,0.07,0.22,0.1,0.33c0.05-0.01,0.09,0,0.13,0.01
				c0.09,0.03,0.15,0.11,0.2,0.19c0.06,0.09,0.11,0.18,0.21,0.2c0.29,0.73,0.97,1.21,1.29,1.91c0.03,0.06,0.05,0.13,0.08,0.19h0h0
				l0,0c0.07,0.04,0.13,0.08,0.19,0.12c0.16,0.11,0.28,0.25,0.35,0.44c0.02,0.06,0.04,0.13,0.04,0.21c0.04-0.01,0.08-0.01,0.11,0
				c0.21,0.03,0.25,0.33,0.46,0.36c0.02,0.03,0.04,0.06,0.06,0.09c0.17,0.24,0.34,0.48,0.51,0.73c0.04,0,0.08,0,0.12,0.01
				c0.16,0.03,0.25,0.14,0.27,0.32c0,0.01,0,0.02,0.01,0.03c0,0.03-0.01,0.07-0.01,0.1c0,0.04-0.01,0.09-0.01,0.13
				c0.01,0.05,0.01,0.11,0.02,0.16l0.02,0.19c0.11,0.01,0.23,0.02,0.35,0.03v0c0.01,0.11,0.02,0.22,0.03,0.33
				c0.08,0,0.15,0,0.23,0.01c0.01,0,0.03,0,0.04,0c0.04,0,0.08,0,0.11,0c0.26,0.26,0.52,0.52,0.77,0.78c0,0.07,0,0.14,0.01,0.22
				c0,0.05,0,0.1,0,0.15l0.01,0.21c0.19,0.12,0.39,0.21,0.62,0.21c0.04,0,0.08,0,0.13-0.01l0,0c0,0.04,0.01,0.09,0.01,0.13
				c0.03,0.16,0.13,0.27,0.33,0.29c0.65,0.64,1.15,1.44,1.94,1.93c0.12,0.07,0.24,0.14,0.37,0.19c0.07,0.05,0.15,0.11,0.22,0.16
				c0.05,0.05,0.09,0.1,0.14,0.15c0.16,0.17,0.31,0.34,0.52,0.42c0.08,0.03,0.17,0.05,0.28,0.05c1.52,1.25,3.08,2.43,4.89,3.23
				c0.09,0.04,0.17,0.08,0.24,0.14c0.07,0.06,0.11,0.13,0.14,0.23c0.18,0,0.36-0.01,0.53-0.01c0.51,0.1,0.95,0.51,1.52,0.39
				c0.06-0.1,0.14-0.18,0.21-0.23c0.32-0.24,0.71-0.12,1.08-0.1c0.1,0.01,0.19,0,0.28-0.01l-0.02-0.05
				c0.48,0.17,0.78-0.24,1.16-0.36c0.13,0.01,0.26,0.01,0.39,0.02c0.04-0.03,0.07-0.06,0.1-0.1c0.03-0.04,0.04-0.08,0.06-0.12
				c0.02-0.06,0.03-0.12,0.02-0.19h0c0.54-0.3,0.89-0.77,1.15-1.31c0.32-0.66,0.8-1.09,1.54-1.2c0.05,0.01,0.09,0.01,0.14,0.02
				c0.23,0.02,0.42-0.05,0.48-0.36c0.7-0.1,1.22-0.63,1.88-0.81c0-0.01,0-0.02,0-0.03c0-0.02,0.01-0.04,0.01-0.06
				c0-0.03,0-0.06,0-0.09c0.52-0.26,1.04-0.51,1.55-0.77v0c0.06,0,0.12,0,0.17-0.01c0.1-0.08,0.2-0.15,0.32-0.2
				c0.04-0.04,0.07-0.09,0.1-0.15h0l0,0h0v0h0l0,0l0,0v0c-0.14-0.01-0.27-0.02-0.38,0.03c0.11-0.04,0.24-0.04,0.38-0.03h0l0,0l0,0h0
				c0.06,0,0.13-0.01,0.2-0.01c0.12-0.01,0.25-0.01,0.37-0.02c0.03,0,0.06,0,0.09,0l0.09,0c0.01-0.01,0.01-0.02,0.02-0.03
				c0.03-0.04,0.06-0.09,0.09-0.13c0.04-0.06,0.09-0.12,0.13-0.19h0c0.11-0.01,0.23-0.02,0.34-0.03c0.05,0.05,0.11,0.05,0.18,0.04
				c0.1-0.02,0.22-0.08,0.33-0.12c0.19-0.08,0.36-0.1,0.4,0.25c0,0.02,0.01,0.04,0.01,0.06c0.03,0.45,0.25,0.82,0.36,1.22
				c0.03,0.09,0.05,0.19,0.06,0.29c0.11,0.25,0.32,0.36,0.58,0.4c0.02,0,0.04,0,0.05,0c0.11-0.01,0.22-0.01,0.34-0.02v0
				c0.01,0,0.02,0,0.03,0c0.33,0.06,0.64,0.06,0.95,0.03c0.47-0.05,0.92-0.17,1.38-0.31c0.11-0.04,0.22-0.07,0.33-0.1
				c0.37-0.42,0.95-0.56,1.38-0.9c0.14-0.11,0.27-0.25,0.36-0.43c0.3,0.04,0.37-0.27,0.57-0.38h0c0.08,0,0.15-0.01,0.21-0.03
				c0.07-0.07,0.15-0.13,0.23-0.18c0.04-0.06,0.06-0.12,0.08-0.2l0.43-0.36c0.06,0.01,0.12,0.01,0.17,0.01
				c0.14-0.01,0.26-0.05,0.34-0.16c0.03-0.06,0.06-0.13,0.07-0.22c0.51-0.39,1.13-0.63,1.52-1.16c0.01,0,0.02,0,0.03,0
				c0.34-0.03,0.47-0.3,0.62-0.55l0.06,0.02l0.06-0.03c1.51-0.05,2.77,0.64,4.02,1.34l0.03,0.36l-0.02,0.03c0,0-0.01,0-0.01,0
				c0,0.02,0,0.03,0.01,0.05c0-0.02,0-0.03,0-0.05c0.01-0.01,0.02-0.02,0.03-0.03c0.34-0.03,0.39,0.45,0.73,0.42
				c0.24,0.45,0.55,0.85,0.95,1.17l0,0c0.25,0.51,0.41,1.06,0.78,1.5c0.04,0.36-0.12,0.8,0.38,0.98c0.01,0.31,0.02,0.62,0.03,0.93
				c0.05,0.41-0.28,0.94,0.34,1.19v0c0.01,1.21,0.15,2.42,0.02,3.63c0,0.08,0.01,0.16,0.01,0.24c0,0.06,0.01,0.12,0.01,0.18
				c0,0.05,0.01,0.11,0.01,0.16c-0.01,0.25-0.01,0.51-0.02,0.77c0,0.07,0,0.15-0.01,0.22v0.05c0,0.11,0,0.21-0.01,0.32
				c0.68,0.7,0.01,1.41,0.03,2.11v0.01c0.02,0,0.03,0,0.05-0.01c-0.02,0-0.03,0.01-0.05,0.01c0,0.12,0,0.25-0.01,0.37
				c-0.07-0.01-0.13,0-0.17,0.02c0.05,0.01,0.11,0.03,0.17,0.03c0,0.88,0,1.77-0.01,2.65l-0.04-0.03c0,0.08,0,0.16,0.01,0.25
				c0.01,0.17,0.01,0.35,0.02,0.53h0l-0.14,0.02c-0.02,0-0.03,0-0.05,0.01c-0.06,0.01-0.11,0.01-0.17,0.02l-0.03,0.75
				c-0.03,0.05-0.03,0.1-0.02,0.16c-0.53,0.31-0.46,0.95-0.75,1.39c-0.04,0.04-0.04,0.08-0.03,0.13h0
				c-0.79,0.62-1.63,1.03-2.67,0.68c-0.06-0.01-0.13-0.03-0.19-0.04l0.02-0.03c-0.22-0.21-0.34-0.64-0.79-0.38
				c-0.11-0.06-0.22-0.13-0.34-0.19l0,0c-0.12-0.41-0.37-0.69-0.8-0.77c-0.05-0.36-0.32-0.56-0.58-0.76
				c-0.08,0.01-0.14,0.02-0.2,0.05c-0.12,0.06-0.18,0.17-0.18,0.34v0l0,0c0.18,0.1,0.3,0.24,0.34,0.42
				c0.01,0.05,0.01,0.11,0.01,0.16c0.03,0.24,0.14,0.39,0.4,0.41c0,0.06,0.01,0.12,0.01,0.18c0,0.06,0.01,0.12,0.01,0.18
				c0.38,0.3,0.62,0.69,0.77,1.14c0.06,0.03,0.11,0.08,0.16,0.13c0.11,0.13,0.2,0.28,0.42,0.26c0.52,0.77,1.24,1.26,2.12,1.53
				c0.13,0,0.25,0.01,0.38,0.01c1,0.18,1.56-0.33,1.91-1.2v0c0.22-0.01,0.29-0.14,0.4-0.32c0.53-0.92,0.78-1.94,1.17-2.91
				c0.71-1.53,0.82-3.2,1.15-4.81l0.57,0.02c0.09,0.01,0.18,0.01,0.27,0c0.38-0.02,0.77-0.13,1.1,0.1c0.08,0.06,0.15,0.13,0.22,0.23
				v0c0.31,0.02,0.61,0.03,0.92,0.05h0.41c0.76,0,1.53,0,2.29,0c0.02,0.03,0.04,0.06,0.06,0.08c0.02,0.02,0.03,0.05,0.05,0.07
				c0.04,0.06,0.09,0.13,0.13,0.19c3.39,0.2,6.75-0.24,10.12-0.39c0.07-0.12,0.16-0.19,0.25-0.25c0.21-0.11,0.46-0.1,0.7-0.12
				c0.08-0.01,0.16-0.02,0.24-0.04h0.01c0.01,0,0.01,0,0.02,0l0.14,0.02c0.08,0.01,0.15,0.02,0.22,0.04
				c0.52-0.11,1.12,0.1,1.54-0.41l-0.02-0.02c0-0.01,0-0.02,0-0.03c0.01,0.02,0.01,0.03,0.02,0.05l1.32-0.02c0.01,0,0.02,0,0.03,0
				l0.07-0.02l0.07,0.02c0.06-0.08,0.11-0.13,0.18-0.18c0.34-0.27,0.78-0.19,1.19-0.2h0c0.01,0,0.01,0,0.02,0c0-0.01,0-0.01,0-0.02
				c0.77-0.53,1.75-0.45,2.55-0.89c0.86-0.47,1.94-0.43,2.69-1.15h0c0.26-0.07,0.6,0.09,0.79-0.23c-0.12,0.06-0.25,0.1-0.37,0.1
				c0.12-0.01,0.25-0.04,0.37-0.1c1.59-0.64,3.19-1.25,4.57-2.3c0.25-0.07,0.51-0.15,0.76-0.22c0-0.01,0.01-0.01,0.01-0.02
				c0.26-0.47,0.96-0.38,1.17-0.9v0c0.29,0.01,0.52-0.08,0.58-0.4l0.09,0l0.07-0.05l0.14,0.03c0.02,0,0.04,0.01,0.06,0.01
				c0,0,0,0,0,0c0.01-0.03,0.03-0.06,0.05-0.09c0.14-0.24,0.36-0.37,0.66-0.34c0,0,0.01,0,0.01,0l0,0c0,0,0,0,0,0v0
				c-0.07-0.33,0.36-0.28,0.4-0.52c0.28-0.19,0.55-0.38,0.83-0.56c0.07,0,0.14,0,0.21,0.01c0.05,0,0.11,0,0.16,0
				c0.05-0.03,0.1-0.04,0.16-0.04c0.01-0.03,0.03-0.05,0.04-0.08c0.2-0.33,0.68-0.41,0.78-0.84c0.33-0.35,0.75-0.4,1.2-0.42
				c0.32-0.01,0.64,0,0.96-0.01c0.3-0.1,0.63-0.16,0.99-0.12c0.18-0.05,0.37-0.13,0.54-0.23c1.13-0.01,2.26-0.03,3.39-0.04h0.65
				c1.45,0,2.89,0,4.34,0c0.26,0,0.53,0,0.8,0c0.58,0,1.15,0.01,1.72,0.01c0.12,0.01,0.24,0.02,0.36,0.03
				c0.05,0.05,0.1,0.09,0.16,0.11c0.09,0.04,0.19,0.05,0.29,0.05h0.05h0c-0.01,0.04-0.02,0.08-0.03,0.12
				c-0.01,0.02-0.01,0.05-0.02,0.07c0.62,0.01,1.24,0.03,1.87,0.04l0.81-0.04c-0.05-0.02-0.1-0.04-0.15-0.07
				c0.05,0.01,0.1,0.03,0.15,0.07c0.13,0.02,0.25,0.02,0.38,0.02c0.47,0,0.94-0.08,1.38,0.19c0.06,0.04,0.13,0.07,0.19,0.09
				c0.11,0.02,0.23,0.04,0.34,0.06c0.12,0.02,0.26,0.03,0.4,0.05c0.3,0,0.61-0.03,0.91,0c0.6,0.42,1.34,0.45,2.01,0.68
				c0.19,0.07,0.37,0.15,0.54,0.26c0.85,0.2,1.6,0.71,2.48,0.79c0.22,0.59,0.75,0.31,1.15,0.42c0.1,0.43,0.48,0.3,0.75,0.37
				c0.06,0.37,0.31,0.39,0.61,0.36c0.65,0.38,1.29,0.76,1.94,1.14c0.31,0.41,0.73,0.69,1.15,0.96c0.06,0,0.13,0,0.19,0
				c0.02,0,0.03,0,0.05,0c0.05,0,0.1,0,0.16,0c0.18,0.13,0.37,0.26,0.55,0.39c0,0.01,0,0.01,0,0.02c0.01,0.03,0.01,0.06,0.01,0.08
				c0.02,0.08,0.03,0.17,0.05,0.25c0.79,0.32,1.13,1.15,1.81,1.6c-0.04,0.4,0.39,0.58,0.45,0.93c-0.06,0.3,0.17,0.52,0.23,0.78
				c0.14,0.65,0.5,1.36-0.2,1.94c0,0.08-0.01,0.15-0.01,0.23c-0.01,0.17-0.02,0.34-0.03,0.51c-0.39,0.42-0.84,0.75-1.29,1.1
				c-0.78,0.62-1.76,0.82-2.55,1.38c-0.31,0.01-0.62,0.02-0.92,0.03c0,0-0.01,0-0.02,0c-0.02,0.11-0.04,0.22-0.06,0.34
				c-2.07,0.44-4.13,0.89-6.2,1.33c-0.05,0.01-0.1,0.02-0.16,0.04c-1.57-0.08-3.06,0.6-4.64,0.46c-0.24-0.02-0.41,0.15-0.56,0.32h0
				c-0.37,0.01-0.73,0.01-1.1,0.02c-0.96,0.01-1.92,0.02-2.88,0.04c-0.25,0-0.53-0.04-0.61,0.31c-0.32,0.01-0.63,0.03-0.95,0.04
				c-1.45,0.01-2.89,0.02-4.33,0.04c-0.55,0-1.1,0.01-1.65,0.01c-0.14,0-0.27,0-0.38,0.05c-0.1,0.04-0.18,0.12-0.24,0.26
				c-0.82,0.01-1.63,0.02-2.45,0.03c-5.39,0-10.78-0.01-16.17-0.01c-0.5-0.01-1-0.02-1.5-0.03v0c-0.14-0.42-0.5-0.31-0.8-0.31
				c-1.07-0.03-2.15-0.05-3.22-0.04c-0.26,0-0.68-0.14-0.74,0.2c-0.06,0.39,0.28,0.59,0.68,0.61l-0.01-0.09c0.02,0,0.05,0,0.07,0
				c0.12,0.01,0.23,0.01,0.35,0.02c0.25,0.01,0.49,0.03,0.74,0.04c0.25,0.12,0.5,0.21,0.76,0.27c0.37,0.09,0.75,0.11,1.15,0.05
				c0.07,0,0.15,0,0.22,0c1.93-0.03,3.82,0.53,5.76,0.43c11.03,0.69,22.06,1.03,33.1-0.01c0.03,0,0.06,0,0.09,0
				c0.45,0.01,0.91,0.05,1.32-0.12c0.12-0.05,0.24-0.12,0.36-0.22h0l1.3-0.03c0.14,0,0.27,0,0.41,0.01c0.25,0.01,0.5,0.01,0.75,0.01
				c0.3-0.04,0.57-0.16,0.79-0.37c0.33-0.06,0.69,0.05,1.02-0.01c0.02-0.01,0.04-0.01,0.06-0.02c0.17-0.04,0.32-0.14,0.46-0.34
				c0.25-0.01,0.5-0.03,0.74-0.04c0.17,0,0.35,0,0.52,0c0.15,0,0.29,0,0.44,0c0.01-0.11,0.03-0.22,0.04-0.34
				c0.81,0.18,1.46-0.42,2.23-0.43c0.03-0.1,0.07-0.17,0.13-0.23c0.16-0.16,0.41-0.14,0.64-0.16h0c0.22-0.31,0.53-0.41,0.88-0.39
				c0.03,0,0.07,0,0.1,0.01c0-0.03,0.01-0.05,0.01-0.08c0.01-0.08,0.02-0.17,0.03-0.25c0.08-0.01,0.17-0.02,0.25-0.03
				c0.04,0,0.07-0.01,0.11-0.01v0c-0.02-0.02-0.04-0.03-0.06-0.04c0.02,0.01,0.04,0.02,0.06,0.04l0,0l0,0h0
				c0.07,0,0.15,0.01,0.23,0.01c0.06,0,0.11,0,0.17,0.01c0.36-0.06,0.52-0.41,0.81-0.57c-0.04-0.01-0.07-0.03-0.11-0.04
				c0-0.01,0.01-0.02,0.01-0.03c0.01-0.03,0.02-0.06,0.03-0.09c0-0.02,0.01-0.03,0.01-0.05c0.02-0.06,0.04-0.11,0.05-0.17l0,0
				c0.24-0.26,0.66-0.33,0.75-0.74c0.07,0,0.12-0.02,0.17-0.05c0.14-0.09,0.22-0.25,0.36-0.34c0.06-0.04,0.12-0.06,0.21-0.05
				C512.97,1338.18,512.85,1337.04,512.84,1335.92 M487.82,1280.7C487.82,1280.7,487.82,1280.7,487.82,1280.7
				C487.82,1280.7,487.82,1280.7,487.82,1280.7 M487.24,1292.39C487.25,1292.39,487.25,1292.39,487.24,1292.39
				c0.01,0.01,0,0.01,0,0.01C487.25,1292.4,487.25,1292.39,487.24,1292.39C487.25,1292.39,487.25,1292.39,487.24,1292.39
				 M427.03,1273.74L427.03,1273.74c-0.03,0.01-0.05,0.03-0.08,0.06C426.97,1273.77,427,1273.75,427.03,1273.74 M373.21,1289.12
				L373.21,1289.12L373.21,1289.12L373.21,1289.12z M377.59,1304.15L377.59,1304.15L377.59,1304.15L377.59,1304.15L377.59,1304.15
				c0,0.04,0.01,0.08,0.01,0.11C377.6,1304.23,377.59,1304.19,377.59,1304.15 M424.41,1257.55c0.03,0.02,0.06,0.05,0.09,0.07
				C424.46,1257.6,424.43,1257.58,424.41,1257.55L424.41,1257.55z M418.91,1248.25C418.9,1248.25,418.9,1248.24,418.91,1248.25
				c0.03,0.05,0.06,0.12,0.05,0.21c0-0.09-0.02-0.15-0.06-0.21C418.9,1248.24,418.9,1248.25,418.91,1248.25 M416.91,1251.64
				c-0.01,0.02-0.03,0.04-0.05,0.06v0C416.87,1251.69,416.89,1251.66,416.91,1251.64 M414.61,1249.57L414.61,1249.57
				c0,0-0.01,0-0.01,0C414.6,1249.57,414.61,1249.57,414.61,1249.57 M412.75,1252.19C412.75,1252.19,412.75,1252.19,412.75,1252.19
				C412.75,1252.19,412.75,1252.19,412.75,1252.19c-0.6-0.3-0.94,0.03-1.2,0.46C411.81,1252.22,412.15,1251.89,412.75,1252.19
				 M410.98,1253.08C410.98,1253.08,410.99,1253.08,410.98,1253.08C410.99,1253.08,410.99,1253.08,410.98,1253.08
				c-0.11,0.18-0.24,0.35-0.38,0.52C410.74,1253.43,410.87,1253.26,410.98,1253.08 M410.61,1253.6c0.01,0,0.02,0.01,0.03,0.01
				C410.63,1253.61,410.61,1253.61,410.61,1253.6L410.61,1253.6z M407.04,1258.83C407.04,1258.83,407.04,1258.83,407.04,1258.83
				c-0.01,0.01-0.01,0.01-0.01,0.01C407.03,1258.84,407.03,1258.83,407.04,1258.83C407.03,1258.83,407.04,1258.83,407.04,1258.83
				 M398.51,1258.62C398.51,1258.62,398.51,1258.62,398.51,1258.62c0.4,0.22,0.44,0.65,0.55,1.05
				C398.95,1259.27,398.91,1258.83,398.51,1258.62C398.51,1258.62,398.51,1258.62,398.51,1258.62 M394.05,1244.72L394.05,1244.72
				L394.05,1244.72L394.05,1244.72L394.05,1244.72L394.05,1244.72z M392.39,1242.78L392.39,1242.78c-0.33,0-0.66,0.01-0.99-0.01
				C391.73,1242.79,392.06,1242.78,392.39,1242.78 M380.71,1254.39c0,0,0.01,0.01,0.01,0.01l0,0
				C380.72,1254.39,380.71,1254.39,380.71,1254.39L380.71,1254.39z M380.65,1254.32L380.65,1254.32L380.65,1254.32L380.65,1254.32
				C380.65,1254.32,380.65,1254.32,380.65,1254.32C380.65,1254.32,380.65,1254.32,380.65,1254.32L380.65,1254.32
				c-0.1,0.57,0.09,1.07,0.38,1.54C380.74,1255.39,380.55,1254.89,380.65,1254.32 M382.9,1312.95L382.9,1312.95L382.9,1312.95
				C382.9,1312.95,382.9,1312.95,382.9,1312.95c0.23-0.04,0.61-0.22,1.37-0.5C383.52,1312.73,383.14,1312.91,382.9,1312.95
				 M387.19,1319.28L387.19,1319.28c0-0.05,0.01-0.09,0.01-0.14C387.2,1319.19,387.2,1319.24,387.19,1319.28 M387.21,1319.12
				C387.21,1319.12,387.2,1319.12,387.21,1319.12C387.2,1319.12,387.2,1319.12,387.21,1319.12c0-0.05,0-0.1,0.01-0.14
				C387.21,1319.02,387.21,1319.07,387.21,1319.12 M389.6,1321.68L389.6,1321.68L389.6,1321.68c0.03,0,0.07-0.01,0.1-0.01
				C389.66,1321.67,389.63,1321.67,389.6,1321.68 M398.48,1323.14c0.01,0,0.03-0.01,0.04-0.01l0,0
				C398.51,1323.13,398.49,1323.13,398.48,1323.14 M418.16,1317.62L418.16,1317.62c0.02-0.01,0.03-0.03,0.05-0.04c0,0,0,0,0,0
				C418.19,1317.59,418.18,1317.6,418.16,1317.62c0.02-0.02,0.03-0.03,0.04-0.05c0,0,0,0,0,0
				C418.19,1317.59,418.18,1317.61,418.16,1317.62 M418.94,1316.71L418.94,1316.71C418.94,1316.7,418.94,1316.7,418.94,1316.71
				C418.94,1316.7,418.94,1316.71,418.94,1316.71 M418.52,1315.97c0.15,0.03,0.29-0.08,0.44-0.09
				C418.81,1315.89,418.67,1316,418.52,1315.97 M419.31,1319.16L419.31,1319.16c0.01,0.01,0.01,0.01,0.02,0.02
				C419.32,1319.17,419.32,1319.17,419.31,1319.16 M419.37,1307.6c-0.03,0.13-0.05,0.27-0.07,0.4c-0.48,0.7-0.72,1.49-0.95,2.29
				c-0.11,0.12-0.2,0.25-0.28,0.38c-0.47,0.72-0.7,1.57-1.12,2.32c-0.04,0.07-0.08,0.14-0.12,0.2c-0.39-0.01-0.78-0.03-1.16-0.04
				c-0.25,0.02-0.5,0.04-0.74,0.06c-0.07,0-0.13,0-0.2,0c-0.64,0-1.28-0.01-1.92-0.01c-0.01,0.06-0.01,0.12-0.02,0.18l-0.01,0.07
				l-0.01,0.09c-0.33,0.01-0.67,0.01-1,0.02c-0.11,0-0.21,0-0.32,0c-0.21,0.07-0.49,0-0.67,0.14c-0.07,0.05-0.12,0.12-0.15,0.24
				c-0.6,0.02-1.21,0.03-1.82,0.05v0c-0.27,0.56-0.78,0.32-1.21,0.35c-0.31,0.03-0.53,0.24-0.77,0.4h-0.04
				c-0.34,0-0.69-0.04-0.98,0.13c-0.1,0.05-0.19,0.13-0.28,0.24l-0.42,0.01h0c-0.76,0.51-1.61,0.8-2.5,0.97
				c-0.21,0.23-0.47,0.35-0.79,0.35c-0.14,0.12-0.27,0.25-0.41,0.37c0,0,0,0.01,0,0.01c0,0,0-0.01,0-0.01c0,0-0.01,0-0.01,0
				c-0.11,0-0.21-0.01-0.32-0.02h0c-0.01-0.01-0.02-0.01-0.03-0.02c-0.63-0.46-1.38-0.28-2.08-0.35c0,0-0.01,0-0.01,0
				c-0.65-0.31-1.31-0.62-1.96-0.93c-0.32,0-0.56-0.18-0.79-0.37c0.02-0.03,0.05-0.05,0.07-0.08c0,0,0,0,0,0
				c-0.02,0.03-0.05,0.05-0.07,0.08c-0.27-0.02-0.44-0.18-0.57-0.4c-0.25,0-0.37-0.14-0.41-0.37c-0.63-0.38-1.36-0.64-1.72-1.36
				c-0.18-0.14-0.36-0.28-0.53-0.42c-0.17,0.02-0.32,0-0.42-0.15c-0.04-0.07-0.09-0.15-0.14-0.22c-0.07-0.12-0.14-0.24-0.21-0.35
				c0-0.01-0.01-0.01-0.01-0.02c-0.38-0.12-0.44-0.65-0.85-0.74c-0.04-0.01-0.08-0.01-0.12-0.01c-0.37-0.47-0.74-0.94-1.11-1.41
				c-0.04-0.05-0.08-0.1-0.12-0.15c0.02-0.06,0.04-0.12,0.06-0.18c-0.12-0.13-0.25-0.25-0.37-0.38c-0.47-0.26-0.64-0.78-0.96-1.16
				v-0.16v-0.07c0-0.05,0-0.1,0-0.15c-0.26-0.17-0.28-0.56-0.53-0.74c-0.06-0.04-0.12-0.07-0.21-0.09c0.02-0.44-0.5-0.54-0.57-0.93
				c-0.36-0.22-0.18-0.62-0.29-0.92c-0.49-0.72-0.82-1.51-1.11-2.32v0c-0.18-0.16-0.4-0.29-0.39-0.57c-0.5-0.56-0.47-1.37-0.93-1.96
				c-0.03-0.16-0.07-0.32-0.1-0.48c-0.01-0.04-0.02-0.08-0.03-0.13c-0.01-0.07-0.03-0.14-0.04-0.21c-0.01-0.05-0.02-0.1-0.03-0.15
				c-0.05-0.02-0.11-0.04-0.16-0.06v0c-0.01-0.1-0.02-0.21-0.03-0.32c0-0.02,0-0.05-0.01-0.07c-0.05-1-0.76-1.82-0.77-2.83
				c-0.07-0.04-0.14-0.08-0.21-0.12l0,0c-0.05-0.03-0.1-0.06-0.15-0.09h0c-0.01-0.26-0.01-0.52-0.02-0.79
				c0-0.11-0.01-0.23-0.01-0.34c-0.03-0.05-0.03-0.1-0.02-0.15c-0.08-0.03-0.13-0.06-0.18-0.1c-0.28-0.22-0.16-0.57-0.17-0.89
				c0-0.01,0-0.01,0-0.02c0-0.02-0.01-0.04-0.01-0.06c-0.07-0.36-0.28-0.68-0.36-1.03c-0.01-0.03-0.01-0.05-0.02-0.08
				c-0.02-0.11-0.03-0.23-0.01-0.35c-0.06,0-0.12-0.01-0.18-0.02c0,0-0.01,0.01-0.02,0.01c0-0.01,0.02-0.01,0.02-0.01l0,0
				c-0.23-1.35-0.68-2.66-0.79-4.03c0-0.02,0-0.04,0-0.06c0.01-0.12,0.01-0.24,0-0.35c-0.02-0.11-0.04-0.21-0.06-0.32
				c-0.02-0.06-0.03-0.11-0.05-0.16c-0.06-0.16-0.14-0.32-0.24-0.48c0.14-1.18-0.52-2.27-0.42-3.45c0-0.02,0-0.04,0-0.07
				c0-0.03,0-0.06,0-0.08l0.04-0.82c-0.04-0.43,0.02-0.89-0.18-1.29c-0.05-0.1-0.11-0.2-0.2-0.29h0c0-0.18-0.01-0.36-0.02-0.54
				c0-0.02,0-0.04,0-0.07c0.12-3.25-0.5-6.46-0.39-9.71c0-0.08,0-0.15,0.01-0.23l0.01,0.01h0c0.05-0.01,0.09-0.03,0.13-0.05
				c0.2-0.11,0.19-0.34,0.19-0.55c0.01-1.28,0.02-2.56,0.03-3.85c0.06-0.32,0.07-0.64-0.13-0.93c0.29-0.2,0.16-0.49,0.17-0.76
				c0.49-0.59,0.36-1.29,0.35-1.96c0.01-0.24,0.01-0.49,0.02-0.73c0-0.01,0-0.03,0-0.04c0-0.11,0.01-0.23,0.01-0.34v0
				c0.1-0.18,0.18-0.38,0.25-0.57c0.28-0.89,0.2-1.86,0.52-2.74c0.31-1.06,0.67-2.11,0.91-3.18c0.18-0.79,0.56-1.52,0.73-2.31
				c0.03-0.16,0.06-0.31,0.07-0.47c0.41-0.4,0.34-0.99,0.59-1.46v0c0.3-0.12,0.17-0.4,0.22-0.61c0.01-0.01,0.02-0.02,0.03-0.03
				c0.45-0.35,0.48-0.98,0.9-1.35c0-0.01,0-0.01,0.01-0.02c0.12-0.47,0.54-0.75,0.74-1.17l0,0c-0.04-0.39,0.42-0.55,0.42-0.91
				c0.04-0.01,0.07-0.01,0.11-0.02c0.08-0.01,0.16-0.02,0.24-0.04c0.12-0.41,0.42-0.53,0.8-0.52l0.54-0.06
				c0.06-0.07,0.12-0.13,0.18-0.2c0.01-0.09,0.01-0.18,0.02-0.27c0-0.03,0-0.06,0.01-0.09c0.02,0,0.04,0,0.06,0
				c0.04,0,0.08,0,0.13,0c0.32,0.01,0.63,0.01,0.95,0.02c0.05,0,0.1,0,0.15,0h0c0.08,0.12,0.17,0.24,0.25,0.36
				c0.43-0.12,0.57,0.41,0.95,0.41c0,0.03,0.01,0.07,0.01,0.1c0.01,0.08,0.02,0.16,0.03,0.25c0.19,0.07,0.36,0.16,0.38,0.39h0
				c0.13,0.07,0.26,0.13,0.39,0.2c0,0.06,0,0.11,0,0.17c0,0.07,0,0.13,0,0.2c0.74,0.94,1.16,2.05,1.69,3.11
				c-0.01,0.04-0.01,0.09-0.01,0.13c0,0.27,0.14,0.48,0.38,0.64c0,0.02,0,0.04,0,0.06c-0.01,0.65,0.57,1.15,0.44,1.82
				c0.09,0.06,0.18,0.11,0.27,0.17c0.03,0.02,0.07,0.04,0.1,0.06c-0.01,0.19-0.02,0.39-0.03,0.58c0.02,0.06,0.04,0.11,0.04,0.17
				c0,0.07-0.01,0.14-0.01,0.21c0.08,0.15,0.12,0.32,0.13,0.49c0.05,0.05,0.12,0.08,0.23,0.11c-0.08,0.74,0.59,1.32,0.43,2.08
				c0.12,0.14,0.23,0.28,0.35,0.42l-0.01,0.59c0,0.03,0,0.07,0,0.1c0,0.02,0,0.05,0,0.07c0.01,0.31,0.03,0.61,0.04,0.92v0
				c0.11,0.14,0.19,0.29,0.25,0.44c0.26,0.67,0.17,1.43,0.49,2.08c0,0.01,0.01,0.02,0.01,0.03c0.06,0,0.12,0,0.18,0.01
				c0,0.06,0,0.11,0.01,0.17c-0.01,0.16-0.01,0.33,0,0.49c0.01,0.17,0.05,0.33,0.11,0.48c0.06,0.14,0.14,0.28,0.26,0.4
				c0.15,1.37,0.37,2.72,0.7,4.06c0.14,0.56,0.12,1.13,0.08,1.69c0.01,0.06,0.02,0.12,0.02,0.19c0.12,0.08,0.24,0.16,0.36,0.23
				c0,0,0,0.01,0,0.01c0,0,0-0.01,0-0.01s0,0,0,0.01c0,0.09-0.01,0.18-0.01,0.27c-0.01,0.21-0.01,0.43-0.02,0.64
				c0,0.07,0,0.15-0.01,0.22c0.02,0.19,0.05,0.37,0.07,0.56c0.01,0.05,0.01,0.11,0.02,0.16c0.15,1.23,0.27,2.46,0.45,3.68
				c0.21,1.44,0.55,2.87,0.66,4.32c0.02,0.25,0.03,0.5,0.03,0.75c0,0.21,0,0.43-0.02,0.65c0,0.01,0,0.02,0,0.03v0
				c0,0.01,0,0.01,0.01,0.02c0.12,0.33,0.2,0.66,0.26,1c0.01,0.08,0.03,0.17,0.04,0.25c0.07,0.5,0.09,1.01,0.1,1.52v0.4
				c0,0.57,0.1,1.08,0.73,1.29c0.03-0.01,0.05-0.01,0.08-0.02c0,0,0,0,0.01,0c0.04-0.01,0.08-0.02,0.12-0.03
				c0.26,0.02,0.52,0.04,0.77,0.05c0.76-0.32,0.96-1.03,1.15-1.71c0.3-1.05,0.38-2.11,0.4-3.17c-0.01-0.22-0.01-0.44,0-0.65
				c0-0.59-0.02-1.19-0.02-1.78c0.08-0.07,0.15-0.15,0.21-0.23c0.11-0.15,0.17-0.33,0.18-0.53c0.44-0.6,0.81-1.24,0.88-2
				c0.01-0.05,0.01-0.09,0.01-0.15c0.02-0.03,0.05-0.06,0.07-0.08c0.34-0.42,0.39-0.97,0.53-1.46c0.28-0.98,0.88-1.87,1-2.89
				c0.01-0.11,0.02-0.23,0.03-0.35c0.41-0.12,0.32-0.47,0.35-0.77c0.1-0.1,0.19-0.2,0.25-0.32c0.07-0.13,0.13-0.27,0.15-0.43
				c0.59-0.91,0.86-1.96,1.34-2.91c0-0.07-0.01-0.14-0.01-0.2v-0.01c-0.01-0.07-0.01-0.13-0.02-0.2c0.04-0.05,0.09-0.09,0.13-0.14
				c0.08-0.09,0.16-0.17,0.25-0.26c0.01-0.21,0.04-0.42,0.21-0.53c0.05-0.03,0.1-0.06,0.17-0.07c-0.02-0.06-0.01-0.11,0.02-0.15
				c-0.01-0.03-0.01-0.06-0.01-0.09c-0.02-0.46,0.56-0.75,0.41-1.25c0.43-0.08,0.36-0.41,0.38-0.71c0-0.01,0-0.02,0-0.03
				c0.11-0.02,0.21-0.04,0.32-0.06c-0.03-0.55,0.37-0.91,0.61-1.33c0.36-0.82,0.82-1.57,1.54-2.12c0.13-0.19,0.26-0.38,0.4-0.57
				c0.06-0.02,0.12-0.04,0.17-0.06c0.35-0.16,0.56-0.48,0.76-0.81c0.02-0.03,0.03-0.05,0.05-0.08v0c0.05,0,0.11-0.01,0.16-0.02v0
				c0.21-0.41,0.46-0.76,0.99-0.74c0.14-0.08,0.22-0.2,0.22-0.37c0.04,0.01,0.08,0,0.12,0c0.44,0,0.78-0.33,1.19-0.43
				c0.51,0.13,1.02,0.27,1.53,0.4c0.06,0.12,0.12,0.24,0.19,0.36l0.02,0.03c0.13-0.01,0.25-0.01,0.38-0.02
				c0.4,0.09,0.58,0.48,0.89,0.7c0.07,0.06,0.15,0.1,0.25,0.13c0,0.16,0.02,0.31,0.22,0.33c0.11,0.18,0.21,0.37,0.31,0.56
				c0.27,0.51,0.54,1.03,0.93,1.47c0.03,0.03,0.05,0.06,0.08,0.09c0.03,0.09,0.06,0.19,0.08,0.28c0.25,0.82,0.55,1.62,0.93,2.38
				c0.1,0.21,0.21,0.41,0.33,0.62h0c-0.01,0.04-0.01,0.08-0.01,0.12c0.17,0.23,0.18,0.48,0.18,0.74c0.06,0.11,0.13,0.21,0.22,0.3
				c-0.13,0.58,0.4,0.97,0.41,1.51c0,0.06,0,0.13,0,0.19c-0.02,0.26-0.06,0.52,0.14,0.7c0.05,0.05,0.12,0.09,0.22,0.12
				c0.01,0.18,0.03,0.35,0.04,0.53c0,0.08,0,0.15,0,0.22c0,0.3,0,0.59,0.01,0.88l0.13,0.03l0.03,0.01c0.06,0.01,0.12,0.03,0.18,0.04
				c0.01,0.12,0.02,0.24,0.03,0.36l-0.01,0.23c0,0.11-0.01,0.22-0.01,0.33c0,0.07-0.01,0.15-0.01,0.22
				c-0.01,0.2-0.01,0.39-0.02,0.59c0.05,0.02,0.1,0.05,0.16,0.07c0.02,0.01,0.04,0.02,0.06,0.03c0.06,0.03,0.13,0.06,0.19,0.09
				c0,0.38,0,0.77,0,1.15c0.01,0.24,0.03,0.48,0.04,0.72l0,0c0.3,0.19,0.35,0.49,0.36,0.81c-0.01,0.28-0.02,0.55-0.03,0.83
				c0,0.05,0,0.09,0,0.14c-0.05,0.85,0.14,1.67,0.29,2.5c0.04,0.38,0.09,0.75,0.12,1.12c0.01,0.26,0.03,0.52,0,0.79
				c0.01,0.38,0.01,0.75,0.02,1.13v0c0.14,0.62,0.25,1.24,0.31,1.86c0.11,1.03,0.12,2.06,0.02,3.09c-0.06,0.68-0.18,1.36-0.34,2.03
				l0,0.29c0,0.02,0,0.04,0,0.06v0c0,0.26-0.01,0.51-0.01,0.77v0.03c-0.01,0.25-0.01,0.49-0.02,0.74c-0.02,0-0.05,0.01-0.07,0.02
				c0.02,0.03,0.05,0.07,0.08,0.1c0.11,1.18-0.49,2.28-0.43,3.46c0,0.08,0.01,0.16,0.02,0.23c-0.03,0.02-0.05,0.04-0.08,0.06
				c-0.39,0.3-0.31,0.7-0.27,1.09c0.02,0.15,0.03,0.29,0.01,0.43c-0.01,0.25-0.02,0.5-0.04,0.75c-0.1,0.05-0.18,0.11-0.23,0.17
				c-0.24,0.25-0.16,0.59-0.13,0.91c0.01,0.1,0.01,0.2,0,0.29c-0.01,0.12-0.03,0.24-0.04,0.37c0.01,0.2,0.01,0.4,0.02,0.59
				c-0.03,0.01-0.05,0.03-0.07,0.04c-0.03,0.02-0.06,0.04-0.09,0.06c-0.07,0.04-0.13,0.07-0.19,0.11c-0.01,0.18-0.03,0.37-0.04,0.55
				l0.02,0.17c0,0.02,0.01,0.04,0.01,0.06c0.01,0.06,0.01,0.11,0.02,0.17c-0.02,0.18-0.03,0.36-0.04,0.53v0l-0.18,0.03
				c-0.01,0-0.02,0-0.03,0.01c-0.05,0.01-0.09,0.01-0.14,0.02c0,0.13,0,0.26,0,0.39v0.17c-0.01,0.12-0.02,0.23-0.03,0.35
				c-0.08,0.09-0.15,0.19-0.21,0.29c-0.01,0.26-0.03,0.52-0.18,0.75c0,0.05,0.01,0.1,0.02,0.16c-0.05,0.41-0.47,0.69-0.39,1.14
				c-0.09,0.25-0.19,0.5-0.29,0.74c-0.39,0.97-0.81,1.93-1.01,2.96c-0.02,0.11-0.04,0.21-0.06,0.32c-0.03,0.05-0.06,0.1-0.09,0.15
				C419.88,1305.83,419.56,1306.69,419.37,1307.6 M423.02,1313.63L423.02,1313.63c0.01,0.01,0.01,0.01,0.02,0.02
				C423.03,1313.64,423.02,1313.64,423.02,1313.63 M423.04,1313.64c0,0-0.01-0.01-0.02-0.02
				C423.03,1313.64,423.04,1313.64,423.04,1313.64 M424.33,1313.85c0,0.04,0,0.08,0,0.12
				C424.33,1313.93,424.33,1313.89,424.33,1313.85C424.33,1313.85,424.33,1313.85,424.33,1313.85
				C424.33,1313.85,424.33,1313.85,424.33,1313.85 M427.47,1320.47L427.47,1320.47L427.47,1320.47L427.47,1320.47
				C427.47,1320.47,427.47,1320.47,427.47,1320.47C427.47,1320.47,427.47,1320.47,427.47,1320.47
				C427.47,1320.47,427.47,1320.47,427.47,1320.47c0.04-0.02,0.09-0.02,0.14,0.01C427.56,1320.46,427.51,1320.46,427.47,1320.47
				 M427.64,1314.02C427.64,1314.02,427.64,1314.02,427.64,1314.02l0.01,0C427.65,1314.02,427.64,1314.02,427.64,1314.02
				 M424.52,1340.69C424.52,1340.69,424.52,1340.69,424.52,1340.69C424.52,1340.69,424.52,1340.69,424.52,1340.69 M481.87,1313.2
				L481.87,1313.2L481.87,1313.2L481.87,1313.2c-0.01-0.02-0.02-0.03-0.04-0.04c0.01,0.01,0.02,0.02,0.03,0.03L481.87,1313.2
				C481.87,1313.2,481.87,1313.2,481.87,1313.2L481.87,1313.2z M482.24,1313.3L482.24,1313.3c0,0.06,0.01,0.11,0.01,0.17
				C482.25,1313.41,482.24,1313.35,482.24,1313.3 M482.64,1281.42L482.64,1281.42L482.64,1281.42L482.64,1281.42 M482.06,1278.8
				c0,0-0.01,0.01-0.01,0.01l0,0C482.06,1278.81,482.06,1278.8,482.06,1278.8 M477.42,1279.51
				C477.42,1279.51,477.43,1279.51,477.42,1279.51C477.43,1279.51,477.43,1279.51,477.42,1279.51L477.42,1279.51L477.42,1279.51
				L477.42,1279.51L477.42,1279.51L477.42,1279.51z M475.35,1280.29c0,0,0,0.01,0,0.01c0,0-0.01,0-0.01,0
				C475.35,1280.3,475.35,1280.29,475.35,1280.29c0-0.01-0.01-0.01-0.01-0.02C475.34,1280.28,475.35,1280.28,475.35,1280.29
				 M454.53,1290.95L454.53,1290.95c0,0.01,0.02,0.01,0.03,0.01C454.55,1290.96,454.54,1290.96,454.53,1290.95L454.53,1290.95z
				 M453.91,1298.94c0.01-0.01,0.01-0.02,0.02-0.03C453.92,1298.92,453.92,1298.93,453.91,1298.94
				C453.91,1298.94,453.91,1298.94,453.91,1298.94L453.91,1298.94z M452.99,1292.17c-0.13,0.08-0.25,0.15-0.38,0.23v0
				C452.73,1292.33,452.86,1292.25,452.99,1292.17 M452.6,1292.4C452.6,1292.4,452.6,1292.4,452.6,1292.4
				C452.6,1292.4,452.6,1292.4,452.6,1292.4C452.6,1292.4,452.6,1292.4,452.6,1292.4 M452.59,1292.4L452.59,1292.4
				c-0.09,0.09-0.19,0.17-0.28,0.25C452.41,1292.57,452.5,1292.49,452.59,1292.4 M439.55,1307.44L439.55,1307.44L439.55,1307.44
				L439.55,1307.44L439.55,1307.44L439.55,1307.44z M439.55,1307.45C439.55,1307.45,439.55,1307.45,439.55,1307.45L439.55,1307.45
				C439.55,1307.45,439.55,1307.45,439.55,1307.45 M439.54,1307.44L439.54,1307.44L439.54,1307.44L439.54,1307.44L439.54,1307.44
				C439.54,1307.44,439.54,1307.44,439.54,1307.44C439.54,1307.44,439.54,1307.44,439.54,1307.44 M428.21,1315.72
				c0-0.01,0.01-0.02,0.01-0.03L428.21,1315.72C428.21,1315.72,428.21,1315.73,428.21,1315.72
				C428.21,1315.73,428.21,1315.72,428.21,1315.72 M428,1315.71L428,1315.71c0.07,0.01,0.14,0.02,0.21,0.02
				C428.14,1315.73,428.07,1315.73,428,1315.71L428,1315.71 M428.09,1321.08L428.09,1321.08c0.02,0.02,0.05,0.04,0.07,0.06
				C428.14,1321.13,428.12,1321.1,428.09,1321.08 M432.38,1329.81L432.38,1329.81c0.1,0.03,0.2,0.02,0.27-0.03
				C432.58,1329.83,432.48,1329.84,432.38,1329.81 M447.44,1335.31c-0.11,0-0.21,0-0.32,0.01c0.09-0.01,0.19-0.02,0.28-0.03
				c0.11-0.01,0.23-0.01,0.34-0.02C447.66,1335.3,447.56,1335.31,447.44,1335.31 M452.02,1334.7c0,0,0.01,0,0.01-0.01
				C452.03,1334.69,452.02,1334.69,452.02,1334.7 M458.37,1329.43L458.37,1329.43c0.01,0.04,0.01,0.08,0.01,0.13
				C458.39,1329.51,458.38,1329.47,458.37,1329.43 M462.03,1327.44c-0.36,0.01-0.53,0.53-0.96,0.37l-1.52,0.84
				c-0.03,0.02-0.07,0.03-0.1,0.04c-0.39,0.16-0.84,0.22-1.09,0.63h0c-0.18,0.02-0.36,0.04-0.54,0.06
				c-0.02,0.03-0.04,0.06-0.05,0.09c-0.01,0.03-0.03,0.05-0.05,0.08c-0.04,0.06-0.08,0.13-0.11,0.19l-0.56,0.03
				c-0.26,0.12-0.52,0.24-0.78,0.36c-0.43,0.4-0.94,0.59-1.52,0.61c-0.21,0.25-0.49,0.31-0.79,0.36c-0.1-0.01-0.2,0-0.3,0.01
				c-0.11,0.02-0.21,0.05-0.31,0.09c-0.13,0.06-0.26,0.15-0.37,0.27c-0.25,0.01-0.5,0.02-0.75,0.04c-1.21,0.63-2.57,0.73-3.86,1.13
				c-0.21-0.02-0.41-0.02-0.61-0.01c-1.28,0.05-2.51,0.53-3.8,0.55c-0.19,0-0.4,0.02-0.57,0.16c-0.02,0.02-0.04,0.03-0.05,0.05h0
				c-0.42,0.01-0.84,0.02-1.26,0.03c-1.27,0.03-2.54,0.07-3.81,0.1c-0.27,0.01-0.5-0.07-0.66-0.3l0.28-0.13
				c0.04-0.01,0.09-0.03,0.12-0.05c0.35,0.01,0.67-0.08,1.01-0.18c1.95-0.62,3.91-1.19,5.87-1.78c0.1-0.09,0.21-0.17,0.32-0.23
				c0.2-0.11,0.41-0.16,0.64-0.16c0.07,0,0.13,0,0.2,0.01h0c0.13-0.11,0.28-0.19,0.43-0.25c0.54-0.22,1.16-0.22,1.7-0.45
				c0.14-0.06,0.28-0.14,0.41-0.24c0.98,0.06,1.84-0.66,2.85-0.42c0.13-0.11,0.26-0.22,0.39-0.34c0.01,0,0.01-0.01,0.01-0.01l0,0
				l0,0c0,0,0,0,0,0l0,0h0c-0.17-0.15-0.35-0.2-0.53-0.21c0.18,0.01,0.37,0.06,0.54,0.21l0,0c-0.18-0.19-0.44-0.32-0.74-0.37
				c0.3,0.05,0.56,0.18,0.74,0.37h0c0,0,0,0,0,0l0.01,0l0,0c0.7,0.14,1.29-0.2,1.91-0.4c0.08-0.01,0.17-0.01,0.25-0.01
				c0.32,0.02,0.66,0.1,0.92-0.11c0.07-0.06,0.14-0.14,0.2-0.25c0.37-0.01,0.74-0.03,1.11-0.04c0.08,0,0.16,0,0.24,0.01
				c0.24,0.03,0.49,0.08,0.65-0.12c0.04-0.05,0.08-0.13,0.11-0.23c0.92,0.09,1.73-0.53,2.65-0.44c0.33-0.28,0.74-0.34,1.14-0.45v0
				c0.01,0,0.03-0.01,0.05-0.01c0.19-0.04,0.38-0.07,0.57-0.11v0c0.28,0.04,0.39,0.18,0.39,0.39
				C462.05,1327.3,462.05,1327.36,462.03,1327.44 M447.23,1329.37L447.23,1329.37C447.23,1329.37,447.23,1329.37,447.23,1329.37
				C447.23,1329.37,447.23,1329.37,447.23,1329.37 M467.25,1326.11c0-0.01-0.01-0.02-0.01-0.03
				C467.24,1326.09,467.25,1326.1,467.25,1326.11L467.25,1326.11z M470.55,1326.56L470.55,1326.56c0.07-0.51,0.44-0.72,0.86-0.87
				C470.99,1325.85,470.62,1326.05,470.55,1326.56 M476.65,1313.58c-0.05,0.01-0.1,0.02-0.16,0.02c-0.1,0.33-0.16,0.69-0.6,0.76
				c-0.19,0.26-0.37,0.52-0.56,0.78c-0.14,0.42-0.29,0.83-0.81,0.92l-0.15,0.22c-0.02,0.04-0.05,0.07-0.07,0.11
				c-0.18,0.28-0.36,0.56-0.54,0.84c-0.67,0.35-1.05,0.99-1.52,1.55c-0.13,0.14-0.26,0.27-0.4,0.41c-0.4,0.18-0.79,0.35-1.19,0.53h0
				c-1.42-0.08-2.81,0.09-4.2,0.4c-0.73,0.06-1.52-0.22-2.16,0.37h0c-0.37,0.01-0.74,0.03-1.1,0.04c-0.48,0.04-1.04-0.26-1.39,0.34
				h0c-0.24,0.02-0.49,0.04-0.73,0.05c-0.42,0.03-0.93-0.24-1.21,0.33h0c-0.5,0.01-0.99,0.01-1.49,0.02c0,0-0.02,0.01-0.03,0.02
				c-0.02,0.01-0.04,0.02-0.04,0.02l-0.08,0c-0.3,0.46-0.76,0.36-1.19,0.35c-0.24,0.01-0.47,0.02-0.71,0.03
				c-0.35,0.58-0.92,0.31-1.4,0.38l-0.08,0.02l-0.08-0.02l0,0c-0.27,0.28-0.62,0.36-0.99,0.38h0c-0.38,0.13-0.77,0.25-1.15,0.38
				c-0.64,0.19-1.29,0.39-1.93,0.58c-0.11-0.01-0.22,0-0.32,0.01c-0.42,0.07-0.81,0.31-1.23,0.38c-0.18,0.03-0.37,0.03-0.57-0.02
				c-0.7,0.44-1.54,0.43-2.29,0.74c-1.05,0.44-2.23,0.51-3.22,1.12c-0.03,0.02-0.06,0.03-0.08,0.05c-0.15,0.01-0.31,0.03-0.45,0.06
				c-0.94,0.15-1.8,0.54-2.66,0.95c-0.14,0.07-0.28,0.14-0.42,0.2c-0.11,0.05-0.21,0.1-0.32,0.15c-0.31,0.01-0.56,0.16-0.77,0.36
				c-0.08,0-0.15,0.01-0.23,0.01c-0.17,0.01-0.35,0.01-0.52,0.02c-0.01,0.05-0.01,0.1-0.02,0.14c0,0.01,0,0.01,0,0.02
				c-0.01,0.07-0.01,0.13-0.02,0.2c-0.57-0.13-0.95,0.55-1.53,0.37l0.02,0.04c-0.05-0.01-0.1-0.01-0.14-0.01
				c-0.13,0.09-0.27,0.16-0.42,0.2c-0.02,0.04-0.04,0.09-0.05,0.16h-0.08l-0.07,0.02c-0.05,0-0.11,0-0.16,0
				c-0.25,0.01-0.5,0.01-0.76,0.02c-0.01,0.04-0.01,0.09-0.02,0.13c-0.01,0.07-0.03,0.15-0.04,0.22c-0.01,0-0.02,0-0.03,0
				c-0.11,0.01-0.22,0.03-0.33,0.04c-0.02,0-0.05-0.01-0.07-0.02c-0.19-0.05-0.27-0.15-0.3-0.27c-0.04-0.14-0.02-0.3-0.02-0.45
				c0-0.35,0-0.7,0.01-1.05c0-0.29,0-0.58-0.02-0.87c-0.01-0.16,0-0.32,0-0.47c-0.02-0.29-0.04-0.57-0.07-0.86
				c-0.02-0.06-0.04-0.12-0.08-0.18c-0.05-0.1-0.13-0.2-0.23-0.3v0v0c0.03-1.03-0.24-1.97-0.74-2.86c-0.01-0.01-0.01-0.02-0.02-0.04
				c0-0.02-0.01-0.05-0.01-0.07c0-0.02,0-0.03-0.01-0.05c-0.07-0.6-0.22-1.16-0.67-1.57c-0.09-0.08-0.19-0.16-0.3-0.22
				c-0.04-0.07-0.07-0.13-0.11-0.2c-0.22-0.03-0.25-0.2-0.28-0.37c0-0.05,0-0.1,0-0.16v-0.04c0-0.06,0-0.13,0-0.19
				c-0.64-0.7-1.28-1.41-1.93-2.12h0c-0.41-0.21-0.8-0.44-0.93-0.94c0,0,0-0.01,0-0.01c0.01-0.01,0.02-0.01,0.03-0.02
				c0.49-0.24,1.04-0.41,1.27-0.99c0.46-0.26,0.93-0.51,1.31-0.89c0.08-0.08,0.15-0.16,0.22-0.25c0.36,0.06,0.45-0.4,0.78-0.39
				c0.01-0.11,0.02-0.23,0.03-0.34c0.11,0,0.21-0.04,0.3-0.09c0.17-0.1,0.31-0.26,0.5-0.31c0.05-0.01,0.1-0.02,0.16-0.01l0,0
				c0.72,0,1.11-0.51,1.51-0.99c0.13-0.12,0.27-0.25,0.41-0.37c0.46-0.07,0.8-0.3,1.01-0.72c0.63-0.39,1.34-0.66,1.87-1.19
				c0-0.01,0-0.02,0-0.04c0-0.02,0-0.05,0-0.07c0-0.03,0-0.06-0.01-0.08c0.22-0.21,0.48-0.33,0.78-0.39h0.14h0.01
				c0.08,0,0.16,0,0.24,0c0.35-0.4,0.93-0.54,1.26-0.97c0.04-0.05,0.07-0.11,0.11-0.17c0.77-0.52,1.54-1.03,2.31-1.54
				c0.04,0,0.08,0.01,0.12,0.01c0.24,0,0.43-0.07,0.46-0.39l0.35-0.02c0.01-0.07,0.03-0.12,0.06-0.17c0.18-0.27,0.63-0.23,0.76-0.56
				c0.52,0.07,0.83-0.26,1.12-0.62v0c1.03-0.65,2.08-1.27,3.09-1.95c0.93-0.63,1.98-1.08,2.85-1.81c0.09-0.08,0.19-0.16,0.28-0.24
				c0.83-0.25,1.49-0.82,2.25-1.18c0.04,0.01,0.08,0.02,0.12,0.03h0c0.03,0.01,0.05,0.01,0.08,0.02c0.12-0.02,0.24-0.03,0.37-0.05
				c0.01-0.07,0.01-0.15,0.02-0.22c0-0.05,0.01-0.09,0.01-0.14c1.44-0.65,2.74-1.57,4.21-2.2c0.94-0.4,1.81-0.97,2.71-1.47
				c1.4-0.42,2.69-1.07,3.97-1.75l0.67-0.36c0.69-0.27,1.39-0.53,2.09-0.8c0.06,0.01,0.12,0.01,0.18,0.01
				c0.12-0.08,0.24-0.15,0.38-0.19c0.02-0.05,0.04-0.1,0.05-0.16c0.06,0,0.11-0.01,0.16-0.04c0.06,0,0.12,0,0.18,0
				c0.14,0,0.27,0,0.41,0l0.18,0c0.07-0.12,0.13-0.24,0.2-0.36c0.06-0.01,0.13-0.02,0.19-0.02c0.18,0,0.37,0,0.56,0.01
				c0.06-0.1,0.13-0.17,0.2-0.23c0.17-0.13,0.38-0.16,0.6-0.15c0.06,0,0.12,0,0.19,0.01l0,0c0.55,0.01,0.95-0.51,1.52-0.42
				c0.08-0.07,0.15-0.14,0.23-0.2c0.01-0.01,0.03-0.03,0.04-0.04c0.02-0.02,0.04-0.04,0.07-0.06c0.02-0.02,0.04-0.04,0.07-0.06
				l0-0.01c0.17-0.04,0.34-0.07,0.51-0.1c0.71-0.14,1.41-0.26,2.13-0.34c1.51-0.18,3.03-0.22,4.56-0.12c0.11,0.01,0.22,0,0.33,0
				c0.2,0,0.41,0.02,0.58,0.18c0.19,0.05,0.37,0.1,0.55,0.16l0.19,0.06c0,0.03,0,0.05,0,0.08c0,0.04,0,0.07,0.01,0.1
				c0.45-0.08,0.72,0.36,1.14,0.4l0.11-0.02c0.01,0,0.03,0,0.04-0.01c0.03-0.01,0.06-0.01,0.08-0.02c0.18,0.04,0.3,0.12,0.33,0.27
				c0.01,0.05,0.01,0.1,0,0.16c0.07,0.05,0.15,0.11,0.22,0.16c0.54,0.36,1.06,0.75,1.34,1.37v0c0.03,0.03,0.05,0.07,0.07,0.1
				c0.08,0.11,0.15,0.22,0.23,0.33c0.02,0.03,0.04,0.05,0.06,0.08c0.07,0.1,0.13,0.2,0.2,0.29c0.01,0.24,0.02,0.49,0.03,0.73
				c0,0.12,0,0.23,0,0.35c0,0.03,0,0.06,0,0.09c0,0.16,0,0.31,0,0.47c0,0.05,0,0.09,0,0.14c0,0.09,0,0.19,0,0.28l0.01,0.01
				c-0.03,0-0.06-0.01-0.1-0.01c-0.01,0-0.02,0-0.03,0c-0.03,0-0.06-0.01-0.08-0.01c-0.28,0.67-0.58,1.34-0.71,2.07
				c-0.03,0.15-0.05,0.3-0.06,0.46c-0.56,0.2-0.1,1.02-0.71,1.19c0.02,0.81-0.32,1.48-0.8,2.1c-0.03,0.84-0.61,1.45-0.95,2.16
				c-0.08,0.24-0.15,0.48-0.23,0.71c-0.07,0.07-0.13,0.15-0.19,0.22c-0.12,0.13-0.24,0.27-0.35,0.4c0,0.06-0.01,0.11-0.04,0.16
				c0.01,0.05,0.01,0.09,0.01,0.14c-0.01,0.13-0.07,0.23-0.16,0.31c-0.06,0.05-0.13,0.1-0.2,0.15c-0.28,0.76-0.6,1.5-1.17,2.1
				c0.01,0.04,0.02,0.08,0.03,0.12c0,0.02,0.01,0.05,0.02,0.07c-0.31,0.81-1,1.41-1.22,2.27c-0.06,0.01-0.12,0.02-0.18,0.03
				c-0.02,0-0.04,0.01-0.06,0.01l-0.13,0.02c-0.44,1.28-1.44,2.22-2.03,3.41C476.72,1313.43,476.69,1313.5,476.65,1313.58
				 M478.21,1319.75L478.21,1319.75c1.12-0.01,2.24-0.01,3.36-0.01C480.45,1319.74,479.33,1319.74,478.21,1319.75 M484.35,1324.67
				c-0.01,0-0.01,0-0.02-0.01C484.34,1324.66,484.35,1324.66,484.35,1324.67L484.35,1324.67L484.35,1324.67z M487.25,1325.06
				L487.25,1325.06c0.09,0,0.18,0,0.27,0C487.43,1325.06,487.34,1325.06,487.25,1325.06 M493.57,1325.72L493.57,1325.72
				c0.07-0.02,0.16-0.01,0.24-0.02C493.72,1325.72,493.64,1325.7,493.57,1325.72 M495.29,1322.08L495.29,1322.08
				C495.29,1322.08,495.29,1322.08,495.29,1322.08L495.29,1322.08z M499.21,1324.08c-0.03-0.03-0.07-0.07-0.1-0.1
				C499.15,1324.01,499.18,1324.05,499.21,1324.08L499.21,1324.08L499.21,1324.08z M501.88,1325.42c-0.52-0.42-1.17-0.62-1.76-0.92
				C500.72,1324.81,501.36,1325,501.88,1325.42L501.88,1325.42z M501.93,1325.45L501.93,1325.45c0.01,0,0.03,0.01,0.05,0.02
				C501.96,1325.46,501.94,1325.45,501.93,1325.45 M505.14,1329.77L505.14,1329.77c0.03-0.08,0.05-0.15,0.08-0.23
				C505.19,1329.62,505.17,1329.69,505.14,1329.77 M505.24,1327.9L505.24,1327.9C505.24,1327.9,505.25,1327.9,505.24,1327.9
				L505.24,1327.9c0.04,0.42-0.1,0.87,0.1,1.28C505.15,1328.77,505.28,1328.32,505.24,1327.9 M502.65,1342.84
				c-0.31-0.06-0.6-0.06-0.9-0.02C502.04,1342.78,502.34,1342.77,502.65,1342.84 M503.44,1343.25L503.44,1343.25L503.44,1343.25
				C503.44,1343.25,503.44,1343.24,503.44,1343.25L503.44,1343.25C503.44,1343.25,503.44,1343.25,503.44,1343.25L503.44,1343.25
				C503.44,1343.25,503.44,1343.25,503.44,1343.25C503.44,1343.25,503.44,1343.25,503.44,1343.25 M508.03,1331.5L508.03,1331.5
				C508.03,1331.5,508.03,1331.51,508.03,1331.5C508.03,1331.51,508.03,1331.5,508.03,1331.5 M509.96,1331.98
				c-0.1,0.23-0.39,0.42-0.38,0.64C509.57,1332.4,509.86,1332.21,509.96,1331.98C509.96,1331.97,509.96,1331.98,509.96,1331.98
				C509.96,1331.98,509.96,1331.98,509.96,1331.98"/>
		</g>
	</g>
	<g>
		<g>
			<g>
				<path class="st10" d="M398.64,76.24c-0.74,0.6-1.59,1.04-2.51,1.32c-0.9,0.28-1.89,0.42-2.93,0.42c-1.06,0-2.05-0.16-2.93-0.48
					c-0.88-0.32-1.65-0.78-2.27-1.38c-0.62-0.6-1.12-1.32-1.47-2.18c-0.34-0.86-0.52-1.82-0.52-2.9c0-0.96,0.16-1.86,0.52-2.7
					c0.32-0.86,0.82-1.6,1.45-2.24c0.64-0.64,1.43-1.14,2.33-1.52c0.9-0.38,1.95-0.56,3.09-0.56c1,0,1.93,0.16,2.81,0.46
					c0.84,0.3,1.63,0.76,2.31,1.38l-1.69,2.16c-0.46-0.42-0.98-0.74-1.59-0.96c-0.58-0.2-1.25-0.3-1.95-0.3
					c-0.64,0-1.23,0.1-1.75,0.3c-0.54,0.2-0.98,0.48-1.37,0.84c-0.38,0.38-0.66,0.82-0.88,1.36c-0.2,0.52-0.3,1.1-0.3,1.74
					c0,0.66,0.1,1.26,0.32,1.78c0.22,0.52,0.5,0.96,0.9,1.32c0.36,0.38,0.82,0.66,1.35,0.84c0.52,0.2,1.08,0.3,1.71,0.3
					c0.96,0,1.79-0.18,2.49-0.52v-2.04l-2.37-0.14v-2.5h5.24V76.24z"/>
				<path class="st10" d="M404.41,74.96h7.27v2.74h-10.28v-13.4h3.01V74.96z"/>
				<path class="st10" d="M422.65,64.53c0.88,0.36,1.65,0.86,2.25,1.48c0.64,0.62,1.12,1.36,1.47,2.2c0.34,0.86,0.52,1.78,0.52,2.78
					c0,0.96-0.18,1.86-0.52,2.7c-0.34,0.86-0.84,1.6-1.47,2.24c-0.62,0.62-1.39,1.12-2.25,1.48c-0.88,0.38-1.85,0.56-2.91,0.56
					c-1.04,0-2.01-0.18-2.87-0.52c-0.86-0.36-1.63-0.86-2.25-1.48c-0.64-0.62-1.14-1.36-1.49-2.22c-0.34-0.86-0.52-1.78-0.52-2.76
					c0-0.96,0.18-1.86,0.52-2.72c0.34-0.86,0.84-1.6,1.49-2.22c0.62-0.62,1.39-1.12,2.25-1.48c0.86-0.38,1.83-0.56,2.87-0.56
					C420.8,64.01,421.76,64.19,422.65,64.53z M417.99,67.03c-0.5,0.22-0.94,0.54-1.29,0.92c-0.36,0.38-0.64,0.84-0.82,1.36
					c-0.18,0.52-0.28,1.08-0.28,1.68c0,0.6,0.1,1.16,0.28,1.7c0.18,0.52,0.46,0.98,0.82,1.36c0.36,0.38,0.8,0.68,1.31,0.92
					c0.5,0.2,1.08,0.32,1.73,0.32c0.66,0,1.25-0.12,1.75-0.34c0.52-0.22,0.96-0.54,1.33-0.94c0.34-0.38,0.6-0.84,0.8-1.36
					c0.16-0.52,0.26-1.08,0.26-1.66c0-0.62-0.1-1.18-0.28-1.7c-0.18-0.54-0.46-1-0.82-1.38c-0.34-0.38-0.78-0.68-1.29-0.9
					c-0.52-0.22-1.1-0.32-1.75-0.32C419.09,66.69,418.51,66.81,417.99,67.03z"/>
				<path class="st10" d="M438.6,65.27c0.82,0.66,1.23,1.54,1.23,2.68c0,0.56-0.12,1.06-0.34,1.5c-0.24,0.44-0.56,0.76-0.96,0.98
					v0.18c0.66,0.22,1.19,0.6,1.57,1.16c0.4,0.54,0.6,1.18,0.6,1.92c0,0.54-0.1,1.06-0.28,1.56c-0.2,0.48-0.5,0.9-0.92,1.26
					c-0.4,0.36-0.92,0.64-1.55,0.86c-0.62,0.22-1.37,0.32-2.23,0.32h-6.51v-13.4h5.95C436.65,64.29,437.79,64.61,438.6,65.27z
					 M435.26,69.57c0.5,0,0.9-0.12,1.21-0.36c0.28-0.26,0.42-0.6,0.42-1.02c0-0.9-0.58-1.34-1.73-1.34h-2.97v2.72H435.26z
					 M435.75,75.14c1.33,0,1.99-0.52,1.99-1.58c0-0.5-0.18-0.9-0.52-1.14c-0.34-0.28-0.84-0.4-1.49-0.4h-3.54v3.12H435.75z"/>
				<path class="st10" d="M455.89,77.7h-3.33l-1.02-2.66h-5.77l-1,2.66h-3.27l5.52-13.42h3.31L455.89,77.7z M450.54,72.4l-1.79-5.1
					h-0.2l-1.81,5.1H450.54z"/>
				<path class="st10" d="M460.63,74.96h7.27v2.74h-10.28v-13.4h3.01V74.96z"/>
				<path class="st10" d="M483.65,66.97c-0.66-0.2-1.35-0.3-2.05-0.3c-0.88,0-1.51,0.12-1.89,0.34c-0.38,0.24-0.56,0.56-0.56,0.98
					c0,0.38,0.14,0.68,0.42,0.86c0.28,0.2,0.72,0.34,1.35,0.42l1.97,0.26c1.47,0.2,2.57,0.64,3.31,1.36
					c0.72,0.68,1.08,1.6,1.08,2.74c0,0.66-0.12,1.24-0.38,1.78c-0.26,0.54-0.62,1-1.1,1.36c-0.5,0.4-1.1,0.68-1.85,0.88
					c-0.72,0.22-1.55,0.32-2.49,0.32c-1.1,0-2.13-0.12-3.03-0.34c-0.9-0.22-1.81-0.62-2.67-1.2l1.27-2.46c0.74,0.46,1.51,0.8,2.25,1
					c0.74,0.2,1.55,0.3,2.37,0.3c0.88,0,1.55-0.14,1.99-0.4c0.42-0.26,0.64-0.62,0.64-1.08c0-0.38-0.14-0.7-0.44-0.92
					c-0.3-0.22-0.78-0.38-1.47-0.48l-2.07-0.26c-1.31-0.18-2.33-0.58-3.05-1.22c-0.72-0.64-1.08-1.56-1.08-2.78
					c0-0.66,0.12-1.26,0.4-1.76c0.24-0.52,0.62-0.96,1.08-1.3s1.04-0.62,1.69-0.78c0.68-0.2,1.41-0.28,2.21-0.28
					c1.08,0,2.09,0.14,2.99,0.42c0.9,0.28,1.71,0.7,2.39,1.28l-1.49,2.14C484.9,67.47,484.31,67.17,483.65,66.97z"/>
				<path class="st10" d="M498.81,64.53c0.88,0.36,1.65,0.86,2.25,1.48c0.64,0.62,1.12,1.36,1.47,2.2c0.34,0.86,0.52,1.78,0.52,2.78
					c0,0.96-0.18,1.86-0.52,2.7c-0.34,0.86-0.84,1.6-1.47,2.24c-0.62,0.62-1.39,1.12-2.25,1.48c-0.88,0.38-1.85,0.56-2.91,0.56
					c-1.04,0-2.01-0.18-2.87-0.52c-0.86-0.36-1.63-0.86-2.25-1.48c-0.64-0.62-1.15-1.36-1.49-2.22c-0.34-0.86-0.52-1.78-0.52-2.76
					c0-0.96,0.18-1.86,0.52-2.72c0.34-0.86,0.84-1.6,1.49-2.22c0.62-0.62,1.39-1.12,2.25-1.48c0.86-0.38,1.83-0.56,2.87-0.56
					C496.97,64.01,497.93,64.19,498.81,64.53z M494.15,67.03c-0.5,0.22-0.94,0.54-1.29,0.92c-0.36,0.38-0.64,0.84-0.82,1.36
					c-0.18,0.52-0.28,1.08-0.28,1.68c0,0.6,0.1,1.16,0.28,1.7c0.18,0.52,0.46,0.98,0.82,1.36c0.36,0.38,0.8,0.68,1.31,0.92
					c0.5,0.2,1.08,0.32,1.73,0.32c0.66,0,1.25-0.12,1.75-0.34c0.52-0.22,0.96-0.54,1.33-0.94c0.34-0.38,0.6-0.84,0.8-1.36
					c0.16-0.52,0.26-1.08,0.26-1.66c0-0.62-0.1-1.18-0.28-1.7c-0.18-0.54-0.46-1-0.82-1.38c-0.34-0.38-0.78-0.68-1.29-0.9
					c-0.52-0.22-1.1-0.32-1.75-0.32S494.68,66.81,494.15,67.03z"/>
				<path class="st10" d="M513.99,67.09c-0.6-0.24-1.29-0.34-2.03-0.34c-0.66,0-1.25,0.1-1.79,0.3c-0.52,0.22-0.96,0.5-1.35,0.88
					c-0.38,0.4-0.66,0.84-0.86,1.36c-0.2,0.52-0.3,1.08-0.3,1.7c0,0.64,0.1,1.22,0.3,1.74c0.22,0.52,0.5,0.96,0.88,1.32
					c0.38,0.38,0.82,0.66,1.35,0.88c0.52,0.2,1.1,0.3,1.73,0.3c0.76,0,1.47-0.14,2.15-0.38c0.64-0.28,1.25-0.64,1.77-1.14l1.71,2.1
					c-1.53,1.44-3.46,2.16-5.79,2.16c-1.04,0-2.01-0.16-2.87-0.48c-0.86-0.34-1.61-0.8-2.25-1.4c-0.6-0.62-1.1-1.34-1.45-2.2
					c-0.34-0.86-0.52-1.8-0.52-2.86c0-0.96,0.16-1.86,0.52-2.72c0.32-0.86,0.82-1.6,1.47-2.24c0.64-0.64,1.43-1.14,2.33-1.5
					c0.9-0.38,1.95-0.56,3.09-0.56c1.04,0,2.01,0.16,2.87,0.48c0.86,0.3,1.65,0.76,2.33,1.36l-1.67,2.18
					C515.15,67.61,514.61,67.29,513.99,67.09z"/>
				<path class="st10" d="M522.47,77.7h-3.03v-13.4h3.03V77.7z"/>
				<path class="st10" d="M538.57,77.7h-3.33l-1.02-2.66h-5.77l-1,2.66h-3.27l5.52-13.42H533L538.57,77.7z M533.22,72.4l-1.79-5.1
					h-0.2l-1.81,5.1H533.22z"/>
				<path class="st10" d="M543.31,74.96h7.27v2.74H540.3v-13.4h3.01V74.96z"/>
				<path class="st10" d="M396.01,85.07c0.82,0.66,1.23,1.54,1.23,2.68c0,0.56-0.12,1.06-0.34,1.5c-0.24,0.44-0.56,0.76-0.96,0.98
					v0.18c0.66,0.22,1.19,0.6,1.57,1.16c0.4,0.54,0.6,1.18,0.6,1.92c0,0.54-0.1,1.06-0.28,1.56c-0.2,0.48-0.5,0.9-0.92,1.26
					c-0.4,0.36-0.92,0.64-1.55,0.86c-0.62,0.22-1.37,0.32-2.23,0.32h-6.51v-13.4h5.95C394.06,84.09,395.21,84.41,396.01,85.07z
					 M392.68,89.37c0.5,0,0.9-0.12,1.21-0.36c0.28-0.26,0.42-0.6,0.42-1.02c0-0.9-0.58-1.34-1.73-1.34h-2.97v2.72H392.68z
					 M393.16,94.94c1.33,0,1.99-0.52,1.99-1.58c0-0.5-0.18-0.9-0.52-1.14c-0.34-0.28-0.84-0.4-1.49-0.4h-3.54v3.12H393.16z"/>
				<path class="st10" d="M403.21,91.56c0,1.08,0.26,1.94,0.78,2.58c0.5,0.62,1.27,0.94,2.27,0.94c1.02,0,1.79-0.3,2.29-0.9
					c0.5-0.58,0.76-1.44,0.76-2.58v-7.5h3.03v7.44c0,0.94-0.12,1.78-0.4,2.56c-0.24,0.76-0.64,1.42-1.17,1.96
					c-0.5,0.54-1.15,0.96-1.89,1.28c-0.76,0.28-1.65,0.44-2.63,0.44c-0.98,0-1.85-0.14-2.59-0.44c-0.76-0.28-1.41-0.68-1.93-1.24
					c-0.5-0.52-0.9-1.18-1.17-1.94s-0.4-1.62-0.4-2.56v-7.5h3.03V91.56z"/>
				<path class="st10" d="M422.28,86.77c-0.66-0.2-1.35-0.3-2.05-0.3c-0.88,0-1.51,0.12-1.89,0.34c-0.38,0.24-0.56,0.56-0.56,0.98
					c0,0.38,0.14,0.68,0.42,0.86c0.28,0.2,0.72,0.34,1.35,0.42l1.97,0.26c1.47,0.2,2.57,0.64,3.31,1.36
					c0.72,0.68,1.08,1.6,1.08,2.74c0,0.66-0.12,1.24-0.38,1.78c-0.26,0.54-0.62,1-1.1,1.36c-0.5,0.4-1.1,0.68-1.85,0.88
					c-0.72,0.22-1.55,0.32-2.49,0.32c-1.1,0-2.13-0.12-3.03-0.34s-1.81-0.62-2.67-1.2l1.27-2.46c0.74,0.46,1.51,0.8,2.25,1
					c0.74,0.2,1.55,0.3,2.37,0.3c0.88,0,1.55-0.14,1.99-0.4c0.42-0.26,0.64-0.62,0.64-1.08c0-0.38-0.14-0.7-0.44-0.92
					c-0.3-0.22-0.78-0.38-1.47-0.48l-2.07-0.26c-1.31-0.18-2.33-0.58-3.05-1.22c-0.72-0.64-1.08-1.56-1.08-2.78
					c0-0.66,0.12-1.26,0.4-1.76c0.24-0.52,0.62-0.96,1.08-1.3s1.04-0.62,1.69-0.78c0.68-0.2,1.41-0.28,2.21-0.28
					c1.08,0,2.09,0.14,2.99,0.42c0.9,0.28,1.71,0.7,2.39,1.28l-1.49,2.14C423.53,87.27,422.94,86.97,422.28,86.77z"/>
				<path class="st10" d="M431.29,97.5h-3.03v-13.4h3.03V97.5z"/>
				<path class="st10" d="M446.43,97.5h-3.01l-6.21-8.56v8.56h-2.93v-13.4h2.71l6.53,9.04v-9.04h2.91V97.5z"/>
				<path class="st10" d="M459.51,86.79h-7.09v2.52h6.33v2.62h-6.33v2.86h7.43v2.7h-10.41v-13.4h10.06V86.79z"/>
				<path class="st10" d="M469.39,86.77c-0.66-0.2-1.35-0.3-2.05-0.3c-0.88,0-1.51,0.12-1.89,0.34c-0.38,0.24-0.56,0.56-0.56,0.98
					c0,0.38,0.14,0.68,0.42,0.86c0.28,0.2,0.72,0.34,1.35,0.42l1.97,0.26c1.47,0.2,2.57,0.64,3.31,1.36
					c0.72,0.68,1.08,1.6,1.08,2.74c0,0.66-0.12,1.24-0.38,1.78c-0.26,0.54-0.62,1-1.1,1.36c-0.5,0.4-1.1,0.68-1.85,0.88
					c-0.72,0.22-1.55,0.32-2.49,0.32c-1.1,0-2.13-0.12-3.03-0.34c-0.9-0.22-1.81-0.62-2.67-1.2l1.27-2.46c0.74,0.46,1.51,0.8,2.25,1
					c0.74,0.2,1.55,0.3,2.37,0.3c0.88,0,1.55-0.14,1.99-0.4c0.42-0.26,0.64-0.62,0.64-1.08c0-0.38-0.14-0.7-0.44-0.92
					c-0.3-0.22-0.78-0.38-1.47-0.48l-2.07-0.26c-1.31-0.18-2.33-0.58-3.05-1.22c-0.72-0.64-1.08-1.56-1.08-2.78
					c0-0.66,0.12-1.26,0.4-1.76c0.24-0.52,0.62-0.96,1.08-1.3c0.46-0.34,1.04-0.62,1.69-0.78c0.68-0.2,1.41-0.28,2.21-0.28
					c1.08,0,2.09,0.14,2.99,0.42c0.9,0.28,1.71,0.7,2.39,1.28l-1.49,2.14C470.63,87.27,470.05,86.97,469.39,86.77z"/>
				<path class="st10" d="M482.31,86.77c-0.66-0.2-1.35-0.3-2.05-0.3c-0.88,0-1.51,0.12-1.89,0.34c-0.38,0.24-0.56,0.56-0.56,0.98
					c0,0.38,0.14,0.68,0.42,0.86c0.28,0.2,0.72,0.34,1.35,0.42l1.97,0.26c1.47,0.2,2.57,0.64,3.31,1.36
					c0.72,0.68,1.08,1.6,1.08,2.74c0,0.66-0.12,1.24-0.38,1.78c-0.26,0.54-0.62,1-1.1,1.36c-0.5,0.4-1.1,0.68-1.85,0.88
					c-0.72,0.22-1.55,0.32-2.49,0.32c-1.1,0-2.13-0.12-3.03-0.34c-0.9-0.22-1.81-0.62-2.67-1.2l1.27-2.46c0.74,0.46,1.51,0.8,2.25,1
					c0.74,0.2,1.55,0.3,2.37,0.3c0.88,0,1.55-0.14,1.99-0.4c0.42-0.26,0.64-0.62,0.64-1.08c0-0.38-0.14-0.7-0.44-0.92
					c-0.3-0.22-0.78-0.38-1.47-0.48l-2.07-0.26c-1.31-0.18-2.33-0.58-3.05-1.22c-0.72-0.64-1.08-1.56-1.08-2.78
					c0-0.66,0.12-1.26,0.4-1.76c0.24-0.52,0.62-0.96,1.08-1.3s1.04-0.62,1.69-0.78c0.68-0.2,1.41-0.28,2.21-0.28
					c1.08,0,2.09,0.14,2.99,0.42c0.9,0.28,1.71,0.7,2.39,1.28l-1.49,2.14C483.56,87.27,482.98,86.97,482.31,86.77z"/>
				<path class="st10" d="M501.86,86.77c-0.66-0.2-1.35-0.3-2.05-0.3c-0.88,0-1.51,0.12-1.89,0.34c-0.38,0.24-0.56,0.56-0.56,0.98
					c0,0.38,0.14,0.68,0.42,0.86c0.28,0.2,0.72,0.34,1.35,0.42l1.97,0.26c1.47,0.2,2.57,0.64,3.31,1.36
					c0.72,0.68,1.08,1.6,1.08,2.74c0,0.66-0.12,1.24-0.38,1.78c-0.26,0.54-0.62,1-1.1,1.36c-0.5,0.4-1.1,0.68-1.85,0.88
					c-0.72,0.22-1.55,0.32-2.49,0.32c-1.1,0-2.13-0.12-3.03-0.34c-0.9-0.22-1.81-0.62-2.67-1.2l1.27-2.46c0.74,0.46,1.51,0.8,2.25,1
					c0.74,0.2,1.55,0.3,2.37,0.3c0.88,0,1.55-0.14,1.99-0.4c0.42-0.26,0.64-0.62,0.64-1.08c0-0.38-0.14-0.7-0.44-0.92
					c-0.3-0.22-0.78-0.38-1.47-0.48l-2.07-0.26c-1.31-0.18-2.33-0.58-3.05-1.22c-0.72-0.64-1.08-1.56-1.08-2.78
					c0-0.66,0.12-1.26,0.4-1.76c0.24-0.52,0.62-0.96,1.08-1.3s1.04-0.62,1.69-0.78c0.68-0.2,1.41-0.28,2.21-0.28
					c1.08,0,2.09,0.14,2.99,0.42c0.9,0.28,1.71,0.7,2.39,1.28l-1.49,2.14C503.1,87.27,502.52,86.97,501.86,86.77z"/>
				<path class="st10" d="M510.64,91.56c0,1.08,0.26,1.94,0.78,2.58c0.5,0.62,1.27,0.94,2.27,0.94c1.02,0,1.79-0.3,2.29-0.9
					c0.5-0.58,0.76-1.44,0.76-2.58v-7.5h3.03v7.44c0,0.94-0.12,1.78-0.4,2.56c-0.24,0.76-0.64,1.42-1.17,1.96
					c-0.5,0.54-1.14,0.96-1.89,1.28c-0.76,0.28-1.65,0.44-2.63,0.44s-1.85-0.14-2.59-0.44c-0.76-0.28-1.41-0.68-1.93-1.24
					c-0.5-0.52-0.9-1.18-1.17-1.94c-0.26-0.76-0.4-1.62-0.4-2.56v-7.5h3.03V91.56z"/>
				<path class="st10" d="M529.82,90.18l3.74-6.08h3.23v13.4h-2.95v-8.84h-0.18l-3.11,5.1h-1.57l-3.11-5.1h-0.18v8.84h-2.93v-13.4
					h3.29L529.82,90.18z"/>
				<path class="st10" d="M546.89,90.18l3.74-6.08h3.23v13.4h-2.95v-8.84h-0.18l-3.11,5.1h-1.57l-3.11-5.1h-0.18v8.84h-2.93v-13.4
					h3.29L546.89,90.18z"/>
				<path class="st10" d="M559.93,97.5h-3.03v-13.4h3.03V97.5z"/>
				<path class="st10" d="M573.86,86.81h-4.6V97.5h-2.99V86.81h-4.6v-2.72h12.19V86.81z"/>
			</g>
		</g>
		<g>
			<path class="st10" d="M367.82,41.29c0,0-41.23-4.66-59.23,13.8c-7.64,7.84-10.63,17.95-10.05,26.79
				c1.21,18.43,6.67,31.62,6.67,31.62s13.89,3.46,32.38,1.97c8.87-0.72,18.48-5.13,25.15-13.81
				C378.45,81.24,367.82,41.29,367.82,41.29z M353.7,59.94c-2.91,5.26-7.53,14.36-9.96,20.42c-2.33,5.82-2.69,12.83-2.61,18.18
				c0.03,1.75-4.38,2.94-5.79,3.03c-0.09,0.01-0.17,0.01-0.25,0.01c-1.2,0-1.5-0.59-1.54-0.96c-0.52-5.08-0.28-12.8,1.75-19.27
				c-0.72,0.28-1.44,0.44-2.17,0.44c-0.73,0-1.36-0.21-1.7-0.76c-1.14-1.82-2.17-3.53-3.17-5.18c-2.45-4.05-4.88-7.82-7.94-12.19
				c-0.26-0.37-0.3-0.81-0.1-1.26c0.62-1.41,3.31-2.85,5.37-3.07c1.45-0.15,2.05,0.38,2.34,0.83c3.75,5.95,6.45,10.47,9.25,16.39
				c3.22-7.37,7.03-14.84,7.03-14.84c0.67-1.39,2.41-2.49,5.16-3.25c0.03-0.01,3.29-0.9,4.22,0.21
				C353.74,58.82,354.06,59.29,353.7,59.94z"/>
		</g>
	</g>
</g>
</svg>
