<?xml version="1.0" encoding="utf-8"?>
<!-- Generator: Adobe Illustrator 26.0.1, SVG Export Plug-In . SVG Version: 6.00 Build 0)  -->
<svg version="1.1" id="Layer_1" xmlns="http://www.w3.org/2000/svg" xmlns:xlink="http://www.w3.org/1999/xlink" x="0px" y="0px"
	 viewBox="0 0 1105.41 295.06" style="enable-background:new 0 0 1105.41 295.06;" xml:space="preserve">
<style type="text/css">
	.st0{fill:#F16145;}
	.st1{fill:#FFC35A;}
	.st2{enable-background:new    ;}
	.st3{fill:#FFFFFF;}
	.st4{fill:#373737;}
	.st5{fill:none;stroke:#F16145;stroke-width:5.1465;}
	.st6{fill:#404040;}
	.st7{fill:none;stroke:#70C5D9;stroke-width:5.0331;stroke-miterlimit:10;}
	.st8{fill:#356AA0;}
	.st9{fill:#41B175;}
	.st10{fill:none;stroke:#70C5D9;stroke-width:5.0999;stroke-miterlimit:10;}
	.st11{fill:none;stroke:#70C5D9;stroke-width:6.0031;stroke-miterlimit:10;}
	.st12{fill:none;stroke:#70C5D9;stroke-width:5.9244;stroke-miterlimit:10;}
	.st13{fill:none;stroke:#70C5D9;stroke-width:4.0873;stroke-miterlimit:10;}
</style>
<g>
	<line class="st10" x1="50.94" y1="161.98" x2="1069" y2="161.98"/>
	<g>
		<path class="st8" d="M105.7,185.18H16.18c-4.62,0-8.36-3.74-8.36-8.36V140.9c0-4.62,3.74-8.36,8.36-8.36h89.52
			c4.62,0,8.36,3.74,8.36,8.36v35.91C114.06,181.43,110.31,185.18,105.7,185.18z"/>
		<g>
			<path class="st3" d="M20.03,152.63h2.7l5.12,8.79v-8.79h2.06v12.15h-2.35l-5.47-9.32v9.32h-2.06V152.63z"/>
			<path class="st3" d="M31.85,160.43v-0.14c0-2.75,1.96-4.59,4.57-4.59c2.6,0,4.55,1.82,4.55,4.54v0.14c0,2.77-1.95,4.57-4.57,4.57
				C33.79,164.95,31.85,163.13,31.85,160.43z M38.87,160.39v-0.12c0-1.84-0.92-2.96-2.45-2.96s-2.46,1.11-2.46,2.94v0.13
				c0,1.82,0.9,2.96,2.46,2.96C37.95,163.35,38.87,162.21,38.87,160.39z"/>
			<path class="st3" d="M41.57,155.89h2.21l2.33,6.78l2.29-6.78h2.02l-3.21,8.89h-2.4L41.57,155.89z"/>
			<path class="st3" d="M51.02,160.43v-0.14c0-2.75,1.89-4.59,4.42-4.59c2.21,0,4.2,1.31,4.2,4.49v0.6h-6.51
				c0.07,1.68,0.92,2.63,2.45,2.63c1.24,0,1.89-0.49,2.04-1.36h1.99c-0.29,1.87-1.8,2.89-4.08,2.89
				C52.91,164.95,51.02,163.23,51.02,160.43z M57.6,159.41c-0.1-1.53-0.88-2.21-2.16-2.21c-1.24,0-2.07,0.83-2.28,2.21H57.6z"/>
			<path class="st3" d="M61.48,155.89h2.06v1.36c0.42-0.83,1.39-1.55,2.7-1.55c1.16,0,2.07,0.49,2.52,1.6c0.68-1.1,1.9-1.6,3.01-1.6
				c1.63,0,2.96,1,2.96,3.45v5.63h-2.06v-5.49c0-1.31-0.56-1.87-1.58-1.87s-1.96,0.68-1.96,2.04v5.32h-2.06v-5.49
				c0-1.31-0.58-1.87-1.58-1.87c-1.02,0-1.96,0.68-1.96,2.04v5.32h-2.06V155.89z"/>
			<path class="st3" d="M79.14,163.35v1.43h-2.06v-13h2.06v5.54c0.49-0.85,1.6-1.62,2.91-1.62c2.23,0,3.94,1.65,3.94,4.52v0.14
				c0,2.86-1.65,4.59-3.94,4.59C80.64,164.95,79.62,164.25,79.14,163.35z M83.88,160.39v-0.13c0-1.97-1.02-2.94-2.36-2.94
				c-1.43,0-2.45,0.97-2.45,2.94v0.13c0,1.99,0.97,2.92,2.46,2.92C83.05,163.32,83.88,162.3,83.88,160.39z"/>
			<path class="st3" d="M87.25,160.43v-0.14c0-2.75,1.89-4.59,4.42-4.59c2.21,0,4.2,1.31,4.2,4.49v0.6h-6.51
				c0.07,1.68,0.92,2.63,2.45,2.63c1.24,0,1.89-0.49,2.04-1.36h1.99c-0.29,1.87-1.8,2.89-4.08,2.89
				C89.14,164.95,87.25,163.23,87.25,160.43z M93.83,159.41c-0.1-1.53-0.88-2.21-2.16-2.21c-1.24,0-2.07,0.83-2.28,2.21H93.83z"/>
			<path class="st3" d="M97.71,155.89h2.06v1.67c0.56-1.12,1.39-1.79,2.89-1.8v1.92c-1.8,0.02-2.89,0.59-2.89,2.48v4.62h-2.06
				V155.89z"/>
		</g>
		<path class="st9" d="M245.59,185.18h-89.52c-4.62,0-8.36-3.74-8.36-8.36V140.9c0-4.62,3.74-8.36,8.36-8.36h89.52
			c4.62,0,8.36,3.74,8.36,8.36v35.91C253.95,181.43,250.21,185.18,245.59,185.18z"/>
		<g>
			<path class="st3" d="M159.92,152.63h3.69c4.23,0,6.29,2.41,6.29,5.95v0.15c0,3.54-2.06,6.05-6.32,6.05h-3.65V152.63z M163.5,163
				c2.72,0,4.03-1.56,4.03-4.25v-0.13c0-2.62-1.19-4.2-4.05-4.2h-1.31V163H163.5z"/>
			<path class="st3" d="M171.29,160.43v-0.14c0-2.75,1.89-4.59,4.42-4.59c2.21,0,4.2,1.31,4.2,4.49v0.6h-6.51
				c0.07,1.68,0.92,2.63,2.45,2.63c1.24,0,1.89-0.49,2.04-1.36h1.99c-0.29,1.87-1.8,2.89-4.08,2.89
				C173.18,164.95,171.29,163.23,171.29,160.43z M177.87,159.41c-0.1-1.53-0.88-2.21-2.16-2.21c-1.24,0-2.07,0.83-2.28,2.21H177.87z
				"/>
			<path class="st3" d="M181.15,160.44v-0.13c0-2.82,2.01-4.61,4.49-4.61c1.97,0,3.82,0.88,4.06,3.33h-1.99
				c-0.17-1.19-0.95-1.68-2.04-1.68c-1.41,0-2.41,1.09-2.41,2.92v0.14c0,1.94,0.95,2.96,2.46,2.96c1.09,0,2.02-0.64,2.14-1.9h1.89
				c-0.15,2.04-1.7,3.48-4.11,3.48C183.09,164.95,181.15,163.28,181.15,160.44z"/>
			<path class="st3" d="M190.93,160.43v-0.14c0-2.75,1.89-4.59,4.42-4.59c2.21,0,4.2,1.31,4.2,4.49v0.6h-6.51
				c0.07,1.68,0.92,2.63,2.45,2.63c1.24,0,1.89-0.49,2.04-1.36h1.99c-0.29,1.87-1.8,2.89-4.08,2.89
				C192.81,164.95,190.93,163.23,190.93,160.43z M197.5,159.41c-0.1-1.53-0.88-2.21-2.16-2.21c-1.24,0-2.07,0.83-2.28,2.21H197.5z"
				/>
			<path class="st3" d="M201.38,155.89h2.06v1.36c0.42-0.83,1.39-1.55,2.7-1.55c1.16,0,2.07,0.49,2.52,1.6
				c0.68-1.1,1.9-1.6,3.01-1.6c1.63,0,2.96,1,2.96,3.45v5.63h-2.06v-5.49c0-1.31-0.56-1.87-1.58-1.87s-1.96,0.68-1.96,2.04v5.32
				h-2.06v-5.49c0-1.31-0.58-1.87-1.58-1.87c-1.02,0-1.95,0.68-1.95,2.04v5.32h-2.06V155.89z"/>
			<path class="st3" d="M219.04,163.35v1.43h-2.06v-13h2.06v5.54c0.49-0.85,1.6-1.62,2.91-1.62c2.23,0,3.94,1.65,3.94,4.52v0.14
				c0,2.86-1.65,4.59-3.94,4.59C220.54,164.95,219.52,164.25,219.04,163.35z M223.79,160.39v-0.13c0-1.97-1.02-2.94-2.36-2.94
				c-1.43,0-2.45,0.97-2.45,2.94v0.13c0,1.99,0.97,2.92,2.46,2.92C222.95,163.32,223.79,162.3,223.79,160.39z"/>
			<path class="st3" d="M227.15,160.43v-0.14c0-2.75,1.89-4.59,4.42-4.59c2.21,0,4.2,1.31,4.2,4.49v0.6h-6.51
				c0.07,1.68,0.92,2.63,2.45,2.63c1.24,0,1.89-0.49,2.04-1.36h1.99c-0.29,1.87-1.8,2.89-4.08,2.89
				C229.04,164.95,227.15,163.23,227.15,160.43z M233.73,159.41c-0.1-1.53-0.88-2.21-2.16-2.21c-1.24,0-2.07,0.83-2.28,2.21H233.73z
				"/>
			<path class="st3" d="M237.61,155.89h2.06v1.67c0.56-1.12,1.39-1.79,2.89-1.8v1.92c-1.8,0.02-2.89,0.59-2.89,2.48v4.62h-2.06
				V155.89z"/>
		</g>
		<path class="st8" d="M385.48,185.18h-89.52c-4.62,0-8.36-3.74-8.36-8.36V140.9c0-4.62,3.74-8.36,8.36-8.36h89.52
			c4.62,0,8.36,3.74,8.36,8.36v35.91C393.84,181.43,390.1,185.18,385.48,185.18z"/>
		<g>
			<path class="st3" d="M309.75,164.58v-1.77c0.43,0.17,0.85,0.31,1.56,0.31c1.11,0,1.82-0.58,1.82-2.07v-8.41h2.28v8.46
				c0,2.63-1.51,3.84-3.76,3.84C310.65,164.93,310.14,164.78,309.75,164.58z"/>
			<path class="st3" d="M317.16,162.32c0-2.07,2-2.82,4.56-2.82h1.1v-0.46c0-1.19-0.41-1.79-1.61-1.79c-1.07,0-1.6,0.51-1.7,1.39
				h-1.99c0.17-2.07,1.82-2.94,3.81-2.94c1.99,0,3.55,0.82,3.55,3.25v5.83h-2.02v-1.09c-0.58,0.76-1.36,1.26-2.72,1.26
				C318.5,164.95,317.16,164.17,317.16,162.32z M322.82,161.67v-0.88h-1.05c-1.56,0-2.57,0.36-2.57,1.44c0,0.75,0.41,1.24,1.43,1.24
				C321.89,163.47,322.82,162.81,322.82,161.67z"/>
			<path class="st3" d="M327.24,155.89h2.06v1.41c0.42-0.87,1.41-1.6,2.87-1.6c1.78,0,3.04,1.04,3.04,3.48v5.59h-2.06v-5.41
				c0-1.34-0.54-1.96-1.77-1.96c-1.16,0-2.09,0.71-2.09,2.12v5.24h-2.06V155.89z"/>
			<path class="st3" d="M337.49,161.59v-5.7h2.06v5.46c0,1.34,0.56,1.96,1.75,1.96c1.1,0,2.07-0.71,2.07-2.12v-5.29h2.06v8.89h-2.06
				v-1.39c-0.44,0.87-1.38,1.56-2.82,1.56C338.8,164.95,337.49,163.95,337.49,161.59z"/>
			<path class="st3" d="M347.22,162.32c0-2.07,2.01-2.82,4.55-2.82h1.11v-0.46c0-1.19-0.41-1.79-1.62-1.79
				c-1.07,0-1.6,0.51-1.7,1.39h-1.99c0.17-2.07,1.82-2.94,3.81-2.94s3.55,0.82,3.55,3.25v5.83h-2.02v-1.09
				c-0.58,0.76-1.36,1.26-2.72,1.26C348.56,164.95,347.22,164.17,347.22,162.32z M352.88,161.67v-0.88h-1.05
				c-1.56,0-2.57,0.36-2.57,1.44c0,0.75,0.41,1.24,1.43,1.24C351.94,163.47,352.88,162.81,352.88,161.67z"/>
			<path class="st3" d="M357.3,155.89h2.06v1.67c0.56-1.12,1.39-1.79,2.89-1.8v1.92c-1.8,0.02-2.89,0.59-2.89,2.48v4.62h-2.06
				V155.89z"/>
			<path class="st3" d="M366.73,163.88l-3.52-7.99h2.23l2.36,5.73l2.18-5.73h2.01l-4.85,11.93h-2.02L366.73,163.88z"/>
		</g>
		<path class="st9" d="M525.37,185.18h-89.52c-4.62,0-8.36-3.74-8.36-8.36V140.9c0-4.62,3.74-8.36,8.36-8.36h89.52
			c4.62,0,8.36,3.74,8.36,8.36v35.91C533.73,181.43,529.99,185.18,525.37,185.18z"/>
		<g>
			<path class="st3" d="M445.81,152.63h7.53v1.8h-5.27v3.62h4.15v1.75h-4.15v4.98h-2.26V152.63z"/>
			<path class="st3" d="M454.12,160.43v-0.14c0-2.75,1.89-4.59,4.42-4.59c2.21,0,4.2,1.31,4.2,4.49v0.6h-6.51
				c0.07,1.68,0.92,2.63,2.45,2.63c1.24,0,1.89-0.49,2.04-1.36h1.99c-0.29,1.87-1.8,2.89-4.08,2.89
				C456.01,164.95,454.12,163.23,454.12,160.43z M460.7,159.41c-0.1-1.53-0.88-2.21-2.16-2.21c-1.24,0-2.07,0.83-2.28,2.21H460.7z"
				/>
			<path class="st3" d="M466.63,163.35v1.43h-2.06v-13h2.06v5.54c0.49-0.85,1.6-1.62,2.91-1.62c2.23,0,3.94,1.65,3.94,4.52v0.14
				c0,2.86-1.65,4.59-3.94,4.59C468.13,164.95,467.11,164.25,466.63,163.35z M471.37,160.39v-0.13c0-1.97-1.02-2.94-2.36-2.94
				c-1.43,0-2.45,0.97-2.45,2.94v0.13c0,1.99,0.97,2.92,2.46,2.92C470.54,163.32,471.37,162.3,471.37,160.39z"/>
			<path class="st3" d="M475.33,155.89h2.06v1.67c0.56-1.12,1.39-1.79,2.89-1.8v1.92c-1.8,0.02-2.89,0.59-2.89,2.48v4.62h-2.06
				V155.89z"/>
			<path class="st3" d="M482,161.59v-5.7h2.06v5.46c0,1.34,0.56,1.96,1.75,1.96c1.1,0,2.07-0.71,2.07-2.12v-5.29h2.06v8.89h-2.06
				v-1.39c-0.44,0.87-1.38,1.56-2.82,1.56C483.31,164.95,482,163.95,482,161.59z"/>
			<path class="st3" d="M491.72,162.32c0-2.07,2-2.82,4.55-2.82h1.11v-0.46c0-1.19-0.41-1.79-1.62-1.79c-1.07,0-1.6,0.51-1.7,1.39
				h-1.99c0.17-2.07,1.82-2.94,3.81-2.94c1.99,0,3.55,0.82,3.55,3.25v5.83h-2.02v-1.09c-0.58,0.76-1.36,1.26-2.72,1.26
				C493.07,164.95,491.72,164.17,491.72,162.32z M497.38,161.67v-0.88h-1.05c-1.56,0-2.57,0.36-2.57,1.44
				c0,0.75,0.41,1.24,1.43,1.24C496.45,163.47,497.38,162.81,497.38,161.67z"/>
			<path class="st3" d="M501.8,155.89h2.06v1.67c0.56-1.12,1.39-1.79,2.89-1.8v1.92c-1.8,0.02-2.89,0.59-2.89,2.48v4.62h-2.06
				V155.89z"/>
			<path class="st3" d="M511.24,163.88l-3.52-7.99h2.23l2.36,5.73l2.18-5.73h2.01l-4.84,11.93h-2.02L511.24,163.88z"/>
		</g>
		<path class="st8" d="M665.26,185.18h-89.52c-4.62,0-8.36-3.74-8.36-8.36V140.9c0-4.62,3.74-8.36,8.36-8.36h89.52
			c4.62,0,8.36,3.74,8.36,8.36v35.91C673.63,181.43,669.88,185.18,665.26,185.18z"/>
		<g>
			<path class="st3" d="M596.32,152.63h3.03l3.2,8.29l3.13-8.29h2.99v12.15h-2.26v-9.18l-3.62,9.18h-0.73l-3.69-9.18v9.18h-2.04
				V152.63z"/>
			<path class="st3" d="M610.54,162.32c0-2.07,2.01-2.82,4.55-2.82h1.11v-0.46c0-1.19-0.41-1.79-1.62-1.79
				c-1.07,0-1.6,0.51-1.7,1.39h-1.99c0.17-2.07,1.82-2.94,3.81-2.94c1.99,0,3.55,0.82,3.55,3.25v5.83h-2.02v-1.09
				c-0.58,0.76-1.36,1.26-2.72,1.26C611.89,164.95,610.54,164.17,610.54,162.32z M616.2,161.67v-0.88h-1.05
				c-1.56,0-2.57,0.36-2.57,1.44c0,0.75,0.41,1.24,1.43,1.24C615.27,163.47,616.2,162.81,616.2,161.67z"/>
			<path class="st3" d="M620.62,155.89h2.06v1.67c0.56-1.12,1.39-1.79,2.89-1.8v1.92c-1.8,0.02-2.89,0.59-2.89,2.48v4.62h-2.06
				V155.89z"/>
			<path class="st3" d="M626.61,160.44v-0.13c0-2.82,2.01-4.61,4.49-4.61c1.97,0,3.82,0.88,4.06,3.33h-1.99
				c-0.17-1.19-0.95-1.68-2.04-1.68c-1.41,0-2.41,1.09-2.41,2.92v0.14c0,1.94,0.95,2.96,2.46,2.96c1.09,0,2.02-0.64,2.14-1.9h1.89
				c-0.15,2.04-1.7,3.48-4.11,3.48C628.55,164.95,626.61,163.28,626.61,160.44z"/>
			<path class="st3" d="M636.98,151.78h2.06v5.52c0.42-0.87,1.41-1.6,2.87-1.6c1.78,0,3.04,1.04,3.04,3.48v5.59h-2.06v-5.41
				c0-1.34-0.54-1.96-1.77-1.96c-1.16,0-2.09,0.71-2.09,2.12v5.24h-2.06V151.78z"/>
		</g>
		<path class="st9" d="M805.16,185.18h-89.52c-4.62,0-8.36-3.74-8.36-8.36V140.9c0-4.62,3.74-8.36,8.36-8.36h89.52
			c4.62,0,8.36,3.74,8.36,8.36v35.91C813.52,181.43,809.78,185.18,805.16,185.18z"/>
		<g>
			<path class="st3" d="M745.58,152.63h2.96l4.01,12.15h-2.35l-0.97-3.01h-4.64l-0.95,3.01h-2.12L745.58,152.63z M745.12,160.12
				h3.59l-1.79-5.64L745.12,160.12z"/>
			<path class="st3" d="M754.24,155.89h2.06v1.43c0.49-0.85,1.6-1.62,2.91-1.62c2.23,0,3.94,1.65,3.94,4.52v0.14
				c0,2.86-1.65,4.59-3.94,4.59c-1.41,0-2.43-0.7-2.91-1.56v4.44h-2.06V155.89z M761.03,160.39v-0.13c0-1.97-1.02-2.94-2.36-2.94
				c-1.43,0-2.45,0.97-2.45,2.94v0.13c0,1.99,0.97,2.92,2.46,2.92C760.2,163.32,761.03,162.3,761.03,160.39z"/>
			<path class="st3" d="M765,155.89h2.06v1.67c0.56-1.12,1.39-1.79,2.89-1.8v1.92c-1.8,0.02-2.89,0.59-2.89,2.48v4.62H765V155.89z"
				/>
			<path class="st3" d="M771.58,153.25c0-0.68,0.54-1.19,1.22-1.19c0.68,0,1.22,0.51,1.22,1.19c0,0.66-0.54,1.17-1.22,1.17
				C772.12,154.43,771.58,153.92,771.58,153.25z M771.8,155.89h2.06v8.89h-2.06V155.89z"/>
			<path class="st3" d="M776.4,151.78h2.06v13h-2.06V151.78z"/>
		</g>
		<path class="st8" d="M945.05,185.18h-89.52c-4.62,0-8.36-3.74-8.36-8.36V140.9c0-4.62,3.74-8.36,8.36-8.36h89.52
			c4.62,0,8.36,3.74,8.36,8.36v35.91C953.41,181.43,949.67,185.18,945.05,185.18z"/>
		<g>
			<path class="st3" d="M884.87,152.63h3.03l3.2,8.29l3.13-8.29h2.99v12.15h-2.26v-9.18l-3.62,9.18h-0.73l-3.69-9.18v9.18h-2.04
				V152.63z"/>
			<path class="st3" d="M899.1,162.32c0-2.07,2.01-2.82,4.55-2.82h1.11v-0.46c0-1.19-0.41-1.79-1.62-1.79c-1.07,0-1.6,0.51-1.7,1.39
				h-1.99c0.17-2.07,1.82-2.94,3.81-2.94c1.99,0,3.55,0.82,3.55,3.25v5.83h-2.02v-1.09c-0.58,0.76-1.36,1.26-2.72,1.26
				C900.44,164.95,899.1,164.17,899.1,162.32z M904.76,161.67v-0.88h-1.05c-1.56,0-2.57,0.36-2.57,1.44c0,0.75,0.41,1.24,1.43,1.24
				C903.83,163.47,904.76,162.81,904.76,161.67z"/>
			<path class="st3" d="M911.53,163.88l-3.52-7.99h2.23l2.36,5.73l2.18-5.73h2.01l-4.84,11.93h-2.02L911.53,163.88z"/>
		</g>
		<path class="st9" d="M1084.94,185.18h-89.52c-4.62,0-8.36-3.74-8.36-8.36V140.9c0-4.62,3.74-8.36,8.36-8.36h89.52
			c4.62,0,8.36,3.74,8.36,8.36v35.91C1093.3,181.43,1089.56,185.18,1084.94,185.18z"/>
		<g>
			<path class="st3" d="M1021.79,164.58v-1.77c0.43,0.17,0.85,0.31,1.56,0.31c1.1,0,1.82-0.58,1.82-2.07v-8.41h2.28v8.46
				c0,2.63-1.51,3.84-3.76,3.84C1022.69,164.93,1022.18,164.78,1021.79,164.58z"/>
			<path class="st3" d="M1029.85,161.59v-5.7h2.06v5.46c0,1.34,0.56,1.96,1.75,1.96c1.11,0,2.07-0.71,2.07-2.12v-5.29h2.06v8.89
				h-2.06v-1.39c-0.44,0.87-1.38,1.56-2.82,1.56C1031.16,164.95,1029.85,163.95,1029.85,161.59z"/>
			<path class="st3" d="M1040.22,155.89h2.06v1.41c0.42-0.87,1.41-1.6,2.87-1.6c1.79,0,3.04,1.04,3.04,3.48v5.59h-2.06v-5.41
				c0-1.34-0.54-1.96-1.77-1.96c-1.16,0-2.09,0.71-2.09,2.12v5.24h-2.06V155.89z"/>
			<path class="st3" d="M1049.96,160.43v-0.14c0-2.75,1.89-4.59,4.42-4.59c2.21,0,4.2,1.31,4.2,4.49v0.6h-6.51
				c0.07,1.68,0.92,2.63,2.45,2.63c1.24,0,1.89-0.49,2.04-1.36h1.99c-0.29,1.87-1.8,2.89-4.08,2.89
				C1051.84,164.95,1049.96,163.23,1049.96,160.43z M1056.54,159.41c-0.1-1.53-0.88-2.21-2.16-2.21c-1.24,0-2.07,0.83-2.28,2.21
				H1056.54z"/>
		</g>
	</g>
	<g>
		<path class="st8" d="M192.43,261.71h2.73v14.59h-2.73V261.71z"/>
		<path class="st8" d="M197.72,271.13v-0.16c0-3.41,2.02-5.57,4.79-5.57c1.73,0,2.82,0.79,3.41,1.86v-6.57h2.47v15.61h-2.47v-1.79
			c-0.57,1.06-1.94,2-3.51,2C199.74,276.5,197.72,274.6,197.72,271.13z M206,271.01v-0.16c0-2.35-1.08-3.51-2.88-3.51
			c-1.82,0-2.88,1.27-2.88,3.57v0.16c0,2.35,1.18,3.47,2.77,3.47C204.73,274.54,206,273.4,206,271.01z"/>
		<path class="st8" d="M210.61,271.07v-0.16c0-3.3,2.26-5.51,5.3-5.51c2.65,0,5.04,1.57,5.04,5.39v0.71h-7.81
			c0.08,2.02,1.1,3.16,2.94,3.16c1.49,0,2.26-0.59,2.45-1.63h2.39c-0.35,2.24-2.16,3.47-4.9,3.47
			C212.87,276.5,210.61,274.44,210.61,271.07z M218.5,269.85c-0.12-1.84-1.06-2.65-2.59-2.65c-1.49,0-2.49,1-2.73,2.65H218.5z"/>
		<path class="st8" d="M222.48,273.34c0-2.49,2.41-3.39,5.47-3.39h1.33v-0.55c0-1.43-0.49-2.14-1.94-2.14
			c-1.29,0-1.92,0.61-2.04,1.67h-2.39c0.2-2.49,2.18-3.53,4.57-3.53s4.26,0.98,4.26,3.9v7h-2.43v-1.31
			c-0.69,0.92-1.63,1.51-3.26,1.51C224.09,276.5,222.48,275.56,222.48,273.34z M229.27,272.56v-1.06h-1.26
			c-1.88,0-3.08,0.43-3.08,1.73c0,0.9,0.49,1.49,1.71,1.49C228.15,274.72,229.27,273.93,229.27,272.56z"/>
		<path class="st8" d="M238.74,271.76h2.61c0.18,1.47,0.78,2.69,3.24,2.69c1.61,0,2.75-0.9,2.75-2.24c0-1.35-0.67-1.86-3.04-2.24
			c-3.49-0.47-5.14-1.53-5.14-4.26c0-2.39,2.04-4.18,5.08-4.18c3.14,0,5.02,1.43,5.3,4.22h-2.49c-0.26-1.53-1.14-2.18-2.81-2.18
			c-1.65,0-2.51,0.79-2.51,1.92c0,1.18,0.49,1.77,3.02,2.14c3.43,0.47,5.2,1.45,5.2,4.37c0,2.53-2.14,4.51-5.37,4.51
			C240.62,276.5,238.94,274.52,238.74,271.76z"/>
		<path class="st8" d="M252.18,272.46v-6.83h2.47v6.55c0,1.61,0.67,2.35,2.1,2.35c1.33,0,2.49-0.86,2.49-2.55v-6.34h2.47v10.67
			h-2.47v-1.67c-0.53,1.04-1.65,1.88-3.39,1.88C253.75,276.5,252.18,275.29,252.18,272.46z"/>
		<path class="st8" d="M267.09,274.58v1.71h-2.47v-15.61h2.47v6.65c0.59-1.02,1.92-1.94,3.49-1.94c2.67,0,4.73,1.98,4.73,5.43v0.16
			c0,3.43-1.98,5.51-4.73,5.51C268.89,276.5,267.66,275.66,267.09,274.58z M272.79,271.03v-0.16c0-2.37-1.22-3.53-2.84-3.53
			c-1.71,0-2.94,1.16-2.94,3.53v0.16c0,2.39,1.16,3.51,2.96,3.51C271.79,274.54,272.79,273.32,272.79,271.03z"/>
		<path class="st8" d="M277.54,265.62h2.47v1.63c0.51-1,1.67-1.86,3.24-1.86c1.39,0,2.49,0.59,3.02,1.92
			c0.82-1.33,2.28-1.92,3.61-1.92c1.96,0,3.55,1.2,3.55,4.14v6.75h-2.47v-6.59c0-1.57-0.67-2.24-1.9-2.24
			c-1.22,0-2.35,0.82-2.35,2.45v6.39h-2.47v-6.59c0-1.57-0.69-2.24-1.9-2.24c-1.22,0-2.35,0.82-2.35,2.45v6.39h-2.47V265.62z"/>
		<path class="st8" d="M296.06,262.46c0-0.82,0.65-1.43,1.47-1.43s1.47,0.61,1.47,1.43c0,0.79-0.65,1.41-1.47,1.41
			S296.06,263.26,296.06,262.46z M296.33,265.62h2.47v10.67h-2.47V265.62z"/>
		<path class="st8" d="M300.98,272.97h2.33c0.12,1.08,0.67,1.71,2.12,1.71c1.33,0,1.92-0.47,1.92-1.37c0-0.88-0.71-1.21-2.29-1.47
			c-2.82-0.45-3.86-1.24-3.86-3.24c0-2.14,2-3.2,4-3.2c2.18,0,3.92,0.82,4.18,3.22h-2.29c-0.2-0.98-0.75-1.43-1.9-1.43
			c-1.06,0-1.69,0.51-1.69,1.27c0,0.78,0.51,1.08,2.2,1.37c2.51,0.39,4,1,4,3.26c0,2.16-1.53,3.41-4.26,3.41
			C302.69,276.5,301.08,275.23,300.98,272.97z"/>
		<path class="st8" d="M311.05,272.97h2.33c0.12,1.08,0.67,1.71,2.12,1.71c1.33,0,1.92-0.47,1.92-1.37c0-0.88-0.71-1.21-2.29-1.47
			c-2.82-0.45-3.86-1.24-3.86-3.24c0-2.14,2-3.2,4-3.2c2.18,0,3.92,0.82,4.18,3.22h-2.29c-0.2-0.98-0.75-1.43-1.9-1.43
			c-1.06,0-1.69,0.51-1.69,1.27c0,0.78,0.51,1.08,2.2,1.37c2.51,0.39,4,1,4,3.26c0,2.16-1.53,3.41-4.26,3.41
			C312.77,276.5,311.16,275.23,311.05,272.97z"/>
		<path class="st8" d="M321.74,262.46c0-0.82,0.65-1.43,1.47-1.43s1.47,0.61,1.47,1.43c0,0.79-0.65,1.41-1.47,1.41
			S321.74,263.26,321.74,262.46z M322.01,265.62h2.47v10.67h-2.47V265.62z"/>
		<path class="st8" d="M326.76,271.07v-0.16c0-3.3,2.35-5.51,5.49-5.51c3.12,0,5.47,2.18,5.47,5.45v0.16c0,3.33-2.35,5.49-5.49,5.49
			S326.76,274.32,326.76,271.07z M335.19,271.03v-0.14c0-2.2-1.1-3.55-2.94-3.55s-2.96,1.33-2.96,3.53v0.16
			c0,2.18,1.08,3.55,2.96,3.55C334.09,274.58,335.19,273.21,335.19,271.03z"/>
		<path class="st8" d="M339.94,265.62h2.47v1.69c0.51-1.04,1.69-1.92,3.45-1.92c2.14,0,3.65,1.24,3.65,4.18v6.71h-2.47v-6.49
			c0-1.61-0.65-2.35-2.12-2.35c-1.39,0-2.51,0.86-2.51,2.55v6.28h-2.47V265.62z"/>
	</g>
	<path id="Path_1004_00000033359191907330078140000001231203831714638995_" class="st13" d="M60.94,185.19l0,55.75l419.68,0l0-55.75
		"/>
	<path id="Path_1004_00000118364451635467430060000002741407614899913407_" class="st13" d="M900.29,132.54l0-55.75l-139.89,0v55.75
		"/>
	<line class="st13" x1="620.5" y1="185.19" x2="620.5" y2="240.94"/>
	<line class="st13" x1="1040.18" y1="185.19" x2="1040.18" y2="240.94"/>
	<g>
		<path class="st8" d="M580.45,271.76h2.61c0.18,1.47,0.78,2.69,3.24,2.69c1.61,0,2.75-0.9,2.75-2.24c0-1.35-0.67-1.86-3.04-2.24
			c-3.49-0.47-5.14-1.53-5.14-4.26c0-2.39,2.04-4.18,5.08-4.18c3.14,0,5.02,1.43,5.3,4.22h-2.49c-0.27-1.53-1.14-2.18-2.82-2.18
			c-1.65,0-2.51,0.79-2.51,1.92c0,1.18,0.49,1.77,3.02,2.14c3.43,0.47,5.2,1.45,5.2,4.37c0,2.53-2.14,4.51-5.37,4.51
			C582.32,276.5,580.65,274.52,580.45,271.76z"/>
		<path class="st8" d="M594.09,260.69h2.47v6.63c0.51-1.04,1.69-1.92,3.45-1.92c2.14,0,3.65,1.24,3.65,4.18v6.71h-2.47v-6.49
			c0-1.61-0.65-2.35-2.12-2.35c-1.39,0-2.51,0.86-2.51,2.55v6.28h-2.47V260.69z"/>
		<path class="st8" d="M605.78,271.07v-0.16c0-3.3,2.35-5.51,5.49-5.51c3.12,0,5.47,2.18,5.47,5.45v0.16c0,3.33-2.35,5.49-5.49,5.49
			S605.78,274.32,605.78,271.07z M614.21,271.03v-0.14c0-2.2-1.1-3.55-2.94-3.55s-2.96,1.33-2.96,3.53v0.16
			c0,2.18,1.08,3.55,2.96,3.55C613.11,274.58,614.21,273.21,614.21,271.03z"/>
		<path class="st8" d="M618.96,265.62h2.47v2c0.67-1.35,1.67-2.14,3.47-2.16v2.31c-2.16,0.02-3.47,0.71-3.47,2.98v5.55h-2.47V265.62
			z"/>
		<path class="st8" d="M627.57,273.32v-5.84h-1.43v-1.86h1.43v-2.35h2.47v2.35h2.35v1.86h-2.35v5.61c0,0.94,0.45,1.37,1.22,1.37
			c0.49,0,0.86-0.06,1.2-0.21v1.96c-0.39,0.14-0.92,0.27-1.67,0.27C628.67,276.48,627.57,275.34,627.57,273.32z"/>
		<path class="st8" d="M634.75,260.69h2.47v15.61h-2.47V260.69z"/>
		<path class="st8" d="M640.01,262.46c0-0.82,0.65-1.43,1.47-1.43s1.47,0.61,1.47,1.43c0,0.79-0.65,1.41-1.47,1.41
			S640.01,263.26,640.01,262.46z M640.28,265.62h2.47v10.67h-2.47V265.62z"/>
		<path class="st8" d="M644.93,272.97h2.33c0.12,1.08,0.67,1.71,2.12,1.71c1.33,0,1.92-0.47,1.92-1.37c0-0.88-0.71-1.21-2.29-1.47
			c-2.82-0.45-3.86-1.24-3.86-3.24c0-2.14,2-3.2,4-3.2c2.18,0,3.92,0.82,4.18,3.22h-2.29c-0.2-0.98-0.75-1.43-1.9-1.43
			c-1.06,0-1.69,0.51-1.69,1.27c0,0.78,0.51,1.08,2.2,1.37c2.51,0.39,4,1,4,3.26c0,2.16-1.53,3.41-4.26,3.41
			C646.64,276.5,645.03,275.23,644.93,272.97z"/>
		<path class="st8" d="M656.23,273.32v-5.84h-1.43v-1.86h1.43v-2.35h2.47v2.35h2.35v1.86h-2.35v5.61c0,0.94,0.45,1.37,1.22,1.37
			c0.49,0,0.86-0.06,1.2-0.21v1.96c-0.39,0.14-0.92,0.27-1.67,0.27C657.33,276.48,656.23,275.34,656.23,273.32z"/>
	</g>
	<g>
		<path class="st8" d="M705.12,20.2h2.61c0.18,1.47,0.77,2.69,3.24,2.69c1.61,0,2.75-0.9,2.75-2.24s-0.67-1.86-3.04-2.24
			c-3.49-0.47-5.14-1.53-5.14-4.26c0-2.39,2.04-4.18,5.08-4.18c3.14,0,5.02,1.43,5.3,4.22h-2.49c-0.27-1.53-1.14-2.18-2.81-2.18
			c-1.65,0-2.51,0.8-2.51,1.92c0,1.18,0.49,1.77,3.02,2.14c3.43,0.47,5.2,1.45,5.2,4.37c0,2.53-2.14,4.51-5.37,4.51
			C707,24.94,705.33,22.96,705.12,20.2z"/>
		<path class="st8" d="M718.06,19.51v-0.16c0-3.3,2.35-5.51,5.49-5.51c3.12,0,5.47,2.18,5.47,5.45v0.16c0,3.33-2.35,5.49-5.49,5.49
			S718.06,22.75,718.06,19.51z M726.48,19.47v-0.14c0-2.2-1.1-3.55-2.94-3.55s-2.96,1.33-2.96,3.53v0.16c0,2.18,1.08,3.55,2.96,3.55
			C725.38,23.02,726.48,21.65,726.48,19.47z"/>
		<path class="st8" d="M730.52,19.53v-0.16c0-3.39,2.41-5.53,5.39-5.53c2.37,0,4.59,1.06,4.88,4h-2.39
			c-0.2-1.43-1.14-2.02-2.45-2.02c-1.69,0-2.9,1.31-2.9,3.51v0.16c0,2.33,1.14,3.55,2.96,3.55c1.3,0,2.43-0.78,2.57-2.29h2.26
			c-0.18,2.45-2.04,4.18-4.94,4.18C732.85,24.94,730.52,22.94,730.52,19.53z"/>
		<path class="st8" d="M742.76,10.9c0-0.82,0.65-1.43,1.47-1.43c0.82,0,1.47,0.61,1.47,1.43c0,0.8-0.65,1.41-1.47,1.41
			C743.41,12.31,742.76,11.7,742.76,10.9z M743.03,14.06h2.47v10.67h-2.47V14.06z"/>
		<path class="st8" d="M747.72,21.78c0-2.49,2.41-3.39,5.47-3.39h1.33v-0.55c0-1.43-0.49-2.14-1.94-2.14
			c-1.29,0-1.92,0.61-2.04,1.67h-2.39c0.2-2.49,2.18-3.53,4.57-3.53s4.26,0.98,4.26,3.9v7h-2.43v-1.31
			c-0.69,0.92-1.63,1.51-3.26,1.51C749.33,24.94,747.72,24,747.72,21.78z M754.51,21v-1.06h-1.27c-1.88,0-3.08,0.43-3.08,1.73
			c0,0.9,0.49,1.49,1.71,1.49C753.39,23.16,754.51,22.37,754.51,21z"/>
		<path class="st8" d="M759.88,9.13h2.47v15.61h-2.47V9.13z"/>
		<path class="st8" d="M770.4,10.15h5.22c3,0,4.77,1.14,4.77,3.79v0.08c0,1.45-0.65,2.59-2.3,3.1c1.98,0.43,2.92,1.51,2.92,3.45
			v0.08c0,2.71-1.79,4.08-5,4.08h-5.61V10.15z M775.3,16.29c1.79,0,2.49-0.65,2.49-2.14v-0.08c0-1.39-0.79-1.98-2.53-1.98h-2.2v4.2
			H775.3z M775.68,22.79c1.82,0,2.65-0.82,2.65-2.33v-0.08c0-1.51-0.84-2.26-2.84-2.26h-2.45v4.67H775.68z"/>
		<path class="st8" d="M783.25,20.9v-6.83h2.47v6.55c0,1.61,0.67,2.35,2.1,2.35c1.33,0,2.49-0.86,2.49-2.55v-6.34h2.47v10.67h-2.47
			v-1.67c-0.53,1.04-1.65,1.88-3.39,1.88C784.82,24.94,783.25,23.73,783.25,20.9z"/>
		<path class="st8" d="M794.88,21.41h2.33c0.12,1.08,0.67,1.71,2.12,1.71c1.33,0,1.92-0.47,1.92-1.37c0-0.88-0.71-1.2-2.29-1.47
			c-2.81-0.45-3.86-1.24-3.86-3.24c0-2.14,2-3.2,4-3.2c2.18,0,3.92,0.82,4.18,3.22H801c-0.2-0.98-0.76-1.43-1.9-1.43
			c-1.06,0-1.69,0.51-1.69,1.26c0,0.78,0.51,1.08,2.2,1.37c2.51,0.39,4,1,4,3.26c0,2.16-1.53,3.41-4.26,3.41
			C796.59,24.94,794.98,23.67,794.88,21.41z"/>
		<path class="st8" d="M805.57,10.9c0-0.82,0.65-1.43,1.47-1.43s1.47,0.61,1.47,1.43c0,0.8-0.65,1.41-1.47,1.41
			S805.57,11.7,805.57,10.9z M805.83,14.06h2.47v10.67h-2.47V14.06z"/>
		<path class="st8" d="M811.3,14.06h2.47v1.69c0.51-1.04,1.69-1.92,3.45-1.92c2.14,0,3.65,1.25,3.65,4.18v6.71h-2.47v-6.49
			c0-1.61-0.65-2.35-2.12-2.35c-1.39,0-2.51,0.86-2.51,2.55v6.28h-2.47V14.06z"/>
		<path class="st8" d="M822.99,19.51v-0.16c0-3.3,2.26-5.51,5.3-5.51c2.65,0,5.04,1.57,5.04,5.39v0.71h-7.81
			c0.08,2.02,1.1,3.16,2.94,3.16c1.49,0,2.26-0.59,2.45-1.63h2.39c-0.35,2.24-2.16,3.47-4.9,3.47
			C825.25,24.94,822.99,22.88,822.99,19.51z M830.89,18.29c-0.12-1.84-1.06-2.65-2.59-2.65c-1.49,0-2.49,1-2.73,2.65H830.89z"/>
		<path class="st8" d="M834.82,21.41h2.33c0.12,1.08,0.67,1.71,2.12,1.71c1.33,0,1.92-0.47,1.92-1.37c0-0.88-0.71-1.2-2.29-1.47
			c-2.81-0.45-3.86-1.24-3.86-3.24c0-2.14,2-3.2,4-3.2c2.18,0,3.92,0.82,4.18,3.22h-2.29c-0.2-0.98-0.76-1.43-1.9-1.43
			c-1.06,0-1.69,0.51-1.69,1.26c0,0.78,0.51,1.08,2.2,1.37c2.51,0.39,4,1,4,3.26c0,2.16-1.53,3.41-4.26,3.41
			C836.54,24.94,834.92,23.67,834.82,21.41z"/>
		<path class="st8" d="M844.9,21.41h2.33c0.12,1.08,0.67,1.71,2.12,1.71c1.33,0,1.92-0.47,1.92-1.37c0-0.88-0.71-1.2-2.29-1.47
			c-2.82-0.45-3.86-1.24-3.86-3.24c0-2.14,2-3.2,4-3.2c2.18,0,3.92,0.82,4.18,3.22h-2.29c-0.2-0.98-0.75-1.43-1.9-1.43
			c-1.06,0-1.69,0.51-1.69,1.26c0,0.78,0.51,1.08,2.2,1.37c2.51,0.39,4,1,4,3.26c0,2.16-1.53,3.41-4.26,3.41
			C846.61,24.94,845,23.67,844.9,21.41z"/>
		<path class="st8" d="M860.85,10.15h3.63l3.83,9.96l3.75-9.96h3.59v14.59h-2.71V13.72l-4.34,11.02h-0.88l-4.43-11.02v11.02h-2.45
			V10.15z"/>
		<path class="st8" d="M877.99,19.51v-0.16c0-3.3,2.35-5.51,5.49-5.51c3.12,0,5.47,2.18,5.47,5.45v0.16c0,3.33-2.35,5.49-5.49,5.49
			C880.31,24.94,877.99,22.75,877.99,19.51z M886.41,19.47v-0.14c0-2.2-1.1-3.55-2.94-3.55s-2.96,1.33-2.96,3.53v0.16
			c0,2.18,1.08,3.55,2.96,3.55C885.31,23.02,886.41,21.65,886.41,19.47z"/>
		<path class="st8" d="M890.47,19.57v-0.16c0-3.41,2.02-5.57,4.79-5.57c1.73,0,2.81,0.8,3.41,1.86V9.13h2.47v15.61h-2.47v-1.79
			c-0.57,1.06-1.94,2-3.51,2C892.49,24.94,890.47,23.04,890.47,19.57z M898.75,19.45v-0.16c0-2.35-1.08-3.51-2.88-3.51
			c-1.82,0-2.88,1.26-2.88,3.57v0.16c0,2.35,1.18,3.47,2.77,3.47C897.49,22.98,898.75,21.84,898.75,19.45z"/>
		<path class="st8" d="M903.36,19.51v-0.16c0-3.3,2.26-5.51,5.3-5.51c2.65,0,5.04,1.57,5.04,5.39v0.71h-7.81
			c0.08,2.02,1.1,3.16,2.94,3.16c1.49,0,2.27-0.59,2.45-1.63h2.39c-0.35,2.24-2.16,3.47-4.9,3.47
			C905.63,24.94,903.36,22.88,903.36,19.51z M911.26,18.29c-0.12-1.84-1.06-2.65-2.59-2.65c-1.49,0-2.49,1-2.73,2.65H911.26z"/>
		<path class="st8" d="M915.97,9.13h2.47v15.61h-2.47V9.13z"/>
		<path class="st8" d="M921.5,9.13h2.47v15.61h-2.47V9.13z"/>
		<path class="st8" d="M926.76,10.9c0-0.82,0.65-1.43,1.47-1.43s1.47,0.61,1.47,1.43c0,0.8-0.65,1.41-1.47,1.41
			S926.76,11.7,926.76,10.9z M927.03,14.06h2.47v10.67h-2.47V14.06z"/>
		<path class="st8" d="M932.5,14.06h2.47v1.69c0.51-1.04,1.69-1.92,3.45-1.92c2.14,0,3.65,1.25,3.65,4.18v6.71h-2.47v-6.49
			c0-1.61-0.65-2.35-2.12-2.35c-1.39,0-2.51,0.86-2.51,2.55v6.28h-2.47V14.06z"/>
		<path class="st8" d="M944.31,25.1h2.49c0.2,1.06,1.02,1.67,2.63,1.67c1.92,0,2.98-0.96,2.98-2.88v-1.57
			c-0.59,1.02-1.92,1.98-3.49,1.98c-2.67,0-4.73-2-4.73-5.08v-0.14c0-3,2.04-5.24,4.79-5.24c1.75,0,2.82,0.8,3.43,1.86v-1.63h2.47
			v9.87c-0.02,3.14-2.12,4.71-5.43,4.71C946.1,28.65,944.59,27.14,944.31,25.1z M952.49,19.14V19c0-2.02-1.1-3.22-2.88-3.22
			c-1.84,0-2.9,1.33-2.9,3.26v0.16c0,1.98,1.22,3.2,2.81,3.2C951.24,22.41,952.49,21.18,952.49,19.14z"/>
		<path class="st8" d="M791.1,50.58l2.45,2.98h-3.12l-1.22-1.49c-0.92,0.94-2.12,1.67-4,1.67c-2.84,0-4.79-1.61-4.79-4.16
			c0-2.14,1.33-3.39,3.29-4.32c-0.78-1.02-1.14-2-1.14-2.88c0-2.31,1.9-3.53,4.02-3.53c2,0,3.67,1.2,3.67,3.16
			c0,1.69-1.14,2.9-3.04,3.71l2.57,3.14l1.49-2.86h2.22L791.1,50.58z M787.94,50.5l-3.1-3.77c-1.08,0.55-1.86,1.22-1.86,2.59
			c0,1.47,0.92,2.39,2.51,2.39C786.43,51.71,787.26,51.3,787.94,50.5z M786.06,44.54c1.37-0.63,1.94-1.29,1.94-2.43
			c0-0.84-0.57-1.45-1.43-1.45c-0.9,0-1.61,0.57-1.61,1.73C784.96,43.08,785.36,43.71,786.06,44.54z"/>
		<path class="st8" d="M799.75,49.03h2.61c0.18,1.47,0.77,2.69,3.24,2.69c1.61,0,2.75-0.9,2.75-2.24s-0.67-1.86-3.04-2.24
			c-3.49-0.47-5.14-1.53-5.14-4.26c0-2.39,2.04-4.18,5.08-4.18c3.14,0,5.02,1.43,5.3,4.22h-2.49c-0.27-1.53-1.14-2.18-2.81-2.18
			c-1.65,0-2.51,0.8-2.51,1.92c0,1.18,0.49,1.77,3.02,2.14c3.43,0.47,5.2,1.45,5.2,4.37c0,2.53-2.14,4.51-5.37,4.51
			C801.62,53.77,799.95,51.79,799.75,49.03z"/>
		<path class="st8" d="M813.39,37.96h2.47v6.63c0.51-1.04,1.69-1.92,3.45-1.92c2.14,0,3.65,1.25,3.65,4.18v6.71h-2.47v-6.49
			c0-1.61-0.65-2.35-2.12-2.35c-1.39,0-2.51,0.86-2.51,2.55v6.28h-2.47V37.96z"/>
		<path class="st8" d="M825.08,48.34v-0.16c0-3.3,2.35-5.51,5.49-5.51c3.12,0,5.47,2.18,5.47,5.45v0.16c0,3.33-2.35,5.49-5.49,5.49
			C827.41,53.77,825.08,51.58,825.08,48.34z M833.51,48.3v-0.14c0-2.2-1.1-3.55-2.94-3.55s-2.96,1.33-2.96,3.53v0.16
			c0,2.18,1.08,3.55,2.96,3.55C832.41,51.85,833.51,50.48,833.51,48.3z"/>
		<path class="st8" d="M838.26,42.89h2.47v2c0.67-1.35,1.67-2.14,3.47-2.16v2.31c-2.16,0.02-3.47,0.71-3.47,2.98v5.55h-2.47V42.89z"
			/>
		<path class="st8" d="M846.87,50.58v-5.83h-1.43v-1.86h1.43v-2.35h2.47v2.35h2.35v1.86h-2.35v5.61c0,0.94,0.45,1.37,1.22,1.37
			c0.49,0,0.86-0.06,1.2-0.2v1.96c-0.39,0.14-0.92,0.27-1.67,0.27C847.97,53.75,846.87,52.6,846.87,50.58z"/>
		<path class="st8" d="M854.05,37.96h2.47v15.61h-2.47V37.96z"/>
		<path class="st8" d="M859.31,39.73c0-0.82,0.65-1.43,1.47-1.43s1.47,0.61,1.47,1.43c0,0.8-0.65,1.41-1.47,1.41
			S859.31,40.53,859.31,39.73z M859.58,42.89h2.47v10.67h-2.47V42.89z"/>
		<path class="st8" d="M864.23,50.24h2.33c0.12,1.08,0.67,1.71,2.12,1.71c1.33,0,1.92-0.47,1.92-1.37c0-0.88-0.71-1.2-2.29-1.47
			c-2.81-0.45-3.86-1.24-3.86-3.24c0-2.14,2-3.2,4-3.2c2.18,0,3.92,0.82,4.18,3.22h-2.29c-0.2-0.98-0.76-1.43-1.9-1.43
			c-1.06,0-1.69,0.51-1.69,1.26c0,0.78,0.51,1.08,2.2,1.37c2.51,0.39,4,1,4,3.26c0,2.16-1.53,3.41-4.26,3.41
			C865.94,53.77,864.33,52.5,864.23,50.24z"/>
		<path class="st8" d="M875.53,50.58v-5.83h-1.43v-1.86h1.43v-2.35H878v2.35h2.35v1.86H878v5.61c0,0.94,0.45,1.37,1.22,1.37
			c0.49,0,0.86-0.06,1.2-0.2v1.96c-0.39,0.14-0.92,0.27-1.67,0.27C876.63,53.75,875.53,52.6,875.53,50.58z"/>
	</g>
	<g>
		<path class="st8" d="M988.05,261.71h4.69c3.26,0,5.41,1.45,5.41,4.51v0.08c0,3.08-2.22,4.45-5.35,4.45h-2.04v5.55h-2.71V261.71z
			 M992.75,268.79c1.79,0,2.75-0.88,2.75-2.49v-0.08c0-1.73-1.02-2.41-2.75-2.41h-1.98v4.98H992.75z"/>
		<path class="st8" d="M1000.07,262.46c0-0.82,0.65-1.43,1.47-1.43c0.82,0,1.47,0.61,1.47,1.43c0,0.79-0.65,1.41-1.47,1.41
			C1000.72,263.87,1000.07,263.26,1000.07,262.46z M1000.33,265.62h2.47v10.67h-2.47V265.62z"/>
		<path class="st8" d="M1006.21,273.32v-5.84h-1.43v-1.86h1.43v-2.35h2.47v2.35h2.35v1.86h-2.35v5.61c0,0.94,0.45,1.37,1.22,1.37
			c0.49,0,0.86-0.06,1.2-0.21v1.96c-0.39,0.14-0.92,0.27-1.67,0.27C1007.31,276.48,1006.21,275.34,1006.21,273.32z"/>
		<path class="st8" d="M1012.61,271.09v-0.16c0-3.39,2.41-5.53,5.39-5.53c2.37,0,4.59,1.06,4.88,4h-2.39
			c-0.2-1.43-1.14-2.02-2.45-2.02c-1.69,0-2.9,1.31-2.9,3.51v0.16c0,2.33,1.14,3.55,2.96,3.55c1.31,0,2.43-0.78,2.57-2.29h2.26
			c-0.18,2.45-2.04,4.18-4.94,4.18C1014.94,276.5,1012.61,274.5,1012.61,271.09z"/>
		<path class="st8" d="M1025.06,260.69h2.47v6.63c0.51-1.04,1.69-1.92,3.45-1.92c2.14,0,3.65,1.24,3.65,4.18v6.71h-2.47v-6.49
			c0-1.61-0.65-2.35-2.12-2.35c-1.39,0-2.51,0.86-2.51,2.55v6.28h-2.47V260.69z"/>
		<path class="st8" d="M1042.52,261.71h9.12v2.14h-6.41v4h5.14v2.04h-5.14v4.26h6.75v2.14h-9.47V261.71z"/>
		<path class="st8" d="M1052.82,265.62h2.65l2.79,8.14l2.75-8.14h2.43l-3.86,10.67h-2.88L1052.82,265.62z"/>
		<path class="st8" d="M1064.16,271.07v-0.16c0-3.3,2.26-5.51,5.3-5.51c2.65,0,5.04,1.57,5.04,5.39v0.71h-7.81
			c0.08,2.02,1.1,3.16,2.94,3.16c1.49,0,2.26-0.59,2.45-1.63h2.39c-0.35,2.24-2.16,3.47-4.9,3.47
			C1066.43,276.5,1064.16,274.44,1064.16,271.07z M1072.06,269.85c-0.12-1.84-1.06-2.65-2.59-2.65c-1.49,0-2.49,1-2.73,2.65H1072.06
			z"/>
		<path class="st8" d="M1076.71,265.62h2.47v1.69c0.51-1.04,1.69-1.92,3.45-1.92c2.14,0,3.65,1.24,3.65,4.18v6.71h-2.47v-6.49
			c0-1.61-0.65-2.35-2.12-2.35c-1.39,0-2.51,0.86-2.51,2.55v6.28h-2.47V265.62z"/>
		<path class="st8" d="M1089.52,273.32v-5.84h-1.43v-1.86h1.43v-2.35h2.47v2.35h2.35v1.86h-2.35v5.61c0,0.94,0.45,1.37,1.22,1.37
			c0.49,0,0.86-0.06,1.2-0.21v1.96c-0.39,0.14-0.92,0.27-1.67,0.27C1090.62,276.48,1089.52,275.34,1089.52,273.32z"/>
	</g>
</g>
</svg>
