<svg xmlns="http://www.w3.org/2000/svg" xmlns:xlink="http://www.w3.org/1999/xlink" width="697.505" height="328.087" viewBox="0 0 697.505 328.087">
  <defs>
    <clipPath id="clip-path">
      <path id="Path_31" data-name="Path 31" d="M689.692-239.217a96.217,96.217,0,0,0-17.756,1.623,48.943,48.943,0,0,0-15.591,5.631,30.87,30.87,0,0,0-11.15,11.044q-4.223,7.038-4.223,17.648A23.894,23.894,0,0,0,644-190.823a26.249,26.249,0,0,0,8.014,8.446,44.5,44.5,0,0,0,11.368,5.413q6.382,2.06,13.1,3.574,8.227,1.734,14.726,3.356a69.8,69.8,0,0,1,10.935,3.571,22.982,22.982,0,0,1,6.014,3.665q1.026-.345,2.037-.731l.341.9c-.531.2-1.064.4-1.6.58l.03.03a8.33,8.33,0,0,1,2.381,5.954,11.369,11.369,0,0,1-1.948,6.821,14.753,14.753,0,0,1-4.872,4.332,23.115,23.115,0,0,1-6.5,2.381,32.677,32.677,0,0,1-6.821.758,35.079,35.079,0,0,1-8.769-1.082,22.809,22.809,0,0,1-7.473-3.356,18.01,18.01,0,0,1-5.3-5.848,16.834,16.834,0,0,1-2.055-8.552H638.371q.433,11.043,5.09,18.621a37.8,37.8,0,0,0,11.911,12.237,48.854,48.854,0,0,0,16.563,6.6,92.781,92.781,0,0,0,19.055,1.949,90.22,90.22,0,0,0,18.732-1.949,49.1,49.1,0,0,0,16.346-6.5,35.143,35.143,0,0,0,4.821-3.677,50.3,50.3,0,0,1-4.448-4.008,52.49,52.49,0,0,1-11.694-18.515,67.8,67.8,0,0,1-4.114-24.251,78.806,78.806,0,0,1,.654-10.323q-2.333-.619-4.707-1.156-6.5-1.511-12.775-2.813a99.021,99.021,0,0,1-11.153-2.924,23.32,23.32,0,0,1-7.9-4.223,8.423,8.423,0,0,1-3.03-6.712,8.274,8.274,0,0,1,1.731-5.52,11.389,11.389,0,0,1,4.221-3.141,18.826,18.826,0,0,1,5.522-1.408,52.933,52.933,0,0,1,5.631-.326,30.708,30.708,0,0,1,14.292,3.141q6.061,3.141,6.712,12.017h4.561c.116-.326.235-.652.358-.973a52.357,52.357,0,0,1,11.694-18.623q1.508-1.53,3.134-2.922a34.4,34.4,0,0,0-6.972-5.631,46.8,46.8,0,0,0-15.265-5.848,88.829,88.829,0,0,0-17.648-1.731" transform="translate(-638.371 239.217)" fill="none"/>
    </clipPath>
  </defs>
  <g id="Group_53" data-name="Group 53" transform="translate(-525.346 255.262)">
    <circle id="Ellipse_1" data-name="Ellipse 1" cx="5.683" cy="5.683" r="5.683" transform="translate(654.046 0.494)" fill="#638394"/>
    <path id="Path_14" data-name="Path 14" d="M545.468-90.035a18.757,18.757,0,0,1-14.232-6.317,21.685,21.685,0,0,1-5.89-15.341,21.364,21.364,0,0,1,6.122-15.378,19.831,19.831,0,0,1,14.823-6.354,17.93,17.93,0,0,1,12.1,4.618V-154.8h10.353v63.4H559.18V-95.8A18.564,18.564,0,0,1,545.468-90.035Zm1.576-34.547a11.061,11.061,0,0,0-8.468,3.7,13.035,13.035,0,0,0-3.418,9.184,12.954,12.954,0,0,0,3.4,9.128,11.022,11.022,0,0,0,8.449,3.69,11.172,11.172,0,0,0,8.52-3.69,12.923,12.923,0,0,0,3.438-9.165,12.981,12.981,0,0,0-3.418-9.165A11.127,11.127,0,0,0,547.044-124.582Z" transform="translate(0 147.642)" fill="#638394"/>
    <path id="Path_15" data-name="Path 15" d="M566.076-102.753a20.3,20.3,0,0,1-15.02-6.317,21.072,21.072,0,0,1-6.211-15.341,21.192,21.192,0,0,1,6.211-15.378,20.237,20.237,0,0,1,15.02-6.354,20.271,20.271,0,0,1,15.052,6.354,21.194,21.194,0,0,1,6.214,15.378,25.805,25.805,0,0,1-.358,4.295H555.262a12.8,12.8,0,0,0,2.759,4.8,10.773,10.773,0,0,0,8.305,3.653,11.365,11.365,0,0,0,5.638-1.432,9.074,9.074,0,0,0,3.779-3.83h10.311a19.1,19.1,0,0,1-7.411,10.328A21.209,21.209,0,0,1,566.076-102.753Zm11.061-25.168a12.109,12.109,0,0,0-2.9-5.621,10.513,10.513,0,0,0-8.162-3.687,10.511,10.511,0,0,0-8.165,3.687,13.7,13.7,0,0,0-2.936,5.621Z" transform="translate(28.656 160.36)" fill="#638394"/>
    <path id="Path_16" data-name="Path 16" d="M582.425-133.791a4.474,4.474,0,0,0-1.363-2.578,3.823,3.823,0,0,0-2.581-.859,3.91,3.91,0,0,0-2.744.966,3.246,3.246,0,0,0-1.057,2.507,2.736,2.736,0,0,0,1.326,2.363,21.2,21.2,0,0,0,5.082,2.04q6.409,1.971,9.167,4.9a11.043,11.043,0,0,1,2.717,7.806,13.247,13.247,0,0,1-4.048,10,14.374,14.374,0,0,1-10.385,3.885,14.842,14.842,0,0,1-10.582-3.919,14.38,14.38,0,0,1-4.46-10.256h10.026a7.085,7.085,0,0,0,1.754,3.919,4.627,4.627,0,0,0,3.44,1.343,4.867,4.867,0,0,0,3.294-1.111,3.6,3.6,0,0,0,1.289-2.862,3.721,3.721,0,0,0-1.166-2.936,13.4,13.4,0,0,0-4.551-2.077q-6.772-2.074-9.711-5.013a10.359,10.359,0,0,1-2.9-7.661,12.013,12.013,0,0,1,3.867-9.236,14.028,14.028,0,0,1,9.923-3.581,12.864,12.864,0,0,1,9.1,3.544,12.685,12.685,0,0,1,4.119,8.809Z" transform="translate(56.068 160.36)" fill="#638394"/>
    <path id="Path_17" data-name="Path 17" d="M577.579-145.888h9.774v41.4h-9.774Z" transform="translate(76.762 160.736)" fill="#638394"/>
    <path id="Path_18" data-name="Path 18" d="M605.462-96.451a12.2,12.2,0,0,0,9.38-3.9,13.812,13.812,0,0,0,3.544-8.629,19.145,19.145,0,0,1-14.25,6.228,18.658,18.658,0,0,1-14.175-6.317,21.724,21.724,0,0,1-5.873-15.341,21.852,21.852,0,0,1,5.873-15.378,18.649,18.649,0,0,1,14.213-6.354,18.2,18.2,0,0,1,13.783,5.907v-4.547h9.451v33.046q0,10.954-6.1,17.579t-16.2,6.623a22.521,22.521,0,0,1-12.8-3.67A17.685,17.685,0,0,1,584.947-101H596.3a7.478,7.478,0,0,0,3.527,3.312A12.515,12.515,0,0,0,605.462-96.451Zm.286-40.85a11,11,0,0,0-8.448,3.7,13.067,13.067,0,0,0-3.4,9.184,12.944,12.944,0,0,0,3.4,9.128,10.981,10.981,0,0,0,8.411,3.69,11.081,11.081,0,0,0,8.468-3.69,12.962,12.962,0,0,0,3.418-9.165,13.011,13.011,0,0,0-3.4-9.165A11.028,11.028,0,0,0,605.749-137.3Z" transform="translate(86.327 160.36)" fill="#638394"/>
    <path id="Path_19" data-name="Path 19" d="M604.34-144.783h9.1v3.509a15.2,15.2,0,0,1,11.313-4.87q7.231,0,11.474,4.887t4.243,13.193v23.953h-9.775v-21.77q0-5.583-2.077-8.483a6.977,6.977,0,0,0-6.051-2.9,7.3,7.3,0,0,0-6.337,2.936q-2.112,2.938-2.112,8.807v21.412H604.34Z" transform="translate(116.09 160.36)" fill="#638394"/>
    <path id="Path_20" data-name="Path 20" d="M669.359-117.478a19.645,19.645,0,0,1-7.476,10.493,20.969,20.969,0,0,1-12.56,3.924,20.411,20.411,0,0,1-15.035-6.238,20.671,20.671,0,0,1-6.2-15.141,20.789,20.789,0,0,1,6.2-15.176,20.358,20.358,0,0,1,15.035-6.273,21.129,21.129,0,0,1,12.684,3.976,19.991,19.991,0,0,1,7.562,10.617h-10.74a10.019,10.019,0,0,0-3.835-4.312,10.968,10.968,0,0,0-5.776-1.482,10.647,10.647,0,0,0-8.11,3.6,12.432,12.432,0,0,0-3.339,8.765,12.961,12.961,0,0,0,3.428,9.167,11.1,11.1,0,0,0,8.481,3.695,9.608,9.608,0,0,0,5.211-1.521,10.155,10.155,0,0,0,3.729-4.1Z" transform="translate(150.988 160.736)" fill="#638394"/>
    <path id="Path_21" data-name="Path 21" d="M652.723-109.3a20.616,20.616,0,0,1-6.236-15.141,20.733,20.733,0,0,1,6.236-15.176,20.521,20.521,0,0,1,15.107-6.273,20.559,20.559,0,0,1,15.141,6.273,20.727,20.727,0,0,1,6.238,15.176,20.61,20.61,0,0,1-6.238,15.141,20.613,20.613,0,0,1-15.141,6.238A20.575,20.575,0,0,1,652.723-109.3Zm23.446-6.167a12.663,12.663,0,0,0,3.356-8.975,12.785,12.785,0,0,0-3.356-9.009,10.884,10.884,0,0,0-8.34-3.64,10.839,10.839,0,0,0-8.3,3.64,12.776,12.776,0,0,0-3.359,9.009,12.654,12.654,0,0,0,3.359,8.975,10.893,10.893,0,0,0,8.3,3.606A10.938,10.938,0,0,0,676.169-115.465Z" transform="translate(178.029 160.736)" fill="#638394"/>
    <path id="Path_22" data-name="Path 22" d="M666.1-144.544h8.977v3.322a13.738,13.738,0,0,1,10.442-4.665,14.153,14.153,0,0,1,11.113,5.087l.706.85.778-.85a15.824,15.824,0,0,1,12.17-5.087q7.394,0,11.728,4.628t4.334,12.546V-104.4h-9.646v-22.72q0-4.912-1.966-7.456a6.792,6.792,0,0,0-5.72-2.546,6.761,6.761,0,0,0-5.986,2.9q-1.982,2.9-1.983,8.693v21.13H691.4V-126.03q0-5.438-2.01-8.268a6.765,6.765,0,0,0-5.887-2.828,6.527,6.527,0,0,0-5.816,2.9q-1.941,2.9-1.938,8.693v21.13H666.1Z" transform="translate(206.857 160.736)" fill="#638394"/>
    <path id="Path_23" data-name="Path 23" d="M693.432-144.544H702.3v4.24a18.284,18.284,0,0,1,13.43-5.584,18.44,18.44,0,0,1,14.062,6.273,21.553,21.553,0,0,1,5.8,15.176,21.428,21.428,0,0,1-5.8,15.141,18.522,18.522,0,0,1-14.1,6.238,18.8,18.8,0,0,1-12.615-4.771v16.82h-9.646Zm20.742,32.754a10.942,10.942,0,0,0,8.357-3.638,12.755,12.755,0,0,0,3.373-9.012,12.9,12.9,0,0,0-3.356-9.063,10.862,10.862,0,0,0-8.34-3.657,10.884,10.884,0,0,0-8.337,3.64,12.83,12.83,0,0,0-3.359,9.046,12.834,12.834,0,0,0,3.359,9.046A10.842,10.842,0,0,0,714.174-111.79Z" transform="translate(247.02 160.736)" fill="#638394"/>
    <path id="Path_24" data-name="Path 24" d="M733.257-103.06a20.021,20.021,0,0,1-14.823-6.238,20.793,20.793,0,0,1-6.13-15.141,20.912,20.912,0,0,1,6.13-15.176,19.97,19.97,0,0,1,14.823-6.273,20.008,20.008,0,0,1,14.86,6.273,20.911,20.911,0,0,1,6.13,15.176,25.459,25.459,0,0,1-.353,4.24H722.586a12.624,12.624,0,0,0,2.721,4.734,10.639,10.639,0,0,0,8.2,3.606,11.216,11.216,0,0,0,5.564-1.413,8.939,8.939,0,0,0,3.727-3.783h10.177a18.845,18.845,0,0,1-7.315,10.2A20.932,20.932,0,0,1,733.257-103.06ZM744.178-127.9a11.959,11.959,0,0,0-2.862-5.547,10.369,10.369,0,0,0-8.058-3.64,10.368,10.368,0,0,0-8.056,3.64,13.465,13.465,0,0,0-2.9,5.547Z" transform="translate(274.756 160.736)" fill="#638394"/>
    <path id="Path_25" data-name="Path 25" d="M735.406-97.192v-31.661h-4.63v-8.481h4.63V-150.8h9.646v13.463h5.83v8.481h-5.83v31.661Z" transform="translate(301.901 153.524)" fill="#638394"/>
    <path id="Path_26" data-name="Path 26" d="M740.506-145.344h9.647V-105.2h-9.647Z" transform="translate(316.2 161.535)" fill="#638394"/>
    <path id="Path_27" data-name="Path 27" d="M751.231-97.192v-31.661H746.6v-8.481h4.63V-150.8h9.646v13.463h5.83v8.481h-5.83v31.661Z" transform="translate(325.158 153.524)" fill="#638394"/>
    <path id="Path_28" data-name="Path 28" d="M756.331-145.344h9.647V-105.2h-9.647Z" transform="translate(339.456 161.535)" fill="#638394"/>
    <path id="Path_29" data-name="Path 29" d="M768.777-109.3a20.617,20.617,0,0,1-6.236-15.141,20.734,20.734,0,0,1,6.236-15.176,20.514,20.514,0,0,1,15.107-6.273,20.559,20.559,0,0,1,15.141,6.273,20.734,20.734,0,0,1,6.236,15.176,20.617,20.617,0,0,1-6.236,15.141,20.614,20.614,0,0,1-15.141,6.238A20.567,20.567,0,0,1,768.777-109.3Zm23.446-6.167a12.663,12.663,0,0,0,3.356-8.975,12.785,12.785,0,0,0-3.356-9.009,10.884,10.884,0,0,0-8.34-3.64,10.841,10.841,0,0,0-8.305,3.64,12.785,12.785,0,0,0-3.356,9.009,12.663,12.663,0,0,0,3.356,8.975,10.894,10.894,0,0,0,8.305,3.606A10.938,10.938,0,0,0,792.223-115.465Z" transform="translate(348.583 160.736)" fill="#638394"/>
    <path id="Path_30" data-name="Path 30" d="M782.157-144.545h8.977v3.462a15.016,15.016,0,0,1,11.165-4.806q7.135,0,11.326,4.823t4.186,13.022V-104.4h-9.646v-21.486q0-5.512-2.05-8.374a6.886,6.886,0,0,0-5.971-2.862,7.194,7.194,0,0,0-6.253,2.9q-2.086,2.9-2.087,8.693v21.13h-9.646Z" transform="translate(377.41 160.736)" fill="#638394"/>
    <circle id="Ellipse_2" data-name="Ellipse 2" cx="6.078" cy="6.078" r="6.078" transform="translate(1054.556 12.179) rotate(-80.783)" fill="#638394"/>
    <circle id="Ellipse_3" data-name="Ellipse 3" cx="6.078" cy="6.078" r="6.078" transform="translate(1093.638 12.179) rotate(-80.783)" fill="#638394"/>
    <g id="Group_6" data-name="Group 6" transform="translate(804.473 -215.637)">
      <g id="Group_5" data-name="Group 5" clip-path="url(#clip-path)">
        <rect id="Rectangle_23" data-name="Rectangle 23" width="92.519" height="118.012" transform="translate(0.001 0)" fill="#ace08a"/>
      </g>
    </g>
    <path id="Path_32" data-name="Path 32" d="M738.4-123.136q-1.282-1.141-2.474-2.376l.689-.667q1.167,1.208,2.423,2.326h0l-.637.716m-4.761-4.934q-1.093-1.322-2.087-2.724l.783-.553q.971,1.374,2.04,2.667l-.736.61m-3.956-5.6q-.878-1.467-1.647-3.008l.857-.427q.752,1.5,1.61,2.944l-.82.491m-3.057-6.135q-.641-1.582-1.166-3.225l.914-.291q.511,1.608,1.141,3.159l-.889.358m-22.044-8.809c-1.109-.3-2.2-.647-3.272-1.03l.324-.9q1.574.563,3.2,1.008l-.252.924m-12.763-32.206-.753-.59q1.049-1.334,2.013-2.731h0l.785.543q-.982,1.423-2.047,2.778m3.924-5.675-.82-.494q.878-1.452,1.672-2.956l.847.445q-.8,1.534-1.7,3.006m-23.073-8.621-.956-.069c.084-1.148.212-2.287.383-3.408l.946.141q-.248,1.652-.373,3.336m30.379-10.642-.941-.17c.2-1.106.37-2.225.5-3.354l.951.114q-.207,1.722-.514,3.411m53.983-2.65q-.637-1.56-1.388-3.055l.857-.43q.767,1.53,1.418,3.122l-.887.363m-54.741,6.179q.663-1.326,1.442-2.561a24.939,24.939,0,0,1,8.337-8.12q5.2-3.138,12.993-3.139a25.347,25.347,0,0,1,13.1,3.139,24.657,24.657,0,0,1,8.446,8.12,31.96,31.96,0,0,1,3.331,7.206q1.456-.648,2.961-1.2l.326.9q-1.53.556-3,1.218.478,1.623.823,3.351a67.139,67.139,0,0,1,1.3,13.207,65.527,65.527,0,0,1-1.3,13.1q-.307,1.511-.719,2.954,1.026-1.252,1.961-2.578l.783.551q-.989,1.408-2.082,2.729l-.7-.575a33.791,33.791,0,0,1-3.682,8.4,23.368,23.368,0,0,1-8.446,8.118,26.015,26.015,0,0,1-13.1,3.033q-7.8,0-12.993-3.033c-.235-.136-.467-.277-.7-.42l-.057.506q-1.715-.2-3.391-.516l.18-.941q1.2.23,2.418.393a23.494,23.494,0,0,1-6.791-7.14A34.824,34.824,0,0,1,699.291-167a65.5,65.5,0,0,1-1.3-13.1,67.116,67.116,0,0,1,1.3-13.207l.02-.106c-.119.272-.237.543-.358.813l-.874-.393q.7-1.545,1.3-3.136l.526.2q.459-1.689,1.055-3.265l-.474-.148q.5-1.611.909-3.267l.929.23-.037.156m1.58-10.372-.956-.059q.1-1.682.1-3.388v-.225l.956,0v.23q0,1.734-.1,3.448m50.158-1.8q-.867-1.441-1.837-2.81l.78-.553q.993,1.4,1.877,2.87l-.82.494m-3.885-5.47q-1.074-1.293-2.245-2.5l.689-.667q1.193,1.234,2.292,2.554l-.736.612m-47.56-3.166.951-.119q.211,1.7.321,3.433l-.956.062q-.107-1.7-.316-3.376h0m42.887-1.655q-1.256-1.111-2.6-2.129h0l.578-.763q1.367,1.037,2.655,2.176l-.637.716M701.341-229.7l.928-.232q.419,1.667.733,3.368l-.941.175q-.311-1.674-.721-3.312h0m-8.873,1.1-.524-.8q1.434-.937,2.942-1.763l.462.84q-1.474.808-2.88,1.726m47.651-.143q-1.411-.908-2.892-1.709l.455-.842q1.515.819,2.956,1.746l-.519.805m-9.029-4.44.321-.9q1.626.578,3.191,1.274l-.39.874q-1.53-.682-3.122-1.247h0m-26.435-.926-.257-.924q1.645-.456,3.339-.788l.183.938q-1.656.326-3.265.773m23.232-.074q-1.615-.437-3.275-.751l.18-.941q1.693.322,3.344.768l-.25.924m-16.648-1.217-.114-.951q1.693-.2,3.42-.269l.039.956q-1.689.07-3.346.264m10.054-.032q-1.656-.181-3.349-.242l.032-.956q1.73.059,3.423.247l-.106.951m3.766-3.778a63.91,63.91,0,0,0-23.819,4.223c-.143.054-.286.114-.427.17.1.279.193.561.284.842l.032-.012.326.9q-1.582.574-3.107,1.264l-.393-.872q1.108-.5,2.245-.943c-.089-.272-.18-.541-.274-.81a52.937,52.937,0,0,0-13.741,8.449c.183.19.361.383.538.578.783-.691,1.593-1.358,2.423-2l.583.758q-1.219.937-2.371,1.953a37.217,37.217,0,0,1,3.008,4.011q4.434,6.82,5.3,17.213H674.106q-.237.863-.44,1.741l-.931-.215c.116-.514.244-1.02.38-1.526H671a63.774,63.774,0,0,0-3.1,13.064q1.893.5,3.759,1.055-.067-1.185-.067-2.386l.956,0q0,1.352.086,2.682,1.845.563,3.66,1.178a43.163,43.163,0,0,1,11.367,5.739,27.773,27.773,0,0,1,8.011,8.878,26.07,26.07,0,0,1,3.033,13.1,45.732,45.732,0,0,1-.691,8.157c.165.077.331.151.5.225l-.39.874-.3-.133a30.407,30.407,0,0,1-3.559,9.389,36.083,36.083,0,0,1-6.764,8.34,53.679,53.679,0,0,0,13.741,7.9,63.909,63.909,0,0,0,23.819,4.223,64.782,64.782,0,0,0,23.925-4.223,52.17,52.17,0,0,0,18.3-11.908l.393-.4a54.991,54.991,0,0,1-11.1-17.786,62.68,62.68,0,0,1-4.114-23.061,74.59,74.59,0,0,1,3.791-24.145A54.273,54.273,0,0,1,767.4-222c.148-.163.3-.329.449-.489-.188-.2-.38-.4-.573-.593a52.238,52.238,0,0,0-18.3-11.908,64.783,64.783,0,0,0-23.925-4.223" transform="translate(209.493 23.58)" fill="#fca0a0"/>
    <path id="Path_33" data-name="Path 33" d="M692.479-162.059q-1.445-.933-2.808-1.973l.58-.761q1.334,1.015,2.749,1.931h0l-.521.8m-5.458-4.154q-1.281-1.141-2.474-2.376l.686-.667q1.167,1.211,2.425,2.326l-.637.716m-16.309-5.6-.393-.874q1.549-.7,3.043-1.484l.447.847q-1.523.8-3.1,1.511m11.548.667q-1.1-1.319-2.087-2.724l.783-.553q.967,1.374,2.04,2.667l-.736.61m-4.112-5.858q-.793-1.345-1.492-2.749l.857-.427q.671,1.348,1.43,2.642l.21-.146.546.788q-1.415.978-2.892,1.874l-.5-.82q.93-.563,1.837-1.163m4.327-1.939-.593-.753q1.334-1.045,2.6-2.171l.637.716q-1.293,1.141-2.647,2.208m-7.229-3.937q-.645-1.582-1.166-3.225l.911-.291q.511,1.608,1.141,3.159l-.886.358m12.385-.637-.677-.677q1.2-1.2,2.324-2.47l.716.635q-1.145,1.293-2.363,2.512m-14.465-5.895q-.392-1.663-.657-3.369l.946-.148q.259,1.671.642,3.3l-.931.22m-4.88-8.873a78.806,78.806,0,0,0-.654,10.323,67.8,67.8,0,0,0,4.114,24.251A52.489,52.489,0,0,0,683.44-145.2a50.285,50.285,0,0,0,4.448,4.008,36.083,36.083,0,0,0,6.764-8.34,30.409,30.409,0,0,0,3.559-9.389q-1.415-.648-2.781-1.388l.457-.84q1.234.667,2.514,1.262a45.732,45.732,0,0,0,.691-8.157,26.07,26.07,0,0,0-3.033-13.1,27.773,27.773,0,0,0-8.011-8.878,43.161,43.161,0,0,0-11.367-5.739q-1.819-.615-3.66-1.178c.015.225.03.449.047.674l-.953.074c-.027-.346-.049-.694-.069-1.042q-1.867-.552-3.759-1.055m7.779-17.729-.889-.356q.641-1.6,1.4-3.136l.86.422q-.741,1.5-1.368,3.07m2.968-6.023-.822-.487q.878-1.482,1.862-2.884l.783.548q-.963,1.374-1.823,2.823m3.855-5.5-.738-.608q1.089-1.326,2.277-2.566l.692.662q-1.163,1.211-2.23,2.512h0m3.685-6.332q-1.626,1.393-3.134,2.922a52.356,52.356,0,0,0-11.694,18.623c-.123.321-.242.647-.358.973H673.5q.241-.9.519-1.786l.914.286q-.234.745-.442,1.5H696.06q-.867-10.391-5.3-17.213a37.21,37.21,0,0,0-3.008-4.011l-.215.193-.637-.714.217-.2c-.178-.2-.356-.388-.538-.578" transform="translate(209.104 31.441)" fill="#aa8d57"/>
    <path id="Path_34" data-name="Path 34" d="M763.035-123.486q-1.719-.2-3.411-.511l.171-.941q1.659.3,3.354.5l-.113.951m-24.414.3-.637-.714q1.256-1.119,2.418-2.329l.692.662q-1.189,1.237-2.472,2.381m17.63-1.526q-1.682-.411-3.324-.921l.284-.914q1.615.5,3.267.9l-.227.931m-6.591-2.045c-1.079-.408-2.146-.847-3.193-1.319l.393-.872q1.545.693,3.139,1.3l-.338.894m-6.327-2.845c-1.01-.531-2.005-1.092-2.978-1.679l.494-.82q1.452.878,2.959,1.667h0l-.361.689c.422-.543.832-1.1,1.23-1.662l.783.551q-.993,1.4-2.084,2.729l-.738-.61c.237-.284.467-.573.7-.864m-5.878-3.554c-.948-.652-1.874-1.336-2.781-2.042l.59-.756q1.337,1.045,2.734,2.01l-.543.788m9.871-.58-.822-.489q.856-1.441,1.605-2.951h0l.859.425q-.767,1.541-1.642,3.015m-15.3-3.67q-1.293-1.145-2.514-2.363l.674-.677q1.2,1.2,2.472,2.321l-.632.719m18.349-2.479-.887-.358c.415-1.035.8-2.089,1.134-3.164l.914.289q-.519,1.645-1.161,3.233m-23.231-2.391q-1.145-1.289-2.21-2.645l.751-.593q1.048,1.334,2.176,2.6l-.716.637m-4.26-5.418q-.982-1.415-1.877-2.889l.818-.5q.882,1.452,1.847,2.843l-.788.546m-2.823-58.52-.85-.442q.8-1.534,1.694-3.01l.817.494q-.874,1.452-1.662,2.959m3.5-5.811-.788-.541q.978-1.426,2.042-2.783l.753.59q-1.045,1.334-2.008,2.734m4.176-5.344-.719-.635q1.145-1.293,2.361-2.514l.677.674q-1.193,1.2-2.319,2.475m4.784-4.8-.635-.716q1.286-1.145,2.642-2.215l.59.753q-1.33,1.048-2.6,2.178m5.325-4.2-.546-.785q1.411-.982,2.887-1.882l.5.817q-1.452.882-2.84,1.85m5.784-3.524-.447-.845q1.518-.8,3.092-1.519l.4.872q-1.545.7-3.04,1.492m6.164-2.8-.343-.894q1.608-.615,3.257-1.136l.286.914c-1.079.341-2.149.714-3.2,1.116m6.465-2.032-.23-.931q1.667-.415,3.371-.729l.173.941c-1.116.205-2.22.447-3.314.719m6.666-1.235-.116-.951c1.134-.138,2.28-.247,3.433-.319l.059.956q-1.7.107-3.376.314m-12.669-3.26A61.024,61.024,0,0,0,726-234.67a51.119,51.119,0,0,0-17.524,12.178A52.683,52.683,0,0,1,719.6-204.462a68.761,68.761,0,0,1,4.114,24.36,67.852,67.852,0,0,1-4.114,24.251l-.163.422q.348.7.714,1.4l-.845.447c-.116-.217-.23-.437-.343-.659a52.208,52.208,0,0,1-10.664,16.5c.126.133.252.269.38.4a50.579,50.579,0,0,0,17.756,11.908,61.027,61.027,0,0,0,23.17,4.223,68.551,68.551,0,0,0,16.909-1.976l-.044,0,.057-.956q1.5.089,3.023.1a49.675,49.675,0,0,0,12.7-6.028v-37.042h-8.392q-1.515,10.4-7.577,16.566t-16.892,6.172a21.733,21.733,0,0,1-12.126-3.248,24.241,24.241,0,0,1-7.9-8.337,38.142,38.142,0,0,1-4.223-11.368,60.76,60.76,0,0,1-1.3-12.343,63.984,63.984,0,0,1,1.3-12.56,40.5,40.5,0,0,1,1.2-4.611q-1.4-.611-2.857-1.131l.318-.9q1.448.515,2.848,1.124a35.8,35.8,0,0,1,2.926-6.28,26.666,26.666,0,0,1,8.12-8.661,21.594,21.594,0,0,1,12.343-3.356q19.7,0,22.738,19.27h9.474v-34.31a50.832,50.832,0,0,0-12.007-5.292c-.126,0-.254,0-.38,0h-.17v-.161l-.272-.077a70.157,70.157,0,0,0-19.164-2.6" transform="translate(268.868 23.58)" fill="#df8b48"/>
    <path id="Path_35" data-name="Path 35" d="M725.517-169.808q-.615-1.6-1.131-3.257l.914-.286c.338,1.082.711,2.151,1.111,3.2l-.894.341m-2.062-6.579q-.411-1.667-.726-3.371l.941-.173q.307,1.674.716,3.314l-.931.23m-18.843-2.519-.825-.489q.859-1.441,1.608-2.951l.857.425q-.763,1.541-1.64,3.015m17.6-4.26q-.207-1.7-.316-3.435l.956-.059c.072,1.136.173,2.262.311,3.378l-.951.116m-14.548-1.889-.889-.356q.626-1.556,1.136-3.164v0l.911.289q-.519,1.645-1.158,3.233m14.124-4.991v-.116q0-1.678.1-3.331l.956.054q-.093,1.626-.094,3.277v.114h0l-.958,0M709.727-191.6l-.934-.217q.378-1.626.635-3.3h0l.948.146q-.263,1.708-.649,3.369m13.4-5.221-.951-.111q.2-1.723.506-3.413l.943.17q-.3,1.66-.5,3.354m-12.368-1.556-.956-.072q.126-1.663.128-3.356l0-.183h0l.956,0v.188q0,1.73-.128,3.428m13.568-5.115-.931-.227q.411-1.682.916-3.324l.916.282q-.5,1.615-.9,3.27M709.8-205.341q-.137-1.685-.4-3.334l.946-.148q.263,1.682.4,3.406l-.953.077m-3.7-3.512-.257-.921q1.648-.456,3.339-.788l.185.938q-1.656.326-3.267.771h0m6.584-1.289-.111-.951q1.693-.2,3.42-.269l.037.956q-1.689.07-3.346.264m10.056-.032q-1.66-.181-3.349-.242l.032-.956q1.726.059,3.42.247l-.1.951m3.391.124-.689-.259q.611-1.622,1.316-3.193l.874.39q-.567,1.263-1.072,2.559,1.53.3,3.02.706l-.25.924q-1.611-.437-3.272-.751l.072-.375m-17.376-1.919q-.389-1.641-.9-3.233l.911-.294q.522,1.626.921,3.307l-.931.22m8.779-20.475c-.151.161-.3.326-.45.489a54.274,54.274,0,0,0-11.15,19.273,74.593,74.593,0,0,0-3.791,24.145,62.68,62.68,0,0,0,4.114,23.061,54.991,54.991,0,0,0,11.1,17.786,52.207,52.207,0,0,0,10.664-16.5q-.615-1.2-1.173-2.435l.872-.393q.374.826.775,1.642l.163-.422a67.85,67.85,0,0,0,4.114-24.251,68.758,68.758,0,0,0-4.114-24.36,52.683,52.683,0,0,0-11.121-18.031" transform="translate(259.817 33.532)" fill="#dc572d"/>
    <path id="Path_36" data-name="Path 36" d="M742.9-127.474l-.284-.914q1.622-.508,3.205-1.106l.338.894q-1.608.611-3.26,1.126m6.441-2.447-.4-.872q1.548-.7,3.045-1.487l.444.847q-1.518.8-3.094,1.511m6.093-3.208-.5-.82q1.452-.878,2.845-1.842l.543.788q-1.415.978-2.892,1.874m2.615-28.032q-4.152,16.7-15.85,26.351a47.863,47.863,0,0,1-3.951,2.936v4.66c.368-.084.736-.17,1.1-.262l.23.931q-.663.163-1.331.311v.193H768.99v-5.11l-.109-.086a27.643,27.643,0,0,1-6.293-7.026c-.489.412-.988.817-1.492,1.213l-.593-.753q.8-.63,1.583-1.287-.711-1.222-1.326-2.539a35.15,35.15,0,0,1-2.922-14.944q0-2.4.205-4.589m7.673-18.692q-.641-1.585-1.166-3.228l.911-.289c.341,1.069.724,2.124,1.141,3.156l-.887.361m-2.079-6.535q-.393-1.66-.657-3.369l.946-.146q.259,1.671.642,3.294l-.931.22m-1.052-6.777q-.133-1.7-.136-3.428h.956q0,1.693.133,3.356l-.953.072m.941-6.784-.956-.072q.126-1.723.383-3.408l.946.143q-.248,1.648-.373,3.336m1.921-21.908q-1.2-1.2-2.477-2.319l.635-.716q1.293,1.141,2.516,2.356l-.674.679m-5.088-4.482q-1.337-1.045-2.739-2.005l.543-.79q1.422.978,2.783,2.04l-.588.756m-5.591-3.843q-1.452-.874-2.961-1.66h0l.442-.85q1.534.8,3.013,1.689l-.494.82m-6.018-3.139q-1.545-.693-3.141-1.292l.338-.9q1.623.611,3.2,1.314l-.393.874M742.4-235.71q-1.615-.5-3.272-.9l.227-.931q1.682.407,3.327.914l-.282.916m26.593-2.279H738.243v5.1q1.815,1.111,3.519,2.373a43.738,43.738,0,0,1,11.8,13.316,41.608,41.608,0,0,1,5.307,18.621H738.243v29.665h21.276c-.032.225-.062.447-.094.669a24.375,24.375,0,0,1,1.662-4.025,26.861,26.861,0,0,1,7.9-9.315V-203.56H761.3q.648-10.828,5.411-17.974,1.074-1.608,2.274-3.072v-13.383" transform="translate(312.874 25.384)" fill="#e7e551"/>
    <path id="Path_37" data-name="Path 37" d="M759.519-171.95H738.243v37.042a47.87,47.87,0,0,0,3.951-2.936q11.7-9.657,15.85-26.351a34.138,34.138,0,0,1,1.381-7.085c.032-.222.062-.445.094-.669m-21.276-63.975v34.31h20.626a41.608,41.608,0,0,0-5.307-18.621,43.738,43.738,0,0,0-11.8-13.316q-1.7-1.263-3.519-2.373" transform="translate(312.874 28.418)" fill="#ca7d17"/>
    <path id="Path_38" data-name="Path 38" d="M824.858-125.368c-1.1-.338-2.191-.716-3.262-1.126l.343-.894c1.05.4,2.119.773,3.2,1.106l-.282.914m-18.038-9.868q-1.318-1.111-2.558-2.309l.665-.689q1.219,1.174,2.511,2.267l-.618.731m-4.959-4.784q-1.156-1.274-2.227-2.628l.748-.6q1.052,1.326,2.188,2.581l-.709.642m-49.328-4.961-.753-.59q1.045-1.334,2.013-2.731l.788.546q-.986,1.419-2.047,2.776m3.922-5.675-.817-.494q.878-1.452,1.669-2.956l.847.445q-.8,1.534-1.7,3.006m8.2-6.572q-1.445-.933-2.808-1.973l.58-.763q1.334,1.015,2.749,1.931l-.521.805m-4.986.462-.872-.393q.7-1.545,1.3-3.136l.9.338q-.615,1.623-1.324,3.191m-.472-4.618q-1.282-1.141-2.475-2.376l.689-.664q1.167,1.208,2.423,2.326h0l-.637.714m59.6-.049-.637-.716q1.252-1.119,2.418-2.329l.689.664q-1.189,1.237-2.47,2.381m-56.677-1.79-.914-.284q.5-1.611.906-3.267l.931.23q-.415,1.682-.924,3.322m-7.685-3.094q-1.093-1.319-2.084-2.721l.783-.553q.967,1.371,2.04,2.665l-.738.61m69.117-.059-.738-.608q1.067-1.3,2.037-2.672h0l.783.553q-.989,1.4-2.082,2.726M763.76-169.92l-.941-.17q.3-1.66.506-3.354l.951.114q-.207,1.723-.516,3.411m63.738-2.067-.822-.489q.859-1.441,1.608-2.951l.857.425q-.763,1.545-1.642,3.015m-38.015-.719q3-.53,6.251-.9,3.786-.433,7.145-1.082a50.049,50.049,0,0,0,6.28-1.625,13.741,13.741,0,0,0,4.873-2.707v11.476a58.91,58.91,0,0,1-.543,6.93,21.16,21.16,0,0,1-.44,2.393q1.293-.852,2.519-1.79l.583.763q-1.363,1.037-2.8,1.976l-.388-.6a24.526,24.526,0,0,1-2.393,5.809,20.3,20.3,0,0,1-7.362,7.256q-4.982,3.034-14.077,3.03a38.733,38.733,0,0,1-7.145-.65,17.313,17.313,0,0,1-6.063-2.275,11.8,11.8,0,0,1-4.114-4.329,12.611,12.611,0,0,1-1.43-5.063q-1.412-.648-2.771-1.383l.457-.842q1.1.6,2.245,1.136c-.01-.289-.017-.585-.017-.887a15.1,15.1,0,0,1,1.516-7.036,13.561,13.561,0,0,1,4.006-4.764,20.554,20.554,0,0,1,5.739-2.924,48.821,48.821,0,0,1,6.93-1.734l.052-.01q-.041-1.011-.045-2.035l.958,0q0,.937.037,1.867m-24.9-4.058-.956-.057q.1-1.686.1-3.391v-.225l.958,0v.23q0,1.734-.1,3.448m24.968-1.19-.956-.059q.111-1.734.333-3.43l.948.123c-.143,1.111-.254,2.235-.326,3.366m41-.18-.889-.358c.417-1.035.8-2.092,1.136-3.164l.914.289q-.522,1.645-1.161,3.233m2.067-6.542-.933-.217q.378-1.626.635-3.3l.946.146q-.259,1.7-.647,3.369m-42.186.02-.941-.188q.341-1.7.79-3.354l.924.249q-.441,1.626-.773,3.292m-31.72-18.8q-.7-1.545-1.5-3.038l.847-.449q.8,1.519,1.521,3.089l-.872.4m72.93-1.6q-.389-1.641-.9-3.233l.911-.291q.522,1.626.921,3.3l-.931.22m-76.1-4.384q-.881-1.448-1.85-2.84l.785-.546q.981,1.411,1.882,2.887l-.817.5m74.056-2.005q-.637-1.556-1.385-3.055l.855-.427q.767,1.526,1.418,3.122l-.887.361m-16.867-5.86-.516-.805q1.445-.93,2.956-1.766l.464.84q-1.485.819-2.9,1.731m13.864-.136q-.867-1.441-1.837-2.808l.78-.556q.993,1.4,1.877,2.872l-.82.491m-7.952-3.131-.4-.867q1.556-.726,3.164-1.353l.348.891q-1.578.615-3.107,1.329h0m6.3-2.447-.287-.914q1.641-.511,3.324-.916l.222.929q-1.652.4-3.26.9m-69.87.309-.738-.607q1.089-1.326,2.277-2.566l.692.662q-1.163,1.211-2.23,2.512h0m67.64-.2q-1.074-1.293-2.245-2.5l.689-.664q1.193,1.23,2.292,2.551l-.736.612m-63-4.648-.637-.714q1.278-1.145,2.64-2.19l.583.761q-1.333,1.022-2.586,2.144m58.325-.17q-1.256-1.115-2.6-2.131l.578-.763q1.367,1.041,2.652,2.176l-.635.719m-53-3.914-.524-.8q1.434-.934,2.944-1.761l.459.837q-1.474.811-2.879,1.726m47.651-.141q-1.411-.911-2.892-1.711l.455-.842q1.515.819,2.956,1.749l-.519.805m-5.907-3.193q-1.53-.682-3.122-1.247l.321-.9q1.626.578,3.188,1.274l-.388.874m-6.325-2.25q-1.615-.433-3.272-.751l.178-.938q1.7.319,3.344.766l-.25.924m-4.826-2q-.845,0-1.687.015l-.081.733q-1.656-.185-3.349-.245h0l.013-.37q-1.693.089-3.376.24l.005.143q-1.689.067-3.347.264l-.007-.049q-1.671.207-3.327.479l.017.086q-1.66.326-3.27.773l-.072-.259-.143.03q-1.612.326-3.171.731l.19.521q-1.586.574-3.109,1.262l-.371-.82a50.366,50.366,0,0,0-9.994,4.477,36.8,36.8,0,0,0-9.854,8.4v4.6q.741-1.215,1.556-2.376l.783.551q-.963,1.374-1.82,2.823l-.249-.148q.745.871,1.455,1.768l-.751.593q-.478-.6-.973-1.2v14.435h23.061q.863-9.094,6.171-12.993t14.183-3.9a51.459,51.459,0,0,1,7.688.543,17.079,17.079,0,0,1,6.28,2.163c.188.116.373.235.556.358.245-.19.494-.378.741-.563l.57.771-.514.385a12.22,12.22,0,0,1,2.976,3.6,16.325,16.325,0,0,1,1.625,7.9q0,4.768-3.033,7.253a20.7,20.7,0,0,1-8.12,3.791,78.931,78.931,0,0,1-11.585,1.948q-6.494.648-13.64,1.731a126.879,126.879,0,0,0-13.262,2.736q.107,1.067.178,2.141l-.956.062c-.042-.654-.094-1.3-.158-1.953a40.221,40.221,0,0,0-12,5.46c-.257.175-.509.353-.758.536v6.332q.3.526.605,1.045h0l-.605.361v42.7a35.625,35.625,0,0,0,12.019,6.085,52.282,52.282,0,0,0,14.941,2.057,67.387,67.387,0,0,0,20.354-3.141,40.725,40.725,0,0,0,13.6-7.3c-.706-.467-1.4-.953-2.079-1.452l.568-.773q1.115.822,2.28,1.585,1.526-1.3,2.956-2.776a45.22,45.22,0,0,0,.642,4.924q1.4.759,2.848,1.432l-.4.867q-1.115-.515-2.2-1.084a43.187,43.187,0,0,0,1.282,4.687h11.691c-.336-.072-.669-.146-1-.225l.22-.931q1.637.385,3.314.664l-.082.491H833.3V-191.48l-.6-.047c.082-1.106.126-2.225.126-3.356l0-.183.479,0v-3.4l-.617.049q-.137-1.685-.4-3.334h0l.946-.148c.022.148.047.3.067.449v-23.414c-.6.082-1.2.173-1.8.274l-.16-.943q.974-.167,1.956-.3v-4.71a32.3,32.3,0,0,0-4.764-2.828,52.446,52.446,0,0,0-15.805-4.655,125.723,125.723,0,0,0-17.107-1.19" transform="translate(331.171 23.58)" fill="#fca0a0"/>
    <path id="Path_39" data-name="Path 39" d="M756.242-152.735h0l.716.635q-1.145,1.293-2.366,2.512l-.677-.677q1.2-1.2,2.326-2.47m1.087-36.817a26.86,26.86,0,0,0-7.9,9.315,24.365,24.365,0,0,0-1.662,4.025,71.528,71.528,0,0,1-1.381,7.085q-.2,2.186-.2,4.589a35.15,35.15,0,0,0,2.922,14.944q.615,1.315,1.326,2.539.515-.437,1.023-.884l.635.716c-.38.336-.766.669-1.156,1a27.646,27.646,0,0,0,6.293,7.026l.109.086v-42.7l-.217.131q-.878-1.471-1.645-3.01l.857-.427q.478.967,1.005,1.9v-6.332m-4.463-25-.931-.215c.257-1.119.558-2.225.9-3.312l.914.286q-.5,1.6-.882,3.24m2.01-6.4-.889-.358q.641-1.6,1.4-3.136l.857.425q-.741,1.5-1.368,3.07m2.452-11.617q-1.2,1.467-2.275,3.072-4.764,7.146-5.411,17.974h7.685v-14.435q-.593-.711-1.208-1.4h0l.714-.637c.1.114.2.227.3.341l.193-.319v-4.6" transform="translate(324.536 33.348)" fill="#e49033"/>
    <path id="Path_40" data-name="Path 40" d="M747.642-209.749a34.13,34.13,0,0,0-1.381,7.085,71.526,71.526,0,0,0,1.381-7.085" transform="translate(324.658 66.886)" fill="#c84e0e"/>
    <path id="Path_41" data-name="Path 41" d="M806.258-101.821l-.284-.914q1.619-.5,3.193-1.111l.346.894q-1.6.619-3.255,1.131m5.836-95.295q-1.534-.708-3.122-1.314l.341-.894q1.618.619,3.181,1.339l-.4.869M802.5-200.41l.22-.931c1.123.262,2.233.563,3.326.9l-.279.916q-1.611-.493-3.265-.882h0m-3.317-.659q-1.66-.27-3.354-.435h0l.092-.953q1.726.167,3.418.445l-.156.943m15.707-54.193H784.143v48.3a30.28,30.28,0,0,1,4.9,4.4l0-.1q.937-.033,1.887-.035c.521,0,1.04.01,1.558.025l-.027.956c-.509-.015-1.02-.022-1.531-.022-.388,0-.773,0-1.158.012q.678.815,1.3,1.679,4.549,6.283,4.549,16.24v58.248a116.884,116.884,0,0,0,.864,14.509q.852,6.857,2.986,10.318l-.074-.435q1.678-.281,3.314-.674l.222.931q-.556.133-1.111.252h13.069V-105.4q-1.089.574-2.213,1.1l-.4-.867c.884-.412,1.758-.852,2.615-1.314V-255.262" transform="translate(380.329 0)" fill="#48c9d8"/>
    <path id="Path_42" data-name="Path 42" d="M784.143-235.705V-231q.726-.093,1.46-.17l.1.953q-.782.078-1.556.183v23.414q.219,1.463.336,2.959l-.336.025v3.4h.479v.185q0,1.73-.128,3.428l-.351-.025V-129.4h1.766l0-.049c.175.02.353.035.529.049h8.967q.319-.026.637-.059l.005.059h3.433l-.012-.074q-2.13-3.464-2.986-10.318a116.884,116.884,0,0,1-.864-14.509v-58.248q0-9.957-4.549-16.24-.626-.867-1.3-1.679-.348.007-.7.022l-.03-.862a30.278,30.278,0,0,0-4.9-4.4" transform="translate(380.329 28.741)" fill="#477e88"/>
    <circle id="Ellipse_4" data-name="Ellipse 4" cx="15.827" cy="15.827" r="15.827" transform="translate(1050.21 -251.032)" fill="#e7e551"/>
    <path id="Path_43" data-name="Path 43" d="M611.251-113.628a13.532,13.532,0,0,1-7.088-1.756,14.973,14.973,0,0,1-4.877-4.744,21.4,21.4,0,0,1-2.86-6.9,35.3,35.3,0,0,1-.911-8.061,35.917,35.917,0,0,1,.911-8.194,21.413,21.413,0,0,1,2.86-6.893,15.006,15.006,0,0,1,4.877-4.747,13.555,13.555,0,0,1,7.088-1.756,13.65,13.65,0,0,1,7.021,1.756,14.775,14.775,0,0,1,4.942,4.747,21.421,21.421,0,0,1,2.862,6.893,36.062,36.062,0,0,1,.909,8.194,35.444,35.444,0,0,1-.909,8.061,21.411,21.411,0,0,1-2.862,6.9,14.743,14.743,0,0,1-4.942,4.744,13.626,13.626,0,0,1-7.021,1.756m-15.087-80.756H577.7v92.85h17.556v-8.582h.259a17.133,17.133,0,0,0,8.844,8,34.642,34.642,0,0,0,13.264,2.405,25.641,25.641,0,0,0,10.014-2.082,25.289,25.289,0,0,0,8.908-6.438,33.327,33.327,0,0,0,6.436-11.054,46.046,46.046,0,0,0,2.472-15.929,46.091,46.091,0,0,0-2.472-15.931,32.617,32.617,0,0,0-6.436-10.987,25.649,25.649,0,0,0-8.908-6.372,25.6,25.6,0,0,0-10.014-2.082,31.059,31.059,0,0,0-12.029,2.405,19.708,19.708,0,0,0-9.167,7.609h-.262v-33.811" transform="translate(76.938 89.467)" fill="#48c9d8"/>
    <path id="Path_44" data-name="Path 44" d="M672.946-184.011H654.478v35.241q0,10.276-3.381,14.761t-10.923,4.487q-6.505,0-9.17-4.1t-2.665-12.42v-37.973H609.872v41.354a54.225,54.225,0,0,0,1.106,11.38,21.586,21.586,0,0,0,3.838,8.713,17.984,17.984,0,0,0,7.475,5.591,31.37,31.37,0,0,0,12.16,2.018,25.819,25.819,0,0,0,11.444-2.731,21.832,21.832,0,0,0,9.1-8.453h.39v9.362h17.556v-67.233" transform="translate(124.22 104.711)" fill="#48c9d8"/>
    <path id="Path_45" data-name="Path 45" d="M670.6-184.748a57.763,57.763,0,0,0-10.661.976,29.358,29.358,0,0,0-9.365,3.381,18.551,18.551,0,0,0-6.7,6.631,20.333,20.333,0,0,0-2.534,10.6,14.352,14.352,0,0,0,1.82,7.478,15.779,15.779,0,0,0,4.811,5.073,26.749,26.749,0,0,0,6.829,3.25q3.834,1.237,7.866,2.146,4.942,1.045,8.844,2.015a41.932,41.932,0,0,1,6.567,2.146,12.682,12.682,0,0,1,4.1,2.667,5,5,0,0,1,1.43,3.576,6.819,6.819,0,0,1-1.171,4.1,8.875,8.875,0,0,1-2.924,2.6,13.983,13.983,0,0,1-3.9,1.43,19.724,19.724,0,0,1-4.1.454,21.052,21.052,0,0,1-5.265-.65,13.643,13.643,0,0,1-4.487-2.015,10.819,10.819,0,0,1-3.188-3.512,10.133,10.133,0,0,1-1.235-5.137H639.781a22.726,22.726,0,0,0,3.057,11.182,22.719,22.719,0,0,0,7.152,7.35,29.368,29.368,0,0,0,9.95,3.966,55.7,55.7,0,0,0,11.444,1.171,54.133,54.133,0,0,0,11.247-1.171,29.5,29.5,0,0,0,9.819-3.9,21.327,21.327,0,0,0,6.957-7.219,21.447,21.447,0,0,0,2.667-11.118,15.651,15.651,0,0,0-1.823-7.866,16.72,16.72,0,0,0-4.811-5.334,25.927,25.927,0,0,0-6.826-3.445,78.365,78.365,0,0,0-7.868-2.21q-3.9-.908-7.673-1.692a59.042,59.042,0,0,1-6.7-1.756,13.978,13.978,0,0,1-4.746-2.536,5.054,5.054,0,0,1-1.82-4.03,4.986,4.986,0,0,1,1.04-3.317,6.851,6.851,0,0,1,2.536-1.884,11.257,11.257,0,0,1,3.317-.847,32.306,32.306,0,0,1,3.381-.2,18.455,18.455,0,0,1,8.582,1.887q3.641,1.889,4.033,7.219h17.554a22.073,22.073,0,0,0-3.186-10.34,21.081,21.081,0,0,0-6.7-6.567,28.137,28.137,0,0,0-9.167-3.512,53.425,53.425,0,0,0-10.6-1.04" transform="translate(168.174 103.628)" fill="#48c9d8"/>
    <path id="Path_46" data-name="Path 46" d="M688.052-181.46H669.585v60.933h18.467V-181.46" transform="translate(211.975 108.46)" fill="#48c9d8"/>
    <path id="Path_47" data-name="Path 47" d="M721.454-184.748a25.778,25.778,0,0,0-11.444,2.731,21.818,21.818,0,0,0-9.1,8.453h-.39v-9.365H682.96V-115.7h18.465v-35.241q0-10.272,3.383-14.761t10.923-4.485q6.5,0,9.167,4.095t2.667,12.42V-115.7h18.465v-41.354a54.258,54.258,0,0,0-1.1-11.377,21.665,21.665,0,0,0-3.838-8.715,18.078,18.078,0,0,0-7.478-5.591,31.36,31.36,0,0,0-12.158-2.015" transform="translate(231.63 103.628)" fill="#48c9d8"/>
    <path id="Path_48" data-name="Path 48" d="M731.334-156.528a21.064,21.064,0,0,1,.847-4.423,13.543,13.543,0,0,1,2.47-4.68,13.993,13.993,0,0,1,4.682-3.707,16.084,16.084,0,0,1,7.347-1.5q6.761,0,10.078,3.643t4.616,10.664h-30.04m15.867-28.22a34.78,34.78,0,0,0-13.98,2.731,33.059,33.059,0,0,0-10.859,7.478,32.93,32.93,0,0,0-7.021,11.249,39.158,39.158,0,0,0-2.472,14.045,40.9,40.9,0,0,0,2.406,14.3,32.482,32.482,0,0,0,6.828,11.185,30.442,30.442,0,0,0,10.795,7.283,37.532,37.532,0,0,0,14.3,2.6q11.443,0,19.507-5.332t11.963-17.3H762.417q-.911,3.123-4.942,5.917a16.468,16.468,0,0,1-9.624,2.8q-7.8,0-11.963-4.095t-4.554-12.941h48.508a47.447,47.447,0,0,0-1.3-14.953,36.63,36.63,0,0,0-5.917-12.746,29.855,29.855,0,0,0-10.466-8.908,31.954,31.954,0,0,0-14.956-3.317" transform="translate(275.585 103.628)" fill="#48c9d8"/>
    <path id="Path_49" data-name="Path 49" d="M773.915-184.748a57.809,57.809,0,0,0-10.664.976,29.361,29.361,0,0,0-9.362,3.381,18.549,18.549,0,0,0-6.7,6.631,20.333,20.333,0,0,0-2.536,10.6,14.377,14.377,0,0,0,1.82,7.478,15.813,15.813,0,0,0,4.813,5.073,26.769,26.769,0,0,0,6.826,3.25q3.837,1.237,7.868,2.146,4.942,1.045,8.844,2.015a41.928,41.928,0,0,1,6.567,2.146,12.681,12.681,0,0,1,4.1,2.667,5,5,0,0,1,1.43,3.576,6.836,6.836,0,0,1-1.171,4.1,8.9,8.9,0,0,1-2.924,2.6,14.009,14.009,0,0,1-3.9,1.43,19.742,19.742,0,0,1-4.1.454,21.084,21.084,0,0,1-5.268-.65,13.654,13.654,0,0,1-4.485-2.015,10.786,10.786,0,0,1-3.186-3.512,10.087,10.087,0,0,1-1.237-5.137H743.094a22.727,22.727,0,0,0,3.057,11.182,22.717,22.717,0,0,0,7.152,7.35,29.374,29.374,0,0,0,9.948,3.966,55.7,55.7,0,0,0,11.444,1.171,54.137,54.137,0,0,0,11.249-1.171,29.521,29.521,0,0,0,9.819-3.9,21.353,21.353,0,0,0,6.957-7.219,21.448,21.448,0,0,0,2.667-11.118,15.649,15.649,0,0,0-1.82-7.866,16.755,16.755,0,0,0-4.813-5.334,25.972,25.972,0,0,0-6.826-3.445,78.718,78.718,0,0,0-7.868-2.21q-3.9-.908-7.673-1.692a59.034,59.034,0,0,1-6.7-1.756,13.976,13.976,0,0,1-4.747-2.536,5.053,5.053,0,0,1-1.82-4.03,4.986,4.986,0,0,1,1.04-3.317,6.853,6.853,0,0,1,2.536-1.884,11.259,11.259,0,0,1,3.317-.847,32.309,32.309,0,0,1,3.381-.2,18.462,18.462,0,0,1,8.582,1.887q3.642,1.889,4.033,7.219h17.556a22.074,22.074,0,0,0-3.188-10.34,21.081,21.081,0,0,0-6.7-6.567,28.159,28.159,0,0,0-9.167-3.512,53.429,53.429,0,0,0-10.6-1.04" transform="translate(320.003 103.628)" fill="#48c9d8"/>
    <path id="Path_50" data-name="Path 50" d="M802.192-184.748a57.788,57.788,0,0,0-10.664.976,29.34,29.34,0,0,0-9.362,3.381,18.53,18.53,0,0,0-6.7,6.631,20.309,20.309,0,0,0-2.536,10.6,14.35,14.35,0,0,0,1.82,7.478,15.784,15.784,0,0,0,4.813,5.073,26.689,26.689,0,0,0,6.826,3.25q3.834,1.237,7.868,2.146,4.938,1.045,8.841,2.015a41.882,41.882,0,0,1,6.569,2.146,12.636,12.636,0,0,1,4.094,2.667,5,5,0,0,1,1.432,3.576,6.836,6.836,0,0,1-1.171,4.1,8.882,8.882,0,0,1-2.926,2.6,13.98,13.98,0,0,1-3.9,1.43,19.723,19.723,0,0,1-4.1.454,21.052,21.052,0,0,1-5.265-.65,13.667,13.667,0,0,1-4.487-2.015,10.813,10.813,0,0,1-3.186-3.512,10.11,10.11,0,0,1-1.235-5.137H771.371a22.725,22.725,0,0,0,3.055,11.182,22.7,22.7,0,0,0,7.155,7.35,29.331,29.331,0,0,0,9.948,3.966,55.691,55.691,0,0,0,11.444,1.171,54.171,54.171,0,0,0,11.249-1.171,29.542,29.542,0,0,0,9.819-3.9A21.353,21.353,0,0,0,831-126.164a21.447,21.447,0,0,0,2.665-11.118,15.649,15.649,0,0,0-1.82-7.866,16.721,16.721,0,0,0-4.811-5.334,25.945,25.945,0,0,0-6.829-3.445,78.329,78.329,0,0,0-7.868-2.21q-3.9-.908-7.673-1.692a59.126,59.126,0,0,1-6.7-1.756,14.012,14.012,0,0,1-4.749-2.536,5.053,5.053,0,0,1-1.82-4.03,4.974,4.974,0,0,1,1.042-3.317,6.824,6.824,0,0,1,2.534-1.884,11.277,11.277,0,0,1,3.317-.847,32.312,32.312,0,0,1,3.381-.2,18.466,18.466,0,0,1,8.584,1.887q3.638,1.889,4.03,7.219h17.556a22.1,22.1,0,0,0-3.186-10.34,21.083,21.083,0,0,0-6.7-6.567,28.179,28.179,0,0,0-9.167-3.512,53.463,53.463,0,0,0-10.6-1.04" transform="translate(361.559 103.628)" fill="#48c9d8"/>
    <path id="Path_51" data-name="Path 51" d="M678.819-190.534a9.233,9.233,0,0,0-9.234,9.231,9.234,9.234,0,0,0,9.234,9.234,9.234,9.234,0,0,0,9.234-9.234,9.233,9.233,0,0,0-9.234-9.231" transform="translate(211.974 95.125)" fill="#48c9d8"/>
    <path id="Path_52" data-name="Path 52" d="M744.546-216.3l-.894.343c.217.565.427,1.136.625,1.711.294-.123.59-.247.886-.368q-.3-.848-.617-1.687M639.034-219.18q-.7,1.571-1.316,3.193l.9.338q.6-1.593,1.294-3.141l-.874-.39m102.659-3.388-.845.449q.793,1.493,1.5,3.038l.869-.4q-.715-1.571-1.521-3.09M642.235-225.3q-.889,1.478-1.692,3.01l.847.442q.789-1.5,1.665-2.959l-.82-.494m95.87-3.151-.785.546q.967,1.389,1.852,2.84l.818-.5q-.9-1.474-1.884-2.887m-91.958-2.531q-1.059,1.36-2.04,2.783l.788.541q.963-1.4,2.008-2.734l-.756-.59m87.686-2.877-.714.637q1.13,1.263,2.181,2.6l.751-.593q-1.067-1.356-2.218-2.64m-83.122-2.292q-1.215,1.222-2.358,2.514l.719.635q1.122-1.271,2.319-2.475l-.679-.674m78.232-2.568-.632.716q1.274,1.122,2.477,2.319l.674-.679q-1.223-1.215-2.519-2.356m-73.083-2.018q-1.356,1.071-2.643,2.215l.637.716q1.267-1.13,2.6-2.178l-.593-.753M723.5-242.96l-.541.79q1.4.959,2.736,2.005l.59-.756q-1.359-1.059-2.786-2.04m-61.985-1.706q-1.47.9-2.887,1.882l.546.785q1.389-.967,2.84-1.85l-.5-.817m56.072-1.85-.442.847h0q1.507.789,2.961,1.662l.494-.82q-1.478-.889-3.01-1.689m-49.985-1.371q-1.571.715-3.092,1.519l.45.847v0q1.493-.789,3.038-1.492l-.4-.872m43.68-1.447-.336.9q1.593.6,3.141,1.292l.39-.874q-1.575-.7-3.2-1.314m-37.244-1.013c-1.1.343-2.188.724-3.257,1.134l.341.894q1.582-.6,3.2-1.116l-.286-.911m30.648-1.017-.225.931h0q1.656.4,3.27.9l.282-.914q-1.641-.5-3.326-.914m-23.958-.647q-1.7.315-3.371.729l.232.929q1.637-.408,3.314-.716l-.175-.941m17.171-.566-.111.948q1.693.2,3.356.5l.168-.941q-1.689-.3-3.413-.5m-10.33-.279q-1.73.111-3.433.319l.118.951q1.671-.207,3.376-.314l-.062-.956m3.62-.111h-.173l0,.956h.168q1.623,0,3.221.091l.054-.956q-1.626-.093-3.275-.091" transform="translate(165.142 3.373)" fill="#b8bbbc"/>
    <path id="Path_53" data-name="Path 53" d="M681.753-237.438c-.3.121-.593.244-.886.368.094.269.185.538.274.81.3-.116.6-.227.9-.336-.091-.282-.188-.563-.284-.842" transform="translate(228.553 26.194)" fill="#b4494a"/>
    <path id="Path_54" data-name="Path 54" d="M637.81-236.669q-.508,1.641-.916,3.324l.929.227q.4-1.656.9-3.27l-.914-.282" transform="translate(163.931 27.324)" fill="#b8bbbc"/>
    <path id="Path_55" data-name="Path 55" d="M682.368-235.458l-.928.232h0q.407,1.637.721,3.312l.941-.175q-.315-1.7-.733-3.369" transform="translate(229.395 29.104)" fill="#b4494a"/>
    <path id="Path_56" data-name="Path 56" d="M636.908-233.956q-.3,1.689-.509,3.411l.951.111q.2-1.693.5-3.354l-.941-.168" transform="translate(163.204 31.311)" fill="#b8bbbc"/>
    <path id="Path_57" data-name="Path 57" d="M681.941-232.6h0m.951-.119-.951.119q.208,1.674.316,3.376l.956-.062q-.107-1.73-.321-3.433" transform="translate(230.133 33.137)" fill="#b4494a"/>
    <path id="Path_58" data-name="Path 58" d="M636.333-231.184q-.092,1.652-.094,3.331v.116l.956,0h0l0-.114q0-1.652.094-3.277l-.956-.054" transform="translate(162.969 35.385)" fill="#b8bbbc"/>
    <path id="Path_59" data-name="Path 59" d="M683.132-229.928l-.956,0v.225q0,1.708-.1,3.388l.956.059q.1-1.711.1-3.448v-.23" transform="translate(230.33 37.231)" fill="#b4494a"/>
    <path id="Path_60" data-name="Path 60" d="M637.239-228.416l-.956.057q.107,1.734.316,3.435l.948-.116q-.2-1.674-.309-3.376" transform="translate(163.034 39.453)" fill="#b8bbbc"/>
    <path id="Path_61" data-name="Path 61" d="M682.252-227.1c-.133,1.129-.3,2.247-.5,3.354l.941.17q.307-1.689.514-3.411l-.951-.114" transform="translate(229.849 41.394)" fill="#b4494a"/>
    <path id="Path_62" data-name="Path 62" d="M748.248-222.1a32.191,32.191,0,0,0-1.326,3.03l.44.136q.489-1.563.887-3.166m-110.685-3.588-.941.173q.311,1.7.726,3.371l.929-.23q-.4-1.641-.714-3.314" transform="translate(163.532 43.456)" fill="#b8bbbc"/>
    <path id="Path_63" data-name="Path 63" d="M682-224.4q-.4,1.656-.909,3.267l.474.148a32.159,32.159,0,0,1,1.326-3.03l.037-.156L682-224.4" transform="translate(228.886 45.362)" fill="#b4494a"/>
    <path id="Path_64" data-name="Path 64" d="M744.883-217.781q-.333,1.226-.6,2.517.508-1.174.963-2.378l-.368-.138m-106.674-3.3-.914.286q.515,1.652,1.129,3.26l.9-.343q-.6-1.578-1.111-3.2m-.916-3.265h0" transform="translate(164.516 45.428)" fill="#b8bbbc"/>
    <path id="Path_65" data-name="Path 65" d="M681.42-221.771q-.6,1.593-1.3,3.136l.874.393c.121-.269.239-.541.358-.813q.263-1.289.595-2.517l-.526-.2" transform="translate(227.453 49.219)" fill="#b4494a"/>
    <path id="Path_66" data-name="Path 66" d="M639.159-220.465l-.872.4q.711,1.571,1.514,3.092l.847-.447q-.789-1.493-1.489-3.04" transform="translate(165.979 51.138)" fill="#b8bbbc"/>
    <path id="Path_67" data-name="Path 67" d="M680.511-219.265q-.793,1.5-1.672,2.956l.82.494q.893-1.474,1.7-3.006l-.847-.445" transform="translate(225.574 52.901)" fill="#b4494a"/>
    <path id="Path_68" data-name="Path 68" d="M640.408-218.041l-.82.5q.9,1.474,1.879,2.889l.785-.546q-.963-1.389-1.845-2.843" transform="translate(167.89 54.7)" fill="#b8bbbc"/>
    <path id="Path_69" data-name="Path 69" d="M679.292-216.915h0q-.967,1.4-2.013,2.731l.753.59q1.067-1.356,2.047-2.778l-.785-.543" transform="translate(223.278 56.355)" fill="#b4494a"/>
    <path id="Path_70" data-name="Path 70" d="M641.931-215.786l-.753.593q1.067,1.356,2.213,2.645l.716-.637h0q-1.122-1.267-2.173-2.6" transform="translate(170.227 58.014)" fill="#b8bbbc"/>
    <path id="Path_71" data-name="Path 71" d="M677.78-214.754q-1.126,1.271-2.324,2.47l.677.677q1.219-1.219,2.363-2.512l-.716-.635" transform="translate(220.602 59.531)" fill="#523916"/>
    <path id="Path_72" data-name="Path 72" d="M644.69-212.266l-.677.677q1.223,1.219,2.514,2.363l.635-.719q-1.271-1.122-2.472-2.321m-2.326-2.467h0" transform="translate(171.97 59.562)" fill="#b8bbbc"/>
    <path id="Path_73" data-name="Path 73" d="M676-212.812q-1.267,1.122-2.6,2.171l.593.753q1.356-1.063,2.647-2.208l-.637-.716" transform="translate(217.584 62.385)" fill="#523916"/>
    <path id="Path_74" data-name="Path 74" d="M645.714-211.915l-.59.753q1.359,1.063,2.781,2.045l.543-.788q-1.4-.963-2.734-2.01" transform="translate(176.026 63.703)" fill="#b8bbbc"/>
    <path id="Path_75" data-name="Path 75" d="M673.989-211.118l-.21.146c.059.1.121.2.18.3l-.822.491-.153-.259q-.907.6-1.837,1.163l.5.82q1.474-.9,2.892-1.874l-.546-.788" transform="translate(214.268 64.874)" fill="#523916"/>
    <path id="Path_76" data-name="Path 76" d="M647.918-210.355l-.494.82q1.474.893,3.005,1.694l.445-.847q-1.5-.789-2.956-1.667" transform="translate(179.406 65.996)" fill="#b8bbbc"/>
    <path id="Path_77" data-name="Path 77" d="M671.763-209.7q-1.5.785-3.043,1.484l.393.874q1.574-.711,3.1-1.511l-.447-.847" transform="translate(210.703 66.964)" fill="#523916"/>
    <path id="Path_78" data-name="Path 78" d="M691.216-207.09c-.388.131-.775.257-1.166.378l.284.914q.837-.259,1.66-.546-.367-.378-.778-.746m-40.924-1.988-.393.872q1.571.708,3.191,1.319l.341-.894q-1.593-.6-3.139-1.3" transform="translate(183.043 67.872)" fill="#b8bbbc"/>
    <path id="Path_79" data-name="Path 79" d="M668.666-208.569q-1.011.385-2.037.731.411.367.778.746c.536-.185,1.069-.38,1.6-.58l-.341-.9" transform="translate(207.63 68.62)" fill="#549037"/>
    <path id="Path_80" data-name="Path 80" d="M666.115-205.7l-.057.956q1.681.1,3.388.1h.057v-.956h-.057q-1.678,0-3.331-.1m-3.378-.3h0m13.533-.015q-1.674.2-3.376.306l.057.956q1.734-.1,3.435-.311l-.116-.951m-16.887-.487-.17.941q1.689.3,3.411.511l.114-.951q-1.693-.2-3.354-.5m23.555-.733q-1.641.4-3.314.711l.17.943q1.708-.315,3.373-.724l-.23-.931m-30.139-.877-.284.914q1.641.511,3.324.921l.227-.931h0q-1.656-.4-3.267-.9" transform="translate(186.888 69.301)" fill="#b8bbbc"/>
    <path id="Path_81" data-name="Path 81" d="M733.33-238.456h-.173l0,.8.551.163c.953,0,1.9.037,2.84.089l.054-.956c-1.084-.062-2.178-.091-3.275-.091" transform="translate(305.4 24.698)" fill="#b8bbbc"/>
    <path id="Path_82" data-name="Path 82" d="M737.254-237.727v.161h.17c.126,0,.254,0,.38,0l-.551-.163m-3.45-.684c-1.153.072-2.3.18-3.433.319l.116.951q1.674-.207,3.376-.314l-.059-.956" transform="translate(301.305 24.764)" fill="#8d380f"/>
    <path id="Path_83" data-name="Path 83" d="M736.01-238.3l-.111.953q1.693.2,3.354.494l.168-.941q-1.689-.3-3.411-.506" transform="translate(309.43 24.929)" fill="#b8bbbc"/>
    <path id="Path_84" data-name="Path 84" d="M731-238.069q-1.7.315-3.371.729l.23.931c1.094-.272,2.2-.514,3.314-.719l-.173-.941" transform="translate(297.271 25.267)" fill="#8d380f"/>
    <path id="Path_85" data-name="Path 85" d="M738.827-237.807l-.227.931q1.656.4,3.272.9l.282-.916q-1.645-.5-3.327-.914" transform="translate(313.399 25.652)" fill="#979713"/>
    <path id="Path_86" data-name="Path 86" d="M728.219-237.4q-1.648.522-3.257,1.136l.343.894c1.052-.4,2.121-.775,3.2-1.116l-.286-.914" transform="translate(293.356 26.256)" fill="#8d380f"/>
    <path id="Path_87" data-name="Path 87" d="M741.564-236.985l-.338.9q1.6.6,3.141,1.292l.393-.874q-1.574-.7-3.2-1.314" transform="translate(317.258 26.86)" fill="#979713"/>
    <path id="Path_88" data-name="Path 88" d="M725.516-236.4q-1.575.715-3.092,1.519l.447.845q1.493-.789,3.04-1.492l-.4-.872" transform="translate(289.627 27.721)" fill="#8d380f"/>
    <path id="Path_89" data-name="Path 89" d="M744.178-235.844l-.442.85h0q1.508.785,2.961,1.66l.494-.82q-1.478-.889-3.013-1.689" transform="translate(320.947 28.537)" fill="#979713"/>
    <path id="Path_90" data-name="Path 90" d="M722.929-235.1q-1.474.9-2.887,1.882l.546.785q1.389-.967,2.84-1.85l-.5-.817" transform="translate(286.126 29.638)" fill="#8d380f"/>
    <path id="Path_91" data-name="Path 91" d="M746.633-234.4l-.543.79q1.4.959,2.739,2.005l.588-.756q-1.359-1.059-2.783-2.04" transform="translate(324.406 30.653)" fill="#979713"/>
    <path id="Path_92" data-name="Path 92" d="M720.492-233.5q-1.356,1.071-2.642,2.215l.635.716q1.267-1.13,2.6-2.178l-.59-.753" transform="translate(282.905 31.977)" fill="#8d380f"/>
    <path id="Path_93" data-name="Path 93" d="M748.891-232.686l-.635.716q1.274,1.122,2.477,2.319l.674-.679q-1.222-1.215-2.516-2.356" transform="translate(327.589 33.178)" fill="#979713"/>
    <path id="Path_94" data-name="Path 94" d="M718.24-231.646q-1.219,1.219-2.361,2.514l.719.635q1.123-1.271,2.319-2.475l-.677-.674" transform="translate(280.008 34.706)" fill="#8d380f"/>
    <path id="Path_95" data-name="Path 95" d="M750.693-230.429v1.324q.5.593.973,1.2l.751-.593q-.711-.9-1.455-1.768l-.269-.158" transform="translate(331.171 36.495)" fill="#b4494a"/>
    <path id="Path_96" data-name="Path 96" d="M750.918-230.718l-.714.637h0q.615.689,1.208,1.4V-230l-.306-.183.114-.19c-.1-.114-.2-.227-.3-.341" transform="translate(330.452 36.07)" fill="#943c08"/>
    <path id="Path_97" data-name="Path 97" d="M716.2-229.553q-1.063,1.359-2.042,2.783l.788.541q.963-1.4,2.008-2.734l-.753-.59" transform="translate(277.482 37.782)" fill="#8d380f"/>
    <path id="Path_98" data-name="Path 98" d="M752.69-228.528l-.785.546q.967,1.393,1.85,2.84l.818-.5q-.9-1.474-1.882-2.887" transform="translate(332.952 39.288)" fill="#b4494a"/>
    <path id="Path_99" data-name="Path 99" d="M714.411-227.252q-.893,1.478-1.694,3.01l.85.442q.789-1.5,1.662-2.959l-.817-.494" transform="translate(275.361 41.164)" fill="#8d380f"/>
    <path id="Path_100" data-name="Path 100" d="M754.18-226.147l-.847.449q.793,1.493,1.5,3.038l.872-.4q-.715-1.571-1.521-3.089" transform="translate(335.051 42.788)" fill="#b4494a"/>
    <path id="Path_101" data-name="Path 101" d="M712.89-224.775q-.707,1.571-1.316,3.193l.689.259.106-.566c.109.02.215.042.323.062q.5-1.293,1.072-2.559l-.874-.39" transform="translate(273.681 44.804)" fill="#891606"/>
    <path id="Path_102" data-name="Path 102" d="M755.363-223.61l-.894.343h0q.6,1.578,1.116,3.2l.914-.286q-.519-1.652-1.136-3.257" transform="translate(336.72 46.516)" fill="#b8bbbc"/>
    <path id="Path_103" data-name="Path 103" d="M711.665-222.158q-.508,1.641-.916,3.324l.931.227q.4-1.656.9-3.27l-.916-.282" transform="translate(272.469 48.65)" fill="#891606"/>
    <path id="Path_104" data-name="Path 104" d="M756.223-220.947l-.928.232q.411,1.637.724,3.312l.941-.175q-.319-1.7-.736-3.369" transform="translate(337.932 50.429)" fill="#b8bbbc"/>
    <path id="Path_105" data-name="Path 105" d="M710.761-219.446q-.3,1.689-.506,3.413l.951.111q.2-1.693.5-3.354l-.943-.17" transform="translate(271.743 52.635)" fill="#891606"/>
    <path id="Path_106" data-name="Path 106" d="M756.745-218.2l-.948.119h0c.057.472.111.948.158,1.422l.23-.062c.235-.064.472-.126.706-.188-.042-.432-.091-.862-.146-1.292" transform="translate(338.672 54.462)" fill="#b8bbbc"/>
    <path id="Path_107" data-name="Path 107" d="M756.8-217.68c-.235.062-.472.123-.706.188l-.23.062c.064.65.116,1.3.158,1.953l.956-.062q-.07-1.074-.178-2.141" transform="translate(338.766 55.231)" fill="#b4494a"/>
    <path id="Path_108" data-name="Path 108" d="M710.19-216.673q-.1,1.652-.1,3.331v.116l.958,0h0v-.114q0-1.648.094-3.277l-.956-.054" transform="translate(271.506 56.711)" fill="#891606"/>
    <path id="Path_109" data-name="Path 109" d="M756.989-215.417l-.958,0v.225q0,1.708-.1,3.391l.956.057q.1-1.711.1-3.448v-.23" transform="translate(338.867 58.556)" fill="#b4494a"/>
    <path id="Path_110" data-name="Path 110" d="M711.094-213.906l-.956.059q.107,1.734.316,3.435l.951-.116c-.138-1.116-.24-2.242-.311-3.378" transform="translate(271.571 60.777)" fill="#891606"/>
    <path id="Path_111" data-name="Path 111" d="M756.109-212.584q-.2,1.693-.506,3.354l.941.17q.307-1.689.516-3.411l-.951-.114" transform="translate(338.387 62.72)" fill="#b4494a"/>
    <path id="Path_112" data-name="Path 112" d="M711.418-211.181l-.941.173q.315,1.7.726,3.371l.931-.23q-.407-1.637-.716-3.314" transform="translate(272.069 64.782)" fill="#891606"/>
    <path id="Path_113" data-name="Path 113" d="M755.855-209.884q-.4,1.656-.906,3.267l.914.284q.511-1.637.924-3.322l-.931-.23" transform="translate(337.425 66.688)" fill="#b4494a"/>
    <path id="Path_114" data-name="Path 114" d="M712.062-208.517l-.914.286q.519,1.652,1.131,3.257l.894-.341c-.4-1.052-.773-2.121-1.111-3.2" transform="translate(273.055 68.697)" fill="#891606"/>
    <path id="Path_115" data-name="Path 115" d="M755.273-207.26q-.6,1.593-1.3,3.136l.872.393q.708-1.571,1.324-3.191l-.9-.338" transform="translate(335.993 70.544)" fill="#b4494a"/>
    <path id="Path_116" data-name="Path 116" d="M713.091-205.289c-.153.4-.311.8-.474,1.185.114.222.227.442.343.659l.845-.447q-.366-.693-.714-1.4" transform="translate(275.214 73.441)" fill="#8d380f"/>
    <path id="Path_117" data-name="Path 117" d="M713.014-205.954l-.872.393q.559,1.234,1.173,2.435c.163-.39.321-.788.474-1.185q-.4-.815-.775-1.642" transform="translate(274.516 72.463)" fill="#891606"/>
    <path id="Path_118" data-name="Path 118" d="M754.365-204.754q-.793,1.5-1.669,2.956l.817.494q.893-1.474,1.7-3.006l-.847-.445" transform="translate(334.113 74.227)" fill="#b4494a"/>
    <path id="Path_119" data-name="Path 119" d="M714.262-203.53l-.818.5q.9,1.474,1.877,2.889l.788-.546q-.967-1.389-1.847-2.843" transform="translate(276.43 76.026)" fill="#8d380f"/>
    <path id="Path_120" data-name="Path 120" d="M753.146-202.4q-.967,1.4-2.013,2.731l.753.59q1.063-1.356,2.048-2.776l-.788-.546" transform="translate(331.817 77.68)" fill="#b4494a"/>
    <path id="Path_121" data-name="Path 121" d="M715.785-201.275l-.751.593q1.067,1.356,2.21,2.645l.716-.637q-1.126-1.267-2.176-2.6" transform="translate(278.766 79.34)" fill="#8d380f"/>
    <path id="Path_122" data-name="Path 122" d="M751.637-200.243q-1.126,1.271-2.326,2.47l.677.677q1.222-1.219,2.366-2.512l-.716-.635m0,0h0" transform="translate(329.14 80.856)" fill="#943c08"/>
    <path id="Path_123" data-name="Path 123" d="M717.562-199.223l-.674.677q1.219,1.219,2.514,2.363l.632-.719q-1.271-1.122-2.472-2.321" transform="translate(281.491 82.355)" fill="#8d380f"/>
    <path id="Path_124" data-name="Path 124" d="M748.84-197.943q-.778.656-1.583,1.287l.593.753c.5-.4,1-.8,1.492-1.213-.17-.272-.338-.548-.5-.827" transform="translate(326.121 84.236)" fill="#979713"/>
    <path id="Path_125" data-name="Path 125" d="M748.92-198.3q-.507.448-1.022.884c.163.279.331.556.5.827.39-.326.775-.659,1.156-1l-.635-.716" transform="translate(327.063 83.71)" fill="#943c08"/>
    <path id="Path_126" data-name="Path 126" d="M719.569-197.4l-.59.756c.906.706,1.832,1.39,2.781,2.042l.543-.788q-1.4-.963-2.734-2.01" transform="translate(284.564 85.028)" fill="#8d380f"/>
    <path id="Path_127" data-name="Path 127" d="M747.846-196.607q-1.393.963-2.845,1.842l.5.82q1.478-.9,2.892-1.874l-.543-.788" transform="translate(322.806 86.2)" fill="#979713"/>
    <path id="Path_128" data-name="Path 128" d="M721.773-195.844l-.494.82c.973.588,1.968,1.148,2.978,1.679l.114-.143.36-.689q-1.508-.789-2.958-1.667" transform="translate(287.944 87.321)" fill="#8d380f"/>
    <path id="Path_129" data-name="Path 129" d="M745.62-195.185q-1.5.785-3.045,1.487l.4.872q1.574-.711,3.094-1.511l-.444-.847" transform="translate(319.241 88.289)" fill="#979713"/>
    <path id="Path_130" data-name="Path 130" d="M725.729-193.682l-.393.872c1.047.472,2.114.911,3.193,1.319l.338-.894q-1.593-.6-3.139-1.3m-3.052-1.487h0" transform="translate(289.998 88.313)" fill="#8d380f"/>
    <path id="Path_131" data-name="Path 131" d="M743.218-194.057q-1.582.6-3.205,1.106l.284.914q1.652-.515,3.26-1.126l-.338-.894" transform="translate(315.474 89.947)" fill="#979713"/>
    <path id="Path_132" data-name="Path 132" d="M726.654-193.6l-.284.914q1.641.511,3.324.921l.227-.931q-1.652-.4-3.267-.9" transform="translate(295.426 90.626)" fill="#8d380f"/>
    <path id="Path_133" data-name="Path 133" d="M739.56-193.134c-.733.163-1.469.314-2.213.449l.173.943q1.026-.189,2.04-.412v-.98" transform="translate(311.557 91.304)" fill="#b8bbbc"/>
    <path id="Path_134" data-name="Path 134" d="M739.345-193.24c-.366.091-.733.178-1.1.262v.98q.667-.148,1.331-.311l-.23-.931" transform="translate(312.874 91.148)" fill="#979713"/>
    <path id="Path_135" data-name="Path 135" d="M729.253-192.943l-.171.941q1.689.307,3.411.511l.113-.951q-1.693-.2-3.354-.5" transform="translate(299.411 91.584)" fill="#8d380f"/>
    <path id="Path_136" data-name="Path 136" d="M734.907-192.336q-1.489.47-3.035.862,1.66.1,3.346.1h.057l0-.956h-.054l-.311,0m7.135-.407q-1.674.2-3.378.306l.059.953q1.73-.1,3.433-.311l-.114-.948m0,0h0v0" transform="translate(303.512 91.874)" fill="#b8bbbc"/>
    <path id="Path_137" data-name="Path 137" d="M731.911-192.619l-.057.956.044,0q1.545-.393,3.035-.862-1.523-.007-3.023-.1" transform="translate(303.485 92.06)" fill="#8d380f"/>
    <path id="Path_138" data-name="Path 138" d="M720.351-223.095c-.076.193-.15.388-.225.583h0l-.2-.079-.072.375q1.66.315,3.272.751l.25-.924q-1.489-.4-3.021-.706m-10.567-.808q-1.73.07-3.42.269l.111.951q1.656-.193,3.346-.264l-.037-.956m3.43-.01-.032.956q1.689.059,3.349.242l.1-.951q-1.693-.189-3.42-.247" transform="translate(266.023 46.072)" fill="#891606"/>
    <path id="Path_139" data-name="Path 139" d="M712.058-222.961h0m-.1-.645-.106.566.2.079c.074-.2.148-.39.225-.583-.109-.02-.215-.042-.323-.062" transform="translate(274.091 46.522)" fill="#631004"/>
    <path id="Path_140" data-name="Path 140" d="M703.895-221.875h0m3.082-1.709q-1.693.33-3.339.788l.257.921q1.611-.444,3.267-.771l-.185-.938" transform="translate(262.019 46.554)" fill="#891606"/>
    <path id="Path_141" data-name="Path 141" d="M715.913-222.426c-.106.3-.21.605-.309.909l.262.116.39-.874c-.113-.052-.227-.1-.343-.151" transform="translate(279.604 48.256)" fill="#b8bbbc"/>
    <path id="Path_142" data-name="Path 142" d="M714.766-222.881l-.318.9q1.452.519,2.857,1.131c.1-.3.2-.607.309-.909q-1.4-.608-2.848-1.124" transform="translate(277.904 47.587)" fill="#8d380f"/>
    <path id="Path_143" data-name="Path 143" d="M701.244-222.358l-.215.1.4.872h0l.1-.047c-.091-.311-.185-.617-.284-.921" transform="translate(258.184 48.356)" fill="#b8bbbc"/>
    <path id="Path_144" data-name="Path 144" d="M704.077-222.842q-1.508.545-2.961,1.2c.1.3.193.61.284.921q1.474-.663,3-1.218l-.326-.9" transform="translate(258.312 47.645)" fill="#b4494a"/>
    <path id="Path_145" data-name="Path 145" d="M691.832-175.52l-.946.148c.055.348.111.7.173,1.045.245-.044.489-.089.733-.136l.183.941c-.245.047-.492.091-.736.136q.141.693.3,1.383l.933-.22q-.381-1.626-.642-3.3m86.685-.091q-.255,1.671-.637,3.3l.933.217q.385-1.66.65-3.369l-.946-.146m-87.207-6.6-.958,0q0,1.73.136,3.428l.956-.074c-.086-1.106-.131-2.228-.133-3.356m88.669-.279-.956,0h0v.183q0,1.693-.126,3.356l.953.072q.13-1.7.131-3.428l0-.188m-89.123-6.557q-.256,1.686-.383,3.411l.956.069q.126-1.686.373-3.336l-.946-.143m87.631-.128h0m.946-.148-.946.148q.259,1.648.4,3.334l.953-.077q-.137-1.723-.4-3.406m-87.036-6.4q-.511,1.63-.9,3.312l.933.215q.378-1.645.879-3.24l-.914-.286M777.851-196l-.911.291q.508,1.593.9,3.235l.931-.22q-.4-1.678-.919-3.307m-82.9-6.1c-.5,1.025-.973,2.07-1.4,3.136l.889.356q.63-1.567,1.371-3.07l-.859-.422m80.311-.244-.857.427v0q.748,1.493,1.385,3.055l.887-.363c-.432-1.062-.906-2.1-1.415-3.122M698.448-208q-.982,1.4-1.862,2.882l.825.489q.856-1.448,1.823-2.823l-.785-.548m73.283-.217-.78.553q.97,1.367,1.837,2.81l.822-.494q-.885-1.471-1.879-2.87M702.8-213.3q-1.185,1.237-2.277,2.566l.738.607h0q1.067-1.3,2.228-2.512l-.692-.662m64.546-.19-.687.667q1.167,1.2,2.242,2.5l.738-.612q-1.1-1.323-2.294-2.554m-59.439-4.386q-1.363,1.045-2.64,2.191l.64.714v0q1.248-1.119,2.583-2.144l-.583-.758m54.3-.161-.578.763q1.341,1.015,2.6,2.129l.635-.716q-1.285-1.137-2.655-2.176m-48.562-3.586q-1.508.826-2.941,1.763l.521.8q1.4-.919,2.88-1.726l-.459-.84m42.793-.128-.454.842h0q1.482.8,2.892,1.709L759.4-220q-1.441-.926-2.956-1.746" transform="translate(242.495 49.248)" fill="#b8bbbc"/>
    <path id="Path_146" data-name="Path 146" d="M726.111-200.422c-.338,1.074-.719,2.129-1.134,3.164l.887.358q.641-1.585,1.161-3.233l-.914-.289" transform="translate(293.379 80.593)" fill="#8d380f"/>
    <path id="Path_147" data-name="Path 147" d="M692.118-200.386l-.914.291q.522,1.641,1.166,3.225l.889-.358q-.63-1.552-1.141-3.159" transform="translate(243.746 80.646)" fill="#b4494a"/>
    <path id="Path_148" data-name="Path 148" d="M725.374-197.9q-.748,1.508-1.605,2.951l.822.489q.875-1.474,1.642-3.015l-.859-.425h0" transform="translate(291.603 84.301)" fill="#8d380f"/>
    <path id="Path_149" data-name="Path 149" d="M693.1-197.869l-.857.427q.767,1.537,1.647,3.008l.82-.491q-.859-1.437-1.61-2.944" transform="translate(245.278 84.345)" fill="#b4494a"/>
    <path id="Path_150" data-name="Path 150" d="M724.243-195.563c-.4.563-.807,1.119-1.23,1.662l-.084.161-.03-.017c-.23.291-.459.58-.7.864l.738.61q1.093-1.322,2.084-2.729l-.783-.551" transform="translate(289.302 87.734)" fill="#8d380f"/>
    <path id="Path_151" data-name="Path 151" d="M722.6-194.89l-.114.143.03.017.084-.161" transform="translate(289.716 88.723)" fill="#65290b"/>
    <path id="Path_152" data-name="Path 152" d="M694.454-195.538l-.783.553q.993,1.4,2.087,2.724l.736-.61q-1.067-1.293-2.04-2.667" transform="translate(247.371 87.771)" fill="#b4494a"/>
    <path id="Path_153" data-name="Path 153" d="M722.737-193.466q-1.163,1.208-2.418,2.329l.637.714q1.281-1.141,2.472-2.381l-.692-.662" transform="translate(286.533 90.816)" fill="#8d380f"/>
    <path id="Path_154" data-name="Path 154" d="M696.131-193.445l-.689.667q1.193,1.234,2.474,2.376l.637-.716h0q-1.256-1.115-2.423-2.326" transform="translate(249.974 90.847)" fill="#b4494a"/>
    <path id="Path_155" data-name="Path 155" d="M726.364-182.7q-.859.033-1.726.035-.819,0-1.632-.032l-.035.958q.83.03,1.667.03c.59,0,1.178-.01,1.763-.035l-.037-.956m-10.027-.751-.18.941q1.674.319,3.393.516l.106-.953q-1.678-.189-3.319-.5m16.692-.017q-1.637.319-3.317.511l.109.951q1.715-.2,3.391-.524l-.183-.938m-23.165-1.748-.324.9c1.074.383,2.166.729,3.275,1.03l.252-.924q-1.626-.444-3.2-1.008m29.635-.032q-1.575.567-3.2,1.015l.254.924c1.106-.3,2.2-.652,3.27-1.037l-.323-.9m0,0h0m-35.765-2.712-.457.842q1.5.819,3.077,1.521l.39-.872q-1.538-.689-3.011-1.492m41.88-.037q-1.47.8-3.005,1.492l.393.874q1.567-.708,3.07-1.526l-.457-.84M698.1-191.61l-.58.761q1.367,1.037,2.808,1.973l.521-.8q-1.411-.915-2.749-1.931m53.143-.047q-1.333,1.019-2.744,1.936l.521.8q1.441-.934,2.8-1.976l-.58-.761" transform="translate(253.023 93.474)" fill="#b8bbbc"/>
    <path id="Path_156" data-name="Path 156" d="M683.241-235.53l-.032.012c.081.242.158.484.237.729l-.914.286c-.072-.227-.146-.454-.22-.679q-1.137.441-2.245.943l.393.872q1.526-.689,3.107-1.264l-.326-.9m30.282-.1-.321.9h0q1.589.567,3.122,1.247l.39-.874q-1.567-.7-3.191-1.274m-23.674-1.736q-1.693.33-3.339.788l.257.924q1.608-.448,3.265-.773l-.183-.938m17.055-.054-.18.941q1.66.315,3.275.751l.249-.924q-1.648-.445-3.344-.768m-10.246-.746q-1.726.07-3.42.269l.114.951q1.656-.193,3.346-.264l-.039-.956m3.43-.01-.032.956q1.693.059,3.349.242l.106-.951q-1.693-.189-3.423-.247" transform="translate(227.38 25.116)" fill="#b4494a"/>
    <path id="Path_157" data-name="Path 157" d="M681.874-237.1c-.3.109-.6.22-.9.336.074.225.148.452.22.679l.914-.286c-.079-.245-.156-.486-.237-.729" transform="translate(228.716 26.695)" fill="#813637"/>
    <path id="Path_158" data-name="Path 158" d="M677.943-232.136c-.83.637-1.64,1.3-2.423,2,.215.235.427.474.635.716q1.152-1.015,2.371-1.953l-.583-.758m54.3-.161-.578.763h0q1.337,1.015,2.6,2.129l.637-.716q-1.285-1.137-2.655-2.176m-48.565-3.586q-1.5.826-2.942,1.763l.524.8q1.4-.919,2.88-1.726l-.462-.84m42.8-.128-.454.842q1.482.8,2.892,1.709l.519-.805q-1.441-.926-2.956-1.746" transform="translate(220.696 28.291)" fill="#b4494a"/>
    <path id="Path_159" data-name="Path 159" d="M675.649-233.634l-.217.2.637.714.215-.193c-.207-.242-.42-.482-.635-.716" transform="translate(220.567 31.785)" fill="#523916"/>
    <path id="Path_160" data-name="Path 160" d="M700.979-232.666l-.689.667q1.171,1.208,2.245,2.5l.736-.612q-1.1-1.322-2.292-2.554" transform="translate(257.098 33.207)" fill="#b4494a"/>
    <path id="Path_161" data-name="Path 161" d="M675.788-232.589q-1.185,1.237-2.277,2.566l.738.607h0q1.067-1.3,2.23-2.512l-.692-.662" transform="translate(217.744 33.32)" fill="#523916"/>
    <path id="Path_162" data-name="Path 162" d="M702.808-230.531l-.78.553q.97,1.367,1.837,2.81l.82-.494q-.885-1.471-1.877-2.87" transform="translate(259.653 36.345)" fill="#b4494a"/>
    <path id="Path_163" data-name="Path 163" d="M673.778-230.443q-.985,1.4-1.862,2.884l.822.487q.859-1.448,1.823-2.823l-.783-.548" transform="translate(215.4 36.474)" fill="#523916"/>
    <path id="Path_164" data-name="Path 164" d="M704.283-228.152l-.857.43q.752,1.5,1.388,3.055l.887-.363q-.652-1.589-1.418-3.122" transform="translate(261.707 39.841)" fill="#b4494a"/>
    <path id="Path_165" data-name="Path 165" d="M672.085-228.053q-.755,1.537-1.4,3.136l.889.356q.626-1.563,1.368-3.07l-.859-.422" transform="translate(213.594 39.986)" fill="#523916"/>
    <path id="Path_166" data-name="Path 166" d="M705.363-225.582l-.911.294q.511,1.589.9,3.233l.931-.22q-.4-1.678-.921-3.307" transform="translate(263.215 43.618)" fill="#891606"/>
    <path id="Path_167" data-name="Path 167" d="M671.227-224.75h-.99c-.136.506-.264,1.013-.38,1.526l.931.215q.2-.878.44-1.741" transform="translate(212.372 44.841)" fill="#b4494a"/>
    <path id="Path_168" data-name="Path 168" d="M670.529-225.473q-.278.885-.518,1.786H671q.207-.756.442-1.5l-.914-.286" transform="translate(212.599 43.778)" fill="#523916"/>
    <path id="Path_169" data-name="Path 169" d="M706.026-222.88l-.946.148q.259,1.648.4,3.334l.953-.077q-.137-1.723-.4-3.406" transform="translate(264.138 47.589)" fill="#891606"/>
    <path id="Path_170" data-name="Path 170" d="M669.824-222.767c-.17,1.121-.3,2.26-.383,3.408l.956.069q.122-1.685.373-3.336l-.946-.141" transform="translate(211.762 47.755)" fill="#b4494a"/>
    <path id="Path_171" data-name="Path 171" d="M706.329-220.113l-.956,0h0l0,.183q0,1.693-.128,3.356l.956.072q.126-1.7.128-3.428v-.188" transform="translate(264.38 51.655)" fill="#891606"/>
    <path id="Path_172" data-name="Path 172" d="M670.348-220l-.956,0q0,1.2.067,2.386c.326.1.652.2.975.294q-.081-1.33-.086-2.682" transform="translate(211.691 51.821)" fill="#b4494a"/>
    <path id="Path_173" data-name="Path 173" d="M669.419-219.033c.02.348.042.7.069,1.042l.953-.074c-.017-.225-.032-.449-.047-.674-.324-.1-.649-.2-.975-.294" transform="translate(211.73 53.242)" fill="#523916"/>
    <path id="Path_174" data-name="Path 174" d="M705.469-217.328h0q-.256,1.671-.635,3.3l.934.217q.385-1.66.649-3.369l-.948-.146" transform="translate(263.776 55.748)" fill="#891606"/>
    <path id="Path_175" data-name="Path 175" d="M670.553-217.291l-.946.148q.267,1.7.657,3.369l.931-.22q-.382-1.626-.642-3.3" transform="translate(212.006 55.802)" fill="#523916"/>
    <path id="Path_176" data-name="Path 176" d="M705.151-214.682v0q-.507,1.608-1.136,3.164l.889.356q.637-1.586,1.158-3.233l-.911-.289" transform="translate(262.573 59.637)" fill="#891606"/>
    <path id="Path_177" data-name="Path 177" d="M671.154-214.646l-.911.291q.522,1.641,1.166,3.225l.886-.358q-.63-1.552-1.141-3.159" transform="translate(212.941 59.689)" fill="#523916"/>
    <path id="Path_178" data-name="Path 178" d="M704.415-212.159q-.748,1.508-1.608,2.951l.825.489q.874-1.471,1.64-3.015l-.857-.425" transform="translate(260.797 63.344)" fill="#891606"/>
    <path id="Path_179" data-name="Path 179" d="M672.143-212.129l-.857.427q.7,1.4,1.492,2.749.4-.263.8-.533-.759-1.293-1.43-2.642" transform="translate(214.474 63.388)" fill="#523916"/>
    <path id="Path_180" data-name="Path 180" d="M672.685-211.059c-.264.18-.529.358-.8.533l.153.259.822-.491c-.059-.1-.121-.2-.18-.3" transform="translate(215.362 64.961)" fill="#3b2a10"/>
    <path id="Path_181" data-name="Path 181" d="M701.319-208.779l-.077.091.039.035.037-.126" transform="translate(258.497 68.312)" fill="#b8bbbc"/>
    <path id="Path_182" data-name="Path 182" d="M703.256-209.823q-.933,1.326-1.961,2.578l-.037.126.7.575q1.093-1.323,2.082-2.729l-.783-.551" transform="translate(258.521 66.777)" fill="#b4494a"/>
    <path id="Path_183" data-name="Path 183" d="M673.493-209.8l-.783.553q.989,1.4,2.087,2.724l.736-.61q-1.071-1.293-2.04-2.667" transform="translate(216.567 66.814)" fill="#523916"/>
    <path id="Path_184" data-name="Path 184" d="M701.776-207.726q-1.163,1.211-2.418,2.329l.637.714q1.278-1.141,2.47-2.381l-.689-.662" transform="translate(255.729 69.859)" fill="#b8bbbc"/>
    <path id="Path_185" data-name="Path 185" d="M675.167-207.705l-.686.667c.793.822,1.62,1.615,2.474,2.376l.637-.716q-1.256-1.115-2.425-2.326" transform="translate(219.169 69.89)" fill="#523916"/>
    <path id="Path_186" data-name="Path 186" d="M699.94-205.917q-1.33,1.019-2.741,1.936l.521.8q1.441-.937,2.8-1.978l-.583-.761m0,0h0" transform="translate(252.556 72.518)" fill="#b8bbbc"/>
    <path id="Path_187" data-name="Path 187" d="M677.136-205.9l-.58.761q1.363,1.037,2.808,1.973l.521-.8h0q-1.415-.915-2.749-1.931" transform="translate(222.219 72.546)" fill="#523916"/>
    <path id="Path_188" data-name="Path 188" d="M697.818-204.437q-1.467.8-3,1.492l.393.874q1.567-.708,3.07-1.526l-.459-.84" transform="translate(249.052 74.693)" fill="#b8bbbc"/>
    <path id="Path_189" data-name="Path 189" d="M680.2-203.91c-.059.324-.123.647-.19.966l.3.133.39-.874c-.168-.074-.333-.148-.5-.225" transform="translate(227.301 75.467)" fill="#b4494a"/>
    <path id="Path_190" data-name="Path 190" d="M679.345-204.421l-.457.84q1.363.741,2.781,1.388c.067-.319.131-.642.19-.966q-1.282-.593-2.514-1.262" transform="translate(225.646 74.716)" fill="#523916"/>
    <path id="Path_191" data-name="Path 191" d="M695.458-203.324c-1.047.378-2.116.716-3.2,1.015l.252.924q1.663-.459,3.272-1.037l-.326-.9" transform="translate(245.297 76.328)" fill="#b8bbbc"/>
    <path id="Path_192" data-name="Path 192" d="M681.749-203.311l-.324.9c1.072.383,2.163.729,3.272,1.03l.252-.924q-1.626-.444-3.2-1.008" transform="translate(229.374 76.347)" fill="#b4494a"/>
    <path id="Path_193" data-name="Path 193" d="M685.156-202.437c.277.193.561.378.85.558l.052-.447c-.3-.032-.6-.069-.9-.111" transform="translate(234.857 77.632)" fill="#b8bbbc"/>
    <path id="Path_194" data-name="Path 194" d="M684.284-202.6l-.18.941q1.674.319,3.391.516l.057-.506c-.289-.18-.573-.365-.85-.558q-1.223-.163-2.418-.393" transform="translate(233.311 77.398)" fill="#b4494a"/>
    <path id="Path_195" data-name="Path 195" d="M690.258-201.916q-.859.033-1.726.035c-.546,0-1.092-.01-1.632-.03l-.037.956q.833.03,1.669.03c.59,0,1.178-.01,1.763-.035l-.037-.956m5.932-.632q-1.278.226-2.586.375l.109.951c.894-.1,1.781-.232,2.657-.385-.064-.314-.123-.627-.18-.941" transform="translate(237.365 77.469)" fill="#b8bbbc"/>
    <path id="Path_196" data-name="Path 196" d="M691.372-202.6c-.244.047-.489.091-.733.136.057.314.116.627.18.941.245-.044.492-.089.736-.136l-.183-.941" transform="translate(242.915 77.388)" fill="#85898b"/>
    <path id="Path_197" data-name="Path 197" d="M766.842-239.4l-.022.585q1.7-.089,3.418-.119l.025-.217q-1.693-.189-3.421-.249" transform="translate(354.871 23.311)" fill="#b8bbbc"/>
    <path id="Path_198" data-name="Path 198" d="M770.245-239.211q-1.715.03-3.418.119l-.012.37h0q1.693.059,3.349.245l.081-.733" transform="translate(354.864 23.589)" fill="#b4494a"/>
    <path id="Path_199" data-name="Path 199" d="M767.473-239.4q-1.726.07-3.418.269l.1.9q1.667-.207,3.349-.358l-.035-.815" transform="translate(350.808 23.317)" fill="#b8bbbc"/>
    <path id="Path_200" data-name="Path 200" d="M767.446-239.026q-1.682.148-3.349.358l.007.049q1.656-.2,3.346-.264l0-.143m10.212-.067-.178.938q1.656.315,3.272.751l.249-.924q-1.648-.444-3.344-.766" transform="translate(350.869 23.762)" fill="#b4494a"/>
    <path id="Path_201" data-name="Path 201" d="M764.669-239.072q-1.693.333-3.339.79l.183.662q1.656-.33,3.324-.6l-.168-.852" transform="translate(346.803 23.793)" fill="#b8bbbc"/>
    <path id="Path_202" data-name="Path 202" d="M788.234-237.84l-.321.9q1.589.567,3.122,1.247l.388-.874q-1.563-.7-3.188-1.274m-23.506-.887q-1.671.27-3.324.6l.072.259q1.611-.448,3.27-.773l-.017-.086" transform="translate(346.912 24.3)" fill="#b4494a"/>
    <path id="Path_203" data-name="Path 203" d="M761.895-238.33q-1.615.585-3.174,1.292l.022.052c1.074-.351,2.173-.672,3.29-.963l-.138-.38" transform="translate(342.969 24.883)" fill="#b8bbbc"/>
    <path id="Path_204" data-name="Path 204" d="M752.249-222.111q-.815,1.163-1.556,2.376v.538c.091.1.18.207.269.311l.249.148q.855-1.448,1.82-2.823l-.783-.551m73.283-.217-.78.556q.97,1.367,1.837,2.808l.82-.491q-.886-1.474-1.877-2.872m-68.929-5.08q-1.186,1.237-2.277,2.566l.738.607h0q1.067-1.3,2.23-2.512l-.692-.662m64.546-.19-.689.664q1.171,1.208,2.245,2.5l.736-.612q-1.1-1.319-2.292-2.551m-59.439-4.388q-1.363,1.048-2.64,2.191l.637.714q1.252-1.119,2.586-2.144l-.583-.761m54.3-.161-.578.763q1.338,1.015,2.6,2.131l.635-.719q-1.282-1.137-2.652-2.176m-48.562-3.583q-1.508.826-2.944,1.761l.524.8q1.4-.915,2.879-1.726l-.459-.837m42.793-.131-.455.842q1.482.8,2.892,1.711l.519-.805q-1.441-.93-2.956-1.748m-36.414-2.314c-1.116.291-2.215.612-3.29.963l.371.82q1.526-.689,3.109-1.262l-.19-.521" transform="translate(331.171 25.11)" fill="#b4494a"/>
    <path id="Path_205" data-name="Path 205" d="M750.808-230.709l-.193.319.193.22v-.538" transform="translate(331.056 36.083)" fill="#943c08"/>
    <path id="Path_206" data-name="Path 206" d="M750.693-230.491v.153l.269.158c-.089-.1-.178-.207-.269-.311" transform="translate(331.171 36.404)" fill="#813637"/>
    <path id="Path_207" data-name="Path 207" d="M750.683-230.58l-.114.19.306.183v-.153l-.193-.22" transform="translate(330.989 36.273)" fill="#6a2c06"/>
    <path id="Path_208" data-name="Path 208" d="M782.935-229.379l-.855.427q.748,1.5,1.385,3.055l.887-.361q-.652-1.593-1.418-3.122" transform="translate(377.297 38.038)" fill="#b4494a"/>
    <path id="Path_209" data-name="Path 209" d="M750.74-229.281q-.759,1.537-1.4,3.136l.889.358q.626-1.567,1.368-3.07l-.857-.425" transform="translate(329.182 38.182)" fill="#943c08"/>
    <path id="Path_210" data-name="Path 210" d="M784.016-226.809l-.911.291q.511,1.589.9,3.233l.931-.22q-.4-1.678-.921-3.3" transform="translate(378.803 41.815)" fill="#b4494a"/>
    <path id="Path_211" data-name="Path 211" d="M749.408-226.7c-.341,1.087-.642,2.193-.9,3.312l.931.215q.381-1.645.882-3.24l-.914-.286" transform="translate(327.961 41.973)" fill="#943c08"/>
    <path id="Path_212" data-name="Path 212" d="M784.679-224.108l-.946.148h0q.259,1.648.4,3.334l.617-.049v-2.983c-.02-.151-.044-.3-.067-.449" transform="translate(379.727 45.784)" fill="#b4494a"/>
    <path id="Path_213" data-name="Path 213" d="M784.143-223.926v2.983l.336-.025q-.119-1.5-.336-2.959" transform="translate(380.329 46.052)" fill="#0e2d35"/>
    <path id="Path_214" data-name="Path 214" d="M748.477-223.995q-.256,1.685-.383,3.408l.956.072q.122-1.685.373-3.336l-.946-.143" transform="translate(327.351 45.95)" fill="#979713"/>
    <path id="Path_215" data-name="Path 215" d="M784.5-221.34l-.479,0,0,.183c0,1.131-.045,2.25-.126,3.356l.6.047v-3.588" transform="translate(379.97 49.852)" fill="#b4494a"/>
    <path id="Path_216" data-name="Path 216" d="M784.622-221.34h-.479v3.588l.351.025q.13-1.7.128-3.428v-.185" transform="translate(380.329 49.852)" fill="#0e2d35"/>
    <path id="Path_217" data-name="Path 217" d="M749-221.227h-.956q0,1.73.136,3.428l.953-.072q-.13-1.663-.133-3.356" transform="translate(327.279 50.018)" fill="#979713"/>
    <path id="Path_218" data-name="Path 218" d="M784.122-218.555q-.256,1.671-.635,3.3l.933.217q.385-1.663.647-3.369l-.946-.146" transform="translate(379.365 53.945)" fill="#b4494a"/>
    <path id="Path_219" data-name="Path 219" d="M749.206-218.518l-.946.146q.267,1.708.657,3.369l.931-.22q-.382-1.626-.642-3.294" transform="translate(327.595 53.999)" fill="#979713"/>
    <path id="Path_220" data-name="Path 220" d="M783.8-215.909c-.338,1.072-.719,2.129-1.136,3.164l.889.358q.641-1.589,1.161-3.233l-.914-.289" transform="translate(378.161 57.833)" fill="#b4494a"/>
    <path id="Path_221" data-name="Path 221" d="M749.807-215.873l-.911.289q.522,1.641,1.166,3.228l.887-.361c-.417-1.032-.8-2.087-1.141-3.156" transform="translate(328.53 57.886)" fill="#979713"/>
    <path id="Path_222" data-name="Path 222" d="M750.693-211.411v1.405l.605-.361h0q-.308-.519-.605-1.045m77.59-1.976q-.748,1.511-1.608,2.951l.822.489q.878-1.471,1.642-3.015l-.857-.425" transform="translate(331.171 61.54)" fill="#b4494a"/>
    <path id="Path_223" data-name="Path 223" d="M750.8-213.357l-.857.427q.767,1.541,1.645,3.01l.217-.131v-1.405q-.526-.934-1.005-1.9" transform="translate(330.063 61.584)" fill="#943c08"/>
    <path id="Path_224" data-name="Path 224" d="M756.426-205.818l-.689.664q1.189,1.234,2.475,2.376l.637-.714h0q-1.256-1.119-2.423-2.326m63.165-.054q-1.163,1.211-2.418,2.329l.637.716q1.282-1.145,2.47-2.381l-.689-.664m-67.445-5.115-.783.553q.993,1.4,2.084,2.721l.738-.61q-1.071-1.293-2.04-2.665m71.717-.064h0q-.967,1.378-2.037,2.672l.738.608q1.093-1.323,2.082-2.726l-.783-.553" transform="translate(332.155 64.973)" fill="#b4494a"/>
    <path id="Path_225" data-name="Path 225" d="M776.074-206.42l-.222.146.133.2c.03-.116.059-.232.089-.351" transform="translate(368.145 71.778)" fill="#b8bbbc"/>
    <path id="Path_226" data-name="Path 226" d="M755.789-207.1l-.58.763q1.363,1.037,2.808,1.973l.521-.805q-1.415-.915-2.749-1.931m53.141-.047q-1.226.941-2.519,1.79c-.03.119-.059.235-.089.351l.388.6q1.441-.937,2.8-1.976l-.583-.763" transform="translate(337.808 70.713)" fill="#b4494a"/>
    <path id="Path_227" data-name="Path 227" d="M758.635-204.489c.015.373.037.736.069,1.089.1.044.2.091.309.138l.39-.874c-.257-.116-.514-.232-.768-.353m39.635-1.176q-1.467.8-3,1.494l.393.872q1.567-.7,3.07-1.526l-.459-.84" transform="translate(342.842 72.888)" fill="#b8bbbc"/>
    <path id="Path_228" data-name="Path 228" d="M758-205.649l-.457.842q1.36.737,2.771,1.383c-.032-.353-.054-.716-.069-1.089q-1.141-.537-2.245-1.136" transform="translate(341.235 72.911)" fill="#b4494a"/>
    <path id="Path_229" data-name="Path 229" d="M776.9-202q-.859.033-1.726.032c-.546,0-1.091-.01-1.632-.03l-.035.958q.83.03,1.667.03.886,0,1.764-.035L776.9-202m-10.027-.751-.18.938q1.674.322,3.391.516l.109-.951c-1.121-.126-2.228-.3-3.319-.5m16.692-.02c-1.092.212-2.2.383-3.319.514l.111.951q1.715-.2,3.391-.523l-.183-.941M760.4-204.521l-.323.9q1.611.574,3.272,1.03l.254-.924q-1.63-.444-3.2-1.01m29.635-.03q-1.574.567-3.2,1.015l.252.921q1.663-.456,3.272-1.035l-.324-.9" transform="translate(344.963 74.525)" fill="#b8bbbc"/>
    <path id="Path_230" data-name="Path 230" d="M788.013-233.977q-.948,0-1.887.035l0,.1c.247.274.489.556.726.84.385-.007.77-.012,1.158-.012q.767,0,1.531.022l.027-.956c-.519-.015-1.037-.025-1.558-.025" transform="translate(383.243 31.281)" fill="#0f7487"/>
    <path id="Path_231" data-name="Path 231" d="M786.127-233.924l.03.862q.348-.015.7-.022c-.237-.284-.479-.566-.726-.84" transform="translate(383.245 31.358)" fill="#0e2d35"/>
    <path id="Path_232" data-name="Path 232" d="M788.968-233.88l-.091.953h0q1.693.163,3.354.435l.156-.943q-1.689-.278-3.418-.445" transform="translate(387.285 31.423)" fill="#0f7487"/>
    <path id="Path_233" data-name="Path 233" d="M785.307-233.8q-.982.13-1.956.3l.161.943c.6-.1,1.2-.193,1.8-.274v-.966" transform="translate(379.165 31.544)" fill="#b4494a"/>
    <path id="Path_234" data-name="Path 234" d="M785.6-233.867q-.734.078-1.46.17v.966q.774-.1,1.556-.183l-.1-.953" transform="translate(380.329 31.442)" fill="#0e2d35"/>
    <path id="Path_235" data-name="Path 235" d="M791.8-233.428l-.22.931h0q1.652.389,3.265.882l.279-.916c-1.094-.333-2.2-.635-3.326-.9" transform="translate(391.254 32.087)" fill="#0f7487"/>
    <path id="Path_236" data-name="Path 236" d="M783.963-233.4q-1.685.4-3.324.916l.286.914q1.608-.5,3.26-.9l-.222-.929" transform="translate(375.179 32.133)" fill="#b4494a"/>
    <path id="Path_237" data-name="Path 237" d="M794.538-232.611l-.341.894q1.585.607,3.121,1.314l.4-.869q-1.563-.722-3.181-1.339" transform="translate(395.104 33.288)" fill="#0f7487"/>
    <path id="Path_238" data-name="Path 238" d="M781.2-232.564q-1.608.626-3.164,1.353l.4.867h0q1.526-.711,3.107-1.329l-.348-.891" transform="translate(371.362 33.357)" fill="#b4494a"/>
    <path id="Path_239" data-name="Path 239" d="M797.143-231.442l-.457.84q1.489.811,2.917,1.719l.514-.808q-1.456-.926-2.974-1.751" transform="translate(398.762 35.006)" fill="#b8bbbc"/>
    <path id="Path_240" data-name="Path 240" d="M778.558-231.383q-1.511.837-2.956,1.766l.516.805q1.423-.911,2.9-1.731l-.464-.84" transform="translate(367.777 35.093)" fill="#b4494a"/>
    <path id="Path_241" data-name="Path 241" d="M775.318-229.208q-1,.767-1.956,1.581l.62.731q1.045-.889,2.134-1.719c-.257-.207-.523-.408-.8-.593m61.923-.738-.565.773q1.367,1,2.66,2.089l.617-.733q-1.319-1.108-2.712-2.129" transform="translate(364.485 37.204)" fill="#b8bbbc"/>
    <path id="Path_242" data-name="Path 242" d="M774.895-229.875c-.247.185-.5.373-.741.563.274.185.541.385.8.593l.514-.385-.57-.771" transform="translate(365.649 37.309)" fill="#b4494a"/>
    <path id="Path_243" data-name="Path 243" d="M865.647-204.776l-.924.257q.452,1.623.8,3.287l.936-.2c-.232-1.129-.5-2.247-.808-3.349m-97.283-6.2q-.667,1.582-1.232,3.223l.9.311h0q.556-1.608,1.21-3.164l-.882-.37m95-.294-.879.378q.663,1.548,1.225,3.146l.9-.316q-.574-1.63-1.25-3.208m-91.9-5.868q-.878,1.485-1.655,3.028l.855.43c.509-1.008,1.05-2,1.622-2.968l-.822-.489m88.765-.259-.822.491q.867,1.448,1.637,2.956l.852-.435q-.782-1.537-1.667-3.013m-84.873-5.428q-1.067,1.356-2.042,2.778l.79.541q.956-1.4,2-2.726l-.751-.593m80.951-.232-.748.6h0q1.052,1.319,2.018,2.714l.785-.546q-.982-1.419-2.055-2.766m-76.34-4.887q-1.237,1.2-2.391,2.482l.711.642q1.134-1.256,2.346-2.437l-.667-.687m71.7-.205-.664.691h0q1.219,1.171,2.361,2.423l.706-.645q-1.16-1.274-2.4-2.47" transform="translate(355.33 39.842)" fill="#b8bbbc"/>
    <path id="Path_244" data-name="Path 244" d="M767.192-218.558q-.448,1.656-.79,3.354l.941.188q.333-1.667.773-3.292l-.924-.249" transform="translate(354.257 53.94)" fill="#b4494a"/>
    <path id="Path_245" data-name="Path 245" d="M808.151-215.954l-.948.128q.226,1.667.348,3.366l.953-.069q-.122-1.73-.353-3.425" transform="translate(414.218 57.767)" fill="#b8bbbc"/>
    <path id="Path_246" data-name="Path 246" d="M766.373-215.823q-.222,1.7-.333,3.43l.956.059c.072-1.131.183-2.255.326-3.366l-.948-.123" transform="translate(353.725 57.96)" fill="#b4494a"/>
    <path id="Path_247" data-name="Path 247" d="M766.966-210.981c-.319.054-.637.114-.951.17.02.472.044.941.076,1.41l.956-.067c-.035-.5-.062-1.008-.081-1.514m102.2-2.191-.958,0v.215q0,1.7-.111,3.381l.956.062q.111-1.708.114-3.443v-.217" transform="translate(353.688 61.856)" fill="#b8bbbc"/>
    <path id="Path_248" data-name="Path 248" d="M766.955-213.041l-.958,0q0,1.022.045,2.035c.314-.057.632-.116.951-.17q-.037-.93-.037-1.867" transform="translate(353.662 62.048)" fill="#b4494a"/>
    <path id="Path_249" data-name="Path 249" d="M857.064-185.721q-1.048,1.326-2.186,2.583l.711.642q1.156-1.278,2.225-2.633l-.751-.593h0m-83.287-5.5-.822.489q.882,1.482,1.86,2.9l.788-.543q-.96-1.389-1.825-2.845m87.12-.072q-.867,1.456-1.823,2.85l.788.543q.974-1.419,1.857-2.907l-.822-.487m-90.18-5.949-.882.375q.678,1.589,1.457,3.119l.852-.435h0q-.763-1.5-1.427-3.06m93.235-.091q-.663,1.563-1.427,3.072l.854.432q.778-1.537,1.455-3.129l-.882-.375m-95.462-6.285-.924.252q.46,1.671,1.027,3.292l.9-.316q-.559-1.593-1.007-3.228m97.68-.106q-.448,1.641-1,3.233l.9.314q.563-1.623,1.02-3.292l-.924-.254m-99.034-6.517-.948.128q.23,1.715.575,3.4l.938-.19q-.337-1.648-.565-3.334m100.372-.109q-.226,1.686-.558,3.336l.939.19q.341-1.682.568-3.4l-.949-.128" transform="translate(353.941 65.998)" fill="#b8bbbc"/>
    <path id="Path_250" data-name="Path 250" d="M771.258-200.355l-.748.6q1.071,1.352,2.227,2.628l.709-.642q-1.133-1.252-2.188-2.581" transform="translate(360.294 80.692)" fill="#b4494a"/>
    <path id="Path_251" data-name="Path 251" d="M802.64-198.348q-1.215,1.174-2.507,2.27l.617.731q1.315-1.115,2.556-2.314l-.667-.687" transform="translate(403.828 83.641)" fill="#b8bbbc"/>
    <path id="Path_252" data-name="Path 252" d="M773.049-198.327l-.664.689q1.241,1.2,2.558,2.309l.617-.731q-1.293-1.093-2.511-2.267" transform="translate(363.048 83.672)" fill="#b4494a"/>
    <path id="Path_253" data-name="Path 253" d="M776.126-194.949c-.254.217-.509.43-.768.64.252.168.509.333.763.5l.516-.808-.511-.331m57.764-1.63q-1.36,1-2.786,1.916l.516.805q1.456-.93,2.838-1.953l-.568-.768" transform="translate(367.419 86.241)" fill="#b8bbbc"/>
    <path id="Path_254" data-name="Path 254" d="M775.084-196.561l-.568.773c.682.5,1.373.985,2.079,1.452.259-.21.514-.422.768-.64q-1.163-.763-2.28-1.585" transform="translate(366.181 86.267)" fill="#b4494a"/>
    <path id="Path_255" data-name="Path 255" d="M796.992-195.1l-.4.215v1.084c.289-.151.573-.3.857-.459l-.459-.84" transform="translate(398.627 88.408)" fill="#b8bbbc"/>
    <path id="Path_256" data-name="Path 256" d="M798.15-195.017c-.857.462-1.731.9-2.615,1.314l.4.867q1.122-.522,2.213-1.1v-1.084" transform="translate(397.071 88.536)" fill="#0f7487"/>
    <path id="Path_257" data-name="Path 257" d="M777.328-195.087l-.459.84c.291.158.583.316.877.469-.044-.2-.086-.41-.126-.617s-.079-.4-.116-.6l-.175-.094" transform="translate(369.639 88.433)" fill="#b8bbbc"/>
    <path id="Path_258" data-name="Path 258" d="M777.126-195.049c.037.2.076.4.116.6s.081.412.126.617q1.086.567,2.2,1.084l.4-.867q-1.448-.674-2.847-1.432" transform="translate(370.017 88.489)" fill="#b4494a"/>
    <path id="Path_259" data-name="Path 259" d="M796.176-193.95q-1.574.608-3.193,1.111l.284.914q1.652-.511,3.255-1.131l-.346-.894" transform="translate(393.32 90.104)" fill="#0f7487"/>
    <path id="Path_260" data-name="Path 260" d="M779.746-193.935l-.343.894c1.072.41,2.158.788,3.262,1.126l.282-.914c-1.082-.333-2.151-.7-3.2-1.106" transform="translate(373.363 90.126)" fill="#b4494a"/>
    <path id="Path_261" data-name="Path 261" d="M792.694-192.659h-2.339l.072.435c.763-.128,1.516-.272,2.267-.435" transform="translate(389.458 92.002)" fill="#b8bbbc"/>
    <path id="Path_262" data-name="Path 262" d="M793.634-193.138q-1.637.393-3.314.674l.074.435.047.074h2.3q.556-.119,1.111-.252l-.222-.931" transform="translate(389.407 91.298)" fill="#0f7487"/>
    <path id="Path_263" data-name="Path 263" d="M790.35-192.689l.013.074h.035l-.047-.074" transform="translate(389.451 91.958)" fill="#0e2d35"/>
    <path id="Path_264" data-name="Path 264" d="M784.927-192.659h-2.45q1.178.256,2.376.454l.074-.454" transform="translate(377.881 92.002)" fill="#b8bbbc"/>
    <path id="Path_265" data-name="Path 265" d="M782.291-193.127l-.22.931c.333.079.667.153,1,.225h2.45l.082-.491q-1.674-.278-3.314-.664" transform="translate(377.284 91.314)" fill="#b4494a"/>
    <path id="Path_266" data-name="Path 266" d="M790.976-192.659h-.642q-1.36.122-2.736.168l.032.956q1.734-.059,3.438-.23l-.091-.894" transform="translate(385.405 92.002)" fill="#b8bbbc"/>
    <path id="Path_267" data-name="Path 267" d="M789.342-192.683q-.319.033-.637.059h.642l0-.059" transform="translate(387.033 91.966)" fill="#0e2d35"/>
    <path id="Path_268" data-name="Path 268" d="M785.444-192.659h-.533l-.089.9q1.7.167,3.438.225l.032-.958c-.956-.03-1.907-.086-2.848-.17" transform="translate(381.327 92.002)" fill="#b8bbbc"/>
    <path id="Path_269" data-name="Path 269" d="M784.863-192.679l0,.049h.533c-.175-.015-.353-.03-.528-.049" transform="translate(381.38 91.972)" fill="#0e2d35"/>
  </g>
</svg>
