<?xml version="1.0" encoding="utf-8"?>
<!-- Generator: Adobe Illustrator 26.0.1, SVG Export Plug-In . SVG Version: 6.00 Build 0)  -->
<svg version="1.1" id="Layer_1" xmlns="http://www.w3.org/2000/svg" xmlns:xlink="http://www.w3.org/1999/xlink" x="0px" y="0px"
	 viewBox="0 0 460.94 1058.82" style="enable-background:new 0 0 460.94 1058.82;" xml:space="preserve">
<style type="text/css">
	.st0{fill:#F16145;}
	.st1{fill:#FFC35A;}
	.st2{enable-background:new    ;}
	.st3{fill:#FFFFFF;}
	.st4{fill:#373737;}
	.st5{fill:none;stroke:#F16145;stroke-width:5.1465;}
	.st6{fill:#404040;}
	.st7{fill:none;stroke:#70C5D9;stroke-width:5.0331;stroke-miterlimit:10;}
	.st8{fill:#356AA0;}
	.st9{fill:#41B175;}
	.st10{fill:none;stroke:#70C5D9;stroke-width:5.0999;stroke-miterlimit:10;}
	.st11{fill:none;stroke:#70C5D9;stroke-width:6.0031;stroke-miterlimit:10;}
	.st12{fill:none;stroke:#70C5D9;stroke-width:5.9244;stroke-miterlimit:10;}
	.st13{fill:none;stroke:#70C5D9;stroke-width:4.0873;stroke-miterlimit:10;}
</style>
<line class="st7" x1="197.45" y1="29.73" x2="197.45" y2="1021.27"/>
<path class="st8" d="M245.33,66.04l-89.52,0c-4.62,0-8.36-3.74-8.36-8.36l0-35.91c0-4.62,3.74-8.36,8.36-8.36l89.52,0
	c4.62,0,8.36,3.74,8.36,8.36l0,35.91C253.69,62.3,249.95,66.04,245.33,66.04z"/>
<g>
	<path class="st3" d="M159.67,33.49h2.7l5.12,8.79v-8.79h2.06v12.15h-2.35l-5.47-9.32v9.32h-2.06V33.49z"/>
	<path class="st3" d="M171.48,41.29v-0.14c0-2.75,1.96-4.59,4.57-4.59c2.6,0,4.55,1.82,4.55,4.54v0.14c0,2.77-1.95,4.57-4.57,4.57
		C173.42,45.81,171.48,43.99,171.48,41.29z M178.5,41.26v-0.12c0-1.84-0.92-2.96-2.45-2.96c-1.53,0-2.46,1.1-2.46,2.94v0.14
		c0,1.82,0.9,2.96,2.46,2.96C177.59,44.21,178.5,43.08,178.5,41.26z"/>
	<path class="st3" d="M181.21,36.75h2.21l2.33,6.78l2.29-6.78h2.02l-3.21,8.89h-2.4L181.21,36.75z"/>
	<path class="st3" d="M190.66,41.29v-0.14c0-2.75,1.89-4.59,4.42-4.59c2.21,0,4.2,1.31,4.2,4.49v0.6h-6.51
		c0.07,1.68,0.92,2.63,2.45,2.63c1.24,0,1.89-0.49,2.04-1.36h1.99c-0.29,1.87-1.8,2.89-4.08,2.89
		C192.55,45.81,190.66,44.1,190.66,41.29z M197.24,40.27c-0.1-1.53-0.88-2.21-2.16-2.21c-1.24,0-2.07,0.83-2.28,2.21H197.24z"/>
	<path class="st3" d="M201.11,36.75h2.06v1.36c0.42-0.83,1.39-1.55,2.7-1.55c1.16,0,2.07,0.49,2.52,1.6c0.68-1.1,1.9-1.6,3.01-1.6
		c1.63,0,2.96,1,2.96,3.45v5.63h-2.06v-5.49c0-1.31-0.56-1.87-1.58-1.87s-1.96,0.68-1.96,2.04v5.32h-2.06v-5.49
		c0-1.31-0.58-1.87-1.58-1.87c-1.02,0-1.95,0.68-1.95,2.04v5.32h-2.06V36.75z"/>
	<path class="st3" d="M218.78,44.21v1.43h-2.06v-13h2.06v5.54c0.49-0.85,1.6-1.62,2.91-1.62c2.23,0,3.94,1.65,3.94,4.52v0.14
		c0,2.86-1.65,4.59-3.94,4.59C220.27,45.81,219.25,45.12,218.78,44.21z M223.52,41.26v-0.14c0-1.97-1.02-2.94-2.36-2.94
		c-1.43,0-2.45,0.97-2.45,2.94v0.14c0,1.99,0.97,2.92,2.46,2.92C222.69,44.18,223.52,43.16,223.52,41.26z"/>
	<path class="st3" d="M226.89,41.29v-0.14c0-2.75,1.89-4.59,4.42-4.59c2.21,0,4.2,1.31,4.2,4.49v0.6h-6.51
		c0.07,1.68,0.92,2.63,2.45,2.63c1.24,0,1.89-0.49,2.04-1.36h1.99c-0.29,1.87-1.8,2.89-4.08,2.89
		C228.77,45.81,226.89,44.1,226.89,41.29z M233.47,40.27c-0.1-1.53-0.88-2.21-2.16-2.21c-1.24,0-2.07,0.83-2.28,2.21H233.47z"/>
	<path class="st3" d="M237.34,36.75h2.06v1.67c0.56-1.12,1.39-1.78,2.89-1.8v1.92c-1.8,0.02-2.89,0.59-2.89,2.48v4.62h-2.06V36.75z"
		/>
</g>
<path class="st9" d="M245.33,205.94l-89.52,0c-4.62,0-8.36-3.74-8.36-8.36l0-35.91c0-4.62,3.74-8.36,8.36-8.36l89.52,0
	c4.62,0,8.36,3.74,8.36,8.36l0,35.91C253.69,202.19,249.95,205.94,245.33,205.94z"/>
<g>
	<path class="st3" d="M159.66,173.38h3.69c4.23,0,6.29,2.41,6.29,5.95v0.15c0,3.54-2.06,6.05-6.32,6.05h-3.65V173.38z
		 M163.25,183.75c2.72,0,4.03-1.56,4.03-4.25v-0.14c0-2.62-1.19-4.2-4.05-4.2h-1.31v8.58H163.25z"/>
	<path class="st3" d="M171.04,181.18v-0.14c0-2.75,1.89-4.59,4.42-4.59c2.21,0,4.2,1.31,4.2,4.49v0.6h-6.51
		c0.07,1.68,0.92,2.63,2.45,2.63c1.24,0,1.89-0.49,2.04-1.36h1.99c-0.29,1.87-1.8,2.89-4.08,2.89
		C172.92,185.7,171.04,183.99,171.04,181.18z M177.61,180.16c-0.1-1.53-0.88-2.21-2.16-2.21c-1.24,0-2.07,0.83-2.28,2.21H177.61z"/>
	<path class="st3" d="M180.9,181.2v-0.14c0-2.82,2.01-4.61,4.49-4.61c1.97,0,3.82,0.88,4.06,3.33h-1.99
		c-0.17-1.19-0.95-1.68-2.04-1.68c-1.41,0-2.41,1.09-2.41,2.92v0.14c0,1.94,0.95,2.96,2.46,2.96c1.09,0,2.02-0.65,2.14-1.9h1.89
		c-0.15,2.04-1.7,3.48-4.11,3.48C182.83,185.7,180.9,184.04,180.9,181.2z"/>
	<path class="st3" d="M190.67,181.18v-0.14c0-2.75,1.89-4.59,4.42-4.59c2.21,0,4.2,1.31,4.2,4.49v0.6h-6.51
		c0.07,1.68,0.92,2.63,2.45,2.63c1.24,0,1.89-0.49,2.04-1.36h1.99c-0.29,1.87-1.8,2.89-4.08,2.89
		C192.56,185.7,190.67,183.99,190.67,181.18z M197.25,180.16c-0.1-1.53-0.88-2.21-2.16-2.21c-1.24,0-2.07,0.83-2.28,2.21H197.25z"/>
	<path class="st3" d="M201.13,176.64h2.06V178c0.42-0.83,1.39-1.55,2.7-1.55c1.16,0,2.07,0.49,2.52,1.6c0.68-1.1,1.9-1.6,3.01-1.6
		c1.63,0,2.96,1,2.96,3.45v5.63h-2.06v-5.49c0-1.31-0.56-1.87-1.58-1.87c-1.02,0-1.96,0.68-1.96,2.04v5.32h-2.06v-5.49
		c0-1.31-0.58-1.87-1.58-1.87c-1.02,0-1.95,0.68-1.95,2.04v5.32h-2.06V176.64z"/>
	<path class="st3" d="M218.79,184.1v1.43h-2.06v-13h2.06v5.54c0.49-0.85,1.6-1.62,2.91-1.62c2.23,0,3.94,1.65,3.94,4.52v0.14
		c0,2.86-1.65,4.59-3.94,4.59C220.28,185.7,219.27,185,218.79,184.1z M223.53,181.15v-0.14c0-1.97-1.02-2.94-2.36-2.94
		c-1.43,0-2.45,0.97-2.45,2.94v0.14c0,1.99,0.97,2.92,2.46,2.92C222.7,184.07,223.53,183.05,223.53,181.15z"/>
	<path class="st3" d="M226.9,181.18v-0.14c0-2.75,1.89-4.59,4.42-4.59c2.21,0,4.2,1.31,4.2,4.49v0.6h-6.51
		c0.07,1.68,0.92,2.63,2.45,2.63c1.24,0,1.89-0.49,2.04-1.36h1.99c-0.29,1.87-1.8,2.89-4.08,2.89
		C228.78,185.7,226.9,183.99,226.9,181.18z M233.48,180.16c-0.1-1.53-0.88-2.21-2.16-2.21c-1.24,0-2.07,0.83-2.28,2.21H233.48z"/>
	<path class="st3" d="M237.35,176.64h2.06v1.67c0.56-1.12,1.39-1.78,2.89-1.8v1.92c-1.8,0.02-2.89,0.59-2.89,2.48v4.62h-2.06V176.64
		z"/>
</g>
<path class="st8" d="M245.33,345.83l-89.52,0c-4.62,0-8.36-3.74-8.36-8.36l0-35.91c0-4.62,3.74-8.36,8.36-8.36l89.52,0
	c4.62,0,8.36,3.74,8.36,8.36l0,35.91C253.69,342.08,249.95,345.83,245.33,345.83z"/>
<g>
	<path class="st3" d="M169.6,325.22v-1.77c0.42,0.17,0.85,0.31,1.56,0.31c1.11,0,1.82-0.58,1.82-2.07v-8.41h2.28v8.46
		c0,2.63-1.51,3.84-3.76,3.84C170.5,325.58,169.99,325.42,169.6,325.22z"/>
	<path class="st3" d="M177.02,322.96c0-2.07,2.01-2.82,4.56-2.82h1.1v-0.46c0-1.19-0.41-1.79-1.61-1.79c-1.07,0-1.6,0.51-1.7,1.39
		h-1.99c0.17-2.07,1.82-2.94,3.81-2.94c1.99,0,3.55,0.82,3.55,3.25v5.83h-2.02v-1.09c-0.58,0.76-1.36,1.26-2.72,1.26
		C178.36,325.59,177.02,324.81,177.02,322.96z M182.68,322.31v-0.88h-1.05c-1.56,0-2.57,0.36-2.57,1.44c0,0.75,0.41,1.24,1.43,1.24
		C181.74,324.11,182.68,323.45,182.68,322.31z"/>
	<path class="st3" d="M187.1,316.53h2.06v1.41c0.42-0.87,1.41-1.6,2.87-1.6c1.79,0,3.04,1.04,3.04,3.48v5.59h-2.06v-5.41
		c0-1.34-0.54-1.96-1.77-1.96c-1.16,0-2.09,0.71-2.09,2.12v5.24h-2.06V316.53z"/>
	<path class="st3" d="M197.35,322.23v-5.7h2.06v5.46c0,1.34,0.56,1.96,1.75,1.96c1.11,0,2.07-0.71,2.07-2.12v-5.29h2.06v8.89h-2.06
		v-1.39c-0.44,0.87-1.38,1.56-2.82,1.56C198.66,325.59,197.35,324.59,197.35,322.23z"/>
	<path class="st3" d="M207.07,322.96c0-2.07,2.01-2.82,4.55-2.82h1.11v-0.46c0-1.19-0.41-1.79-1.62-1.79c-1.07,0-1.6,0.51-1.7,1.39
		h-1.99c0.17-2.07,1.82-2.94,3.81-2.94c1.99,0,3.55,0.82,3.55,3.25v5.83h-2.02v-1.09c-0.58,0.76-1.36,1.26-2.72,1.26
		C208.41,325.59,207.07,324.81,207.07,322.96z M212.73,322.31v-0.88h-1.05c-1.56,0-2.57,0.36-2.57,1.44c0,0.75,0.41,1.24,1.43,1.24
		C211.8,324.11,212.73,323.45,212.73,322.31z"/>
	<path class="st3" d="M217.15,316.53h2.06v1.67c0.56-1.12,1.39-1.79,2.89-1.8v1.92c-1.8,0.02-2.89,0.59-2.89,2.48v4.62h-2.06V316.53
		z"/>
	<path class="st3" d="M226.59,324.52l-3.52-7.99h2.23l2.36,5.73l2.18-5.73h2.01l-4.84,11.93h-2.02L226.59,324.52z"/>
</g>
<path class="st9" d="M245.33,485.72l-89.52,0c-4.62,0-8.36-3.74-8.36-8.36l0-35.91c0-4.62,3.74-8.36,8.36-8.36l89.52,0
	c4.62,0,8.36,3.74,8.36,8.36l0,35.91C253.69,481.98,249.95,485.72,245.33,485.72z"/>
<g>
	<path class="st3" d="M165.77,453.16h7.53v1.8h-5.27v3.62h4.15v1.75h-4.15v4.98h-2.26V453.16z"/>
	<path class="st3" d="M174.09,460.96v-0.14c0-2.75,1.89-4.59,4.42-4.59c2.21,0,4.2,1.31,4.2,4.49v0.6h-6.51
		c0.07,1.68,0.92,2.63,2.45,2.63c1.24,0,1.89-0.49,2.04-1.36h1.99c-0.29,1.87-1.8,2.89-4.08,2.89
		C175.97,465.48,174.09,463.76,174.09,460.96z M180.66,459.94c-0.1-1.53-0.88-2.21-2.16-2.21c-1.24,0-2.07,0.83-2.28,2.21H180.66z"
		/>
	<path class="st3" d="M186.6,463.88v1.43h-2.06v-13h2.06v5.54c0.49-0.85,1.6-1.62,2.91-1.62c2.23,0,3.94,1.65,3.94,4.52v0.14
		c0,2.86-1.65,4.59-3.94,4.59C188.09,465.48,187.07,464.78,186.6,463.88z M191.34,460.93v-0.14c0-1.97-1.02-2.94-2.36-2.94
		c-1.43,0-2.45,0.97-2.45,2.94v0.14c0,1.99,0.97,2.92,2.46,2.92C190.51,463.85,191.34,462.83,191.34,460.93z"/>
	<path class="st3" d="M195.3,456.42h2.06v1.67c0.56-1.12,1.39-1.78,2.89-1.8v1.92c-1.8,0.02-2.89,0.59-2.89,2.48v4.62h-2.06V456.42z
		"/>
	<path class="st3" d="M201.96,462.12v-5.69h2.06v5.46c0,1.34,0.56,1.96,1.75,1.96c1.11,0,2.07-0.71,2.07-2.12v-5.29h2.06v8.89h-2.06
		v-1.39c-0.44,0.87-1.38,1.56-2.82,1.56C203.27,465.48,201.96,464.48,201.96,462.12z"/>
	<path class="st3" d="M211.69,462.85c0-2.07,2-2.82,4.56-2.82h1.1v-0.46c0-1.19-0.41-1.79-1.61-1.79c-1.07,0-1.6,0.51-1.7,1.39
		h-1.99c0.17-2.07,1.82-2.94,3.81-2.94c1.99,0,3.55,0.82,3.55,3.25v5.83h-2.02v-1.09c-0.58,0.76-1.36,1.26-2.72,1.26
		C213.03,465.48,211.69,464.7,211.69,462.85z M217.35,462.2v-0.88h-1.05c-1.56,0-2.57,0.36-2.57,1.44c0,0.75,0.41,1.24,1.43,1.24
		C216.41,464,217.35,463.34,217.35,462.2z"/>
	<path class="st3" d="M221.77,456.42h2.06v1.67c0.56-1.12,1.39-1.78,2.89-1.8v1.92c-1.8,0.02-2.89,0.59-2.89,2.48v4.62h-2.06V456.42
		z"/>
	<path class="st3" d="M231.2,464.41l-3.52-7.99h2.23l2.36,5.73l2.18-5.73h2.01l-4.84,11.93h-2.02L231.2,464.41z"/>
</g>
<path class="st8" d="M245.33,625.61l-89.52,0c-4.62,0-8.36-3.74-8.36-8.36l0-35.91c0-4.62,3.74-8.36,8.36-8.36l89.52,0
	c4.62,0,8.36,3.74,8.36,8.36l0,35.91C253.69,621.87,249.95,625.61,245.33,625.61z"/>
<g>
	<path class="st3" d="M176.39,593.05h3.03l3.2,8.29l3.13-8.29h2.99v12.15h-2.26v-9.18l-3.62,9.18h-0.73l-3.69-9.18v9.18h-2.04
		V593.05z"/>
	<path class="st3" d="M190.62,602.74c0-2.07,2.01-2.82,4.56-2.82h1.1v-0.46c0-1.19-0.41-1.79-1.61-1.79c-1.07,0-1.6,0.51-1.7,1.39
		h-1.99c0.17-2.07,1.82-2.94,3.81-2.94s3.55,0.82,3.55,3.25v5.83h-2.02v-1.09c-0.58,0.76-1.36,1.26-2.72,1.26
		C191.96,605.37,190.62,604.59,190.62,602.74z M196.28,602.09v-0.88h-1.05c-1.56,0-2.57,0.36-2.57,1.44c0,0.75,0.41,1.24,1.43,1.24
		C195.35,603.89,196.28,603.23,196.28,602.09z"/>
	<path class="st3" d="M200.7,596.31h2.06v1.67c0.56-1.12,1.39-1.79,2.89-1.8v1.92c-1.8,0.02-2.89,0.59-2.89,2.48v4.62h-2.06V596.31z
		"/>
	<path class="st3" d="M206.69,600.87v-0.13c0-2.82,2.01-4.61,4.49-4.61c1.97,0,3.82,0.88,4.06,3.33h-1.99
		c-0.17-1.19-0.95-1.68-2.04-1.68c-1.41,0-2.41,1.09-2.41,2.92v0.14c0,1.94,0.95,2.96,2.46,2.96c1.09,0,2.02-0.64,2.14-1.9h1.89
		c-0.15,2.04-1.7,3.48-4.11,3.48C208.62,605.37,206.69,603.71,206.69,600.87z"/>
	<path class="st3" d="M217.06,592.2h2.06v5.52c0.42-0.87,1.41-1.6,2.87-1.6c1.78,0,3.04,1.04,3.04,3.48v5.59h-2.06v-5.41
		c0-1.34-0.54-1.96-1.77-1.96c-1.16,0-2.09,0.71-2.09,2.12v5.24h-2.06V592.2z"/>
</g>
<path class="st9" d="M245.33,765.5l-89.52,0c-4.62,0-8.36-3.74-8.36-8.36l0-35.91c0-4.62,3.74-8.36,8.36-8.36l89.52,0
	c4.62,0,8.36,3.74,8.36,8.36l0,35.91C253.69,761.76,249.95,765.5,245.33,765.5z"/>
<g>
	<path class="st3" d="M185.77,732.94h2.96l4.01,12.15h-2.35l-0.97-3.01h-4.64l-0.95,3.01h-2.12L185.77,732.94z M185.31,740.43h3.59
		l-1.79-5.64L185.31,740.43z"/>
	<path class="st3" d="M194.42,736.2h2.06v1.43c0.49-0.85,1.6-1.62,2.91-1.62c2.23,0,3.94,1.65,3.94,4.52v0.13
		c0,2.86-1.65,4.59-3.94,4.59c-1.41,0-2.43-0.7-2.91-1.56v4.44h-2.06V736.2z M201.22,740.71v-0.14c0-1.97-1.02-2.94-2.36-2.94
		c-1.43,0-2.45,0.97-2.45,2.94v0.14c0,1.99,0.97,2.92,2.46,2.92C200.39,743.63,201.22,742.61,201.22,740.71z"/>
	<path class="st3" d="M205.18,736.2h2.06v1.66c0.56-1.12,1.39-1.78,2.89-1.8v1.92c-1.8,0.02-2.89,0.6-2.89,2.48v4.62h-2.06V736.2z"
		/>
	<path class="st3" d="M211.76,733.57c0-0.68,0.54-1.19,1.22-1.19c0.68,0,1.22,0.51,1.22,1.19c0,0.66-0.54,1.17-1.22,1.17
		C212.31,734.74,211.76,734.23,211.76,733.57z M211.98,736.2h2.06v8.89h-2.06V736.2z"/>
	<path class="st3" d="M216.59,732.09h2.06v13h-2.06V732.09z"/>
</g>
<path class="st8" d="M245.33,905.4l-89.52,0c-4.62,0-8.36-3.74-8.36-8.36l0-35.91c0-4.62,3.74-8.36,8.36-8.36l89.52,0
	c4.62,0,8.36,3.74,8.36,8.36l0,35.91C253.69,901.65,249.95,905.4,245.33,905.4z"/>
<g>
	<path class="st3" d="M185.17,872.83h3.03l3.2,8.29l3.13-8.29h2.99v12.15h-2.26v-9.18l-3.62,9.18h-0.73l-3.69-9.18v9.18h-2.04
		V872.83z"/>
	<path class="st3" d="M199.4,882.52c0-2.07,2.01-2.82,4.56-2.82h1.1v-0.46c0-1.19-0.41-1.79-1.61-1.79c-1.07,0-1.6,0.51-1.7,1.39
		h-1.99c0.17-2.07,1.82-2.94,3.81-2.94c1.99,0,3.55,0.82,3.55,3.25v5.83h-2.02v-1.09c-0.58,0.76-1.36,1.26-2.72,1.26
		C200.74,885.15,199.4,884.37,199.4,882.52z M205.06,881.87v-0.88H204c-1.56,0-2.57,0.36-2.57,1.44c0,0.75,0.41,1.24,1.43,1.24
		C204.12,883.67,205.06,883.01,205.06,881.87z"/>
	<path class="st3" d="M211.82,884.08l-3.52-7.99h2.23l2.36,5.73l2.18-5.73h2.01l-4.84,11.93h-2.02L211.82,884.08z"/>
</g>
<path class="st9" d="M245.33,1045.29l-89.52,0c-4.62,0-8.36-3.74-8.36-8.36l0-35.91c0-4.62,3.74-8.36,8.36-8.36l89.52,0
	c4.62,0,8.36,3.74,8.36,8.36l0,35.91C253.69,1041.55,249.95,1045.29,245.33,1045.29z"/>
<g>
	<path class="st3" d="M182.2,1024.67v-1.77c0.43,0.17,0.85,0.31,1.56,0.31c1.1,0,1.82-0.58,1.82-2.07v-8.41h2.28v8.46
		c0,2.63-1.51,3.84-3.76,3.84C183.1,1025.02,182.59,1024.87,182.2,1024.67z"/>
	<path class="st3" d="M190.25,1021.68v-5.69h2.06v5.46c0,1.34,0.56,1.96,1.75,1.96c1.11,0,2.07-0.71,2.07-2.12v-5.29h2.06v8.89
		h-2.06v-1.39c-0.44,0.87-1.38,1.56-2.82,1.56C191.56,1025.04,190.25,1024.04,190.25,1021.68z"/>
	<path class="st3" d="M200.62,1015.98h2.06v1.41c0.42-0.87,1.41-1.6,2.87-1.6c1.79,0,3.04,1.04,3.04,3.48v5.59h-2.06v-5.41
		c0-1.34-0.54-1.96-1.77-1.96c-1.16,0-2.09,0.71-2.09,2.12v5.24h-2.06V1015.98z"/>
	<path class="st3" d="M210.36,1020.52v-0.14c0-2.75,1.89-4.59,4.42-4.59c2.21,0,4.2,1.31,4.2,4.49v0.6h-6.51
		c0.07,1.68,0.92,2.63,2.45,2.63c1.24,0,1.89-0.49,2.04-1.36h1.99c-0.29,1.87-1.8,2.89-4.08,2.89
		C212.25,1025.04,210.36,1023.32,210.36,1020.52z M216.94,1019.5c-0.1-1.53-0.88-2.21-2.16-2.21c-1.24,0-2.07,0.83-2.28,2.21H216.94
		z"/>
</g>
<g>
	<path class="st8" d="M301.35,231.41h2.73V246h-2.73V231.41z"/>
	<path class="st8" d="M306.64,240.84v-0.16c0-3.41,2.02-5.57,4.79-5.57c1.73,0,2.82,0.8,3.41,1.86v-6.57h2.47V246h-2.47v-1.79
		c-0.57,1.06-1.94,2-3.51,2C308.66,246.21,306.64,244.31,306.64,240.84z M314.92,240.72v-0.16c0-2.35-1.08-3.51-2.88-3.51
		c-1.82,0-2.88,1.26-2.88,3.57v0.16c0,2.35,1.18,3.47,2.77,3.47C313.65,244.25,314.92,243.1,314.92,240.72z"/>
	<path class="st8" d="M319.53,240.78v-0.16c0-3.3,2.26-5.51,5.3-5.51c2.65,0,5.04,1.57,5.04,5.39v0.71h-7.81
		c0.08,2.02,1.1,3.16,2.94,3.16c1.49,0,2.26-0.59,2.45-1.63h2.39c-0.35,2.24-2.16,3.47-4.9,3.47
		C321.79,246.21,319.53,244.14,319.53,240.78z M327.42,239.55c-0.12-1.84-1.06-2.65-2.59-2.65c-1.49,0-2.49,1-2.73,2.65H327.42z"/>
	<path class="st8" d="M331.4,243.04c0-2.49,2.41-3.39,5.47-3.39h1.33v-0.55c0-1.43-0.49-2.14-1.94-2.14c-1.29,0-1.92,0.61-2.04,1.67
		h-2.39c0.2-2.49,2.18-3.53,4.57-3.53s4.26,0.98,4.26,3.9v7h-2.43v-1.31c-0.69,0.92-1.63,1.51-3.26,1.51
		C333.01,246.21,331.4,245.27,331.4,243.04z M338.2,242.27v-1.06h-1.26c-1.88,0-3.08,0.43-3.08,1.73c0,0.9,0.49,1.49,1.71,1.49
		C337.07,244.43,338.2,243.63,338.2,242.27z"/>
	<path class="st8" d="M300.37,270.3h2.61c0.18,1.47,0.78,2.69,3.24,2.69c1.61,0,2.75-0.9,2.75-2.24s-0.67-1.86-3.04-2.24
		c-3.49-0.47-5.14-1.53-5.14-4.26c0-2.39,2.04-4.18,5.08-4.18c3.14,0,5.02,1.43,5.3,4.22h-2.49c-0.27-1.53-1.14-2.18-2.82-2.18
		c-1.65,0-2.51,0.8-2.51,1.92c0,1.18,0.49,1.77,3.02,2.14c3.43,0.47,5.2,1.45,5.2,4.37c0,2.53-2.14,4.51-5.37,4.51
		C302.25,275.03,300.58,273.05,300.37,270.3z"/>
	<path class="st8" d="M313.82,270.99v-6.83h2.47v6.55c0,1.61,0.67,2.35,2.1,2.35c1.33,0,2.49-0.86,2.49-2.55v-6.34h2.47v10.67h-2.47
		v-1.67c-0.53,1.04-1.65,1.88-3.39,1.88C315.39,275.03,313.82,273.83,313.82,270.99z"/>
	<path class="st8" d="M328.73,273.12v1.71h-2.47v-15.61h2.47v6.65c0.59-1.02,1.92-1.94,3.49-1.94c2.67,0,4.73,1.98,4.73,5.43v0.16
		c0,3.43-1.98,5.51-4.73,5.51C330.53,275.03,329.3,274.2,328.73,273.12z M334.42,269.57v-0.16c0-2.37-1.22-3.53-2.84-3.53
		c-1.71,0-2.94,1.16-2.94,3.53v0.16c0,2.39,1.16,3.51,2.96,3.51C333.42,273.07,334.42,271.85,334.42,269.57z"/>
	<path class="st8" d="M339.17,264.16h2.47v1.63c0.51-1,1.67-1.86,3.24-1.86c1.39,0,2.49,0.59,3.02,1.92
		c0.82-1.33,2.28-1.92,3.61-1.92c1.96,0,3.55,1.2,3.55,4.14v6.75h-2.47v-6.59c0-1.57-0.67-2.24-1.9-2.24s-2.35,0.82-2.35,2.45v6.39
		h-2.47v-6.59c0-1.57-0.69-2.24-1.9-2.24c-1.22,0-2.35,0.82-2.35,2.45v6.39h-2.47V264.16z"/>
	<path class="st8" d="M357.7,261c0-0.82,0.65-1.43,1.47-1.43c0.82,0,1.47,0.61,1.47,1.43c0,0.8-0.65,1.41-1.47,1.41
		C358.35,262.41,357.7,261.79,357.7,261z M357.96,264.16h2.47v10.67h-2.47V264.16z"/>
	<path class="st8" d="M362.61,271.5h2.33c0.12,1.08,0.67,1.71,2.12,1.71c1.33,0,1.92-0.47,1.92-1.37c0-0.88-0.71-1.2-2.29-1.47
		c-2.82-0.45-3.86-1.24-3.86-3.24c0-2.14,2-3.2,4-3.2c2.18,0,3.92,0.82,4.18,3.22h-2.29c-0.2-0.98-0.75-1.43-1.9-1.43
		c-1.06,0-1.69,0.51-1.69,1.26c0,0.78,0.51,1.08,2.2,1.37c2.51,0.39,4,1,4,3.26c0,2.16-1.53,3.41-4.26,3.41
		C364.33,275.03,362.72,273.77,362.61,271.5z"/>
	<path class="st8" d="M372.69,271.5h2.33c0.12,1.08,0.67,1.71,2.12,1.71c1.33,0,1.92-0.47,1.92-1.37c0-0.88-0.71-1.2-2.29-1.47
		c-2.81-0.45-3.86-1.24-3.86-3.24c0-2.14,2-3.2,4-3.2c2.18,0,3.92,0.82,4.18,3.22h-2.29c-0.2-0.98-0.76-1.43-1.9-1.43
		c-1.06,0-1.69,0.51-1.69,1.26c0,0.78,0.51,1.08,2.2,1.37c2.51,0.39,4,1,4,3.26c0,2.16-1.53,3.41-4.26,3.41
		C374.4,275.03,372.79,273.77,372.69,271.5z"/>
	<path class="st8" d="M383.38,261c0-0.82,0.65-1.43,1.47-1.43s1.47,0.61,1.47,1.43c0,0.8-0.65,1.41-1.47,1.41
		S383.38,261.79,383.38,261z M383.65,264.16h2.47v10.67h-2.47V264.16z"/>
	<path class="st8" d="M388.4,269.61v-0.16c0-3.3,2.35-5.51,5.49-5.51c3.12,0,5.47,2.18,5.47,5.45v0.16c0,3.33-2.35,5.49-5.49,5.49
		C390.72,275.03,388.4,272.85,388.4,269.61z M396.82,269.57v-0.14c0-2.2-1.1-3.55-2.94-3.55s-2.96,1.33-2.96,3.53v0.16
		c0,2.18,1.08,3.55,2.96,3.55C395.72,273.12,396.82,271.75,396.82,269.57z"/>
	<path class="st8" d="M401.58,264.16h2.47v1.69c0.51-1.04,1.69-1.92,3.45-1.92c2.14,0,3.65,1.25,3.65,4.18v6.71h-2.47v-6.49
		c0-1.61-0.65-2.35-2.12-2.35c-1.39,0-2.51,0.86-2.51,2.55v6.28h-2.47V264.16z"/>
</g>
<path id="Path_1004_00000139992684128360028620000014409927072213399984_" class="st10" d="M253.49,459.4h28.96l0-419.68l-28.96,0"
	/>
<path id="Path_1004_00000003793891214400165170000012725501430388110270_" class="st10" d="M253.49,879.08l29.15,0l0-139.89h-29.15"
	/>
<line class="st11" x1="147.45" y1="599.29" x2="102.21" y2="599.29"/>
<line class="st12" x1="147.45" y1="1018.97" x2="107.32" y2="1018.97"/>
<g>
	<path class="st8" d="M7.08,601.47h2.61c0.18,1.47,0.78,2.69,3.24,2.69c1.61,0,2.75-0.9,2.75-2.24c0-1.35-0.67-1.86-3.04-2.24
		c-3.49-0.47-5.14-1.53-5.14-4.26c0-2.39,2.04-4.18,5.08-4.18c3.14,0,5.02,1.43,5.3,4.22H15.4c-0.26-1.53-1.14-2.18-2.81-2.18
		c-1.65,0-2.51,0.8-2.51,1.92c0,1.18,0.49,1.78,3.02,2.14c3.43,0.47,5.2,1.45,5.2,4.37c0,2.53-2.14,4.51-5.37,4.51
		C8.95,606.21,7.28,604.23,7.08,601.47z"/>
	<path class="st8" d="M20.72,590.4h2.47v6.63c0.51-1.04,1.69-1.92,3.45-1.92c2.14,0,3.65,1.25,3.65,4.18V606h-2.47v-6.49
		c0-1.61-0.65-2.35-2.12-2.35c-1.39,0-2.51,0.86-2.51,2.55V606h-2.47V590.4z"/>
	<path class="st8" d="M32.41,600.78v-0.16c0-3.3,2.35-5.51,5.49-5.51c3.12,0,5.47,2.18,5.47,5.45v0.16c0,3.32-2.35,5.49-5.49,5.49
		S32.41,604.02,32.41,600.78z M40.84,600.74v-0.14c0-2.2-1.1-3.55-2.94-3.55s-2.96,1.33-2.96,3.53v0.16c0,2.18,1.08,3.55,2.96,3.55
		C39.74,604.29,40.84,602.92,40.84,600.74z"/>
	<path class="st8" d="M45.59,595.33h2.47v2c0.67-1.35,1.67-2.14,3.47-2.16v2.3c-2.16,0.02-3.47,0.71-3.47,2.98V606h-2.47V595.33z"/>
	<path class="st8" d="M54.2,603.02v-5.83h-1.43v-1.86h1.43v-2.35h2.47v2.35h2.35v1.86h-2.35v5.61c0,0.94,0.45,1.37,1.22,1.37
		c0.49,0,0.86-0.06,1.2-0.2v1.96c-0.39,0.14-0.92,0.27-1.67,0.27C55.3,606.19,54.2,605.04,54.2,603.02z"/>
	<path class="st8" d="M61.38,590.4h2.47V606h-2.47V590.4z"/>
	<path class="st8" d="M66.64,592.17c0-0.81,0.65-1.43,1.47-1.43c0.82,0,1.47,0.61,1.47,1.43c0,0.8-0.65,1.41-1.47,1.41
		C67.3,593.58,66.64,592.97,66.64,592.17z M66.91,595.33h2.47V606h-2.47V595.33z"/>
	<path class="st8" d="M71.56,602.68h2.33c0.12,1.08,0.67,1.71,2.12,1.71c1.33,0,1.92-0.47,1.92-1.37c0-0.88-0.71-1.2-2.29-1.47
		c-2.82-0.45-3.86-1.24-3.86-3.24c0-2.14,2-3.2,4-3.2c2.18,0,3.92,0.82,4.18,3.22h-2.29c-0.2-0.98-0.75-1.43-1.9-1.43
		c-1.06,0-1.69,0.51-1.69,1.26c0,0.78,0.51,1.08,2.2,1.37c2.51,0.39,4,1,4,3.26c0,2.16-1.53,3.41-4.26,3.41
		C73.27,606.21,71.66,604.94,71.56,602.68z"/>
	<path class="st8" d="M82.86,603.02v-5.83h-1.43v-1.86h1.43v-2.35h2.47v2.35h2.35v1.86h-2.35v5.61c0,0.94,0.45,1.37,1.22,1.37
		c0.49,0,0.86-0.06,1.2-0.2v1.96c-0.39,0.14-0.92,0.27-1.67,0.27C83.96,606.19,82.86,605.04,82.86,603.02z"/>
</g>
<g>
	<path class="st8" d="M300.37,780.63h2.61c0.18,1.47,0.78,2.69,3.24,2.69c1.61,0,2.75-0.9,2.75-2.24s-0.67-1.86-3.04-2.24
		c-3.49-0.47-5.14-1.53-5.14-4.26c0-2.39,2.04-4.18,5.08-4.18c3.14,0,5.02,1.43,5.3,4.22h-2.49c-0.26-1.53-1.14-2.18-2.82-2.18
		c-1.65,0-2.51,0.8-2.51,1.92c0,1.18,0.49,1.77,3.02,2.14c3.43,0.47,5.2,1.45,5.2,4.37c0,2.53-2.14,4.51-5.37,4.51
		C302.25,785.36,300.58,783.38,300.37,780.63z"/>
	<path class="st8" d="M313.31,779.93v-0.16c0-3.3,2.35-5.51,5.49-5.51c3.12,0,5.47,2.18,5.47,5.45v0.16c0,3.33-2.35,5.49-5.49,5.49
		C315.63,785.36,313.31,783.18,313.31,779.93z M321.73,779.89v-0.14c0-2.2-1.1-3.55-2.94-3.55s-2.96,1.33-2.96,3.53v0.16
		c0,2.18,1.08,3.55,2.96,3.55C320.63,783.44,321.73,782.08,321.73,779.89z"/>
	<path class="st8" d="M325.77,779.95v-0.16c0-3.39,2.41-5.53,5.39-5.53c2.37,0,4.59,1.06,4.88,4h-2.39
		c-0.2-1.43-1.14-2.02-2.45-2.02c-1.69,0-2.9,1.31-2.9,3.51v0.16c0,2.33,1.14,3.55,2.96,3.55c1.31,0,2.43-0.78,2.57-2.29h2.26
		c-0.18,2.45-2.04,4.18-4.94,4.18C328.1,785.36,325.77,783.36,325.77,779.95z"/>
	<path class="st8" d="M338.01,771.32c0-0.82,0.65-1.43,1.47-1.43s1.47,0.61,1.47,1.43c0,0.8-0.65,1.41-1.47,1.41
		S338.01,772.12,338.01,771.32z M338.28,774.49h2.47v10.67h-2.47V774.49z"/>
	<path class="st8" d="M342.97,782.2c0-2.49,2.41-3.39,5.47-3.39h1.33v-0.55c0-1.43-0.49-2.14-1.94-2.14c-1.29,0-1.92,0.61-2.04,1.67
		h-2.39c0.2-2.49,2.18-3.53,4.57-3.53s4.26,0.98,4.26,3.9v7h-2.43v-1.31c-0.69,0.92-1.63,1.51-3.26,1.51
		C344.58,785.36,342.97,784.42,342.97,782.2z M349.76,781.42v-1.06h-1.26c-1.88,0-3.08,0.43-3.08,1.73c0,0.9,0.49,1.49,1.71,1.49
		C348.64,783.59,349.76,782.79,349.76,781.42z"/>
	<path class="st8" d="M355.13,769.55h2.47v15.61h-2.47V769.55z"/>
	<path class="st8" d="M365.65,770.57h5.22c3,0,4.77,1.14,4.77,3.79v0.08c0,1.45-0.65,2.59-2.31,3.1c1.98,0.43,2.92,1.51,2.92,3.45
		v0.08c0,2.71-1.79,4.08-5,4.08h-5.61V770.57z M370.55,776.71c1.79,0,2.49-0.65,2.49-2.14v-0.08c0-1.39-0.8-1.98-2.53-1.98h-2.2v4.2
		H370.55z M370.94,783.22c1.82,0,2.65-0.82,2.65-2.33v-0.08c0-1.51-0.84-2.26-2.84-2.26h-2.45v4.67H370.94z"/>
	<path class="st8" d="M378.5,781.32v-6.83h2.47v6.55c0,1.61,0.67,2.35,2.1,2.35c1.33,0,2.49-0.86,2.49-2.55v-6.34h2.47v10.67h-2.47
		v-1.67c-0.53,1.04-1.65,1.88-3.39,1.88C380.07,785.36,378.5,784.16,378.5,781.32z"/>
	<path class="st8" d="M390.13,781.83h2.33c0.12,1.08,0.67,1.71,2.12,1.71c1.33,0,1.92-0.47,1.92-1.37c0-0.88-0.71-1.2-2.29-1.47
		c-2.82-0.45-3.86-1.24-3.86-3.24c0-2.14,2-3.2,4-3.2c2.18,0,3.92,0.82,4.18,3.22h-2.29c-0.2-0.98-0.75-1.43-1.9-1.43
		c-1.06,0-1.69,0.51-1.69,1.26c0,0.78,0.51,1.08,2.2,1.37c2.51,0.39,4,1,4,3.26c0,2.16-1.53,3.41-4.26,3.41
		C391.84,785.36,390.23,784.1,390.13,781.83z"/>
	<path class="st8" d="M400.82,771.32c0-0.82,0.65-1.43,1.47-1.43c0.82,0,1.47,0.61,1.47,1.43c0,0.8-0.65,1.41-1.47,1.41
		C401.47,772.73,400.82,772.12,400.82,771.32z M401.09,774.49h2.47v10.67h-2.47V774.49z"/>
	<path class="st8" d="M406.55,774.49h2.47v1.69c0.51-1.04,1.69-1.92,3.45-1.92c2.14,0,3.65,1.25,3.65,4.18v6.71h-2.47v-6.49
		c0-1.61-0.65-2.35-2.12-2.35c-1.39,0-2.51,0.86-2.51,2.55v6.28h-2.47V774.49z"/>
	<path class="st8" d="M418.24,779.93v-0.16c0-3.3,2.27-5.51,5.3-5.51c2.65,0,5.04,1.57,5.04,5.39v0.71h-7.81
		c0.08,2.02,1.1,3.16,2.94,3.16c1.49,0,2.26-0.59,2.45-1.63h2.39c-0.35,2.24-2.16,3.47-4.9,3.47
		C420.51,785.36,418.24,783.3,418.24,779.93z M426.14,778.71c-0.12-1.84-1.06-2.65-2.59-2.65c-1.49,0-2.49,1-2.73,2.65H426.14z"/>
	<path class="st8" d="M430.07,781.83h2.33c0.12,1.08,0.67,1.71,2.12,1.71c1.33,0,1.92-0.47,1.92-1.37c0-0.88-0.71-1.2-2.29-1.47
		c-2.82-0.45-3.86-1.24-3.86-3.24c0-2.14,2-3.2,4-3.2c2.18,0,3.92,0.82,4.18,3.22h-2.29c-0.2-0.98-0.75-1.43-1.9-1.43
		c-1.06,0-1.69,0.51-1.69,1.26c0,0.78,0.51,1.08,2.2,1.37c2.51,0.39,4,1,4,3.26c0,2.16-1.53,3.41-4.26,3.41
		C431.79,785.36,430.17,784.1,430.07,781.83z"/>
	<path class="st8" d="M440.15,781.83h2.33c0.12,1.08,0.67,1.71,2.12,1.71c1.33,0,1.92-0.47,1.92-1.37c0-0.88-0.71-1.2-2.29-1.47
		c-2.82-0.45-3.86-1.24-3.86-3.24c0-2.14,2-3.2,4-3.2c2.18,0,3.92,0.82,4.18,3.22h-2.29c-0.2-0.98-0.75-1.43-1.9-1.43
		c-1.06,0-1.69,0.51-1.69,1.26c0,0.78,0.51,1.08,2.2,1.37c2.51,0.39,4,1,4,3.26c0,2.16-1.53,3.41-4.26,3.41
		C441.86,785.36,440.25,784.1,440.15,781.83z"/>
	<path class="st8" d="M301.27,799.4h3.63l3.83,9.96l3.75-9.96h3.59v14.59h-2.71v-11.02l-4.34,11.02h-0.88l-4.43-11.02v11.02h-2.45
		V799.4z"/>
	<path class="st8" d="M318.41,808.76v-0.16c0-3.3,2.35-5.51,5.49-5.51c3.12,0,5.47,2.18,5.47,5.45v0.16c0,3.33-2.35,5.49-5.49,5.49
		C320.73,814.19,318.41,812.01,318.41,808.76z M326.83,808.72v-0.14c0-2.2-1.1-3.55-2.94-3.55s-2.96,1.33-2.96,3.53v0.16
		c0,2.18,1.08,3.55,2.96,3.55C325.73,812.27,326.83,810.9,326.83,808.72z"/>
	<path class="st8" d="M330.89,808.82v-0.16c0-3.41,2.02-5.57,4.79-5.57c1.73,0,2.81,0.8,3.41,1.86v-6.57h2.47v15.61h-2.47v-1.79
		c-0.57,1.06-1.94,2-3.51,2C332.91,814.19,330.89,812.29,330.89,808.82z M339.17,808.7v-0.16c0-2.35-1.08-3.51-2.88-3.51
		c-1.82,0-2.88,1.26-2.88,3.57v0.16c0,2.35,1.18,3.47,2.77,3.47C337.91,812.23,339.17,811.09,339.17,808.7z"/>
	<path class="st8" d="M343.78,808.76v-0.16c0-3.3,2.27-5.51,5.3-5.51c2.65,0,5.04,1.57,5.04,5.39v0.71h-7.81
		c0.08,2.02,1.1,3.16,2.94,3.16c1.49,0,2.26-0.59,2.45-1.63h2.39c-0.35,2.24-2.16,3.47-4.9,3.47
		C346.05,814.19,343.78,812.13,343.78,808.76z M351.68,807.54c-0.12-1.84-1.06-2.65-2.59-2.65c-1.49,0-2.49,1-2.73,2.65H351.68z"/>
	<path class="st8" d="M356.39,798.38h2.47v15.61h-2.47V798.38z"/>
	<path class="st8" d="M361.92,798.38h2.47v15.61h-2.47V798.38z"/>
	<path class="st8" d="M367.18,800.15c0-0.82,0.65-1.43,1.47-1.43s1.47,0.61,1.47,1.43c0,0.8-0.65,1.41-1.47,1.41
		S367.18,800.95,367.18,800.15z M367.45,803.31h2.47v10.67h-2.47V803.31z"/>
	<path class="st8" d="M372.91,803.31h2.47v1.69c0.51-1.04,1.69-1.92,3.45-1.92c2.14,0,3.65,1.25,3.65,4.18v6.71h-2.47v-6.49
		c0-1.61-0.65-2.35-2.12-2.35c-1.39,0-2.51,0.86-2.51,2.55v6.28h-2.47V803.31z"/>
	<path class="st8" d="M384.73,814.35h2.49c0.2,1.06,1.02,1.67,2.63,1.67c1.92,0,2.98-0.96,2.98-2.88v-1.57
		c-0.59,1.02-1.92,1.98-3.49,1.98c-2.67,0-4.73-2-4.73-5.08v-0.14c0-3,2.04-5.24,4.79-5.24c1.75,0,2.82,0.8,3.43,1.86v-1.63h2.47
		v9.87c-0.02,3.14-2.12,4.71-5.43,4.71C386.52,817.9,385.01,816.39,384.73,814.35z M392.91,808.39v-0.14c0-2.02-1.1-3.22-2.88-3.22
		c-1.84,0-2.9,1.33-2.9,3.26v0.16c0,1.98,1.22,3.2,2.81,3.2C391.66,811.66,392.91,810.43,392.91,808.39z"/>
	<path class="st8" d="M413.2,811.01l2.45,2.98h-3.12l-1.22-1.49c-0.92,0.94-2.12,1.67-4,1.67c-2.84,0-4.79-1.61-4.79-4.16
		c0-2.14,1.33-3.39,3.28-4.32c-0.78-1.02-1.14-2-1.14-2.88c0-2.31,1.9-3.53,4.02-3.53c2,0,3.67,1.2,3.67,3.16
		c0,1.69-1.14,2.9-3.04,3.71l2.57,3.14l1.49-2.86h2.22L413.2,811.01z M410.04,810.92l-3.1-3.77c-1.08,0.55-1.86,1.22-1.86,2.59
		c0,1.47,0.92,2.39,2.51,2.39C408.53,812.13,409.37,811.72,410.04,810.92z M408.16,804.97c1.37-0.63,1.94-1.29,1.94-2.43
		c0-0.84-0.57-1.45-1.43-1.45c-0.9,0-1.61,0.57-1.61,1.73C407.06,803.5,407.47,804.13,408.16,804.97z"/>
	<path class="st8" d="M300.37,838.28h2.61c0.18,1.47,0.78,2.69,3.24,2.69c1.61,0,2.75-0.9,2.75-2.24s-0.67-1.86-3.04-2.24
		c-3.49-0.47-5.14-1.53-5.14-4.26c0-2.39,2.04-4.18,5.08-4.18c3.14,0,5.02,1.43,5.3,4.22h-2.49c-0.26-1.53-1.14-2.18-2.82-2.18
		c-1.65,0-2.51,0.8-2.51,1.92c0,1.18,0.49,1.77,3.02,2.14c3.43,0.47,5.2,1.45,5.2,4.37c0,2.53-2.14,4.51-5.37,4.51
		C302.25,843.02,300.58,841.04,300.37,838.28z"/>
	<path class="st8" d="M314.02,827.21h2.47v6.63c0.51-1.04,1.69-1.92,3.45-1.92c2.14,0,3.65,1.25,3.65,4.18v6.71h-2.47v-6.49
		c0-1.61-0.65-2.35-2.12-2.35c-1.39,0-2.51,0.86-2.51,2.55v6.28h-2.47V827.21z"/>
	<path class="st8" d="M325.71,837.59v-0.16c0-3.3,2.35-5.51,5.49-5.51c3.12,0,5.47,2.18,5.47,5.45v0.16c0,3.33-2.35,5.49-5.49,5.49
		C328.04,843.02,325.71,840.83,325.71,837.59z M334.14,837.55v-0.14c0-2.2-1.1-3.55-2.94-3.55s-2.96,1.33-2.96,3.53v0.16
		c0,2.18,1.08,3.55,2.96,3.55C333.03,841.1,334.14,839.73,334.14,837.55z"/>
	<path class="st8" d="M338.89,832.14h2.47v2c0.67-1.35,1.67-2.14,3.47-2.16v2.31c-2.16,0.02-3.47,0.71-3.47,2.98v5.55h-2.47V832.14z
		"/>
	<path class="st8" d="M347.5,839.83V834h-1.43v-1.86h1.43v-2.35h2.47v2.35h2.35V834h-2.35v5.61c0,0.94,0.45,1.37,1.22,1.37
		c0.49,0,0.86-0.06,1.2-0.2v1.96c-0.39,0.14-0.92,0.27-1.67,0.27C348.6,843,347.5,841.85,347.5,839.83z"/>
	<path class="st8" d="M354.68,827.21h2.47v15.61h-2.47V827.21z"/>
	<path class="st8" d="M359.94,828.98c0-0.82,0.65-1.43,1.47-1.43c0.82,0,1.47,0.61,1.47,1.43c0,0.8-0.65,1.41-1.47,1.41
		C360.59,830.39,359.94,829.78,359.94,828.98z M360.2,832.14h2.47v10.67h-2.47V832.14z"/>
	<path class="st8" d="M364.86,839.49h2.33c0.12,1.08,0.67,1.71,2.12,1.71c1.33,0,1.92-0.47,1.92-1.37c0-0.88-0.71-1.2-2.29-1.47
		c-2.82-0.45-3.86-1.24-3.86-3.24c0-2.14,2-3.2,4-3.2c2.18,0,3.92,0.82,4.18,3.22h-2.29c-0.2-0.98-0.75-1.43-1.9-1.43
		c-1.06,0-1.69,0.51-1.69,1.26c0,0.78,0.51,1.08,2.2,1.37c2.51,0.39,4,1,4,3.26c0,2.16-1.53,3.41-4.26,3.41
		C366.57,843.02,364.96,841.75,364.86,839.49z"/>
	<path class="st8" d="M376.16,839.83V834h-1.43v-1.86h1.43v-2.35h2.47v2.35h2.35V834h-2.35v5.61c0,0.94,0.45,1.37,1.22,1.37
		c0.49,0,0.86-0.06,1.2-0.2v1.96c-0.39,0.14-0.92,0.27-1.67,0.27C377.26,843,376.16,841.85,376.16,839.83z"/>
</g>
<g>
	<path class="st8" d="M35.86,997.41h4.69c3.26,0,5.41,1.45,5.41,4.51v0.08c0,3.08-2.22,4.45-5.34,4.45h-2.04v5.55h-2.71V997.41z
		 M40.55,1004.49c1.79,0,2.75-0.88,2.75-2.49v-0.08c0-1.73-1.02-2.41-2.75-2.41h-1.98v4.98H40.55z"/>
	<path class="st8" d="M47.87,998.17c0-0.82,0.65-1.43,1.47-1.43s1.47,0.61,1.47,1.43c0,0.8-0.65,1.41-1.47,1.41
		S47.87,998.96,47.87,998.17z M48.14,1001.33h2.47V1012h-2.47V1001.33z"/>
	<path class="st8" d="M54.02,1009.02v-5.83h-1.43v-1.86h1.43v-2.35h2.47v2.35h2.35v1.86h-2.35v5.61c0,0.94,0.45,1.37,1.22,1.37
		c0.49,0,0.86-0.06,1.2-0.2v1.96c-0.39,0.14-0.92,0.27-1.67,0.27C55.12,1012.18,54.02,1011.04,54.02,1009.02z"/>
	<path class="st8" d="M60.42,1006.8v-0.16c0-3.39,2.41-5.53,5.39-5.53c2.37,0,4.59,1.06,4.88,4h-2.39c-0.2-1.43-1.14-2.02-2.45-2.02
		c-1.69,0-2.9,1.31-2.9,3.51v0.16c0,2.33,1.14,3.55,2.96,3.55c1.31,0,2.43-0.78,2.57-2.29h2.26c-0.18,2.45-2.04,4.18-4.94,4.18
		C62.75,1012.2,60.42,1010.2,60.42,1006.8z"/>
	<path class="st8" d="M72.86,996.39h2.47v6.63c0.51-1.04,1.69-1.92,3.45-1.92c2.14,0,3.65,1.25,3.65,4.18v6.71h-2.47v-6.49
		c0-1.61-0.65-2.35-2.12-2.35c-1.39,0-2.51,0.86-2.51,2.55v6.28h-2.47V996.39z"/>
	<path class="st8" d="M35.86,1026.24h9.12v2.14h-6.41v4h5.14v2.04h-5.14v4.26h6.75v2.14h-9.47V1026.24z"/>
	<path class="st8" d="M46.16,1030.16h2.65l2.79,8.14l2.75-8.14h2.43l-3.86,10.67h-2.88L46.16,1030.16z"/>
	<path class="st8" d="M57.5,1035.6v-0.16c0-3.3,2.26-5.51,5.3-5.51c2.65,0,5.04,1.57,5.04,5.39v0.71h-7.81
		c0.08,2.02,1.1,3.16,2.94,3.16c1.49,0,2.26-0.59,2.45-1.63h2.39c-0.35,2.24-2.16,3.47-4.9,3.47
		C59.77,1041.03,57.5,1038.97,57.5,1035.6z M65.4,1034.38c-0.12-1.84-1.06-2.65-2.59-2.65c-1.49,0-2.49,1-2.73,2.65H65.4z"/>
	<path class="st8" d="M70.05,1030.16h2.47v1.69c0.51-1.04,1.69-1.92,3.45-1.92c2.14,0,3.65,1.25,3.65,4.18v6.71h-2.47v-6.49
		c0-1.61-0.65-2.35-2.12-2.35c-1.39,0-2.51,0.86-2.51,2.55v6.28h-2.47V1030.16z"/>
	<path class="st8" d="M82.86,1037.85v-5.83h-1.43v-1.86h1.43v-2.35h2.47v2.35h2.35v1.86h-2.35v5.61c0,0.94,0.45,1.37,1.22,1.37
		c0.49,0,0.86-0.06,1.2-0.2v1.96c-0.39,0.14-0.92,0.27-1.67,0.27C83.96,1041.01,82.86,1039.87,82.86,1037.85z"/>
</g>
</svg>
