<?xml version="1.0" encoding="utf-8"?>
<!-- Generator: Adobe Illustrator 26.0.1, SVG Export Plug-In . SVG Version: 6.00 Build 0)  -->
<svg version="1.1" id="Layer_1" xmlns="http://www.w3.org/2000/svg" xmlns:xlink="http://www.w3.org/1999/xlink" x="0px" y="0px"
	 viewBox="0 0 2021.76 563.35" style="enable-background:new 0 0 2021.76 563.35;" xml:space="preserve">
<style type="text/css">
	.st0{fill:#F16145;}
	.st1{fill:#FFC35A;}
	.st2{enable-background:new    ;}
	.st3{fill:#FFFFFF;}
	.st4{fill:#373737;}
	.st5{fill:none;stroke:#F16145;stroke-width:5.1465;}
	.st6{fill:#404040;}
	.st7{fill:#506F85;}
	.st8{fill:#9E9D9E;}
	.st9{fill:#C11E60;}
	.st10{fill:#3B4C93;}
	.st11{fill:none;stroke:#70C5D9;stroke-width:8.8886;stroke-miterlimit:10;}
	.st12{fill:#356AA0;}
	.st13{fill:#41B175;}
	.st14{fill:none;stroke:#70C5D9;stroke-width:7.1238;stroke-miterlimit:10;}
</style>
<g>
	<line class="st11" x1="136.98" y1="312.9" x2="1911.36" y2="312.9"/>
	<path class="st12" d="M232.42,353.33H76.4c-8.05,0-14.57-6.53-14.57-14.57v-62.59c0-8.05,6.53-14.57,14.57-14.57h156.03
		c8.05,0,14.57,6.53,14.57,14.57v62.59C247,346.81,240.47,353.33,232.42,353.33z"/>
	<g>
		<path class="st3" d="M106.77,296.6h4.71l8.92,15.32V296.6h3.59v21.19h-4.09l-9.54-16.24v16.24h-3.59V296.6z"/>
		<path class="st3" d="M127.36,310.2v-0.24c0-4.8,3.41-8,7.97-8c4.53,0,7.94,3.17,7.94,7.91v0.24c0,4.83-3.41,7.97-7.97,7.97
			S127.36,314.91,127.36,310.2z M139.6,310.14v-0.21c0-3.2-1.6-5.16-4.27-5.16c-2.67,0-4.3,1.93-4.3,5.13v0.24
			c0,3.17,1.57,5.16,4.3,5.16C138,315.29,139.6,313.31,139.6,310.14z"/>
		<path class="st3" d="M144.31,302.29h3.85l4.06,11.82l4-11.82h3.53l-5.6,15.5h-4.18L144.31,302.29z"/>
		<path class="st3" d="M168.39,302.76l3.7-6.52l2.1,0.92l-2.55,6.87L168.39,302.76z"/>
		<path class="st3" d="M175.39,317.07l8-8.45c2.02-2.13,3.23-4,3.23-6.02c0-1.99-1.13-3.23-3.17-3.23c-2.1,0-3.44,1.21-3.79,4.21
			h-3.62c0.27-4.62,3.05-7.29,7.53-7.29c4.39,0,6.99,2.52,6.99,6.25c0,2.76-1.63,5.16-4.15,7.59l-4.71,4.59h9.01v3.05h-15.32V317.07
			z"/>
		<path class="st3" d="M197.49,300.51l-4.47,3.05v-3.47l4.92-3.5h3.53v21.19h-3.97V300.51z"/>
	</g>
	<path class="st13" d="M476.24,353.33H320.22c-8.05,0-14.57-6.53-14.57-14.57v-62.59c0-8.05,6.53-14.57,14.57-14.57h156.03
		c8.05,0,14.57,6.53,14.57,14.57v62.59C490.82,346.81,484.29,353.33,476.24,353.33z"/>
	<g>
		<path class="st3" d="M350.87,296.6h6.43c7.38,0,10.96,4.21,10.96,10.37v0.27c0,6.16-3.59,10.55-11.02,10.55h-6.37V296.6z
			 M357.12,314.67c4.74,0,7.02-2.73,7.02-7.41v-0.24c0-4.56-2.07-7.32-7.05-7.32h-2.28v14.96H357.12z"/>
		<path class="st3" d="M370.69,310.2v-0.24c0-4.8,3.29-8,7.7-8c3.85,0,7.32,2.28,7.32,7.82v1.04h-11.35
			c0.12,2.93,1.6,4.59,4.27,4.59c2.16,0,3.29-0.86,3.56-2.37h3.47c-0.5,3.26-3.14,5.04-7.11,5.04
			C373.98,318.08,370.69,315.09,370.69,310.2z M382.16,308.42c-0.18-2.67-1.54-3.85-3.76-3.85c-2.16,0-3.62,1.45-3.97,3.85H382.16z"
			/>
		<path class="st3" d="M387.87,310.23v-0.24c0-4.92,3.5-8.03,7.82-8.03c3.44,0,6.67,1.54,7.08,5.81h-3.47
			c-0.3-2.07-1.66-2.93-3.56-2.93c-2.46,0-4.21,1.9-4.21,5.1v0.24c0,3.38,1.66,5.16,4.3,5.16c1.9,0,3.53-1.13,3.73-3.32h3.29
			c-0.27,3.56-2.96,6.07-7.17,6.07C391.25,318.08,387.87,315.18,387.87,310.23z"/>
		<path class="st3" d="M411.93,302.76l3.7-6.52l2.1,0.92l-2.55,6.87L411.93,302.76z"/>
		<path class="st3" d="M418.92,317.07l8-8.45c2.02-2.13,3.23-4,3.23-6.02c0-1.99-1.13-3.23-3.17-3.23c-2.1,0-3.44,1.21-3.79,4.21
			h-3.62c0.27-4.62,3.05-7.29,7.53-7.29c4.39,0,6.99,2.52,6.99,6.25c0,2.76-1.63,5.16-4.15,7.59l-4.71,4.59h9.01v3.05h-15.32V317.07
			z"/>
		<path class="st3" d="M441.03,300.51l-4.47,3.05v-3.47l4.92-3.5H445v21.19h-3.97V300.51z"/>
	</g>
	<path class="st12" d="M720.06,353.33H564.03c-8.05,0-14.57-6.53-14.57-14.57v-62.59c0-8.05,6.53-14.57,14.57-14.57h156.03
		c8.05,0,14.57,6.53,14.57,14.57v62.59C734.63,346.81,728.11,353.33,720.06,353.33z"/>
	<g>
		<path class="st3" d="M594.86,317.43v-3.08c0.74,0.3,1.48,0.53,2.73,0.53c1.93,0,3.17-1.01,3.17-3.62V296.6h3.97v14.76
			c0,4.59-2.64,6.7-6.55,6.7C596.43,318.05,595.55,317.78,594.86,317.43z"/>
		<path class="st3" d="M607.78,313.49c0-3.62,3.5-4.92,7.94-4.92h1.93v-0.8c0-2.07-0.71-3.11-2.81-3.11c-1.87,0-2.79,0.89-2.96,2.43
			h-3.47c0.3-3.62,3.17-5.13,6.64-5.13c3.47,0,6.19,1.42,6.19,5.66v10.16h-3.53v-1.9c-1.01,1.33-2.37,2.19-4.74,2.19
			C610.12,318.08,607.78,316.72,607.78,313.49z M617.65,312.36v-1.54h-1.84c-2.73,0-4.47,0.62-4.47,2.52c0,1.3,0.71,2.16,2.49,2.16
			C616.02,315.5,617.65,314.35,617.65,312.36z"/>
		<path class="st3" d="M625.35,302.29h3.59v2.46c0.74-1.51,2.46-2.79,5.01-2.79c3.11,0,5.3,1.81,5.3,6.08v9.75h-3.59v-9.42
			c0-2.34-0.95-3.41-3.08-3.41c-2.01,0-3.64,1.25-3.64,3.7v9.13h-3.59V302.29z"/>
		<path class="st3" d="M649.35,302.76l3.7-6.52l2.1,0.92l-2.55,6.87L649.35,302.76z"/>
		<path class="st3" d="M656.34,317.07l8-8.45c2.02-2.13,3.23-4,3.23-6.02c0-1.99-1.13-3.23-3.17-3.23c-2.1,0-3.44,1.21-3.79,4.21
			H657c0.27-4.62,3.05-7.29,7.53-7.29c4.39,0,6.99,2.52,6.99,6.25c0,2.76-1.63,5.16-4.15,7.59l-4.71,4.59h9.01v3.05h-15.32V317.07z"
			/>
		<path class="st3" d="M673.62,317.07l8-8.45c2.02-2.13,3.23-4,3.23-6.02c0-1.99-1.13-3.23-3.17-3.23c-2.1,0-3.44,1.21-3.79,4.21
			h-3.62c0.27-4.62,3.05-7.29,7.53-7.29c4.39,0,6.99,2.52,6.99,6.25c0,2.76-1.63,5.16-4.15,7.59l-4.71,4.59h9.01v3.05h-15.32V317.07
			z"/>
	</g>
	<path class="st13" d="M963.88,353.33H807.85c-8.05,0-14.57-6.53-14.57-14.57v-62.59c0-8.05,6.53-14.57,14.57-14.57h156.03
		c8.05,0,14.57,6.53,14.57,14.57v62.59C978.45,346.81,971.93,353.33,963.88,353.33z"/>
	<g>
		<path class="st3" d="M837.88,296.6h13.13v3.14h-9.19v6.31h7.23v3.05h-7.23v8.68h-3.94V296.6z"/>
		<path class="st3" d="M852.37,310.2v-0.24c0-4.8,3.29-8,7.7-8c3.85,0,7.32,2.28,7.32,7.82v1.04h-11.35
			c0.12,2.93,1.6,4.59,4.27,4.59c2.16,0,3.29-0.86,3.56-2.37h3.47c-0.5,3.26-3.14,5.04-7.11,5.04
			C855.66,318.08,852.37,315.09,852.37,310.2z M863.84,308.42c-0.18-2.67-1.54-3.85-3.76-3.85c-2.16,0-3.62,1.45-3.97,3.85H863.84z"
			/>
		<path class="st3" d="M874.18,315.29v2.49h-3.59v-22.67h3.59v9.66c0.86-1.48,2.79-2.82,5.07-2.82c3.88,0,6.88,2.88,6.88,7.88v0.24
			c0,4.98-2.87,8-6.88,8C876.79,318.08,875.01,316.86,874.18,315.29z M882.45,310.14v-0.24c0-3.44-1.78-5.13-4.12-5.13
			c-2.49,0-4.27,1.69-4.27,5.13v0.24c0,3.47,1.69,5.1,4.3,5.1C880.99,315.23,882.45,313.46,882.45,310.14z"/>
		<path class="st3" d="M895.33,302.76l3.7-6.52l2.1,0.92l-2.55,6.87L895.33,302.76z"/>
		<path class="st3" d="M902.32,317.07l8-8.45c2.02-2.13,3.23-4,3.23-6.02c0-1.99-1.13-3.23-3.17-3.23c-2.1,0-3.44,1.21-3.79,4.21
			h-3.62c0.27-4.62,3.05-7.29,7.53-7.29c4.39,0,6.99,2.52,6.99,6.25c0,2.76-1.63,5.16-4.15,7.59l-4.71,4.59h9.01v3.05h-15.32V317.07
			z"/>
		<path class="st3" d="M919.6,317.07l8-8.45c2.02-2.13,3.23-4,3.23-6.02c0-1.99-1.13-3.23-3.17-3.23c-2.1,0-3.44,1.21-3.79,4.21
			h-3.62c0.27-4.62,3.05-7.29,7.53-7.29c4.39,0,6.99,2.52,6.99,6.25c0,2.76-1.63,5.16-4.15,7.59l-4.71,4.59h9.01v3.05H919.6V317.07z
			"/>
	</g>
	<path class="st12" d="M1207.69,353.33h-156.03c-8.05,0-14.57-6.53-14.57-14.57v-62.59c0-8.05,6.53-14.57,14.57-14.57h156.03
		c8.05,0,14.57,6.53,14.57,14.57v62.59C1222.27,346.81,1215.74,353.33,1207.69,353.33z"/>
	<g>
		<path class="st3" d="M1080.37,296.6h5.27l5.57,14.46l5.45-14.46h5.22v21.19h-3.94v-16l-6.31,16h-1.27l-6.43-16v16h-3.56V296.6z"/>
		<path class="st3" d="M1105.17,313.49c0-3.62,3.5-4.92,7.94-4.92h1.93v-0.8c0-2.07-0.71-3.11-2.82-3.11
			c-1.87,0-2.79,0.89-2.96,2.43h-3.47c0.3-3.62,3.17-5.13,6.64-5.13s6.19,1.42,6.19,5.66v10.16h-3.53v-1.9
			c-1.01,1.33-2.37,2.19-4.74,2.19C1107.51,318.08,1105.17,316.72,1105.17,313.49z M1115.03,312.36v-1.54h-1.84
			c-2.73,0-4.47,0.62-4.47,2.52c0,1.3,0.71,2.16,2.49,2.16C1113.4,315.5,1115.03,314.35,1115.03,312.36z"/>
		<path class="st3" d="M1122.74,302.29h3.58v2.9c0.98-1.96,2.43-3.11,5.04-3.14v3.35c-3.14,0.03-5.04,1.04-5.04,4.33v8.06h-3.58
			V302.29z"/>
		<path class="st3" d="M1140.48,302.76l3.7-6.52l2.1,0.92l-2.55,6.87L1140.48,302.76z"/>
		<path class="st3" d="M1147.48,317.07l8-8.45c2.01-2.13,3.23-4,3.23-6.02c0-1.99-1.13-3.23-3.17-3.23c-2.1,0-3.44,1.21-3.79,4.21
			h-3.62c0.27-4.62,3.05-7.29,7.53-7.29c4.39,0,6.99,2.52,6.99,6.25c0,2.76-1.63,5.16-4.15,7.59l-4.71,4.59h9.01v3.05h-15.32V317.07
			z"/>
		<path class="st3" d="M1164.75,317.07l8-8.45c2.01-2.13,3.23-4,3.23-6.02c0-1.99-1.13-3.23-3.17-3.23c-2.1,0-3.44,1.21-3.79,4.21
			h-3.62c0.27-4.62,3.05-7.29,7.53-7.29c4.39,0,6.99,2.52,6.99,6.25c0,2.76-1.63,5.16-4.15,7.59l-4.71,4.59h9.01v3.05h-15.32V317.07
			z"/>
	</g>
	<path class="st13" d="M1451.51,353.33h-156.03c-8.05,0-14.57-6.53-14.57-14.57v-62.59c0-8.05,6.53-14.57,14.57-14.57h156.03
		c8.05,0,14.57,6.53,14.57,14.57v62.59C1466.09,346.81,1459.56,353.33,1451.51,353.33z"/>
	<g>
		<path class="st3" d="M1331.18,296.6h5.16l6.99,21.19h-4.09l-1.69-5.25h-8.09l-1.66,5.25h-3.7L1331.18,296.6z M1330.38,309.66h6.25
			l-3.11-9.84L1330.38,309.66z"/>
		<path class="st3" d="M1346.26,302.29h3.58v2.49c0.86-1.48,2.79-2.82,5.07-2.82c3.88,0,6.88,2.88,6.88,7.88v0.24
			c0,4.98-2.87,8-6.88,8c-2.46,0-4.24-1.21-5.07-2.73v7.73h-3.58V302.29z M1358.11,310.14v-0.24c0-3.44-1.78-5.13-4.12-5.13
			c-2.49,0-4.27,1.69-4.27,5.13v0.24c0,3.47,1.69,5.1,4.3,5.1C1356.66,315.23,1358.11,313.46,1358.11,310.14z"/>
		<path class="st3" d="M1365.01,302.29h3.58v2.9c0.98-1.96,2.43-3.11,5.04-3.14v3.35c-3.14,0.03-5.04,1.04-5.04,4.33v8.06h-3.58
			V302.29z"/>
		<path class="st3" d="M1382.76,302.76l3.7-6.52l2.1,0.92l-2.55,6.87L1382.76,302.76z"/>
		<path class="st3" d="M1389.75,317.07l8-8.45c2.01-2.13,3.23-4,3.23-6.02c0-1.99-1.13-3.23-3.17-3.23c-2.1,0-3.44,1.21-3.79,4.21
			h-3.62c0.27-4.62,3.05-7.29,7.53-7.29c4.39,0,6.99,2.52,6.99,6.25c0,2.76-1.63,5.16-4.15,7.59l-4.71,4.59h9.01v3.05h-15.32V317.07
			z"/>
		<path class="st3" d="M1407.03,317.07l8-8.45c2.01-2.13,3.23-4,3.23-6.02c0-1.99-1.13-3.23-3.17-3.23c-2.1,0-3.44,1.21-3.79,4.21
			h-3.62c0.27-4.62,3.05-7.29,7.53-7.29c4.39,0,6.99,2.52,6.99,6.25c0,2.76-1.63,5.16-4.15,7.59l-4.71,4.59h9.01v3.05h-15.32V317.07
			z"/>
	</g>
	<path class="st12" d="M1695.33,353.33H1539.3c-8.05,0-14.57-6.53-14.57-14.57v-62.59c0-8.05,6.53-14.57,14.57-14.57h156.03
		c8.05,0,14.57,6.53,14.57,14.57v62.59C1709.9,346.81,1703.38,353.33,1695.33,353.33z"/>
	<g>
		<path class="st3" d="M1565.91,296.6h5.27l5.57,14.46l5.45-14.46h5.22v21.19h-3.94v-16l-6.31,16h-1.27l-6.43-16v16h-3.56V296.6z"/>
		<path class="st3" d="M1590.71,313.49c0-3.62,3.5-4.92,7.94-4.92h1.93v-0.8c0-2.07-0.71-3.11-2.82-3.11
			c-1.87,0-2.79,0.89-2.96,2.43h-3.47c0.3-3.62,3.17-5.13,6.64-5.13s6.19,1.42,6.19,5.66v10.16h-3.53v-1.9
			c-1.01,1.33-2.37,2.19-4.74,2.19C1593.05,318.08,1590.71,316.72,1590.71,313.49z M1600.58,312.36v-1.54h-1.84
			c-2.73,0-4.47,0.62-4.47,2.52c0,1.3,0.71,2.16,2.49,2.16C1598.95,315.5,1600.58,314.35,1600.58,312.36z"/>
		<path class="st3" d="M1612.37,316.21l-6.13-13.93h3.88l4.12,9.99l3.79-9.99h3.5l-8.45,20.8h-3.53L1612.37,316.21z"/>
		<path class="st3" d="M1630.21,302.76l3.7-6.52l2.1,0.92l-2.55,6.87L1630.21,302.76z"/>
		<path class="st3" d="M1637.2,317.07l8-8.45c2.01-2.13,3.23-4,3.23-6.02c0-1.99-1.13-3.23-3.17-3.23c-2.1,0-3.44,1.21-3.79,4.21
			h-3.62c0.27-4.62,3.05-7.29,7.53-7.29c4.39,0,6.99,2.52,6.99,6.25c0,2.76-1.63,5.16-4.15,7.59l-4.71,4.59h9.01v3.05h-15.32V317.07
			z"/>
		<path class="st3" d="M1654.47,317.07l8-8.45c2.01-2.13,3.23-4,3.23-6.02c0-1.99-1.13-3.23-3.17-3.23c-2.1,0-3.44,1.21-3.79,4.21
			h-3.62c0.27-4.62,3.05-7.29,7.53-7.29c4.39,0,6.99,2.52,6.99,6.25c0,2.76-1.63,5.16-4.15,7.59l-4.71,4.59h9.01v3.05h-15.32V317.07
			z"/>
	</g>
	<path class="st13" d="M1939.15,353.33h-156.03c-8.05,0-14.57-6.53-14.57-14.57v-62.59c0-8.05,6.53-14.57,14.57-14.57h156.03
		c8.05,0,14.57,6.53,14.57,14.57v62.59C1953.72,346.81,1947.2,353.33,1939.15,353.33z"/>
	<g>
		<path class="st3" d="M1813.14,317.43v-3.08c0.74,0.3,1.48,0.53,2.73,0.53c1.93,0,3.17-1.01,3.17-3.62V296.6h3.97v14.76
			c0,4.59-2.64,6.7-6.55,6.7C1814.71,318.05,1813.82,317.78,1813.14,317.43z"/>
		<path class="st3" d="M1827.18,312.21v-9.93h3.59v9.51c0,2.34,0.98,3.41,3.05,3.41c1.93,0,3.62-1.24,3.62-3.7v-9.22h3.59v15.5
			h-3.59v-2.43c-0.77,1.51-2.4,2.73-4.92,2.73C1829.46,318.08,1827.18,316.33,1827.18,312.21z"/>
		<path class="st3" d="M1845.26,302.29h3.58v2.46c0.74-1.51,2.46-2.79,5.01-2.79c3.11,0,5.3,1.81,5.3,6.08v9.75h-3.59v-9.42
			c0-2.34-0.95-3.41-3.08-3.41c-2.02,0-3.65,1.25-3.65,3.7v9.13h-3.58V302.29z"/>
		<path class="st3" d="M1869.26,302.76l3.7-6.52l2.1,0.92l-2.55,6.87L1869.26,302.76z"/>
		<path class="st3" d="M1876.25,317.07l8-8.45c2.01-2.13,3.23-4,3.23-6.02c0-1.99-1.13-3.23-3.17-3.23c-2.1,0-3.44,1.21-3.79,4.21
			h-3.62c0.27-4.62,3.05-7.29,7.53-7.29c4.39,0,6.99,2.52,6.99,6.25c0,2.76-1.63,5.16-4.15,7.59l-4.71,4.59h9.01v3.05h-15.32V317.07
			z"/>
		<path class="st3" d="M1893.52,317.07l8-8.45c2.01-2.13,3.23-4,3.23-6.02c0-1.99-1.13-3.23-3.17-3.23c-2.1,0-3.44,1.21-3.79,4.21
			h-3.62c0.27-4.62,3.05-7.29,7.53-7.29c4.39,0,6.99,2.52,6.99,6.25c0,2.76-1.63,5.16-4.15,7.59l-4.71,4.59h9.01v3.05h-15.32V317.07
			z"/>
	</g>
	<g>
		<path class="st12" d="M383.59,486.72h4.76v25.42h-4.76V486.72z"/>
		<path class="st12" d="M392.8,503.15v-0.28c0-5.94,3.52-9.71,8.35-9.71c3.02,0,4.91,1.39,5.94,3.24v-11.45h4.3v27.2h-4.3v-3.13
			c-1,1.85-3.38,3.48-6.11,3.48C396.32,512.5,392.8,509.19,392.8,503.15z M407.24,502.93v-0.28c0-4.09-1.88-6.12-5.01-6.12
			c-3.16,0-5.01,2.2-5.01,6.22v0.28c0,4.09,2.06,6.04,4.83,6.04C405.03,509.08,407.24,507.09,407.24,502.93z"/>
		<path class="st12" d="M415.27,503.04v-0.28c0-5.76,3.95-9.6,9.24-9.6c4.62,0,8.78,2.74,8.78,9.39v1.25h-13.62
			c0.14,3.52,1.92,5.51,5.12,5.51c2.6,0,3.95-1.03,4.27-2.84h4.16c-0.6,3.91-3.77,6.04-8.53,6.04
			C419.22,512.5,415.27,508.91,415.27,503.04z M429.03,500.91c-0.21-3.2-1.85-4.62-4.52-4.62c-2.6,0-4.34,1.74-4.76,4.62H429.03z"/>
		<path class="st12" d="M435.97,506.99c0-4.34,4.2-5.9,9.53-5.9h2.31v-0.96c0-2.49-0.85-3.73-3.38-3.73c-2.24,0-3.34,1.07-3.56,2.92
			h-4.16c0.36-4.34,3.8-6.15,7.96-6.15s7.43,1.71,7.43,6.79v12.19h-4.23v-2.28c-1.21,1.6-2.84,2.63-5.69,2.63
			C438.77,512.5,435.97,510.86,435.97,506.99z M447.8,505.64v-1.85h-2.2c-3.27,0-5.37,0.75-5.37,3.02c0,1.56,0.85,2.6,2.99,2.6
			C445.85,509.4,447.8,508.02,447.8,505.64z"/>
		<path class="st12" d="M464.3,504.25h4.55c0.32,2.56,1.35,4.69,5.65,4.69c2.81,0,4.8-1.56,4.8-3.91s-1.17-3.24-5.3-3.91
			c-6.08-0.82-8.96-2.67-8.96-7.43c0-4.16,3.56-7.29,8.85-7.29c5.48,0,8.75,2.49,9.24,7.36h-4.34c-0.46-2.67-1.99-3.8-4.91-3.8
			c-2.88,0-4.37,1.39-4.37,3.34c0,2.06,0.85,3.09,5.26,3.73c5.97,0.82,9.07,2.52,9.07,7.61c0,4.41-3.73,7.86-9.35,7.86
			C467.57,512.5,464.66,509.05,464.3,504.25z"/>
		<path class="st12" d="M487.73,505.46v-11.91h4.3v11.41c0,2.81,1.17,4.09,3.66,4.09c2.31,0,4.34-1.49,4.34-4.44v-11.06h4.3v18.59
			h-4.3v-2.92c-0.92,1.81-2.88,3.27-5.9,3.27C490.47,512.5,487.73,510.4,487.73,505.46z"/>
		<path class="st12" d="M513.72,509.15v2.99h-4.3v-27.2h4.3v11.59c1.03-1.78,3.34-3.38,6.08-3.38c4.66,0,8.25,3.45,8.25,9.46v0.28
			c0,5.97-3.45,9.6-8.25,9.6C516.85,512.5,514.72,511.04,513.72,509.15z M523.64,502.97v-0.28c0-4.12-2.13-6.15-4.94-6.15
			c-2.99,0-5.12,2.03-5.12,6.15v0.28c0,4.16,2.03,6.12,5.15,6.12C521.9,509.08,523.64,506.95,523.64,502.97z"/>
		<path class="st12" d="M531.93,493.55h4.3v2.84c0.89-1.74,2.92-3.24,5.65-3.24c2.42,0,4.34,1.03,5.26,3.34
			c1.42-2.31,3.98-3.34,6.29-3.34c3.41,0,6.19,2.1,6.19,7.22v11.77h-4.3v-11.48c0-2.74-1.17-3.91-3.31-3.91
			c-2.13,0-4.09,1.42-4.09,4.27v11.13h-4.3v-11.48c0-2.74-1.21-3.91-3.31-3.91c-2.13,0-4.09,1.42-4.09,4.27v11.13h-4.3V493.55z"/>
		<path class="st12" d="M564.21,488.04c0-1.42,1.14-2.49,2.56-2.49c1.42,0,2.56,1.07,2.56,2.49c0,1.39-1.14,2.45-2.56,2.45
			C565.35,490.49,564.21,489.42,564.21,488.04z M564.67,493.55h4.3v18.59h-4.3V493.55z"/>
		<path class="st12" d="M572.78,506.35h4.05c0.21,1.88,1.17,2.99,3.7,2.99c2.31,0,3.34-0.82,3.34-2.38c0-1.53-1.24-2.1-3.98-2.56
			c-4.91-0.78-6.72-2.17-6.72-5.65c0-3.73,3.48-5.58,6.97-5.58c3.8,0,6.83,1.42,7.29,5.62h-3.98c-0.36-1.71-1.32-2.49-3.31-2.49
			c-1.85,0-2.95,0.89-2.95,2.2c0,1.35,0.89,1.88,3.84,2.38c4.37,0.68,6.97,1.74,6.97,5.69c0,3.77-2.67,5.94-7.43,5.94
			C575.77,512.5,572.96,510.29,572.78,506.35z"/>
		<path class="st12" d="M590.34,506.35h4.05c0.21,1.88,1.17,2.99,3.7,2.99c2.31,0,3.34-0.82,3.34-2.38c0-1.53-1.24-2.1-3.98-2.56
			c-4.91-0.78-6.72-2.17-6.72-5.65c0-3.73,3.48-5.58,6.97-5.58c3.8,0,6.83,1.42,7.29,5.62h-3.98c-0.36-1.71-1.32-2.49-3.31-2.49
			c-1.85,0-2.95,0.89-2.95,2.2c0,1.35,0.89,1.88,3.84,2.38c4.37,0.68,6.97,1.74,6.97,5.69c0,3.77-2.67,5.94-7.43,5.94
			C593.33,512.5,590.52,510.29,590.34,506.35z"/>
		<path class="st12" d="M608.97,488.04c0-1.42,1.14-2.49,2.56-2.49c1.42,0,2.56,1.07,2.56,2.49c0,1.39-1.14,2.45-2.56,2.45
			C610.11,490.49,608.97,489.42,608.97,488.04z M609.43,493.55h4.3v18.59h-4.3V493.55z"/>
		<path class="st12" d="M617.72,503.04v-0.28c0-5.76,4.09-9.6,9.56-9.6c5.44,0,9.53,3.8,9.53,9.49v0.28c0,5.79-4.09,9.56-9.56,9.56
			S617.72,508.69,617.72,503.04z M632.4,502.97v-0.25c0-3.84-1.92-6.19-5.12-6.19c-3.2,0-5.16,2.31-5.16,6.15v0.28
			c0,3.8,1.88,6.19,5.16,6.19C630.48,509.15,632.4,506.77,632.4,502.97z"/>
		<path class="st12" d="M640.69,493.55h4.3v2.95c0.89-1.81,2.95-3.34,6.01-3.34c3.73,0,6.36,2.17,6.36,7.29v11.7h-4.3v-11.31
			c0-2.81-1.14-4.09-3.7-4.09c-2.42,0-4.37,1.49-4.37,4.44v10.95h-4.3V493.55z"/>
	</g>
	<path id="Path_1004_00000048476223732407178000000009262488354838327960_" class="st14" d="M154.41,353.36l0,97.17l731.45,0
		l0-97.17"/>
	<path id="Path_1004_00000100356140800382605880000009232001373582413205_" class="st14" d="M1617.32,261.59v-97.17l-243.82,0v97.17
		"/>
	<line class="st14" x1="1129.68" y1="353.36" x2="1129.68" y2="450.53"/>
	<line class="st14" x1="1861.13" y1="353.36" x2="1861.13" y2="450.53"/>
	<g>
		<path class="st12" d="M1059.86,504.25h4.55c0.32,2.56,1.35,4.69,5.65,4.69c2.81,0,4.8-1.56,4.8-3.91s-1.17-3.24-5.3-3.91
			c-6.08-0.82-8.96-2.67-8.96-7.43c0-4.16,3.56-7.29,8.85-7.29c5.48,0,8.75,2.49,9.24,7.36h-4.34c-0.46-2.67-1.99-3.8-4.91-3.8
			c-2.88,0-4.37,1.39-4.37,3.34c0,2.06,0.85,3.09,5.26,3.73c5.97,0.82,9.07,2.52,9.07,7.61c0,4.41-3.73,7.86-9.35,7.86
			C1063.14,512.5,1060.22,509.05,1059.86,504.25z"/>
		<path class="st12" d="M1083.65,484.94h4.3v11.55c0.89-1.81,2.95-3.34,6.01-3.34c3.73,0,6.36,2.17,6.36,7.29v11.7h-4.3v-11.31
			c0-2.81-1.14-4.09-3.7-4.09c-2.42,0-4.37,1.49-4.37,4.44v10.95h-4.3V484.94z"/>
		<path class="st12" d="M1104.02,503.04v-0.28c0-5.76,4.09-9.6,9.56-9.6c5.44,0,9.53,3.8,9.53,9.49v0.28c0,5.79-4.09,9.56-9.56,9.56
			C1108.07,512.5,1104.02,508.69,1104.02,503.04z M1118.71,502.97v-0.25c0-3.84-1.92-6.19-5.12-6.19c-3.2,0-5.16,2.31-5.16,6.15
			v0.28c0,3.8,1.88,6.19,5.16,6.19C1116.79,509.15,1118.71,506.77,1118.71,502.97z"/>
		<path class="st12" d="M1126.99,493.55h4.3v3.48c1.17-2.35,2.92-3.73,6.04-3.77v4.02c-3.77,0.04-6.04,1.24-6.04,5.19v9.67h-4.3
			V493.55z"/>
		<path class="st12" d="M1141.99,506.95v-10.17h-2.49v-3.23h2.49v-4.09h4.3v4.09h4.09v3.23h-4.09v9.78c0,1.64,0.78,2.38,2.13,2.38
			c0.85,0,1.49-0.11,2.1-0.36V512c-0.68,0.25-1.6,0.46-2.92,0.46C1143.91,512.46,1141.99,510.47,1141.99,506.95z"/>
		<path class="st12" d="M1154.51,484.94h4.3v27.2h-4.3V484.94z"/>
		<path class="st12" d="M1163.68,488.04c0-1.42,1.14-2.49,2.56-2.49c1.42,0,2.56,1.07,2.56,2.49c0,1.39-1.14,2.45-2.56,2.45
			C1164.82,490.49,1163.68,489.42,1163.68,488.04z M1164.14,493.55h4.3v18.59h-4.3V493.55z"/>
		<path class="st12" d="M1172.25,506.35h4.05c0.21,1.88,1.17,2.99,3.7,2.99c2.31,0,3.34-0.82,3.34-2.38c0-1.53-1.24-2.1-3.98-2.56
			c-4.91-0.78-6.72-2.17-6.72-5.65c0-3.73,3.48-5.58,6.97-5.58c3.8,0,6.83,1.42,7.29,5.62h-3.98c-0.36-1.71-1.32-2.49-3.31-2.49
			c-1.85,0-2.95,0.89-2.95,2.2c0,1.35,0.89,1.88,3.84,2.38c4.37,0.68,6.97,1.74,6.97,5.69c0,3.77-2.67,5.94-7.43,5.94
			C1175.23,512.5,1172.43,510.29,1172.25,506.35z"/>
		<path class="st12" d="M1191.94,506.95v-10.17h-2.49v-3.23h2.49v-4.09h4.3v4.09h4.09v3.23h-4.09v9.78c0,1.64,0.78,2.38,2.13,2.38
			c0.85,0,1.49-0.11,2.1-0.36V512c-0.68,0.25-1.6,0.46-2.92,0.46C1193.86,512.46,1191.94,510.47,1191.94,506.95z"/>
	</g>
	<g>
		<path class="st12" d="M1277.16,65.81h4.55c0.32,2.56,1.35,4.69,5.65,4.69c2.81,0,4.8-1.56,4.8-3.91s-1.17-3.24-5.3-3.91
			c-6.08-0.82-8.96-2.67-8.96-7.43c0-4.16,3.56-7.29,8.85-7.29c5.48,0,8.75,2.49,9.24,7.36h-4.34c-0.46-2.67-1.99-3.8-4.91-3.8
			c-2.88,0-4.37,1.39-4.37,3.34c0,2.06,0.85,3.09,5.26,3.73c5.97,0.82,9.07,2.52,9.07,7.61c0,4.41-3.73,7.86-9.35,7.86
			C1280.43,74.05,1277.52,70.61,1277.16,65.81z"/>
		<path class="st12" d="M1299.7,64.6v-0.28c0-5.76,4.09-9.6,9.56-9.6c5.44,0,9.53,3.8,9.53,9.49v0.28c0,5.79-4.09,9.56-9.56,9.56
			C1303.76,74.05,1299.7,70.25,1299.7,64.6z M1314.39,64.53v-0.25c0-3.84-1.92-6.19-5.12-6.19c-3.2,0-5.16,2.31-5.16,6.15v0.28
			c0,3.8,1.88,6.19,5.16,6.19C1312.47,70.71,1314.39,68.33,1314.39,64.53z"/>
		<path class="st12" d="M1321.43,64.63v-0.28c0-5.9,4.2-9.63,9.39-9.63c4.12,0,8,1.85,8.5,6.97h-4.16
			c-0.36-2.49-1.99-3.52-4.27-3.52c-2.95,0-5.05,2.28-5.05,6.12v0.29c0,4.05,1.99,6.19,5.16,6.19c2.28,0,4.23-1.35,4.48-3.98h3.95
			c-0.32,4.27-3.56,7.29-8.6,7.29C1325.48,74.05,1321.43,70.57,1321.43,64.63z"/>
		<path class="st12" d="M1342.76,49.59c0-1.42,1.14-2.49,2.56-2.49c1.42,0,2.56,1.07,2.56,2.49c0,1.39-1.14,2.45-2.56,2.45
			C1343.9,52.05,1342.76,50.98,1342.76,49.59z M1343.22,55.1h4.3V73.7h-4.3V55.1z"/>
		<path class="st12" d="M1351.4,68.54c0-4.34,4.2-5.9,9.53-5.9h2.31v-0.96c0-2.49-0.85-3.73-3.38-3.73c-2.24,0-3.34,1.07-3.56,2.92
			h-4.16c0.36-4.34,3.8-6.15,7.96-6.15c4.16,0,7.43,1.71,7.43,6.79V73.7h-4.23v-2.28c-1.21,1.6-2.84,2.63-5.69,2.63
			C1354.21,74.05,1351.4,72.42,1351.4,68.54z M1363.24,67.19v-1.85h-2.2c-3.27,0-5.37,0.75-5.37,3.02c0,1.56,0.85,2.6,2.99,2.6
			C1361.28,70.96,1363.24,69.57,1363.24,67.19z"/>
		<path class="st12" d="M1372.59,46.5h4.3v27.2h-4.3V46.5z"/>
		<path class="st12" d="M1390.93,48.28h9.1c5.23,0,8.32,1.99,8.32,6.61v0.14c0,2.52-1.14,4.51-4.02,5.4
			c3.45,0.75,5.08,2.63,5.08,6.01v0.14c0,4.73-3.13,7.11-8.71,7.11h-9.78V48.28z M1399.47,58.98c3.13,0,4.34-1.14,4.34-3.73V55.1
			c0-2.42-1.39-3.45-4.41-3.45h-3.84v7.32H1399.47z M1400.14,70.32c3.16,0,4.62-1.42,4.62-4.05v-0.14c0-2.63-1.46-3.95-4.94-3.95
			h-4.27v8.14H1400.14z"/>
		<path class="st12" d="M1413.33,67.01V55.1h4.3v11.41c0,2.81,1.17,4.09,3.66,4.09c2.31,0,4.34-1.49,4.34-4.44V55.1h4.3V73.7h-4.3
			v-2.92c-0.92,1.81-2.88,3.27-5.9,3.27C1416.07,74.05,1413.33,71.96,1413.33,67.01z"/>
		<path class="st12" d="M1433.6,67.9h4.05c0.21,1.88,1.17,2.99,3.7,2.99c2.31,0,3.34-0.82,3.34-2.38c0-1.53-1.24-2.1-3.98-2.56
			c-4.91-0.78-6.72-2.17-6.72-5.65c0-3.73,3.48-5.58,6.97-5.58c3.8,0,6.83,1.42,7.29,5.62h-3.98c-0.36-1.71-1.32-2.49-3.31-2.49
			c-1.85,0-2.95,0.89-2.95,2.2c0,1.35,0.89,1.88,3.84,2.38c4.37,0.68,6.97,1.74,6.97,5.69c0,3.77-2.67,5.94-7.43,5.94
			C1436.59,74.05,1433.78,71.85,1433.6,67.9z"/>
		<path class="st12" d="M1452.23,49.59c0-1.42,1.14-2.49,2.56-2.49c1.42,0,2.56,1.07,2.56,2.49c0,1.39-1.14,2.45-2.56,2.45
			C1453.37,52.05,1452.23,50.98,1452.23,49.59z M1452.69,55.1h4.3V73.7h-4.3V55.1z"/>
		<path class="st12" d="M1462.22,55.1h4.3v2.95c0.89-1.81,2.95-3.34,6.01-3.34c3.73,0,6.36,2.17,6.36,7.29v11.7h-4.3V62.39
			c0-2.81-1.14-4.09-3.7-4.09c-2.42,0-4.37,1.49-4.37,4.44V73.7h-4.3V55.1z"/>
		<path class="st12" d="M1482.59,64.6v-0.28c0-5.76,3.95-9.6,9.24-9.6c4.62,0,8.78,2.74,8.78,9.39v1.25H1487
			c0.14,3.52,1.92,5.51,5.12,5.51c2.6,0,3.95-1.03,4.27-2.84h4.16c-0.6,3.91-3.77,6.04-8.53,6.04
			C1486.54,74.05,1482.59,70.46,1482.59,64.6z M1496.35,62.46c-0.21-3.2-1.85-4.62-4.51-4.62c-2.6,0-4.34,1.74-4.76,4.62H1496.35z"
			/>
		<path class="st12" d="M1503.21,67.9h4.05c0.21,1.88,1.17,2.99,3.7,2.99c2.31,0,3.34-0.82,3.34-2.38c0-1.53-1.24-2.1-3.98-2.56
			c-4.91-0.78-6.72-2.17-6.72-5.65c0-3.73,3.48-5.58,6.97-5.58c3.8,0,6.83,1.42,7.29,5.62h-3.98c-0.36-1.71-1.32-2.49-3.31-2.49
			c-1.85,0-2.95,0.89-2.95,2.2c0,1.35,0.89,1.88,3.84,2.38c4.37,0.68,6.97,1.74,6.97,5.69c0,3.77-2.67,5.94-7.43,5.94
			C1506.2,74.05,1503.39,71.85,1503.21,67.9z"/>
		<path class="st12" d="M1520.78,67.9h4.05c0.21,1.88,1.17,2.99,3.7,2.99c2.31,0,3.34-0.82,3.34-2.38c0-1.53-1.24-2.1-3.98-2.56
			c-4.91-0.78-6.72-2.17-6.72-5.65c0-3.73,3.48-5.58,6.97-5.58c3.8,0,6.83,1.42,7.29,5.62h-3.98c-0.36-1.71-1.32-2.49-3.31-2.49
			c-1.85,0-2.95,0.89-2.95,2.2c0,1.35,0.89,1.88,3.84,2.38c4.37,0.68,6.97,1.74,6.97,5.69c0,3.77-2.67,5.94-7.43,5.94
			C1523.76,74.05,1520.95,71.85,1520.78,67.9z"/>
		<path class="st12" d="M1548.58,48.28h6.33l6.68,17.35l6.54-17.35h6.26V73.7h-4.73V54.5l-7.57,19.2h-1.53l-7.71-19.2v19.2h-4.27
			V48.28z"/>
		<path class="st12" d="M1578.45,64.6v-0.28c0-5.76,4.09-9.6,9.56-9.6c5.44,0,9.53,3.8,9.53,9.49v0.28c0,5.79-4.09,9.56-9.56,9.56
			C1582.5,74.05,1578.45,70.25,1578.45,64.6z M1593.13,64.53v-0.25c0-3.84-1.92-6.19-5.12-6.19c-3.2,0-5.16,2.31-5.16,6.15v0.28
			c0,3.8,1.88,6.19,5.16,6.19C1591.21,70.71,1593.13,68.33,1593.13,64.53z"/>
		<path class="st12" d="M1600.2,64.7v-0.28c0-5.94,3.52-9.71,8.36-9.71c3.02,0,4.91,1.39,5.94,3.24V46.5h4.3v27.2h-4.3v-3.13
			c-1,1.85-3.38,3.48-6.12,3.48C1603.73,74.05,1600.2,70.75,1600.2,64.7z M1614.64,64.49v-0.28c0-4.09-1.88-6.12-5.01-6.12
			c-3.16,0-5.01,2.2-5.01,6.22v0.28c0,4.09,2.06,6.04,4.83,6.04C1612.44,70.64,1614.64,68.65,1614.64,64.49z"/>
		<path class="st12" d="M1622.68,64.6v-0.28c0-5.76,3.95-9.6,9.24-9.6c4.62,0,8.78,2.74,8.78,9.39v1.25h-13.62
			c0.14,3.52,1.92,5.51,5.12,5.51c2.6,0,3.95-1.03,4.27-2.84h4.16c-0.6,3.91-3.77,6.04-8.53,6.04
			C1626.62,74.05,1622.68,70.46,1622.68,64.6z M1636.43,62.46c-0.21-3.2-1.85-4.62-4.51-4.62c-2.6,0-4.34,1.74-4.76,4.62H1636.43z"
			/>
		<path class="st12" d="M1644.65,46.5h4.3v27.2h-4.3V46.5z"/>
		<path class="st12" d="M1654.28,46.5h4.3v27.2h-4.3V46.5z"/>
		<path class="st12" d="M1663.45,49.59c0-1.42,1.14-2.49,2.56-2.49c1.42,0,2.56,1.07,2.56,2.49c0,1.39-1.14,2.45-2.56,2.45
			C1664.59,52.05,1663.45,50.98,1663.45,49.59z M1663.92,55.1h4.3V73.7h-4.3V55.1z"/>
		<path class="st12" d="M1673.44,55.1h4.3v2.95c0.89-1.81,2.95-3.34,6.01-3.34c3.73,0,6.36,2.17,6.36,7.29v11.7h-4.3V62.39
			c0-2.81-1.14-4.09-3.7-4.09c-2.42,0-4.37,1.49-4.37,4.44V73.7h-4.3V55.1z"/>
		<path class="st12" d="M1694.03,74.34h4.34c0.36,1.85,1.78,2.92,4.59,2.92c3.34,0,5.19-1.67,5.19-5.01V69.5
			c-1.03,1.78-3.34,3.45-6.08,3.45c-4.66,0-8.25-3.48-8.25-8.85v-0.25c0-5.23,3.56-9.14,8.35-9.14c3.06,0,4.91,1.39,5.97,3.24V55.1
			h4.3v17.21c-0.04,5.48-3.7,8.21-9.46,8.21C1697.16,80.52,1694.53,77.89,1694.03,74.34z M1708.29,63.96v-0.25
			c0-3.52-1.92-5.62-5.01-5.62c-3.2,0-5.05,2.31-5.05,5.69v0.28c0,3.45,2.13,5.58,4.91,5.58
			C1706.12,69.65,1708.29,67.51,1708.29,63.96z"/>
		<path class="st12" d="M1427.01,118.75l4.27,5.19h-5.44l-2.13-2.6c-1.6,1.64-3.7,2.92-6.97,2.92c-4.94,0-8.35-2.81-8.35-7.25
			c0-3.73,2.31-5.9,5.72-7.54c-1.35-1.78-1.99-3.48-1.99-5.01c0-4.02,3.31-6.15,7-6.15c3.48,0,6.4,2.1,6.4,5.51
			c0,2.95-1.99,5.05-5.3,6.47l4.48,5.48l2.6-4.98h3.88L1427.01,118.75z M1421.49,118.61l-5.4-6.58c-1.88,0.96-3.24,2.13-3.24,4.51
			c0,2.56,1.6,4.16,4.37,4.16C1418.86,120.71,1420.32,120,1421.49,118.61z M1418.22,108.23c2.38-1.1,3.38-2.24,3.38-4.23
			c0-1.46-1-2.52-2.49-2.52c-1.56,0-2.81,1-2.81,3.02C1416.3,105.67,1417.02,106.77,1418.22,108.23z"/>
		<path class="st12" d="M1442.08,116.05h4.55c0.32,2.56,1.35,4.69,5.65,4.69c2.81,0,4.8-1.56,4.8-3.91s-1.17-3.24-5.3-3.91
			c-6.08-0.82-8.96-2.67-8.96-7.43c0-4.16,3.56-7.29,8.85-7.29c5.48,0,8.75,2.49,9.24,7.36h-4.34c-0.46-2.67-1.99-3.8-4.91-3.8
			c-2.88,0-4.37,1.39-4.37,3.34c0,2.06,0.85,3.09,5.26,3.73c5.97,0.82,9.07,2.52,9.07,7.61c0,4.41-3.73,7.86-9.35,7.86
			C1445.35,124.3,1442.44,120.85,1442.08,116.05z"/>
		<path class="st12" d="M1465.87,96.74h4.3v11.55c0.89-1.81,2.95-3.34,6.01-3.34c3.73,0,6.36,2.17,6.36,7.29v11.7h-4.3v-11.31
			c0-2.81-1.14-4.09-3.7-4.09c-2.42,0-4.37,1.49-4.37,4.44v10.95h-4.3V96.74z"/>
		<path class="st12" d="M1486.24,114.84v-0.28c0-5.76,4.09-9.6,9.56-9.6c5.44,0,9.53,3.8,9.53,9.49v0.28c0,5.79-4.09,9.56-9.56,9.56
			C1490.29,124.3,1486.24,120.49,1486.24,114.84z M1500.92,114.77v-0.25c0-3.84-1.92-6.19-5.12-6.19c-3.2,0-5.16,2.31-5.16,6.15
			v0.28c0,3.8,1.88,6.19,5.16,6.19C1499,120.96,1500.92,118.57,1500.92,114.77z"/>
		<path class="st12" d="M1509.21,105.35h4.3v3.48c1.17-2.35,2.92-3.73,6.04-3.77v4.02c-3.77,0.04-6.04,1.24-6.04,5.19v9.67h-4.3
			V105.35z"/>
		<path class="st12" d="M1524.21,118.75v-10.17h-2.49v-3.24h2.49v-4.09h4.3v4.09h4.09v3.24h-4.09v9.78c0,1.64,0.78,2.38,2.13,2.38
			c0.85,0,1.49-0.11,2.1-0.36v3.41c-0.68,0.25-1.6,0.46-2.92,0.46C1526.13,124.26,1524.21,122.27,1524.21,118.75z"/>
		<path class="st12" d="M1536.72,96.74h4.3v27.2h-4.3V96.74z"/>
		<path class="st12" d="M1545.9,99.84c0-1.42,1.14-2.49,2.56-2.49c1.42,0,2.56,1.07,2.56,2.49c0,1.39-1.14,2.45-2.56,2.45
			C1547.03,102.29,1545.9,101.22,1545.9,99.84z M1546.36,105.35h4.3v18.59h-4.3V105.35z"/>
		<path class="st12" d="M1554.47,118.15h4.05c0.21,1.88,1.17,2.99,3.7,2.99c2.31,0,3.34-0.82,3.34-2.38c0-1.53-1.24-2.1-3.98-2.56
			c-4.91-0.78-6.72-2.17-6.72-5.65c0-3.73,3.48-5.58,6.97-5.58c3.8,0,6.83,1.42,7.29,5.62h-3.98c-0.36-1.71-1.32-2.49-3.31-2.49
			c-1.85,0-2.95,0.89-2.95,2.2c0,1.35,0.89,1.88,3.84,2.38c4.37,0.68,6.97,1.74,6.97,5.69c0,3.77-2.67,5.94-7.43,5.94
			C1557.45,124.3,1554.64,122.09,1554.47,118.15z"/>
		<path class="st12" d="M1574.16,118.75v-10.17h-2.49v-3.24h2.49v-4.09h4.3v4.09h4.09v3.24h-4.09v9.78c0,1.64,0.78,2.38,2.13,2.38
			c0.85,0,1.49-0.11,2.1-0.36v3.41c-0.68,0.25-1.6,0.46-2.92,0.46C1576.08,124.26,1574.16,122.27,1574.16,118.75z"/>
	</g>
	<g>
		<path class="st12" d="M1770.28,486.72h8.18c5.69,0,9.42,2.52,9.42,7.86v0.14c0,5.37-3.88,7.75-9.31,7.75h-3.56v9.67h-4.73V486.72z
			 M1778.46,499.06c3.13,0,4.8-1.53,4.8-4.34v-0.14c0-3.02-1.78-4.2-4.8-4.2h-3.45v8.67H1778.46z"/>
		<path class="st12" d="M1791.22,488.04c0-1.42,1.14-2.49,2.56-2.49c1.42,0,2.56,1.07,2.56,2.49c0,1.39-1.14,2.45-2.56,2.45
			C1792.36,490.49,1791.22,489.42,1791.22,488.04z M1791.68,493.55h4.3v18.59h-4.3V493.55z"/>
		<path class="st12" d="M1801.92,506.95v-10.17h-2.49v-3.23h2.49v-4.09h4.3v4.09h4.09v3.23h-4.09v9.78c0,1.64,0.78,2.38,2.13,2.38
			c0.85,0,1.49-0.11,2.1-0.36V512c-0.68,0.25-1.6,0.46-2.92,0.46C1803.84,512.46,1801.92,510.47,1801.92,506.95z"/>
		<path class="st12" d="M1813.09,503.07v-0.28c0-5.9,4.2-9.63,9.39-9.63c4.12,0,8,1.85,8.5,6.97h-4.16
			c-0.36-2.49-1.99-3.52-4.27-3.52c-2.95,0-5.05,2.28-5.05,6.12V503c0,4.05,1.99,6.19,5.16,6.19c2.28,0,4.23-1.35,4.48-3.98h3.95
			c-0.32,4.27-3.56,7.29-8.6,7.29C1817.14,512.5,1813.09,509.01,1813.09,503.07z"/>
		<path class="st12" d="M1834.77,484.94h4.3v11.55c0.89-1.81,2.95-3.34,6.01-3.34c3.73,0,6.36,2.17,6.36,7.29v11.7h-4.3v-11.31
			c0-2.81-1.14-4.09-3.7-4.09c-2.42,0-4.37,1.49-4.37,4.44v10.95h-4.3V484.94z"/>
		<path class="st12" d="M1865.21,486.72h15.89v3.73h-11.16v6.97h8.96v3.55h-8.96v7.43h11.77v3.73h-16.5V486.72z"/>
		<path class="st12" d="M1883.16,493.55h4.62l4.87,14.19l4.8-14.19h4.23l-6.72,18.59h-5.01L1883.16,493.55z"/>
		<path class="st12" d="M1902.93,503.04v-0.28c0-5.76,3.95-9.6,9.24-9.6c4.62,0,8.78,2.74,8.78,9.39v1.25h-13.62
			c0.14,3.52,1.92,5.51,5.12,5.51c2.6,0,3.95-1.03,4.27-2.84h4.16c-0.6,3.91-3.77,6.04-8.53,6.04
			C1906.88,512.5,1902.93,508.91,1902.93,503.04z M1916.69,500.91c-0.21-3.2-1.85-4.62-4.51-4.62c-2.6,0-4.34,1.74-4.76,4.62
			H1916.69z"/>
		<path class="st12" d="M1924.8,493.55h4.3v2.95c0.89-1.81,2.95-3.34,6.01-3.34c3.73,0,6.36,2.17,6.36,7.29v11.7h-4.3v-11.31
			c0-2.81-1.14-4.09-3.7-4.09c-2.42,0-4.37,1.49-4.37,4.44v10.95h-4.3V493.55z"/>
		<path class="st12" d="M1947.13,506.95v-10.17h-2.49v-3.23h2.49v-4.09h4.3v4.09h4.09v3.23h-4.09v9.78c0,1.64,0.78,2.38,2.13,2.38
			c0.85,0,1.49-0.11,2.1-0.36V512c-0.68,0.25-1.6,0.46-2.92,0.46C1949.05,512.46,1947.13,510.47,1947.13,506.95z"/>
	</g>
</g>
<g>
	<g>
		<g>
			<path class="st10" d="M116.83,192.67c-0.8,0.65-1.71,1.12-2.71,1.42c-0.97,0.3-2.04,0.45-3.16,0.45c-1.15,0-2.21-0.17-3.16-0.52
				c-0.95-0.35-1.78-0.84-2.45-1.49c-0.67-0.65-1.21-1.42-1.58-2.35c-0.37-0.93-0.56-1.96-0.56-3.13c0-1.04,0.17-2.01,0.56-2.91
				c0.35-0.93,0.89-1.73,1.56-2.42c0.69-0.69,1.54-1.23,2.51-1.64c0.97-0.41,2.1-0.6,3.34-0.6c1.08,0,2.08,0.17,3.03,0.5
				c0.91,0.32,1.75,0.82,2.49,1.49l-1.82,2.33c-0.5-0.45-1.06-0.8-1.71-1.04c-0.63-0.22-1.34-0.32-2.1-0.32
				c-0.69,0-1.32,0.11-1.88,0.32c-0.58,0.22-1.06,0.52-1.47,0.91c-0.41,0.41-0.71,0.88-0.95,1.47c-0.22,0.56-0.33,1.19-0.33,1.88
				c0,0.71,0.11,1.36,0.35,1.92c0.24,0.56,0.54,1.04,0.97,1.42c0.39,0.41,0.89,0.71,1.45,0.91c0.56,0.22,1.17,0.32,1.84,0.32
				c1.04,0,1.93-0.19,2.69-0.56v-2.2l-2.56-0.15v-2.7h5.65V192.67z"/>
			<path class="st10" d="M123.05,191.29h7.84v2.96H119.8v-14.46h3.25V191.29z"/>
			<path class="st10" d="M142.72,180.05c0.95,0.39,1.78,0.93,2.43,1.6c0.69,0.67,1.21,1.47,1.58,2.37c0.37,0.93,0.56,1.92,0.56,3
				c0,1.04-0.19,2.01-0.56,2.91c-0.37,0.93-0.91,1.73-1.58,2.42c-0.67,0.67-1.49,1.21-2.43,1.6c-0.95,0.41-1.99,0.6-3.14,0.6
				c-1.13,0-2.17-0.19-3.1-0.56c-0.93-0.39-1.75-0.93-2.43-1.6c-0.69-0.67-1.23-1.47-1.6-2.39c-0.37-0.93-0.56-1.92-0.56-2.98
				c0-1.04,0.19-2.01,0.56-2.93c0.37-0.93,0.91-1.73,1.6-2.39c0.67-0.67,1.49-1.21,2.43-1.6c0.93-0.41,1.97-0.6,3.1-0.6
				C140.72,179.49,141.76,179.68,142.72,180.05z M137.69,182.74c-0.54,0.24-1.02,0.58-1.39,0.99c-0.39,0.41-0.69,0.91-0.89,1.47
				s-0.3,1.17-0.3,1.81c0,0.65,0.11,1.25,0.3,1.83c0.19,0.56,0.5,1.06,0.89,1.47c0.39,0.41,0.87,0.73,1.41,0.99
				c0.54,0.22,1.17,0.35,1.86,0.35c0.71,0,1.34-0.13,1.88-0.37c0.56-0.24,1.04-0.58,1.43-1.01c0.37-0.41,0.65-0.91,0.87-1.47
				c0.17-0.56,0.28-1.17,0.28-1.79c0-0.67-0.11-1.27-0.3-1.83c-0.19-0.58-0.5-1.08-0.89-1.49c-0.37-0.41-0.84-0.73-1.39-0.97
				c-0.56-0.24-1.19-0.35-1.88-0.35S138.25,182.51,137.69,182.74z"/>
			<path class="st10" d="M159.92,180.84c0.89,0.71,1.32,1.66,1.32,2.89c0,0.6-0.13,1.14-0.37,1.62c-0.26,0.47-0.61,0.82-1.04,1.06
				v0.19c0.72,0.24,1.28,0.65,1.69,1.25c0.43,0.58,0.65,1.27,0.65,2.07c0,0.58-0.11,1.14-0.3,1.68c-0.22,0.52-0.54,0.97-1,1.36
				c-0.43,0.39-1,0.69-1.67,0.93c-0.67,0.24-1.47,0.35-2.4,0.35h-7.02v-14.46h6.41C157.82,179.79,159.05,180.13,159.92,180.84z
				 M156.32,185.48c0.54,0,0.97-0.13,1.3-0.39c0.3-0.28,0.45-0.65,0.45-1.1c0-0.97-0.63-1.45-1.86-1.45h-3.21v2.93H156.32z
				 M156.84,191.48c1.43,0,2.14-0.56,2.14-1.7c0-0.54-0.19-0.97-0.56-1.23c-0.37-0.3-0.91-0.43-1.6-0.43h-3.81v3.37H156.84z"/>
			<path class="st10" d="M178.56,194.24h-3.6l-1.1-2.87h-6.22l-1.08,2.87h-3.53l5.96-14.48h3.57L178.56,194.24z M172.8,188.53
				l-1.93-5.5h-0.22l-1.95,5.5H172.8z"/>
			<path class="st10" d="M183.68,191.29h7.84v2.96h-11.09v-14.46h3.25V191.29z"/>
			<path class="st10" d="M208.51,182.68c-0.71-0.22-1.45-0.32-2.21-0.32c-0.95,0-1.62,0.13-2.04,0.37c-0.41,0.26-0.61,0.6-0.61,1.06
				c0,0.41,0.15,0.73,0.45,0.93c0.3,0.22,0.78,0.37,1.45,0.45l2.12,0.28c1.58,0.22,2.77,0.69,3.57,1.47
				c0.78,0.73,1.17,1.73,1.17,2.96c0,0.71-0.13,1.34-0.41,1.92c-0.28,0.58-0.67,1.08-1.19,1.47c-0.54,0.43-1.19,0.73-1.99,0.95
				c-0.78,0.24-1.67,0.35-2.69,0.35c-1.19,0-2.3-0.13-3.27-0.37c-0.97-0.24-1.95-0.67-2.88-1.29l1.36-2.65
				c0.8,0.5,1.62,0.86,2.43,1.08c0.8,0.22,1.67,0.32,2.56,0.32c0.95,0,1.67-0.15,2.14-0.43c0.45-0.28,0.69-0.67,0.69-1.17
				c0-0.41-0.15-0.76-0.48-0.99c-0.32-0.24-0.84-0.41-1.58-0.52l-2.23-0.28c-1.41-0.19-2.51-0.63-3.29-1.32
				c-0.78-0.69-1.17-1.68-1.17-3c0-0.71,0.13-1.36,0.43-1.9c0.26-0.56,0.67-1.04,1.17-1.4c0.5-0.37,1.13-0.67,1.82-0.84
				c0.74-0.22,1.52-0.3,2.38-0.3c1.17,0,2.25,0.15,3.23,0.45c0.97,0.3,1.84,0.76,2.58,1.38l-1.6,2.31
				C209.85,183.22,209.22,182.89,208.51,182.68z"/>
			<path class="st10" d="M224.86,180.05c0.95,0.39,1.78,0.93,2.43,1.6c0.69,0.67,1.21,1.47,1.58,2.37c0.37,0.93,0.56,1.92,0.56,3
				c0,1.04-0.19,2.01-0.56,2.91c-0.37,0.93-0.91,1.73-1.58,2.42c-0.67,0.67-1.49,1.21-2.43,1.6c-0.95,0.41-1.99,0.6-3.14,0.6
				c-1.13,0-2.17-0.19-3.1-0.56c-0.93-0.39-1.75-0.93-2.43-1.6c-0.69-0.67-1.23-1.47-1.6-2.39c-0.37-0.93-0.56-1.92-0.56-2.98
				c0-1.04,0.19-2.01,0.56-2.93c0.37-0.93,0.91-1.73,1.6-2.39c0.67-0.67,1.49-1.21,2.43-1.6c0.93-0.41,1.97-0.6,3.1-0.6
				C222.87,179.49,223.91,179.68,224.86,180.05z M219.83,182.74c-0.54,0.24-1.02,0.58-1.39,0.99c-0.39,0.41-0.69,0.91-0.89,1.47
				c-0.2,0.56-0.3,1.17-0.3,1.81c0,0.65,0.11,1.25,0.3,1.83c0.19,0.56,0.5,1.06,0.89,1.47c0.39,0.41,0.87,0.73,1.41,0.99
				c0.54,0.22,1.17,0.35,1.86,0.35c0.71,0,1.34-0.13,1.88-0.37c0.56-0.24,1.04-0.58,1.43-1.01c0.37-0.41,0.65-0.91,0.87-1.47
				c0.17-0.56,0.28-1.17,0.28-1.79c0-0.67-0.11-1.27-0.3-1.83c-0.2-0.58-0.5-1.08-0.89-1.49c-0.37-0.41-0.84-0.73-1.39-0.97
				c-0.56-0.24-1.19-0.35-1.88-0.35S220.4,182.51,219.83,182.74z"/>
			<path class="st10" d="M241.22,182.81c-0.65-0.26-1.39-0.37-2.19-0.37c-0.71,0-1.34,0.11-1.93,0.32
				c-0.56,0.24-1.04,0.54-1.45,0.95c-0.41,0.43-0.72,0.91-0.93,1.47c-0.22,0.56-0.32,1.17-0.32,1.83c0,0.69,0.11,1.32,0.32,1.88
				c0.24,0.56,0.54,1.04,0.95,1.42c0.41,0.41,0.89,0.71,1.45,0.95c0.56,0.22,1.19,0.32,1.86,0.32c0.82,0,1.58-0.15,2.32-0.41
				c0.69-0.3,1.34-0.69,1.91-1.23l1.84,2.27c-1.65,1.55-3.73,2.33-6.24,2.33c-1.13,0-2.17-0.17-3.1-0.52
				c-0.93-0.37-1.73-0.86-2.43-1.51c-0.65-0.67-1.19-1.45-1.56-2.37c-0.37-0.93-0.56-1.94-0.56-3.09c0-1.04,0.17-2.01,0.56-2.93
				c0.35-0.93,0.89-1.73,1.58-2.42c0.69-0.69,1.54-1.23,2.51-1.62c0.97-0.41,2.1-0.6,3.34-0.6c1.13,0,2.17,0.17,3.1,0.52
				c0.93,0.32,1.78,0.82,2.51,1.47l-1.8,2.35C242.48,183.37,241.89,183.02,241.22,182.81z"/>
			<path class="st10" d="M250.37,194.24h-3.27v-14.46h3.27V194.24z"/>
			<path class="st10" d="M267.73,194.24h-3.6l-1.1-2.87h-6.22l-1.08,2.87h-3.53l5.96-14.48h3.57L267.73,194.24z M261.97,188.53
				l-1.93-5.5h-0.22l-1.95,5.5H261.97z"/>
			<path class="st10" d="M272.85,191.29h7.84v2.96H269.6v-14.46h3.25V191.29z"/>
			<path class="st10" d="M113.99,202.2c0.89,0.71,1.32,1.66,1.32,2.89c0,0.6-0.13,1.14-0.37,1.62c-0.26,0.47-0.61,0.82-1.04,1.06
				v0.19c0.71,0.24,1.28,0.65,1.69,1.25c0.43,0.58,0.65,1.27,0.65,2.07c0,0.58-0.11,1.14-0.3,1.68c-0.22,0.52-0.54,0.97-1,1.36
				c-0.43,0.39-1,0.69-1.67,0.93c-0.67,0.24-1.47,0.35-2.4,0.35h-7.02v-14.46h6.41C111.89,201.14,113.13,201.49,113.99,202.2z
				 M110.4,206.84c0.54,0,0.97-0.13,1.3-0.39c0.3-0.28,0.46-0.65,0.46-1.1c0-0.97-0.63-1.45-1.86-1.45h-3.21v2.93H110.4z
				 M110.92,212.84c1.43,0,2.14-0.56,2.14-1.7c0-0.54-0.19-0.97-0.56-1.23c-0.37-0.3-0.91-0.43-1.6-0.43h-3.81v3.37H110.92z"/>
			<path class="st10" d="M121.75,209.19c0,1.17,0.28,2.09,0.84,2.78c0.54,0.67,1.36,1.01,2.45,1.01c1.1,0,1.93-0.32,2.47-0.97
				c0.54-0.63,0.82-1.55,0.82-2.78v-8.09h3.27v8.03c0,1.01-0.13,1.92-0.43,2.76c-0.26,0.82-0.69,1.53-1.26,2.11
				c-0.54,0.58-1.23,1.04-2.04,1.38c-0.82,0.3-1.78,0.47-2.84,0.47s-1.99-0.15-2.79-0.47c-0.82-0.3-1.52-0.73-2.08-1.34
				c-0.54-0.56-0.97-1.27-1.26-2.09c-0.28-0.82-0.43-1.75-0.43-2.76v-8.09h3.27V209.19z"/>
			<path class="st10" d="M142.32,204.03c-0.71-0.22-1.45-0.32-2.21-0.32c-0.95,0-1.62,0.13-2.04,0.37c-0.41,0.26-0.61,0.6-0.61,1.06
				c0,0.41,0.15,0.73,0.45,0.93c0.3,0.22,0.78,0.37,1.45,0.45l2.12,0.28c1.58,0.22,2.77,0.69,3.57,1.47
				c0.78,0.73,1.17,1.73,1.17,2.96c0,0.71-0.13,1.34-0.41,1.92s-0.67,1.08-1.19,1.47c-0.54,0.43-1.19,0.73-1.99,0.95
				c-0.78,0.24-1.67,0.35-2.69,0.35c-1.19,0-2.3-0.13-3.27-0.37c-0.97-0.24-1.95-0.67-2.88-1.29l1.36-2.65
				c0.8,0.5,1.62,0.86,2.43,1.08c0.8,0.22,1.67,0.32,2.56,0.32c0.95,0,1.67-0.15,2.14-0.43c0.46-0.28,0.69-0.67,0.69-1.17
				c0-0.41-0.15-0.76-0.48-0.99c-0.32-0.24-0.84-0.41-1.58-0.52l-2.23-0.28c-1.41-0.19-2.51-0.63-3.29-1.32
				c-0.78-0.69-1.17-1.68-1.17-3c0-0.71,0.13-1.36,0.43-1.9c0.26-0.56,0.67-1.04,1.17-1.4c0.5-0.37,1.13-0.67,1.82-0.84
				c0.74-0.22,1.52-0.3,2.38-0.3c1.17,0,2.25,0.15,3.23,0.45c0.97,0.3,1.84,0.76,2.58,1.38l-1.6,2.31
				C143.67,204.57,143.04,204.25,142.32,204.03z"/>
			<path class="st10" d="M152.04,215.6h-3.27v-14.46h3.27V215.6z"/>
			<path class="st10" d="M168.37,215.6h-3.25l-6.69-9.23v9.23h-3.16v-14.46h2.92l7.04,9.75v-9.75h3.14V215.6z"/>
			<path class="st10" d="M182.47,204.05h-7.65v2.72h6.82v2.83h-6.82v3.09h8.02v2.91h-11.22v-14.46h10.85V204.05z"/>
			<path class="st10" d="M193.12,204.03c-0.71-0.22-1.45-0.32-2.21-0.32c-0.95,0-1.62,0.13-2.04,0.37c-0.41,0.26-0.61,0.6-0.61,1.06
				c0,0.41,0.15,0.73,0.45,0.93c0.3,0.22,0.78,0.37,1.45,0.45l2.12,0.28c1.58,0.22,2.77,0.69,3.57,1.47
				c0.78,0.73,1.17,1.73,1.17,2.96c0,0.71-0.13,1.34-0.41,1.92c-0.28,0.58-0.67,1.08-1.19,1.47c-0.54,0.43-1.19,0.73-1.99,0.95
				c-0.78,0.24-1.67,0.35-2.69,0.35c-1.19,0-2.3-0.13-3.27-0.37c-0.97-0.24-1.95-0.67-2.88-1.29l1.36-2.65
				c0.8,0.5,1.62,0.86,2.43,1.08c0.8,0.22,1.67,0.32,2.56,0.32c0.95,0,1.67-0.15,2.14-0.43c0.45-0.28,0.69-0.67,0.69-1.17
				c0-0.41-0.15-0.76-0.48-0.99c-0.32-0.24-0.84-0.41-1.58-0.52l-2.23-0.28c-1.41-0.19-2.51-0.63-3.29-1.32
				c-0.78-0.69-1.17-1.68-1.17-3c0-0.71,0.13-1.36,0.43-1.9c0.26-0.56,0.67-1.04,1.17-1.4c0.5-0.37,1.13-0.67,1.82-0.84
				c0.74-0.22,1.52-0.3,2.38-0.3c1.17,0,2.25,0.15,3.23,0.45c0.97,0.3,1.84,0.76,2.58,1.38l-1.6,2.31
				C194.47,204.57,193.84,204.25,193.12,204.03z"/>
			<path class="st10" d="M207.06,204.03c-0.71-0.22-1.45-0.32-2.21-0.32c-0.95,0-1.62,0.13-2.04,0.37c-0.41,0.26-0.61,0.6-0.61,1.06
				c0,0.41,0.15,0.73,0.45,0.93c0.3,0.22,0.78,0.37,1.45,0.45l2.12,0.28c1.58,0.22,2.77,0.69,3.57,1.47
				c0.78,0.73,1.17,1.73,1.17,2.96c0,0.71-0.13,1.34-0.41,1.92c-0.28,0.58-0.67,1.08-1.19,1.47c-0.54,0.43-1.19,0.73-1.99,0.95
				c-0.78,0.24-1.67,0.35-2.69,0.35c-1.19,0-2.3-0.13-3.27-0.37c-0.97-0.24-1.95-0.67-2.88-1.29l1.36-2.65
				c0.8,0.5,1.62,0.86,2.43,1.08c0.8,0.22,1.67,0.32,2.56,0.32c0.95,0,1.67-0.15,2.14-0.43c0.45-0.28,0.69-0.67,0.69-1.17
				c0-0.41-0.15-0.76-0.48-0.99c-0.32-0.24-0.84-0.41-1.58-0.52l-2.23-0.28c-1.41-0.19-2.51-0.63-3.29-1.32
				c-0.78-0.69-1.17-1.68-1.17-3c0-0.71,0.13-1.36,0.43-1.9c0.26-0.56,0.67-1.04,1.17-1.4s1.13-0.67,1.82-0.84
				c0.74-0.22,1.52-0.3,2.38-0.3c1.17,0,2.25,0.15,3.23,0.45c0.97,0.3,1.84,0.76,2.58,1.38l-1.6,2.31
				C208.41,204.57,207.78,204.25,207.06,204.03z"/>
			<path class="st10" d="M228.14,204.03c-0.71-0.22-1.45-0.32-2.21-0.32c-0.95,0-1.62,0.13-2.04,0.37c-0.41,0.26-0.61,0.6-0.61,1.06
				c0,0.41,0.15,0.73,0.45,0.93c0.3,0.22,0.78,0.37,1.45,0.45l2.12,0.28c1.58,0.22,2.77,0.69,3.57,1.47
				c0.78,0.73,1.17,1.73,1.17,2.96c0,0.71-0.13,1.34-0.41,1.92c-0.28,0.58-0.67,1.08-1.19,1.47c-0.54,0.43-1.19,0.73-1.99,0.95
				c-0.78,0.24-1.67,0.35-2.69,0.35c-1.19,0-2.3-0.13-3.27-0.37c-0.98-0.24-1.95-0.67-2.88-1.29l1.36-2.65
				c0.8,0.5,1.62,0.86,2.43,1.08c0.8,0.22,1.67,0.32,2.56,0.32c0.95,0,1.67-0.15,2.14-0.43c0.45-0.28,0.69-0.67,0.69-1.17
				c0-0.41-0.15-0.76-0.48-0.99c-0.32-0.24-0.84-0.41-1.58-0.52l-2.23-0.28c-1.41-0.19-2.51-0.63-3.29-1.32
				c-0.78-0.69-1.17-1.68-1.17-3c0-0.71,0.13-1.36,0.43-1.9c0.26-0.56,0.67-1.04,1.17-1.4c0.5-0.37,1.13-0.67,1.82-0.84
				c0.74-0.22,1.52-0.3,2.38-0.3c1.17,0,2.25,0.15,3.23,0.45c0.97,0.3,1.84,0.76,2.58,1.38l-1.6,2.31
				C229.48,204.57,228.86,204.25,228.14,204.03z"/>
			<path class="st10" d="M237.61,209.19c0,1.17,0.28,2.09,0.84,2.78c0.54,0.67,1.36,1.01,2.45,1.01c1.1,0,1.93-0.32,2.47-0.97
				c0.54-0.63,0.82-1.55,0.82-2.78v-8.09h3.27v8.03c0,1.01-0.13,1.92-0.43,2.76c-0.26,0.82-0.69,1.53-1.26,2.11
				c-0.54,0.58-1.23,1.04-2.04,1.38c-0.82,0.3-1.78,0.47-2.84,0.47s-1.99-0.15-2.79-0.47c-0.82-0.3-1.52-0.73-2.08-1.34
				c-0.54-0.56-0.97-1.27-1.26-2.09c-0.28-0.82-0.43-1.75-0.43-2.76v-8.09h3.27V209.19z"/>
			<path class="st10" d="M258.3,207.7l4.03-6.56h3.49v14.46h-3.18v-9.54h-0.2l-3.36,5.5h-1.69l-3.36-5.5h-0.19v9.54h-3.16v-14.46
				h3.55L258.3,207.7z"/>
			<path class="st10" d="M276.71,207.7l4.03-6.56h3.49v14.46h-3.18v-9.54h-0.2l-3.36,5.5h-1.69l-3.36-5.5h-0.19v9.54h-3.16v-14.46
				h3.55L276.71,207.7z"/>
			<path class="st10" d="M290.77,215.6h-3.27v-14.46h3.27V215.6z"/>
			<path class="st10" d="M305.8,204.08h-4.96v11.52h-3.23v-11.52h-4.96v-2.93h13.15V204.08z"/>
		</g>
	</g>
	<g>
		<path class="st10" d="M83.59,154.98c0,0-44.47-5.02-63.88,14.89c-8.24,8.45-11.46,19.35-10.84,28.9
			c1.31,19.88,7.19,34.1,7.19,34.1s14.98,3.73,34.92,2.12c9.57-0.77,19.93-5.54,27.12-14.89C95.06,198.06,83.59,154.98,83.59,154.98
			z M68.37,175.09c-3.14,5.67-8.12,15.49-10.74,22.02c-2.52,6.28-2.9,13.84-2.81,19.6c0.03,1.88-4.72,3.17-6.24,3.26
			c-0.1,0.01-0.19,0.01-0.27,0.01c-1.3,0-1.62-0.63-1.66-1.03c-0.56-5.48-0.3-13.8,1.89-20.78c-0.78,0.3-1.55,0.47-2.34,0.47
			c-0.79,0-1.46-0.23-1.83-0.82c-1.23-1.96-2.34-3.8-3.41-5.58c-2.64-4.37-5.26-8.43-8.56-13.15c-0.28-0.4-0.33-0.87-0.11-1.36
			c0.67-1.52,3.56-3.08,5.79-3.31c1.56-0.16,2.21,0.41,2.52,0.9c4.04,6.42,6.96,11.3,9.98,17.68c3.47-7.95,7.58-16.01,7.58-16.01
			c0.73-1.5,2.6-2.68,5.57-3.51c0.04-0.01,3.55-0.97,4.55,0.23C68.41,173.89,68.75,174.39,68.37,175.09z"/>
	</g>
</g>
<g>
	<g>
		<g>
			<g>
				<g>
					<path class="st7" d="M1846.95,186.61h3.12c0.08,0.82,0.45,1.49,1.81,1.49c0.94,0,1.47-0.46,1.47-1.14c0-0.7-0.43-0.9-1.81-1.1
						c-3.23-0.38-4.32-1.34-4.32-3.64c0-2.06,1.69-3.57,4.43-3.57c2.75,0,4.3,1.15,4.51,3.57h-3.04c-0.11-0.82-0.58-1.23-1.47-1.23
						c-0.88,0-1.33,0.4-1.33,0.98c0,0.64,0.35,0.93,1.77,1.12c2.89,0.32,4.38,1.07,4.38,3.55c0,2.09-1.66,3.8-4.6,3.8
						C1848.67,190.44,1847.04,189.09,1846.95,186.61z"/>
					<path class="st7" d="M1857.42,184.6v-0.13c0-3.49,2.62-5.82,6.04-5.82c3.49,0,6.06,2.19,6.06,5.74v0.13
						c0,3.52-2.41,5.92-6.11,5.92C1859.72,190.44,1857.42,188.04,1857.42,184.6z M1866.1,184.57v-0.13c0-2.03-1.02-3.23-2.64-3.23
						c-1.61,0-2.62,1.17-2.62,3.25v0.13c0,2.08,1.06,3.28,2.64,3.28C1865.09,187.86,1866.1,186.61,1866.1,184.57z"/>
					<path class="st7" d="M1870.52,184.6v-0.13c0-3.52,2.49-5.84,5.84-5.84c2.97,0,5.04,1.37,5.31,4.4h-3.37
						c-0.13-1.17-0.77-1.81-1.92-1.81c-1.47,0-2.4,1.15-2.4,3.23v0.13c0,2.06,0.88,3.23,2.45,3.23c1.15,0,1.97-0.61,2.13-1.87h3.26
						c-0.22,2.96-2.37,4.49-5.32,4.49C1872.49,190.44,1870.52,188.1,1870.52,184.6z"/>
					<path class="st7" d="M1883.31,178.81h3.31v11.43h-3.31V178.81z"/>
					<path class="st7" d="M1891.63,178.81h4.24l3.63,11.43h-3.47l-0.61-2.13h-3.79l-0.61,2.13h-3.05L1891.63,178.81z
						 M1892.27,185.86h2.51l-1.25-4.4L1892.27,185.86z"/>
					<path class="st7" d="M1900.81,178.81h3.29v8.89h4.32v2.54h-7.61V178.81z"/>
				</g>
				<path class="st7" d="M1846.95,197.99h5.1c2.7,0,3.85,1.21,3.85,2.99v0.06c0,1.28-0.66,2.13-1.93,2.46
					c1.41,0.24,2.29,1.09,2.29,2.67v0.06c0,2.05-1.33,3.18-4.16,3.18h-5.15V197.99z M1851.39,202.53c1.02,0,1.41-0.31,1.41-1.03
					v-0.06c0-0.69-0.42-1-1.41-1h-1.25v2.09H1851.39z M1851.5,207.23c1.04,0,1.52-0.48,1.52-1.33v-0.06c0-0.86-0.46-1.31-1.61-1.31
					h-1.26v2.7H1851.5z"/>
				<path class="st7" d="M1857.72,204.79v-6.79h3.28v6.65c0,1.61,0.4,2.4,1.79,2.4c1.36,0,1.79-0.74,1.79-2.45v-6.6h3.31v6.75
					c0,3.33-1.95,4.88-5.1,4.88C1859.56,209.61,1857.72,207.98,1857.72,204.79z"/>
				<path class="st7" d="M1869.19,205.79h3.12c0.08,0.82,0.45,1.49,1.81,1.49c0.94,0,1.47-0.46,1.47-1.14c0-0.7-0.43-0.9-1.81-1.1
					c-3.23-0.38-4.32-1.34-4.32-3.65c0-2.06,1.69-3.57,4.43-3.57c2.75,0,4.3,1.15,4.51,3.57h-3.04c-0.11-0.82-0.58-1.23-1.47-1.23
					c-0.88,0-1.33,0.4-1.33,0.98c0,0.64,0.35,0.93,1.77,1.12c2.89,0.32,4.38,1.07,4.38,3.55c0,2.09-1.66,3.8-4.6,3.8
					C1870.92,209.61,1869.29,208.27,1869.19,205.79z"/>
				<path class="st7" d="M1880.33,197.99h3.31v11.43h-3.31V197.99z"/>
				<path class="st7" d="M1885.9,197.99h3.69l3.66,6.44v-6.44h2.86v11.43h-3.17l-4.17-7.18v7.18h-2.88V197.99z"/>
				<path class="st7" d="M1898.31,197.99h7.9v2.53h-4.64v1.97h3.69v2.33h-3.69v2.08h4.89v2.53h-8.15V197.99z"/>
				<path class="st7" d="M1907.44,205.79h3.12c0.08,0.82,0.45,1.49,1.81,1.49c0.94,0,1.47-0.46,1.47-1.14c0-0.7-0.43-0.9-1.81-1.1
					c-3.23-0.38-4.32-1.34-4.32-3.65c0-2.06,1.69-3.57,4.43-3.57c2.75,0,4.3,1.15,4.51,3.57h-3.04c-0.11-0.82-0.58-1.23-1.47-1.23
					c-0.88,0-1.33,0.4-1.33,0.98c0,0.64,0.35,0.93,1.77,1.12c2.89,0.32,4.38,1.07,4.38,3.55c0,2.09-1.66,3.8-4.6,3.8
					C1909.17,209.61,1907.54,208.27,1907.44,205.79z"/>
				<path class="st7" d="M1917.7,205.79h3.12c0.08,0.82,0.45,1.49,1.81,1.49c0.94,0,1.47-0.46,1.47-1.14c0-0.7-0.43-0.9-1.81-1.1
					c-3.23-0.38-4.32-1.34-4.32-3.65c0-2.06,1.69-3.57,4.43-3.57c2.75,0,4.3,1.15,4.51,3.57h-3.04c-0.11-0.82-0.58-1.23-1.47-1.23
					c-0.88,0-1.33,0.4-1.33,0.98c0,0.64,0.35,0.93,1.77,1.12c2.89,0.32,4.38,1.07,4.38,3.55c0,2.09-1.66,3.8-4.6,3.8
					C1919.43,209.61,1917.8,208.27,1917.7,205.79z"/>
				<path class="st7" d="M1847.32,217.17h2.97c3.77,0,5.69,2.43,5.69,5.61v0.14c0,3.17-1.82,5.68-5.72,5.68h-2.94V217.17z
					 M1850.23,227.87c3.25,0,4.83-2.05,4.83-4.96v-0.13c0-2.81-1.49-4.88-4.84-4.88h-2v9.96H1850.23z"/>
				<path class="st7" d="M1857.51,226.35c0-1.93,1.85-2.53,3.92-2.53h1.74v-0.75c0-1.57-0.64-2.24-2.11-2.24
					c-1.26,0-2.16,0.54-2.35,1.77h-0.83c0.19-1.76,1.63-2.49,3.21-2.49c1.74,0,2.93,0.83,2.93,2.96v5.53h-0.85v-1.28
					c-0.53,0.82-1.42,1.41-2.83,1.41C1858.69,228.73,1857.51,227.93,1857.51,226.35z M1863.17,225.9v-1.42h-1.71
					c-1.74,0-3.1,0.37-3.1,1.87c0,1.07,0.67,1.69,2.05,1.69C1861.94,228.04,1863.17,227.15,1863.17,225.9z"/>
				<path class="st7" d="M1868.73,227.88l-3.31-7.64h0.91l2.86,6.67l2.67-6.67h0.86l-4.64,11.27h-0.88L1868.73,227.88z"/>
			</g>
		</g>
	</g>
	<g>
		<path class="st8" d="M1837.23,161.97L1837.23,161.97c0.01-0.06,0.01-0.12,0.01-0.18c-0.01-0.01-0.02-0.02-0.03-0.03
			c-0.12-0.11-0.24-0.22-0.36-0.33l0,0c0-0.01,0-0.01-0.01-0.01c-0.17-0.01-0.33-0.03-0.5-0.04c-0.01,0-0.01,0-0.02,0l0.01,0
			c0-0.01,0-0.02,0-0.03c-0.01-0.11-0.02-0.21-0.03-0.32c-0.06,0-0.11-0.01-0.17-0.02c-0.09-0.01-0.18-0.01-0.27-0.02
			c-0.09-0.01-0.19-0.01-0.28-0.02c0-0.11,0-0.22-0.01-0.33c-0.5-0.25-1-0.51-1.5-0.76c-0.28,0.03-0.56,0.03-0.59-0.36
			c-1.28-0.66-2.57-1.27-3.95-1.69c-0.43,0.04-0.83-0.03-1.14-0.36l0.01-0.02c-0.25,0-0.5-0.01-0.75-0.01
			c-0.82,0-1.64,0.01-2.46,0.01c-0.11,0.01-0.22,0.02-0.32,0.03c-0.02,0.37-0.03,0.74-0.05,1.11l0.01-0.01
			c0.23,0.02,0.36,0.13,0.38,0.37c0.45,0.43,1,0.77,1.33,1.33v0c0.24,0.02,0.35,0.16,0.34,0.4c0.67,0.3,0.82,0.84,0.79,1.53
			c-0.13,3.22-0.03,6.44-0.32,9.66c-0.3,3.36-0.19,6.75-0.39,10.13c-0.34,5.65-0.41,11.32-0.64,16.98
			c-0.21,5.12-0.47,10.24-0.73,15.36c-0.08,1.68-0.14,3.36-0.26,5.04c-0.28,3.75-0.07,7.54-0.47,11.3c0.24,0,0.48,0.01,0.72,0.01
			c0.12-0.12,0.25-0.25,0.37-0.37v0c0.56-1.97,0.23-4.05,0.75-6.02c-0.08-3.6,0.36-7.18,0.41-10.78c0-0.19,0.02-0.38,0.16-0.52
			c0.29-4.83,0.25-9.68,0.7-14.51c0.26-2.79-0.06-5.6,0.37-8.4c0.33-2.14-0.06-4.34,0.36-6.52c0.27-1.36,0.08-2.81,0.1-4.22
			c0.3-0.19,0.34-0.49,0.34-0.82c0-0.81,0.01-1.61,0.02-2.42c0.37-3.41,0.69-6.84,1.37-10.2c0.19-0.95,0.26-2.04,1.06-2.8v0
			c0.42-0.84,1.01-0.03,1.51-0.16c0,0.03,0.01,0.06,0.01,0.1c0,0.02,0.01,0.05,0.01,0.07v0c0.94,0.02,1.82,0.54,2.79,0.37l0,0
			c0.26-0.26,0.6-0.34,0.95-0.37c0-0.06,0.01-0.12,0.01-0.18l0.02-0.02c0.06-0.06,0.11-0.12,0.17-0.18
			C1837.33,162.52,1837.23,162.24,1837.23,161.97"/>
		<path class="st9" d="M1933.82,157.08c-0.1-0.1-0.17-0.21-0.23-0.32c-0.13-0.24-0.18-0.5-0.16-0.79c0-0.01,0-0.01,0-0.02
			c-0.06-0.01-0.12-0.01-0.18,0c-0.38-0.84-0.85-1.62-1.51-2.28c-0.19-0.26-0.34-0.58-0.71-0.64c0.01-0.06,0.01-0.11,0-0.17
			c-0.06-0.01-0.11-0.02-0.16-0.04c-0.38-0.12-0.58-0.41-0.62-0.83c-0.04-0.02-0.07-0.04-0.11-0.06c-0.08-0.05-0.16-0.09-0.24-0.13
			c-0.01,0-0.01-0.01-0.02-0.01c0-0.06-0.01-0.11-0.01-0.17c0-0.06-0.01-0.12-0.01-0.18c-0.56-0.39-0.91-1.06-1.65-1.19
			c-0.05-0.22-0.17-0.35-0.42-0.31c-0.27-0.02-0.25-0.44-0.55-0.4c-0.35,0.03-0.35-0.52-0.73-0.44c-0.06-0.06-0.13-0.12-0.19-0.18
			c0.01-0.05,0-0.1-0.04-0.14c-0.09-0.52-0.65-0.45-0.93-0.74c-0.31-0.36-0.62-0.7-1.13-0.76l-0.01,0.01
			c-0.29-0.35-0.6-0.65-1.1-0.61c-0.66-0.58-1.39-1-2.28-1.11c-0.06-0.06-0.13-0.11-0.19-0.17c-0.08-0.51-0.56-0.52-0.89-0.71
			c-0.82-0.46-1.78-0.62-2.59-1.12c-0.03-0.02-0.07-0.04-0.1-0.06c-0.12-0.01-0.25-0.02-0.37-0.03c-0.02,0-0.05,0.01-0.07,0.01
			c-0.11,0.01-0.21,0.02-0.32,0.04c-0.46-0.06-0.81-0.44-1.3-0.4c-0.06,0-0.12,0-0.18,0c-0.19,0-0.37-0.01-0.56-0.01h0
			c0-0.04-0.01-0.08-0.01-0.12c0-0.02,0-0.04-0.01-0.05c0-0.05-0.01-0.11-0.02-0.16l-0.74-0.02c-0.37-0.13-0.68-0.46-1.12-0.39
			l-0.31,0c-0.32,0-0.65-0.01-0.97-0.01c0-0.03-0.01-0.07-0.01-0.1c0-0.02-0.01-0.04-0.01-0.06c-0.01-0.06-0.02-0.12-0.03-0.19
			c-1.03,0.1-1.96-0.6-3.01-0.38c-1.1-0.22-2.2-0.52-3.34-0.39c-1.2-0.31-2.42-0.36-3.65-0.37c-0.38,0-0.77,0.05-0.75-0.52
			c0.07-0.14,0.15-0.27,0.22-0.4c0.39-0.13,0.63-0.4,0.73-0.79v0c0.37-0.28,0.5-0.73,0.76-1.09c0.24,0,0.37-0.13,0.39-0.36
			c0-0.03-0.01-0.06-0.01-0.09c0,0,0,0,0-0.01c-0.01-0.04-0.01-0.09-0.02-0.13c0.03-0.23,0.16-0.34,0.39-0.36
			c0.02-0.31,0.11-0.59,0.37-0.79c0.07-0.02,0.12-0.04,0.17-0.07c0.06-0.18,0.13-0.37,0.24-0.53c0-0.03,0-0.05,0-0.08l-0.01-0.01
			c0.03,0,0.06-0.01,0.08-0.01c0.18-0.04,0.26-0.18,0.29-0.37c0.29,0.02,0.34-0.27,0.53-0.39c0.01-0.04,0.02-0.08,0.04-0.12
			c0.09-0.31,0.24-0.6,0.43-0.85c0.04-0.05,0.08-0.11,0.13-0.16c0,0,0-0.01,0-0.01l0,0c0.1-0.41,0.43-0.74,0.54-1.15
			c0.03-0.1,0.05-0.21,0.04-0.33c0.38-0.36,0.46-0.9,0.75-1.32c-0.05-0.3,0.01-0.53,0.36-0.58c0.11-0.54,0.37-0.99,0.65-1.44
			c0.09-0.15,0.19-0.31,0.29-0.46c0.14-0.36,0.28-0.73,0.42-1.09c0.01-0.04,0.03-0.08,0.04-0.13c0.11-0.33,0.21-0.66,0.32-0.98
			c0.11-0.03,0.19-0.07,0.25-0.13c0.03-0.14,0.07-0.27,0.13-0.4c0-0.14-0.02-0.29,0.01-0.42c0.44-0.26,0.32-0.71,0.38-1.1v0
			c0.09-0.01,0.16-0.03,0.21-0.06c0.16-0.11,0.13-0.35,0.18-0.54c-0.01-0.02-0.01-0.04-0.02-0.05c0-0.01-0.01-0.02-0.01-0.03
			c-0.01-0.04-0.03-0.08-0.04-0.12c0.04-0.21,0.14-0.37,0.38-0.41c0.01-0.11,0.03-0.22,0.04-0.33c-0.22-0.63,0.5-1.06,0.37-1.68
			c0.06-0.01,0.12-0.02,0.18-0.04c0.01,0,0.03-0.01,0.05-0.01c0.04-0.01,0.07-0.01,0.11-0.02c0.02-0.22,0.03-0.44,0.04-0.67
			c0-0.01,0-0.02,0-0.03c0.02-0.02,0.03-0.05,0.05-0.07c0.01-0.01,0.01-0.02,0.02-0.02c0.1-0.16,0.2-0.31,0.31-0.47
			c-0.01-0.06-0.01-0.13-0.02-0.19l-0.01-0.15c0-0.02,0-0.05-0.01-0.07l0,0c0.35-1.59,0.75-3.17,1.33-4.7
			c-0.06-1,0.33-1.94,0.46-2.92c0.24-1.89,0.47-3.74-0.05-5.61c-0.07-0.26-0.03-0.56-0.03-0.83c-0.52-0.46-0.59-1.16-0.93-1.71
			c-0.57-0.36-0.85-1.05-1.48-1.34c-0.04-0.05-0.09-0.09-0.13-0.14c-0.27-0.28-0.57-0.5-1.01-0.43c-0.02,0.07-0.02,0.12-0.01,0.18v0
			h0l0,0l0,0h0c-0.01-0.05-0.01-0.11,0.01-0.18c-0.09-0.08-0.17-0.16-0.26-0.24c-0.11-0.1-0.21-0.19-0.32-0.29l-0.5-0.05
			c-0.14-0.39-0.48-0.32-0.78-0.32c-0.97-0.02-1.94-0.03-2.92-0.05c-0.04,0-0.08,0-0.12,0c0.02,0.02,0.04,0.05,0.06,0.07
			c0,0-0.01,0.01-0.01,0.01l0.01-0.01c-0.02-0.02-0.04-0.05-0.06-0.07h0c-0.12,0-0.25,0.01-0.37,0.01
			c-0.06,0.01-0.12,0.02-0.18,0.03c-0.35,0.04-0.7,0.05-0.96,0.34c-1.21,0.06-2.32,0.54-3.49,0.77c-0.02,0-0.05,0.01-0.08,0.02
			c-0.01,0.05-0.02,0.11-0.02,0.16c-0.44-0.06-0.81,0.1-1.14,0.38h0c-0.11,0.01-0.23,0.02-0.34,0.03c-0.38-0.06-0.69,0.09-0.95,0.36
			l0,0c-0.49,0.12-0.91,0.52-1.47,0.41c-0.02,0.1-0.05,0.17-0.09,0.22c-0.09,0.12-0.23,0.14-0.38,0.14c-0.1,0-0.21-0.01-0.31,0.01
			c-0.47,0.44-1.08,0.59-1.68,0.75l0,0c-0.05,0.09-0.12,0.16-0.2,0.22c-0.25,0.19-0.6,0.22-0.84,0.42
			c-0.04,0.03-0.08,0.07-0.11,0.11c-0.02,0-0.05,0-0.07,0h-0.09c-0.05,0-0.1,0-0.15,0c-0.09,0-0.17,0-0.26,0l0,0
			c-0.42,0.44-1.14,0.39-1.5,0.93c-0.58,0.17-1.03,0.66-1.64,0.75c-0.08,0.01-0.16,0.02-0.24,0.02c-0.02,0.36-0.3,0.34-0.55,0.37
			c-0.06,0.1-0.12,0.18-0.2,0.25c-0.07,0.06-0.14,0.1-0.24,0.11c-0.05,0.01-0.1,0.01-0.15-0.01c-0.05,0.03-0.1,0.04-0.16,0.03
			c-0.01,0.07-0.04,0.12-0.07,0.17c-0.09,0.14-0.23,0.2-0.4,0.2c-0.04,0-0.08,0-0.13-0.01l0.01,0.03c-0.02,0.04-0.04,0.07-0.07,0.11
			c-0.09,0.13-0.21,0.23-0.37,0.25c-0.04,0-0.08,0-0.13,0c-0.25,0.12-0.51,0.25-0.76,0.37c-0.07,0.11-0.16,0.19-0.25,0.26
			c-0.33,0.26-0.77,0.37-1.08,0.67c-0.07,0-0.15,0-0.22,0h-0.01c-0.11,0-0.22,0-0.33,0c-0.07,0.12-0.14,0.24-0.22,0.35l-1.5,0.77
			c-0.04,0.1-0.09,0.18-0.16,0.24c-0.1,0.1-0.24,0.15-0.39,0.16c-0.06,0-0.11,0-0.17,0l0,0c-0.02,0.05-0.05,0.1-0.08,0.14
			c-0.09,0.13-0.21,0.21-0.37,0.23c-0.04,0-0.08,0-0.12,0l0,0c-0.03,0.04-0.06,0.08-0.09,0.12c-0.03,0.04-0.06,0.08-0.09,0.12
			c-0.19,0.11-0.38,0.21-0.57,0.32c-0.06,0-0.12,0-0.18-0.01c-0.07,0-0.13,0-0.2-0.01c-0.12,0.07-0.24,0.14-0.36,0.21
			c0,0.04,0,0.07,0,0.11c0,0.02,0,0.05,0,0.07v0.02c-0.3,0.37-0.74,0.52-1.14,0.74c-0.04,0-0.08,0-0.12,0h0
			c-0.09,0-0.18,0-0.27-0.01c-0.07,0.12-0.14,0.24-0.21,0.36c-0.06,0.01-0.11,0.01-0.17,0.02c-0.01,0.06-0.01,0.11-0.02,0.17
			c0,0.01,0,0.03-0.01,0.05c0,0.04-0.01,0.09-0.01,0.13c-0.05,0.01-0.1,0.02-0.15,0.04c-0.05,0-0.09,0-0.14-0.01
			c-0.04,0-0.07,0-0.11,0c-0.05,0-0.09-0.01-0.14-0.01c-0.33,0.17-0.66,0.33-0.77,0.73l0,0c-0.8,0.07-1.28,0.69-1.88,1.12
			c-0.26,0.02-0.47,0.12-0.68,0.26c-0.94,0.63-1.91,1.24-2.86,1.85c-0.01,0.09-0.04,0.15-0.07,0.2c-0.09,0.12-0.23,0.15-0.4,0.16
			c-0.04,0-0.07,0-0.11,0c0,0.06,0.01,0.13,0.01,0.19l0,0c-0.77,0.54-1.63,0.96-2.28,1.68c-0.18,0.1-0.37,0.21-0.55,0.31l0,0h0
			c-0.19-0.04-0.17,0.12-0.22,0.22c-0.28,0-0.53,0.05-0.58,0.39c-0.05,0-0.1,0.01-0.14,0.05c-0.99,0.63-1.99,1.25-2.98,1.88
			c-0.07,0.1-0.15,0.19-0.23,0.28c-0.52,0.51-1.31,0.72-1.7,1.39c-0.43,0.26-0.86,0.51-1.3,0.77c-0.06,0.06-0.12,0.11-0.18,0.17
			c-0.13,0.13-0.27,0.25-0.4,0.38h0c-0.14,0.05-0.28,0.09-0.42,0.14c-0.1,0.03-0.2,0.07-0.3,0.1c-0.05,0.06-0.1,0.12-0.15,0.19
			c-0.03,0.06-0.06,0.11-0.1,0.16c-0.23,0.29-0.63,0.4-0.89,0.66c-0.08,0.08-0.15,0.17-0.19,0.28c-0.25,0.13-0.49,0.26-0.74,0.39
			c-0.07,0.12-0.13,0.25-0.2,0.37h-0.18h-0.02c-0.06,0-0.12,0-0.18,0c-0.33,0.42-0.98,0.52-1.16,1.11c-0.34-0.04-0.4,0.4-0.71,0.4
			c-0.01,0.1-0.05,0.17-0.09,0.24c-0.17,0.23-0.53,0.26-0.7,0.5c-0.04,0-0.09,0-0.13,0h-0.07c-0.06,0-0.11,0-0.17,0
			c-0.34,0.03-0.43,0.32-0.59,0.54c-0.22,0.04-0.34,0.17-0.36,0.39c-0.11,0.04-0.28,0.01-0.25,0.21h0c-0.43,0.31-0.87,0.6-1.29,0.92
			c-1.19,0.92-2.45,1.77-3.53,2.83c-0.25,0-0.49,0-0.74,0c-0.07,0-0.15,0.01-0.22,0.01c-0.09,0.01-0.18,0.01-0.27,0.02
			c-0.03,0-0.05,0-0.08,0c-0.35-0.02-0.7-0.04-1.06-0.06c-0.01,0-0.02,0-0.03,0c-0.02-0.25-0.21-0.31-0.41-0.37
			c-0.14,0-0.31,0.03-0.33-0.17c-0.02-0.21,0.17-0.28,0.31-0.37c0-0.06,0.01-0.11,0.03-0.17c0.05-0.13,0.1-0.26,0.15-0.39
			c0.23-0.6,0.45-1.21,0.68-1.81c0.03-0.09,0.06-0.17,0.1-0.26c0.05-0.13,0.1-0.26,0.15-0.39c0.05-0.13,0.1-0.27,0.15-0.4l0.07-0.18
			c0.04-0.1,0.09-0.2,0.13-0.3c0.07-0.16,0.14-0.32,0.21-0.48c0.01-0.04,0.03-0.08,0.05-0.12c0.1-0.57,0.53-1.06,0.4-1.69
			c0.56-0.23,0.28-0.74,0.37-1.12c0.46-0.09,0.29-0.49,0.38-0.76c0-0.05,0-0.09,0-0.13c0-0.13,0-0.27,0-0.4c0-0.07,0-0.15,0-0.22
			c0.04-0.02,0.08-0.05,0.12-0.07c0.08-0.05,0.16-0.09,0.24-0.14c0.02-0.35,0.03-0.7,0.05-1.06c0.48-0.12,0.34-0.5,0.33-0.82
			c0.34-1.04,0.6-2.09,0.79-3.17c0.59-1.12,0.64-2.38,0.9-3.58c0.22-0.99,0.34-2.01,0.5-3.01c0.27-1.7,0.71-3.38,0.64-5.12
			c0.01-0.3,0.02-0.61,0.03-0.91c0.23-0.28,0.27-0.63,0.36-0.97c0-0.01,0-0.02-0.01-0.04c-0.02-0.12-0.04-0.25-0.06-0.37
			c0-0.07,0.01-0.14,0.01-0.21c-0.02-0.5,0.01-1.01,0.06-1.51c0.06-2.24,0.04-4.47-0.03-6.71c0-0.06,0-0.12,0.01-0.18
			c0.01-0.45,0.02-0.89,0.03-1.34c0,0,0-0.01,0-0.01c-0.03-0.28-0.01-0.57-0.05-0.85c-0.04-0.24-0.11-0.46-0.31-0.66l-0.04-2.35
			c0-0.02,0-0.04,0-0.06l0,0c-0.1-0.12-0.18-0.25-0.23-0.38c-0.24-0.59-0.05-1.25-0.15-1.86c0.01-0.04,0.03-0.09,0.04-0.13
			c0.01-0.03,0.02-0.06,0.03-0.1c0.01-0.2,0.01-0.41,0-0.61c-0.06-1.33-0.55-2.63-0.45-3.98c-0.02,0-0.04,0.01-0.06,0.01h0
			c0.02,0,0.04-0.01,0.06-0.01c0-0.03,0-0.06,0.01-0.09v-0.01c0,0,0,0,0,0c0,0,0,0,0,0s0,0,0,0c-0.33-0.07-0.31-0.34-0.32-0.59
			c-0.09-1.5-0.51-2.93-0.94-4.35c0.02-0.36-0.04-0.69-0.36-0.92c-0.02,0.06-0.04,0.13-0.06,0.2c0.02-0.07,0.04-0.13,0.06-0.2
			c0.04-0.49-0.36-0.84-0.42-1.3c0-0.32,0.1-0.68-0.35-0.8c-0.01-0.23-0.02-0.46-0.03-0.7c0.03-0.28,0.02-0.54-0.34-0.6
			c-0.27-0.49-0.27-1.13-0.78-1.49c0.04-0.36-0.35-0.54-0.39-0.86c0-0.02,0-0.05,0-0.07c-0.18-0.19-0.36-0.38-0.54-0.58
			c-0.07-0.17-0.15-0.34-0.22-0.51c-0.04-0.02-0.07-0.05-0.11-0.07c-0.4-0.24-0.79-0.48-1.19-0.73c-0.06-0.46-0.45-0.35-0.73-0.42
			c-0.04,0.01-0.09,0.03-0.13,0.04c-0.01,0-0.02,0.01-0.03,0.01c-0.02,0.01-0.04,0.01-0.07,0.02l-0.54-0.06
			c-0.36,0-0.72,0.01-1.09,0.01c-0.08,0-0.17,0-0.25,0c-0.72,0.02-1.23,0.55-1.87,0.77c-0.04,0.05-0.08,0.1-0.11,0.15
			c-0.1,0.13-0.2,0.27-0.29,0.4c-0.34,0.06-0.57,0.27-0.73,0.57l0,0v0c-0.25,0.13-0.54,0.22-0.57,0.56
			c-0.21-0.03-0.31,0.16-0.45,0.28c-0.08,0.07-0.16,0.11-0.29,0.09c-0.31,0.67-1.05,1-1.32,1.7c-0.32,0.14-0.42,0.45-0.57,0.72
			c-0.55,0.56-1.05,1.15-1.31,1.91c-0.26,0-0.34,0.19-0.43,0.39c-0.01,0.06-0.02,0.11-0.04,0.15c-0.07,0.18-0.2,0.31-0.32,0.44
			c-0.05,0.05-0.1,0.1-0.15,0.16v0c-0.04,0.03-0.08,0.04-0.13,0.05c-0.01,0-0.02,0-0.04,0l0,0.01c0.01,0.05,0,0.09-0.02,0.13
			c0.01,0.73-0.7,1.15-0.78,1.84c-0.04,0.01-0.09,0.01-0.13,0.02l-0.02,0c-0.07,0.01-0.13,0.02-0.2,0.03
			c-0.52,1.02-1.05,2.04-1.57,3.06l0,0v0c-0.06,0.02-0.11,0.07-0.14,0.12c0,0.06-0.01,0.12-0.01,0.18
			c-0.01,0.24-0.02,0.48-0.03,0.73c-0.05,0-0.09,0.02-0.13,0.04c0,0-0.01,0-0.01,0.01c-0.32,0.15-0.51,0.39-0.58,0.73
			c-0.2,0.51-0.37,1.05-0.68,1.51c-0.08,0.12-0.17,0.25-0.27,0.36c-0.28,0.56-0.73,1.04-0.72,1.72c-0.23,0.18-0.35,0.39-0.4,0.7
			c-0.06,0.4-0.25,0.75-0.73,0.8c-0.01-0.55-0.02-1.11-0.03-1.66c-0.08-0.02-0.15-0.03-0.23-0.05c-0.04-0.01-0.07-0.02-0.11-0.02
			c-0.01-0.23-0.03-0.45-0.04-0.68c0-0.01,0-0.02,0-0.02c0.01-0.19,0.02-0.37,0.03-0.56l0.01-0.2c-0.01-0.12-0.03-0.23-0.05-0.34
			c-0.08-0.03-0.14-0.07-0.19-0.11c-0.2-0.17-0.16-0.41-0.14-0.65c0.01-0.07,0.02-0.15,0.01-0.22c-0.02-0.3-0.04-0.61-0.06-0.91
			c-0.1-0.06-0.17-0.13-0.22-0.2c-0.12-0.17-0.14-0.36-0.13-0.58c0.01-0.07,0.01-0.14,0.02-0.2c-0.01-0.36-0.03-0.72-0.04-1.07
			c-0.1-0.11-0.18-0.23-0.23-0.35c-0.12-0.26-0.15-0.54-0.15-0.83c0-0.06,0-0.11,0.01-0.17c-0.03-0.05-0.03-0.1-0.01-0.16
			c-0.1-0.19-0.17-0.39-0.24-0.6c-0.27-0.81-0.36-1.67-0.66-2.47c0.05-0.43-0.09-0.8-0.37-1.12c-0.25-1.29-0.65-2.54-1.15-3.75
			c0.04-0.58-0.25-1.06-0.47-1.56c-0.04-0.09-0.07-0.19-0.11-0.28v0c-0.2-0.54-0.31-1.13-0.73-1.57c0-0.12,0-0.25-0.01-0.37l0,0
			c0,0,0,0,0,0l-0.01,0c-0.53-0.4-0.52-1.19-1.1-1.56c0.04-0.34-0.12-0.55-0.4-0.71c-0.03-0.29,0.09-0.64-0.34-0.75
			c-0.05-0.25,0.01-0.57-0.4-0.58c0.1-0.42-0.42-0.29-0.49-0.55c-0.09-0.02-0.15-0.09-0.2-0.16c-0.12-0.18-0.17-0.42-0.45-0.42h0
			c0-0.05-0.01-0.11-0.04-0.16c-0.01-0.02-0.02-0.03-0.02-0.04c-0.16-0.32-0.41-0.53-0.71-0.71c-0.01-0.02-0.02-0.03-0.02-0.05
			c-0.05-0.11-0.1-0.22-0.15-0.34c-0.5-0.25-0.83-0.85-1.51-0.73c-0.11-0.02-0.22-0.04-0.33-0.06c-0.01-0.11-0.02-0.23-0.04-0.34
			h-0.56h-1.88c-0.01,0.12-0.03,0.24-0.04,0.36c-0.24,0.03-0.47,0.06-0.71,0.09c-0.34-0.1-0.45,0.33-0.75,0.31
			c-0.29-0.03-0.55-0.01-0.57,0.37v0c-0.56,0.04-0.85,0.55-1.31,0.75l-0.07,0.08c-0.35,0.41-0.71,0.82-1.06,1.24
			c-0.46,0.43-0.84,0.93-1.16,1.48c-0.43,0.18-0.64,0.52-0.73,0.96c-0.02,0.31-0.44,0.41-0.38,0.76c-0.11,0-0.22,0-0.33,0h0l0,0.01
			c0,0.06-0.01,0.11-0.04,0.17c0,0.02,0.01,0.05,0.01,0.07c0.02,0.46-0.57,0.73-0.4,1.24c-0.21,0.04-0.29,0.18-0.35,0.38
			c-0.24,0.7-0.51,1.38-0.76,2.08c-0.65,1.24-1.17,2.53-1.33,3.94l0,0c-0.56,1.13-0.83,2.36-1.12,3.57
			c-0.38,0.37-0.44,0.83-0.39,1.33c-0.04,0.52-0.45,0.94-0.37,1.49c-0.08,0.18-0.16,0.37-0.24,0.55c-0.1,0.21-0.19,0.43-0.29,0.64v0
			c0.07,0.98-0.38,1.87-0.53,2.82c-0.24,1.55-0.74,3.07-0.62,4.66l-0.02-0.01c-0.67,0.47-0.25,1.14-0.33,1.72
			c-0.02,0.25-0.03,0.49-0.05,0.73v0.06c0,0.36,0,0.71,0,1.07c0,0.02,0,0.04,0,0.05c0,0.22,0,0.45,0.01,0.67v0.03
			c-0.12,0-0.24,0.01-0.36,0.01v1.32v1.51v4.89v0.75V107v1.13c0.12,0,0.24,0.01,0.35,0.01c0,0.42,0,0.84,0.01,1.25
			c0,0.02,0,0.04,0,0.05c0.01,0.12,0.03,0.24,0.04,0.36c0,0.5-0.01,1-0.01,1.5c0.07,0.01,0.15,0.02,0.22,0.03c0.01,0,0.01,0,0.02,0
			c0,0,0.01,0,0.01,0c0-0.01-0.01-0.03-0.01-0.04l0,0c0,0,0,0,0-0.01v0.01c0,0.01,0,0.03,0.01,0.04c0.03,0,0.05,0.01,0.08,0.01
			c0,0.13,0,0.26,0,0.39l0,0.27c0,0.09,0,0.17,0,0.26c0.14,1.34,0.5,2.63,0.78,3.94c0.04,0,0.08,0.01,0.13,0.02
			c0.01,0,0.03,0,0.04,0l0-0.01c0.02,0.1,0.03,0.2,0.05,0.3c0.01,0.06,0.02,0.13,0.03,0.19c0.04,0.27,0.08,0.54,0.13,0.81
			c0.01,0.06,0.02,0.12,0.03,0.17c0,0,0.01,0,0.01,0c0.01,0,0.01-0.01,0.01-0.01c0,0-0.01,0.01-0.01,0.01
			c0.01,0,0.02,0.01,0.03,0.01c0.02,0.01,0.03,0.01,0.05,0.02c0.02,0.01,0.04,0.02,0.06,0.02c0,0.07,0.01,0.15,0.02,0.22l0.01,0.12
			c0.03,0.14,0.05,0.28,0.08,0.42c0.03,0.17,0.07,0.35,0.1,0.52c0.25,0.9,0.41,1.85,0.93,2.66c0.1,0.74,0.39,1.41,0.74,2.06
			c0.01,0.84,0.44,1.54,0.8,2.25c-0.02,0.06-0.02,0.12-0.02,0.19c0.1,0.1,0.19,0.21,0.25,0.33c0.04,0.07,0.07,0.15,0.09,0.23
			c0.02,0.07,0.02,0.13,0.02,0.21c0.01,0.05,0.02,0.11,0.02,0.16c0.05,0.02,0.1,0.03,0.16,0.05c0.02,0.03,0.04,0.06,0.06,0.09
			c0.03,0.03,0.05,0.07,0.08,0.11c0.08,0.12,0.17,0.23,0.25,0.35c0.13,0.25,0.26,0.5,0.39,0.75c-0.01,0.07-0.01,0.14,0.01,0.2
			c0.04,0.06,0.07,0.12,0.1,0.18c0.07,0.08,0.16,0.15,0.25,0.21c0.01,0.11,0.01,0.23,0.02,0.34h0c0.26,0.15,0.4,0.36,0.38,0.65
			c0,0.04-0.01,0.08-0.02,0.12c0.01,0.1,0.03,0.21,0.04,0.31h0c0.06,0.04,0.12,0.09,0.17,0.14c0.31,0.27,0.48,0.62,0.55,1.03
			c0,0.01,0,0.01,0,0.02c0,0,0,0,0,0c0.01,0.01,0.02,0.01,0.03,0.02c0.11,0.06,0.22,0.11,0.33,0.17c0.03,0.62,0.54,0.99,0.76,1.52
			c0.08,0.1,0.16,0.2,0.24,0.3c0.41,0.49,0.8,0.99,1.02,1.61c0.04,0.1,0.07,0.21,0.1,0.32c0.05-0.01,0.09,0,0.13,0.01
			c0.09,0.03,0.14,0.11,0.2,0.19c0.06,0.09,0.11,0.17,0.21,0.2c0.28,0.72,0.95,1.18,1.26,1.87c0.03,0.06,0.05,0.12,0.07,0.19h0h0
			l0,0c0.07,0.04,0.13,0.08,0.19,0.12c0.16,0.11,0.28,0.25,0.34,0.43c0.02,0.06,0.04,0.13,0.04,0.2c0.04-0.01,0.07-0.01,0.1,0
			c0.21,0.03,0.24,0.33,0.45,0.36c0.02,0.03,0.04,0.06,0.06,0.09c0.16,0.24,0.33,0.47,0.49,0.71c0.04,0,0.08,0,0.11,0.01
			c0.16,0.03,0.25,0.14,0.27,0.32c0,0.01,0,0.02,0,0.03c0,0.03-0.01,0.06-0.01,0.1c0,0.04-0.01,0.09-0.01,0.13
			c0.01,0.05,0.01,0.11,0.02,0.16l0.02,0.18c0.11,0.01,0.23,0.02,0.34,0.03v0c0.01,0.11,0.02,0.22,0.03,0.33
			c0.07,0,0.15,0,0.23,0.01c0.01,0,0.03,0,0.04,0c0.04,0,0.07,0,0.11,0c0.25,0.25,0.5,0.51,0.75,0.76c0,0.07,0,0.14,0.01,0.21
			c0,0.05,0,0.1,0,0.14l0.01,0.21c0.19,0.12,0.38,0.2,0.6,0.2c0.04,0,0.08,0,0.12-0.01l0,0c0,0.04,0.01,0.08,0.01,0.12
			c0.03,0.16,0.13,0.26,0.32,0.29c0.64,0.62,1.13,1.41,1.9,1.89c0.11,0.07,0.23,0.13,0.36,0.19c0.07,0.05,0.14,0.11,0.22,0.16
			c0.05,0.05,0.09,0.1,0.14,0.15c0.15,0.17,0.3,0.34,0.51,0.41c0.08,0.03,0.17,0.05,0.27,0.05c1.48,1.22,3.01,2.38,4.78,3.16
			c0.09,0.04,0.17,0.08,0.23,0.14c0.06,0.06,0.11,0.13,0.14,0.23c0.17,0,0.35-0.01,0.52-0.01c0.5,0.1,0.93,0.5,1.48,0.38
			c0.06-0.1,0.13-0.17,0.21-0.23c0.31-0.23,0.69-0.12,1.06-0.1c0.09,0.01,0.19,0,0.28-0.01l-0.02-0.05
			c0.47,0.16,0.76-0.23,1.14-0.35c0.13,0.01,0.25,0.01,0.38,0.02c0.04-0.03,0.07-0.06,0.09-0.09c0.03-0.04,0.04-0.08,0.06-0.12
			c0.02-0.06,0.03-0.12,0.02-0.18h0c0.53-0.29,0.87-0.75,1.13-1.28c0.31-0.65,0.78-1.07,1.51-1.18c0.05,0.01,0.09,0.01,0.13,0.01
			c0.23,0.01,0.41-0.05,0.47-0.35c0.69-0.1,1.19-0.61,1.84-0.79c0-0.01,0-0.02,0-0.03c0-0.02,0.01-0.04,0.01-0.06
			c0-0.03,0-0.06,0-0.09c0.51-0.25,1.01-0.5,1.52-0.75v0c0.06,0,0.12,0,0.17-0.01c0.1-0.08,0.2-0.14,0.31-0.19
			c0.04-0.04,0.07-0.09,0.1-0.15h0l0,0h0v0h0l0,0l0,0v0c-0.14-0.01-0.27-0.02-0.37,0.02c0.1-0.04,0.24-0.04,0.37-0.03h0l0,0l0,0h0
			c0.06,0,0.13-0.01,0.19-0.01c0.12-0.01,0.24-0.01,0.36-0.02c0.03,0,0.06,0,0.09,0l0.09,0c0.01-0.01,0.01-0.02,0.02-0.03
			c0.03-0.04,0.06-0.08,0.09-0.13c0.04-0.06,0.09-0.12,0.13-0.18h0c0.11-0.01,0.22-0.02,0.33-0.03c0.05,0.04,0.11,0.05,0.18,0.04
			c0.1-0.02,0.22-0.08,0.33-0.12c0.19-0.07,0.35-0.1,0.39,0.24c0,0.02,0.01,0.04,0.01,0.06c0.03,0.44,0.24,0.8,0.36,1.19
			c0.03,0.09,0.05,0.19,0.06,0.28c0.11,0.24,0.31,0.36,0.56,0.39c0.02,0,0.03,0,0.05,0c0.11-0.01,0.22-0.01,0.33-0.02v0
			c0.01,0,0.02,0,0.03,0c0.32,0.05,0.63,0.06,0.93,0.03c0.46-0.05,0.9-0.17,1.35-0.31c0.11-0.03,0.21-0.07,0.32-0.1
			c0.36-0.41,0.93-0.55,1.35-0.88c0.14-0.11,0.26-0.25,0.36-0.42c0.29,0.03,0.36-0.26,0.56-0.37h0c0.08,0,0.15-0.01,0.21-0.03
			c0.07-0.07,0.15-0.13,0.23-0.18c0.04-0.06,0.06-0.12,0.08-0.2l0.42-0.35c0.06,0.01,0.12,0.01,0.17,0.01
			c0.14-0.01,0.26-0.05,0.33-0.16c0.03-0.06,0.06-0.13,0.07-0.22c0.5-0.38,1.1-0.61,1.49-1.14c0.01,0,0.02,0,0.03,0
			c0.33-0.03,0.46-0.29,0.61-0.53l0.06,0.02l0.06-0.03c1.47-0.05,2.71,0.62,3.94,1.31l0.03,0.35l-0.02,0.03c0,0-0.01,0-0.01,0
			c0,0.01,0,0.03,0.01,0.05c0-0.02,0-0.03,0-0.05c0.01-0.01,0.02-0.02,0.03-0.03c0.33-0.03,0.39,0.44,0.72,0.41
			c0.24,0.44,0.54,0.83,0.93,1.15l0,0c0.24,0.5,0.4,1.04,0.77,1.47c0.03,0.35-0.12,0.78,0.37,0.96c0.01,0.3,0.02,0.61,0.03,0.91
			c0.05,0.4-0.27,0.92,0.33,1.17v0c0.01,1.18,0.15,2.37,0.02,3.55c0,0.08,0.01,0.15,0.01,0.23c0,0.06,0.01,0.12,0.01,0.18
			c0,0.05,0.01,0.11,0.01,0.16c-0.01,0.25-0.01,0.5-0.02,0.75c0,0.07,0,0.14-0.01,0.21v0.04c0,0.1,0,0.21-0.01,0.31
			c0.66,0.68,0.01,1.38,0.03,2.07v0.01c0.02,0,0.03,0,0.05-0.01c-0.02,0-0.03,0.01-0.05,0.01c0,0.12,0,0.24-0.01,0.37
			c-0.07-0.01-0.12,0-0.17,0.01c0.05,0.01,0.11,0.03,0.17,0.03c0,0.86,0,1.73-0.01,2.59l-0.04-0.02c0,0.08,0,0.16,0.01,0.24
			c0.01,0.17,0.01,0.34,0.02,0.51h0l-0.14,0.02c-0.02,0-0.03,0-0.05,0.01c-0.05,0-0.11,0.01-0.16,0.02l-0.02,0.73
			c-0.03,0.05-0.03,0.1-0.02,0.15c-0.52,0.31-0.45,0.93-0.73,1.36c-0.03,0.04-0.04,0.08-0.03,0.13h0c-0.77,0.6-1.59,1.01-2.61,0.67
			c-0.06-0.01-0.13-0.03-0.19-0.04l0.02-0.03c-0.22-0.21-0.33-0.63-0.77-0.37c-0.11-0.06-0.22-0.13-0.33-0.19l0,0
			c-0.12-0.4-0.36-0.67-0.79-0.76c-0.05-0.35-0.31-0.54-0.57-0.74c-0.07,0.01-0.14,0.02-0.19,0.05c-0.12,0.06-0.18,0.16-0.18,0.33v0
			l0,0c0.18,0.1,0.3,0.23,0.33,0.42c0.01,0.05,0.01,0.1,0.01,0.16c0.03,0.23,0.14,0.39,0.39,0.4c0,0.06,0.01,0.12,0.01,0.17
			c0,0.06,0.01,0.11,0.01,0.17c0.37,0.29,0.61,0.68,0.75,1.12c0.06,0.03,0.11,0.08,0.15,0.13c0.11,0.13,0.2,0.28,0.41,0.25
			c0.51,0.75,1.21,1.24,2.07,1.5c0.13,0,0.25,0.01,0.37,0.01c0.98,0.18,1.53-0.33,1.87-1.17v0c0.21-0.01,0.28-0.13,0.39-0.31
			c0.52-0.9,0.76-1.9,1.14-2.84c0.69-1.49,0.8-3.13,1.12-4.71l0.56,0.02c0.09,0.01,0.17,0.01,0.26,0c0.37-0.02,0.76-0.13,1.07,0.1
			c0.08,0.06,0.15,0.13,0.22,0.23v0c0.3,0.01,0.6,0.03,0.9,0.05h0.4c0.75,0,1.49,0,2.24,0c0.02,0.03,0.04,0.05,0.05,0.08
			c0.02,0.02,0.03,0.05,0.05,0.07c0.04,0.06,0.08,0.13,0.13,0.19c3.31,0.2,6.6-0.24,9.9-0.38c0.07-0.12,0.15-0.19,0.25-0.24
			c0.2-0.11,0.45-0.1,0.68-0.11c0.08-0.01,0.16-0.02,0.23-0.04h0.01c0.01,0,0.01,0,0.02,0l0.14,0.02c0.07,0.01,0.15,0.02,0.22,0.03
			c0.51-0.1,1.1,0.1,1.5-0.4l-0.02-0.02c0-0.01,0-0.02,0-0.03c0.01,0.02,0.01,0.03,0.02,0.05l1.29-0.02c0.01,0,0.02,0,0.03,0
			l0.06-0.02l0.06,0.02c0.05-0.07,0.11-0.13,0.17-0.18c0.33-0.26,0.76-0.19,1.17-0.2h0c0.01,0,0.01,0,0.02,0c0-0.01,0-0.01,0-0.02
			c0.75-0.52,1.71-0.44,2.5-0.87c0.84-0.46,1.9-0.42,2.64-1.12h0c0.26-0.07,0.59,0.09,0.77-0.23c-0.12,0.06-0.24,0.09-0.36,0.1
			c0.12-0.01,0.24-0.04,0.36-0.1c1.55-0.63,3.12-1.22,4.47-2.25c0.25-0.07,0.49-0.14,0.74-0.22c0-0.01,0.01-0.01,0.01-0.02
			c0.25-0.46,0.93-0.37,1.15-0.88v0c0.28,0.01,0.51-0.08,0.57-0.39l0.09,0l0.07-0.05l0.13,0.03c0.02,0,0.04,0.01,0.06,0.01
			c0,0,0,0,0,0c0.01-0.03,0.03-0.06,0.05-0.09c0.14-0.24,0.35-0.36,0.65-0.34c0,0,0.01,0,0.01,0l0,0c0,0,0,0,0,0v0
			c-0.07-0.32,0.35-0.27,0.39-0.51c0.27-0.18,0.54-0.37,0.82-0.55c0.07,0,0.13,0,0.2,0.01c0.05,0,0.1,0,0.15,0
			c0.05-0.03,0.1-0.04,0.16-0.04c0.01-0.03,0.03-0.05,0.04-0.08c0.19-0.33,0.67-0.4,0.76-0.82c0.32-0.34,0.73-0.39,1.18-0.41
			c0.31-0.01,0.63,0,0.94-0.01c0.3-0.1,0.61-0.15,0.97-0.12c0.18-0.05,0.36-0.12,0.53-0.23c1.11-0.01,2.21-0.03,3.32-0.04h0.63
			c1.42,0,2.83,0,4.25,0c0.26,0,0.52,0,0.78,0c0.56,0,1.12,0.01,1.69,0.01c0.12,0.01,0.24,0.02,0.36,0.03
			c0.05,0.05,0.1,0.08,0.15,0.11c0.09,0.04,0.18,0.05,0.28,0.05h0.05h0c-0.01,0.04-0.02,0.08-0.03,0.11
			c-0.01,0.02-0.01,0.05-0.02,0.07c0.61,0.01,1.22,0.03,1.83,0.04l0.8-0.04c-0.05-0.02-0.1-0.04-0.15-0.06
			c0.05,0.01,0.1,0.03,0.15,0.06c0.12,0.02,0.24,0.02,0.37,0.02c0.46,0,0.92-0.07,1.35,0.19c0.06,0.04,0.12,0.06,0.19,0.09
			c0.11,0.02,0.22,0.04,0.33,0.06c0.12,0.02,0.26,0.03,0.39,0.05c0.3,0,0.6-0.03,0.89,0c0.59,0.41,1.32,0.44,1.97,0.66
			c0.18,0.06,0.36,0.14,0.53,0.25c0.83,0.2,1.56,0.69,2.43,0.77c0.21,0.58,0.74,0.3,1.12,0.41c0.1,0.42,0.47,0.3,0.74,0.37
			c0.05,0.36,0.31,0.38,0.59,0.35c0.63,0.37,1.26,0.74,1.89,1.12c0.31,0.4,0.71,0.67,1.13,0.94c0.06,0,0.12,0,0.18,0
			c0.02,0,0.03,0,0.05,0c0.05,0,0.1,0,0.15,0c0.18,0.13,0.36,0.25,0.54,0.38c0,0.01,0,0.01,0,0.02c0.01,0.03,0.01,0.06,0.01,0.08
			c0.02,0.08,0.03,0.16,0.05,0.25c0.78,0.31,1.11,1.13,1.77,1.57c-0.04,0.4,0.39,0.56,0.44,0.91c-0.06,0.3,0.17,0.51,0.22,0.76
			c0.14,0.64,0.49,1.33-0.2,1.89c0,0.08-0.01,0.15-0.01,0.23c-0.01,0.17-0.02,0.34-0.03,0.5c-0.38,0.41-0.83,0.73-1.26,1.08
			c-0.76,0.61-1.72,0.8-2.49,1.35c-0.3,0.01-0.6,0.02-0.9,0.03c0,0-0.01,0-0.02,0c-0.02,0.11-0.04,0.22-0.06,0.33
			c-2.02,0.43-4.04,0.87-6.06,1.3c-0.05,0.01-0.1,0.02-0.15,0.03c-1.53-0.07-3,0.59-4.54,0.45c-0.24-0.02-0.4,0.15-0.55,0.31h0
			c-0.36,0.01-0.72,0.01-1.08,0.02c-0.94,0.01-1.88,0.02-2.81,0.04c-0.25,0-0.52-0.04-0.59,0.31c-0.31,0.01-0.62,0.03-0.92,0.04
			c-1.41,0.01-2.83,0.02-4.24,0.03c-0.54,0-1.07,0.01-1.61,0.01c-0.13,0-0.27,0-0.37,0.05c-0.1,0.04-0.18,0.11-0.23,0.26
			c-0.8,0.01-1.6,0.02-2.39,0.03c-5.27,0-10.54-0.01-15.82-0.01c-0.49-0.01-0.98-0.02-1.46-0.03v0c-0.14-0.41-0.49-0.3-0.78-0.31
			c-1.05-0.02-2.1-0.04-3.15-0.04c-0.26,0-0.67-0.14-0.72,0.2c-0.06,0.38,0.28,0.57,0.66,0.59l-0.01-0.09c0.02,0,0.05,0,0.07,0
			c0.11,0.01,0.23,0.01,0.34,0.02c0.24,0.01,0.48,0.03,0.72,0.04c0.24,0.11,0.49,0.2,0.74,0.26c0.36,0.09,0.74,0.11,1.13,0.05
			c0.07,0,0.15,0,0.22,0c1.89-0.02,3.74,0.52,5.63,0.42c10.79,0.68,21.59,1.01,32.38-0.01c0.03,0,0.06,0,0.08,0
			c0.44,0.01,0.89,0.05,1.29-0.12c0.12-0.05,0.24-0.12,0.35-0.22h0l1.28-0.03c0.13,0,0.27,0,0.4,0c0.24,0,0.49,0.01,0.73,0.01
			c0.3-0.04,0.56-0.16,0.77-0.36c0.32-0.06,0.68,0.05,1-0.01c0.02-0.01,0.04-0.01,0.06-0.01c0.17-0.04,0.32-0.14,0.45-0.34
			c0.24-0.01,0.49-0.03,0.73-0.04c0.17,0,0.34,0,0.51,0c0.14,0,0.29,0,0.43,0c0.01-0.11,0.03-0.22,0.04-0.33
			c0.79,0.18,1.43-0.41,2.18-0.42c0.03-0.1,0.07-0.17,0.12-0.22c0.16-0.16,0.41-0.13,0.63-0.15h0c0.22-0.31,0.52-0.4,0.86-0.38
			c0.03,0,0.07,0,0.1,0.01c0-0.02,0.01-0.05,0.01-0.07c0.01-0.08,0.02-0.16,0.03-0.24c0.08-0.01,0.16-0.02,0.25-0.03
			c0.04,0,0.07-0.01,0.11-0.01v0c-0.02-0.02-0.04-0.03-0.06-0.04c0.02,0.01,0.04,0.02,0.06,0.04l0,0l0,0h0
			c0.07,0,0.15,0.01,0.22,0.01c0.05,0,0.11,0,0.17,0.01c0.35-0.06,0.51-0.4,0.79-0.56c-0.04-0.01-0.07-0.02-0.11-0.04
			c0-0.01,0-0.02,0.01-0.03c0.01-0.03,0.02-0.06,0.03-0.09c0-0.02,0.01-0.03,0.01-0.05c0.02-0.05,0.03-0.11,0.05-0.16l0,0
			c0.23-0.26,0.65-0.32,0.74-0.73c0.06,0,0.12-0.02,0.17-0.05c0.13-0.08,0.22-0.25,0.35-0.33c0.06-0.04,0.12-0.06,0.2-0.05
			C1933.94,159.29,1933.82,158.18,1933.82,157.08 M1909.34,103.06C1909.34,103.06,1909.34,103.06,1909.34,103.06
			C1909.34,103.06,1909.34,103.06,1909.34,103.06 M1908.77,114.49C1908.78,114.5,1908.78,114.5,1908.77,114.49
			c0.01,0.01,0,0.01,0,0.01C1908.78,114.5,1908.78,114.5,1908.77,114.49C1908.78,114.5,1908.78,114.5,1908.77,114.49 M1849.87,96.25
			L1849.87,96.25c-0.03,0.01-0.05,0.03-0.08,0.05C1849.81,96.28,1849.84,96.27,1849.87,96.25 M1797.21,111.3L1797.21,111.3
			L1797.21,111.3L1797.21,111.3z M1801.5,126.01L1801.5,126.01L1801.5,126.01L1801.5,126.01L1801.5,126.01
			c0,0.04,0.01,0.07,0.01,0.11C1801.51,126.08,1801.5,126.04,1801.5,126.01 M1847.3,80.42c0.03,0.02,0.06,0.05,0.09,0.07
			C1847.36,80.46,1847.33,80.44,1847.3,80.42L1847.3,80.42z M1841.92,71.31C1841.92,71.31,1841.92,71.31,1841.92,71.31
			c0.03,0.05,0.06,0.12,0.05,0.2c0-0.08-0.02-0.15-0.06-0.21C1841.91,71.31,1841.92,71.31,1841.92,71.31 M1839.96,74.63
			c-0.01,0.02-0.03,0.04-0.05,0.06v0C1839.93,74.68,1839.95,74.65,1839.96,74.63 M1837.72,72.61L1837.72,72.61c0,0-0.01,0-0.01,0
			C1837.71,72.61,1837.72,72.61,1837.72,72.61 M1835.9,75.17C1835.9,75.17,1835.9,75.17,1835.9,75.17
			C1835.9,75.17,1835.9,75.17,1835.9,75.17c-0.59-0.29-0.92,0.03-1.17,0.45C1834.98,75.2,1835.31,74.88,1835.9,75.17 M1834.17,76.04
			C1834.17,76.04,1834.18,76.04,1834.17,76.04C1834.18,76.04,1834.17,76.04,1834.17,76.04c-0.11,0.18-0.24,0.34-0.37,0.51
			C1833.93,76.39,1834.06,76.22,1834.17,76.04 M1833.8,76.55c0.01,0,0.02,0.01,0.03,0.01C1833.82,76.56,1833.81,76.55,1833.8,76.55
			L1833.8,76.55z M1830.31,81.66C1830.31,81.66,1830.31,81.66,1830.31,81.66c-0.01,0.01-0.01,0.01-0.01,0.01
			C1830.31,81.67,1830.31,81.67,1830.31,81.66C1830.31,81.66,1830.31,81.66,1830.31,81.66 M1821.96,81.46
			C1821.96,81.46,1821.96,81.46,1821.96,81.46c0.39,0.21,0.44,0.64,0.54,1.02C1822.4,82.09,1822.36,81.67,1821.96,81.46
			C1821.96,81.46,1821.96,81.46,1821.96,81.46 M1817.6,67.86L1817.6,67.86L1817.6,67.86L1817.6,67.86L1817.6,67.86L1817.6,67.86z
			 M1815.98,65.96L1815.98,65.96c-0.32,0-0.65,0.01-0.97-0.01C1815.34,65.97,1815.66,65.96,1815.98,65.96 M1804.56,77.32
			C1804.56,77.32,1804.56,77.32,1804.56,77.32l0.01,0.01C1804.56,77.32,1804.56,77.32,1804.56,77.32L1804.56,77.32z M1804.49,77.25
			L1804.49,77.25L1804.49,77.25L1804.49,77.25C1804.49,77.25,1804.49,77.25,1804.49,77.25
			C1804.49,77.25,1804.49,77.25,1804.49,77.25L1804.49,77.25c-0.09,0.56,0.09,1.04,0.38,1.51
			C1804.58,78.3,1804.4,77.81,1804.49,77.25 M1806.7,134.61L1806.7,134.61L1806.7,134.61
			C1806.69,134.61,1806.7,134.61,1806.7,134.61c0.23-0.04,0.6-0.22,1.34-0.49C1807.3,134.4,1806.93,134.57,1806.7,134.61
			 M1810.89,140.81L1810.89,140.81c0-0.05,0.01-0.09,0.01-0.14C1810.9,140.71,1810.9,140.76,1810.89,140.81 M1810.91,140.65
			C1810.91,140.65,1810.91,140.65,1810.91,140.65C1810.91,140.65,1810.91,140.65,1810.91,140.65c0-0.05,0-0.09,0.01-0.14
			C1810.91,140.55,1810.91,140.6,1810.91,140.65 M1813.25,143.15L1813.25,143.15L1813.25,143.15c0.03,0,0.06-0.01,0.1-0.01
			C1813.31,143.14,1813.28,143.15,1813.25,143.15 M1821.94,144.58c0.01,0,0.03-0.01,0.04-0.01l0,0
			C1821.97,144.57,1821.95,144.57,1821.94,144.58 M1841.19,139.18L1841.19,139.18c0.02-0.01,0.03-0.03,0.05-0.04c0,0,0,0,0,0
			C1841.22,139.15,1841.21,139.16,1841.19,139.18c0.02-0.02,0.03-0.03,0.04-0.05c0,0,0,0,0,0
			C1841.22,139.15,1841.21,139.17,1841.19,139.18 M1841.96,138.29L1841.96,138.29C1841.96,138.28,1841.96,138.28,1841.96,138.29
			C1841.96,138.28,1841.96,138.29,1841.96,138.29 M1841.54,137.56c0.15,0.03,0.29-0.08,0.43-0.09
			C1841.83,137.48,1841.69,137.59,1841.54,137.56 M1842.32,140.69L1842.32,140.69c0.01,0.01,0.01,0.01,0.02,0.02
			C1842.33,140.7,1842.32,140.69,1842.32,140.69 M1842.38,129.38c-0.03,0.13-0.05,0.26-0.07,0.39c-0.47,0.68-0.7,1.46-0.93,2.24
			c-0.1,0.12-0.19,0.25-0.28,0.38c-0.46,0.71-0.68,1.54-1.1,2.27c-0.04,0.07-0.08,0.13-0.12,0.2c-0.38-0.01-0.76-0.03-1.14-0.04
			c-0.24,0.02-0.48,0.04-0.73,0.06c-0.06,0-0.13,0-0.19,0c-0.63,0-1.25-0.01-1.88-0.01c-0.01,0.06-0.01,0.12-0.02,0.18l-0.01,0.07
			l-0.01,0.09c-0.33,0.01-0.65,0.01-0.98,0.02c-0.1,0-0.21,0-0.32,0c-0.21,0.07-0.48,0-0.66,0.13c-0.06,0.05-0.12,0.12-0.15,0.24
			c-0.59,0.02-1.19,0.03-1.78,0.05v0c-0.27,0.54-0.77,0.31-1.18,0.34c-0.31,0.03-0.52,0.23-0.75,0.4h-0.04
			c-0.33,0-0.67-0.03-0.96,0.12c-0.1,0.05-0.19,0.13-0.27,0.24l-0.41,0.01h0c-0.74,0.5-1.57,0.78-2.45,0.95
			c-0.21,0.22-0.46,0.34-0.77,0.34c-0.13,0.12-0.27,0.24-0.4,0.36c0,0,0,0.01,0,0.01c0,0,0-0.01,0-0.01c0,0-0.01,0-0.01,0
			c-0.1,0-0.21-0.01-0.31-0.02h0c-0.01-0.01-0.02-0.01-0.03-0.02c-0.62-0.45-1.35-0.28-2.03-0.34c0,0-0.01,0-0.01,0
			c-0.64-0.3-1.28-0.6-1.92-0.91c-0.31,0-0.54-0.18-0.77-0.36c0.02-0.03,0.05-0.05,0.07-0.08c0,0,0,0,0,0
			c-0.02,0.03-0.05,0.05-0.07,0.08c-0.26-0.02-0.43-0.18-0.56-0.39c-0.24,0-0.36-0.13-0.41-0.36c-0.62-0.37-1.33-0.63-1.68-1.33
			c-0.17-0.14-0.35-0.28-0.52-0.41c-0.16,0.02-0.31,0-0.41-0.15c-0.04-0.07-0.09-0.15-0.13-0.22c-0.07-0.11-0.14-0.23-0.21-0.35
			c0-0.01-0.01-0.01-0.01-0.01c-0.37-0.12-0.43-0.64-0.83-0.72c-0.04-0.01-0.08-0.01-0.12-0.01c-0.36-0.46-0.72-0.92-1.08-1.38
			c-0.04-0.05-0.08-0.1-0.12-0.15c0.02-0.06,0.04-0.12,0.06-0.18c-0.12-0.12-0.24-0.25-0.37-0.37c-0.46-0.26-0.62-0.76-0.94-1.14
			v-0.16v-0.07c0-0.05,0-0.1,0-0.15c-0.26-0.17-0.27-0.55-0.51-0.72c-0.05-0.04-0.12-0.07-0.2-0.09c0.02-0.43-0.48-0.53-0.55-0.91
			c-0.35-0.22-0.17-0.6-0.28-0.9c-0.48-0.7-0.8-1.48-1.09-2.27v0c-0.17-0.15-0.39-0.28-0.38-0.56c-0.49-0.55-0.46-1.34-0.91-1.91
			c-0.03-0.16-0.07-0.31-0.1-0.47c-0.01-0.04-0.02-0.08-0.03-0.12c-0.01-0.07-0.03-0.14-0.04-0.21c-0.01-0.05-0.02-0.1-0.03-0.14
			c-0.05-0.02-0.11-0.04-0.16-0.06v0c-0.01-0.1-0.02-0.21-0.03-0.31c0-0.02,0-0.05-0.01-0.07c-0.05-0.98-0.74-1.78-0.75-2.77
			c-0.07-0.04-0.14-0.08-0.21-0.12l0,0c-0.05-0.03-0.1-0.06-0.15-0.09h0c-0.01-0.26-0.01-0.51-0.02-0.77c0-0.11-0.01-0.22-0.01-0.33
			c-0.02-0.05-0.03-0.1-0.02-0.15c-0.07-0.03-0.13-0.06-0.18-0.1c-0.27-0.21-0.16-0.56-0.17-0.87c0-0.01,0-0.01,0-0.02
			c0-0.02-0.01-0.04-0.01-0.06c-0.07-0.35-0.27-0.66-0.36-1.01c-0.01-0.03-0.01-0.05-0.02-0.08c-0.02-0.11-0.03-0.22-0.01-0.34
			c-0.06,0-0.12-0.01-0.17-0.02c0,0-0.01,0.01-0.02,0.01c0-0.01,0.02-0.01,0.02-0.01l0,0c-0.22-1.32-0.66-2.6-0.77-3.94
			c0-0.02,0-0.04,0-0.06c0.01-0.12,0.01-0.23,0-0.34c-0.02-0.11-0.04-0.21-0.06-0.31c-0.02-0.05-0.03-0.11-0.05-0.16
			c-0.06-0.16-0.14-0.32-0.24-0.47c0.14-1.16-0.51-2.22-0.41-3.37c0-0.02,0-0.04,0-0.06c0-0.03,0-0.05,0-0.08l0.03-0.81
			c-0.04-0.43,0.02-0.87-0.17-1.26c-0.05-0.1-0.11-0.19-0.19-0.28h0c0-0.17-0.01-0.35-0.01-0.52c0-0.02,0-0.04,0-0.06
			c0.12-3.17-0.49-6.32-0.38-9.5c0-0.07,0-0.15,0.01-0.22l0.01,0.01h0c0.05-0.01,0.09-0.03,0.13-0.05c0.2-0.11,0.19-0.33,0.19-0.54
			c0.01-1.25,0.02-2.51,0.03-3.76c0.06-0.32,0.07-0.63-0.12-0.91c0.29-0.2,0.16-0.48,0.17-0.74c0.48-0.58,0.35-1.26,0.34-1.92
			c0.01-0.24,0.01-0.48,0.02-0.71c0-0.01,0-0.02,0-0.04c0-0.11,0.01-0.22,0.01-0.33v0c0.1-0.18,0.18-0.37,0.24-0.56
			c0.27-0.87,0.19-1.82,0.5-2.68c0.3-1.04,0.65-2.06,0.89-3.11c0.18-0.77,0.55-1.49,0.71-2.26c0.03-0.15,0.06-0.31,0.07-0.46
			c0.4-0.39,0.33-0.97,0.58-1.42v0c0.29-0.12,0.17-0.39,0.22-0.6c0.01-0.01,0.02-0.02,0.03-0.03c0.44-0.34,0.47-0.96,0.88-1.32
			c0-0.01,0-0.01,0.01-0.02c0.11-0.46,0.53-0.74,0.73-1.15l0,0c-0.04-0.38,0.41-0.53,0.41-0.89c0.04-0.01,0.07-0.01,0.11-0.02
			c0.08-0.01,0.16-0.02,0.24-0.04c0.11-0.4,0.41-0.51,0.79-0.51l0.53-0.06c0.06-0.07,0.12-0.13,0.18-0.19
			c0.01-0.09,0.01-0.18,0.02-0.27c0-0.03,0-0.06,0.01-0.09c0.02,0,0.04,0,0.06,0c0.04,0,0.08,0,0.12,0
			c0.31,0.01,0.62,0.01,0.93,0.02c0.05,0,0.1,0,0.14,0h0c0.08,0.12,0.17,0.23,0.25,0.35c0.42-0.12,0.56,0.4,0.93,0.4
			c0,0.03,0.01,0.07,0.01,0.1c0.01,0.08,0.02,0.16,0.02,0.24c0.19,0.06,0.35,0.15,0.37,0.38h0c0.13,0.07,0.25,0.13,0.38,0.2
			c0,0.05,0,0.11,0,0.16c0,0.07,0,0.13,0,0.2c0.73,0.92,1.13,2.01,1.66,3.04c-0.01,0.04-0.01,0.08-0.01,0.13
			c0,0.27,0.14,0.47,0.37,0.62c0,0.02,0,0.04,0,0.06c-0.01,0.63,0.55,1.13,0.43,1.78c0.09,0.06,0.17,0.11,0.26,0.16
			c0.03,0.02,0.07,0.04,0.1,0.06c-0.01,0.19-0.02,0.38-0.03,0.57c0.02,0.06,0.03,0.11,0.04,0.17c0,0.07-0.01,0.13-0.01,0.2
			c0.08,0.15,0.11,0.31,0.12,0.48c0.05,0.05,0.12,0.08,0.22,0.11c-0.08,0.72,0.58,1.29,0.42,2.03c0.11,0.14,0.23,0.27,0.34,0.41
			l-0.01,0.57c0,0.03,0,0.07,0,0.1c0,0.02,0,0.05,0,0.07c0.01,0.3,0.03,0.6,0.04,0.9v0c0.1,0.14,0.18,0.28,0.24,0.43
			c0.26,0.65,0.17,1.4,0.48,2.04c0,0.01,0.01,0.02,0.01,0.03c0.06,0,0.12,0,0.18,0.01c0,0.06,0,0.11,0.01,0.17
			c-0.01,0.16-0.01,0.32,0,0.48c0.01,0.16,0.04,0.32,0.1,0.47c0.06,0.14,0.14,0.27,0.25,0.39c0.14,1.34,0.36,2.66,0.69,3.97
			c0.14,0.54,0.12,1.1,0.08,1.66c0.01,0.06,0.02,0.12,0.02,0.18c0.12,0.07,0.24,0.15,0.36,0.23c0,0,0,0.01,0,0.01c0,0,0-0.01,0-0.01
			s0,0,0,0.01c0,0.09-0.01,0.18-0.01,0.27c-0.01,0.21-0.01,0.42-0.02,0.63c0,0.07,0,0.14-0.01,0.21c0.02,0.18,0.05,0.36,0.07,0.55
			c0.01,0.05,0.01,0.1,0.02,0.16c0.14,1.2,0.27,2.41,0.44,3.6c0.2,1.41,0.54,2.8,0.64,4.23c0.02,0.24,0.03,0.49,0.03,0.73
			c0,0.21,0,0.42-0.01,0.63c0,0.01,0,0.02,0,0.03v0c0,0.01,0,0.01,0.01,0.02c0.11,0.32,0.19,0.65,0.25,0.98
			c0.01,0.08,0.03,0.16,0.04,0.25c0.07,0.49,0.09,0.99,0.09,1.49v0.39c0,0.56,0.1,1.06,0.71,1.26c0.03-0.01,0.05-0.01,0.08-0.02
			c0,0,0,0,0.01,0c0.04-0.01,0.08-0.02,0.12-0.03c0.25,0.02,0.51,0.04,0.76,0.05c0.74-0.31,0.94-1.01,1.13-1.67
			c0.29-1.02,0.37-2.06,0.39-3.1c-0.01-0.21-0.01-0.43,0-0.64c0-0.58-0.02-1.16-0.02-1.74c0.08-0.07,0.15-0.15,0.21-0.23
			c0.1-0.15,0.17-0.32,0.18-0.52c0.43-0.59,0.79-1.21,0.86-1.95c0.01-0.05,0.01-0.09,0.01-0.14c0.02-0.03,0.04-0.05,0.07-0.08
			c0.33-0.42,0.39-0.95,0.52-1.43c0.27-0.96,0.86-1.83,0.98-2.83c0.01-0.11,0.02-0.23,0.02-0.34c0.4-0.12,0.31-0.46,0.34-0.75
			c0.1-0.1,0.18-0.2,0.25-0.31c0.07-0.13,0.12-0.27,0.14-0.42c0.58-0.89,0.85-1.91,1.31-2.85c0-0.07-0.01-0.13-0.01-0.2v-0.01
			c-0.01-0.06-0.01-0.13-0.01-0.19c0.04-0.04,0.09-0.09,0.13-0.14c0.08-0.08,0.16-0.17,0.24-0.25c0.01-0.21,0.04-0.41,0.2-0.51
			c0.05-0.03,0.1-0.05,0.17-0.07c-0.02-0.05-0.01-0.1,0.02-0.15c-0.01-0.03-0.01-0.06-0.01-0.08c-0.02-0.45,0.55-0.73,0.41-1.23
			c0.42-0.08,0.36-0.41,0.37-0.69c0-0.01,0-0.02,0-0.03c0.1-0.02,0.21-0.04,0.31-0.06c-0.03-0.54,0.36-0.89,0.6-1.31
			c0.35-0.8,0.8-1.53,1.51-2.07c0.13-0.19,0.26-0.37,0.39-0.56c0.06-0.02,0.11-0.04,0.17-0.06c0.35-0.16,0.55-0.47,0.74-0.79
			c0.01-0.03,0.03-0.05,0.05-0.08v0c0.05,0,0.1-0.01,0.15-0.02v0c0.2-0.4,0.45-0.74,0.97-0.72c0.14-0.08,0.22-0.2,0.21-0.36
			c0.04,0,0.08,0,0.12,0c0.43,0,0.77-0.32,1.17-0.42c0.5,0.13,1,0.26,1.5,0.39c0.06,0.12,0.12,0.23,0.18,0.35l0.02,0.03
			c0.13-0.01,0.25-0.01,0.37-0.02c0.39,0.09,0.57,0.47,0.87,0.68c0.07,0.05,0.15,0.1,0.24,0.13c0,0.16,0.02,0.3,0.21,0.32
			c0.11,0.18,0.21,0.36,0.31,0.55c0.27,0.5,0.53,1.01,0.91,1.44c0.03,0.03,0.05,0.06,0.08,0.09c0.03,0.09,0.06,0.18,0.08,0.28
			c0.24,0.8,0.54,1.58,0.91,2.33c0.1,0.2,0.21,0.41,0.32,0.6h0c-0.01,0.04-0.01,0.08-0.01,0.12c0.16,0.22,0.18,0.47,0.17,0.72
			c0.06,0.1,0.13,0.2,0.22,0.3c-0.12,0.56,0.4,0.95,0.4,1.48c0,0.06,0,0.12,0,0.19c-0.02,0.25-0.06,0.51,0.14,0.68
			c0.05,0.05,0.12,0.09,0.21,0.12c0.01,0.17,0.03,0.35,0.04,0.52c0,0.07,0,0.15,0,0.22c0,0.29,0,0.58,0.01,0.87l0.13,0.03l0.03,0.01
			c0.06,0.01,0.12,0.03,0.18,0.04c0.01,0.12,0.02,0.23,0.03,0.35l-0.01,0.23c0,0.11-0.01,0.21-0.01,0.32c0,0.07-0.01,0.14-0.01,0.21
			c-0.01,0.19-0.01,0.39-0.02,0.58c0.05,0.02,0.1,0.05,0.15,0.07c0.02,0.01,0.04,0.02,0.06,0.03c0.06,0.03,0.13,0.06,0.19,0.09
			c0,0.37,0,0.75,0,1.12c0.01,0.24,0.03,0.47,0.04,0.71l0,0c0.3,0.18,0.34,0.48,0.35,0.79c-0.01,0.27-0.02,0.54-0.03,0.81
			c0,0.05,0,0.09,0,0.14c-0.05,0.83,0.14,1.64,0.29,2.45c0.04,0.37,0.08,0.73,0.12,1.1c0.01,0.26,0.03,0.51,0,0.77
			c0.01,0.37,0.01,0.74,0.02,1.1v0c0.14,0.61,0.24,1.21,0.31,1.82c0.11,1.01,0.12,2.02,0.02,3.03c-0.06,0.66-0.17,1.33-0.33,1.99
			l0,0.29c0,0.02,0,0.04,0,0.06v0c0,0.25-0.01,0.5-0.01,0.75v0.03c-0.01,0.24-0.01,0.48-0.02,0.73c-0.02,0-0.05,0.01-0.07,0.02
			c0.02,0.03,0.05,0.06,0.08,0.1c0.11,1.15-0.48,2.23-0.42,3.38c0,0.08,0.01,0.15,0.02,0.23c-0.03,0.02-0.05,0.04-0.08,0.06
			c-0.38,0.3-0.31,0.69-0.26,1.07c0.02,0.14,0.03,0.28,0.01,0.42c-0.01,0.24-0.02,0.49-0.03,0.73c-0.1,0.05-0.17,0.1-0.23,0.16
			c-0.24,0.24-0.16,0.57-0.13,0.89c0.01,0.1,0.01,0.19,0,0.29c-0.01,0.12-0.03,0.24-0.04,0.36c0.01,0.19,0.01,0.39,0.02,0.58
			c-0.02,0.01-0.05,0.03-0.07,0.04c-0.03,0.02-0.06,0.04-0.09,0.05c-0.06,0.04-0.13,0.07-0.19,0.11c-0.01,0.18-0.03,0.36-0.04,0.54
			l0.02,0.16c0,0.02,0.01,0.04,0.01,0.06c0.01,0.05,0.01,0.11,0.02,0.17c-0.02,0.17-0.03,0.35-0.04,0.52v0l-0.18,0.03
			c-0.01,0-0.02,0-0.03,0.01c-0.05,0.01-0.09,0.01-0.14,0.02c0,0.13,0,0.26,0,0.39v0.16c-0.01,0.11-0.02,0.23-0.03,0.34
			c-0.08,0.09-0.15,0.18-0.21,0.28c-0.01,0.26-0.03,0.51-0.18,0.73c0,0.05,0.01,0.1,0.02,0.15c-0.05,0.4-0.46,0.67-0.38,1.11
			c-0.09,0.25-0.19,0.49-0.29,0.73c-0.38,0.95-0.79,1.88-0.98,2.89c-0.02,0.1-0.04,0.2-0.06,0.31c-0.03,0.05-0.06,0.1-0.09,0.14
			C1842.88,127.65,1842.56,128.49,1842.38,129.38 M1845.94,135.27L1845.94,135.27c0.01,0.01,0.01,0.01,0.02,0.02
			C1845.96,135.29,1845.95,135.28,1845.94,135.27 M1845.96,135.29c0,0-0.01-0.01-0.02-0.01
			C1845.96,135.28,1845.96,135.29,1845.96,135.29 M1847.23,135.49c0,0.04,0,0.08,0,0.12
			C1847.23,135.57,1847.23,135.53,1847.23,135.49C1847.23,135.49,1847.23,135.49,1847.23,135.49
			C1847.23,135.49,1847.23,135.49,1847.23,135.49 M1850.3,141.97L1850.3,141.97L1850.3,141.97L1850.3,141.97
			C1850.3,141.97,1850.3,141.97,1850.3,141.97C1850.3,141.97,1850.3,141.97,1850.3,141.97
			C1850.3,141.97,1850.3,141.97,1850.3,141.97c0.04-0.02,0.09-0.01,0.14,0.01C1850.38,141.96,1850.34,141.95,1850.3,141.97
			 M1850.47,135.65C1850.47,135.65,1850.47,135.65,1850.47,135.65l0.01,0C1850.47,135.66,1850.47,135.66,1850.47,135.65
			 M1847.42,161.75C1847.42,161.75,1847.42,161.75,1847.42,161.75C1847.41,161.75,1847.42,161.75,1847.42,161.75 M1903.52,134.86
			L1903.52,134.86L1903.52,134.86L1903.52,134.86c-0.01-0.02-0.02-0.03-0.03-0.04C1903.49,134.83,1903.5,134.84,1903.52,134.86
			L1903.52,134.86C1903.52,134.85,1903.52,134.85,1903.52,134.86L1903.52,134.86z M1903.88,134.95L1903.88,134.95
			c0,0.05,0.01,0.11,0.01,0.16C1903.89,135.06,1903.88,135.01,1903.88,134.95 M1904.27,103.76L1904.27,103.76L1904.27,103.76
			L1904.27,103.76 M1903.71,101.2c0,0-0.01,0.01-0.01,0.01l0,0C1903.7,101.21,1903.7,101.2,1903.71,101.2 M1899.17,101.89
			C1899.17,101.89,1899.17,101.89,1899.17,101.89C1899.17,101.89,1899.17,101.89,1899.17,101.89L1899.17,101.89L1899.17,101.89
			L1899.17,101.89L1899.17,101.89L1899.17,101.89z M1897.14,102.66C1897.14,102.66,1897.14,102.66,1897.14,102.66
			c0,0.01,0,0.01-0.01,0.01C1897.14,102.67,1897.14,102.66,1897.14,102.66c0-0.01-0.01-0.01-0.01-0.02
			C1897.13,102.65,1897.14,102.65,1897.14,102.66 M1876.77,113.09L1876.77,113.09c0,0.01,0.02,0.01,0.03,0.01
			C1876.79,113.1,1876.78,113.1,1876.77,113.09L1876.77,113.09z M1876.17,120.91c0.01-0.01,0.01-0.02,0.02-0.03
			C1876.18,120.89,1876.17,120.9,1876.17,120.91C1876.17,120.91,1876.16,120.9,1876.17,120.91L1876.17,120.91z M1875.26,114.28
			c-0.12,0.08-0.25,0.15-0.38,0.22v0C1875.01,114.43,1875.14,114.36,1875.26,114.28 M1874.88,114.51
			C1874.88,114.51,1874.88,114.51,1874.88,114.51C1874.88,114.51,1874.89,114.5,1874.88,114.51
			C1874.88,114.5,1874.88,114.51,1874.88,114.51 M1874.88,114.51L1874.88,114.51c-0.09,0.09-0.18,0.17-0.28,0.24
			C1874.7,114.68,1874.79,114.6,1874.88,114.51 M1862.11,129.22L1862.11,129.22L1862.11,129.22L1862.11,129.22L1862.11,129.22
			L1862.11,129.22z M1862.12,129.23C1862.12,129.23,1862.11,129.23,1862.12,129.23L1862.12,129.23
			C1862.11,129.23,1862.12,129.23,1862.12,129.23 M1862.11,129.22L1862.11,129.22L1862.11,129.22L1862.11,129.22L1862.11,129.22
			C1862.11,129.22,1862.11,129.22,1862.11,129.22C1862.11,129.22,1862.11,129.22,1862.11,129.22 M1851.02,137.32
			c0-0.01,0.01-0.02,0.01-0.03L1851.02,137.32C1851.02,137.32,1851.02,137.33,1851.02,137.32
			C1851.02,137.33,1851.02,137.32,1851.02,137.32 M1850.82,137.31L1850.82,137.31c0.07,0.01,0.14,0.02,0.2,0.02
			C1850.95,137.33,1850.88,137.33,1850.82,137.31L1850.82,137.31 M1850.91,142.57L1850.91,142.57c0.02,0.02,0.05,0.04,0.07,0.06
			C1850.96,142.61,1850.93,142.59,1850.91,142.57 M1855.1,151.11L1855.1,151.11c0.1,0.03,0.19,0.02,0.26-0.03
			C1855.29,151.13,1855.2,151.13,1855.1,151.11 M1869.84,156.49c-0.1,0-0.21,0-0.31,0.01c0.09-0.01,0.18-0.02,0.28-0.03
			c0.11-0.01,0.22-0.01,0.34-0.02C1870.05,156.48,1869.95,156.49,1869.84,156.49 M1874.31,155.89c0,0,0.01,0,0.01-0.01
			C1874.32,155.88,1874.32,155.88,1874.31,155.89 M1880.53,150.73L1880.53,150.73c0.01,0.04,0.01,0.08,0.01,0.12
			C1880.54,150.82,1880.54,150.77,1880.53,150.73 M1884.11,148.78c-0.35,0.01-0.52,0.52-0.94,0.36l-1.49,0.82
			c-0.03,0.02-0.06,0.03-0.1,0.04c-0.38,0.16-0.82,0.21-1.06,0.62h0c-0.18,0.02-0.35,0.04-0.52,0.06c-0.02,0.03-0.04,0.06-0.05,0.09
			c-0.01,0.03-0.03,0.05-0.05,0.08c-0.04,0.06-0.07,0.13-0.11,0.19l-0.55,0.03c-0.25,0.12-0.51,0.24-0.76,0.35
			c-0.42,0.39-0.92,0.58-1.49,0.59c-0.2,0.24-0.48,0.3-0.77,0.35c-0.1-0.01-0.2,0-0.29,0.01c-0.1,0.02-0.2,0.05-0.3,0.09
			c-0.13,0.06-0.25,0.15-0.36,0.26c-0.24,0.01-0.49,0.02-0.74,0.04c-1.18,0.62-2.52,0.72-3.77,1.1c-0.2-0.02-0.4-0.02-0.6-0.01
			c-1.25,0.05-2.46,0.51-3.72,0.54c-0.19,0-0.39,0.02-0.55,0.15c-0.02,0.02-0.04,0.03-0.05,0.05h0c-0.41,0.01-0.82,0.02-1.23,0.03
			c-1.24,0.03-2.49,0.07-3.73,0.1c-0.27,0.01-0.49-0.07-0.65-0.29l0.28-0.13c0.04-0.01,0.09-0.03,0.12-0.05
			c0.34,0.01,0.66-0.08,0.99-0.18c1.91-0.61,3.83-1.17,5.74-1.74c0.1-0.09,0.2-0.17,0.31-0.22c0.19-0.1,0.4-0.16,0.63-0.15
			c0.06,0,0.13,0,0.2,0.01h0c0.13-0.11,0.27-0.18,0.42-0.25c0.53-0.22,1.14-0.22,1.66-0.44c0.14-0.06,0.27-0.14,0.4-0.24
			c0.96,0.06,1.8-0.64,2.78-0.41c0.13-0.11,0.26-0.22,0.39-0.33c0.01,0,0.01-0.01,0.01-0.01l0,0l0,0c0,0,0,0,0,0l0,0h0
			c-0.17-0.14-0.35-0.19-0.52-0.2c0.18,0.01,0.36,0.06,0.53,0.2l0,0c-0.17-0.19-0.43-0.31-0.72-0.36c0.29,0.05,0.55,0.18,0.72,0.36
			h0c0,0,0,0,0,0l0.01,0l0,0c0.68,0.14,1.26-0.2,1.87-0.39c0.08-0.01,0.16-0.01,0.25-0.01c0.31,0.02,0.64,0.1,0.9-0.11
			c0.07-0.06,0.13-0.13,0.19-0.24c0.36-0.01,0.73-0.03,1.09-0.04c0.08,0,0.15,0,0.23,0.01c0.23,0.03,0.48,0.08,0.63-0.12
			c0.04-0.05,0.08-0.13,0.11-0.22c0.9,0.09,1.69-0.52,2.6-0.43c0.32-0.28,0.73-0.34,1.12-0.44v0c0.01,0,0.03-0.01,0.05-0.01
			c0.19-0.04,0.37-0.07,0.56-0.11v0c0.27,0.04,0.38,0.18,0.38,0.38C1884.13,148.65,1884.13,148.71,1884.11,148.78 M1869.63,150.67
			L1869.63,150.67C1869.63,150.67,1869.63,150.68,1869.63,150.67C1869.63,150.68,1869.63,150.67,1869.63,150.67 M1889.22,147.48
			c0-0.01-0.01-0.02-0.01-0.02C1889.21,147.46,1889.21,147.47,1889.22,147.48L1889.22,147.48z M1892.45,147.93L1892.45,147.93
			c0.07-0.5,0.43-0.7,0.84-0.85C1892.88,147.23,1892.52,147.43,1892.45,147.93 M1898.42,135.23c-0.05,0.01-0.1,0.02-0.15,0.02
			c-0.1,0.32-0.16,0.68-0.58,0.74c-0.18,0.26-0.37,0.51-0.55,0.77c-0.14,0.41-0.28,0.82-0.79,0.9l-0.15,0.22
			c-0.02,0.04-0.05,0.07-0.07,0.11c-0.18,0.27-0.35,0.55-0.53,0.82c-0.66,0.35-1.03,0.97-1.49,1.51c-0.13,0.13-0.26,0.27-0.39,0.4
			c-0.39,0.17-0.78,0.35-1.16,0.52h0c-1.39-0.07-2.75,0.09-4.1,0.39c-0.72,0.05-1.49-0.21-2.11,0.36h0
			c-0.36,0.01-0.72,0.03-1.08,0.04c-0.47,0.03-1.02-0.25-1.36,0.33h0c-0.24,0.02-0.47,0.04-0.71,0.05
			c-0.42,0.03-0.91-0.23-1.18,0.32h0c-0.49,0.01-0.97,0.01-1.46,0.02c0,0-0.02,0.01-0.03,0.01c-0.02,0.01-0.04,0.02-0.04,0.02
			l-0.08,0c-0.29,0.45-0.74,0.36-1.17,0.34c-0.23,0.01-0.46,0.02-0.7,0.03c-0.34,0.57-0.9,0.31-1.37,0.37l-0.08,0.02l-0.07-0.02l0,0
			c-0.27,0.27-0.61,0.35-0.97,0.37h0c-0.38,0.12-0.75,0.25-1.13,0.37c-0.63,0.19-1.26,0.38-1.89,0.57c-0.11-0.01-0.21,0-0.31,0.01
			c-0.41,0.07-0.79,0.3-1.2,0.37c-0.18,0.03-0.36,0.03-0.56-0.02c-0.68,0.43-1.51,0.42-2.24,0.73c-1.02,0.43-2.18,0.49-3.15,1.1
			c-0.03,0.02-0.05,0.03-0.08,0.05c-0.15,0.01-0.3,0.03-0.44,0.05c-0.92,0.15-1.76,0.53-2.6,0.93c-0.14,0.06-0.28,0.13-0.41,0.2
			c-0.1,0.05-0.21,0.1-0.31,0.15c-0.3,0.01-0.54,0.16-0.76,0.36c-0.07,0-0.15,0.01-0.22,0.01c-0.17,0.01-0.34,0.01-0.51,0.02
			c-0.01,0.05-0.01,0.09-0.02,0.14c0,0.01,0,0.01,0,0.02c-0.01,0.06-0.01,0.13-0.02,0.19c-0.56-0.13-0.93,0.54-1.5,0.36l0.02,0.04
			c-0.05-0.01-0.09-0.01-0.14-0.01c-0.13,0.09-0.27,0.16-0.42,0.2c-0.02,0.04-0.04,0.09-0.05,0.15h-0.08l-0.07,0.02
			c-0.05,0-0.1,0-0.16,0c-0.25,0.01-0.49,0.01-0.74,0.02c-0.01,0.04-0.01,0.09-0.02,0.13c-0.01,0.07-0.03,0.14-0.04,0.22
			c-0.01,0-0.02,0-0.03,0c-0.11,0.01-0.21,0.03-0.32,0.04c-0.02,0-0.04-0.01-0.06-0.02c-0.18-0.04-0.26-0.14-0.3-0.27
			c-0.04-0.13-0.02-0.29-0.02-0.44c0-0.34,0-0.68,0.01-1.03c0-0.28,0-0.57-0.02-0.85c-0.01-0.15,0-0.31,0-0.46
			c-0.02-0.28-0.04-0.56-0.07-0.84c-0.02-0.06-0.04-0.12-0.08-0.18c-0.05-0.1-0.13-0.2-0.22-0.29v0v0c0.03-1-0.23-1.93-0.72-2.8
			c-0.01-0.01-0.01-0.02-0.02-0.04c0-0.02-0.01-0.05-0.01-0.07c0-0.02,0-0.03-0.01-0.05c-0.07-0.59-0.22-1.14-0.65-1.53
			c-0.09-0.08-0.18-0.15-0.29-0.22c-0.04-0.07-0.07-0.13-0.1-0.2c-0.21-0.03-0.24-0.2-0.28-0.36c0-0.05,0-0.1,0-0.15v-0.04
			c0-0.06,0-0.13,0-0.19c-0.63-0.69-1.26-1.38-1.89-2.07h0c-0.4-0.21-0.79-0.43-0.91-0.92c0,0,0-0.01,0-0.01
			c0.01-0.01,0.02-0.01,0.03-0.02c0.48-0.24,1.02-0.4,1.24-0.97c0.45-0.26,0.91-0.5,1.28-0.87c0.08-0.07,0.15-0.15,0.22-0.24
			c0.35,0.06,0.44-0.4,0.76-0.38c0.01-0.11,0.02-0.22,0.03-0.33c0.11,0,0.2-0.04,0.29-0.09c0.16-0.1,0.3-0.25,0.49-0.3
			c0.05-0.01,0.1-0.02,0.16-0.01l0,0c0.7,0,1.08-0.5,1.48-0.97c0.13-0.12,0.26-0.24,0.4-0.37c0.45-0.07,0.78-0.29,0.98-0.7
			c0.62-0.38,1.31-0.64,1.83-1.17c0-0.01,0-0.02,0-0.03c0-0.02,0-0.04,0-0.06c0-0.03,0-0.06-0.01-0.08
			c0.21-0.21,0.47-0.33,0.76-0.38h0.14h0.01c0.08,0,0.16,0,0.24,0c0.35-0.39,0.91-0.52,1.23-0.95c0.04-0.05,0.07-0.11,0.1-0.17
			c0.75-0.5,1.5-1.01,2.26-1.51c0.04,0,0.08,0.01,0.12,0.01c0.24,0,0.42-0.07,0.45-0.38l0.34-0.02c0.01-0.07,0.03-0.12,0.06-0.16
			c0.17-0.26,0.62-0.23,0.74-0.55c0.51,0.07,0.81-0.25,1.09-0.6v0c1.01-0.63,2.04-1.24,3.03-1.91c0.91-0.62,1.94-1.06,2.79-1.77
			c0.09-0.08,0.19-0.16,0.27-0.24c0.81-0.25,1.45-0.8,2.2-1.16c0.04,0.01,0.08,0.02,0.12,0.03h0c0.03,0.01,0.05,0.01,0.08,0.02
			c0.12-0.02,0.24-0.03,0.36-0.05c0.01-0.07,0.01-0.15,0.02-0.22c0-0.04,0.01-0.09,0.01-0.14c1.41-0.64,2.69-1.54,4.11-2.15
			c0.92-0.39,1.77-0.95,2.65-1.44c1.37-0.41,2.63-1.05,3.88-1.71l0.66-0.35c0.68-0.26,1.36-0.52,2.04-0.78
			c0.06,0.01,0.12,0.01,0.18,0.01c0.11-0.08,0.24-0.15,0.38-0.19c0.02-0.04,0.04-0.09,0.05-0.16c0.05,0,0.1-0.01,0.15-0.04
			c0.06,0,0.11,0,0.17,0c0.13,0,0.27,0,0.4,0l0.18,0c0.07-0.12,0.13-0.23,0.19-0.35c0.06-0.01,0.13-0.01,0.19-0.02
			c0.18,0,0.36,0,0.55,0.01c0.06-0.1,0.12-0.17,0.19-0.22c0.17-0.12,0.37-0.15,0.58-0.15c0.06,0,0.12,0,0.18,0.01l0,0
			c0.53,0.01,0.92-0.5,1.48-0.41c0.07-0.07,0.15-0.13,0.22-0.2c0.01-0.01,0.03-0.03,0.04-0.04c0.02-0.02,0.04-0.04,0.06-0.06
			c0.02-0.02,0.04-0.04,0.06-0.06l0-0.01c0.17-0.04,0.33-0.07,0.5-0.1c0.69-0.14,1.38-0.25,2.08-0.33c1.48-0.17,2.96-0.22,4.46-0.12
			c0.11,0.01,0.21,0,0.32,0c0.2,0,0.4,0.02,0.57,0.17c0.18,0.05,0.36,0.1,0.54,0.15l0.19,0.05c0,0.02,0,0.05,0,0.07
			c0,0.04,0,0.07,0.01,0.1c0.44-0.08,0.71,0.35,1.11,0.39l0.1-0.02c0.01,0,0.03,0,0.04-0.01c0.03-0.01,0.05-0.01,0.08-0.01
			c0.18,0.04,0.29,0.12,0.32,0.27c0.01,0.05,0.01,0.1,0,0.15c0.07,0.05,0.14,0.1,0.22,0.16c0.53,0.36,1.04,0.73,1.31,1.34v0
			c0.03,0.03,0.05,0.06,0.07,0.1c0.07,0.11,0.15,0.22,0.22,0.33c0.02,0.03,0.04,0.05,0.05,0.08c0.07,0.1,0.13,0.19,0.19,0.29
			c0.01,0.24,0.02,0.48,0.03,0.71c0,0.11,0,0.22,0,0.34c0,0.03,0,0.06,0,0.08c0,0.15,0,0.31,0,0.46c0,0.05,0,0.09,0,0.14
			c0,0.09,0,0.18,0,0.27l0.01,0.01c-0.03,0-0.06-0.01-0.1-0.01c-0.01,0-0.02,0-0.03,0c-0.03,0-0.06-0.01-0.08-0.01
			c-0.28,0.66-0.57,1.32-0.7,2.02c-0.03,0.15-0.05,0.3-0.06,0.45c-0.55,0.2-0.09,0.99-0.7,1.16c0.02,0.79-0.31,1.45-0.78,2.05
			c-0.03,0.83-0.59,1.42-0.93,2.11c-0.07,0.23-0.15,0.47-0.22,0.7c-0.06,0.07-0.13,0.15-0.19,0.22c-0.12,0.13-0.23,0.26-0.34,0.39
			c0,0.05-0.01,0.1-0.03,0.15c0.01,0.05,0.01,0.09,0.01,0.13c-0.01,0.13-0.07,0.22-0.16,0.3c-0.06,0.05-0.13,0.1-0.2,0.15
			c-0.28,0.74-0.59,1.46-1.14,2.05c0.01,0.04,0.02,0.08,0.03,0.12c0,0.02,0.01,0.05,0.02,0.07c-0.3,0.79-0.98,1.38-1.2,2.22
			c-0.06,0.01-0.11,0.02-0.17,0.03c-0.02,0-0.04,0.01-0.06,0.01l-0.13,0.02c-0.43,1.25-1.41,2.17-1.98,3.34
			C1898.48,135.08,1898.45,135.15,1898.42,135.23 M1899.94,141.26L1899.94,141.26c1.1-0.01,2.19-0.01,3.28-0.01
			C1902.13,141.25,1901.03,141.25,1899.94,141.26 M1905.95,146.07c-0.01,0-0.01,0-0.02-0.01
			C1905.93,146.07,1905.94,146.07,1905.95,146.07L1905.95,146.07L1905.95,146.07z M1908.78,146.46L1908.78,146.46
			c0.09,0,0.18,0,0.26,0C1908.96,146.46,1908.87,146.46,1908.78,146.46 M1914.96,147.11L1914.96,147.11
			c0.07-0.02,0.15-0.01,0.23-0.02C1915.11,147.1,1915.03,147.08,1914.96,147.11 M1916.64,143.54L1916.64,143.54
			C1916.64,143.54,1916.65,143.54,1916.64,143.54L1916.64,143.54z M1920.49,145.5c-0.03-0.03-0.06-0.06-0.1-0.1
			C1920.42,145.43,1920.45,145.47,1920.49,145.5L1920.49,145.5L1920.49,145.5z M1923.1,146.81c-0.51-0.41-1.14-0.6-1.72-0.9
			C1921.96,146.21,1922.59,146.4,1923.1,146.81L1923.1,146.81z M1923.14,146.84L1923.14,146.84c0.01,0,0.03,0.01,0.05,0.02
			C1923.17,146.85,1923.16,146.84,1923.14,146.84 M1926.28,151.07L1926.28,151.07c0.03-0.07,0.05-0.15,0.08-0.23
			C1926.33,150.92,1926.31,150.99,1926.28,151.07 M1926.38,149.23L1926.38,149.23C1926.38,149.23,1926.39,149.23,1926.38,149.23
			L1926.38,149.23c0.04,0.42-0.09,0.85,0.1,1.25C1926.29,150.08,1926.42,149.65,1926.38,149.23 M1923.85,163.85
			c-0.3-0.06-0.59-0.06-0.88-0.02C1923.25,163.79,1923.55,163.79,1923.85,163.85 M1924.62,164.25L1924.62,164.25L1924.62,164.25
			C1924.62,164.25,1924.62,164.25,1924.62,164.25L1924.62,164.25C1924.62,164.25,1924.62,164.25,1924.62,164.25L1924.62,164.25
			C1924.62,164.25,1924.62,164.25,1924.62,164.25C1924.62,164.25,1924.62,164.25,1924.62,164.25 M1929.11,152.76L1929.11,152.76
			C1929.11,152.76,1929.11,152.76,1929.11,152.76C1929.11,152.76,1929.11,152.76,1929.11,152.76 M1931,153.22
			c-0.1,0.22-0.38,0.42-0.38,0.62C1930.62,153.64,1930.9,153.45,1931,153.22C1931,153.22,1931,153.23,1931,153.22
			C1931,153.23,1931,153.22,1931,153.22"/>
	</g>
</g>
</svg>
