<?xml version="1.0" encoding="utf-8"?>
<!-- Generator: Adobe Illustrator 26.0.1, SVG Export Plug-In . SVG Version: 6.00 Build 0)  -->
<svg version="1.1" id="Layer_1" xmlns="http://www.w3.org/2000/svg" xmlns:xlink="http://www.w3.org/1999/xlink" x="0px" y="0px"
	 viewBox="0 0 1685.65 479.18" style="enable-background:new 0 0 1685.65 479.18;" xml:space="preserve">
<style type="text/css">
	.st0{fill:#F16145;}
	.st1{fill:#FFC35A;}
	.st2{enable-background:new    ;}
	.st3{fill:#FFFFFF;}
	.st4{fill:#373737;}
	.st5{fill:none;stroke:#F16145;stroke-width:5.1465;}
	.st6{fill:#404040;}
	.st7{fill:none;stroke:#70C5D9;stroke-width:5.0331;stroke-miterlimit:10;}
	.st8{fill:#356AA0;}
	.st9{fill:#41B175;}
	.st10{fill:none;stroke:#70C5D9;stroke-width:5.0999;stroke-miterlimit:10;}
	.st11{fill:none;stroke:#70C5D9;stroke-width:6.0031;stroke-miterlimit:10;}
	.st12{fill:none;stroke:#70C5D9;stroke-width:5.9244;stroke-miterlimit:10;}
	.st13{fill:none;stroke:#70C5D9;stroke-width:4.0873;stroke-miterlimit:10;}
</style>
<g id="Group_202_00000019656281024024039160000002895516130372353727_" transform="translate(-154.301 -3775)">
	<g id="Group_200_00000114056993309883580570000008341790874410451896_" transform="translate(-21.027 0.026)">
		<path id="Path_997_00000085246324529338999860000002451476658891460537_" class="st0" d="M428.51,4091.9H191.56v-109.05h236.95
			V4091.9z"/>
		<path id="Path_1000_00000029012693504841104420000007615764832785509515_" class="st0" d="M902.4,4091.9H665.45v-109.05H902.4
			V4091.9z"/>
		<path id="Path_1002_00000117654553249808719300000003569200278020061114_" class="st0" d="M1376.29,4091.9h-236.95v-109.05h236.95
			V4091.9z"/>
		<path id="Path_1003_00000147209168427739156900000018432999383008085938_" class="st0" d="M1850.18,4091.9h-236.95v-109.05h236.95
			V4091.9z"/>
		<path id="Path_998_00000067212009676491924970000017383903505203983522_" class="st1" d="M665.45,4091.9H428.51v-109.05h236.95
			V4091.9z"/>
		<path id="Path_999_00000170964905402101413980000016287580004827184821_" class="st1" d="M1139.34,4091.9H902.4v-109.05h236.95
			V4091.9z"/>
		<path id="Path_1001_00000080183142263222123940000010313613099377977780_" class="st1" d="M1613.23,4091.9h-236.95v-109.05h236.95
			V4091.9z"/>
		<path id="Polygon_4_00000007390844920917724880000014578242694871230137_" class="st0" d="M445.46,4036.88l-17.5,16.98v-33.97
			L445.46,4036.88z"/>
		<path id="Polygon_7_00000158004334631882946370000006767041687915193527_" class="st0" d="M918.94,4036.88l-17.5,16.98v-33.97
			L918.94,4036.88z"/>
		<path id="Polygon_9_00000130618323036182038650000009211105713198089150_" class="st0" d="M1392.42,4036.88l-17.5,16.98v-33.97
			L1392.42,4036.88z"/>
		<path id="Polygon_5_00000065065106176692987460000007487698680180603533_" class="st1" d="M682.2,4036.88l-17.5,16.98v-33.97
			L682.2,4036.88z"/>
		<path id="Polygon_6_00000092426242209291014600000013449805068880682411_" class="st1" d="M1155.68,4036.88l-17.5,16.98v-33.97
			L1155.68,4036.88z"/>
		<path id="Polygon_8_00000065067318183955260700000000090975792685608614_" class="st1" d="M1629.16,4036.88l-17.5,16.98v-33.97
			L1629.16,4036.88z"/>
	</g>
	<g class="st2">
		<path class="st3" d="M219.35,4025.61h5.81l8.4,14.55v-14.55H238v22.08h-5l-9.2-15.72v15.72h-4.45V4025.61z"/>
		<path class="st3" d="M241.21,4039.78v-0.25c0-5.07,3.68-8.37,8.52-8.37s8.49,3.24,8.49,8.28v0.25c0,5.1-3.68,8.34-8.52,8.34
			C244.89,4048.03,241.21,4044.82,241.21,4039.78z M253.69,4039.72v-0.22c0-3.09-1.45-4.94-3.95-4.94c-2.47,0-3.95,1.79-3.95,4.88
			v0.25c0,3.09,1.42,4.94,3.95,4.94C252.24,4044.63,253.69,4042.78,253.69,4039.72z"/>
		<path class="st3" d="M259.06,4031.54h4.79l3.86,11.55l3.83-11.55h4.32l-5.87,16.15h-5.03L259.06,4031.54z"/>
		<path class="st3" d="M276.51,4039.81v-0.25c0-5.1,3.61-8.4,8.31-8.4c4.17,0,7.88,2.44,7.88,8.21v1.24h-11.64
			c0.12,2.69,1.57,4.23,4.01,4.23c2.07,0,3.09-0.9,3.37-2.25h4.23c-0.52,3.49-3.3,5.44-7.72,5.44
			C280.06,4048.03,276.51,4044.97,276.51,4039.81z M288.34,4037.87c-0.15-2.44-1.39-3.61-3.52-3.61c-2.01,0-3.37,1.33-3.71,3.61
			H288.34z"/>
		<path class="st3" d="M295.62,4031.54h4.48v2.47c0.8-1.51,2.53-2.84,4.94-2.84c2.13,0,3.74,0.9,4.51,2.81
			c1.3-1.95,3.4-2.81,5.44-2.81c3,0,5.31,1.88,5.31,6.18v10.35h-4.45v-9.85c0-2.07-0.93-3-2.53-3c-1.73,0-3.12,1.11-3.12,3.3v9.54
			h-4.45v-9.85c0-2.07-0.96-3-2.53-3c-1.73,0-3.12,1.11-3.12,3.3v9.54h-4.48V4031.54z"/>
		<path class="st3" d="M328.6,4045.12v2.56h-4.48v-23.47h4.48v9.85c0.9-1.54,2.78-2.9,5.16-2.9c3.95,0,7.04,2.93,7.04,8.28v0.25
			c0,5.34-3.03,8.34-7.04,8.34C331.26,4048.03,329.43,4046.79,328.6,4045.12z M336.26,4039.72v-0.25c0-3.27-1.61-4.88-3.86-4.88
			c-2.35,0-3.95,1.64-3.95,4.88v0.25c0,3.24,1.54,4.82,3.98,4.82C334.9,4044.54,336.26,4042.87,336.26,4039.72z"/>
		<path class="st3" d="M342.8,4039.81v-0.25c0-5.1,3.61-8.4,8.31-8.4c4.17,0,7.88,2.44,7.88,8.21v1.24h-11.64
			c0.12,2.69,1.58,4.23,4.01,4.23c2.07,0,3.09-0.9,3.37-2.25h4.23c-0.53,3.49-3.3,5.44-7.72,5.44
			C346.36,4048.03,342.8,4044.97,342.8,4039.81z M354.63,4037.87c-0.15-2.44-1.39-3.61-3.52-3.61c-2.01,0-3.37,1.33-3.71,3.61
			H354.63z"/>
		<path class="st3" d="M361.92,4031.54h4.48v3.09c1.02-2.16,2.59-3.3,5.22-3.34v4.17c-3.3-0.03-5.22,1.05-5.22,4.14v8.09h-4.48
			V4031.54z"/>
	</g>
	<g class="st2">
		<path class="st3" d="M708.79,4047.29v-3.83c0.74,0.28,1.48,0.53,2.78,0.53c1.88,0,3.12-0.96,3.12-3.49v-14.89h5.03v14.95
			c0,5-2.72,7.41-7.26,7.41C710.55,4047.97,709.56,4047.69,708.79,4047.29z"/>
		<path class="st3" d="M722.59,4043.21c0-3.77,3.46-5.19,8.4-5.19h1.82v-0.65c0-1.92-0.59-2.96-2.62-2.96
			c-1.76,0-2.56,0.9-2.75,2.29h-4.23c0.28-3.83,3.3-5.53,7.26-5.53s6.76,1.61,6.76,5.99v10.53h-4.35v-1.95
			c-0.93,1.3-2.35,2.29-4.88,2.29C725.06,4048.03,722.59,4046.61,722.59,4043.21z M732.81,4042.04v-1.36h-1.73
			c-2.59,0-4.11,0.56-4.11,2.29c0,1.17,0.71,1.95,2.35,1.95C731.3,4044.91,732.81,4043.83,732.81,4042.04z"/>
		<path class="st3" d="M741.06,4031.54h4.48v2.56c0.8-1.61,2.56-2.93,5.25-2.93c3.18,0,5.44,1.91,5.44,6.24v10.28h-4.48v-9.64
			c0-2.19-0.87-3.24-2.84-3.24c-1.91,0-3.37,1.17-3.37,3.55v9.33h-4.48V4031.54z"/>
		<path class="st3" d="M759.92,4041.94v-10.41h4.45v9.79c0,2.19,0.9,3.24,2.81,3.24c1.88,0,3.37-1.17,3.37-3.55v-9.48H775v16.15
			h-4.45v-2.53c-0.83,1.64-2.47,2.87-5.13,2.87C762.27,4048.03,759.92,4046.17,759.92,4041.94z"/>
		<path class="st3" d="M777.9,4043.21c0-3.77,3.46-5.19,8.4-5.19h1.82v-0.65c0-1.92-0.59-2.96-2.62-2.96c-1.76,0-2.56,0.9-2.75,2.29
			h-4.23c0.28-3.83,3.3-5.53,7.26-5.53s6.76,1.61,6.76,5.99v10.53h-4.35v-1.95c-0.93,1.3-2.35,2.29-4.88,2.29
			C780.37,4048.03,777.9,4046.61,777.9,4043.21z M788.12,4042.04v-1.36h-1.73c-2.59,0-4.11,0.56-4.11,2.29
			c0,1.17,0.71,1.95,2.35,1.95C786.6,4044.91,788.12,4043.83,788.12,4042.04z"/>
		<path class="st3" d="M796.36,4031.54h4.48v3.09c1.02-2.16,2.59-3.3,5.22-3.34v4.17c-3.3-0.03-5.22,1.05-5.22,4.14v8.09h-4.48
			V4031.54z"/>
		<path class="st3" d="M814.02,4046.05l-6.42-14.52h4.82l3.92,9.7l3.61-9.7h4.29l-8.74,21.65h-4.32L814.02,4046.05z"/>
	</g>
	<g class="st2">
		<path class="st3" d="M1192.72,4025.61h6.61l5.16,13.74l5.1-13.74h6.49v22.08h-4.97v-15.5l-6.12,15.5h-1.64l-6.15-15.5v15.5h-4.48
			V4025.61z"/>
		<path class="st3" d="M1219.24,4043.21c0-3.77,3.46-5.19,8.4-5.19h1.82v-0.65c0-1.92-0.59-2.96-2.63-2.96
			c-1.76,0-2.56,0.9-2.75,2.29h-4.23c0.28-3.83,3.3-5.53,7.26-5.53s6.76,1.61,6.76,5.99v10.53h-4.35v-1.95
			c-0.93,1.3-2.35,2.29-4.88,2.29C1221.71,4048.03,1219.24,4046.61,1219.24,4043.21z M1229.46,4042.04v-1.36h-1.73
			c-2.59,0-4.11,0.56-4.11,2.29c0,1.17,0.71,1.95,2.35,1.95C1227.95,4044.91,1229.46,4043.83,1229.46,4042.04z"/>
		<path class="st3" d="M1237.71,4031.54h4.48v3.09c1.02-2.16,2.59-3.3,5.22-3.34v4.17c-3.3-0.03-5.22,1.05-5.22,4.14v8.09h-4.48
			V4031.54z"/>
		<path class="st3" d="M1249.04,4039.81v-0.25c0-5.22,3.74-8.4,8.34-8.4c3.74,0,7.2,1.64,7.6,6.27h-4.23
			c-0.31-1.88-1.45-2.75-3.27-2.75c-2.32,0-3.86,1.73-3.86,4.82v0.25c0,3.24,1.45,4.91,3.95,4.91c1.79,0,3.24-1.05,3.46-3.12h4.05
			c-0.25,3.83-3.03,6.49-7.72,6.49C1252.62,4048.03,1249.04,4045.09,1249.04,4039.81z"/>
		<path class="st3" d="M1267.88,4024.22h4.48v9.88c0.8-1.61,2.56-2.93,5.25-2.93c3.18,0,5.44,1.91,5.44,6.24v10.28h-4.48v-9.64
			c0-2.19-0.86-3.24-2.84-3.24c-1.92,0-3.37,1.17-3.37,3.55v9.33h-4.48V4024.22z"/>
	</g>
	<g class="st2">
		<path class="st3" d="M1680.19,4025.61h6.61l5.16,13.74l5.1-13.74h6.49v22.08h-4.97v-15.5l-6.12,15.5h-1.64l-6.15-15.5v15.5h-4.48
			V4025.61z"/>
		<path class="st3" d="M1706.72,4043.21c0-3.77,3.46-5.19,8.4-5.19h1.82v-0.65c0-1.92-0.59-2.96-2.62-2.96
			c-1.76,0-2.56,0.9-2.75,2.29h-4.23c0.28-3.83,3.3-5.53,7.26-5.53s6.76,1.61,6.76,5.99v10.53H1717v-1.95
			c-0.93,1.3-2.35,2.29-4.88,2.29C1709.19,4048.03,1706.72,4046.61,1706.72,4043.21z M1716.94,4042.04v-1.36h-1.73
			c-2.59,0-4.11,0.56-4.11,2.29c0,1.17,0.71,1.95,2.35,1.95C1715.43,4044.91,1716.94,4043.83,1716.94,4042.04z"/>
		<path class="st3" d="M1729.6,4046.05l-6.42-14.52h4.82l3.92,9.7l3.61-9.7h4.29l-8.74,21.65h-4.32L1729.6,4046.05z"/>
	</g>
	<g class="st2">
		<path class="st4" d="M455.14,4025.61h7.23c7.75,0,11.58,4.2,11.58,10.81v0.25c0,6.61-3.86,11.03-11.61,11.03h-7.2V4025.61z
			 M462.18,4043.8c4.45,0,6.55-2.5,6.55-7.07v-0.25c0-4.54-1.95-6.98-6.61-6.98h-1.98v14.3H462.18z"/>
		<path class="st4" d="M476.17,4039.81v-0.25c0-5.1,3.61-8.4,8.31-8.4c4.17,0,7.88,2.44,7.88,8.21v1.24h-11.64
			c0.12,2.69,1.57,4.23,4.01,4.23c2.07,0,3.09-0.9,3.37-2.25h4.23c-0.52,3.49-3.3,5.44-7.72,5.44
			C479.72,4048.03,476.17,4044.97,476.17,4039.81z M487.99,4037.87c-0.15-2.44-1.39-3.61-3.52-3.61c-2.01,0-3.37,1.33-3.71,3.61
			H487.99z"/>
		<path class="st4" d="M494.29,4039.81v-0.25c0-5.22,3.74-8.4,8.34-8.4c3.74,0,7.2,1.64,7.6,6.27H506
			c-0.31-1.88-1.45-2.75-3.27-2.75c-2.32,0-3.86,1.73-3.86,4.82v0.25c0,3.24,1.45,4.91,3.95,4.91c1.79,0,3.24-1.05,3.46-3.12h4.05
			c-0.25,3.83-3.03,6.49-7.72,6.49C497.87,4048.03,494.29,4045.09,494.29,4039.81z"/>
		<path class="st4" d="M512.14,4039.81v-0.25c0-5.1,3.61-8.4,8.31-8.4c4.17,0,7.88,2.44,7.88,8.21v1.24h-11.64
			c0.12,2.69,1.57,4.23,4.01,4.23c2.07,0,3.09-0.9,3.37-2.25h4.23c-0.52,3.49-3.3,5.44-7.72,5.44
			C515.69,4048.03,512.14,4044.97,512.14,4039.81z M523.97,4037.87c-0.15-2.44-1.39-3.61-3.52-3.61c-2.01,0-3.37,1.33-3.71,3.61
			H523.97z"/>
		<path class="st4" d="M531.25,4031.54h4.48v2.47c0.8-1.51,2.53-2.84,4.94-2.84c2.13,0,3.74,0.9,4.51,2.81
			c1.3-1.95,3.4-2.81,5.44-2.81c3,0,5.31,1.88,5.31,6.18v10.35h-4.45v-9.85c0-2.07-0.93-3-2.53-3c-1.73,0-3.12,1.11-3.12,3.3v9.54
			h-4.45v-9.85c0-2.07-0.96-3-2.53-3c-1.73,0-3.12,1.11-3.12,3.3v9.54h-4.48V4031.54z"/>
		<path class="st4" d="M564.23,4045.12v2.56h-4.48v-23.47h4.48v9.85c0.9-1.54,2.78-2.9,5.16-2.9c3.95,0,7.04,2.93,7.04,8.28v0.25
			c0,5.34-3.03,8.34-7.04,8.34C566.89,4048.03,565.07,4046.79,564.23,4045.12z M571.89,4039.72v-0.25c0-3.27-1.61-4.88-3.86-4.88
			c-2.35,0-3.95,1.64-3.95,4.88v0.25c0,3.24,1.54,4.82,3.98,4.82C570.53,4044.54,571.89,4042.87,571.89,4039.72z"/>
		<path class="st4" d="M578.44,4039.81v-0.25c0-5.1,3.61-8.4,8.31-8.4c4.17,0,7.88,2.44,7.88,8.21v1.24h-11.64
			c0.12,2.69,1.58,4.23,4.01,4.23c2.07,0,3.09-0.9,3.37-2.25h4.23c-0.53,3.49-3.3,5.44-7.72,5.44
			C581.99,4048.03,578.44,4044.97,578.44,4039.81z M590.26,4037.87c-0.15-2.44-1.39-3.61-3.52-3.61c-2.01,0-3.37,1.33-3.71,3.61
			H590.26z"/>
		<path class="st4" d="M597.55,4031.54h4.48v3.09c1.02-2.16,2.59-3.3,5.22-3.34v4.17c-3.3-0.03-5.22,1.05-5.22,4.14v8.09h-4.48
			V4031.54z"/>
	</g>
	<g class="st2">
		<path class="st4" d="M937.4,4025.61h14.18v3.92h-9.17v5.84h7.26v3.77h-7.26v8.55h-5V4025.61z"/>
		<path class="st4" d="M952.74,4039.81v-0.25c0-5.1,3.61-8.4,8.31-8.4c4.17,0,7.88,2.44,7.88,8.21v1.24h-11.64
			c0.12,2.69,1.57,4.23,4.01,4.23c2.07,0,3.09-0.9,3.37-2.25h4.23c-0.52,3.49-3.3,5.44-7.72,5.44
			C956.3,4048.03,952.74,4044.97,952.74,4039.81z M964.57,4037.87c-0.15-2.44-1.39-3.61-3.52-3.61c-2.01,0-3.37,1.33-3.71,3.61
			H964.57z"/>
		<path class="st4" d="M976.34,4045.12v2.56h-4.48v-23.47h4.48v9.85c0.9-1.54,2.78-2.9,5.16-2.9c3.95,0,7.04,2.93,7.04,8.28v0.25
			c0,5.34-3.03,8.34-7.04,8.34C978.99,4048.03,977.17,4046.79,976.34,4045.12z M983.99,4039.72v-0.25c0-3.27-1.61-4.88-3.86-4.88
			c-2.35,0-3.95,1.64-3.95,4.88v0.25c0,3.24,1.54,4.82,3.98,4.82C982.64,4044.54,983.99,4042.87,983.99,4039.72z"/>
		<path class="st4" d="M991.53,4031.54h4.48v3.09c1.02-2.16,2.59-3.3,5.22-3.34v4.17c-3.3-0.03-5.22,1.05-5.22,4.14v8.09h-4.48
			V4031.54z"/>
		<path class="st4" d="M1004.03,4041.94v-10.41h4.45v9.79c0,2.19,0.9,3.24,2.81,3.24c1.88,0,3.37-1.17,3.37-3.55v-9.48h4.45v16.15
			h-4.45v-2.53c-0.83,1.64-2.47,2.87-5.13,2.87C1006.38,4048.03,1004.03,4046.17,1004.03,4041.94z"/>
		<path class="st4" d="M1022,4043.21c0-3.77,3.46-5.19,8.4-5.19h1.82v-0.65c0-1.92-0.59-2.96-2.62-2.96c-1.76,0-2.56,0.9-2.75,2.29
			h-4.23c0.28-3.83,3.3-5.53,7.26-5.53s6.76,1.61,6.76,5.99v10.53h-4.35v-1.95c-0.93,1.3-2.35,2.29-4.88,2.29
			C1024.48,4048.03,1022,4046.61,1022,4043.21z M1032.23,4042.04v-1.36h-1.73c-2.59,0-4.11,0.56-4.11,2.29
			c0,1.17,0.71,1.95,2.35,1.95C1030.71,4044.91,1032.23,4043.83,1032.23,4042.04z"/>
		<path class="st4" d="M1040.47,4031.54h4.48v3.09c1.02-2.16,2.59-3.3,5.22-3.34v4.17c-3.3-0.03-5.22,1.05-5.22,4.14v8.09h-4.48
			V4031.54z"/>
		<path class="st4" d="M1058.13,4046.05l-6.42-14.52h4.82l3.92,9.7l3.61-9.7h4.29l-8.74,21.65h-4.32L1058.13,4046.05z"/>
	</g>
	<g class="st2">
		<path class="st4" d="M1445.3,4025.61h6.52l7.17,22.08h-5.22l-1.51-4.91h-8l-1.51,4.91h-4.69L1445.3,4025.61z M1445.33,4039.23
			h5.84l-2.9-9.54L1445.33,4039.23z"/>
		<path class="st4" d="M1461.61,4031.54h4.48v2.53c0.9-1.54,2.78-2.9,5.16-2.9c3.95,0,7.04,2.93,7.04,8.28v0.25
			c0,5.34-3.03,8.34-7.04,8.34c-2.5,0-4.32-1.24-5.16-2.81v7.97h-4.48V4031.54z M1473.74,4039.72v-0.25c0-3.27-1.61-4.88-3.86-4.88
			c-2.35,0-3.95,1.64-3.95,4.88v0.25c0,3.24,1.54,4.82,3.98,4.82C1472.38,4044.54,1473.74,4042.87,1473.74,4039.72z"/>
		<path class="st4" d="M1481.28,4031.54h4.48v3.09c1.02-2.16,2.59-3.3,5.22-3.34v4.17c-3.3-0.03-5.22,1.05-5.22,4.14v8.09h-4.48
			V4031.54z"/>
		<path class="st4" d="M1493.69,4026.9c0-1.39,1.11-2.44,2.53-2.44c1.45,0,2.56,1.05,2.56,2.44c0,1.39-1.11,2.44-2.56,2.44
			C1494.8,4029.34,1493.69,4028.29,1493.69,4026.9z M1494.03,4031.54h4.45v16.15h-4.45V4031.54z"/>
		<path class="st4" d="M1502.71,4024.22h4.45v23.47h-4.45V4024.22z"/>
	</g>
	<path id="Path_1004_00000023245992883711755760000001929893603621386686_" class="st5" d="M294.77,4091.92v86.8H998.3v-86.8"/>
	<path id="Path_1005_00000132053944757480380170000009491209170948821135_" class="st5" d="M1237.61,4091.92v86.8"/>
	<path id="Path_1006_00000091002935658661895580000004717145443640577974_" class="st5" d="M1473.32,3896.07v86.8"/>
	<g class="st2">
		<path class="st6" d="M526.64,4209.85h5.03v22.08h-5.03V4209.85z"/>
		<path class="st6" d="M535.2,4224.09v-0.25c0-5.31,3.06-8.43,7.1-8.43c2.59,0,4.2,1.14,5.1,2.78v-9.73h4.45v23.47h-4.45v-2.69
			c-0.83,1.64-2.81,3.03-5.19,3.03C538.28,4232.27,535.2,4229.46,535.2,4224.09z M547.52,4223.93v-0.25c0-3.21-1.42-4.85-3.86-4.85
			c-2.5,0-3.89,1.7-3.89,4.91v0.25c0,3.21,1.54,4.79,3.77,4.79C545.88,4228.78,547.52,4227.21,547.52,4223.93z"/>
		<path class="st6" d="M554.84,4224.06v-0.25c0-5.1,3.61-8.4,8.31-8.4c4.17,0,7.88,2.44,7.88,8.21v1.24h-11.64
			c0.12,2.69,1.57,4.23,4.01,4.23c2.07,0,3.09-0.9,3.37-2.25h4.23c-0.52,3.49-3.3,5.44-7.72,5.44
			C558.39,4232.27,554.84,4229.21,554.84,4224.06z M566.66,4222.11c-0.15-2.44-1.39-3.61-3.52-3.61c-2.01,0-3.37,1.33-3.71,3.61
			H566.66z"/>
		<path class="st6" d="M573.05,4227.45c0-3.77,3.46-5.19,8.4-5.19h1.82v-0.65c0-1.91-0.59-2.96-2.62-2.96
			c-1.76,0-2.56,0.9-2.75,2.29h-4.23c0.28-3.83,3.3-5.53,7.26-5.53s6.76,1.61,6.76,5.99v10.53h-4.35v-1.95
			c-0.93,1.3-2.35,2.29-4.88,2.29C575.52,4232.27,573.05,4230.85,573.05,4227.45z M583.28,4226.28v-1.36h-1.73
			c-2.59,0-4.11,0.56-4.11,2.29c0,1.17,0.71,1.95,2.35,1.95C581.76,4229.15,583.28,4228.07,583.28,4226.28z"/>
		<path class="st6" d="M597.39,4225.01h4.79c0.22,1.98,1.05,3.61,4.32,3.61c2.19,0,3.64-1.2,3.64-2.93c0-1.76-0.93-2.38-4.17-2.87
			c-5.65-0.74-7.97-2.44-7.97-6.7c0-3.77,3.15-6.58,8.03-6.58c4.97,0,7.88,2.22,8.28,6.61h-4.6c-0.31-2.01-1.48-2.93-3.68-2.93
			s-3.3,1.02-3.3,2.5c0,1.58,0.71,2.32,4.11,2.81c5.34,0.68,8.09,2.13,8.09,6.7c0,3.92-3.21,7.04-8.43,7.04
			C600.44,4232.27,597.66,4229.43,597.39,4225.01z"/>
		<path class="st6" d="M617.86,4226.19v-10.41h4.45v9.79c0,2.19,0.9,3.24,2.81,3.24c1.88,0,3.37-1.17,3.37-3.55v-9.48h4.45v16.15
			h-4.45v-2.53c-0.83,1.64-2.47,2.87-5.13,2.87C620.21,4232.27,617.86,4230.42,617.86,4226.19z"/>
		<path class="st6" d="M641.36,4229.37v2.56h-4.48v-23.47h4.48v9.85c0.9-1.54,2.78-2.9,5.16-2.9c3.95,0,7.04,2.93,7.04,8.28v0.25
			c0,5.34-3.03,8.34-7.04,8.34C644.01,4232.27,642.19,4231.04,641.36,4229.37z M649.02,4223.96v-0.25c0-3.27-1.61-4.88-3.86-4.88
			c-2.35,0-3.95,1.64-3.95,4.88v0.25c0,3.24,1.54,4.82,3.98,4.82C647.66,4228.78,649.02,4227.12,649.02,4223.96z"/>
		<path class="st6" d="M656.55,4215.78h4.48v2.47c0.8-1.51,2.53-2.84,4.94-2.84c2.13,0,3.74,0.9,4.51,2.81
			c1.3-1.95,3.4-2.81,5.44-2.81c3,0,5.31,1.88,5.31,6.18v10.35h-4.45v-9.85c0-2.07-0.93-3-2.53-3c-1.73,0-3.12,1.11-3.12,3.3v9.54
			h-4.45v-9.85c0-2.07-0.96-3-2.53-3c-1.73,0-3.12,1.11-3.12,3.3v9.54h-4.48V4215.78z"/>
		<path class="st6" d="M684.84,4211.15c0-1.39,1.11-2.44,2.53-2.44c1.45,0,2.56,1.05,2.56,2.44s-1.11,2.44-2.56,2.44
			C685.95,4213.59,684.84,4212.54,684.84,4211.15z M685.17,4215.78h4.45v16.15h-4.45V4215.78z"/>
		<path class="st6" d="M692.55,4226.87h4.17c0.19,1.45,0.9,2.29,2.84,2.29c1.73,0,2.53-0.65,2.53-1.76c0-1.11-0.96-1.58-3.27-1.92
			c-4.29-0.65-5.96-1.88-5.96-5.03c0-3.37,3.09-5.03,6.39-5.03c3.58,0,6.27,1.3,6.67,5h-4.11c-0.25-1.33-0.99-1.95-2.53-1.95
			c-1.45,0-2.29,0.68-2.29,1.67c0,1.02,0.77,1.42,3.12,1.76c4.05,0.59,6.27,1.61,6.27,5.06c0,3.49-2.53,5.31-6.79,5.31
			C695.24,4232.27,692.71,4230.36,692.55,4226.87z"/>
		<path class="st6" d="M708.06,4226.87h4.17c0.19,1.45,0.9,2.29,2.84,2.29c1.73,0,2.53-0.65,2.53-1.76c0-1.11-0.96-1.58-3.27-1.92
			c-4.29-0.65-5.96-1.88-5.96-5.03c0-3.37,3.09-5.03,6.39-5.03c3.58,0,6.27,1.3,6.67,5h-4.11c-0.25-1.33-0.99-1.95-2.53-1.95
			c-1.45,0-2.29,0.68-2.29,1.67c0,1.02,0.77,1.42,3.12,1.76c4.05,0.59,6.27,1.61,6.27,5.06c0,3.49-2.53,5.31-6.79,5.31
			C710.74,4232.27,708.21,4230.36,708.06,4226.87z"/>
		<path class="st6" d="M724.51,4211.15c0-1.39,1.11-2.44,2.53-2.44c1.45,0,2.56,1.05,2.56,2.44s-1.11,2.44-2.56,2.44
			C725.63,4213.59,724.51,4212.54,724.51,4211.15z M724.85,4215.78h4.45v16.15h-4.45V4215.78z"/>
		<path class="st6" d="M732.42,4224.03v-0.25c0-5.06,3.68-8.37,8.52-8.37s8.49,3.24,8.49,8.28v0.25c0,5.1-3.68,8.34-8.52,8.34
			C736.09,4232.27,732.42,4229.06,732.42,4224.03z M744.9,4223.96v-0.22c0-3.09-1.45-4.94-3.95-4.94c-2.47,0-3.95,1.79-3.95,4.88
			v0.25c0,3.09,1.42,4.94,3.95,4.94C743.44,4228.88,744.9,4227.02,744.9,4223.96z"/>
		<path class="st6" d="M752.43,4215.78h4.48v2.56c0.8-1.61,2.56-2.93,5.25-2.93c3.18,0,5.44,1.91,5.44,6.24v10.28h-4.48v-9.64
			c0-2.19-0.86-3.24-2.84-3.24c-1.92,0-3.37,1.17-3.37,3.55v9.33h-4.48V4215.78z"/>
	</g>
	<g class="st2">
		<path class="st6" d="M1175.27,4225.01h4.79c0.22,1.98,1.05,3.61,4.32,3.61c2.19,0,3.64-1.2,3.64-2.93c0-1.76-0.93-2.38-4.17-2.87
			c-5.65-0.74-7.97-2.44-7.97-6.7c0-3.77,3.15-6.58,8.03-6.58c4.97,0,7.88,2.22,8.28,6.61h-4.6c-0.31-2.01-1.48-2.93-3.67-2.93
			s-3.3,1.02-3.3,2.5c0,1.58,0.71,2.32,4.11,2.81c5.34,0.68,8.09,2.13,8.09,6.7c0,3.92-3.21,7.04-8.43,7.04
			C1178.33,4232.27,1175.55,4229.43,1175.27,4225.01z"/>
		<path class="st6" d="M1196.02,4208.46h4.48v9.88c0.8-1.61,2.56-2.93,5.25-2.93c3.18,0,5.44,1.91,5.44,6.24v10.28h-4.48v-9.64
			c0-2.19-0.86-3.24-2.84-3.24c-1.92,0-3.37,1.17-3.37,3.55v9.33h-4.48V4208.46z"/>
		<path class="st6" d="M1214.02,4224.03v-0.25c0-5.06,3.67-8.37,8.52-8.37c4.85,0,8.49,3.24,8.49,8.28v0.25
			c0,5.1-3.67,8.34-8.52,8.34C1217.7,4232.27,1214.02,4229.06,1214.02,4224.03z M1226.5,4223.96v-0.22c0-3.09-1.45-4.94-3.95-4.94
			c-2.47,0-3.95,1.79-3.95,4.88v0.25c0,3.09,1.42,4.94,3.95,4.94C1225.05,4228.88,1226.5,4227.02,1226.5,4223.96z"/>
		<path class="st6" d="M1234.03,4215.78h4.48v3.09c1.02-2.16,2.59-3.3,5.22-3.34v4.17c-3.3-0.03-5.22,1.05-5.22,4.14v8.09h-4.48
			V4215.78z"/>
		<path class="st6" d="M1247.49,4227.15v-8.18h-2.07v-3.18h2.07v-3.49h4.45v3.49h3.4v3.18h-3.4v7.78c0,1.3,0.65,1.92,1.79,1.92
			c0.68,0,1.17-0.09,1.7-0.31v3.46c-0.62,0.22-1.51,0.43-2.72,0.43C1249.32,4232.24,1247.49,4230.51,1247.49,4227.15z"/>
		<path class="st6" d="M1258.58,4208.46h4.45v23.47h-4.45V4208.46z"/>
		<path class="st6" d="M1266.89,4211.15c0-1.39,1.11-2.44,2.53-2.44c1.45,0,2.56,1.05,2.56,2.44s-1.11,2.44-2.56,2.44
			C1268,4213.59,1266.89,4212.54,1266.89,4211.15z M1267.23,4215.78h4.45v16.15h-4.45V4215.78z"/>
		<path class="st6" d="M1274.61,4226.87h4.17c0.18,1.45,0.9,2.29,2.84,2.29c1.73,0,2.53-0.65,2.53-1.76c0-1.11-0.96-1.58-3.27-1.92
			c-4.29-0.65-5.96-1.88-5.96-5.03c0-3.37,3.09-5.03,6.39-5.03c3.58,0,6.27,1.3,6.67,5h-4.11c-0.25-1.33-0.99-1.95-2.53-1.95
			c-1.45,0-2.29,0.68-2.29,1.67c0,1.02,0.77,1.42,3.12,1.76c4.05,0.59,6.27,1.61,6.27,5.06c0,3.49-2.53,5.31-6.79,5.31
			C1277.29,4232.27,1274.76,4230.36,1274.61,4226.87z"/>
		<path class="st6" d="M1291.96,4227.15v-8.18h-2.07v-3.18h2.07v-3.49h4.45v3.49h3.4v3.18h-3.4v7.78c0,1.3,0.65,1.92,1.79,1.92
			c0.68,0,1.17-0.09,1.7-0.31v3.46c-0.62,0.22-1.51,0.43-2.72,0.43C1293.78,4232.24,1291.96,4230.51,1291.96,4227.15z"/>
	</g>
	<g class="st2">
		<path class="st6" d="M1621.68,4209.85h14.18v3.92h-9.17v5.84h7.26v3.77h-7.26v8.55h-5V4209.85z"/>
		<path class="st6" d="M1638.26,4211.15c0-1.39,1.11-2.44,2.53-2.44c1.45,0,2.56,1.05,2.56,2.44s-1.11,2.44-2.56,2.44
			C1639.37,4213.59,1638.26,4212.54,1638.26,4211.15z M1638.6,4215.78h4.45v16.15h-4.45V4215.78z"/>
		<path class="st6" d="M1647.15,4215.78h4.48v2.56c0.8-1.61,2.56-2.93,5.25-2.93c3.18,0,5.44,1.91,5.44,6.24v10.28h-4.48v-9.64
			c0-2.19-0.86-3.24-2.84-3.24c-1.92,0-3.37,1.17-3.37,3.55v9.33h-4.48V4215.78z"/>
		<path class="st6" d="M1665.09,4227.45c0-3.77,3.46-5.19,8.4-5.19h1.82v-0.65c0-1.91-0.59-2.96-2.63-2.96
			c-1.76,0-2.56,0.9-2.75,2.29h-4.23c0.28-3.83,3.3-5.53,7.26-5.53s6.76,1.61,6.76,5.99v10.53h-4.35v-1.95
			c-0.93,1.3-2.35,2.29-4.88,2.29C1667.56,4232.27,1665.09,4230.85,1665.09,4227.45z M1675.32,4226.28v-1.36h-1.73
			c-2.59,0-4.11,0.56-4.11,2.29c0,1.17,0.71,1.95,2.35,1.95C1673.8,4229.15,1675.32,4228.07,1675.32,4226.28z"/>
		<path class="st6" d="M1683.68,4208.46h4.45v23.47h-4.45V4208.46z"/>
		<path class="st6" d="M1691.22,4224.06v-0.25c0-5.1,3.61-8.4,8.31-8.4c4.17,0,7.88,2.44,7.88,8.21v1.24h-11.64
			c0.12,2.69,1.58,4.23,4.01,4.23c2.07,0,3.09-0.9,3.37-2.25h4.23c-0.53,3.49-3.3,5.44-7.72,5.44
			C1694.77,4232.27,1691.22,4229.21,1691.22,4224.06z M1703.04,4222.11c-0.15-2.44-1.39-3.61-3.52-3.61c-2.01,0-3.37,1.33-3.71,3.61
			H1703.04z"/>
		<path class="st6" d="M1717.59,4209.85h14.39v3.89h-9.42v5.16h7.54v3.64h-7.54v5.5h9.91v3.89h-14.89V4209.85z"/>
		<path class="st6" d="M1733.55,4215.78h4.79l3.86,11.55l3.83-11.55h4.32l-5.87,16.15h-5.03L1733.55,4215.78z"/>
		<path class="st6" d="M1751,4224.06v-0.25c0-5.1,3.61-8.4,8.31-8.4c4.17,0,7.88,2.44,7.88,8.21v1.24h-11.64
			c0.12,2.69,1.58,4.23,4.01,4.23c2.07,0,3.09-0.9,3.37-2.25h4.23c-0.53,3.49-3.3,5.44-7.72,5.44
			C1754.55,4232.27,1751,4229.21,1751,4224.06z M1762.83,4222.11c-0.15-2.44-1.39-3.61-3.52-3.61c-2.01,0-3.37,1.33-3.71,3.61
			H1762.83z"/>
		<path class="st6" d="M1770.11,4215.78h4.48v2.56c0.8-1.61,2.56-2.93,5.25-2.93c3.18,0,5.44,1.91,5.44,6.24v10.28h-4.48v-9.64
			c0-2.19-0.86-3.24-2.84-3.24c-1.92,0-3.37,1.17-3.37,3.55v9.33h-4.48V4215.78z"/>
		<path class="st6" d="M1789.78,4227.15v-8.18h-2.07v-3.18h2.07v-3.49h4.45v3.49h3.4v3.18h-3.4v7.78c0,1.3,0.65,1.92,1.79,1.92
			c0.68,0,1.17-0.09,1.7-0.31v3.46c-0.62,0.22-1.51,0.43-2.72,0.43C1791.6,4232.24,1789.78,4230.51,1789.78,4227.15z"/>
	</g>
	<g class="st2">
		<path class="st6" d="M1358.87,3798.13h7.63c5.37,0,8.43,2.38,8.43,7.04v0.12c0,4.66-3.24,6.89-8.28,6.89h-2.81v8.03h-4.97V3798.13
			z M1366.38,3808.69c2.44,0,3.74-1.17,3.74-3.37v-0.12c0-2.35-1.36-3.27-3.74-3.27h-2.53v6.76H1366.38z"/>
		<path class="st6" d="M1377.8,3804.06h4.48v3.09c1.02-2.16,2.59-3.3,5.22-3.34v4.17c-3.3-0.03-5.22,1.05-5.22,4.14v8.09h-4.48
			V3804.06z"/>
		<path class="st6" d="M1389.13,3812.34v-0.25c0-5.1,3.61-8.4,8.31-8.4c4.17,0,7.88,2.44,7.88,8.21v1.24h-11.64
			c0.12,2.69,1.58,4.23,4.01,4.23c2.07,0,3.09-0.9,3.37-2.25h4.23c-0.53,3.49-3.3,5.44-7.72,5.44
			C1392.68,3820.55,1389.13,3817.49,1389.13,3812.34z M1400.96,3810.39c-0.15-2.44-1.39-3.61-3.52-3.61c-2.01,0-3.37,1.33-3.71,3.61
			H1400.96z"/>
		<path class="st6" d="M1407.23,3815.15h4.17c0.18,1.45,0.9,2.29,2.84,2.29c1.73,0,2.53-0.65,2.53-1.76c0-1.11-0.96-1.58-3.27-1.92
			c-4.29-0.65-5.96-1.88-5.96-5.03c0-3.37,3.09-5.03,6.39-5.03c3.58,0,6.27,1.3,6.67,5h-4.11c-0.25-1.33-0.99-1.95-2.53-1.95
			c-1.45,0-2.29,0.68-2.29,1.67c0,1.02,0.77,1.42,3.12,1.76c4.05,0.59,6.27,1.61,6.27,5.06c0,3.49-2.53,5.31-6.79,5.31
			C1409.91,3820.55,1407.38,3818.64,1407.23,3815.15z"/>
		<path class="st6" d="M1422.91,3812.34v-0.25c0-5.1,3.61-8.4,8.31-8.4c4.17,0,7.88,2.44,7.88,8.21v1.24h-11.64
			c0.12,2.69,1.58,4.23,4.01,4.23c2.07,0,3.09-0.9,3.37-2.25h4.23c-0.53,3.49-3.3,5.44-7.72,5.44
			C1426.46,3820.55,1422.91,3817.49,1422.91,3812.34z M1434.74,3810.39c-0.15-2.44-1.39-3.61-3.52-3.61c-2.01,0-3.37,1.33-3.71,3.61
			H1434.74z"/>
		<path class="st6" d="M1442.03,3804.06h4.48v2.56c0.8-1.61,2.56-2.93,5.25-2.93c3.18,0,5.44,1.91,5.44,6.24v10.28h-4.48v-9.64
			c0-2.19-0.86-3.24-2.84-3.24c-1.92,0-3.37,1.17-3.37,3.55v9.33h-4.48V3804.06z"/>
		<path class="st6" d="M1461.7,3815.42v-8.18h-2.07v-3.18h2.07v-3.49h4.45v3.49h3.4v3.18h-3.4v7.78c0,1.3,0.65,1.92,1.79,1.92
			c0.68,0,1.17-0.09,1.7-0.31v3.46c-0.62,0.22-1.51,0.43-2.72,0.43C1463.52,3820.52,1461.7,3818.79,1461.7,3815.42z"/>
		<path class="st6" d="M1471.76,3815.73c0-3.77,3.46-5.19,8.4-5.19h1.82v-0.65c0-1.91-0.59-2.96-2.62-2.96
			c-1.76,0-2.56,0.9-2.75,2.29h-4.23c0.28-3.83,3.3-5.53,7.26-5.53s6.76,1.61,6.76,5.99v10.53h-4.35v-1.95
			c-0.93,1.3-2.35,2.29-4.88,2.29C1474.23,3820.55,1471.76,3819.13,1471.76,3815.73z M1481.99,3814.56v-1.36h-1.73
			c-2.59,0-4.11,0.56-4.11,2.29c0,1.17,0.71,1.95,2.35,1.95C1480.47,3817.43,1481.99,3816.35,1481.99,3814.56z"/>
		<path class="st6" d="M1490.91,3815.42v-8.18h-2.07v-3.18h2.07v-3.49h4.45v3.49h3.4v3.18h-3.4v7.78c0,1.3,0.65,1.92,1.79,1.92
			c0.68,0,1.17-0.09,1.7-0.31v3.46c-0.62,0.22-1.51,0.43-2.72,0.43C1492.73,3820.52,1490.91,3818.79,1490.91,3815.42z"/>
		<path class="st6" d="M1501.65,3799.43c0-1.39,1.11-2.44,2.53-2.44c1.45,0,2.56,1.05,2.56,2.44s-1.11,2.44-2.56,2.44
			C1502.77,3801.87,1501.65,3800.82,1501.65,3799.43z M1501.99,3804.06h4.45v16.15h-4.45V3804.06z"/>
		<path class="st6" d="M1509.56,3812.31v-0.25c0-5.06,3.67-8.37,8.52-8.37c4.85,0,8.49,3.24,8.49,8.28v0.25
			c0,5.1-3.67,8.34-8.52,8.34C1513.23,3820.55,1509.56,3817.34,1509.56,3812.31z M1522.04,3812.24v-0.22c0-3.09-1.45-4.94-3.95-4.94
			c-2.47,0-3.95,1.79-3.95,4.88v0.25c0,3.09,1.42,4.94,3.95,4.94C1520.58,3817.15,1522.04,3815.3,1522.04,3812.24z"/>
		<path class="st6" d="M1529.57,3804.06h4.48v2.56c0.8-1.61,2.56-2.93,5.25-2.93c3.18,0,5.44,1.91,5.44,6.24v10.28h-4.48v-9.64
			c0-2.19-0.86-3.24-2.84-3.24c-1.92,0-3.37,1.17-3.37,3.55v9.33h-4.48V3804.06z"/>
		<path class="st6" d="M1559.89,3817.65v2.56h-4.48v-23.47h4.48v9.85c0.9-1.54,2.78-2.9,5.16-2.9c3.95,0,7.04,2.93,7.04,8.28v0.25
			c0,5.34-3.03,8.34-7.04,8.34C1562.55,3820.55,1560.72,3819.32,1559.89,3817.65z M1567.55,3812.24V3812c0-3.27-1.61-4.88-3.86-4.88
			c-2.35,0-3.95,1.64-3.95,4.88v0.25c0,3.24,1.54,4.82,3.98,4.82C1566.19,3817.06,1567.55,3815.39,1567.55,3812.24z"/>
		<path class="st6" d="M1579.5,3818.58l-6.42-14.52h4.82l3.92,9.7l3.61-9.7h4.29l-8.74,21.65h-4.32L1579.5,3818.58z"/>
	</g>
	<g class="st2">
		<path class="st6" d="M1326.17,3850.48v-0.25c0-6.7,4.69-11.27,10.96-11.27c5.31,0,9.26,2.59,9.79,8.03h-5.13
			c-0.37-2.66-1.85-4.08-4.63-4.08c-3.49,0-5.71,2.72-5.71,7.29v0.25c0,4.57,2.1,7.23,5.74,7.23c2.75,0,4.66-1.39,5.07-4.23h4.91
			c-0.56,5.47-4.48,8.28-9.91,8.28C1330.03,3861.72,1326.17,3857.28,1326.17,3850.48z"/>
		<path class="st6" d="M1349.11,3856.91c0-3.77,3.46-5.19,8.4-5.19h1.82v-0.65c0-1.91-0.59-2.96-2.63-2.96
			c-1.76,0-2.56,0.9-2.75,2.29h-4.23c0.28-3.83,3.3-5.53,7.26-5.53s6.76,1.61,6.76,5.99v10.53h-4.35v-1.95
			c-0.93,1.3-2.35,2.29-4.88,2.29C1351.58,3861.72,1349.11,3860.3,1349.11,3856.91z M1359.33,3855.73v-1.36h-1.73
			c-2.59,0-4.11,0.56-4.11,2.29c0,1.17,0.71,1.95,2.35,1.95C1357.82,3858.6,1359.33,3857.52,1359.33,3855.73z"/>
		<path class="st6" d="M1368.26,3856.6v-8.18h-2.07v-3.18h2.07v-3.49h4.45v3.49h3.4v3.18h-3.4v7.78c0,1.3,0.65,1.92,1.79,1.92
			c0.68,0,1.17-0.09,1.7-0.31v3.46c-0.62,0.22-1.51,0.43-2.72,0.43C1370.08,3861.69,1368.26,3859.96,1368.26,3856.6z"/>
		<path class="st6" d="M1378.23,3853.51v-0.25c0-5.1,3.61-8.4,8.31-8.4c4.17,0,7.88,2.44,7.88,8.21v1.24h-11.64
			c0.12,2.69,1.58,4.23,4.01,4.23c2.07,0,3.09-0.9,3.37-2.25h4.23c-0.53,3.49-3.3,5.44-7.72,5.44
			C1381.78,3861.72,1378.23,3858.67,1378.23,3853.51z M1390.06,3851.56c-0.15-2.44-1.39-3.61-3.52-3.61c-2.01,0-3.37,1.33-3.71,3.61
			H1390.06z"/>
		<path class="st6" d="M1396.48,3861.72h4.45c0.28,1.42,1.3,2.35,3.58,2.35c2.72,0,4.08-1.42,4.08-3.95v-2.44
			c-0.9,1.58-2.81,3-5.19,3c-3.92,0-7.04-2.93-7.04-7.72v-0.22c0-4.63,3.09-7.88,7.1-7.88c2.62,0,4.2,1.14,5.13,2.78v-2.41h4.45
			v14.89c-0.03,4.79-3.21,7.23-8.52,7.23C1399.29,3867.34,1396.91,3865.06,1396.48,3861.72z M1408.71,3852.89v-0.22
			c0-2.75-1.45-4.42-3.89-4.42c-2.5,0-3.89,1.79-3.89,4.45v0.25c0,2.69,1.57,4.35,3.8,4.35
			C1407.07,3857.31,1408.71,3855.64,1408.71,3852.89z"/>
		<path class="st6" d="M1416,3853.48v-0.25c0-5.06,3.67-8.37,8.52-8.37c4.85,0,8.49,3.24,8.49,8.28v0.25c0,5.1-3.67,8.34-8.52,8.34
			C1419.67,3861.72,1416,3858.51,1416,3853.48z M1428.47,3853.42v-0.22c0-3.09-1.45-4.94-3.95-4.94c-2.47,0-3.95,1.79-3.95,4.88
			v0.25c0,3.09,1.42,4.94,3.95,4.94C1427.02,3858.33,1428.47,3856.47,1428.47,3853.42z"/>
		<path class="st6" d="M1436,3845.23h4.48v3.09c1.02-2.16,2.59-3.3,5.22-3.34v4.17c-3.3-0.03-5.22,1.05-5.22,4.14v8.09H1436V3845.23
			z"/>
		<path class="st6" d="M1453.67,3859.75l-6.42-14.52h4.82l3.92,9.7l3.61-9.7h4.29l-8.74,21.65h-4.32L1453.67,3859.75z"/>
		<path class="st6" d="M1477.88,3852.55h-5.56v-3.37h5.56v-6.02h3.64v6.02h5.56v3.37h-5.56v6.02h-3.64V3852.55z"/>
		<path class="st6" d="M1496.03,3854.47h4.79c0.22,1.98,1.05,3.61,4.32,3.61c2.19,0,3.64-1.2,3.64-2.93c0-1.76-0.93-2.38-4.17-2.87
			c-5.65-0.74-7.97-2.44-7.97-6.7c0-3.77,3.15-6.58,8.03-6.58c4.97,0,7.88,2.22,8.28,6.61h-4.6c-0.31-2.01-1.48-2.93-3.67-2.93
			s-3.3,1.02-3.3,2.5c0,1.58,0.71,2.32,4.11,2.81c5.34,0.68,8.09,2.13,8.09,6.7c0,3.92-3.21,7.04-8.43,7.04
			C1499.09,3861.72,1496.31,3858.88,1496.03,3854.47z"/>
		<path class="st6" d="M1516.78,3837.91h4.48v9.88c0.8-1.61,2.56-2.93,5.25-2.93c3.18,0,5.44,1.91,5.44,6.24v10.28h-4.48v-9.64
			c0-2.19-0.86-3.24-2.84-3.24c-1.92,0-3.37,1.17-3.37,3.55v9.33h-4.48V3837.91z"/>
		<path class="st6" d="M1534.79,3853.48v-0.25c0-5.06,3.67-8.37,8.52-8.37c4.85,0,8.49,3.24,8.49,8.28v0.25
			c0,5.1-3.67,8.34-8.52,8.34C1538.46,3861.72,1534.79,3858.51,1534.79,3853.48z M1547.26,3853.42v-0.22c0-3.09-1.45-4.94-3.95-4.94
			c-2.47,0-3.95,1.79-3.95,4.88v0.25c0,3.09,1.42,4.94,3.95,4.94C1545.81,3858.33,1547.26,3856.47,1547.26,3853.42z"/>
		<path class="st6" d="M1554.79,3845.23h4.48v3.09c1.02-2.16,2.59-3.3,5.22-3.34v4.17c-3.3-0.03-5.22,1.05-5.22,4.14v8.09h-4.48
			V3845.23z"/>
		<path class="st6" d="M1568.26,3856.6v-8.18h-2.07v-3.18h2.07v-3.49h4.45v3.49h3.4v3.18h-3.4v7.78c0,1.3,0.65,1.92,1.79,1.92
			c0.68,0,1.17-0.09,1.7-0.31v3.46c-0.62,0.22-1.51,0.43-2.72,0.43C1570.08,3861.69,1568.26,3859.96,1568.26,3856.6z"/>
		<path class="st6" d="M1579.34,3837.91h4.45v23.47h-4.45V3837.91z"/>
		<path class="st6" d="M1587.65,3840.6c0-1.39,1.11-2.44,2.53-2.44c1.45,0,2.56,1.05,2.56,2.44s-1.11,2.44-2.56,2.44
			C1588.76,3843.04,1587.65,3841.99,1587.65,3840.6z M1587.99,3845.23h4.45v16.15h-4.45V3845.23z"/>
		<path class="st6" d="M1595.37,3856.32h4.17c0.18,1.45,0.9,2.29,2.84,2.29c1.73,0,2.53-0.65,2.53-1.76c0-1.11-0.96-1.58-3.27-1.92
			c-4.29-0.65-5.96-1.88-5.96-5.03c0-3.37,3.09-5.03,6.39-5.03c3.58,0,6.27,1.3,6.67,5h-4.11c-0.25-1.33-0.99-1.95-2.53-1.95
			c-1.45,0-2.29,0.68-2.29,1.67c0,1.02,0.77,1.42,3.12,1.76c4.05,0.59,6.27,1.61,6.27,5.06c0,3.49-2.53,5.31-6.79,5.31
			C1598.06,3861.72,1595.52,3859.81,1595.37,3856.32z"/>
		<path class="st6" d="M1612.72,3856.6v-8.18h-2.07v-3.18h2.07v-3.49h4.45v3.49h3.4v3.18h-3.4v7.78c0,1.3,0.65,1.92,1.79,1.92
			c0.68,0,1.17-0.09,1.7-0.31v3.46c-0.62,0.22-1.51,0.43-2.72,0.43C1614.55,3861.69,1612.72,3859.96,1612.72,3856.6z"/>
	</g>
</g>
</svg>
