<svg xmlns="http://www.w3.org/2000/svg" width="1895.15" height="427.72" viewBox="0 0 1895.15 427.72">
  <g id="SBDC_Timeline-12" data-name="SBDC Timeline-12" transform="translate(-14.94 -17.51)">
    <path id="Path_997" data-name="Path 997" d="M251.89,304.22H14.94V195.16h237Z" fill="#f16145"/>
    <path id="Path_1000" data-name="Path 1000" d="M725.78,304.22H488.83V195.16h237Z" fill="#f16145"/>
    <path id="Path_1002" data-name="Path 1002" d="M1199.67,304.22h-237V195.16h237Z" fill="#f16145"/>
    <path id="Path_1003" data-name="Path 1003" d="M1673.56,304.22h-237V195.16h237Z" fill="#f16145"/>
    <path id="Path_998" data-name="Path 998" d="M488.83,304.22H251.89V195.16H488.83Z" fill="#ffc35a"/>
    <path id="Path_999" data-name="Path 999" d="M962.72,304.22H725.78V195.16H962.72Z" fill="#ffc35a"/>
    <path id="Path_1001" data-name="Path 1001" d="M1436.61,304.22H1199.67V195.16h236.94Z" fill="#ffc35a"/>
    <path id="Polygon_4" data-name="Polygon 4" d="M268.84,249.2l-17.5,17v-34Z" fill="#f16145"/>
    <path id="Polygon_7" data-name="Polygon 7" d="M742.32,249.2l-17.5,17v-34Z" fill="#f16145"/>
    <path id="Polygon_9" data-name="Polygon 9" d="M1215.8,249.2l-17.5,17v-34Z" fill="#f16145"/>
    <path id="Polygon_5" data-name="Polygon 5" d="M505.58,249.2l-17.5,17v-34Z" fill="#ffc35a"/>
    <path id="Polygon_6" data-name="Polygon 6" d="M979.06,249.2l-17.5,17v-34Z" fill="#ffc35a"/>
    <path id="Polygon_8" data-name="Polygon 8" d="M1452.54,249.2l-17.5,17v-34Z" fill="#ffc35a"/>
    <g id="November">
      <text id="Nov_21" data-name="Nov ‘21" transform="translate(80.35 259.98)" fill="#fff" font-size="30.88" font-family="Graphik-Semibold, Graphik" font-weight="600"><tspan x="0" y="0">N</tspan><tspan y="0" letter-spacing="-0.02em">o</tspan><tspan y="0">v </tspan><tspan y="0" letter-spacing="-0.02em">‘</tspan><tspan y="0">21</tspan></text>
    </g>
    <g id="January">
      <text id="Jan_22" data-name="Jan ‘22" transform="translate(556.14 259.98)" fill="#fff" font-size="30.88" font-family="Graphik-Semibold, Graphik" font-weight="600"><tspan x="0" y="0">Jan </tspan><tspan y="0" letter-spacing="-0.02em">‘</tspan><tspan y="0">22</tspan></text>
    </g>
    <g id="March">
      <text id="Mar_22" data-name="Mar ‘22" transform="translate(1026.2 259.98)" fill="#fff" font-size="30.88" font-family="Graphik-Semibold, Graphik" font-weight="600"><tspan x="0" y="0">Mar </tspan><tspan y="0" letter-spacing="-0.02em">‘</tspan><tspan y="0">22</tspan></text>
    </g>
    <g id="May">
      <text id="May_22" data-name="May ‘22" transform="translate(1497.89 259.98)" fill="#fff" font-size="30.88" font-family="Graphik-Semibold, Graphik" font-weight="600"><tspan x="0" y="0">M</tspan><tspan y="0" letter-spacing="-0.02em">a</tspan><tspan y="0">y </tspan><tspan y="0" letter-spacing="-0.02em">‘</tspan><tspan y="0" letter-spacing="0.01em">2</tspan><tspan y="0">2</tspan></text>
    </g>
    <g id="December">
      <text id="Dec_21" data-name="Dec ‘21" transform="translate(317.76 259.98)" fill="#373737" font-size="30.88" font-family="Graphik-Semibold, Graphik" font-weight="600"><tspan x="0" y="0">Dec </tspan><tspan y="0" letter-spacing="-0.02em">‘</tspan><tspan y="0">21</tspan></text>
    </g>
    <g id="February">
      <text id="Feb_22" data-name="Feb ‘22" transform="translate(791 259.98)" fill="#373737" font-size="30.88" font-family="Graphik-Semibold, Graphik" font-weight="600"><tspan x="0" y="0" letter-spacing="-0.02em">F</tspan><tspan y="0">eb </tspan><tspan y="0" letter-spacing="-0.02em">‘</tspan><tspan y="0">22</tspan></text>
    </g>
    <g id="April">
      <text id="Apr_22" data-name="Apr ‘22" transform="translate(1264.89 259.98)" fill="#373737" font-size="30.88" font-family="Graphik-Semibold, Graphik" font-weight="600"><tspan x="0" y="0">Apr </tspan><tspan y="0" letter-spacing="-0.02em">‘</tspan><tspan y="0">22</tspan></text>
    </g>
    <path id="Path_1001-2" data-name="Path 1001" d="M1910.09,304.22H1673.15V195.16h236.94Z" fill="#ffc35a"/>
    <path id="Polygon_9-2" data-name="Polygon 9" d="M1689.28,249.2l-17.5,17v-34Z" fill="#f16145"/>
    <g id="April-2" data-name="April">
      <text id="Jun_22" data-name="Jun ‘22" transform="translate(1739.64 259.98)" fill="#373737" font-size="30.88" font-family="Graphik-Semibold, Graphik" font-weight="600"><tspan x="0" y="0">Jun </tspan><tspan y="0" letter-spacing="-0.02em">‘</tspan><tspan y="0" letter-spacing="0.01em">2</tspan><tspan y="0">2</tspan></text>
    </g>
    <path id="Path_1004" data-name="Path 1004" d="M139.18,304.22V391h942V304.22" fill="none" stroke="#f16145" stroke-width="5.15"/>
    <path id="Path_1005" data-name="Path 1005" d="M1791.62,108.22V195" fill="none" stroke="#f16145" stroke-width="5.15"/>
    <path id="Path_1006" data-name="Path 1006" d="M1317.73,195.16V108.37h237.36v86.79" fill="none" stroke="#f16145" stroke-width="5.15"/>
    <g id="Idea_Submission" data-name="Idea Submission">
      <text id="Idea_Submission-2" data-name="Idea Submission" transform="translate(487.54 440.23)" fill="#404040" font-size="30.88" font-family="Graphik-Semibold, Graphik" font-weight="600"><tspan x="0" y="0">Idea Submission</tspan></text>
    </g>
    <g id="Finale_Event" data-name="Finale Event">
      <text id="Grand_Finale" data-name="Grand Finale" transform="translate(1703.71 79.56)" fill="#404040" font-size="30.88" font-family="Graphik-Semibold, Graphik" font-weight="600"><tspan x="0" y="0">G</tspan><tspan y="0" letter-spacing="-0.01em">r</tspan><tspan y="0">and </tspan><tspan y="0" letter-spacing="-0.01em">F</tspan><tspan y="0">inale</tspan></text>
    </g>
    <g id="Presentation_by_Category_Shortlist_" data-name="Presentation by Category Shortlist ">
      <g id="Group">
        <text id="P" transform="translate(1319.58 42.51)" fill="#404040" font-size="30.88" font-family="Graphik-Semibold, Graphik" font-weight="600"><tspan x="0" y="0">P</tspan></text>
        <text id="r" transform="translate(1338.91 42.51)" fill="#404040" font-size="30.88" font-family="Graphik-Semibold, Graphik" font-weight="600" letter-spacing="-0.01em"><tspan x="0" y="0">r</tspan></text>
        <text id="e" transform="translate(1351.23 42.51)" fill="#404040" font-size="30.88" font-family="Graphik-Semibold, Graphik" font-weight="600"><tspan x="0" y="0">e</tspan></text>
        <text id="sen" transform="translate(1369.51 42.51)" fill="#404040" font-size="30.88" font-family="Graphik-Semibold, Graphik" font-weight="600"><tspan x="0" y="0">sen</tspan></text>
        <text id="t" transform="translate(1422.13 42.51)" fill="#404040" font-size="30.88" font-family="Graphik-Semibold, Graphik" font-weight="600"><tspan x="0" y="0">t</tspan></text>
        <text id="ation_" data-name="ation " transform="translate(1433.92 42.51)" fill="#404040" font-size="30.88" font-family="Graphik-Semibold, Graphik" font-weight="600"><tspan x="0" y="0">ation </tspan></text>
        <text id="b" transform="translate(1516.52 42.51)" fill="#404040" font-size="30.88" font-family="Graphik-Semibold, Graphik" font-weight="600" letter-spacing="-0.01em"><tspan x="0" y="0">b</tspan></text>
        <text id="y" transform="translate(1535.73 42.51)" fill="#404040" font-size="30.88" font-family="Graphik-Semibold, Graphik" font-weight="600"><tspan x="0" y="0">y</tspan></text>
        <text id="C" transform="translate(1366.72 79.56)" fill="#404040" font-size="30.88" font-family="Graphik-Semibold, Graphik" font-weight="600"><tspan x="0" y="0">C</tspan></text>
        <text id="atego" transform="translate(1389.97 79.56)" fill="#404040" font-size="30.88" font-family="Graphik-Semibold, Graphik" font-weight="600"><tspan x="0" y="0">atego</tspan></text>
        <text id="r-2" data-name="r" transform="translate(1475.81 79.56)" fill="#404040" font-size="30.88" font-family="Graphik-Semibold, Graphik" font-weight="600"><tspan x="0" y="0">r</tspan></text>
        <text id="y-2" data-name="y" transform="translate(1488.59 79.56)" fill="#404040" font-size="30.88" font-family="Graphik-Semibold, Graphik" font-weight="600"><tspan x="0" y="0">y</tspan></text>
      </g>
    </g>
  </g>
</svg>
