<svg xmlns="http://www.w3.org/2000/svg" width="819.36" height="865.38" viewBox="0 0 819.36 865.38">
  <g id="SBDC_Timeline-13" data-name="SBDC Timeline-13" transform="translate(-2 -2.38)">
    <g id="Idea_Submission" data-name="Idea Submission">
      <text id="Idea_Submission-2" data-name="Idea
Submission" transform="translate(647.36 273.91)" fill="#404040" font-size="30.88" font-family="Graphik-Semibold, Graphik" font-weight="600"><tspan x="0" y="0">Idea</tspan><tspan x="0" y="37.05">Submission</tspan></text>
    </g>
    <g id="Idea_Submission-3" data-name="Idea Submission">
      <text id="Grand_Finale" data-name="Grand
Finale" transform="translate(647.36 801.07)" fill="#404040" font-size="30.88" font-family="Graphik-Semibold, Graphik" font-weight="600"><tspan x="0" y="0">G</tspan><tspan y="0" letter-spacing="-0.01em">r</tspan><tspan y="0">and</tspan><tspan x="0" y="37.05" letter-spacing="-0.01em">F</tspan><tspan y="37.05">inale</tspan></text>
    </g>
    <path id="Path_997" data-name="Path 997" d="M535.94,111.44H299V2.38H536Z" fill="#f16145"/>
    <path id="Path_1000" data-name="Path 1000" d="M535.94,328.44H299v-109H536Z" fill="#f16145"/>
    <path id="Path_998" data-name="Path 998" d="M535.94,220.49H299v-109H536Z" fill="#ffc35a"/>
    <path id="Path_999" data-name="Path 999" d="M535.94,436.39H299v-109H536Z" fill="#ffc35a"/>
    <path id="Polygon_4" data-name="Polygon 4" d="M417.47,126.93l-17-17.49h34Z" fill="#f16145"/>
    <path id="Path_1002" data-name="Path 1002" d="M535.94,545.45H299V436.39H536Z" fill="#f16145"/>
    <path id="Path_1003" data-name="Path 1003" d="M535.94,758.71H299V649.65H536Z" fill="#f16145"/>
    <path id="Polygon_7" data-name="Polygon 7" d="M417.47,341.94l-17-17.5h34Z" fill="#f16145"/>
    <path id="Polygon_7-2" data-name="Polygon 7" d="M417.47,451.18l-17-17.5h34Z" fill="#ffc35a"/>
    <g id="May">
      <text id="May_22" data-name="May ‘22" transform="translate(359.13 714.47)" fill="#fff" font-size="30.88" font-family="Graphik-Semibold, Graphik" font-weight="600"><tspan x="0" y="0">M</tspan><tspan y="0" letter-spacing="-0.02em">a</tspan><tspan y="0">y </tspan><tspan y="0" letter-spacing="-0.02em">‘</tspan><tspan y="0" letter-spacing="0.01em">2</tspan><tspan y="0">2</tspan></text>
    </g>
    <path id="Polygon_7-3" data-name="Polygon 7" d="M417.47,666.3l-17-17.5h34Z" fill="#ffc35a"/>
    <path id="Polygon_5" data-name="Polygon 5" d="M417.47,234.73l-17-17.5h34Z" fill="#ffc35a"/>
    <g id="November">
      <text id="Nov_21" data-name="Nov ‘21" transform="translate(363.26 67.2)" fill="#fff" font-size="30.88" font-family="Graphik-Semibold, Graphik" font-weight="600"><tspan x="0" y="0">N</tspan><tspan y="0" letter-spacing="-0.02em">o</tspan><tspan y="0">v </tspan><tspan y="0" letter-spacing="-0.02em">‘</tspan><tspan y="0">21</tspan></text>
    </g>
    <g id="March">
      <text id="Mar_22" data-name="Mar ‘22" transform="translate(361.33 501.21)" fill="#fff" font-size="30.88" font-family="Graphik-Semibold, Graphik" font-weight="600"><tspan x="0" y="0">Mar </tspan><tspan y="0" letter-spacing="-0.02em">‘</tspan><tspan y="0">22</tspan></text>
    </g>
    <g id="January">
      <text id="Jan_22" data-name="Jan ‘22" transform="translate(365.16 284.21)" fill="#fff" font-size="30.88" font-family="Graphik-Semibold, Graphik" font-weight="600"><tspan x="0" y="0">Jan </tspan><tspan y="0" letter-spacing="-0.02em">‘</tspan><tspan y="0">22</tspan></text>
    </g>
    <g id="December">
      <text id="Dec_21" data-name="Dec ‘21" transform="translate(363.73 176.26)" fill="#373737" font-size="30.88" font-family="Graphik-Semibold, Graphik" font-weight="600"><tspan x="0" y="0">Dec </tspan><tspan y="0" letter-spacing="-0.02em">‘</tspan><tspan y="0">21</tspan></text>
    </g>
    <g id="February">
      <text id="Feb_22" data-name="Feb ‘22" transform="translate(363.08 392.16)" fill="#373737" font-size="30.88" font-family="Graphik-Semibold, Graphik" font-weight="600"><tspan x="0" y="0" letter-spacing="-0.02em">F</tspan><tspan y="0">eb </tspan><tspan y="0" letter-spacing="-0.02em">‘</tspan><tspan y="0">22</tspan></text>
    </g>
    <path id="Path_1001" data-name="Path 1001" d="M535.94,651.58H299V542.52H536Z" fill="#ffc35a"/>
    <path id="Polygon_9" data-name="Polygon 9" d="M417.47,557.53l-17-17.5h34Z" fill="#f16145"/>
    <g id="April">
      <text id="Apr_22" data-name="Apr ‘22" transform="translate(363.08 607.34)" fill="#373737" font-size="30.88" font-family="Graphik-Semibold, Graphik" font-weight="600"><tspan x="0" y="0">Apr </tspan><tspan y="0" letter-spacing="-0.02em">‘</tspan><tspan y="0">22</tspan></text>
    </g>
    <path id="Path_1001-2" data-name="Path 1001" d="M535.94,867.76H299v-109H536Z" fill="#ffc35a"/>
    <g id="April-2" data-name="April">
      <text id="Jun_22" data-name="Jun ‘22" transform="translate(364.35 823.52)" fill="#373737" font-size="30.88" font-family="Graphik-Semibold, Graphik" font-weight="600"><tspan x="0" y="0">Jun </tspan><tspan y="0" letter-spacing="-0.02em">‘</tspan><tspan y="0" letter-spacing="0.01em">2</tspan><tspan y="0">2</tspan></text>
    </g>
    <path id="Polygon_7-4" data-name="Polygon 7" d="M417.47,776.2l-17-17.49h34Z" fill="#f16145"/>
    <text id="Presentation_by_Category" data-name="Presentation
by Category" transform="translate(2 639.84)" fill="#404040" font-size="30.88" font-family="Graphik-Semibold, Graphik" font-weight="600"><tspan x="0" y="0">P</tspan><tspan y="0" letter-spacing="-0.01em">r</tspan><tspan y="0">esentation</tspan><tspan x="0" y="37.05" letter-spacing="-0.01em">b</tspan><tspan y="37.05">y Category</tspan></text>
    <path id="Path_1004" data-name="Path 1004" d="M535.94,490.92h86.79V57.4H535.94" fill="none" stroke="#f16145" stroke-width="5.15"/>
    <path id="Path_1004-2" data-name="Path 1004" d="M299,704.18H212.2V592.66H299" fill="none" stroke="#f16145" stroke-width="5.15"/>
    <line id="Line_69" data-name="Line 69" x2="86.79" transform="translate(535.94 813.23)" fill="none" stroke="#f16145" stroke-width="5.15"/>
  </g>
</svg>
