<?xml version="1.0" encoding="utf-8"?>
<!-- Generator: Adobe Illustrator 26.0.1, SVG Export Plug-In . SVG Version: 6.00 Build 0)  -->
<svg version="1.1" id="Layer_1" xmlns="http://www.w3.org/2000/svg" xmlns:xlink="http://www.w3.org/1999/xlink" x="0px" y="0px"
	 viewBox="0 0 858.63 794.12" style="enable-background:new 0 0 858.63 794.12;" xml:space="preserve">
<style type="text/css">
	.st0{fill:#F16145;}
	.st1{fill:#FFC35A;}
	.st2{enable-background:new    ;}
	.st3{fill:#FFFFFF;}
	.st4{fill:#373737;}
	.st5{fill:none;stroke:#F16145;stroke-width:5.1465;}
	.st6{fill:#404040;}
	.st7{fill:none;stroke:#70C5D9;stroke-width:5.0331;stroke-miterlimit:10;}
	.st8{fill:#356AA0;}
	.st9{fill:#41B175;}
	.st10{fill:none;stroke:#70C5D9;stroke-width:5.0999;stroke-miterlimit:10;}
	.st11{fill:none;stroke:#70C5D9;stroke-width:6.0031;stroke-miterlimit:10;}
	.st12{fill:none;stroke:#70C5D9;stroke-width:5.9244;stroke-miterlimit:10;}
	.st13{fill:none;stroke:#70C5D9;stroke-width:4.0873;stroke-miterlimit:10;}
</style>
<g>
	<g class="st2">
		<path class="st6" d="M662.84,210.68h5.03v22.08h-5.03V210.68z"/>
		<path class="st6" d="M671.4,224.92v-0.25c0-5.31,3.06-8.43,7.1-8.43c2.59,0,4.2,1.14,5.1,2.78v-9.73h4.45v23.47h-4.45v-2.69
			c-0.83,1.64-2.81,3.03-5.19,3.03C674.49,233.1,671.4,230.29,671.4,224.92z M683.72,224.76v-0.25c0-3.21-1.42-4.85-3.86-4.85
			c-2.5,0-3.89,1.7-3.89,4.91v0.25c0,3.21,1.54,4.79,3.77,4.79C682.08,229.61,683.72,228.03,683.72,224.76z"/>
		<path class="st6" d="M691.04,224.88v-0.25c0-5.1,3.61-8.4,8.31-8.4c4.17,0,7.88,2.44,7.88,8.21v1.24h-11.64
			c0.12,2.69,1.57,4.23,4.01,4.23c2.07,0,3.09-0.9,3.37-2.25h4.23c-0.53,3.49-3.3,5.44-7.72,5.44
			C694.59,233.1,691.04,230.04,691.04,224.88z M702.86,222.94c-0.15-2.44-1.39-3.61-3.52-3.61c-2.01,0-3.37,1.33-3.71,3.61H702.86z"
			/>
		<path class="st6" d="M709.25,228.28c0-3.77,3.46-5.19,8.4-5.19h1.82v-0.65c0-1.91-0.59-2.96-2.62-2.96c-1.76,0-2.56,0.9-2.75,2.29
			h-4.23c0.28-3.83,3.3-5.53,7.26-5.53s6.76,1.61,6.76,5.99v10.53h-4.35v-1.95c-0.93,1.3-2.35,2.29-4.88,2.29
			C711.72,233.1,709.25,231.68,709.25,228.28z M719.48,227.11v-1.36h-1.73c-2.59,0-4.11,0.56-4.11,2.29c0,1.17,0.71,1.95,2.35,1.95
			C717.96,229.98,719.48,228.9,719.48,227.11z"/>
		<path class="st6" d="M661.33,262.9h4.79c0.22,1.98,1.05,3.61,4.32,3.61c2.19,0,3.64-1.2,3.64-2.93c0-1.76-0.93-2.38-4.17-2.87
			c-5.65-0.74-7.97-2.44-7.97-6.7c0-3.77,3.15-6.58,8.03-6.58c4.97,0,7.88,2.22,8.28,6.61h-4.6c-0.31-2.01-1.48-2.93-3.68-2.93
			c-2.19,0-3.3,1.02-3.3,2.5c0,1.58,0.71,2.32,4.11,2.81c5.34,0.68,8.09,2.13,8.09,6.7c0,3.92-3.21,7.04-8.43,7.04
			C664.39,270.15,661.61,267.31,661.33,262.9z"/>
		<path class="st6" d="M681.8,264.07v-10.41h4.45v9.79c0,2.19,0.9,3.24,2.81,3.24c1.88,0,3.37-1.17,3.37-3.55v-9.48h4.45v16.15
			h-4.45v-2.53c-0.83,1.64-2.47,2.87-5.13,2.87C684.15,270.15,681.8,268.3,681.8,264.07z"/>
		<path class="st6" d="M705.3,267.25v2.56h-4.48v-23.47h4.48v9.85c0.9-1.54,2.78-2.9,5.16-2.9c3.95,0,7.04,2.93,7.04,8.28v0.25
			c0,5.34-3.03,8.34-7.04,8.34C707.96,270.15,706.14,268.92,705.3,267.25z M712.96,261.85v-0.25c0-3.27-1.61-4.88-3.86-4.88
			c-2.35,0-3.95,1.64-3.95,4.88v0.25c0,3.24,1.54,4.82,3.98,4.82C711.6,266.66,712.96,265,712.96,261.85z"/>
		<path class="st6" d="M720.49,253.66h4.48v2.47c0.8-1.51,2.53-2.84,4.94-2.84c2.13,0,3.74,0.9,4.51,2.81
			c1.3-1.95,3.4-2.81,5.44-2.81c3,0,5.31,1.88,5.31,6.18v10.35h-4.45v-9.85c0-2.07-0.93-3-2.53-3c-1.73,0-3.12,1.11-3.12,3.3v9.54
			h-4.45v-9.85c0-2.07-0.96-3-2.53-3c-1.73,0-3.12,1.11-3.12,3.3v9.54h-4.48V253.66z"/>
		<path class="st6" d="M748.78,249.03c0-1.39,1.11-2.44,2.53-2.44c1.45,0,2.56,1.05,2.56,2.44s-1.11,2.44-2.56,2.44
			C749.89,251.47,748.78,250.42,748.78,249.03z M749.12,253.66h4.45v16.15h-4.45V253.66z"/>
		<path class="st6" d="M756.5,264.75h4.17c0.19,1.45,0.9,2.29,2.84,2.29c1.73,0,2.53-0.65,2.53-1.76c0-1.11-0.96-1.58-3.27-1.92
			c-4.29-0.65-5.96-1.88-5.96-5.03c0-3.37,3.09-5.03,6.39-5.03c3.58,0,6.27,1.3,6.67,5h-4.11c-0.25-1.33-0.99-1.95-2.53-1.95
			c-1.45,0-2.29,0.68-2.29,1.67c0,1.02,0.77,1.42,3.12,1.76c4.05,0.59,6.27,1.61,6.27,5.06c0,3.49-2.53,5.31-6.79,5.31
			C759.19,270.15,756.65,268.24,756.5,264.75z"/>
		<path class="st6" d="M772,264.75h4.17c0.19,1.45,0.9,2.29,2.84,2.29c1.73,0,2.53-0.65,2.53-1.76c0-1.11-0.96-1.58-3.27-1.92
			c-4.29-0.65-5.96-1.88-5.96-5.03c0-3.37,3.09-5.03,6.39-5.03c3.58,0,6.27,1.3,6.67,5h-4.11c-0.25-1.33-0.99-1.95-2.53-1.95
			c-1.45,0-2.29,0.68-2.29,1.67c0,1.02,0.77,1.42,3.12,1.76c4.04,0.59,6.27,1.61,6.27,5.06c0,3.49-2.53,5.31-6.79,5.31
			C774.69,270.15,772.16,268.24,772,264.75z"/>
		<path class="st6" d="M788.46,249.03c0-1.39,1.11-2.44,2.53-2.44c1.45,0,2.56,1.05,2.56,2.44s-1.11,2.44-2.56,2.44
			C789.57,251.47,788.46,250.42,788.46,249.03z M788.8,253.66h4.45v16.15h-4.45V253.66z"/>
		<path class="st6" d="M796.36,261.91v-0.25c0-5.06,3.68-8.37,8.52-8.37s8.49,3.24,8.49,8.28v0.25c0,5.1-3.68,8.34-8.52,8.34
			C800.04,270.15,796.36,266.94,796.36,261.91z M808.84,261.85v-0.22c0-3.09-1.45-4.94-3.95-4.94c-2.47,0-3.95,1.79-3.95,4.88v0.25
			c0,3.09,1.42,4.94,3.95,4.94C807.39,266.76,808.84,264.9,808.84,261.85z"/>
		<path class="st6" d="M816.37,253.66h4.48v2.56c0.8-1.61,2.56-2.93,5.25-2.93c3.18,0,5.44,1.91,5.44,6.24v10.28h-4.48v-9.64
			c0-2.19-0.86-3.24-2.84-3.24c-1.92,0-3.37,1.17-3.37,3.55v9.33h-4.48V253.66z"/>
	</g>
	<g>
		<path id="Path_997_00000129905652561137690010000001888347517490324155_" class="st0" d="M548.93,126.97H311.98V17.91h236.95
			V126.97z"/>
		<path id="Path_1000_00000026852530510709743200000017421173108072707253_" class="st0" d="M548.93,343.97H311.98V234.92h236.95
			V343.97z"/>
		<path id="Path_998_00000042719178421597348300000018380021556845707427_" class="st1" d="M548.93,236.02H311.98V126.97h236.95
			V236.02z"/>
		<path id="Path_999_00000157992833121700531500000004666115346474412729_" class="st1" d="M548.93,451.92H311.98V342.87h236.95
			V451.92z"/>
		<path id="Polygon_4_00000151530407602862133880000011299772111259740087_" class="st0" d="M430.45,142.46l-16.98-17.5h33.97
			L430.45,142.46z"/>
		<path id="Path_1002_00000024719096645937555050000002088354788765256588_" class="st0" d="M548.93,560.98H311.98V451.92h236.95
			V560.98z"/>
		<path id="Path_1003_00000152942295846850397800000009890739076003679930_" class="st0" d="M548.93,774.23H311.98V665.18h236.95
			V774.23z"/>
		<path id="Polygon_7_00000093149971702555107660000017559263773307196828_" class="st0" d="M430.45,357.47l-16.98-17.5h33.97
			L430.45,357.47z"/>
		<path id="Polygon_7_00000145755814916383343740000010205746962230041989_" class="st1" d="M430.45,466.7l-16.98-17.5h33.97
			L430.45,466.7z"/>
		<g class="st2">
			<path class="st3" d="M399.97,707.92h6.61l5.16,13.74l5.1-13.74h6.49V730h-4.97v-15.5l-6.12,15.5h-1.64l-6.15-15.5V730h-4.48
				V707.92z"/>
			<path class="st3" d="M426.49,725.52c0-3.77,3.46-5.19,8.4-5.19h1.82v-0.65c0-1.92-0.59-2.96-2.62-2.96
				c-1.76,0-2.56,0.9-2.75,2.29h-4.23c0.28-3.83,3.3-5.53,7.26-5.53s6.76,1.61,6.76,5.99V730h-4.35v-1.95
				c-0.93,1.3-2.35,2.29-4.88,2.29C428.96,730.34,426.49,728.92,426.49,725.52z M436.71,724.35v-1.36h-1.73
				c-2.59,0-4.11,0.56-4.11,2.29c0,1.17,0.71,1.95,2.35,1.95C435.2,727.22,436.71,726.14,436.71,724.35z"/>
			<path class="st3" d="M449.37,728.36l-6.42-14.52h4.82l3.92,9.7l3.61-9.7h4.29l-8.74,21.65h-4.32L449.37,728.36z"/>
		</g>
		<path id="Polygon_7_00000085942526329306153310000017778488302096561536_" class="st1" d="M430.45,681.83l-16.98-17.5h33.97
			L430.45,681.83z"/>
		<path id="Polygon_5_00000180347796991534742260000008424258628981644986_" class="st1" d="M430.45,250.26l-16.98-17.5h33.97
			L430.45,250.26z"/>
		<g class="st2">
			<path class="st3" d="M360.79,60.65h5.81L375,75.2V60.65h4.45v22.08h-5l-9.2-15.72v15.72h-4.45V60.65z"/>
			<path class="st3" d="M382.66,74.83v-0.25c0-5.07,3.68-8.37,8.52-8.37s8.49,3.24,8.49,8.28v0.25c0,5.1-3.68,8.34-8.52,8.34
				C386.33,83.07,382.66,79.86,382.66,74.83z M395.13,74.76v-0.22c0-3.09-1.45-4.94-3.95-4.94c-2.47,0-3.95,1.79-3.95,4.88v0.25
				c0,3.09,1.42,4.94,3.95,4.94C393.68,79.67,395.13,77.82,395.13,74.76z"/>
			<path class="st3" d="M400.5,66.58h4.79l3.86,11.55l3.83-11.55h4.32l-5.87,16.15h-5.03L400.5,66.58z"/>
			<path class="st3" d="M417.95,74.86v-0.25c0-5.1,3.61-8.4,8.31-8.4c4.17,0,7.88,2.44,7.88,8.21v1.24h-11.64
				c0.12,2.69,1.57,4.23,4.01,4.23c2.07,0,3.09-0.9,3.37-2.25h4.23c-0.53,3.49-3.3,5.44-7.72,5.44
				C421.5,83.07,417.95,80.01,417.95,74.86z M429.78,72.91c-0.15-2.44-1.39-3.61-3.52-3.61c-2.01,0-3.37,1.33-3.71,3.61H429.78z"/>
			<path class="st3" d="M437.06,66.58h4.48v2.47c0.8-1.51,2.53-2.84,4.94-2.84c2.13,0,3.74,0.9,4.51,2.81
				c1.3-1.95,3.4-2.81,5.44-2.81c3,0,5.31,1.88,5.31,6.18v10.35h-4.45v-9.85c0-2.07-0.93-3-2.53-3c-1.73,0-3.12,1.11-3.12,3.3v9.54
				h-4.45v-9.85c0-2.07-0.96-3-2.53-3c-1.73,0-3.12,1.11-3.12,3.3v9.54h-4.48V66.58z"/>
			<path class="st3" d="M470.04,80.17v2.56h-4.48V59.26h4.48v9.85c0.9-1.54,2.78-2.9,5.16-2.9c3.95,0,7.04,2.93,7.04,8.28v0.25
				c0,5.34-3.03,8.34-7.04,8.34C472.7,83.07,470.88,81.84,470.04,80.17z M477.7,74.76v-0.25c0-3.27-1.61-4.88-3.86-4.88
				c-2.35,0-3.95,1.64-3.95,4.88v0.25c0,3.24,1.54,4.82,3.98,4.82C476.34,79.58,477.7,77.91,477.7,74.76z"/>
			<path class="st3" d="M484.25,74.86v-0.25c0-5.1,3.61-8.4,8.31-8.4c4.17,0,7.88,2.44,7.88,8.21v1.24h-11.64
				c0.12,2.69,1.58,4.23,4.01,4.23c2.07,0,3.09-0.9,3.37-2.25h4.23c-0.53,3.49-3.3,5.44-7.72,5.44
				C487.8,83.07,484.25,80.01,484.25,74.86z M496.08,72.91c-0.16-2.44-1.39-3.61-3.52-3.61c-2.01,0-3.37,1.33-3.71,3.61H496.08z"/>
			<path class="st3" d="M503.36,66.58h4.48v3.09c1.02-2.16,2.59-3.3,5.22-3.34v4.17c-3.3-0.03-5.22,1.05-5.22,4.14v8.09h-4.48V66.58
				z"/>
		</g>
		<g class="st2">
			<path class="st3" d="M386.38,494.66h6.61l5.16,13.74l5.1-13.74h6.49v22.08h-4.97v-15.5l-6.12,15.5H397l-6.15-15.5v15.5h-4.48
				V494.66z"/>
			<path class="st3" d="M412.91,512.26c0-3.77,3.46-5.19,8.4-5.19h1.82v-0.65c0-1.92-0.59-2.96-2.63-2.96
				c-1.76,0-2.56,0.9-2.75,2.29h-4.23c0.28-3.83,3.3-5.53,7.26-5.53s6.76,1.61,6.76,5.99v10.53h-4.35v-1.95
				c-0.93,1.3-2.35,2.29-4.88,2.29C415.38,517.08,412.91,515.66,412.91,512.26z M423.13,511.09v-1.36h-1.73
				c-2.59,0-4.11,0.56-4.11,2.29c0,1.17,0.71,1.95,2.35,1.95C421.61,513.96,423.13,512.88,423.13,511.09z"/>
			<path class="st3" d="M431.37,500.59h4.48v3.09c1.02-2.16,2.59-3.3,5.22-3.34v4.17c-3.3-0.03-5.22,1.05-5.22,4.14v8.09h-4.48
				V500.59z"/>
			<path class="st3" d="M442.7,508.87v-0.25c0-5.22,3.74-8.4,8.34-8.4c3.74,0,7.2,1.64,7.6,6.27h-4.23
				c-0.31-1.88-1.45-2.75-3.27-2.75c-2.32,0-3.86,1.73-3.86,4.82v0.25c0,3.24,1.45,4.91,3.95,4.91c1.79,0,3.24-1.05,3.46-3.12h4.05
				c-0.25,3.83-3.03,6.49-7.72,6.49C446.28,517.08,442.7,514.15,442.7,508.87z"/>
			<path class="st3" d="M461.54,493.27h4.48v9.88c0.8-1.61,2.56-2.93,5.25-2.93c3.18,0,5.44,1.91,5.44,6.24v10.28h-4.48v-9.64
				c0-2.19-0.86-3.24-2.84-3.24c-1.92,0-3.37,1.17-3.37,3.55v9.33h-4.48V493.27z"/>
		</g>
		<g class="st2">
			<path class="st3" d="M376.34,299.34v-3.83c0.74,0.28,1.48,0.53,2.78,0.53c1.88,0,3.12-0.96,3.12-3.49v-14.88h5.03v14.95
				c0,5-2.72,7.41-7.26,7.41C378.1,300.01,377.11,299.74,376.34,299.34z"/>
			<path class="st3" d="M390.14,295.26c0-3.77,3.46-5.19,8.4-5.19h1.82v-0.65c0-1.91-0.59-2.96-2.62-2.96
				c-1.76,0-2.56,0.9-2.75,2.29h-4.23c0.28-3.83,3.3-5.53,7.26-5.53s6.76,1.61,6.76,5.99v10.53h-4.35v-1.95
				c-0.93,1.3-2.35,2.29-4.88,2.29C392.61,300.08,390.14,298.66,390.14,295.26z M400.36,294.09v-1.36h-1.73
				c-2.59,0-4.11,0.56-4.11,2.29c0,1.17,0.71,1.95,2.35,1.95C398.85,296.96,400.36,295.88,400.36,294.09z"/>
			<path class="st3" d="M408.61,283.59h4.48v2.56c0.8-1.61,2.56-2.93,5.25-2.93c3.18,0,5.44,1.91,5.44,6.24v10.29h-4.48v-9.64
				c0-2.19-0.87-3.24-2.84-3.24c-1.91,0-3.37,1.17-3.37,3.55v9.33h-4.48V283.59z"/>
			<path class="st3" d="M427.48,293.99v-10.41h4.45v9.79c0,2.19,0.9,3.24,2.81,3.24c1.88,0,3.37-1.17,3.37-3.55v-9.48h4.45v16.15
				h-4.45v-2.53c-0.83,1.64-2.47,2.87-5.13,2.87C429.82,300.08,427.48,298.22,427.48,293.99z"/>
			<path class="st3" d="M445.45,295.26c0-3.77,3.46-5.19,8.4-5.19h1.82v-0.65c0-1.91-0.59-2.96-2.62-2.96
				c-1.76,0-2.56,0.9-2.75,2.29h-4.23c0.28-3.83,3.3-5.53,7.26-5.53s6.76,1.61,6.76,5.99v10.53h-4.35v-1.95
				c-0.93,1.3-2.35,2.29-4.88,2.29C447.92,300.08,445.45,298.66,445.45,295.26z M455.67,294.09v-1.36h-1.73
				c-2.59,0-4.11,0.56-4.11,2.29c0,1.17,0.71,1.95,2.35,1.95C454.16,296.96,455.67,295.88,455.67,294.09z"/>
			<path class="st3" d="M463.91,283.59h4.48v3.09c1.02-2.16,2.59-3.3,5.22-3.34v4.17c-3.3-0.03-5.22,1.05-5.22,4.14v8.09h-4.48
				V283.59z"/>
			<path class="st3" d="M481.58,298.1l-6.42-14.52h4.82l3.92,9.7l3.61-9.7h4.29l-8.74,21.65h-4.32L481.58,298.1z"/>
		</g>
		<g class="st2">
			<path class="st4" d="M359.63,169.7h7.23c7.75,0,11.58,4.2,11.58,10.81v0.25c0,6.61-3.86,11.03-11.61,11.03h-7.2V169.7z
				 M366.68,187.89c4.45,0,6.55-2.5,6.55-7.07v-0.25c0-4.54-1.95-6.98-6.61-6.98h-1.98v14.3H366.68z"/>
			<path class="st4" d="M380.66,183.91v-0.25c0-5.1,3.61-8.4,8.31-8.4c4.17,0,7.88,2.44,7.88,8.21v1.24H385.2
				c0.12,2.69,1.58,4.23,4.02,4.23c2.07,0,3.09-0.9,3.37-2.25h4.23c-0.53,3.49-3.3,5.44-7.72,5.44
				C384.21,192.13,380.66,189.07,380.66,183.91z M392.49,181.96c-0.15-2.44-1.39-3.61-3.52-3.61c-2.01,0-3.37,1.33-3.71,3.61H392.49
				z"/>
			<path class="st4" d="M398.79,183.91v-0.25c0-5.22,3.74-8.4,8.34-8.4c3.74,0,7.2,1.64,7.6,6.27h-4.23
				c-0.31-1.88-1.45-2.75-3.27-2.75c-2.32,0-3.86,1.73-3.86,4.82v0.25c0,3.24,1.45,4.91,3.95,4.91c1.79,0,3.24-1.05,3.46-3.12h4.05
				c-0.25,3.83-3.03,6.49-7.72,6.49C402.37,192.13,398.79,189.19,398.79,183.91z"/>
			<path class="st4" d="M416.64,183.91v-0.25c0-5.1,3.61-8.4,8.31-8.4c4.17,0,7.88,2.44,7.88,8.21v1.24h-11.64
				c0.12,2.69,1.57,4.23,4.01,4.23c2.07,0,3.09-0.9,3.37-2.25h4.23c-0.52,3.49-3.3,5.44-7.72,5.44
				C420.19,192.13,416.64,189.07,416.64,183.91z M428.47,181.96c-0.15-2.44-1.39-3.61-3.52-3.61c-2.01,0-3.37,1.33-3.71,3.61H428.47
				z"/>
			<path class="st4" d="M435.75,175.63h4.48v2.47c0.8-1.51,2.53-2.84,4.94-2.84c2.13,0,3.74,0.9,4.51,2.81
				c1.3-1.95,3.4-2.81,5.44-2.81c3,0,5.31,1.88,5.31,6.18v10.35h-4.45v-9.85c0-2.07-0.93-3-2.53-3c-1.73,0-3.12,1.11-3.12,3.3v9.54
				h-4.45v-9.85c0-2.07-0.96-3-2.53-3c-1.73,0-3.12,1.11-3.12,3.3v9.54h-4.48V175.63z"/>
			<path class="st4" d="M468.73,189.22v2.56h-4.48v-23.47h4.48v9.85c0.9-1.54,2.78-2.9,5.16-2.9c3.95,0,7.04,2.93,7.04,8.28v0.25
				c0,5.34-3.03,8.34-7.04,8.34C471.39,192.13,469.56,190.89,468.73,189.22z M476.39,183.82v-0.25c0-3.27-1.61-4.88-3.86-4.88
				c-2.35,0-3.95,1.64-3.95,4.88v0.25c0,3.24,1.54,4.82,3.98,4.82C475.03,188.63,476.39,186.97,476.39,183.82z"/>
			<path class="st4" d="M482.93,183.91v-0.25c0-5.1,3.61-8.4,8.31-8.4c4.17,0,7.88,2.44,7.88,8.21v1.24h-11.64
				c0.12,2.69,1.58,4.23,4.01,4.23c2.07,0,3.09-0.9,3.37-2.25h4.23c-0.53,3.49-3.3,5.44-7.72,5.44
				C486.49,192.13,482.93,189.07,482.93,183.91z M494.76,181.96c-0.15-2.44-1.39-3.61-3.52-3.61c-2.01,0-3.37,1.33-3.71,3.61H494.76
				z"/>
			<path class="st4" d="M502.05,175.63h4.48v3.09c1.02-2.16,2.59-3.3,5.22-3.34v4.17c-3.3-0.03-5.22,1.05-5.22,4.14v8.09h-4.48
				V175.63z"/>
		</g>
		<g class="st2">
			<path class="st4" d="M368,385.61h14.18v3.92h-9.17v5.84h7.26v3.77h-7.26v8.55h-5V385.61z"/>
			<path class="st4" d="M383.35,399.81v-0.25c0-5.1,3.61-8.4,8.31-8.4c4.17,0,7.88,2.44,7.88,8.21v1.24h-11.64
				c0.12,2.69,1.57,4.23,4.01,4.23c2.07,0,3.09-0.9,3.37-2.25h4.23c-0.53,3.49-3.3,5.44-7.72,5.44
				C386.9,408.03,383.35,404.97,383.35,399.81z M395.18,397.87c-0.15-2.44-1.39-3.61-3.52-3.61c-2.01,0-3.37,1.33-3.71,3.61H395.18z
				"/>
			<path class="st4" d="M406.94,405.13v2.56h-4.48v-23.47h4.48v9.85c0.9-1.54,2.78-2.9,5.16-2.9c3.95,0,7.04,2.93,7.04,8.28v0.25
				c0,5.34-3.03,8.34-7.04,8.34C409.6,408.03,407.78,406.79,406.94,405.13z M414.6,399.72v-0.25c0-3.27-1.61-4.88-3.86-4.88
				c-2.35,0-3.95,1.64-3.95,4.88v0.25c0,3.24,1.54,4.82,3.98,4.82C413.24,404.54,414.6,402.87,414.6,399.72z"/>
			<path class="st4" d="M422.13,391.54h4.48v3.09c1.02-2.16,2.59-3.3,5.22-3.34v4.17c-3.3-0.03-5.22,1.05-5.22,4.14v8.09h-4.48
				V391.54z"/>
			<path class="st4" d="M434.64,401.94v-10.41h4.45v9.79c0,2.19,0.9,3.24,2.81,3.24c1.88,0,3.37-1.17,3.37-3.55v-9.48h4.45v16.15
				h-4.45v-2.53c-0.83,1.64-2.47,2.87-5.13,2.87C436.99,408.03,434.64,406.17,434.64,401.94z"/>
			<path class="st4" d="M452.61,403.21c0-3.77,3.46-5.19,8.4-5.19h1.82v-0.65c0-1.92-0.59-2.96-2.62-2.96
				c-1.76,0-2.56,0.9-2.75,2.29h-4.23c0.28-3.83,3.3-5.53,7.26-5.53s6.76,1.61,6.76,5.99v10.53h-4.35v-1.95
				c-0.93,1.3-2.35,2.29-4.88,2.29C455.08,408.03,452.61,406.61,452.61,403.21z M462.83,402.04v-1.36h-1.73
				c-2.59,0-4.11,0.56-4.11,2.29c0,1.17,0.71,1.95,2.35,1.95C461.32,404.91,462.83,403.83,462.83,402.04z"/>
			<path class="st4" d="M471.08,391.54h4.48v3.09c1.02-2.16,2.59-3.3,5.22-3.34v4.17c-3.3-0.03-5.22,1.05-5.22,4.14v8.09h-4.48
				V391.54z"/>
			<path class="st4" d="M488.74,406.05l-6.42-14.52h4.82l3.92,9.7l3.61-9.7h4.29l-8.74,21.65h-4.32L488.74,406.05z"/>
		</g>
		<path id="Path_1001_00000034050472381842990570000017684490495583761053_" class="st1" d="M548.93,667.11H311.98V558.05h236.95
			V667.11z"/>
		<path id="Polygon_9_00000052801035780655436510000006703010165589715861_" class="st0" d="M430.45,573.06l-16.98-17.5h33.97
			L430.45,573.06z"/>
		<g class="st2">
			<path class="st4" d="M402.02,600.79h6.52l7.17,22.08h-5.22l-1.51-4.91h-8l-1.51,4.91h-4.69L402.02,600.79z M402.05,614.41h5.84
				l-2.9-9.54L402.05,614.41z"/>
			<path class="st4" d="M418.32,606.72h4.48v2.53c0.9-1.54,2.78-2.9,5.16-2.9c3.95,0,7.04,2.93,7.04,8.28v0.25
				c0,5.34-3.03,8.34-7.04,8.34c-2.5,0-4.32-1.24-5.16-2.81v7.97h-4.48V606.72z M430.46,614.9v-0.25c0-3.27-1.61-4.88-3.86-4.88
				c-2.35,0-3.95,1.64-3.95,4.88v0.25c0,3.24,1.54,4.82,3.98,4.82C429.1,619.72,430.46,618.05,430.46,614.9z"/>
			<path class="st4" d="M437.99,606.72h4.48v3.09c1.02-2.16,2.59-3.3,5.22-3.34v4.17c-3.3-0.03-5.22,1.05-5.22,4.14v8.09h-4.48
				V606.72z"/>
			<path class="st4" d="M450.41,602.09c0-1.39,1.11-2.44,2.53-2.44c1.45,0,2.56,1.05,2.56,2.44c0,1.39-1.11,2.44-2.56,2.44
				C451.52,604.53,450.41,603.48,450.41,602.09z M450.74,606.72h4.45v16.15h-4.45V606.72z"/>
			<path class="st4" d="M459.42,599.4h4.45v23.47h-4.45V599.4z"/>
		</g>
	</g>
	<path id="Path_1006_00000096763807803574504180000006844248217988454309_" class="st5" d="M311.98,506.45h-86.8"/>
	<path id="Path_1006_00000173128484539892059280000014685631969757629852_" class="st5" d="M635.72,612.58h-86.8"/>
	<g class="st2">
		<path class="st6" d="M69.52,509.16h4.79c0.22,1.98,1.05,3.61,4.32,3.61c2.19,0,3.64-1.2,3.64-2.93c0-1.76-0.93-2.38-4.17-2.87
			c-5.65-0.74-7.97-2.44-7.97-6.7c0-3.77,3.15-6.58,8.03-6.58c4.97,0,7.88,2.22,8.28,6.61h-4.6c-0.31-2.01-1.48-2.93-3.67-2.93
			s-3.3,1.02-3.3,2.5c0,1.58,0.71,2.32,4.11,2.81c5.34,0.68,8.09,2.13,8.09,6.7c0,3.92-3.21,7.04-8.43,7.04
			C72.58,516.42,69.8,513.58,69.52,509.16z"/>
		<path class="st6" d="M90.27,492.61h4.48v9.88c0.8-1.61,2.56-2.93,5.25-2.93c3.18,0,5.44,1.91,5.44,6.24v10.28h-4.48v-9.64
			c0-2.19-0.86-3.24-2.84-3.24c-1.92,0-3.37,1.17-3.37,3.55v9.33h-4.48V492.61z"/>
		<path class="st6" d="M108.27,508.17v-0.25c0-5.06,3.67-8.37,8.52-8.37c4.85,0,8.49,3.24,8.49,8.28v0.25c0,5.1-3.67,8.34-8.52,8.34
			C111.95,516.42,108.27,513.21,108.27,508.17z M120.75,508.11v-0.22c0-3.09-1.45-4.94-3.95-4.94c-2.47,0-3.95,1.79-3.95,4.88v0.25
			c0,3.09,1.42,4.94,3.95,4.94C119.3,513.02,120.75,511.17,120.75,508.11z"/>
		<path class="st6" d="M128.28,499.93h4.48v3.09c1.02-2.16,2.59-3.3,5.22-3.34v4.17c-3.3-0.03-5.22,1.05-5.22,4.14v8.09h-4.48
			V499.93z"/>
		<path class="st6" d="M141.75,511.29v-8.18h-2.07v-3.18h2.07v-3.49h4.45v3.49h3.4v3.18h-3.4v7.78c0,1.3,0.65,1.92,1.79,1.92
			c0.68,0,1.17-0.09,1.7-0.31v3.46c-0.62,0.22-1.51,0.43-2.72,0.43C143.57,516.39,141.75,514.66,141.75,511.29z"/>
		<path class="st6" d="M152.83,492.61h4.45v23.47h-4.45V492.61z"/>
		<path class="st6" d="M161.14,495.3c0-1.39,1.11-2.44,2.53-2.44c1.45,0,2.56,1.05,2.56,2.44s-1.11,2.44-2.56,2.44
			C162.25,497.74,161.14,496.69,161.14,495.3z M161.48,499.93h4.45v16.15h-4.45V499.93z"/>
		<path class="st6" d="M168.86,511.02h4.17c0.18,1.45,0.9,2.29,2.84,2.29c1.73,0,2.53-0.65,2.53-1.76c0-1.11-0.96-1.58-3.27-1.92
			c-4.29-0.65-5.96-1.88-5.96-5.03c0-3.37,3.09-5.03,6.39-5.03c3.58,0,6.27,1.3,6.67,5h-4.11c-0.25-1.33-0.99-1.95-2.53-1.95
			c-1.45,0-2.29,0.68-2.29,1.67c0,1.02,0.77,1.42,3.12,1.76c4.05,0.59,6.27,1.61,6.27,5.06c0,3.49-2.53,5.31-6.79,5.31
			C171.55,516.42,169.01,514.51,168.86,511.02z"/>
		<path class="st6" d="M186.21,511.29v-8.18h-2.07v-3.18h2.07v-3.49h4.45v3.49h3.4v3.18h-3.4v7.78c0,1.3,0.65,1.92,1.79,1.92
			c0.68,0,1.17-0.09,1.7-0.31v3.46c-0.62,0.22-1.51,0.43-2.72,0.43C188.03,516.39,186.21,514.66,186.21,511.29z"/>
	</g>
	<path id="Path_1006_00000083079885194290374310000011620416201831414945_" class="st5" d="M312.97,719.71h-86.8"/>
	<g class="st2">
		<path class="st6" d="M18.11,707.7h14.18v3.92h-9.17v5.84h7.26v3.77h-7.26v8.55h-5V707.7z"/>
		<path class="st6" d="M34.69,709c0-1.39,1.11-2.44,2.53-2.44c1.45,0,2.56,1.05,2.56,2.44s-1.11,2.44-2.56,2.44
			C35.8,711.44,34.69,710.39,34.69,709z M35.03,713.63h4.45v16.15h-4.45V713.63z"/>
		<path class="st6" d="M43.58,713.63h4.48v2.56c0.8-1.61,2.56-2.93,5.25-2.93c3.18,0,5.44,1.91,5.44,6.24v10.28h-4.48v-9.64
			c0-2.19-0.86-3.24-2.84-3.24c-1.92,0-3.37,1.17-3.37,3.55v9.33h-4.48V713.63z"/>
		<path class="st6" d="M61.53,725.31c0-3.77,3.46-5.19,8.4-5.19h1.82v-0.65c0-1.91-0.59-2.96-2.63-2.96c-1.76,0-2.56,0.9-2.75,2.29
			h-4.23c0.28-3.83,3.3-5.53,7.26-5.53s6.76,1.61,6.76,5.99v10.53h-4.35v-1.95c-0.93,1.3-2.35,2.29-4.88,2.29
			C64,730.13,61.53,728.7,61.53,725.31z M71.75,724.13v-1.36h-1.73c-2.59,0-4.11,0.56-4.11,2.29c0,1.17,0.71,1.95,2.35,1.95
			C70.23,727.01,71.75,725.92,71.75,724.13z"/>
		<path class="st6" d="M80.11,706.31h4.45v23.47h-4.45V706.31z"/>
		<path class="st6" d="M87.65,721.91v-0.25c0-5.1,3.61-8.4,8.31-8.4c4.17,0,7.88,2.44,7.88,8.21v1.24H92.19
			c0.12,2.69,1.58,4.23,4.01,4.23c2.07,0,3.09-0.9,3.37-2.25h4.23c-0.53,3.49-3.3,5.44-7.72,5.44
			C91.2,730.13,87.65,727.07,87.65,721.91z M99.48,719.96c-0.15-2.44-1.39-3.61-3.52-3.61c-2.01,0-3.37,1.33-3.71,3.61H99.48z"/>
		<path class="st6" d="M114.02,707.7h14.39v3.89h-9.42v5.16h7.54v3.64h-7.54v5.5h9.91v3.89h-14.89V707.7z"/>
		<path class="st6" d="M129.98,713.63h4.79l3.86,11.55l3.83-11.55h4.32l-5.87,16.15h-5.03L129.98,713.63z"/>
		<path class="st6" d="M147.43,721.91v-0.25c0-5.1,3.61-8.4,8.31-8.4c4.17,0,7.88,2.44,7.88,8.21v1.24h-11.64
			c0.12,2.69,1.58,4.23,4.01,4.23c2.07,0,3.09-0.9,3.37-2.25h4.23c-0.53,3.49-3.3,5.44-7.72,5.44
			C150.98,730.13,147.43,727.07,147.43,721.91z M159.26,719.96c-0.15-2.44-1.39-3.61-3.52-3.61c-2.01,0-3.37,1.33-3.71,3.61H159.26z
			"/>
		<path class="st6" d="M166.54,713.63h4.48v2.56c0.8-1.61,2.56-2.93,5.25-2.93c3.18,0,5.44,1.91,5.44,6.24v10.28h-4.48v-9.64
			c0-2.19-0.86-3.24-2.84-3.24c-1.92,0-3.37,1.17-3.37,3.55v9.33h-4.48V713.63z"/>
		<path class="st6" d="M186.21,725v-8.18h-2.07v-3.18h2.07v-3.49h4.45v3.49h3.4v3.18h-3.4v7.78c0,1.3,0.65,1.92,1.79,1.92
			c0.68,0,1.17-0.09,1.7-0.31v3.46c-0.62,0.22-1.51,0.43-2.72,0.43C188.04,730.09,186.21,728.36,186.21,725z"/>
	</g>
	<g>
		<g class="st2">
			<path class="st6" d="M662.72,565.2h7.63c5.37,0,8.43,2.38,8.43,7.04v0.12c0,4.66-3.24,6.89-8.28,6.89h-2.81v8.03h-4.97V565.2z
				 M670.23,575.77c2.44,0,3.74-1.17,3.74-3.37v-0.12c0-2.35-1.36-3.27-3.74-3.27h-2.53v6.76H670.23z"/>
			<path class="st6" d="M681.65,571.13h4.48v3.09c1.02-2.16,2.59-3.3,5.22-3.34v4.17c-3.3-0.03-5.22,1.05-5.22,4.14v8.09h-4.48
				V571.13z"/>
			<path class="st6" d="M692.98,579.41v-0.25c0-5.1,3.61-8.4,8.31-8.4c4.17,0,7.88,2.44,7.88,8.21v1.24h-11.64
				c0.12,2.69,1.58,4.23,4.01,4.23c2.07,0,3.09-0.9,3.37-2.25h4.23c-0.53,3.49-3.3,5.44-7.72,5.44
				C696.53,587.63,692.98,584.57,692.98,579.41z M704.81,577.46c-0.15-2.44-1.39-3.61-3.52-3.61c-2.01,0-3.37,1.33-3.71,3.61H704.81
				z"/>
			<path class="st6" d="M711.08,582.22h4.17c0.18,1.45,0.9,2.29,2.84,2.29c1.73,0,2.53-0.65,2.53-1.76c0-1.11-0.96-1.58-3.27-1.92
				c-4.29-0.65-5.96-1.88-5.96-5.03c0-3.37,3.09-5.03,6.39-5.03c3.58,0,6.27,1.3,6.67,5h-4.11c-0.25-1.33-0.99-1.95-2.53-1.95
				c-1.45,0-2.29,0.68-2.29,1.67c0,1.02,0.77,1.42,3.12,1.76c4.05,0.59,6.27,1.61,6.27,5.06c0,3.49-2.53,5.31-6.79,5.31
				C713.76,587.63,711.23,585.71,711.08,582.22z"/>
			<path class="st6" d="M726.76,579.41v-0.25c0-5.1,3.61-8.4,8.31-8.4c4.17,0,7.88,2.44,7.88,8.21v1.24H731.3
				c0.12,2.69,1.58,4.23,4.01,4.23c2.07,0,3.09-0.9,3.37-2.25h4.23c-0.53,3.49-3.3,5.44-7.72,5.44
				C730.31,587.63,726.76,584.57,726.76,579.41z M738.59,577.46c-0.15-2.44-1.39-3.61-3.52-3.61c-2.01,0-3.37,1.33-3.71,3.61H738.59
				z"/>
			<path class="st6" d="M745.88,571.13h4.48v2.56c0.8-1.61,2.56-2.93,5.25-2.93c3.18,0,5.44,1.91,5.44,6.24v10.28h-4.48v-9.64
				c0-2.19-0.86-3.24-2.84-3.24c-1.92,0-3.37,1.17-3.37,3.55v9.33h-4.48V571.13z"/>
			<path class="st6" d="M765.55,582.5v-8.18h-2.07v-3.18h2.07v-3.49h4.45v3.49h3.4v3.18h-3.4v7.78c0,1.3,0.65,1.92,1.79,1.92
				c0.68,0,1.17-0.09,1.7-0.31v3.46c-0.62,0.22-1.51,0.43-2.72,0.43C767.37,587.59,765.55,585.86,765.55,582.5z"/>
			<path class="st6" d="M775.61,582.81c0-3.77,3.46-5.19,8.4-5.19h1.82v-0.65c0-1.91-0.59-2.96-2.62-2.96
				c-1.76,0-2.56,0.9-2.75,2.29h-4.23c0.28-3.83,3.3-5.53,7.26-5.53s6.76,1.61,6.76,5.99v10.53h-4.35v-1.95
				c-0.93,1.3-2.35,2.29-4.88,2.29C778.08,587.63,775.61,586.2,775.61,582.81z M785.84,581.63v-1.36h-1.73
				c-2.59,0-4.11,0.56-4.11,2.29c0,1.17,0.71,1.95,2.35,1.95C784.32,584.51,785.84,583.42,785.84,581.63z"/>
			<path class="st6" d="M794.76,582.5v-8.18h-2.07v-3.18h2.07v-3.49h4.45v3.49h3.4v3.18h-3.4v7.78c0,1.3,0.65,1.92,1.79,1.92
				c0.68,0,1.17-0.09,1.7-0.31v3.46c-0.62,0.22-1.51,0.43-2.72,0.43C796.58,587.59,794.76,585.86,794.76,582.5z"/>
			<path class="st6" d="M805.5,566.5c0-1.39,1.11-2.44,2.53-2.44c1.45,0,2.56,1.05,2.56,2.44s-1.11,2.44-2.56,2.44
				C806.61,568.94,805.5,567.89,805.5,566.5z M805.84,571.13h4.45v16.15h-4.45V571.13z"/>
			<path class="st6" d="M813.41,579.38v-0.25c0-5.06,3.67-8.37,8.52-8.37c4.85,0,8.49,3.24,8.49,8.28v0.25
				c0,5.1-3.67,8.34-8.52,8.34C817.08,587.63,813.41,584.41,813.41,579.38z M825.88,579.32v-0.22c0-3.09-1.45-4.94-3.95-4.94
				c-2.47,0-3.95,1.79-3.95,4.88v0.25c0,3.09,1.42,4.94,3.95,4.94C824.43,584.23,825.88,582.38,825.88,579.32z"/>
			<path class="st6" d="M833.42,571.13h4.48v2.56c0.8-1.61,2.56-2.93,5.25-2.93c3.18,0,5.44,1.91,5.44,6.24v10.28h-4.48v-9.64
				c0-2.19-0.86-3.24-2.84-3.24c-1.92,0-3.37,1.17-3.37,3.55v9.33h-4.48V571.13z"/>
			<path class="st6" d="M666.8,621.78v2.56h-4.48v-23.47h4.48v9.85c0.9-1.54,2.78-2.9,5.16-2.9c3.95,0,7.04,2.93,7.04,8.28v0.25
				c0,5.34-3.03,8.34-7.04,8.34C669.45,624.68,667.63,623.44,666.8,621.78z M674.46,616.37v-0.25c0-3.27-1.61-4.88-3.86-4.88
				c-2.35,0-3.95,1.64-3.95,4.88v0.25c0,3.24,1.54,4.82,3.98,4.82C673.1,621.19,674.46,619.52,674.46,616.37z"/>
			<path class="st6" d="M686.41,622.7l-6.42-14.52h4.82l3.92,9.7l3.61-9.7h4.29l-8.74,21.65h-4.32L686.41,622.7z"/>
			<path class="st6" d="M705.15,613.44v-0.25c0-6.7,4.69-11.27,10.96-11.27c5.31,0,9.26,2.59,9.79,8.03h-5.13
				c-0.37-2.66-1.85-4.08-4.63-4.08c-3.49,0-5.71,2.72-5.71,7.29v0.25c0,4.57,2.1,7.23,5.74,7.23c2.75,0,4.66-1.39,5.07-4.23h4.91
				c-0.56,5.47-4.48,8.28-9.91,8.28C709.01,624.68,705.15,620.23,705.15,613.44z"/>
			<path class="st6" d="M728.09,619.86c0-3.77,3.46-5.19,8.4-5.19h1.82v-0.65c0-1.91-0.59-2.96-2.62-2.96
				c-1.76,0-2.56,0.9-2.75,2.29h-4.23c0.28-3.83,3.3-5.53,7.26-5.53s6.76,1.61,6.76,5.99v10.53h-4.35v-1.95
				c-0.93,1.3-2.35,2.29-4.88,2.29C730.56,624.68,728.09,623.26,728.09,619.86z M738.31,618.69v-1.36h-1.73
				c-2.59,0-4.11,0.56-4.11,2.29c0,1.17,0.71,1.95,2.35,1.95C736.8,621.56,738.31,620.48,738.31,618.69z"/>
			<path class="st6" d="M747.24,619.55v-8.18h-2.07v-3.18h2.07v-3.49h4.45v3.49h3.4v3.18h-3.4v7.78c0,1.3,0.65,1.92,1.79,1.92
				c0.68,0,1.17-0.09,1.7-0.31v3.46c-0.62,0.22-1.51,0.43-2.72,0.43C749.06,624.65,747.24,622.92,747.24,619.55z"/>
			<path class="st6" d="M757.21,616.46v-0.25c0-5.1,3.61-8.4,8.31-8.4c4.17,0,7.88,2.44,7.88,8.21v1.24h-11.64
				c0.12,2.69,1.58,4.23,4.01,4.23c2.07,0,3.09-0.9,3.37-2.25h4.23c-0.53,3.49-3.3,5.44-7.72,5.44
				C760.76,624.68,757.21,621.62,757.21,616.46z M769.04,614.52c-0.15-2.44-1.39-3.61-3.52-3.61c-2.01,0-3.37,1.33-3.71,3.61H769.04
				z"/>
			<path class="st6" d="M775.46,624.68h4.45c0.28,1.42,1.3,2.35,3.58,2.35c2.72,0,4.08-1.42,4.08-3.95v-2.44
				c-0.9,1.58-2.81,3-5.19,3c-3.92,0-7.04-2.93-7.04-7.72v-0.22c0-4.63,3.09-7.88,7.1-7.88c2.62,0,4.2,1.14,5.13,2.78v-2.41h4.45
				v14.89c-0.03,4.79-3.21,7.23-8.52,7.23C778.27,630.3,775.89,628.01,775.46,624.68z M787.69,615.85v-0.22
				c0-2.75-1.45-4.42-3.89-4.42c-2.5,0-3.89,1.79-3.89,4.45v0.25c0,2.69,1.58,4.35,3.8,4.35
				C786.05,620.26,787.69,618.6,787.69,615.85z"/>
			<path class="st6" d="M794.97,616.43v-0.25c0-5.06,3.67-8.37,8.52-8.37c4.85,0,8.49,3.24,8.49,8.28v0.25
				c0,5.1-3.67,8.34-8.52,8.34C798.65,624.68,794.97,621.47,794.97,616.43z M807.45,616.37v-0.22c0-3.09-1.45-4.94-3.95-4.94
				c-2.47,0-3.95,1.79-3.95,4.88v0.25c0,3.09,1.42,4.94,3.95,4.94C806,621.28,807.45,619.43,807.45,616.37z"/>
			<path class="st6" d="M814.98,608.19h4.48v3.09c1.02-2.16,2.59-3.3,5.22-3.34v4.17c-3.3-0.03-5.22,1.05-5.22,4.14v8.09h-4.48
				V608.19z"/>
			<path class="st6" d="M832.65,622.7l-6.42-14.52h4.82l3.92,9.7l3.61-9.7h4.29l-8.74,21.65h-4.32L832.65,622.7z"/>
			<path class="st6" d="M678.69,656.89l3.68,4.51h-5.71l-1.61-1.98c-1.39,1.27-3.18,2.29-6.02,2.29c-4.48,0-7.47-2.44-7.47-6.45
				c0-3.06,1.92-5.03,4.91-6.49c-1.08-1.48-1.54-2.93-1.54-4.17c0-3.58,3-5.5,6.49-5.5c3.21,0,5.99,1.79,5.99,4.94
				c0,2.5-1.58,4.29-4.51,5.53l3.46,4.23l1.98-3.86h3.95L678.69,656.89z M672.73,656.55l-4.2-5.1c-1.33,0.68-2.29,1.58-2.29,3.3
				c0,1.98,1.24,3.27,3.43,3.27C670.84,658.03,671.89,657.53,672.73,656.55z M670.75,647.59c1.85-0.87,2.66-1.79,2.66-3.3
				c0-1.14-0.8-1.98-1.95-1.98c-1.24,0-2.19,0.8-2.19,2.35C669.27,645.58,669.82,646.48,670.75,647.59z"/>
			<path class="st6" d="M690.85,654.48h4.79c0.22,1.98,1.05,3.61,4.32,3.61c2.19,0,3.64-1.2,3.64-2.93c0-1.76-0.93-2.38-4.17-2.87
				c-5.65-0.74-7.97-2.44-7.97-6.7c0-3.77,3.15-6.58,8.03-6.58c4.97,0,7.88,2.22,8.28,6.61h-4.6c-0.31-2.01-1.48-2.93-3.67-2.93
				s-3.3,1.02-3.3,2.5c0,1.58,0.71,2.32,4.11,2.81c5.34,0.68,8.09,2.13,8.09,6.7c0,3.92-3.21,7.04-8.43,7.04
				C693.91,661.73,691.13,658.89,690.85,654.48z"/>
			<path class="st6" d="M711.6,637.92h4.48v9.88c0.8-1.61,2.56-2.93,5.25-2.93c3.18,0,5.44,1.91,5.44,6.24v10.28h-4.48v-9.64
				c0-2.19-0.86-3.24-2.84-3.24c-1.92,0-3.37,1.17-3.37,3.55v9.33h-4.48V637.92z"/>
			<path class="st6" d="M729.6,653.49v-0.25c0-5.06,3.67-8.37,8.52-8.37c4.85,0,8.49,3.24,8.49,8.28v0.25c0,5.1-3.67,8.34-8.52,8.34
				C733.28,661.73,729.6,658.52,729.6,653.49z M742.08,653.43v-0.22c0-3.09-1.45-4.94-3.95-4.94c-2.47,0-3.95,1.79-3.95,4.88v0.25
				c0,3.09,1.42,4.94,3.95,4.94C740.63,658.34,742.08,656.48,742.08,653.43z"/>
			<path class="st6" d="M749.61,645.24h4.48v3.09c1.02-2.16,2.59-3.3,5.22-3.34v4.17c-3.3-0.03-5.22,1.05-5.22,4.14v8.09h-4.48
				V645.24z"/>
			<path class="st6" d="M763.08,656.61v-8.18h-2.07v-3.18h2.07v-3.49h4.45v3.49h3.4v3.18h-3.4v7.78c0,1.3,0.65,1.92,1.79,1.92
				c0.68,0,1.17-0.09,1.7-0.31v3.46c-0.62,0.22-1.51,0.43-2.72,0.43C764.9,661.7,763.08,659.97,763.08,656.61z"/>
			<path class="st6" d="M774.16,637.92h4.45v23.47h-4.45V637.92z"/>
			<path class="st6" d="M782.47,640.61c0-1.39,1.11-2.44,2.53-2.44c1.45,0,2.56,1.05,2.56,2.44s-1.11,2.44-2.56,2.44
				C783.58,643.05,782.47,642,782.47,640.61z M782.81,645.24h4.45v16.15h-4.45V645.24z"/>
			<path class="st6" d="M790.19,656.33h4.17c0.18,1.45,0.9,2.29,2.84,2.29c1.73,0,2.53-0.65,2.53-1.76c0-1.11-0.96-1.58-3.27-1.92
				c-4.29-0.65-5.96-1.88-5.96-5.03c0-3.37,3.09-5.03,6.39-5.03c3.58,0,6.27,1.3,6.67,5h-4.11c-0.25-1.33-0.99-1.95-2.53-1.95
				c-1.45,0-2.29,0.68-2.29,1.67c0,1.02,0.77,1.42,3.12,1.76c4.05,0.59,6.27,1.61,6.27,5.06c0,3.49-2.53,5.31-6.79,5.31
				C792.87,661.73,790.34,659.82,790.19,656.33z"/>
			<path class="st6" d="M807.54,656.61v-8.18h-2.07v-3.18h2.07v-3.49h4.45v3.49h3.4v3.18h-3.4v7.78c0,1.3,0.65,1.92,1.79,1.92
				c0.68,0,1.17-0.09,1.7-0.31v3.46c-0.62,0.22-1.51,0.43-2.72,0.43C809.36,661.7,807.54,659.97,807.54,656.61z"/>
		</g>
	</g>
	<path id="Path_1004_00000027578505473083554500000001508894792570502074_" class="st5" d="M548.93,397.4h86.8V72.93h-86.79"/>
</g>
</svg>
