<?xml version="1.0" encoding="utf-8"?>
<!-- Generator: Adobe Illustrator 26.0.1, SVG Export Plug-In . SVG Version: 6.00 Build 0)  -->
<svg version="1.1" id="Layer_1" xmlns="http://www.w3.org/2000/svg" xmlns:xlink="http://www.w3.org/1999/xlink" x="0px" y="0px"
	 viewBox="0 0 883.88 1240.3" style="enable-background:new 0 0 883.88 1240.3;" xml:space="preserve">
<style type="text/css">
	.st0{fill:#F16145;}
	.st1{fill:#FFC35A;}
	.st2{enable-background:new    ;}
	.st3{fill:#FFFFFF;}
	.st4{fill:#373737;}
	.st5{fill:none;stroke:#F16145;stroke-width:5.1465;}
	.st6{fill:#404040;}
	.st7{fill:#506F85;}
	.st8{fill:#9E9D9E;}
	.st9{fill:#C11E60;}
	.st10{fill:#3B4C93;}
	.st11{fill:none;stroke:#70C5D9;stroke-width:8.8886;stroke-miterlimit:10;}
	.st12{fill:#356AA0;}
	.st13{fill:#41B175;}
	.st14{fill:none;stroke:#70C5D9;stroke-width:7.1238;stroke-miterlimit:10;}
</style>
<g>
	<path id="Path_997_00000083069093292463155070000013904685805288988295_" class="st0" d="M506.82,248.76H269.87V139.71h236.95
		V248.76z"/>
	<path id="Path_1000_00000090296845985371675140000004153125246151646620_" class="st0" d="M506.82,466.87H269.87V357.82h236.95
		V466.87z"/>
	<path id="Path_1003_00000130625596812959123800000002792562141385287845_" class="st0" d="M506.82,903.08H269.87V794.03h236.95
		V903.08z"/>
	<path id="Path_998_00000028304389007286024540000014666984176518544548_" class="st1" d="M506.82,357.82H269.87V248.76h236.95
		V357.82z"/>
	<path id="Path_999_00000087392879137802023420000005848948742457322929_" class="st1" d="M506.82,575.92H269.87V466.87h236.95
		V575.92z"/>
	<path id="Path_1001_00000103972652700219301460000010546749522612356258_" class="st1" d="M506.82,794.03H269.87V684.98h236.95
		V794.03z"/>
	<path id="Polygon_4_00000033330147952462131350000002080202582959915407_" class="st0" d="M388.34,265.26l-16.98-17.5h33.97
		L388.34,265.26z"/>
	<path id="Polygon_7_00000124875266360431993860000010170746966469678999_" class="st0" d="M388.34,483.37l-16.98-17.5h33.97
		L388.34,483.37z"/>
	<path id="Path_1002_00000099660010376660235070000003155832611677982393_" class="st0" d="M506.82,684.98H269.87V575.92h236.95
		V684.98z"/>
	<g class="st2">
		<path class="st3" d="M335.72,618.66h6.61l5.16,13.74l5.1-13.74h6.49v22.08h-4.97v-15.5l-6.12,15.5h-1.64l-6.15-15.5v15.5h-4.48
			V618.66z"/>
		<path class="st3" d="M362.25,636.27c0-3.77,3.46-5.19,8.4-5.19h1.82v-0.65c0-1.92-0.59-2.96-2.63-2.96c-1.76,0-2.56,0.9-2.75,2.29
			h-4.23c0.28-3.83,3.3-5.53,7.26-5.53s6.76,1.61,6.76,5.99v10.53h-4.35v-1.95c-0.93,1.3-2.35,2.29-4.88,2.29
			C364.72,641.08,362.25,639.66,362.25,636.27z M372.47,635.09v-1.36h-1.73c-2.59,0-4.11,0.56-4.11,2.29c0,1.17,0.71,1.95,2.35,1.95
			C370.96,637.96,372.47,636.88,372.47,635.09z"/>
		<path class="st3" d="M380.72,624.59h4.48v3.09c1.02-2.16,2.59-3.3,5.22-3.34v4.17c-3.3-0.03-5.22,1.05-5.22,4.14v8.09h-4.48
			V624.59z"/>
		<path class="st3" d="M399.27,625.39l3.98-7.1l2.56,1.05l-2.56,7.5L399.27,625.39z"/>
		<path class="st3" d="M406.93,639.94l8.09-8.55c2.13-2.25,3.49-4.2,3.49-6.21c0-1.82-1.02-3-2.93-3c-1.95,0-3.18,1.14-3.52,4.05
			h-4.54c0.25-5.1,3.34-7.88,8.28-7.88c4.88,0,7.66,2.72,7.66,6.7c0,2.93-1.7,5.34-4.26,7.81l-4.17,4.08h8.59v3.8h-16.68V639.94z"/>
		<path class="st3" d="M425.4,639.94l8.09-8.55c2.13-2.25,3.49-4.2,3.49-6.21c0-1.82-1.02-3-2.93-3c-1.95,0-3.18,1.14-3.52,4.05
			h-4.54c0.25-5.1,3.34-7.88,8.28-7.88c4.88,0,7.66,2.72,7.66,6.7c0,2.93-1.7,5.34-4.26,7.81l-4.17,4.08h8.59v3.8H425.4V639.94z"/>
	</g>
	<path id="Polygon_9_00000023977837839092436140000009466585097239710609_" class="st0" d="M388.34,701.48l-16.98-17.5h33.97
		L388.34,701.48z"/>
	<path id="Polygon_5_00000003082435226727451430000006595932178536984735_" class="st1" d="M388.34,374.46l-16.98-17.5h33.97
		L388.34,374.46z"/>
	<path id="Polygon_6_00000098908588125137511440000017053645229046989201_" class="st1" d="M388.34,592.42l-16.98-17.5h33.97
		L388.34,592.42z"/>
	<path id="Polygon_8_00000140009157274979805820000003803458419915374479_" class="st1" d="M388.34,810.53l-16.98-17.5h33.97
		L388.34,810.53z"/>
	<g class="st2">
		<path class="st3" d="M337.66,182.45h5.81l8.4,14.55v-14.55h4.45v22.08h-5l-9.2-15.72v15.72h-4.45V182.45z"/>
		<path class="st3" d="M359.52,196.62v-0.25c0-5.07,3.68-8.37,8.52-8.37c4.85,0,8.49,3.24,8.49,8.28v0.25c0,5.1-3.68,8.34-8.52,8.34
			C363.19,204.87,359.52,201.66,359.52,196.62z M371.99,196.56v-0.22c0-3.09-1.45-4.94-3.95-4.94c-2.47,0-3.95,1.79-3.95,4.88v0.25
			c0,3.09,1.42,4.94,3.95,4.94C370.54,201.47,371.99,199.62,371.99,196.56z"/>
		<path class="st3" d="M377.37,188.38h4.79l3.86,11.55l3.83-11.55h4.32l-5.87,16.15h-5.03L377.37,188.38z"/>
		<path class="st3" d="M402.5,189.18l3.98-7.1l2.56,1.05l-2.56,7.5L402.5,189.18z"/>
		<path class="st3" d="M410.16,203.73l8.09-8.55c2.13-2.25,3.49-4.2,3.49-6.21c0-1.82-1.02-3-2.93-3c-1.95,0-3.18,1.14-3.52,4.05
			h-4.54c0.25-5.1,3.33-7.88,8.28-7.88c4.88,0,7.66,2.72,7.66,6.7c0,2.93-1.7,5.34-4.26,7.81l-4.17,4.08h8.59v3.8h-16.68V203.73z"/>
		<path class="st3" d="M433.57,187.39l-4.48,2.93v-4.26l5.1-3.61h4.38v22.08h-5V187.39z"/>
	</g>
	<g class="st2">
		<path class="st3" d="M338.26,422.23v-3.83c0.74,0.28,1.48,0.53,2.78,0.53c1.88,0,3.12-0.96,3.12-3.49v-14.89h5.03v14.95
			c0,5-2.72,7.41-7.26,7.41C340.02,422.91,339.03,422.64,338.26,422.23z"/>
		<path class="st3" d="M352.06,418.16c0-3.77,3.46-5.19,8.4-5.19h1.82v-0.65c0-1.92-0.59-2.96-2.62-2.96c-1.76,0-2.56,0.9-2.75,2.29
			h-4.23c0.28-3.83,3.3-5.53,7.26-5.53s6.76,1.61,6.76,5.99v10.53h-4.35v-1.95c-0.93,1.3-2.35,2.29-4.88,2.29
			C354.53,422.98,352.06,421.56,352.06,418.16z M362.28,416.98v-1.36h-1.73c-2.59,0-4.11,0.56-4.11,2.29c0,1.17,0.71,1.95,2.35,1.95
			C360.77,419.86,362.28,418.78,362.28,416.98z"/>
		<path class="st3" d="M370.53,406.48H375v2.56c0.8-1.61,2.56-2.93,5.25-2.93c3.18,0,5.44,1.91,5.44,6.24v10.28h-4.48V413
			c0-2.19-0.86-3.24-2.84-3.24c-1.92,0-3.37,1.17-3.37,3.55v9.33h-4.48V406.48z"/>
		<path class="st3" d="M395.44,407.29l3.98-7.1l2.56,1.05l-2.56,7.5L395.44,407.29z"/>
		<path class="st3" d="M403.1,421.83l8.09-8.55c2.13-2.25,3.49-4.2,3.49-6.21c0-1.82-1.02-3-2.93-3c-1.95,0-3.18,1.14-3.52,4.05
			h-4.54c0.25-5.1,3.34-7.88,8.28-7.88c4.88,0,7.66,2.72,7.66,6.7c0,2.93-1.7,5.34-4.26,7.81l-4.17,4.08h8.59v3.8H403.1V421.83z"/>
		<path class="st3" d="M421.57,421.83l8.09-8.55c2.13-2.25,3.49-4.2,3.49-6.21c0-1.82-1.02-3-2.93-3c-1.95,0-3.18,1.14-3.52,4.05
			h-4.54c0.25-5.1,3.33-7.88,8.28-7.88c4.88,0,7.66,2.72,7.66,6.7c0,2.93-1.7,5.34-4.26,7.81l-4.17,4.08h8.59v3.8h-16.68V421.83z"/>
	</g>
	<g class="st2">
		<path class="st3" d="M333.52,836.77h6.61l5.16,13.74l5.1-13.74h6.49v22.08h-4.97v-15.5l-6.12,15.5h-1.64l-6.15-15.5v15.5h-4.48
			V836.77z"/>
		<path class="st3" d="M360.04,854.37c0-3.77,3.46-5.19,8.4-5.19h1.82v-0.65c0-1.92-0.59-2.96-2.62-2.96c-1.76,0-2.56,0.9-2.75,2.29
			h-4.23c0.28-3.83,3.3-5.53,7.26-5.53s6.76,1.61,6.76,5.99v10.53h-4.35v-1.95c-0.93,1.3-2.35,2.29-4.88,2.29
			C362.51,859.19,360.04,857.77,360.04,854.37z M370.27,853.2v-1.36h-1.73c-2.59,0-4.11,0.56-4.11,2.29c0,1.17,0.71,1.95,2.35,1.95
			C368.75,856.07,370.27,854.99,370.27,853.2z"/>
		<path class="st3" d="M382.93,857.21l-6.42-14.52h4.82l3.92,9.7l3.61-9.7h4.29l-8.74,21.65h-4.32L382.93,857.21z"/>
		<path class="st3" d="M401.48,843.5l3.98-7.1l2.56,1.05l-2.56,7.5L401.48,843.5z"/>
		<path class="st3" d="M409.14,858.05l8.09-8.55c2.13-2.25,3.49-4.2,3.49-6.21c0-1.82-1.02-3-2.93-3c-1.95,0-3.18,1.14-3.52,4.05
			h-4.54c0.25-5.1,3.34-7.88,8.28-7.88c4.88,0,7.66,2.72,7.66,6.7c0,2.93-1.7,5.34-4.26,7.81l-4.17,4.08h8.59v3.8h-16.68V858.05z"/>
		<path class="st3" d="M427.61,858.05l8.09-8.55c2.13-2.25,3.49-4.2,3.49-6.21c0-1.82-1.02-3-2.93-3c-1.95,0-3.18,1.14-3.52,4.05
			h-4.54c0.25-5.1,3.34-7.88,8.28-7.88c4.88,0,7.66,2.72,7.66,6.7c0,2.93-1.7,5.34-4.26,7.81l-4.17,4.08h8.59v3.8h-16.68V858.05z"/>
	</g>
	<g class="st2">
		<path class="st4" d="M338.12,291.5h7.23c7.75,0,11.58,4.2,11.58,10.81v0.25c0,6.61-3.86,11.03-11.61,11.03h-7.2V291.5z
			 M345.16,309.69c4.45,0,6.55-2.5,6.55-7.07v-0.25c0-4.54-1.95-6.98-6.61-6.98h-1.98v14.3H345.16z"/>
		<path class="st4" d="M359.15,305.71v-0.25c0-5.1,3.61-8.4,8.31-8.4c4.17,0,7.88,2.44,7.88,8.21v1.24h-11.64
			c0.12,2.69,1.57,4.23,4.01,4.23c2.07,0,3.09-0.9,3.37-2.25h4.23c-0.53,3.49-3.3,5.44-7.72,5.44
			C362.7,313.92,359.15,310.86,359.15,305.71z M370.98,303.76c-0.15-2.44-1.39-3.61-3.52-3.61c-2.01,0-3.37,1.33-3.71,3.61H370.98z"
			/>
		<path class="st4" d="M377.27,305.71v-0.25c0-5.22,3.74-8.4,8.34-8.4c3.74,0,7.2,1.64,7.6,6.27h-4.23
			c-0.31-1.88-1.45-2.75-3.27-2.75c-2.32,0-3.86,1.73-3.86,4.82v0.25c0,3.24,1.45,4.91,3.95,4.91c1.79,0,3.24-1.05,3.46-3.12h4.05
			c-0.25,3.83-3.03,6.49-7.72,6.49C380.86,313.92,377.27,310.99,377.27,305.71z"/>
		<path class="st4" d="M402.04,298.23l3.98-7.1l2.56,1.05l-2.56,7.5L402.04,298.23z"/>
		<path class="st4" d="M409.69,312.78l8.09-8.55c2.13-2.25,3.49-4.2,3.49-6.21c0-1.82-1.02-3-2.93-3c-1.95,0-3.18,1.14-3.52,4.05
			h-4.54c0.25-5.1,3.34-7.88,8.28-7.88c4.88,0,7.66,2.72,7.66,6.7c0,2.93-1.7,5.34-4.26,7.81l-4.17,4.08h8.59v3.8h-16.68V312.78z"/>
		<path class="st4" d="M433.1,296.44l-4.48,2.93v-4.26l5.1-3.61h4.39v22.08h-5V296.44z"/>
	</g>
	<g class="st2">
		<path class="st4" d="M337.47,509.61h14.18v3.92h-9.17v5.84h7.26v3.77h-7.26v8.55h-5V509.61z"/>
		<path class="st4" d="M352.82,523.81v-0.25c0-5.1,3.61-8.4,8.31-8.4c4.17,0,7.88,2.44,7.88,8.21v1.24h-11.64
			c0.12,2.69,1.58,4.23,4.02,4.23c2.07,0,3.09-0.9,3.37-2.25h4.23c-0.53,3.49-3.3,5.44-7.72,5.44
			C356.37,532.03,352.82,528.97,352.82,523.81z M364.64,521.87c-0.15-2.44-1.39-3.61-3.52-3.61c-2.01,0-3.37,1.33-3.71,3.61H364.64z
			"/>
		<path class="st4" d="M376.41,529.13v2.56h-4.48v-23.47h4.48v9.85c0.89-1.54,2.78-2.9,5.16-2.9c3.95,0,7.04,2.93,7.04,8.28v0.25
			c0,5.34-3.03,8.34-7.04,8.34C379.06,532.03,377.24,530.79,376.41,529.13z M384.07,523.72v-0.25c0-3.27-1.61-4.88-3.86-4.88
			c-2.35,0-3.95,1.64-3.95,4.88v0.25c0,3.24,1.54,4.82,3.98,4.82C382.71,528.54,384.07,526.87,384.07,523.72z"/>
		<path class="st4" d="M397.53,516.34l3.98-7.1l2.56,1.05l-2.56,7.5L397.53,516.34z"/>
		<path class="st4" d="M405.19,530.89l8.09-8.55c2.13-2.25,3.49-4.2,3.49-6.21c0-1.82-1.02-3-2.93-3c-1.95,0-3.18,1.14-3.52,4.05
			h-4.54c0.25-5.1,3.33-7.88,8.28-7.88c4.88,0,7.66,2.72,7.66,6.7c0,2.93-1.7,5.34-4.26,7.81l-4.17,4.08h8.59v3.8h-16.68V530.89z"/>
		<path class="st4" d="M423.65,530.89l8.09-8.55c2.13-2.25,3.49-4.2,3.49-6.21c0-1.82-1.02-3-2.93-3c-1.95,0-3.18,1.14-3.52,4.05
			h-4.54c0.25-5.1,3.33-7.88,8.28-7.88c4.88,0,7.66,2.72,7.66,6.7c0,2.93-1.7,5.34-4.26,7.81l-4.17,4.08h8.59v3.8h-16.68V530.89z"/>
	</g>
	<g class="st2">
		<path class="st4" d="M343,727.72h6.52l7.17,22.08h-5.22l-1.51-4.91h-8l-1.51,4.91h-4.69L343,727.72z M343.03,741.34h5.84
			l-2.9-9.54L343.03,741.34z"/>
		<path class="st4" d="M359.3,733.64h4.48v2.53c0.9-1.54,2.78-2.9,5.16-2.9c3.95,0,7.04,2.93,7.04,8.28v0.25
			c0,5.34-3.03,8.34-7.04,8.34c-2.5,0-4.32-1.24-5.16-2.81v7.97h-4.48V733.64z M371.44,741.83v-0.25c0-3.27-1.61-4.88-3.86-4.88
			c-2.35,0-3.95,1.64-3.95,4.88v0.25c0,3.24,1.54,4.82,3.98,4.82C370.08,746.65,371.44,744.98,371.44,741.83z"/>
		<path class="st4" d="M378.97,733.64h4.48v3.09c1.02-2.16,2.59-3.3,5.22-3.34v4.17c-3.3-0.03-5.22,1.05-5.22,4.14v8.09h-4.48
			V733.64z"/>
		<path class="st4" d="M397.53,734.45l3.98-7.1l2.56,1.05l-2.56,7.5L397.53,734.45z"/>
		<path class="st4" d="M405.19,748.99l8.09-8.55c2.13-2.25,3.49-4.2,3.49-6.21c0-1.82-1.02-3-2.93-3c-1.95,0-3.18,1.14-3.52,4.05
			h-4.54c0.25-5.1,3.34-7.88,8.28-7.88c4.88,0,7.66,2.72,7.66,6.7c0,2.93-1.7,5.34-4.26,7.81l-4.17,4.08h8.59v3.8h-16.68V748.99z"/>
		<path class="st4" d="M423.65,748.99l8.09-8.55c2.13-2.25,3.49-4.2,3.49-6.21c0-1.82-1.02-3-2.93-3c-1.95,0-3.18,1.14-3.52,4.05
			h-4.54c0.25-5.1,3.34-7.88,8.28-7.88c4.88,0,7.66,2.72,7.66,6.7c0,2.93-1.7,5.34-4.26,7.81l-4.17,4.08h8.59v3.8h-16.68V748.99z"/>
	</g>
	<path id="Path_1001_00000170275931522963133760000006617148321024646051_" class="st1" d="M506.82,1012.14H269.87V903.08h236.95
		V1012.14z"/>
	<path id="Polygon_9_00000170984098532255917810000010019432686210697879_" class="st0" d="M388.34,919.58l-16.98-17.5h33.97
		L388.34,919.58z"/>
	<g class="st2">
		<path class="st4" d="M337.44,967.5v-3.83c0.74,0.28,1.48,0.53,2.78,0.53c1.88,0,3.12-0.96,3.12-3.49v-14.89h5.03v14.95
			c0,5-2.72,7.41-7.26,7.41C339.2,968.18,338.21,967.9,337.44,967.5z"/>
		<path class="st4" d="M352.32,962.16v-10.41h4.45v9.79c0,2.19,0.9,3.24,2.81,3.24c1.88,0,3.37-1.17,3.37-3.55v-9.48h4.45v16.15
			h-4.45v-2.53c-0.83,1.64-2.47,2.87-5.13,2.87C354.67,968.24,352.32,966.39,352.32,962.16z"/>
		<path class="st4" d="M371.34,951.75h4.48v2.56c0.8-1.61,2.56-2.93,5.25-2.93c3.18,0,5.44,1.91,5.44,6.24v10.28h-4.48v-9.64
			c0-2.19-0.86-3.24-2.84-3.24c-1.92,0-3.37,1.17-3.37,3.55v9.33h-4.48V951.75z"/>
		<path class="st4" d="M396.26,952.56l3.98-7.1l2.56,1.05l-2.56,7.5L396.26,952.56z"/>
		<path class="st4" d="M403.92,967.1l8.09-8.55c2.13-2.25,3.49-4.2,3.49-6.21c0-1.82-1.02-3-2.93-3c-1.95,0-3.18,1.14-3.52,4.05
			h-4.54c0.25-5.1,3.34-7.88,8.28-7.88c4.88,0,7.66,2.72,7.66,6.7c0,2.93-1.7,5.34-4.26,7.81l-4.17,4.08h8.59v3.8h-16.68V967.1z"/>
		<path class="st4" d="M422.38,967.1l8.09-8.55c2.13-2.25,3.49-4.2,3.49-6.21c0-1.82-1.02-3-2.93-3c-1.95,0-3.18,1.14-3.52,4.05
			h-4.54c0.25-5.1,3.34-7.88,8.28-7.88c4.88,0,7.66,2.72,7.66,6.7c0,2.93-1.7,5.34-4.26,7.81l-4.17,4.08h8.59v3.8h-16.68V967.1z"/>
	</g>
	<path id="Path_1004_00000069357879266773495520000013113741793841443980_" class="st5" d="M506.82,521.4h86.8V194.24h-86.79"/>
	<path id="Path_1005_00000162332491672204378280000005142817248916445320_" class="st5" d="M269.87,630.45h-86.8"/>
	<path id="Path_1005_00000080164877987612577740000015586874740084839852_" class="st5" d="M593.61,957.61h-86.8"/>
	<path id="Path_1005_00000009549739428760369810000017031563864236667568_" class="st5" d="M269.87,848.56h-86.8"/>
	<path id="Path_1006_00000127015296656295912180000015201562651862762172_" class="st5" d="M593.61,739.5h-86.8"/>
	<g class="st2">
		<path class="st6" d="M622.53,335.73h5.04v22.08h-5.04V335.73z"/>
		<path class="st6" d="M631.08,349.97v-0.25c0-5.31,3.06-8.43,7.1-8.43c2.59,0,4.2,1.14,5.1,2.78v-9.73h4.45v23.47h-4.45v-2.69
			c-0.83,1.64-2.81,3.03-5.19,3.03C634.17,358.16,631.08,355.35,631.08,349.97z M643.4,349.82v-0.25c0-3.21-1.42-4.85-3.86-4.85
			c-2.5,0-3.89,1.7-3.89,4.91v0.25c0,3.21,1.54,4.79,3.77,4.79C641.77,354.67,643.4,353.09,643.4,349.82z"/>
		<path class="st6" d="M650.72,349.94v-0.25c0-5.1,3.61-8.4,8.31-8.4c4.17,0,7.88,2.44,7.88,8.21v1.24h-11.64
			c0.12,2.69,1.58,4.23,4.02,4.23c2.07,0,3.09-0.9,3.37-2.25h4.23c-0.53,3.49-3.3,5.44-7.72,5.44
			C654.27,358.16,650.72,355.1,650.72,349.94z M662.55,347.99c-0.15-2.44-1.39-3.61-3.52-3.61c-2.01,0-3.37,1.33-3.71,3.61H662.55z"
			/>
		<path class="st6" d="M668.94,353.34c0-3.77,3.46-5.19,8.4-5.19h1.82v-0.65c0-1.91-0.59-2.96-2.62-2.96c-1.76,0-2.56,0.9-2.75,2.29
			h-4.23c0.28-3.83,3.3-5.53,7.26-5.53s6.76,1.61,6.76,5.99v10.53h-4.35v-1.95c-0.93,1.3-2.35,2.29-4.88,2.29
			C671.41,358.16,668.94,356.74,668.94,353.34z M679.16,352.16v-1.36h-1.73c-2.59,0-4.11,0.56-4.11,2.29c0,1.17,0.71,1.95,2.35,1.95
			C677.65,355.04,679.16,353.96,679.16,352.16z"/>
		<path class="st6" d="M621.01,387.95h4.79c0.22,1.98,1.05,3.61,4.32,3.61c2.19,0,3.64-1.2,3.64-2.93c0-1.76-0.93-2.38-4.17-2.87
			c-5.65-0.74-7.97-2.44-7.97-6.7c0-3.77,3.15-6.58,8.03-6.58c4.97,0,7.88,2.22,8.28,6.61h-4.6c-0.31-2.01-1.48-2.93-3.68-2.93
			s-3.3,1.02-3.3,2.5c0,1.58,0.71,2.32,4.11,2.81c5.34,0.68,8.09,2.13,8.09,6.7c0,3.92-3.21,7.04-8.43,7.04
			C624.07,395.21,621.29,392.37,621.01,387.95z"/>
		<path class="st6" d="M641.49,389.13v-10.41h4.45v9.79c0,2.19,0.89,3.24,2.81,3.24c1.88,0,3.37-1.17,3.37-3.55v-9.48h4.45v16.15
			h-4.45v-2.53c-0.83,1.64-2.47,2.87-5.13,2.87C643.83,395.21,641.49,393.36,641.49,389.13z"/>
		<path class="st6" d="M664.99,392.31v2.56h-4.48V371.4h4.48v9.85c0.9-1.54,2.78-2.9,5.16-2.9c3.95,0,7.04,2.93,7.04,8.28v0.25
			c0,5.34-3.03,8.34-7.04,8.34C667.64,395.21,665.82,393.98,664.99,392.31z M672.64,386.9v-0.25c0-3.27-1.61-4.88-3.86-4.88
			c-2.35,0-3.95,1.64-3.95,4.88v0.25c0,3.24,1.54,4.82,3.98,4.82C671.29,391.72,672.64,390.05,672.64,386.9z"/>
		<path class="st6" d="M680.18,378.72h4.48v2.47c0.8-1.51,2.53-2.84,4.94-2.84c2.13,0,3.74,0.9,4.51,2.81
			c1.3-1.95,3.4-2.81,5.44-2.81c3,0,5.31,1.88,5.31,6.18v10.35h-4.45v-9.85c0-2.07-0.93-3-2.53-3c-1.73,0-3.12,1.11-3.12,3.3v9.54
			h-4.45v-9.85c0-2.07-0.96-3-2.53-3c-1.73,0-3.12,1.11-3.12,3.3v9.54h-4.48V378.72z"/>
		<path class="st6" d="M708.46,374.09c0-1.39,1.11-2.44,2.53-2.44c1.45,0,2.56,1.05,2.56,2.44s-1.11,2.44-2.56,2.44
			C709.57,376.53,708.46,375.48,708.46,374.09z M708.8,378.72h4.45v16.15h-4.45V378.72z"/>
		<path class="st6" d="M716.18,389.81h4.17c0.19,1.45,0.9,2.29,2.84,2.29c1.73,0,2.53-0.65,2.53-1.76c0-1.11-0.96-1.58-3.27-1.92
			c-4.29-0.65-5.96-1.88-5.96-5.03c0-3.37,3.09-5.03,6.39-5.03c3.58,0,6.27,1.3,6.67,5h-4.11c-0.25-1.33-0.99-1.95-2.53-1.95
			c-1.45,0-2.29,0.68-2.29,1.67c0,1.02,0.77,1.42,3.12,1.76c4.05,0.59,6.27,1.61,6.27,5.06c0,3.49-2.53,5.31-6.79,5.31
			C718.87,395.21,716.34,393.3,716.18,389.81z"/>
		<path class="st6" d="M731.68,389.81h4.17c0.19,1.45,0.9,2.29,2.84,2.29c1.73,0,2.53-0.65,2.53-1.76c0-1.11-0.96-1.58-3.27-1.92
			c-4.29-0.65-5.96-1.88-5.96-5.03c0-3.37,3.09-5.03,6.39-5.03c3.58,0,6.27,1.3,6.67,5h-4.11c-0.25-1.33-0.99-1.95-2.53-1.95
			c-1.45,0-2.29,0.68-2.29,1.67c0,1.02,0.77,1.42,3.12,1.76c4.04,0.59,6.27,1.61,6.27,5.06c0,3.49-2.53,5.31-6.79,5.31
			C734.37,395.21,731.84,393.3,731.68,389.81z"/>
		<path class="st6" d="M748.14,374.09c0-1.39,1.11-2.44,2.53-2.44c1.45,0,2.56,1.05,2.56,2.44s-1.11,2.44-2.56,2.44
			C749.25,376.53,748.14,375.48,748.14,374.09z M748.48,378.72h4.45v16.15h-4.45V378.72z"/>
		<path class="st6" d="M756.05,386.96v-0.25c0-5.06,3.67-8.37,8.52-8.37s8.49,3.24,8.49,8.28v0.25c0,5.1-3.67,8.34-8.52,8.34
			C759.72,395.21,756.05,392,756.05,386.96z M768.52,386.9v-0.22c0-3.09-1.45-4.94-3.95-4.94c-2.47,0-3.95,1.79-3.95,4.88v0.25
			c0,3.09,1.42,4.94,3.95,4.94C767.07,391.81,768.52,389.96,768.52,386.9z"/>
		<path class="st6" d="M776.06,378.72h4.48v2.56c0.8-1.61,2.56-2.93,5.25-2.93c3.18,0,5.44,1.91,5.44,6.24v10.28h-4.48v-9.64
			c0-2.19-0.87-3.24-2.84-3.24c-1.91,0-3.37,1.17-3.37,3.55v9.33h-4.48V378.72z"/>
	</g>
	<g class="st2">
		<path class="st6" d="M30.2,633.83h4.79c0.22,1.98,1.05,3.61,4.32,3.61c2.19,0,3.64-1.2,3.64-2.93c0-1.76-0.93-2.38-4.17-2.87
			c-5.65-0.74-7.97-2.44-7.97-6.7c0-3.77,3.15-6.58,8.03-6.58c4.97,0,7.88,2.22,8.28,6.61h-4.6c-0.31-2.01-1.48-2.93-3.67-2.93
			s-3.3,1.02-3.3,2.5c0,1.58,0.71,2.32,4.11,2.81c5.34,0.68,8.09,2.13,8.09,6.7c0,3.92-3.21,7.04-8.43,7.04
			C33.26,641.08,30.48,638.24,30.2,633.83z"/>
		<path class="st6" d="M50.95,617.27h4.48v9.88c0.8-1.61,2.56-2.93,5.25-2.93c3.18,0,5.44,1.91,5.44,6.24v10.28h-4.48v-9.64
			c0-2.19-0.86-3.24-2.84-3.24c-1.92,0-3.37,1.17-3.37,3.55v9.33h-4.48V617.27z"/>
		<path class="st6" d="M68.95,632.84v-0.25c0-5.06,3.67-8.37,8.52-8.37c4.85,0,8.49,3.24,8.49,8.28v0.25c0,5.1-3.67,8.34-8.52,8.34
			C72.63,641.08,68.95,637.87,68.95,632.84z M81.43,632.78v-0.22c0-3.09-1.45-4.94-3.95-4.94c-2.47,0-3.95,1.79-3.95,4.88v0.25
			c0,3.09,1.42,4.94,3.95,4.94C79.98,637.69,81.43,635.83,81.43,632.78z"/>
		<path class="st6" d="M88.96,624.59h4.48v3.09c1.02-2.16,2.59-3.3,5.22-3.34v4.17c-3.3-0.03-5.22,1.05-5.22,4.14v8.09h-4.48V624.59
			z"/>
		<path class="st6" d="M102.42,635.96v-8.18h-2.07v-3.18h2.07v-3.49h4.45v3.49h3.4v3.18h-3.4v7.78c0,1.3,0.65,1.92,1.79,1.92
			c0.68,0,1.17-0.09,1.7-0.31v3.46c-0.62,0.22-1.51,0.43-2.72,0.43C104.25,641.05,102.42,639.32,102.42,635.96z"/>
		<path class="st6" d="M113.51,617.27h4.45v23.47h-4.45V617.27z"/>
		<path class="st6" d="M121.82,619.96c0-1.39,1.11-2.44,2.53-2.44c1.45,0,2.56,1.05,2.56,2.44s-1.11,2.44-2.56,2.44
			C122.93,622.4,121.82,621.35,121.82,619.96z M122.16,624.59h4.45v16.15h-4.45V624.59z"/>
		<path class="st6" d="M129.54,635.68h4.17c0.18,1.45,0.9,2.29,2.84,2.29c1.73,0,2.53-0.65,2.53-1.76c0-1.11-0.96-1.58-3.27-1.92
			c-4.29-0.65-5.96-1.88-5.96-5.03c0-3.37,3.09-5.03,6.39-5.03c3.58,0,6.27,1.3,6.67,5h-4.11c-0.25-1.33-0.99-1.95-2.53-1.95
			c-1.45,0-2.29,0.68-2.29,1.67c0,1.02,0.77,1.42,3.12,1.76c4.05,0.59,6.27,1.61,6.27,5.06c0,3.49-2.53,5.31-6.79,5.31
			C132.22,641.08,129.69,639.17,129.54,635.68z"/>
		<path class="st6" d="M146.89,635.96v-8.18h-2.07v-3.18h2.07v-3.49h4.45v3.49h3.4v3.18h-3.4v7.78c0,1.3,0.65,1.92,1.79,1.92
			c0.68,0,1.17-0.09,1.7-0.31v3.46c-0.62,0.22-1.51,0.43-2.72,0.43C148.71,641.05,146.89,639.32,146.89,635.96z"/>
	</g>
	<g class="st2">
		<path class="st6" d="M622.25,957v-0.25c0-6.64,4.73-11.27,11.24-11.27c4.91,0,9.3,2.25,9.82,7.72h-4.97
			c-0.43-2.59-2.13-3.77-4.79-3.77c-3.83,0-6.08,2.87-6.08,7.38v0.25c0,4.26,1.82,7.32,6.15,7.32c3.71,0,5.22-2.13,5.31-4.66h-4.97
			v-3.64h9.91v2.35c0,5.9-3.77,9.82-10.38,9.82C626.26,968.24,622.25,963.55,622.25,957z"/>
		<path class="st6" d="M647.07,951.75h4.48v3.09c1.02-2.16,2.59-3.3,5.22-3.34v4.17c-3.3-0.03-5.22,1.05-5.22,4.14v8.09h-4.48
			V951.75z"/>
		<path class="st6" d="M658.35,963.43c0-3.77,3.46-5.19,8.4-5.19h1.82v-0.65c0-1.91-0.59-2.96-2.63-2.96c-1.76,0-2.56,0.9-2.75,2.29
			h-4.23c0.28-3.83,3.3-5.53,7.26-5.53s6.76,1.61,6.76,5.99v10.53h-4.35v-1.95c-0.93,1.3-2.35,2.29-4.88,2.29
			C660.82,968.24,658.35,966.82,658.35,963.43z M668.57,962.25v-1.36h-1.73c-2.59,0-4.11,0.56-4.11,2.29c0,1.17,0.71,1.95,2.35,1.95
			C667.05,965.13,668.57,964.04,668.57,962.25z"/>
		<path class="st6" d="M676.81,951.75h4.48v2.56c0.8-1.61,2.56-2.93,5.25-2.93c3.18,0,5.44,1.91,5.44,6.24v10.28h-4.48v-9.64
			c0-2.19-0.86-3.24-2.84-3.24c-1.92,0-3.37,1.17-3.37,3.55v9.33h-4.48V951.75z"/>
		<path class="st6" d="M694.84,960.06v-0.25c0-5.31,3.06-8.43,7.1-8.43c2.59,0,4.2,1.14,5.1,2.78v-9.73h4.45v23.47h-4.45v-2.69
			c-0.83,1.64-2.81,3.03-5.19,3.03C697.93,968.24,694.84,965.43,694.84,960.06z M707.17,959.91v-0.25c0-3.21-1.42-4.85-3.86-4.85
			c-2.5,0-3.89,1.7-3.89,4.91v0.25c0,3.21,1.54,4.79,3.77,4.79C705.53,964.75,707.17,963.18,707.17,959.91z"/>
		<path class="st6" d="M722.73,945.82h14.18v3.92h-9.17v5.84h7.26v3.77h-7.26v8.55h-5V945.82z"/>
		<path class="st6" d="M739.31,947.12c0-1.39,1.11-2.44,2.53-2.44c1.45,0,2.56,1.05,2.56,2.44s-1.11,2.44-2.56,2.44
			C740.42,949.56,739.31,948.51,739.31,947.12z M739.65,951.75h4.45v16.15h-4.45V951.75z"/>
		<path class="st6" d="M748.2,951.75h4.48v2.56c0.8-1.61,2.56-2.93,5.25-2.93c3.18,0,5.44,1.91,5.44,6.24v10.28h-4.48v-9.64
			c0-2.19-0.86-3.24-2.84-3.24c-1.92,0-3.37,1.17-3.37,3.55v9.33h-4.48V951.75z"/>
		<path class="st6" d="M766.14,963.43c0-3.77,3.46-5.19,8.4-5.19h1.82v-0.65c0-1.91-0.59-2.96-2.63-2.96c-1.76,0-2.56,0.9-2.75,2.29
			h-4.23c0.28-3.83,3.3-5.53,7.26-5.53s6.76,1.61,6.76,5.99v10.53h-4.35v-1.95c-0.93,1.3-2.35,2.29-4.88,2.29
			C768.61,968.24,766.14,966.82,766.14,963.43z M776.37,962.25v-1.36h-1.73c-2.59,0-4.11,0.56-4.11,2.29c0,1.17,0.71,1.95,2.35,1.95
			C774.85,965.13,776.37,964.04,776.37,962.25z"/>
		<path class="st6" d="M784.73,944.43h4.45v23.47h-4.45V944.43z"/>
		<path class="st6" d="M792.27,960.03v-0.25c0-5.1,3.61-8.4,8.31-8.4c4.17,0,7.88,2.44,7.88,8.21v1.24h-11.64
			c0.12,2.69,1.58,4.23,4.01,4.23c2.07,0,3.09-0.9,3.37-2.25h4.23c-0.53,3.49-3.3,5.44-7.72,5.44
			C795.82,968.24,792.27,965.19,792.27,960.03z M804.09,958.08c-0.15-2.44-1.39-3.61-3.52-3.61c-2.01,0-3.37,1.33-3.71,3.61H804.09z
			"/>
	</g>
	<g class="st2">
		<path class="st6" d="M31.19,857.43h4.79c0.22,1.98,1.05,3.61,4.32,3.61c2.19,0,3.64-1.2,3.64-2.93c0-1.76-0.93-2.38-4.17-2.87
			c-5.65-0.74-7.97-2.44-7.97-6.7c0-3.77,3.15-6.58,8.03-6.58c4.97,0,7.88,2.22,8.28,6.61h-4.6c-0.31-2.01-1.48-2.93-3.67-2.93
			s-3.3,1.02-3.3,2.5c0,1.58,0.71,2.32,4.11,2.81c5.34,0.68,8.09,2.13,8.09,6.7c0,3.92-3.21,7.04-8.43,7.04
			C34.25,864.69,31.47,861.85,31.19,857.43z"/>
		<path class="st6" d="M51.94,840.88h4.48v9.88c0.8-1.61,2.56-2.93,5.25-2.93c3.18,0,5.44,1.91,5.44,6.24v10.28h-4.48v-9.64
			c0-2.19-0.86-3.24-2.84-3.24c-1.92,0-3.37,1.17-3.37,3.55v9.33h-4.48V840.88z"/>
		<path class="st6" d="M69.94,856.44v-0.25c0-5.06,3.67-8.37,8.52-8.37c4.85,0,8.49,3.24,8.49,8.28v0.25c0,5.1-3.67,8.34-8.52,8.34
			C73.62,864.69,69.94,861.47,69.94,856.44z M82.42,856.38v-0.22c0-3.09-1.45-4.94-3.95-4.94c-2.47,0-3.95,1.79-3.95,4.88v0.25
			c0,3.09,1.42,4.94,3.95,4.94C80.97,861.29,82.42,859.44,82.42,856.38z"/>
		<path class="st6" d="M89.95,848.19h4.48v3.09c1.02-2.16,2.59-3.3,5.22-3.34v4.17c-3.3-0.03-5.22,1.05-5.22,4.14v8.09h-4.48V848.19
			z"/>
		<path class="st6" d="M103.41,859.56v-8.18h-2.07v-3.18h2.07v-3.49h4.45v3.49h3.4v3.18h-3.4v7.78c0,1.3,0.65,1.92,1.79,1.92
			c0.68,0,1.17-0.09,1.7-0.31v3.46c-0.62,0.22-1.51,0.43-2.72,0.43C105.24,864.66,103.41,862.93,103.41,859.56z"/>
		<path class="st6" d="M114.5,840.88h4.45v23.47h-4.45V840.88z"/>
		<path class="st6" d="M122.81,843.56c0-1.39,1.11-2.44,2.53-2.44c1.45,0,2.56,1.05,2.56,2.44s-1.11,2.44-2.56,2.44
			C123.92,846,122.81,844.95,122.81,843.56z M123.15,848.19h4.45v16.15h-4.45V848.19z"/>
		<path class="st6" d="M130.53,859.28h4.17c0.18,1.45,0.9,2.29,2.84,2.29c1.73,0,2.53-0.65,2.53-1.76c0-1.11-0.96-1.58-3.27-1.92
			c-4.29-0.65-5.96-1.88-5.96-5.03c0-3.37,3.09-5.03,6.39-5.03c3.58,0,6.27,1.3,6.67,5h-4.11c-0.25-1.33-0.99-1.95-2.53-1.95
			c-1.45,0-2.29,0.68-2.29,1.67c0,1.02,0.77,1.42,3.12,1.76c4.05,0.59,6.27,1.61,6.27,5.06c0,3.49-2.53,5.31-6.79,5.31
			C133.21,864.69,130.68,862.77,130.53,859.28z"/>
		<path class="st6" d="M147.88,859.56v-8.18h-2.07v-3.18h2.07v-3.49h4.45v3.49h3.4v3.18h-3.4v7.78c0,1.3,0.65,1.92,1.79,1.92
			c0.68,0,1.17-0.09,1.7-0.31v3.46c-0.62,0.22-1.51,0.43-2.72,0.43C149.7,864.66,147.88,862.93,147.88,859.56z"/>
	</g>
	<g class="st2">
		<path class="st6" d="M623.39,717.42h7.63c5.37,0,8.43,2.38,8.43,7.04v0.12c0,4.66-3.24,6.89-8.28,6.89h-2.81v8.03h-4.97V717.42z
			 M630.89,727.98c2.44,0,3.74-1.17,3.74-3.37v-0.12c0-2.35-1.36-3.27-3.74-3.27h-2.53v6.76H630.89z"/>
		<path class="st6" d="M642.32,723.35h4.48v3.09c1.02-2.16,2.59-3.3,5.22-3.34v4.17c-3.3-0.03-5.22,1.05-5.22,4.14v8.09h-4.48
			V723.35z"/>
		<path class="st6" d="M653.65,731.63v-0.25c0-5.1,3.61-8.4,8.31-8.4c4.17,0,7.88,2.44,7.88,8.21v1.24h-11.64
			c0.12,2.69,1.58,4.23,4.01,4.23c2.07,0,3.09-0.9,3.37-2.25h4.23c-0.53,3.49-3.3,5.44-7.72,5.44
			C657.2,739.84,653.65,736.79,653.65,731.63z M665.48,729.68c-0.15-2.44-1.39-3.61-3.52-3.61c-2.01,0-3.37,1.33-3.71,3.61H665.48z"
			/>
		<path class="st6" d="M671.75,734.44h4.17c0.18,1.45,0.9,2.29,2.84,2.29c1.73,0,2.53-0.65,2.53-1.76c0-1.11-0.96-1.58-3.27-1.92
			c-4.29-0.65-5.96-1.88-5.96-5.03c0-3.37,3.09-5.03,6.39-5.03c3.58,0,6.27,1.3,6.67,5h-4.11c-0.25-1.33-0.99-1.95-2.53-1.95
			c-1.45,0-2.29,0.68-2.29,1.67c0,1.02,0.77,1.42,3.12,1.76c4.05,0.59,6.27,1.61,6.27,5.06c0,3.49-2.53,5.31-6.79,5.31
			C674.43,739.84,671.9,737.93,671.75,734.44z"/>
		<path class="st6" d="M687.43,731.63v-0.25c0-5.1,3.61-8.4,8.31-8.4c4.17,0,7.88,2.44,7.88,8.21v1.24h-11.64
			c0.12,2.69,1.58,4.23,4.01,4.23c2.07,0,3.09-0.9,3.37-2.25h4.23c-0.53,3.49-3.3,5.44-7.72,5.44
			C690.98,739.84,687.43,736.79,687.43,731.63z M699.26,729.68c-0.15-2.44-1.39-3.61-3.52-3.61c-2.01,0-3.37,1.33-3.71,3.61H699.26z
			"/>
		<path class="st6" d="M706.55,723.35h4.48v2.56c0.8-1.61,2.56-2.93,5.25-2.93c3.18,0,5.44,1.91,5.44,6.24v10.28h-4.48v-9.64
			c0-2.19-0.86-3.24-2.84-3.24c-1.92,0-3.37,1.17-3.37,3.55v9.33h-4.48V723.35z"/>
		<path class="st6" d="M726.22,734.72v-8.18h-2.07v-3.18h2.07v-3.49h4.45v3.49h3.4v3.18h-3.4v7.78c0,1.3,0.65,1.92,1.79,1.92
			c0.68,0,1.17-0.09,1.7-0.31v3.46c-0.62,0.22-1.51,0.43-2.72,0.43C728.04,739.81,726.22,738.08,726.22,734.72z"/>
		<path class="st6" d="M736.28,735.03c0-3.77,3.46-5.19,8.4-5.19h1.82v-0.65c0-1.91-0.59-2.96-2.63-2.96c-1.76,0-2.56,0.9-2.75,2.29
			h-4.23c0.28-3.83,3.3-5.53,7.26-5.53s6.76,1.61,6.76,5.99v10.53h-4.35v-1.95c-0.93,1.3-2.35,2.29-4.88,2.29
			C738.75,739.84,736.28,738.42,736.28,735.03z M746.51,733.85v-1.36h-1.73c-2.59,0-4.11,0.56-4.11,2.29c0,1.17,0.71,1.95,2.35,1.95
			C744.99,736.72,746.51,735.64,746.51,733.85z"/>
		<path class="st6" d="M755.43,734.72v-8.18h-2.07v-3.18h2.07v-3.49h4.45v3.49h3.4v3.18h-3.4v7.78c0,1.3,0.65,1.92,1.79,1.92
			c0.68,0,1.17-0.09,1.7-0.31v3.46c-0.62,0.22-1.51,0.43-2.72,0.43C757.25,739.81,755.43,738.08,755.43,734.72z"/>
		<path class="st6" d="M766.17,718.72c0-1.39,1.11-2.44,2.53-2.44c1.45,0,2.56,1.05,2.56,2.44s-1.11,2.44-2.56,2.44
			C767.29,721.16,766.17,720.11,766.17,718.72z M766.51,723.35h4.45v16.15h-4.45V723.35z"/>
		<path class="st6" d="M774.08,731.6v-0.25c0-5.06,3.67-8.37,8.52-8.37c4.85,0,8.49,3.24,8.49,8.28v0.25c0,5.1-3.67,8.34-8.52,8.34
			C777.75,739.84,774.08,736.63,774.08,731.6z M786.56,731.54v-0.22c0-3.09-1.45-4.94-3.95-4.94c-2.47,0-3.95,1.79-3.95,4.88v0.25
			c0,3.09,1.42,4.94,3.95,4.94C785.1,736.45,786.56,734.59,786.56,731.54z"/>
		<path class="st6" d="M794.09,723.35h4.48v2.56c0.8-1.61,2.56-2.93,5.25-2.93c3.18,0,5.44,1.91,5.44,6.24v10.28h-4.48v-9.64
			c0-2.19-0.86-3.24-2.84-3.24c-1.92,0-3.37,1.17-3.37,3.55v9.33h-4.48V723.35z"/>
		<path class="st6" d="M824.41,736.94v2.56h-4.48v-23.47h4.48v9.85c0.9-1.54,2.78-2.9,5.16-2.9c3.95,0,7.04,2.93,7.04,8.28v0.25
			c0,5.34-3.03,8.34-7.04,8.34C827.07,739.84,825.24,738.61,824.41,736.94z M832.07,731.54v-0.25c0-3.27-1.61-4.88-3.86-4.88
			c-2.35,0-3.95,1.64-3.95,4.88v0.25c0,3.24,1.54,4.82,3.98,4.82C830.71,736.35,832.07,734.69,832.07,731.54z"/>
		<path class="st6" d="M844.02,737.87l-6.42-14.52h4.82l3.92,9.7l3.61-9.7h4.29L845.5,745h-4.32L844.02,737.87z"/>
		<path class="st6" d="M622.25,765.66v-0.25c0-6.7,4.69-11.27,10.96-11.27c5.31,0,9.26,2.59,9.79,8.03h-5.13
			c-0.37-2.66-1.85-4.08-4.63-4.08c-3.49,0-5.71,2.72-5.71,7.29v0.25c0,4.57,2.1,7.23,5.74,7.23c2.75,0,4.66-1.39,5.07-4.23h4.91
			c-0.56,5.47-4.48,8.28-9.91,8.28C626.11,776.9,622.25,772.45,622.25,765.66z"/>
		<path class="st6" d="M645.19,772.08c0-3.77,3.46-5.19,8.4-5.19h1.82v-0.65c0-1.91-0.59-2.96-2.63-2.96c-1.76,0-2.56,0.9-2.75,2.29
			h-4.23c0.28-3.83,3.3-5.53,7.26-5.53s6.76,1.61,6.76,5.99v10.53h-4.35v-1.95c-0.93,1.3-2.35,2.29-4.88,2.29
			C647.66,776.9,645.19,775.48,645.19,772.08z M655.41,770.91v-1.36h-1.73c-2.59,0-4.11,0.56-4.11,2.29c0,1.17,0.71,1.95,2.35,1.95
			C653.9,773.78,655.41,772.7,655.41,770.91z"/>
		<path class="st6" d="M664.33,771.77v-8.18h-2.07v-3.18h2.07v-3.49h4.45v3.49h3.4v3.18h-3.4v7.78c0,1.3,0.65,1.92,1.79,1.92
			c0.68,0,1.17-0.09,1.7-0.31v3.46c-0.62,0.22-1.51,0.43-2.72,0.43C666.16,776.87,664.33,775.14,664.33,771.77z"/>
		<path class="st6" d="M674.31,768.68v-0.25c0-5.1,3.61-8.4,8.31-8.4c4.17,0,7.88,2.44,7.88,8.21v1.24h-11.64
			c0.12,2.69,1.58,4.23,4.01,4.23c2.07,0,3.09-0.9,3.37-2.25h4.23c-0.53,3.49-3.3,5.44-7.72,5.44
			C677.86,776.9,674.31,773.84,674.31,768.68z M686.14,766.74c-0.15-2.44-1.39-3.61-3.52-3.61c-2.01,0-3.37,1.33-3.71,3.61H686.14z"
			/>
		<path class="st6" d="M692.56,776.9H697c0.28,1.42,1.3,2.35,3.58,2.35c2.72,0,4.08-1.42,4.08-3.95v-2.44c-0.9,1.58-2.81,3-5.19,3
			c-3.92,0-7.04-2.93-7.04-7.72v-0.22c0-4.63,3.09-7.88,7.1-7.88c2.62,0,4.2,1.14,5.13,2.78v-2.41h4.45v14.89
			c-0.03,4.79-3.21,7.23-8.52,7.23C695.37,782.52,692.99,780.23,692.56,776.9z M704.79,768.07v-0.22c0-2.75-1.45-4.42-3.89-4.42
			c-2.5,0-3.89,1.79-3.89,4.45v0.25c0,2.69,1.58,4.35,3.8,4.35C703.15,772.48,704.79,770.81,704.79,768.07z"/>
		<path class="st6" d="M712.07,768.65v-0.25c0-5.06,3.67-8.37,8.52-8.37c4.85,0,8.49,3.24,8.49,8.28v0.25c0,5.1-3.67,8.34-8.52,8.34
			C715.75,776.9,712.07,773.69,712.07,768.65z M724.55,768.59v-0.22c0-3.09-1.45-4.94-3.95-4.94c-2.47,0-3.95,1.79-3.95,4.88v0.25
			c0,3.09,1.42,4.94,3.95,4.94C723.1,773.5,724.55,771.65,724.55,768.59z"/>
		<path class="st6" d="M732.08,760.41h4.48v3.09c1.02-2.16,2.59-3.3,5.22-3.34v4.17c-3.3-0.03-5.22,1.05-5.22,4.14v8.09h-4.48
			V760.41z"/>
		<path class="st6" d="M749.75,774.92l-6.42-14.52h4.82l3.92,9.7l3.61-9.7h4.29l-8.74,21.65h-4.32L749.75,774.92z"/>
	</g>
	<g>
		<g>
			<g>
				<g>
					<g>
						<path class="st7" d="M371.25,1166.97h3.19c0.08,0.83,0.46,1.52,1.85,1.52c0.96,0,1.5-0.47,1.5-1.16
							c0-0.72-0.44-0.92-1.85-1.13c-3.3-0.39-4.41-1.37-4.41-3.73c0-2.11,1.73-3.64,4.53-3.64c2.81,0,4.4,1.18,4.61,3.64h-3.1
							c-0.11-0.83-0.59-1.26-1.5-1.26c-0.9,0-1.36,0.41-1.36,1c0,0.65,0.36,0.95,1.81,1.14c2.96,0.33,4.48,1.09,4.48,3.63
							c0,2.14-1.7,3.89-4.71,3.89C373.01,1170.88,371.34,1169.5,371.25,1166.97z"/>
						<path class="st7" d="M381.95,1164.91v-0.13c0-3.56,2.68-5.95,6.18-5.95c3.56,0,6.19,2.24,6.19,5.87v0.13
							c0,3.6-2.47,6.05-6.24,6.05S381.95,1168.42,381.95,1164.91z M390.82,1164.88v-0.13c0-2.08-1.05-3.3-2.7-3.3
							s-2.68,1.19-2.68,3.32v0.13c0,2.12,1.08,3.35,2.7,3.35C389.79,1168.24,390.82,1166.97,390.82,1164.88z"/>
						<path class="st7" d="M395.34,1164.91v-0.13c0-3.6,2.55-5.96,5.96-5.96c3.04,0,5.15,1.41,5.43,4.49h-3.45
							c-0.13-1.19-0.78-1.85-1.96-1.85c-1.5,0-2.45,1.18-2.45,3.3v0.13c0,2.11,0.9,3.3,2.5,3.3c1.18,0,2.01-0.62,2.17-1.91h3.33
							c-0.23,3.02-2.42,4.59-5.44,4.59C397.35,1170.88,395.34,1168.49,395.34,1164.91z"/>
						<path class="st7" d="M408.41,1159h3.38v11.68h-3.38V1159z"/>
						<path class="st7" d="M416.92,1159h4.33l3.71,11.68h-3.55l-0.62-2.17h-3.87l-0.62,2.17h-3.12L416.92,1159z M417.58,1166.2h2.57
							l-1.27-4.49L417.58,1166.2z"/>
						<path class="st7" d="M426.3,1159h3.37v9.09h4.41v2.6h-7.78V1159z"/>
					</g>
					<path class="st7" d="M371.25,1178.6h5.21c2.76,0,3.94,1.24,3.94,3.06v0.07c0,1.31-0.67,2.17-1.98,2.52
						c1.44,0.25,2.34,1.11,2.34,2.73v0.07c0,2.09-1.36,3.25-4.25,3.25h-5.26V1178.6z M375.79,1183.24c1.05,0,1.44-0.32,1.44-1.05
						v-0.06c0-0.71-0.42-1.03-1.44-1.03h-1.27v2.14H375.79z M375.9,1188.04c1.06,0,1.55-0.49,1.55-1.36v-0.07
						c0-0.88-0.47-1.34-1.65-1.34h-1.29v2.76H375.9z"/>
					<path class="st7" d="M382.26,1185.54v-6.95h3.35v6.8c0,1.65,0.41,2.45,1.83,2.45c1.39,0,1.83-0.75,1.83-2.5v-6.75h3.38v6.9
						c0,3.4-1.99,4.98-5.21,4.98C384.14,1190.48,382.26,1188.81,382.26,1185.54z"/>
					<path class="st7" d="M393.99,1186.57h3.19c0.08,0.83,0.46,1.52,1.85,1.52c0.96,0,1.5-0.47,1.5-1.16c0-0.72-0.44-0.92-1.85-1.13
						c-3.3-0.39-4.41-1.37-4.41-3.73c0-2.11,1.73-3.64,4.53-3.64c2.81,0,4.4,1.18,4.61,3.64h-3.1c-0.11-0.83-0.59-1.26-1.5-1.26
						c-0.9,0-1.36,0.41-1.36,1c0,0.65,0.36,0.95,1.81,1.14c2.96,0.33,4.48,1.09,4.48,3.63c0,2.14-1.7,3.89-4.71,3.89
						C395.75,1190.48,394.08,1189.11,393.99,1186.57z"/>
					<path class="st7" d="M405.37,1178.6h3.38v11.68h-3.38V1178.6z"/>
					<path class="st7" d="M411.06,1178.6h3.77l3.74,6.59v-6.59h2.93v11.68h-3.24l-4.27-7.34v7.34h-2.94V1178.6z"/>
					<path class="st7" d="M423.75,1178.6h8.07v2.58h-4.74v2.01h3.77v2.39h-3.77v2.12h5v2.58h-8.33V1178.6z"/>
					<path class="st7" d="M433.08,1186.57h3.19c0.08,0.83,0.46,1.52,1.85,1.52c0.96,0,1.5-0.47,1.5-1.16c0-0.72-0.44-0.92-1.85-1.13
						c-3.3-0.39-4.41-1.37-4.41-3.73c0-2.11,1.73-3.64,4.53-3.64c2.81,0,4.4,1.18,4.61,3.64h-3.1c-0.11-0.83-0.59-1.26-1.5-1.26
						c-0.9,0-1.36,0.41-1.36,1c0,0.65,0.36,0.95,1.81,1.14c2.96,0.33,4.48,1.09,4.48,3.63c0,2.14-1.7,3.89-4.71,3.89
						C434.84,1190.48,433.18,1189.11,433.08,1186.57z"/>
					<path class="st7" d="M443.57,1186.57h3.19c0.08,0.83,0.46,1.52,1.85,1.52c0.96,0,1.5-0.47,1.5-1.16c0-0.72-0.44-0.92-1.85-1.13
						c-3.3-0.39-4.41-1.37-4.41-3.73c0-2.11,1.73-3.64,4.53-3.64c2.81,0,4.4,1.18,4.61,3.64h-3.1c-0.11-0.83-0.59-1.26-1.5-1.26
						c-0.9,0-1.36,0.41-1.36,1c0,0.65,0.36,0.95,1.81,1.14c2.96,0.33,4.48,1.09,4.48,3.63c0,2.14-1.7,3.89-4.71,3.89
						C445.33,1190.48,443.67,1189.11,443.57,1186.57z"/>
					<path class="st7" d="M371.62,1198.2h3.04c3.86,0,5.82,2.48,5.82,5.74v0.15c0,3.24-1.86,5.8-5.85,5.8h-3.01V1198.2z
						 M374.6,1209.14c3.32,0,4.94-2.09,4.94-5.07v-0.13c0-2.88-1.52-4.98-4.95-4.98h-2.04v10.18H374.6z"/>
					<path class="st7" d="M382.04,1207.58c0-1.98,1.9-2.58,4-2.58h1.78v-0.77c0-1.6-0.65-2.29-2.16-2.29c-1.29,0-2.21,0.56-2.4,1.81
						h-0.85c0.2-1.8,1.67-2.55,3.28-2.55c1.78,0,2.99,0.85,2.99,3.02v5.65h-0.87v-1.31c-0.54,0.83-1.45,1.44-2.89,1.44
						C383.25,1210.02,382.04,1209.2,382.04,1207.58z M387.83,1207.13v-1.45h-1.75c-1.78,0-3.17,0.38-3.17,1.91
						c0,1.09,0.69,1.73,2.09,1.73C386.57,1209.32,387.83,1208.4,387.83,1207.13z"/>
					<path class="st7" d="M393.51,1209.15l-3.38-7.81h0.93l2.93,6.81l2.73-6.81h0.88l-4.74,11.52h-0.9L393.51,1209.15z"/>
				</g>
			</g>
		</g>
		<g>
			<path class="st8" d="M361.31,1141.78L361.31,1141.78c0.01-0.06,0.01-0.12,0.01-0.18c-0.01-0.01-0.02-0.02-0.03-0.03
				c-0.12-0.11-0.24-0.22-0.36-0.33l0,0c0-0.01,0-0.01-0.01-0.01c-0.17-0.01-0.34-0.03-0.51-0.04c-0.01,0-0.01,0-0.02,0l0.01,0
				c0-0.01,0-0.02,0-0.03c-0.01-0.11-0.02-0.22-0.03-0.33c-0.06,0-0.11-0.01-0.17-0.02c-0.09-0.01-0.19-0.01-0.28-0.02
				c-0.1-0.01-0.19-0.01-0.29-0.02c0-0.11,0-0.22-0.01-0.34c-0.51-0.26-1.02-0.52-1.53-0.78c-0.29,0.03-0.57,0.04-0.6-0.36
				c-1.3-0.67-2.63-1.3-4.04-1.73c-0.44,0.04-0.85-0.03-1.16-0.37l0.01-0.02c-0.26,0-0.51-0.01-0.77-0.01
				c-0.84,0-1.68,0.01-2.51,0.01c-0.11,0.01-0.22,0.02-0.33,0.03c-0.02,0.38-0.03,0.75-0.05,1.13l0.01-0.01
				c0.23,0.02,0.37,0.13,0.39,0.37c0.46,0.44,1.02,0.79,1.36,1.35v0c0.25,0.02,0.36,0.16,0.35,0.41c0.69,0.31,0.83,0.86,0.8,1.56
				c-0.13,3.29-0.03,6.58-0.33,9.87c-0.31,3.43-0.2,6.9-0.4,10.35c-0.35,5.78-0.42,11.57-0.66,17.36
				c-0.22,5.24-0.48,10.47-0.75,15.71c-0.09,1.72-0.14,3.43-0.27,5.15c-0.29,3.84-0.08,7.71-0.48,11.55c0.24,0,0.49,0.01,0.73,0.01
				c0.13-0.13,0.25-0.25,0.38-0.38v0c0.57-2.01,0.24-4.14,0.76-6.15c-0.08-3.68,0.37-7.34,0.42-11.02c0-0.19,0.02-0.38,0.17-0.53
				c0.29-4.94,0.25-9.89,0.71-14.83c0.26-2.85-0.06-5.72,0.38-8.59c0.34-2.19-0.06-4.44,0.37-6.66c0.27-1.39,0.09-2.87,0.11-4.32
				c0.31-0.2,0.35-0.5,0.35-0.83c0-0.82,0.01-1.65,0.02-2.47c0.38-3.49,0.7-6.99,1.4-10.43c0.2-0.98,0.27-2.08,1.08-2.87v0
				c0.43-0.85,1.04-0.03,1.55-0.16c0,0.03,0.01,0.07,0.01,0.1c0,0.02,0.01,0.05,0.01,0.07v0c0.97,0.02,1.86,0.56,2.85,0.38l0,0
				c0.27-0.26,0.61-0.35,0.97-0.38c0-0.06,0.01-0.12,0.01-0.18l0.02-0.02c0.06-0.06,0.12-0.12,0.17-0.18
				C361.42,1142.34,361.31,1142.05,361.31,1141.78"/>
			<path class="st9" d="M460.04,1136.78c-0.1-0.1-0.18-0.21-0.24-0.33c-0.13-0.24-0.18-0.51-0.16-0.81c0-0.01,0-0.01,0-0.02
				c-0.06-0.01-0.12-0.01-0.18,0c-0.39-0.86-0.87-1.66-1.55-2.33c-0.2-0.27-0.35-0.59-0.73-0.65c0.01-0.06,0.01-0.12-0.01-0.18
				c-0.06-0.01-0.11-0.02-0.16-0.04c-0.39-0.12-0.59-0.42-0.64-0.85c-0.04-0.02-0.07-0.04-0.11-0.06c-0.08-0.05-0.16-0.09-0.24-0.14
				c-0.01,0-0.01-0.01-0.02-0.01c0-0.06-0.01-0.11-0.01-0.17c0-0.06-0.01-0.12-0.01-0.19c-0.57-0.4-0.93-1.08-1.69-1.22
				c-0.05-0.23-0.18-0.35-0.43-0.31c-0.28-0.02-0.25-0.45-0.56-0.41c-0.36,0.03-0.35-0.54-0.75-0.45c-0.06-0.06-0.13-0.12-0.19-0.19
				c0.01-0.05,0-0.1-0.04-0.15c-0.09-0.54-0.67-0.46-0.95-0.75c-0.31-0.36-0.63-0.72-1.15-0.77l-0.01,0.01
				c-0.29-0.36-0.61-0.67-1.13-0.62c-0.67-0.59-1.42-1.02-2.33-1.14c-0.07-0.06-0.13-0.12-0.19-0.17c-0.08-0.52-0.57-0.53-0.91-0.72
				c-0.84-0.47-1.82-0.63-2.64-1.14c-0.03-0.02-0.07-0.04-0.1-0.06c-0.13-0.01-0.25-0.02-0.38-0.03c-0.02,0-0.05,0.01-0.07,0.01
				c-0.11,0.01-0.22,0.03-0.33,0.04c-0.47-0.06-0.83-0.45-1.33-0.41c-0.06,0-0.12,0-0.18,0c-0.19,0-0.38-0.01-0.57-0.01h0
				c0-0.04-0.01-0.08-0.01-0.13c0-0.02,0-0.04-0.01-0.06c0-0.06-0.01-0.11-0.02-0.17l-0.76-0.02c-0.38-0.13-0.69-0.47-1.15-0.4
				l-0.32,0c-0.33,0-0.66-0.01-0.99-0.01c0-0.03-0.01-0.07-0.01-0.1c0-0.02-0.01-0.04-0.01-0.06c-0.01-0.06-0.02-0.13-0.03-0.19
				c-1.05,0.1-2-0.62-3.07-0.39c-1.13-0.22-2.25-0.53-3.42-0.4c-1.23-0.31-2.48-0.36-3.73-0.38c-0.39,0-0.79,0.05-0.76-0.53
				c0.08-0.14,0.15-0.27,0.22-0.41c0.39-0.14,0.64-0.41,0.75-0.81v0c0.38-0.29,0.52-0.75,0.78-1.12c0.25,0,0.37-0.13,0.4-0.37
				c0-0.03-0.01-0.06-0.01-0.09c0,0,0,0,0-0.01c-0.01-0.04-0.01-0.09-0.02-0.14c0.03-0.24,0.17-0.35,0.4-0.37
				c0.02-0.32,0.12-0.6,0.38-0.81c0.07-0.02,0.12-0.04,0.17-0.07c0.07-0.19,0.13-0.38,0.25-0.54c0-0.03,0-0.06,0-0.09l-0.01-0.01
				c0.03,0,0.06-0.01,0.09-0.01c0.18-0.04,0.26-0.19,0.29-0.38c0.3,0.02,0.35-0.27,0.54-0.4c0.01-0.04,0.03-0.08,0.04-0.12
				c0.1-0.32,0.24-0.61,0.44-0.87c0.04-0.06,0.08-0.11,0.13-0.17c0,0,0-0.01,0-0.01l0,0c0.11-0.42,0.44-0.76,0.55-1.17
				c0.03-0.1,0.05-0.22,0.04-0.33c0.39-0.37,0.47-0.92,0.77-1.35c-0.05-0.3,0.01-0.54,0.36-0.6c0.11-0.55,0.38-1.02,0.66-1.48
				c0.1-0.16,0.2-0.31,0.29-0.47c0.14-0.37,0.29-0.75,0.43-1.12c0.01-0.04,0.03-0.09,0.04-0.13c0.11-0.33,0.22-0.67,0.33-1.01
				c0.12-0.03,0.2-0.08,0.25-0.13c0.03-0.14,0.07-0.28,0.13-0.4c0-0.15-0.02-0.3,0.01-0.43c0.45-0.27,0.33-0.73,0.38-1.12v0
				c0.09-0.01,0.16-0.03,0.21-0.06c0.17-0.11,0.13-0.36,0.18-0.55c-0.01-0.02-0.01-0.04-0.02-0.05c0-0.01-0.01-0.02-0.01-0.03
				c-0.01-0.04-0.03-0.08-0.04-0.12c0.04-0.22,0.14-0.38,0.38-0.42c0.01-0.11,0.03-0.23,0.04-0.34c-0.22-0.65,0.51-1.09,0.38-1.72
				c0.06-0.01,0.13-0.03,0.19-0.04c0.01,0,0.03-0.01,0.05-0.01c0.04-0.01,0.07-0.01,0.11-0.02c0.02-0.23,0.03-0.45,0.04-0.68
				c0-0.01,0-0.02,0-0.03c0.02-0.03,0.03-0.05,0.05-0.07c0.01-0.01,0.01-0.02,0.02-0.03c0.11-0.16,0.21-0.32,0.31-0.48
				c-0.01-0.06-0.01-0.13-0.02-0.19l-0.01-0.15c0-0.02,0-0.05-0.01-0.07l0,0c0.36-1.63,0.77-3.24,1.36-4.8
				c-0.06-1.03,0.34-1.98,0.47-2.98c0.24-1.93,0.48-3.82-0.05-5.73c-0.08-0.27-0.03-0.57-0.03-0.85c-0.53-0.47-0.6-1.18-0.95-1.75
				c-0.59-0.37-0.87-1.07-1.52-1.37c-0.04-0.05-0.09-0.1-0.13-0.14c-0.28-0.28-0.58-0.51-1.03-0.44c-0.02,0.07-0.02,0.13-0.01,0.18
				v0h0l0,0l0,0h0c-0.01-0.05-0.01-0.11,0.01-0.18c-0.09-0.08-0.18-0.16-0.27-0.25c-0.11-0.1-0.22-0.2-0.33-0.3l-0.51-0.05
				c-0.14-0.4-0.49-0.32-0.79-0.33c-0.99-0.02-1.99-0.03-2.98-0.05c-0.04,0-0.08,0-0.12,0c0.02,0.02,0.04,0.05,0.06,0.07
				c0,0-0.01,0.01-0.01,0.01l0.01-0.01c-0.02-0.03-0.04-0.05-0.06-0.07h0c-0.13,0-0.25,0.01-0.38,0.01
				c-0.06,0.01-0.13,0.02-0.19,0.03c-0.35,0.04-0.71,0.05-0.98,0.35c-1.23,0.06-2.37,0.55-3.56,0.79c-0.03,0-0.05,0.01-0.08,0.02
				c-0.01,0.06-0.02,0.11-0.02,0.17c-0.45-0.06-0.83,0.1-1.16,0.39h0c-0.12,0.01-0.23,0.02-0.35,0.03c-0.39-0.06-0.7,0.1-0.97,0.37
				l0,0c-0.5,0.12-0.93,0.53-1.5,0.41c-0.02,0.1-0.05,0.17-0.1,0.22c-0.09,0.12-0.24,0.14-0.39,0.15c-0.1,0-0.21-0.01-0.31,0.01
				c-0.48,0.45-1.1,0.61-1.71,0.77l0,0c-0.05,0.09-0.12,0.16-0.2,0.22c-0.26,0.19-0.61,0.23-0.86,0.43
				c-0.04,0.03-0.08,0.07-0.11,0.11c-0.02,0-0.05,0-0.07,0h-0.09c-0.05,0-0.1,0-0.16,0c-0.09,0-0.18,0-0.26,0l0,0
				c-0.43,0.45-1.17,0.4-1.54,0.96c-0.59,0.18-1.05,0.68-1.68,0.77c-0.08,0.01-0.16,0.02-0.25,0.02c-0.02,0.37-0.31,0.35-0.56,0.38
				c-0.06,0.1-0.12,0.19-0.2,0.25c-0.07,0.06-0.15,0.1-0.25,0.11c-0.05,0.01-0.1,0.01-0.16-0.01c-0.05,0.03-0.1,0.04-0.16,0.03
				c-0.01,0.07-0.04,0.12-0.07,0.17c-0.09,0.14-0.23,0.2-0.41,0.2c-0.04,0-0.09,0-0.13-0.01l0.01,0.03
				c-0.02,0.04-0.04,0.07-0.07,0.11c-0.09,0.14-0.21,0.24-0.38,0.26c-0.04,0-0.08,0-0.13,0c-0.26,0.13-0.52,0.26-0.77,0.38
				c-0.07,0.11-0.16,0.2-0.25,0.27c-0.34,0.27-0.79,0.38-1.1,0.68c-0.08,0-0.15,0-0.22,0h-0.01c-0.11,0-0.23,0-0.34,0
				c-0.07,0.12-0.15,0.24-0.22,0.36l-1.54,0.78c-0.04,0.1-0.09,0.18-0.16,0.24c-0.1,0.1-0.24,0.15-0.4,0.16c-0.06,0-0.11,0-0.18,0
				l0,0c-0.02,0.05-0.05,0.1-0.08,0.14c-0.09,0.13-0.21,0.22-0.38,0.23c-0.04,0-0.08,0-0.12,0l0,0c-0.03,0.04-0.06,0.08-0.09,0.12
				c-0.03,0.04-0.06,0.08-0.1,0.13c-0.19,0.11-0.39,0.22-0.58,0.33c-0.06,0-0.13,0-0.19-0.01c-0.07,0-0.13-0.01-0.2-0.01
				c-0.12,0.07-0.24,0.15-0.36,0.22c0,0.04,0,0.08,0,0.11c0,0.02,0,0.05,0,0.07v0.02c-0.3,0.38-0.76,0.53-1.16,0.75
				c-0.04,0-0.08,0-0.12,0h0c-0.09,0-0.18,0-0.27-0.01c-0.07,0.12-0.14,0.24-0.21,0.37c-0.06,0.01-0.11,0.01-0.17,0.02
				c-0.01,0.06-0.01,0.12-0.02,0.18c0,0.02,0,0.03-0.01,0.05c-0.01,0.04-0.01,0.09-0.01,0.13c-0.05,0.01-0.1,0.02-0.15,0.04
				c-0.05,0-0.09,0-0.14-0.01c-0.04,0-0.07,0-0.11,0c-0.05,0-0.09-0.01-0.14-0.01c-0.33,0.18-0.68,0.34-0.79,0.75l0,0
				c-0.82,0.07-1.31,0.71-1.92,1.15c-0.26,0.02-0.48,0.12-0.7,0.27c-0.97,0.65-1.95,1.26-2.92,1.89c-0.01,0.09-0.04,0.16-0.07,0.21
				c-0.09,0.13-0.24,0.16-0.4,0.16c-0.04,0-0.07,0-0.11,0c0,0.07,0.01,0.13,0.01,0.2l0,0c-0.79,0.56-1.67,0.99-2.33,1.71
				c-0.19,0.11-0.38,0.21-0.56,0.32l0,0h0c-0.19-0.04-0.18,0.12-0.23,0.22c-0.29,0-0.54,0.05-0.59,0.4c-0.05,0-0.1,0.01-0.15,0.05
				c-1.02,0.64-2.03,1.28-3.05,1.92c-0.07,0.11-0.15,0.2-0.23,0.28c-0.54,0.53-1.34,0.73-1.74,1.42c-0.44,0.26-0.88,0.53-1.32,0.79
				c-0.06,0.06-0.12,0.11-0.18,0.17c-0.14,0.13-0.27,0.26-0.41,0.38h0c-0.14,0.05-0.29,0.09-0.43,0.14c-0.1,0.04-0.2,0.07-0.3,0.1
				c-0.05,0.06-0.1,0.13-0.16,0.19c-0.03,0.06-0.06,0.11-0.1,0.16c-0.24,0.29-0.65,0.41-0.91,0.67c-0.08,0.08-0.15,0.17-0.2,0.29
				c-0.25,0.13-0.5,0.26-0.76,0.4c-0.07,0.13-0.14,0.25-0.2,0.38h-0.18h-0.02c-0.06,0-0.12,0-0.19,0c-0.34,0.43-1,0.54-1.18,1.13
				c-0.35-0.04-0.41,0.4-0.73,0.41c-0.01,0.1-0.05,0.18-0.09,0.24c-0.18,0.23-0.54,0.27-0.71,0.51c-0.04,0-0.09,0-0.13,0h-0.07
				c-0.06,0-0.12,0-0.17,0c-0.34,0.03-0.44,0.33-0.6,0.56c-0.22,0.04-0.35,0.17-0.37,0.39c-0.11,0.04-0.28,0.01-0.26,0.22h0
				c-0.44,0.31-0.89,0.61-1.32,0.94c-1.22,0.94-2.51,1.81-3.61,2.89c-0.25,0-0.5,0-0.76,0c-0.07,0-0.15,0.01-0.22,0.01
				c-0.09,0.01-0.18,0.01-0.27,0.02c-0.03,0-0.06,0-0.08,0c-0.36-0.02-0.72-0.04-1.08-0.07c-0.01,0-0.02,0-0.03,0
				c-0.02-0.26-0.21-0.32-0.42-0.38c-0.14,0-0.32,0.03-0.34-0.17c-0.02-0.21,0.17-0.28,0.31-0.38c0-0.06,0.01-0.11,0.03-0.17
				c0.05-0.13,0.1-0.27,0.15-0.4c0.23-0.62,0.46-1.24,0.69-1.85c0.03-0.09,0.07-0.17,0.1-0.26c0.05-0.13,0.1-0.27,0.15-0.4
				c0.05-0.14,0.1-0.27,0.15-0.41l0.07-0.18c0.04-0.1,0.09-0.2,0.13-0.3c0.07-0.16,0.14-0.33,0.21-0.49
				c0.01-0.04,0.03-0.08,0.05-0.12c0.1-0.58,0.54-1.09,0.41-1.72c0.57-0.23,0.28-0.75,0.38-1.15c0.47-0.09,0.29-0.5,0.39-0.78
				c0-0.05,0-0.09,0-0.14c0-0.14,0-0.27,0-0.41c0-0.08,0-0.15,0-0.23c0.04-0.02,0.08-0.05,0.12-0.07c0.08-0.05,0.16-0.09,0.24-0.14
				c0.02-0.36,0.03-0.72,0.05-1.08c0.49-0.13,0.34-0.51,0.34-0.84c0.34-1.06,0.62-2.14,0.81-3.24c0.61-1.14,0.65-2.43,0.92-3.66
				c0.23-1.01,0.35-2.05,0.51-3.08c0.27-1.74,0.72-3.45,0.65-5.23c0.01-0.31,0.02-0.62,0.03-0.93c0.24-0.29,0.27-0.65,0.36-0.99
				c0-0.01,0-0.02-0.01-0.04c-0.02-0.13-0.04-0.25-0.06-0.38c0-0.07,0.01-0.14,0.01-0.21c-0.02-0.52,0.01-1.03,0.06-1.54
				c0.07-2.29,0.04-4.57-0.03-6.85c0-0.06,0-0.13,0.01-0.19c0.01-0.46,0.02-0.91,0.03-1.37c0,0,0-0.01,0-0.01
				c-0.03-0.29-0.01-0.58-0.05-0.87c-0.04-0.24-0.12-0.47-0.31-0.68l-0.04-2.4c0-0.02,0-0.04,0-0.06l0,0
				c-0.11-0.12-0.18-0.26-0.24-0.39c-0.25-0.6-0.06-1.28-0.16-1.91c0.01-0.04,0.03-0.09,0.04-0.13c0.01-0.03,0.02-0.06,0.03-0.1
				c0.01-0.21,0.01-0.41,0-0.62c-0.06-1.36-0.56-2.69-0.46-4.06c-0.02,0-0.04,0.01-0.06,0.01h0c0.02,0,0.04-0.01,0.06-0.01
				c0-0.03,0-0.06,0.01-0.09v-0.01c0,0,0,0,0,0c0,0,0,0,0,0s0,0,0,0c-0.34-0.07-0.32-0.35-0.33-0.6c-0.09-1.53-0.52-2.99-0.96-4.45
				c0.02-0.37-0.04-0.71-0.37-0.94c-0.02,0.07-0.04,0.13-0.07,0.2c0.02-0.07,0.04-0.13,0.07-0.2c0.04-0.5-0.37-0.86-0.43-1.33
				c0-0.33,0.1-0.69-0.36-0.81c-0.01-0.24-0.02-0.47-0.03-0.71c0.03-0.29,0.02-0.55-0.34-0.61c-0.28-0.5-0.27-1.15-0.79-1.53
				c0.04-0.37-0.36-0.55-0.39-0.88c0-0.02,0-0.05,0-0.08c-0.18-0.2-0.37-0.39-0.56-0.59c-0.08-0.17-0.15-0.35-0.23-0.52
				c-0.04-0.02-0.08-0.05-0.11-0.07c-0.41-0.25-0.81-0.49-1.21-0.74c-0.06-0.47-0.46-0.35-0.75-0.43c-0.04,0.01-0.09,0.03-0.13,0.04
				c-0.01,0-0.02,0.01-0.03,0.01c-0.02,0.01-0.04,0.01-0.07,0.02l-0.55-0.07c-0.37,0-0.74,0.01-1.11,0.01c-0.09,0-0.17,0-0.26,0
				c-0.74,0.02-1.26,0.56-1.91,0.79c-0.04,0.05-0.08,0.11-0.12,0.16c-0.1,0.14-0.2,0.27-0.3,0.41c-0.35,0.06-0.58,0.28-0.75,0.58
				l0,0v0c-0.26,0.13-0.55,0.22-0.59,0.58c-0.22-0.03-0.32,0.16-0.46,0.29c-0.08,0.07-0.17,0.12-0.29,0.09
				c-0.32,0.68-1.07,1.02-1.35,1.73c-0.33,0.14-0.43,0.46-0.59,0.74c-0.56,0.57-1.08,1.17-1.34,1.95c-0.27,0-0.35,0.2-0.44,0.39
				c-0.01,0.06-0.02,0.11-0.04,0.16c-0.07,0.18-0.2,0.32-0.33,0.45c-0.05,0.05-0.1,0.11-0.15,0.16v0c-0.04,0.03-0.08,0.05-0.13,0.05
				c-0.01,0-0.02,0-0.04,0l0,0.01c0.01,0.05,0,0.09-0.02,0.13c0.01,0.74-0.72,1.17-0.79,1.88c-0.05,0.01-0.09,0.01-0.14,0.02
				l-0.02,0c-0.07,0.01-0.13,0.02-0.2,0.03c-0.54,1.04-1.07,2.08-1.61,3.12l0,0v0c-0.06,0.02-0.11,0.07-0.14,0.13
				c0,0.06-0.01,0.12-0.01,0.19c-0.01,0.25-0.02,0.49-0.03,0.74c-0.05,0-0.09,0.02-0.14,0.04c0,0-0.01,0-0.01,0.01
				c-0.32,0.15-0.52,0.4-0.59,0.75c-0.21,0.53-0.38,1.07-0.69,1.54c-0.08,0.13-0.17,0.25-0.27,0.37c-0.29,0.57-0.74,1.07-0.73,1.76
				c-0.23,0.18-0.36,0.4-0.41,0.71c-0.06,0.41-0.26,0.77-0.75,0.81c-0.01-0.57-0.02-1.13-0.03-1.7c-0.08-0.02-0.16-0.03-0.23-0.05
				c-0.04-0.01-0.07-0.02-0.11-0.02c-0.01-0.23-0.03-0.46-0.04-0.7c0-0.01,0-0.02,0-0.02c0.01-0.19,0.02-0.38,0.03-0.57l0.01-0.2
				c-0.02-0.12-0.03-0.23-0.05-0.35c-0.08-0.03-0.15-0.07-0.2-0.12c-0.2-0.17-0.17-0.42-0.14-0.67c0.01-0.08,0.02-0.15,0.01-0.23
				c-0.02-0.31-0.04-0.62-0.06-0.93c-0.1-0.06-0.17-0.13-0.22-0.2c-0.12-0.17-0.15-0.37-0.13-0.59c0.01-0.07,0.01-0.14,0.03-0.21
				c-0.01-0.37-0.03-0.73-0.04-1.1c-0.1-0.11-0.18-0.23-0.24-0.36c-0.12-0.26-0.16-0.55-0.15-0.85c0-0.06,0-0.11,0.01-0.17
				c-0.03-0.05-0.03-0.1-0.01-0.16c-0.1-0.2-0.18-0.4-0.25-0.61c-0.28-0.83-0.37-1.7-0.68-2.52c0.05-0.44-0.09-0.82-0.38-1.15
				c-0.26-1.32-0.66-2.59-1.18-3.83c0.04-0.59-0.26-1.08-0.48-1.59c-0.04-0.09-0.08-0.19-0.11-0.29v0c-0.21-0.55-0.32-1.15-0.75-1.6
				c0-0.13,0-0.25-0.01-0.38l0,0c0,0,0,0,0,0l-0.01,0c-0.54-0.41-0.53-1.22-1.12-1.59c0.05-0.34-0.13-0.56-0.41-0.72
				c-0.03-0.29,0.09-0.66-0.35-0.76c-0.05-0.26,0.01-0.59-0.41-0.6c0.11-0.43-0.43-0.29-0.5-0.56c-0.09-0.03-0.16-0.09-0.2-0.16
				c-0.12-0.18-0.18-0.43-0.46-0.42h0c0-0.05-0.01-0.11-0.04-0.16c-0.01-0.02-0.02-0.03-0.02-0.05c-0.16-0.32-0.42-0.55-0.73-0.72
				c-0.01-0.02-0.02-0.03-0.02-0.05c-0.05-0.11-0.1-0.23-0.15-0.34c-0.51-0.25-0.85-0.87-1.55-0.74c-0.11-0.02-0.23-0.04-0.34-0.06
				c-0.01-0.12-0.02-0.23-0.04-0.35h-0.58h-1.92c-0.02,0.12-0.03,0.24-0.04,0.36c-0.24,0.03-0.48,0.06-0.73,0.09
				c-0.34-0.1-0.46,0.33-0.76,0.32c-0.29-0.03-0.56-0.01-0.58,0.38v0c-0.57,0.04-0.87,0.56-1.34,0.77l-0.07,0.09
				c-0.36,0.42-0.72,0.84-1.08,1.26c-0.47,0.44-0.86,0.96-1.19,1.51c-0.44,0.18-0.66,0.54-0.74,0.99c-0.02,0.31-0.45,0.42-0.39,0.78
				c-0.11,0-0.23,0-0.34,0.01h0l0,0.01c0,0.06-0.01,0.12-0.04,0.17c0,0.02,0.01,0.05,0.01,0.07c0.02,0.47-0.58,0.75-0.41,1.26
				c-0.21,0.04-0.29,0.18-0.36,0.39c-0.24,0.71-0.52,1.42-0.78,2.12c-0.67,1.27-1.2,2.59-1.36,4.03l0,0
				c-0.58,1.16-0.85,2.41-1.14,3.65c-0.39,0.38-0.45,0.85-0.4,1.36c-0.04,0.53-0.46,0.96-0.38,1.52c-0.08,0.19-0.16,0.37-0.25,0.56
				c-0.1,0.22-0.2,0.44-0.29,0.66v0c0.07,1.01-0.39,1.91-0.54,2.88c-0.24,1.59-0.76,3.13-0.63,4.77l-0.02-0.01
				c-0.68,0.48-0.26,1.17-0.34,1.76c-0.02,0.25-0.03,0.5-0.05,0.75v0.06c0,0.37,0,0.73,0,1.09c0,0.02,0,0.04,0,0.05
				c0,0.23,0,0.46,0.01,0.68v0.03c-0.12,0-0.25,0.01-0.37,0.01v1.35v1.54v5v0.77v1.15v1.15c0.12,0,0.24,0.01,0.36,0.01
				c0,0.43,0,0.86,0.01,1.28c0,0.02,0,0.04,0,0.06c0.01,0.12,0.03,0.25,0.04,0.37c0,0.51-0.01,1.02-0.01,1.54
				c0.07,0.01,0.15,0.02,0.23,0.03c0.01,0,0.01,0,0.02,0c0,0,0.01,0,0.01,0c0-0.01-0.01-0.03-0.01-0.04l0,0c0,0,0,0,0-0.01v0.01
				c0,0.01,0,0.03,0.01,0.04c0.03,0,0.06,0.01,0.08,0.01c0,0.13,0,0.27,0,0.4l0,0.28c0,0.09,0,0.18,0,0.27
				c0.15,1.37,0.51,2.69,0.8,4.03c0.04,0,0.09,0.01,0.13,0.02c0.01,0,0.03,0,0.04,0l0-0.01c0.02,0.1,0.03,0.2,0.05,0.3
				c0.01,0.06,0.02,0.13,0.03,0.19c0.04,0.28,0.09,0.55,0.13,0.83c0.01,0.06,0.02,0.12,0.03,0.18c0,0,0.01,0,0.01,0
				c0.01,0,0.01-0.01,0.01-0.01c0,0-0.01,0.01-0.01,0.01c0.01,0,0.02,0.01,0.03,0.01c0.02,0.01,0.03,0.01,0.05,0.02
				c0.02,0.01,0.04,0.02,0.06,0.03c0.01,0.08,0.01,0.15,0.02,0.23l0.01,0.12c0.03,0.14,0.06,0.29,0.08,0.43
				c0.04,0.18,0.07,0.36,0.1,0.54c0.26,0.92,0.41,1.89,0.95,2.71c0.1,0.76,0.4,1.44,0.76,2.1c0.02,0.86,0.45,1.57,0.82,2.3
				c-0.02,0.06-0.02,0.12-0.02,0.19c0.11,0.1,0.2,0.21,0.26,0.33c0.04,0.07,0.07,0.15,0.09,0.23c0.02,0.07,0.03,0.14,0.03,0.21
				c0.02,0.06,0.02,0.11,0.03,0.17c0.05,0.02,0.11,0.03,0.16,0.05c0.02,0.03,0.04,0.06,0.06,0.09c0.03,0.04,0.05,0.07,0.08,0.11
				c0.09,0.12,0.17,0.24,0.26,0.35c0.13,0.25,0.27,0.51,0.4,0.76c-0.01,0.08-0.01,0.14,0.01,0.2c0.04,0.06,0.07,0.12,0.1,0.19
				c0.07,0.08,0.16,0.15,0.25,0.22c0.01,0.12,0.01,0.23,0.02,0.35h0c0.27,0.16,0.41,0.37,0.39,0.66c0,0.04-0.01,0.08-0.02,0.12
				c0.01,0.11,0.03,0.21,0.04,0.32h0c0.06,0.04,0.12,0.09,0.18,0.14c0.31,0.27,0.49,0.63,0.56,1.06c0,0.01,0,0.01,0,0.02
				c0,0,0,0,0,0c0.01,0.01,0.02,0.01,0.03,0.02c0.11,0.06,0.23,0.12,0.34,0.18c0.03,0.63,0.55,1.01,0.78,1.55
				c0.08,0.1,0.17,0.2,0.25,0.3c0.42,0.5,0.82,1.02,1.04,1.64c0.04,0.11,0.07,0.22,0.1,0.33c0.05-0.01,0.09,0,0.13,0.01
				c0.09,0.03,0.15,0.11,0.2,0.19c0.06,0.09,0.11,0.18,0.21,0.2c0.29,0.73,0.97,1.21,1.29,1.91c0.03,0.06,0.05,0.13,0.08,0.19h0h0
				l0,0c0.07,0.04,0.13,0.08,0.19,0.12c0.16,0.11,0.28,0.25,0.35,0.44c0.02,0.06,0.04,0.13,0.04,0.21c0.04-0.01,0.08-0.01,0.11,0
				c0.21,0.03,0.25,0.33,0.46,0.36c0.02,0.03,0.04,0.06,0.06,0.09c0.17,0.24,0.34,0.48,0.51,0.73c0.04,0,0.08,0,0.12,0.01
				c0.16,0.03,0.25,0.14,0.27,0.32c0,0.01,0,0.02,0.01,0.03c0,0.03-0.01,0.07-0.01,0.1c0,0.04-0.01,0.09-0.01,0.13
				c0.01,0.05,0.01,0.11,0.02,0.16l0.02,0.19c0.11,0.01,0.23,0.02,0.35,0.03v0c0.01,0.11,0.02,0.22,0.03,0.33
				c0.08,0,0.15,0,0.23,0.01c0.01,0,0.03,0,0.04,0c0.04,0,0.08,0,0.11,0c0.26,0.26,0.52,0.52,0.77,0.78c0,0.07,0,0.14,0.01,0.22
				c0,0.05,0,0.1,0,0.15l0.01,0.21c0.19,0.12,0.39,0.21,0.62,0.21c0.04,0,0.08,0,0.13-0.01l0,0c0,0.04,0.01,0.09,0.01,0.13
				c0.03,0.16,0.13,0.27,0.33,0.29c0.65,0.64,1.15,1.44,1.94,1.93c0.12,0.07,0.24,0.14,0.37,0.19c0.07,0.05,0.15,0.11,0.22,0.16
				c0.05,0.05,0.09,0.1,0.14,0.15c0.16,0.17,0.31,0.34,0.52,0.42c0.08,0.03,0.17,0.05,0.28,0.05c1.52,1.25,3.08,2.43,4.89,3.23
				c0.09,0.04,0.17,0.08,0.24,0.14c0.07,0.06,0.11,0.13,0.14,0.23c0.18,0,0.36-0.01,0.53-0.01c0.51,0.1,0.95,0.51,1.52,0.39
				c0.06-0.1,0.14-0.18,0.21-0.23c0.32-0.24,0.71-0.12,1.08-0.1c0.1,0.01,0.19,0,0.28-0.01l-0.02-0.05
				c0.48,0.17,0.78-0.24,1.16-0.36c0.13,0.01,0.26,0.01,0.39,0.02c0.04-0.03,0.07-0.06,0.1-0.1c0.03-0.04,0.04-0.08,0.06-0.12
				c0.02-0.06,0.03-0.12,0.02-0.19h0c0.54-0.3,0.89-0.77,1.15-1.31c0.32-0.66,0.8-1.09,1.54-1.2c0.05,0.01,0.09,0.01,0.14,0.02
				c0.23,0.02,0.42-0.05,0.48-0.36c0.7-0.1,1.22-0.63,1.88-0.81c0-0.01,0-0.02,0-0.03c0-0.02,0.01-0.04,0.01-0.06
				c0-0.03,0-0.06,0-0.09c0.52-0.26,1.04-0.51,1.55-0.77v0c0.06,0,0.12,0,0.17-0.01c0.1-0.08,0.2-0.15,0.32-0.2
				c0.04-0.04,0.07-0.09,0.1-0.15h0l0,0h0v0h0l0,0l0,0v0c-0.14-0.01-0.27-0.02-0.38,0.03c0.11-0.04,0.24-0.04,0.38-0.03h0l0,0l0,0h0
				c0.06,0,0.13-0.01,0.2-0.01c0.12-0.01,0.25-0.01,0.37-0.02c0.03,0,0.06,0,0.09,0l0.09,0c0.01-0.01,0.01-0.02,0.02-0.03
				c0.03-0.04,0.06-0.09,0.09-0.13c0.04-0.06,0.09-0.12,0.13-0.19h0c0.11-0.01,0.23-0.02,0.34-0.03c0.05,0.05,0.11,0.05,0.18,0.04
				c0.1-0.02,0.22-0.08,0.33-0.12c0.19-0.08,0.36-0.1,0.4,0.25c0,0.02,0.01,0.04,0.01,0.06c0.03,0.45,0.25,0.82,0.36,1.22
				c0.03,0.09,0.05,0.19,0.06,0.29c0.11,0.25,0.32,0.36,0.58,0.4c0.02,0,0.04,0,0.05,0c0.11-0.01,0.22-0.01,0.34-0.02v0
				c0.01,0,0.02,0,0.03,0c0.33,0.06,0.64,0.06,0.95,0.03c0.47-0.05,0.92-0.17,1.38-0.31c0.11-0.04,0.22-0.07,0.33-0.1
				c0.37-0.42,0.95-0.56,1.38-0.9c0.14-0.11,0.27-0.25,0.36-0.43c0.3,0.04,0.37-0.27,0.57-0.38h0c0.08,0,0.15-0.01,0.21-0.03
				c0.07-0.07,0.15-0.13,0.23-0.18c0.04-0.06,0.06-0.12,0.08-0.2l0.43-0.36c0.06,0.01,0.12,0.01,0.17,0.01
				c0.14-0.01,0.26-0.05,0.34-0.16c0.03-0.06,0.06-0.13,0.07-0.22c0.51-0.39,1.13-0.63,1.52-1.16c0.01,0,0.02,0,0.03,0
				c0.34-0.03,0.47-0.3,0.62-0.55l0.06,0.02l0.06-0.03c1.51-0.05,2.77,0.64,4.02,1.34l0.03,0.36l-0.02,0.03c0,0-0.01,0-0.01,0
				c0,0.02,0,0.03,0.01,0.05c0-0.02,0-0.03,0-0.05c0.01-0.01,0.02-0.02,0.03-0.03c0.34-0.03,0.39,0.45,0.73,0.42
				c0.24,0.45,0.55,0.85,0.95,1.17l0,0c0.25,0.51,0.41,1.06,0.78,1.5c0.04,0.36-0.12,0.8,0.38,0.98c0.01,0.31,0.02,0.62,0.03,0.93
				c0.05,0.41-0.28,0.94,0.34,1.19v0c0.01,1.21,0.15,2.42,0.02,3.63c0,0.08,0.01,0.16,0.01,0.24c0,0.06,0.01,0.12,0.01,0.18
				c0,0.05,0.01,0.11,0.01,0.16c-0.01,0.25-0.01,0.51-0.02,0.77c0,0.07,0,0.15-0.01,0.22v0.05c0,0.11,0,0.21-0.01,0.32
				c0.68,0.7,0.01,1.41,0.03,2.11v0.01c0.02,0,0.03,0,0.05-0.01c-0.02,0-0.03,0.01-0.05,0.01c0,0.12,0,0.25-0.01,0.37
				c-0.07-0.01-0.13,0-0.17,0.02c0.05,0.01,0.11,0.03,0.17,0.03c0,0.88,0,1.77-0.01,2.65l-0.04-0.03c0,0.08,0,0.16,0.01,0.25
				c0.01,0.17,0.01,0.35,0.02,0.53h0l-0.14,0.02c-0.02,0-0.03,0-0.05,0.01c-0.06,0.01-0.11,0.01-0.17,0.02l-0.03,0.75
				c-0.03,0.05-0.03,0.1-0.02,0.16c-0.53,0.31-0.46,0.95-0.75,1.39c-0.04,0.04-0.04,0.08-0.03,0.13h0
				c-0.79,0.62-1.63,1.03-2.67,0.68c-0.06-0.01-0.13-0.03-0.19-0.04l0.02-0.03c-0.22-0.21-0.34-0.64-0.79-0.38
				c-0.11-0.06-0.22-0.13-0.34-0.19l0,0c-0.12-0.41-0.37-0.69-0.8-0.77c-0.05-0.36-0.32-0.56-0.58-0.76
				c-0.08,0.01-0.14,0.02-0.2,0.05c-0.12,0.06-0.18,0.17-0.18,0.34v0l0,0c0.18,0.1,0.3,0.24,0.34,0.42
				c0.01,0.05,0.01,0.11,0.01,0.16c0.03,0.24,0.14,0.39,0.4,0.41c0,0.06,0.01,0.12,0.01,0.18c0,0.06,0.01,0.12,0.01,0.18
				c0.38,0.3,0.62,0.69,0.77,1.14c0.06,0.03,0.11,0.08,0.16,0.13c0.11,0.13,0.2,0.28,0.42,0.26c0.52,0.77,1.24,1.26,2.12,1.53
				c0.13,0,0.25,0.01,0.38,0.01c1,0.18,1.56-0.33,1.91-1.2v0c0.22-0.01,0.29-0.14,0.4-0.32c0.53-0.92,0.78-1.94,1.17-2.91
				c0.71-1.53,0.82-3.2,1.15-4.81l0.57,0.02c0.09,0.01,0.18,0.01,0.27,0c0.38-0.02,0.77-0.13,1.1,0.1c0.08,0.06,0.15,0.13,0.22,0.23
				v0c0.31,0.02,0.61,0.03,0.92,0.05h0.41c0.76,0,1.53,0,2.29,0c0.02,0.03,0.04,0.06,0.06,0.08c0.02,0.02,0.03,0.05,0.05,0.07
				c0.04,0.06,0.09,0.13,0.13,0.19c3.39,0.2,6.75-0.24,10.12-0.39c0.07-0.12,0.16-0.19,0.25-0.25c0.21-0.11,0.46-0.1,0.7-0.12
				c0.08-0.01,0.16-0.02,0.24-0.04h0.01c0.01,0,0.01,0,0.02,0l0.14,0.02c0.08,0.01,0.15,0.02,0.22,0.04
				c0.52-0.11,1.12,0.1,1.54-0.41l-0.02-0.02c0-0.01,0-0.02,0-0.03c0.01,0.02,0.01,0.03,0.02,0.05l1.32-0.02c0.01,0,0.02,0,0.03,0
				l0.07-0.02l0.07,0.02c0.06-0.08,0.11-0.13,0.18-0.18c0.34-0.27,0.78-0.19,1.19-0.2h0c0.01,0,0.01,0,0.02,0c0-0.01,0-0.01,0-0.02
				c0.77-0.53,1.75-0.45,2.55-0.89c0.86-0.47,1.94-0.43,2.69-1.15h0c0.26-0.07,0.6,0.09,0.79-0.23c-0.12,0.06-0.25,0.1-0.37,0.1
				c0.12-0.01,0.25-0.04,0.37-0.1c1.59-0.64,3.19-1.25,4.57-2.3c0.25-0.07,0.51-0.15,0.76-0.22c0-0.01,0.01-0.01,0.01-0.02
				c0.26-0.47,0.96-0.38,1.17-0.9v0c0.29,0.01,0.52-0.08,0.58-0.4l0.09,0l0.07-0.05l0.14,0.03c0.02,0,0.04,0.01,0.06,0.01
				c0,0,0,0,0,0c0.01-0.03,0.03-0.06,0.05-0.09c0.14-0.24,0.36-0.37,0.66-0.34c0,0,0.01,0,0.01,0l0,0c0,0,0,0,0,0v0
				c-0.07-0.33,0.36-0.28,0.4-0.52c0.28-0.19,0.55-0.38,0.83-0.56c0.07,0,0.14,0,0.21,0.01c0.05,0,0.11,0,0.16,0
				c0.05-0.03,0.1-0.04,0.16-0.04c0.01-0.03,0.03-0.05,0.04-0.08c0.2-0.33,0.68-0.41,0.78-0.84c0.33-0.35,0.75-0.4,1.2-0.42
				c0.32-0.01,0.64,0,0.96-0.01c0.3-0.1,0.63-0.16,0.99-0.12c0.18-0.05,0.37-0.13,0.54-0.23c1.13-0.01,2.26-0.03,3.39-0.04h0.65
				c1.45,0,2.89,0,4.34,0c0.26,0,0.53,0,0.8,0c0.58,0,1.15,0.01,1.72,0.01c0.12,0.01,0.24,0.02,0.36,0.03
				c0.05,0.05,0.1,0.09,0.16,0.11c0.09,0.04,0.19,0.05,0.29,0.05h0.05h0c-0.01,0.04-0.02,0.08-0.03,0.12
				c-0.01,0.02-0.01,0.05-0.02,0.07c0.62,0.01,1.24,0.03,1.87,0.04l0.81-0.04c-0.05-0.02-0.1-0.04-0.15-0.07
				c0.05,0.01,0.1,0.03,0.15,0.07c0.13,0.02,0.25,0.02,0.38,0.02c0.47,0,0.94-0.08,1.38,0.19c0.06,0.04,0.13,0.07,0.19,0.09
				c0.11,0.02,0.23,0.04,0.34,0.06c0.12,0.02,0.26,0.03,0.4,0.05c0.3,0,0.61-0.03,0.91,0c0.6,0.42,1.34,0.45,2.01,0.68
				c0.19,0.07,0.37,0.15,0.54,0.26c0.85,0.2,1.6,0.71,2.48,0.79c0.22,0.59,0.75,0.31,1.15,0.42c0.1,0.43,0.48,0.3,0.75,0.37
				c0.06,0.37,0.31,0.39,0.61,0.36c0.65,0.38,1.29,0.76,1.94,1.14c0.31,0.4,0.73,0.69,1.15,0.96c0.06,0,0.13,0,0.19,0
				c0.02,0,0.03,0,0.05,0c0.05,0,0.1,0,0.16,0c0.18,0.13,0.37,0.26,0.55,0.39c0,0.01,0,0.01,0,0.02c0.01,0.03,0.01,0.06,0.01,0.08
				c0.02,0.08,0.03,0.17,0.05,0.25c0.79,0.32,1.13,1.15,1.81,1.6c-0.04,0.4,0.39,0.58,0.45,0.93c-0.06,0.3,0.17,0.52,0.23,0.78
				c0.14,0.65,0.5,1.36-0.2,1.94c0,0.08-0.01,0.15-0.01,0.23c-0.01,0.17-0.02,0.34-0.03,0.51c-0.39,0.42-0.84,0.75-1.29,1.1
				c-0.78,0.62-1.76,0.82-2.55,1.38c-0.31,0.01-0.62,0.02-0.92,0.03c0,0-0.01,0-0.02,0c-0.02,0.11-0.04,0.22-0.06,0.34
				c-2.07,0.44-4.13,0.89-6.2,1.33c-0.05,0.01-0.1,0.02-0.16,0.04c-1.57-0.08-3.06,0.6-4.64,0.46c-0.24-0.02-0.41,0.15-0.56,0.32h0
				c-0.37,0.01-0.73,0.01-1.1,0.02c-0.96,0.01-1.92,0.02-2.88,0.04c-0.25,0-0.53-0.04-0.61,0.31c-0.32,0.01-0.63,0.03-0.95,0.04
				c-1.45,0.01-2.89,0.02-4.33,0.04c-0.55,0-1.1,0.01-1.65,0.01c-0.14,0-0.27,0-0.38,0.05c-0.1,0.04-0.18,0.12-0.24,0.26
				c-0.82,0.01-1.63,0.02-2.45,0.03c-5.39,0-10.78-0.01-16.17-0.01c-0.5-0.01-1-0.02-1.5-0.03v0c-0.14-0.42-0.5-0.31-0.8-0.31
				c-1.07-0.03-2.15-0.05-3.22-0.04c-0.26,0-0.68-0.14-0.74,0.2c-0.06,0.39,0.28,0.59,0.68,0.61l-0.01-0.09c0.02,0,0.05,0,0.07,0
				c0.12,0.01,0.23,0.01,0.35,0.02c0.25,0.01,0.49,0.03,0.74,0.04c0.25,0.12,0.5,0.21,0.76,0.27c0.37,0.09,0.75,0.11,1.15,0.05
				c0.07,0,0.15,0,0.22,0c1.93-0.03,3.82,0.53,5.76,0.43c11.03,0.69,22.06,1.03,33.1-0.01c0.03,0,0.06,0,0.09,0
				c0.45,0.01,0.91,0.05,1.32-0.12c0.12-0.05,0.24-0.12,0.36-0.22h0l1.3-0.03c0.14,0,0.27,0,0.41,0.01c0.25,0.01,0.5,0.01,0.75,0.01
				c0.3-0.04,0.57-0.16,0.79-0.37c0.33-0.06,0.69,0.05,1.02-0.01c0.02-0.01,0.04-0.01,0.06-0.02c0.17-0.04,0.32-0.14,0.46-0.34
				c0.25-0.01,0.5-0.03,0.74-0.04c0.17,0,0.35,0,0.52,0c0.15,0,0.29,0,0.44,0c0.01-0.11,0.03-0.22,0.04-0.34
				c0.81,0.18,1.46-0.42,2.23-0.43c0.03-0.1,0.07-0.17,0.13-0.23c0.16-0.16,0.41-0.14,0.64-0.16h0c0.22-0.31,0.53-0.41,0.88-0.39
				c0.03,0,0.07,0,0.1,0.01c0-0.03,0.01-0.05,0.01-0.08c0.01-0.08,0.02-0.17,0.03-0.25c0.08-0.01,0.17-0.02,0.25-0.03
				c0.04,0,0.07-0.01,0.11-0.01v0c-0.02-0.02-0.04-0.03-0.06-0.04c0.02,0.01,0.04,0.02,0.06,0.04l0,0l0,0h0
				c0.07,0,0.15,0.01,0.23,0.01c0.06,0,0.11,0,0.17,0.01c0.36-0.06,0.52-0.41,0.81-0.57c-0.04-0.01-0.07-0.03-0.11-0.04
				c0-0.01,0.01-0.02,0.01-0.03c0.01-0.03,0.02-0.06,0.03-0.09c0-0.02,0.01-0.03,0.01-0.05c0.02-0.06,0.04-0.11,0.05-0.17l0,0
				c0.24-0.26,0.66-0.33,0.75-0.74c0.07,0,0.12-0.02,0.17-0.05c0.14-0.09,0.22-0.25,0.36-0.34c0.06-0.04,0.12-0.06,0.21-0.05
				C460.17,1139.04,460.05,1137.9,460.04,1136.78 M435.02,1081.56C435.02,1081.56,435.02,1081.57,435.02,1081.56
				C435.02,1081.57,435.02,1081.56,435.02,1081.56 M434.44,1093.25C434.45,1093.25,434.45,1093.25,434.44,1093.25
				c0.01,0.01,0,0.01,0,0.01C434.45,1093.26,434.45,1093.26,434.44,1093.25C434.45,1093.25,434.45,1093.25,434.44,1093.25
				 M374.23,1074.61L374.23,1074.61c-0.03,0.01-0.05,0.03-0.08,0.06C374.17,1074.63,374.2,1074.62,374.23,1074.61 M320.41,1089.98
				L320.41,1089.98L320.41,1089.98L320.41,1089.98z M324.79,1105.02L324.79,1105.02L324.79,1105.02L324.79,1105.02L324.79,1105.02
				c0,0.04,0.01,0.08,0.01,0.11C324.8,1105.09,324.79,1105.05,324.79,1105.02 M371.61,1058.42c0.03,0.02,0.06,0.05,0.09,0.07
				C371.67,1058.46,371.64,1058.44,371.61,1058.42L371.61,1058.42z M366.11,1049.11C366.1,1049.11,366.1,1049.11,366.11,1049.11
				c0.03,0.05,0.06,0.12,0.05,0.21c0-0.09-0.02-0.15-0.06-0.21C366.1,1049.1,366.1,1049.11,366.11,1049.11 M364.11,1052.5
				c-0.01,0.02-0.03,0.04-0.05,0.06v0C364.07,1052.55,364.09,1052.53,364.11,1052.5 M361.82,1050.44L361.82,1050.44
				c0,0-0.01,0-0.01,0C361.81,1050.43,361.81,1050.44,361.82,1050.44 M359.95,1053.05C359.95,1053.05,359.96,1053.05,359.95,1053.05
				C359.96,1053.05,359.95,1053.05,359.95,1053.05c-0.6-0.3-0.94,0.03-1.2,0.46C359.01,1053.08,359.35,1052.75,359.95,1053.05
				 M358.19,1053.94C358.19,1053.94,358.19,1053.94,358.19,1053.94C358.19,1053.94,358.19,1053.94,358.19,1053.94
				c-0.11,0.18-0.24,0.35-0.38,0.52C357.94,1054.3,358.07,1054.12,358.19,1053.94 M357.81,1054.46c0.01,0,0.02,0.01,0.03,0.01
				C357.83,1054.47,357.82,1054.47,357.81,1054.46L357.81,1054.46z M354.24,1059.69C354.24,1059.69,354.24,1059.69,354.24,1059.69
				c-0.01,0.01-0.01,0.01-0.01,0.01C354.24,1059.7,354.23,1059.69,354.24,1059.69C354.23,1059.69,354.24,1059.69,354.24,1059.69
				 M345.71,1059.48C345.71,1059.48,345.71,1059.48,345.71,1059.48c0.4,0.22,0.44,0.65,0.55,1.05
				C346.15,1060.13,346.11,1059.7,345.71,1059.48C345.71,1059.48,345.71,1059.48,345.71,1059.48 M341.25,1045.58L341.25,1045.58
				L341.25,1045.58L341.25,1045.58L341.25,1045.58L341.25,1045.58z M339.59,1043.64L339.59,1043.64c-0.33,0-0.66,0.01-0.99-0.01
				C338.93,1043.65,339.26,1043.64,339.59,1043.64 M327.91,1055.25c0,0,0.01,0.01,0.01,0.01l0,0
				C327.92,1055.25,327.91,1055.25,327.91,1055.25L327.91,1055.25z M327.85,1055.18L327.85,1055.18L327.85,1055.18L327.85,1055.18
				C327.85,1055.18,327.85,1055.18,327.85,1055.18C327.85,1055.18,327.85,1055.18,327.85,1055.18L327.85,1055.18
				c-0.1,0.57,0.09,1.07,0.38,1.54C327.94,1056.25,327.75,1055.75,327.85,1055.18 M330.11,1113.81L330.11,1113.81L330.11,1113.81
				C330.1,1113.81,330.1,1113.81,330.11,1113.81c0.23-0.04,0.61-0.22,1.37-0.5C330.72,1113.59,330.34,1113.78,330.11,1113.81
				 M334.39,1120.14L334.39,1120.14c0-0.05,0.01-0.09,0.01-0.14C334.4,1120.05,334.4,1120.1,334.39,1120.14 M334.41,1119.98
				C334.41,1119.98,334.4,1119.98,334.41,1119.98C334.4,1119.98,334.41,1119.98,334.41,1119.98c0-0.05,0-0.1,0.01-0.14
				C334.41,1119.89,334.41,1119.93,334.41,1119.98 M336.8,1122.54L336.8,1122.54L336.8,1122.54c0.03,0,0.07-0.01,0.1-0.01
				C336.87,1122.53,336.83,1122.54,336.8,1122.54 M345.68,1124c0.01,0,0.03-0.01,0.04-0.01l0,0
				C345.71,1123.99,345.7,1123.99,345.68,1124 M365.36,1118.48L365.36,1118.48c0.02-0.01,0.03-0.03,0.05-0.04c0,0,0,0,0,0
				C365.39,1118.45,365.38,1118.46,365.36,1118.48c0.02-0.02,0.03-0.03,0.04-0.05c0,0,0,0,0,0
				C365.39,1118.45,365.38,1118.47,365.36,1118.48 M366.14,1117.57L366.14,1117.57C366.14,1117.57,366.15,1117.56,366.14,1117.57
				C366.14,1117.56,366.14,1117.57,366.14,1117.57 M365.72,1116.83c0.15,0.03,0.29-0.08,0.44-0.09
				C366.01,1116.75,365.87,1116.86,365.72,1116.83 M366.51,1120.02L366.51,1120.02c0.01,0.01,0.01,0.01,0.02,0.02
				C366.53,1120.04,366.52,1120.03,366.51,1120.02 M366.58,1108.47c-0.03,0.13-0.05,0.27-0.07,0.4c-0.48,0.7-0.72,1.49-0.95,2.29
				c-0.11,0.12-0.2,0.25-0.28,0.38c-0.47,0.72-0.7,1.57-1.12,2.32c-0.04,0.07-0.08,0.14-0.12,0.2c-0.39-0.01-0.78-0.03-1.16-0.04
				c-0.25,0.02-0.5,0.04-0.74,0.06c-0.07,0-0.13,0-0.2,0c-0.64,0-1.28-0.01-1.92-0.01c-0.01,0.06-0.01,0.12-0.02,0.18l-0.01,0.07
				l-0.01,0.09c-0.33,0.01-0.67,0.01-1,0.02c-0.11,0-0.21,0-0.32,0c-0.21,0.07-0.49,0-0.67,0.14c-0.07,0.05-0.12,0.12-0.15,0.24
				c-0.6,0.02-1.21,0.03-1.82,0.05v0c-0.27,0.56-0.78,0.32-1.21,0.35c-0.31,0.03-0.53,0.24-0.77,0.4h-0.04
				c-0.34,0-0.69-0.04-0.98,0.13c-0.1,0.05-0.19,0.13-0.28,0.24l-0.42,0.01h0c-0.76,0.51-1.61,0.8-2.5,0.97
				c-0.21,0.23-0.47,0.35-0.79,0.35c-0.14,0.12-0.27,0.25-0.41,0.37c0,0,0,0.01,0,0.01c0,0,0-0.01,0-0.01c0,0-0.01,0-0.01,0
				c-0.11,0-0.21-0.01-0.32-0.02h0c-0.01-0.01-0.02-0.01-0.03-0.02c-0.63-0.46-1.38-0.28-2.08-0.35c0,0-0.01,0-0.01,0
				c-0.65-0.31-1.31-0.62-1.96-0.93c-0.32,0-0.56-0.18-0.79-0.37c0.02-0.03,0.05-0.05,0.07-0.08c0,0,0,0,0,0
				c-0.02,0.03-0.05,0.05-0.07,0.08c-0.27-0.02-0.44-0.18-0.57-0.4c-0.25,0-0.37-0.14-0.41-0.37c-0.63-0.38-1.36-0.64-1.72-1.36
				c-0.18-0.14-0.36-0.28-0.53-0.42c-0.17,0.02-0.32,0-0.42-0.15c-0.04-0.07-0.09-0.15-0.14-0.22c-0.07-0.12-0.14-0.24-0.21-0.35
				c0-0.01-0.01-0.01-0.01-0.02c-0.38-0.12-0.44-0.65-0.85-0.74c-0.04-0.01-0.08-0.01-0.12-0.01c-0.37-0.47-0.74-0.94-1.11-1.41
				c-0.04-0.05-0.08-0.1-0.12-0.15c0.02-0.06,0.04-0.12,0.06-0.18c-0.12-0.13-0.25-0.25-0.37-0.38c-0.47-0.26-0.64-0.78-0.96-1.16
				v-0.16v-0.07c0-0.05,0-0.1,0-0.15c-0.26-0.17-0.28-0.56-0.53-0.74c-0.06-0.04-0.12-0.07-0.21-0.09c0.02-0.44-0.5-0.54-0.57-0.93
				c-0.36-0.22-0.18-0.62-0.29-0.92c-0.49-0.72-0.82-1.51-1.11-2.32v0c-0.18-0.16-0.4-0.29-0.39-0.57c-0.5-0.56-0.47-1.37-0.93-1.96
				c-0.03-0.16-0.07-0.32-0.1-0.48c-0.01-0.04-0.02-0.08-0.03-0.13c-0.01-0.07-0.03-0.14-0.04-0.21c-0.01-0.05-0.02-0.1-0.03-0.15
				c-0.05-0.02-0.11-0.04-0.16-0.06v0c-0.01-0.1-0.02-0.21-0.03-0.32c0-0.02,0-0.05-0.01-0.07c-0.05-1-0.76-1.82-0.77-2.83
				c-0.07-0.04-0.14-0.08-0.21-0.12l0,0c-0.05-0.03-0.1-0.06-0.15-0.09h0c-0.01-0.26-0.01-0.52-0.02-0.79
				c0-0.11-0.01-0.23-0.01-0.34c-0.03-0.05-0.03-0.1-0.02-0.15c-0.08-0.03-0.13-0.06-0.18-0.1c-0.28-0.22-0.16-0.57-0.17-0.89
				c0-0.01,0-0.01,0-0.02c0-0.02-0.01-0.04-0.01-0.06c-0.07-0.36-0.28-0.68-0.36-1.03c-0.01-0.03-0.01-0.05-0.02-0.08
				c-0.02-0.11-0.03-0.23-0.01-0.35c-0.06,0-0.12-0.01-0.18-0.02c0,0-0.01,0.01-0.02,0.01c0-0.01,0.02-0.01,0.02-0.01l0,0
				c-0.23-1.35-0.68-2.66-0.79-4.03c0-0.02,0-0.04,0-0.06c0.01-0.12,0.01-0.24,0-0.35c-0.02-0.11-0.04-0.21-0.06-0.32
				c-0.02-0.06-0.03-0.11-0.05-0.16c-0.06-0.16-0.14-0.32-0.24-0.48c0.14-1.18-0.52-2.27-0.42-3.45c0-0.02,0-0.04,0-0.07
				c0-0.03,0-0.06,0-0.08l0.04-0.82c-0.04-0.43,0.02-0.89-0.18-1.29c-0.05-0.1-0.11-0.2-0.2-0.29h0c0-0.18-0.01-0.36-0.02-0.54
				c0-0.02,0-0.04,0-0.07c0.12-3.25-0.5-6.46-0.39-9.71c0-0.08,0-0.15,0.01-0.23l0.01,0.01h0c0.05-0.01,0.09-0.03,0.13-0.05
				c0.2-0.11,0.19-0.34,0.19-0.55c0.01-1.28,0.02-2.56,0.03-3.85c0.06-0.32,0.07-0.64-0.13-0.93c0.29-0.2,0.16-0.49,0.17-0.76
				c0.49-0.59,0.36-1.29,0.35-1.96c0.01-0.24,0.01-0.49,0.02-0.73c0-0.01,0-0.03,0-0.04c0-0.11,0.01-0.23,0.01-0.34v0
				c0.1-0.18,0.18-0.38,0.25-0.57c0.28-0.89,0.2-1.86,0.52-2.74c0.31-1.06,0.67-2.11,0.91-3.18c0.18-0.79,0.56-1.52,0.73-2.31
				c0.03-0.16,0.06-0.31,0.07-0.47c0.41-0.4,0.34-0.99,0.59-1.46v0c0.3-0.12,0.17-0.4,0.22-0.61c0.01-0.01,0.02-0.02,0.03-0.03
				c0.45-0.35,0.48-0.98,0.9-1.35c0-0.01,0-0.01,0.01-0.02c0.12-0.47,0.54-0.75,0.74-1.17l0,0c-0.04-0.39,0.42-0.55,0.42-0.91
				c0.04-0.01,0.07-0.01,0.11-0.02c0.08-0.01,0.16-0.02,0.24-0.04c0.12-0.41,0.42-0.53,0.8-0.52l0.54-0.06
				c0.06-0.07,0.12-0.13,0.18-0.2c0.01-0.09,0.01-0.18,0.02-0.27c0-0.03,0-0.06,0.01-0.09c0.02,0,0.04,0,0.06,0
				c0.04,0,0.08,0,0.13,0c0.32,0.01,0.63,0.01,0.95,0.02c0.05,0,0.1,0,0.15,0h0c0.08,0.12,0.17,0.24,0.25,0.36
				c0.43-0.12,0.57,0.41,0.95,0.41c0,0.03,0.01,0.07,0.01,0.1c0.01,0.08,0.02,0.16,0.03,0.25c0.19,0.07,0.36,0.16,0.38,0.39h0
				c0.13,0.07,0.26,0.13,0.39,0.2c0,0.06,0,0.11,0,0.17c0,0.07,0,0.13,0,0.2c0.74,0.94,1.16,2.05,1.69,3.11
				c-0.01,0.04-0.01,0.09-0.01,0.13c0,0.27,0.14,0.48,0.38,0.64c0,0.02,0,0.04,0,0.06c-0.01,0.65,0.57,1.15,0.44,1.82
				c0.09,0.06,0.18,0.11,0.27,0.17c0.03,0.02,0.07,0.04,0.1,0.06c-0.01,0.19-0.02,0.39-0.03,0.58c0.02,0.06,0.04,0.11,0.04,0.17
				c0,0.07-0.01,0.14-0.01,0.21c0.08,0.15,0.12,0.32,0.13,0.49c0.05,0.05,0.12,0.08,0.23,0.11c-0.08,0.74,0.59,1.32,0.43,2.08
				c0.12,0.14,0.23,0.28,0.35,0.42l-0.01,0.59c0,0.03,0,0.07,0,0.1c0,0.02,0,0.05,0,0.07c0.01,0.31,0.03,0.61,0.04,0.92v0
				c0.11,0.14,0.19,0.29,0.25,0.44c0.26,0.67,0.17,1.43,0.49,2.08c0,0.01,0.01,0.02,0.01,0.03c0.06,0,0.12,0,0.18,0.01
				c0,0.06,0,0.11,0.01,0.17c-0.01,0.16-0.01,0.33,0,0.49c0.01,0.17,0.05,0.33,0.11,0.48c0.06,0.14,0.14,0.28,0.26,0.4
				c0.15,1.37,0.37,2.72,0.7,4.06c0.14,0.56,0.12,1.13,0.08,1.69c0.01,0.06,0.02,0.12,0.02,0.19c0.12,0.08,0.24,0.16,0.36,0.23
				c0,0,0,0.01,0,0.01c0,0,0-0.01,0-0.01s0,0,0,0.01c0,0.09-0.01,0.18-0.01,0.27c-0.01,0.21-0.01,0.43-0.02,0.64
				c0,0.07,0,0.14-0.01,0.22c0.02,0.19,0.05,0.37,0.07,0.56c0.01,0.05,0.01,0.11,0.02,0.16c0.15,1.23,0.27,2.46,0.45,3.68
				c0.21,1.44,0.55,2.87,0.66,4.32c0.02,0.25,0.03,0.5,0.03,0.75c0,0.21,0,0.43-0.02,0.65c0,0.01,0,0.02,0,0.03v0
				c0,0.01,0,0.01,0.01,0.02c0.12,0.33,0.2,0.66,0.26,1c0.01,0.08,0.03,0.17,0.04,0.25c0.07,0.5,0.09,1.01,0.1,1.52v0.4
				c0,0.57,0.1,1.08,0.73,1.29c0.03-0.01,0.05-0.01,0.08-0.02c0,0,0,0,0.01,0c0.04-0.01,0.08-0.02,0.12-0.03
				c0.26,0.02,0.52,0.04,0.77,0.05c0.76-0.32,0.96-1.03,1.15-1.71c0.3-1.05,0.38-2.11,0.4-3.17c-0.01-0.22-0.01-0.44,0-0.65
				c0-0.59-0.02-1.19-0.02-1.78c0.08-0.07,0.15-0.15,0.21-0.23c0.11-0.15,0.17-0.33,0.18-0.53c0.44-0.6,0.81-1.24,0.88-2
				c0.01-0.05,0.01-0.09,0.01-0.15c0.02-0.03,0.04-0.06,0.07-0.08c0.34-0.42,0.39-0.97,0.53-1.46c0.28-0.98,0.88-1.87,1-2.89
				c0.01-0.11,0.02-0.23,0.03-0.35c0.41-0.12,0.32-0.47,0.35-0.77c0.1-0.1,0.19-0.2,0.25-0.32c0.07-0.13,0.13-0.27,0.15-0.43
				c0.59-0.91,0.86-1.96,1.34-2.91c0-0.07-0.01-0.14-0.01-0.2v-0.01c-0.01-0.07-0.01-0.13-0.02-0.2c0.04-0.05,0.09-0.09,0.13-0.14
				c0.08-0.09,0.16-0.17,0.25-0.26c0.01-0.21,0.04-0.42,0.21-0.53c0.05-0.03,0.1-0.06,0.17-0.07c-0.02-0.06-0.01-0.11,0.02-0.15
				c-0.01-0.03-0.01-0.06-0.01-0.09c-0.02-0.46,0.56-0.75,0.41-1.25c0.43-0.08,0.36-0.41,0.38-0.71c0-0.01,0-0.02,0-0.03
				c0.11-0.02,0.21-0.04,0.32-0.06c-0.03-0.55,0.37-0.91,0.61-1.33c0.36-0.82,0.82-1.57,1.54-2.12c0.13-0.19,0.26-0.38,0.4-0.57
				c0.06-0.02,0.12-0.04,0.17-0.06c0.35-0.17,0.56-0.48,0.76-0.81c0.02-0.03,0.03-0.05,0.05-0.08v0c0.05,0,0.11-0.01,0.16-0.02v0
				c0.21-0.41,0.46-0.76,0.99-0.74c0.14-0.08,0.22-0.2,0.22-0.37c0.04,0.01,0.08,0,0.12,0c0.44,0,0.78-0.33,1.19-0.43
				c0.51,0.13,1.02,0.27,1.53,0.4c0.06,0.12,0.12,0.24,0.19,0.36l0.02,0.03c0.13-0.01,0.25-0.01,0.38-0.02
				c0.4,0.09,0.58,0.48,0.89,0.7c0.07,0.06,0.15,0.1,0.25,0.13c0,0.16,0.02,0.31,0.22,0.33c0.11,0.18,0.21,0.37,0.31,0.56
				c0.27,0.51,0.54,1.03,0.93,1.47c0.03,0.03,0.05,0.06,0.08,0.09c0.03,0.09,0.06,0.19,0.08,0.28c0.25,0.82,0.55,1.62,0.93,2.38
				c0.1,0.21,0.21,0.41,0.33,0.62h0c-0.01,0.04-0.01,0.08-0.01,0.12c0.17,0.23,0.18,0.48,0.18,0.74c0.06,0.11,0.13,0.21,0.22,0.3
				c-0.13,0.58,0.4,0.97,0.41,1.51c0,0.06,0,0.13,0,0.19c-0.02,0.26-0.06,0.52,0.14,0.7c0.05,0.05,0.12,0.09,0.22,0.12
				c0.01,0.18,0.03,0.35,0.04,0.53c0,0.08,0,0.15,0,0.22c0,0.3,0,0.59,0.01,0.88l0.13,0.03l0.03,0.01c0.06,0.01,0.12,0.03,0.18,0.04
				c0.01,0.12,0.02,0.24,0.03,0.36l-0.01,0.23c0,0.11-0.01,0.22-0.01,0.33c0,0.07-0.01,0.14-0.01,0.22
				c-0.01,0.2-0.01,0.39-0.02,0.59c0.05,0.02,0.1,0.05,0.16,0.07c0.02,0.01,0.04,0.02,0.06,0.03c0.06,0.03,0.13,0.06,0.19,0.09
				c0,0.38,0,0.77,0,1.15c0.01,0.24,0.03,0.48,0.04,0.72l0,0c0.3,0.19,0.35,0.49,0.36,0.81c-0.01,0.28-0.02,0.55-0.03,0.83
				c0,0.05,0,0.09,0,0.14c-0.05,0.85,0.14,1.67,0.29,2.5c0.04,0.38,0.09,0.75,0.12,1.12c0.01,0.26,0.03,0.52,0,0.79
				c0.01,0.38,0.01,0.75,0.02,1.13v0c0.14,0.62,0.25,1.24,0.31,1.86c0.11,1.03,0.12,2.06,0.02,3.09c-0.06,0.68-0.18,1.36-0.34,2.03
				l0,0.29c0,0.02,0,0.04,0,0.06v0c0,0.26-0.01,0.51-0.01,0.77v0.03c-0.01,0.25-0.01,0.49-0.02,0.74c-0.02,0-0.05,0.01-0.07,0.02
				c0.02,0.03,0.05,0.07,0.08,0.1c0.11,1.18-0.49,2.28-0.43,3.46c0,0.08,0.01,0.16,0.02,0.23c-0.03,0.02-0.05,0.04-0.08,0.06
				c-0.39,0.3-0.31,0.7-0.27,1.09c0.02,0.15,0.03,0.29,0.01,0.43c-0.01,0.25-0.02,0.5-0.04,0.75c-0.1,0.05-0.18,0.11-0.23,0.17
				c-0.24,0.25-0.16,0.59-0.13,0.91c0.01,0.1,0.01,0.2,0,0.29c-0.01,0.12-0.03,0.24-0.04,0.37c0.01,0.2,0.01,0.4,0.02,0.59
				c-0.03,0.01-0.05,0.03-0.07,0.04c-0.03,0.02-0.06,0.04-0.09,0.06c-0.07,0.04-0.13,0.07-0.19,0.11c-0.01,0.18-0.03,0.37-0.04,0.55
				l0.02,0.17c0,0.02,0.01,0.04,0.01,0.06c0.01,0.06,0.01,0.11,0.02,0.17c-0.02,0.18-0.03,0.36-0.04,0.53v0l-0.18,0.03
				c-0.01,0-0.02,0-0.03,0.01c-0.05,0.01-0.09,0.01-0.14,0.02c0,0.13,0,0.26,0,0.39v0.17c-0.01,0.12-0.02,0.23-0.03,0.35
				c-0.08,0.09-0.15,0.19-0.21,0.29c-0.01,0.26-0.03,0.52-0.18,0.75c0,0.05,0.01,0.1,0.02,0.16c-0.05,0.41-0.47,0.69-0.39,1.14
				c-0.09,0.25-0.19,0.5-0.29,0.74c-0.39,0.97-0.81,1.93-1.01,2.96c-0.02,0.11-0.04,0.21-0.06,0.32c-0.03,0.05-0.06,0.1-0.09,0.15
				C367.08,1106.69,366.76,1107.55,366.58,1108.47 M370.22,1114.49L370.22,1114.49c0.01,0.01,0.01,0.01,0.02,0.02
				C370.23,1114.5,370.23,1114.5,370.22,1114.49 M370.24,1114.5c0,0-0.01-0.01-0.02-0.02C370.23,1114.5,370.24,1114.5,370.24,1114.5
				 M371.53,1114.71c0,0.04,0,0.08,0,0.12C371.53,1114.79,371.53,1114.75,371.53,1114.71
				C371.53,1114.71,371.54,1114.71,371.53,1114.71C371.54,1114.71,371.53,1114.71,371.53,1114.71 M374.67,1121.34L374.67,1121.34
				L374.67,1121.34L374.67,1121.34C374.67,1121.34,374.67,1121.34,374.67,1121.34C374.67,1121.34,374.67,1121.33,374.67,1121.34
				C374.67,1121.33,374.67,1121.33,374.67,1121.34c0.04-0.02,0.09-0.02,0.14,0.01C374.76,1121.32,374.71,1121.32,374.67,1121.34
				 M374.84,1114.88C374.84,1114.88,374.85,1114.88,374.84,1114.88l0.01,0C374.85,1114.88,374.85,1114.88,374.84,1114.88
				 M371.72,1141.55C371.72,1141.55,371.72,1141.55,371.72,1141.55C371.72,1141.55,371.73,1141.55,371.72,1141.55 M429.07,1114.06
				L429.07,1114.06L429.07,1114.06L429.07,1114.06c-0.01-0.02-0.02-0.03-0.04-0.04c0.01,0.01,0.02,0.02,0.03,0.03L429.07,1114.06
				C429.07,1114.06,429.07,1114.06,429.07,1114.06L429.07,1114.06z M429.44,1114.16L429.44,1114.16c0,0.06,0.01,0.11,0.01,0.17
				C429.45,1114.27,429.45,1114.22,429.44,1114.16 M429.84,1082.28L429.84,1082.28L429.84,1082.28L429.84,1082.28 M429.26,1079.66
				c0,0-0.01,0.01-0.01,0.01l0,0C429.26,1079.67,429.26,1079.67,429.26,1079.66 M424.63,1080.37
				C424.63,1080.37,424.63,1080.37,424.63,1080.37C424.63,1080.37,424.63,1080.37,424.63,1080.37L424.63,1080.37L424.63,1080.37
				L424.63,1080.37L424.63,1080.37L424.63,1080.37z M422.55,1081.15c0,0,0,0.01,0,0.01c0,0-0.01,0-0.01,0
				C422.55,1081.16,422.55,1081.15,422.55,1081.15c0-0.01-0.01-0.01-0.01-0.02C422.55,1081.14,422.55,1081.15,422.55,1081.15
				 M401.73,1091.81L401.73,1091.81c0,0.01,0.02,0.01,0.03,0.01C401.75,1091.82,401.74,1091.82,401.73,1091.81L401.73,1091.81z
				 M401.11,1099.8c0.01-0.01,0.01-0.02,0.02-0.03C401.13,1099.78,401.12,1099.79,401.11,1099.8
				C401.11,1099.8,401.11,1099.8,401.11,1099.8L401.11,1099.8z M400.19,1093.03c-0.13,0.08-0.25,0.15-0.38,0.23v0
				C399.93,1093.19,400.06,1093.11,400.19,1093.03 M399.8,1093.26C399.8,1093.26,399.8,1093.26,399.8,1093.26
				C399.8,1093.26,399.8,1093.26,399.8,1093.26C399.8,1093.26,399.8,1093.26,399.8,1093.26 M399.8,1093.27L399.8,1093.27
				c-0.09,0.09-0.19,0.17-0.28,0.25C399.61,1093.44,399.7,1093.35,399.8,1093.27 M386.75,1108.31L386.75,1108.31L386.75,1108.31
				L386.75,1108.31L386.75,1108.31L386.75,1108.31z M386.75,1108.31C386.75,1108.31,386.75,1108.31,386.75,1108.31L386.75,1108.31
				C386.75,1108.31,386.75,1108.31,386.75,1108.31 M386.74,1108.3L386.74,1108.3L386.74,1108.3L386.74,1108.3L386.74,1108.3
				C386.75,1108.31,386.74,1108.3,386.74,1108.3C386.74,1108.3,386.74,1108.3,386.74,1108.3 M375.41,1116.58
				c0-0.01,0.01-0.02,0.01-0.03L375.41,1116.58C375.41,1116.58,375.41,1116.59,375.41,1116.58
				C375.41,1116.59,375.41,1116.58,375.41,1116.58 M375.2,1116.58L375.2,1116.58c0.07,0.01,0.14,0.02,0.21,0.02
				C375.34,1116.59,375.27,1116.59,375.2,1116.58L375.2,1116.58 M375.3,1121.95L375.3,1121.95c0.03,0.02,0.05,0.04,0.07,0.06
				C375.34,1121.99,375.32,1121.97,375.3,1121.95 M379.58,1130.67L379.58,1130.67c0.1,0.03,0.2,0.02,0.27-0.03
				C379.78,1130.69,379.69,1130.7,379.58,1130.67 M394.65,1136.18c-0.11,0-0.21,0-0.32,0.01c0.09-0.01,0.19-0.02,0.28-0.03
				c0.11-0.01,0.23-0.01,0.34-0.02C394.86,1136.16,394.76,1136.18,394.65,1136.18 M399.22,1135.56c0,0,0.01,0,0.01-0.01
				C399.23,1135.55,399.22,1135.56,399.22,1135.56 M405.58,1130.29L405.58,1130.29c0.01,0.04,0.01,0.08,0.01,0.13
				C405.59,1130.38,405.58,1130.33,405.58,1130.29 M409.23,1128.3c-0.36,0.01-0.53,0.53-0.96,0.37l-1.52,0.84
				c-0.03,0.02-0.07,0.03-0.1,0.04c-0.39,0.16-0.84,0.22-1.09,0.63h0c-0.18,0.02-0.36,0.04-0.54,0.06
				c-0.02,0.03-0.04,0.06-0.05,0.09c-0.01,0.03-0.03,0.05-0.05,0.08c-0.04,0.06-0.08,0.13-0.11,0.19l-0.56,0.03
				c-0.26,0.12-0.52,0.24-0.78,0.36c-0.43,0.4-0.94,0.59-1.52,0.61c-0.21,0.25-0.49,0.31-0.79,0.36c-0.1-0.01-0.2,0-0.3,0.01
				c-0.11,0.02-0.21,0.05-0.31,0.09c-0.13,0.06-0.26,0.15-0.37,0.27c-0.25,0.01-0.5,0.02-0.75,0.04c-1.21,0.63-2.57,0.73-3.86,1.13
				c-0.21-0.02-0.41-0.02-0.61-0.01c-1.28,0.05-2.51,0.53-3.8,0.55c-0.19,0-0.4,0.02-0.57,0.16c-0.02,0.02-0.04,0.03-0.05,0.05h0
				c-0.42,0.01-0.84,0.02-1.26,0.03c-1.27,0.03-2.54,0.07-3.81,0.1c-0.27,0.01-0.5-0.07-0.66-0.3l0.28-0.13
				c0.05-0.01,0.09-0.03,0.12-0.05c0.35,0.01,0.67-0.08,1.01-0.18c1.95-0.62,3.91-1.19,5.87-1.78c0.1-0.09,0.21-0.17,0.32-0.23
				c0.2-0.11,0.41-0.16,0.64-0.16c0.07,0,0.13,0,0.2,0.01h0c0.13-0.11,0.28-0.19,0.43-0.25c0.54-0.22,1.16-0.22,1.7-0.45
				c0.14-0.06,0.28-0.14,0.41-0.24c0.98,0.06,1.84-0.66,2.85-0.42c0.13-0.11,0.26-0.22,0.39-0.34c0.01,0,0.01-0.01,0.01-0.01l0,0
				l0,0c0,0,0,0,0,0l0,0h0c-0.17-0.15-0.35-0.2-0.53-0.21c0.18,0.01,0.37,0.06,0.54,0.21l0,0c-0.18-0.19-0.44-0.32-0.74-0.37
				c0.3,0.05,0.56,0.18,0.74,0.37h0c0,0,0,0,0,0l0.01,0l0,0c0.7,0.14,1.29-0.2,1.91-0.4c0.08-0.01,0.17-0.01,0.25-0.01
				c0.32,0.02,0.66,0.1,0.92-0.11c0.07-0.06,0.14-0.14,0.2-0.25c0.37-0.01,0.74-0.03,1.11-0.04c0.08,0,0.16,0,0.24,0.01
				c0.24,0.03,0.49,0.08,0.65-0.12c0.04-0.05,0.08-0.13,0.11-0.23c0.92,0.09,1.73-0.53,2.65-0.44c0.33-0.28,0.74-0.34,1.14-0.45v0
				c0.01,0,0.03-0.01,0.05-0.01c0.19-0.04,0.38-0.07,0.57-0.11v0c0.28,0.04,0.39,0.18,0.39,0.39
				C409.25,1128.16,409.25,1128.23,409.23,1128.3 M394.43,1130.23L394.43,1130.23C394.43,1130.23,394.43,1130.23,394.43,1130.23
				C394.43,1130.23,394.43,1130.23,394.43,1130.23 M414.45,1126.97c0-0.01-0.01-0.02-0.01-0.03
				C414.45,1126.95,414.45,1126.96,414.45,1126.97L414.45,1126.97z M417.75,1127.42L417.75,1127.42c0.07-0.51,0.44-0.72,0.86-0.87
				C418.2,1126.71,417.82,1126.91,417.75,1127.42 M423.86,1114.44c-0.05,0.01-0.1,0.02-0.16,0.02c-0.1,0.33-0.16,0.69-0.6,0.76
				c-0.19,0.26-0.37,0.52-0.56,0.78c-0.14,0.42-0.29,0.83-0.81,0.92l-0.15,0.22c-0.02,0.04-0.05,0.07-0.07,0.11
				c-0.18,0.28-0.36,0.56-0.54,0.84c-0.67,0.35-1.05,0.99-1.52,1.55c-0.13,0.14-0.26,0.27-0.4,0.41c-0.4,0.18-0.79,0.35-1.19,0.53h0
				c-1.42-0.08-2.81,0.09-4.2,0.4c-0.73,0.06-1.52-0.22-2.16,0.37h0c-0.37,0.01-0.74,0.03-1.1,0.04c-0.48,0.04-1.04-0.26-1.39,0.34
				h0c-0.24,0.02-0.49,0.04-0.73,0.05c-0.42,0.03-0.93-0.24-1.21,0.33h0c-0.5,0.01-0.99,0.01-1.49,0.02c0,0-0.02,0.01-0.03,0.02
				c-0.02,0.01-0.04,0.02-0.04,0.02l-0.08,0c-0.3,0.46-0.76,0.36-1.19,0.35c-0.24,0.01-0.47,0.02-0.71,0.03
				c-0.35,0.58-0.92,0.31-1.4,0.38l-0.08,0.02l-0.08-0.02l0,0c-0.27,0.28-0.62,0.36-0.99,0.38h0c-0.38,0.13-0.77,0.25-1.15,0.38
				c-0.64,0.19-1.29,0.39-1.93,0.58c-0.11-0.01-0.22,0-0.32,0.01c-0.42,0.07-0.81,0.31-1.23,0.38c-0.18,0.03-0.37,0.03-0.57-0.02
				c-0.7,0.44-1.54,0.43-2.29,0.74c-1.05,0.44-2.23,0.51-3.22,1.12c-0.03,0.02-0.06,0.03-0.08,0.05c-0.15,0.01-0.31,0.03-0.45,0.06
				c-0.94,0.15-1.8,0.54-2.66,0.95c-0.14,0.07-0.28,0.14-0.42,0.2c-0.11,0.05-0.21,0.1-0.32,0.15c-0.31,0.01-0.56,0.16-0.77,0.36
				c-0.08,0-0.15,0.01-0.23,0.01c-0.17,0.01-0.35,0.01-0.52,0.02c-0.01,0.05-0.01,0.1-0.02,0.14c0,0.01,0,0.01,0,0.02
				c-0.01,0.07-0.01,0.13-0.02,0.2c-0.57-0.13-0.95,0.55-1.53,0.37l0.02,0.04c-0.05-0.01-0.1-0.01-0.14-0.01
				c-0.13,0.09-0.27,0.16-0.42,0.2c-0.02,0.04-0.04,0.09-0.05,0.16h-0.08l-0.07,0.02c-0.05,0-0.11,0-0.16,0
				c-0.25,0.01-0.5,0.01-0.76,0.02c-0.01,0.04-0.01,0.09-0.02,0.13c-0.01,0.07-0.03,0.15-0.04,0.22c-0.01,0-0.02,0-0.03,0
				c-0.11,0.01-0.22,0.03-0.33,0.04c-0.02,0-0.05-0.01-0.07-0.02c-0.19-0.05-0.27-0.15-0.3-0.27c-0.04-0.14-0.02-0.3-0.02-0.45
				c0-0.35,0-0.7,0.01-1.05c0-0.29,0-0.58-0.02-0.87c-0.01-0.16,0-0.32,0-0.47c-0.02-0.29-0.04-0.57-0.07-0.86
				c-0.02-0.06-0.05-0.12-0.08-0.18c-0.05-0.1-0.13-0.2-0.23-0.3v0v0c0.03-1.03-0.24-1.97-0.74-2.86c-0.01-0.01-0.01-0.02-0.02-0.04
				c0-0.02-0.01-0.05-0.01-0.07c0-0.02,0-0.03-0.01-0.05c-0.07-0.6-0.22-1.16-0.67-1.57c-0.09-0.08-0.19-0.16-0.3-0.22
				c-0.04-0.07-0.07-0.13-0.11-0.2c-0.22-0.03-0.25-0.2-0.28-0.37c0-0.05,0-0.1,0-0.16v-0.04c0-0.06,0-0.13,0-0.19
				c-0.64-0.7-1.28-1.41-1.93-2.12h0c-0.41-0.21-0.8-0.44-0.93-0.94c0,0,0-0.01,0-0.01c0.01-0.01,0.02-0.01,0.03-0.02
				c0.49-0.24,1.04-0.41,1.27-0.99c0.46-0.26,0.93-0.51,1.31-0.89c0.08-0.08,0.15-0.16,0.22-0.25c0.36,0.06,0.45-0.4,0.78-0.39
				c0.01-0.11,0.02-0.23,0.03-0.34c0.11,0,0.21-0.04,0.3-0.09c0.17-0.1,0.31-0.26,0.5-0.31c0.05-0.01,0.1-0.02,0.16-0.01l0,0
				c0.72,0,1.11-0.51,1.51-0.99c0.13-0.12,0.27-0.25,0.41-0.37c0.46-0.07,0.8-0.3,1.01-0.72c0.63-0.39,1.34-0.66,1.87-1.19
				c0-0.01,0-0.02,0-0.04c0-0.02,0-0.05,0-0.07c0-0.03,0-0.06-0.01-0.08c0.22-0.21,0.48-0.33,0.78-0.39h0.14h0.01
				c0.08,0,0.16,0,0.24,0c0.35-0.4,0.93-0.54,1.26-0.97c0.04-0.05,0.07-0.11,0.11-0.17c0.77-0.52,1.54-1.03,2.31-1.54
				c0.04,0,0.08,0.01,0.12,0.01c0.24,0,0.43-0.07,0.46-0.39l0.35-0.02c0.01-0.07,0.03-0.12,0.06-0.17c0.18-0.27,0.63-0.23,0.76-0.56
				c0.52,0.07,0.83-0.26,1.12-0.62v0c1.03-0.65,2.08-1.27,3.09-1.95c0.93-0.63,1.98-1.08,2.85-1.81c0.09-0.08,0.19-0.16,0.28-0.24
				c0.83-0.25,1.49-0.82,2.25-1.18c0.04,0.01,0.08,0.02,0.12,0.03h0c0.03,0.01,0.05,0.01,0.08,0.02c0.12-0.02,0.24-0.03,0.37-0.05
				c0.01-0.07,0.01-0.15,0.02-0.22c0-0.05,0.01-0.09,0.01-0.14c1.44-0.65,2.74-1.57,4.21-2.2c0.94-0.4,1.81-0.97,2.71-1.47
				c1.4-0.42,2.69-1.07,3.97-1.75l0.67-0.36c0.69-0.27,1.39-0.53,2.09-0.8c0.06,0.01,0.12,0.01,0.18,0.01
				c0.12-0.08,0.24-0.15,0.38-0.19c0.02-0.05,0.04-0.1,0.05-0.16c0.06,0,0.11-0.01,0.16-0.04c0.06,0,0.12,0,0.18,0
				c0.14,0,0.27,0,0.41,0l0.18,0c0.07-0.12,0.13-0.24,0.2-0.36c0.06-0.01,0.13-0.02,0.19-0.02c0.18,0,0.37,0,0.56,0.01
				c0.06-0.1,0.13-0.17,0.2-0.23c0.17-0.13,0.38-0.16,0.6-0.15c0.06,0,0.12,0,0.19,0.01l0,0c0.55,0.01,0.95-0.51,1.52-0.42
				c0.08-0.07,0.15-0.14,0.23-0.2c0.01-0.01,0.03-0.03,0.04-0.04c0.02-0.02,0.04-0.04,0.07-0.06c0.02-0.02,0.04-0.04,0.07-0.06
				l0-0.01c0.17-0.04,0.34-0.07,0.51-0.1c0.71-0.14,1.41-0.26,2.13-0.34c1.51-0.18,3.03-0.22,4.56-0.12c0.11,0.01,0.22,0,0.33,0
				c0.2,0,0.41,0.02,0.58,0.18c0.19,0.05,0.37,0.1,0.55,0.16l0.19,0.06c0,0.03,0,0.05,0,0.08c0,0.04,0,0.07,0.01,0.1
				c0.45-0.08,0.72,0.36,1.14,0.4l0.11-0.02c0.01,0,0.03,0,0.04-0.01c0.03-0.01,0.06-0.01,0.08-0.02c0.18,0.04,0.3,0.12,0.33,0.27
				c0.01,0.05,0.01,0.1,0,0.16c0.07,0.05,0.15,0.11,0.22,0.16c0.54,0.36,1.06,0.75,1.34,1.37v0c0.03,0.03,0.05,0.07,0.07,0.1
				c0.08,0.11,0.15,0.22,0.23,0.33c0.02,0.03,0.04,0.05,0.06,0.08c0.07,0.1,0.13,0.2,0.2,0.29c0.01,0.24,0.02,0.49,0.03,0.73
				c0,0.12,0,0.23,0,0.35c0,0.03,0,0.06,0,0.09c0,0.16,0,0.31,0,0.47c0,0.05,0,0.09,0,0.14c0,0.09,0,0.19,0,0.28l0.01,0.01
				c-0.03,0-0.06-0.01-0.1-0.01c-0.01,0-0.02,0-0.03,0c-0.03,0-0.06-0.01-0.08-0.01c-0.28,0.67-0.58,1.34-0.71,2.07
				c-0.03,0.15-0.05,0.3-0.06,0.46c-0.56,0.2-0.1,1.02-0.71,1.19c0.02,0.81-0.32,1.48-0.8,2.1c-0.03,0.84-0.61,1.45-0.95,2.16
				c-0.08,0.24-0.15,0.48-0.23,0.71c-0.07,0.07-0.13,0.15-0.19,0.22c-0.12,0.13-0.24,0.27-0.35,0.4c0,0.06-0.01,0.11-0.04,0.16
				c0.01,0.05,0.01,0.09,0.01,0.14c-0.01,0.13-0.07,0.23-0.16,0.31c-0.06,0.05-0.13,0.1-0.2,0.15c-0.28,0.76-0.6,1.5-1.17,2.1
				c0.01,0.04,0.02,0.08,0.03,0.12c0,0.02,0.01,0.05,0.02,0.07c-0.31,0.81-1,1.41-1.22,2.27c-0.06,0.01-0.12,0.02-0.18,0.03
				c-0.02,0-0.04,0.01-0.06,0.01l-0.13,0.02c-0.44,1.28-1.44,2.22-2.03,3.41C423.92,1114.29,423.89,1114.37,423.86,1114.44
				 M425.41,1120.61L425.41,1120.61c1.12-0.01,2.24-0.01,3.36-0.01C427.65,1120.6,426.53,1120.6,425.41,1120.61 M431.55,1125.53
				c-0.01,0-0.01,0-0.02-0.01C431.54,1125.53,431.55,1125.53,431.55,1125.53L431.55,1125.53L431.55,1125.53z M434.45,1125.92
				L434.45,1125.92c0.09,0,0.18,0,0.27,0C434.63,1125.92,434.54,1125.92,434.45,1125.92 M440.77,1126.58L440.77,1126.58
				c0.07-0.02,0.16-0.01,0.24-0.02C440.92,1126.58,440.84,1126.56,440.77,1126.58 M442.49,1122.94L442.49,1122.94
				C442.49,1122.94,442.49,1122.94,442.49,1122.94L442.49,1122.94z M446.42,1124.94c-0.03-0.03-0.07-0.07-0.1-0.1
				C446.35,1124.88,446.38,1124.91,446.42,1124.94L446.42,1124.94L446.42,1124.94z M449.09,1126.29c-0.52-0.42-1.17-0.62-1.76-0.92
				C447.92,1125.67,448.56,1125.86,449.09,1126.29L449.09,1126.29z M449.13,1126.31L449.13,1126.31c0.01,0,0.03,0.01,0.05,0.02
				C449.16,1126.32,449.14,1126.31,449.13,1126.31 M452.34,1130.63L452.34,1130.63c0.03-0.08,0.05-0.15,0.08-0.23
				C452.39,1130.48,452.37,1130.56,452.34,1130.63 M452.44,1128.76L452.44,1128.76C452.44,1128.76,452.45,1128.76,452.44,1128.76
				L452.44,1128.76c0.04,0.42-0.1,0.87,0.1,1.28C452.35,1129.63,452.49,1129.19,452.44,1128.76 M449.85,1143.7
				c-0.31-0.06-0.6-0.06-0.9-0.02C449.25,1143.64,449.54,1143.63,449.85,1143.7 M450.64,1144.11L450.64,1144.11L450.64,1144.11
				C450.64,1144.11,450.64,1144.11,450.64,1144.11L450.64,1144.11C450.64,1144.11,450.64,1144.11,450.64,1144.11L450.64,1144.11
				C450.64,1144.11,450.64,1144.11,450.64,1144.11C450.64,1144.11,450.64,1144.11,450.64,1144.11 M455.23,1132.36L455.23,1132.36
				C455.23,1132.36,455.23,1132.37,455.23,1132.36C455.23,1132.37,455.23,1132.36,455.23,1132.36 M457.16,1132.84
				c-0.1,0.23-0.39,0.42-0.38,0.64C456.77,1133.26,457.06,1133.07,457.16,1132.84C457.16,1132.84,457.16,1132.84,457.16,1132.84
				C457.16,1132.84,457.16,1132.84,457.16,1132.84"/>
		</g>
	</g>
	<g>
		<g>
			<g>
				<path class="st10" d="M350.82,62.91c-0.74,0.6-1.59,1.04-2.51,1.32c-0.9,0.28-1.89,0.42-2.93,0.42c-1.06,0-2.05-0.16-2.93-0.48
					c-0.88-0.32-1.65-0.78-2.27-1.38c-0.62-0.6-1.12-1.32-1.47-2.18c-0.34-0.86-0.52-1.82-0.52-2.9c0-0.96,0.16-1.86,0.52-2.7
					c0.32-0.86,0.82-1.6,1.45-2.24c0.64-0.64,1.43-1.14,2.33-1.52c0.9-0.38,1.95-0.56,3.09-0.56c1,0,1.93,0.16,2.81,0.46
					c0.84,0.3,1.63,0.76,2.31,1.38l-1.69,2.16c-0.46-0.42-0.98-0.74-1.59-0.96c-0.58-0.2-1.25-0.3-1.95-0.3
					c-0.64,0-1.23,0.1-1.75,0.3c-0.54,0.2-0.98,0.48-1.37,0.84c-0.38,0.38-0.66,0.82-0.88,1.36c-0.2,0.52-0.3,1.1-0.3,1.74
					c0,0.66,0.1,1.26,0.32,1.78c0.22,0.52,0.5,0.96,0.9,1.32c0.36,0.38,0.82,0.66,1.35,0.84c0.52,0.2,1.08,0.3,1.71,0.3
					c0.96,0,1.79-0.18,2.49-0.52v-2.04l-2.37-0.14v-2.5h5.24V62.91z"/>
				<path class="st10" d="M356.58,61.63h7.27v2.74h-10.28v-13.4h3.01V61.63z"/>
				<path class="st10" d="M374.82,51.2c0.88,0.36,1.65,0.86,2.25,1.48c0.64,0.62,1.12,1.36,1.47,2.2c0.34,0.86,0.52,1.78,0.52,2.78
					c0,0.96-0.18,1.86-0.52,2.7c-0.34,0.86-0.84,1.6-1.47,2.24c-0.62,0.62-1.39,1.12-2.25,1.48c-0.88,0.38-1.85,0.56-2.91,0.56
					c-1.04,0-2.01-0.18-2.87-0.52c-0.86-0.36-1.63-0.86-2.25-1.48c-0.64-0.62-1.14-1.36-1.49-2.22c-0.34-0.86-0.52-1.78-0.52-2.76
					c0-0.96,0.18-1.86,0.52-2.72c0.34-0.86,0.84-1.6,1.49-2.22c0.62-0.62,1.39-1.12,2.25-1.48c0.86-0.38,1.83-0.56,2.87-0.56
					C372.98,50.68,373.94,50.86,374.82,51.2z M370.16,53.7c-0.5,0.22-0.94,0.54-1.29,0.92c-0.36,0.38-0.64,0.84-0.82,1.36
					c-0.18,0.52-0.28,1.08-0.28,1.68c0,0.6,0.1,1.16,0.28,1.7c0.18,0.52,0.46,0.98,0.82,1.36c0.36,0.38,0.8,0.68,1.31,0.92
					c0.5,0.2,1.08,0.32,1.73,0.32c0.66,0,1.25-0.12,1.75-0.34c0.52-0.22,0.96-0.54,1.33-0.94c0.34-0.38,0.6-0.84,0.8-1.36
					c0.16-0.52,0.26-1.08,0.26-1.66c0-0.62-0.1-1.18-0.28-1.7c-0.18-0.54-0.46-1-0.82-1.38c-0.34-0.38-0.78-0.68-1.29-0.9
					c-0.52-0.22-1.1-0.32-1.75-0.32C371.27,53.36,370.69,53.48,370.16,53.7z"/>
				<path class="st10" d="M390.78,51.94c0.82,0.66,1.23,1.54,1.23,2.68c0,0.56-0.12,1.06-0.34,1.5c-0.24,0.44-0.56,0.76-0.96,0.98
					v0.18c0.66,0.22,1.19,0.6,1.57,1.16c0.4,0.54,0.6,1.18,0.6,1.92c0,0.54-0.1,1.06-0.28,1.56c-0.2,0.48-0.5,0.9-0.92,1.26
					c-0.4,0.36-0.92,0.64-1.55,0.86c-0.62,0.22-1.37,0.32-2.23,0.32h-6.51v-13.4h5.95C388.83,50.96,389.97,51.28,390.78,51.94z
					 M387.44,56.25c0.5,0,0.9-0.12,1.21-0.36c0.28-0.26,0.42-0.6,0.42-1.02c0-0.9-0.58-1.34-1.73-1.34h-2.97v2.72H387.44z
					 M387.92,61.81c1.33,0,1.99-0.52,1.99-1.58c0-0.5-0.18-0.9-0.52-1.14c-0.34-0.28-0.84-0.4-1.49-0.4h-3.54v3.12H387.92z"/>
				<path class="st10" d="M408.06,64.37h-3.33l-1.02-2.66h-5.77l-1,2.66h-3.27l5.52-13.42h3.31L408.06,64.37z M402.72,59.07
					l-1.79-5.1h-0.2l-1.81,5.1H402.72z"/>
				<path class="st10" d="M412.81,61.63h7.27v2.74H409.8v-13.4h3.01V61.63z"/>
				<path class="st10" d="M435.83,53.64c-0.66-0.2-1.35-0.3-2.05-0.3c-0.88,0-1.51,0.12-1.89,0.34c-0.38,0.24-0.56,0.56-0.56,0.98
					c0,0.38,0.14,0.68,0.42,0.86c0.28,0.2,0.72,0.34,1.35,0.42l1.97,0.26c1.47,0.2,2.57,0.64,3.31,1.36
					c0.72,0.68,1.08,1.6,1.08,2.74c0,0.66-0.12,1.24-0.38,1.78c-0.26,0.54-0.62,1-1.1,1.36c-0.5,0.4-1.1,0.68-1.85,0.88
					c-0.72,0.22-1.55,0.32-2.49,0.32c-1.1,0-2.13-0.12-3.03-0.34c-0.9-0.22-1.81-0.62-2.67-1.2l1.27-2.46c0.74,0.46,1.51,0.8,2.25,1
					c0.74,0.2,1.55,0.3,2.37,0.3c0.88,0,1.55-0.14,1.99-0.4c0.42-0.26,0.64-0.62,0.64-1.08c0-0.38-0.14-0.7-0.44-0.92
					c-0.3-0.22-0.78-0.38-1.47-0.48l-2.07-0.26c-1.31-0.18-2.33-0.58-3.05-1.22c-0.72-0.64-1.08-1.56-1.08-2.78
					c0-0.66,0.12-1.26,0.4-1.76c0.24-0.52,0.62-0.96,1.08-1.3s1.04-0.62,1.69-0.78c0.68-0.2,1.41-0.28,2.21-0.28
					c1.08,0,2.09,0.14,2.99,0.42c0.9,0.28,1.71,0.7,2.39,1.28l-1.49,2.14C437.07,54.14,436.49,53.84,435.83,53.64z"/>
				<path class="st10" d="M450.99,51.2c0.88,0.36,1.65,0.86,2.25,1.48c0.64,0.62,1.12,1.36,1.47,2.2c0.34,0.86,0.52,1.78,0.52,2.78
					c0,0.96-0.18,1.86-0.52,2.7c-0.34,0.86-0.84,1.6-1.47,2.24c-0.62,0.62-1.39,1.12-2.25,1.48c-0.88,0.38-1.85,0.56-2.91,0.56
					c-1.04,0-2.01-0.18-2.87-0.52c-0.86-0.36-1.63-0.86-2.25-1.48c-0.64-0.62-1.15-1.36-1.49-2.22c-0.34-0.86-0.52-1.78-0.52-2.76
					c0-0.96,0.18-1.86,0.52-2.72c0.34-0.86,0.84-1.6,1.49-2.22c0.62-0.62,1.39-1.12,2.25-1.48c0.86-0.38,1.83-0.56,2.87-0.56
					C449.14,50.68,450.11,50.86,450.99,51.2z M446.33,53.7c-0.5,0.22-0.94,0.54-1.29,0.92c-0.36,0.38-0.64,0.84-0.82,1.36
					c-0.18,0.52-0.28,1.08-0.28,1.68c0,0.6,0.1,1.16,0.28,1.7c0.18,0.52,0.46,0.98,0.82,1.36c0.36,0.38,0.8,0.68,1.31,0.92
					c0.5,0.2,1.08,0.32,1.73,0.32c0.66,0,1.25-0.12,1.75-0.34c0.52-0.22,0.96-0.54,1.33-0.94c0.34-0.38,0.6-0.84,0.8-1.36
					c0.16-0.52,0.26-1.08,0.26-1.66c0-0.62-0.1-1.18-0.28-1.7c-0.18-0.54-0.46-1-0.82-1.38c-0.34-0.38-0.78-0.68-1.29-0.9
					c-0.52-0.22-1.1-0.32-1.75-0.32C447.44,53.36,446.85,53.48,446.33,53.7z"/>
				<path class="st10" d="M466.17,53.76c-0.6-0.24-1.29-0.34-2.03-0.34c-0.66,0-1.25,0.1-1.79,0.3c-0.52,0.22-0.96,0.5-1.35,0.88
					c-0.38,0.4-0.66,0.84-0.86,1.36c-0.2,0.52-0.3,1.08-0.3,1.7c0,0.64,0.1,1.22,0.3,1.74c0.22,0.52,0.5,0.96,0.88,1.32
					c0.38,0.38,0.82,0.66,1.35,0.88c0.52,0.2,1.1,0.3,1.73,0.3c0.76,0,1.47-0.14,2.15-0.38c0.64-0.28,1.25-0.64,1.77-1.14l1.71,2.1
					c-1.53,1.44-3.46,2.16-5.79,2.16c-1.04,0-2.01-0.16-2.87-0.48c-0.86-0.34-1.61-0.8-2.25-1.4c-0.6-0.62-1.1-1.34-1.45-2.2
					c-0.34-0.86-0.52-1.8-0.52-2.86c0-0.96,0.16-1.86,0.52-2.72c0.32-0.86,0.82-1.6,1.47-2.24c0.64-0.64,1.43-1.14,2.33-1.5
					c0.9-0.38,1.95-0.56,3.09-0.56c1.04,0,2.01,0.16,2.87,0.48c0.86,0.3,1.65,0.76,2.33,1.36l-1.67,2.18
					C467.33,54.28,466.79,53.96,466.17,53.76z"/>
				<path class="st10" d="M474.64,64.37h-3.03v-13.4h3.03V64.37z"/>
				<path class="st10" d="M490.74,64.37h-3.33l-1.02-2.66h-5.77l-1,2.66h-3.27l5.52-13.42h3.31L490.74,64.37z M485.4,59.07
					l-1.79-5.1h-0.2l-1.81,5.1H485.4z"/>
				<path class="st10" d="M495.49,61.63h7.27v2.74h-10.28v-13.4h3.01V61.63z"/>
				<path class="st10" d="M348.19,71.74c0.82,0.66,1.23,1.54,1.23,2.68c0,0.56-0.12,1.06-0.34,1.5c-0.24,0.44-0.56,0.76-0.96,0.98
					v0.18c0.66,0.22,1.19,0.6,1.57,1.16c0.4,0.54,0.6,1.18,0.6,1.92c0,0.54-0.1,1.06-0.28,1.56c-0.2,0.48-0.5,0.9-0.92,1.26
					c-0.4,0.36-0.92,0.64-1.55,0.86c-0.62,0.22-1.37,0.32-2.23,0.32h-6.51v-13.4h5.95C346.24,70.76,347.39,71.08,348.19,71.74z
					 M344.86,76.05c0.5,0,0.9-0.12,1.21-0.36c0.28-0.26,0.42-0.6,0.42-1.02c0-0.9-0.58-1.34-1.73-1.34h-2.97v2.72H344.86z
					 M345.34,81.61c1.33,0,1.99-0.52,1.99-1.58c0-0.5-0.18-0.9-0.52-1.14c-0.34-0.28-0.84-0.4-1.49-0.4h-3.54v3.12H345.34z"/>
				<path class="st10" d="M355.38,78.23c0,1.08,0.26,1.94,0.78,2.58c0.5,0.62,1.27,0.94,2.27,0.94c1.02,0,1.79-0.3,2.29-0.9
					c0.5-0.58,0.76-1.44,0.76-2.58v-7.5h3.03v7.44c0,0.94-0.12,1.78-0.4,2.56c-0.24,0.76-0.64,1.42-1.17,1.96
					c-0.5,0.54-1.15,0.96-1.89,1.28c-0.76,0.28-1.65,0.44-2.63,0.44s-1.85-0.14-2.59-0.44c-0.76-0.28-1.41-0.68-1.93-1.24
					c-0.5-0.52-0.9-1.18-1.17-1.94s-0.4-1.62-0.4-2.56v-7.5h3.03V78.23z"/>
				<path class="st10" d="M374.46,73.44c-0.66-0.2-1.35-0.3-2.05-0.3c-0.88,0-1.51,0.12-1.89,0.34c-0.38,0.24-0.56,0.56-0.56,0.98
					c0,0.38,0.14,0.68,0.42,0.86c0.28,0.2,0.72,0.34,1.35,0.42l1.97,0.26c1.47,0.2,2.57,0.64,3.31,1.36
					c0.72,0.68,1.08,1.6,1.08,2.74c0,0.66-0.12,1.24-0.38,1.78c-0.26,0.54-0.62,1-1.1,1.36c-0.5,0.4-1.1,0.68-1.85,0.88
					c-0.72,0.22-1.55,0.32-2.49,0.32c-1.1,0-2.13-0.12-3.03-0.34c-0.9-0.22-1.81-0.62-2.67-1.2l1.27-2.46c0.74,0.46,1.51,0.8,2.25,1
					c0.74,0.2,1.55,0.3,2.37,0.3c0.88,0,1.55-0.14,1.99-0.4c0.42-0.26,0.64-0.62,0.64-1.08c0-0.38-0.14-0.7-0.44-0.92
					c-0.3-0.22-0.78-0.38-1.47-0.48l-2.07-0.26c-1.31-0.18-2.33-0.58-3.05-1.22c-0.72-0.64-1.08-1.56-1.08-2.78
					c0-0.66,0.12-1.26,0.4-1.76c0.24-0.52,0.62-0.96,1.08-1.3s1.04-0.62,1.69-0.78c0.68-0.2,1.41-0.28,2.21-0.28
					c1.08,0,2.09,0.14,2.99,0.42c0.9,0.28,1.71,0.7,2.39,1.28l-1.49,2.14C375.7,73.94,375.12,73.64,374.46,73.44z"/>
				<path class="st10" d="M383.47,84.17h-3.03v-13.4h3.03V84.17z"/>
				<path class="st10" d="M398.61,84.17h-3.01l-6.21-8.56v8.56h-2.93v-13.4h2.71l6.53,9.04v-9.04h2.91V84.17z"/>
				<path class="st10" d="M411.69,73.46h-7.09v2.52h6.33v2.62h-6.33v2.86h7.43v2.7h-10.41v-13.4h10.06V73.46z"/>
				<path class="st10" d="M421.56,73.44c-0.66-0.2-1.35-0.3-2.05-0.3c-0.88,0-1.51,0.12-1.89,0.34c-0.38,0.24-0.56,0.56-0.56,0.98
					c0,0.38,0.14,0.68,0.42,0.86c0.28,0.2,0.72,0.34,1.35,0.42l1.97,0.26c1.47,0.2,2.57,0.64,3.31,1.36
					c0.72,0.68,1.08,1.6,1.08,2.74c0,0.66-0.12,1.24-0.38,1.78c-0.26,0.54-0.62,1-1.1,1.36c-0.5,0.4-1.1,0.68-1.85,0.88
					c-0.72,0.22-1.55,0.32-2.49,0.32c-1.1,0-2.13-0.12-3.03-0.34c-0.9-0.22-1.81-0.62-2.67-1.2l1.27-2.46c0.74,0.46,1.51,0.8,2.25,1
					c0.74,0.2,1.55,0.3,2.37,0.3c0.88,0,1.55-0.14,1.99-0.4c0.42-0.26,0.64-0.62,0.64-1.08c0-0.38-0.14-0.7-0.44-0.92
					c-0.3-0.22-0.78-0.38-1.47-0.48l-2.07-0.26c-1.31-0.18-2.33-0.58-3.05-1.22c-0.72-0.64-1.08-1.56-1.08-2.78
					c0-0.66,0.12-1.26,0.4-1.76c0.24-0.52,0.62-0.96,1.08-1.3s1.04-0.62,1.69-0.78c0.68-0.2,1.41-0.28,2.21-0.28
					c1.08,0,2.09,0.14,2.99,0.42c0.9,0.28,1.71,0.7,2.39,1.28l-1.49,2.14C422.81,73.94,422.23,73.64,421.56,73.44z"/>
				<path class="st10" d="M434.49,73.44c-0.66-0.2-1.35-0.3-2.05-0.3c-0.88,0-1.51,0.12-1.89,0.34c-0.38,0.24-0.56,0.56-0.56,0.98
					c0,0.38,0.14,0.68,0.42,0.86c0.28,0.2,0.72,0.34,1.35,0.42l1.97,0.26c1.47,0.2,2.57,0.64,3.31,1.36
					c0.72,0.68,1.08,1.6,1.08,2.74c0,0.66-0.12,1.24-0.38,1.78c-0.26,0.54-0.62,1-1.1,1.36c-0.5,0.4-1.1,0.68-1.85,0.88
					c-0.72,0.22-1.55,0.32-2.49,0.32c-1.1,0-2.13-0.12-3.03-0.34c-0.9-0.22-1.81-0.62-2.67-1.2l1.27-2.46c0.74,0.46,1.51,0.8,2.25,1
					c0.74,0.2,1.55,0.3,2.37,0.3c0.88,0,1.55-0.14,1.99-0.4c0.42-0.26,0.64-0.62,0.64-1.08c0-0.38-0.14-0.7-0.44-0.92
					c-0.3-0.22-0.78-0.38-1.47-0.48l-2.07-0.26c-1.31-0.18-2.33-0.58-3.05-1.22c-0.72-0.64-1.08-1.56-1.08-2.78
					c0-0.66,0.12-1.26,0.4-1.76c0.24-0.52,0.62-0.96,1.08-1.3s1.04-0.62,1.69-0.78c0.68-0.2,1.41-0.28,2.21-0.28
					c1.08,0,2.09,0.14,2.99,0.42c0.9,0.28,1.71,0.7,2.39,1.28l-1.49,2.14C435.74,73.94,435.15,73.64,434.49,73.44z"/>
				<path class="st10" d="M454.03,73.44c-0.66-0.2-1.35-0.3-2.05-0.3c-0.88,0-1.51,0.12-1.89,0.34c-0.38,0.24-0.56,0.56-0.56,0.98
					c0,0.38,0.14,0.68,0.42,0.86c0.28,0.2,0.72,0.34,1.35,0.42l1.97,0.26c1.47,0.2,2.57,0.64,3.31,1.36
					c0.72,0.68,1.08,1.6,1.08,2.74c0,0.66-0.12,1.24-0.38,1.78c-0.26,0.54-0.62,1-1.1,1.36c-0.5,0.4-1.1,0.68-1.85,0.88
					c-0.72,0.22-1.55,0.32-2.49,0.32c-1.1,0-2.13-0.12-3.03-0.34c-0.9-0.22-1.81-0.62-2.67-1.2l1.27-2.46c0.74,0.46,1.51,0.8,2.25,1
					c0.74,0.2,1.55,0.3,2.37,0.3c0.88,0,1.55-0.14,1.99-0.4c0.42-0.26,0.64-0.62,0.64-1.08c0-0.38-0.14-0.7-0.44-0.92
					c-0.3-0.22-0.78-0.38-1.47-0.48l-2.07-0.26c-1.31-0.18-2.33-0.58-3.05-1.22c-0.72-0.64-1.08-1.56-1.08-2.78
					c0-0.66,0.12-1.26,0.4-1.76c0.24-0.52,0.62-0.96,1.08-1.3s1.04-0.62,1.69-0.78c0.68-0.2,1.41-0.28,2.21-0.28
					c1.08,0,2.09,0.14,2.99,0.42c0.9,0.28,1.71,0.7,2.39,1.28l-1.49,2.14C455.28,73.94,454.7,73.64,454.03,73.44z"/>
				<path class="st10" d="M462.82,78.23c0,1.08,0.26,1.94,0.78,2.58c0.5,0.62,1.27,0.94,2.27,0.94c1.02,0,1.79-0.3,2.29-0.9
					c0.5-0.58,0.76-1.44,0.76-2.58v-7.5h3.03v7.44c0,0.94-0.12,1.78-0.4,2.56c-0.24,0.76-0.64,1.42-1.17,1.96
					c-0.5,0.54-1.14,0.96-1.89,1.28c-0.76,0.28-1.65,0.44-2.63,0.44c-0.98,0-1.85-0.14-2.59-0.44c-0.76-0.28-1.41-0.68-1.93-1.24
					c-0.5-0.52-0.9-1.18-1.17-1.94c-0.26-0.76-0.4-1.62-0.4-2.56v-7.5h3.03V78.23z"/>
				<path class="st10" d="M482,76.85l3.74-6.08h3.23v13.4h-2.95v-8.84h-0.18l-3.11,5.1h-1.57l-3.11-5.1h-0.18v8.84h-2.93v-13.4h3.29
					L482,76.85z"/>
				<path class="st10" d="M499.07,76.85l3.74-6.08h3.23v13.4h-2.95v-8.84h-0.18l-3.11,5.1h-1.57l-3.11-5.1h-0.18v8.84H492v-13.4
					h3.29L499.07,76.85z"/>
				<path class="st10" d="M512.11,84.17h-3.03v-13.4h3.03V84.17z"/>
				<path class="st10" d="M526.04,73.48h-4.6v10.68h-2.99V73.48h-4.6v-2.72h12.19V73.48z"/>
			</g>
		</g>
		<g>
			<path class="st10" d="M320,27.96c0,0-41.23-4.66-59.23,13.8c-7.64,7.84-10.63,17.95-10.05,26.79
				c1.21,18.43,6.67,31.62,6.67,31.62s13.89,3.46,32.38,1.97c8.87-0.72,18.48-5.13,25.15-13.81C330.63,67.91,320,27.96,320,27.96z
				 M305.88,46.61c-2.91,5.26-7.53,14.36-9.96,20.42c-2.33,5.82-2.69,12.83-2.61,18.18c0.03,1.75-4.38,2.94-5.79,3.03
				c-0.09,0.01-0.17,0.01-0.25,0.01c-1.2,0-1.5-0.59-1.54-0.96c-0.52-5.08-0.28-12.8,1.75-19.27c-0.72,0.28-1.44,0.44-2.17,0.44
				c-0.73,0-1.36-0.21-1.7-0.76c-1.14-1.82-2.17-3.53-3.17-5.18c-2.45-4.05-4.88-7.82-7.94-12.19c-0.26-0.37-0.3-0.81-0.1-1.26
				c0.62-1.41,3.31-2.85,5.37-3.07c1.45-0.15,2.05,0.38,2.34,0.83c3.75,5.95,6.45,10.47,9.25,16.39c3.22-7.37,7.03-14.84,7.03-14.84
				c0.67-1.39,2.41-2.49,5.16-3.25c0.03-0.01,3.29-0.9,4.22,0.21C305.92,45.49,306.24,45.96,305.88,46.61z"/>
		</g>
	</g>
</g>
</svg>
